G04 #@! TF.GenerationSoftware,KiCad,Pcbnew,(5.1.9)-1*
G04 #@! TF.CreationDate,2021-04-20T15:34:40+09:00*
G04 #@! TF.ProjectId,JupiterAdvanced,4a757069-7465-4724-9164-76616e636564,1*
G04 #@! TF.SameCoordinates,Original*
G04 #@! TF.FileFunction,Other,Fab,Top*
%FSLAX46Y46*%
G04 Gerber Fmt 4.6, Leading zero omitted, Abs format (unit mm)*
G04 Created by KiCad (PCBNEW (5.1.9)-1) date 2021-04-20 15:34:40*
%MOMM*%
%LPD*%
G01*
G04 APERTURE LIST*
%ADD10C,0.150000*%
G04 APERTURE END LIST*
D10*
X293558095Y-158213380D02*
X293558095Y-157213380D01*
X293558095Y-157689571D02*
X294129523Y-157689571D01*
X294129523Y-158213380D02*
X294129523Y-157213380D01*
X295034285Y-157213380D02*
X294843809Y-157213380D01*
X294748571Y-157261000D01*
X294700952Y-157308619D01*
X294605714Y-157451476D01*
X294558095Y-157641952D01*
X294558095Y-158022904D01*
X294605714Y-158118142D01*
X294653333Y-158165761D01*
X294748571Y-158213380D01*
X294939047Y-158213380D01*
X295034285Y-158165761D01*
X295081904Y-158118142D01*
X295129523Y-158022904D01*
X295129523Y-157784809D01*
X295081904Y-157689571D01*
X295034285Y-157641952D01*
X294939047Y-157594333D01*
X294748571Y-157594333D01*
X294653333Y-157641952D01*
X294605714Y-157689571D01*
X294558095Y-157784809D01*
X141316095Y-158213380D02*
X141316095Y-157213380D01*
X141316095Y-157689571D02*
X141887523Y-157689571D01*
X141887523Y-158213380D02*
X141887523Y-157213380D01*
X142839904Y-157213380D02*
X142363714Y-157213380D01*
X142316095Y-157689571D01*
X142363714Y-157641952D01*
X142458952Y-157594333D01*
X142697047Y-157594333D01*
X142792285Y-157641952D01*
X142839904Y-157689571D01*
X142887523Y-157784809D01*
X142887523Y-158022904D01*
X142839904Y-158118142D01*
X142792285Y-158165761D01*
X142697047Y-158213380D01*
X142458952Y-158213380D01*
X142363714Y-158165761D01*
X142316095Y-158118142D01*
X64863095Y-239927380D02*
X64863095Y-238927380D01*
X64863095Y-239403571D02*
X65434523Y-239403571D01*
X65434523Y-239927380D02*
X65434523Y-238927380D01*
X66339285Y-239260714D02*
X66339285Y-239927380D01*
X66101190Y-238879761D02*
X65863095Y-239594047D01*
X66482142Y-239594047D01*
X369863095Y-239927380D02*
X369863095Y-238927380D01*
X369863095Y-239403571D02*
X370434523Y-239403571D01*
X370434523Y-239927380D02*
X370434523Y-238927380D01*
X370815476Y-238927380D02*
X371434523Y-238927380D01*
X371101190Y-239308333D01*
X371244047Y-239308333D01*
X371339285Y-239355952D01*
X371386904Y-239403571D01*
X371434523Y-239498809D01*
X371434523Y-239736904D01*
X371386904Y-239832142D01*
X371339285Y-239879761D01*
X371244047Y-239927380D01*
X370958333Y-239927380D01*
X370863095Y-239879761D01*
X370815476Y-239832142D01*
X369863095Y-87070380D02*
X369863095Y-86070380D01*
X369863095Y-86546571D02*
X370434523Y-86546571D01*
X370434523Y-87070380D02*
X370434523Y-86070380D01*
X370863095Y-86165619D02*
X370910714Y-86118000D01*
X371005952Y-86070380D01*
X371244047Y-86070380D01*
X371339285Y-86118000D01*
X371386904Y-86165619D01*
X371434523Y-86260857D01*
X371434523Y-86356095D01*
X371386904Y-86498952D01*
X370815476Y-87070380D01*
X371434523Y-87070380D01*
X64863095Y-86970380D02*
X64863095Y-85970380D01*
X64863095Y-86446571D02*
X65434523Y-86446571D01*
X65434523Y-86970380D02*
X65434523Y-85970380D01*
X66434523Y-86970380D02*
X65863095Y-86970380D01*
X66148809Y-86970380D02*
X66148809Y-85970380D01*
X66053571Y-86113238D01*
X65958333Y-86208476D01*
X65863095Y-86256095D01*
M02*
