G04 #@! TF.GenerationSoftware,KiCad,Pcbnew,(5.1.9)-1*
G04 #@! TF.CreationDate,2021-04-20T15:34:40+09:00*
G04 #@! TF.ProjectId,JupiterAdvanced,4a757069-7465-4724-9164-76616e636564,1*
G04 #@! TF.SameCoordinates,Original*
G04 #@! TF.FileFunction,OtherDrawing,Comment*
%FSLAX46Y46*%
G04 Gerber Fmt 4.6, Leading zero omitted, Abs format (unit mm)*
G04 Created by KiCad (PCBNEW (5.1.9)-1) date 2021-04-20 15:34:40*
%MOMM*%
%LPD*%
G01*
G04 APERTURE LIST*
%ADD10C,0.150000*%
G04 APERTURE END LIST*
D10*
X341889320Y-160449620D02*
X343889320Y-160449620D01*
X343889320Y-160449620D02*
X343889320Y-162449620D01*
X341889320Y-174449620D02*
X343889320Y-174449620D01*
X343889320Y-174449620D02*
X343889320Y-172449620D01*
X329889320Y-172449620D02*
X329889320Y-174449620D01*
X329889320Y-174449620D02*
X331889320Y-174449620D01*
X331889320Y-160449620D02*
X329889320Y-160449620D01*
X329889320Y-160449620D02*
X329889320Y-162449620D01*
X327364320Y-157924620D02*
X346414320Y-157924620D01*
X346414320Y-157924620D02*
X346414320Y-176974620D01*
X346414320Y-176974620D02*
X327364320Y-176974620D01*
X327364320Y-176974620D02*
X327364320Y-157924620D01*
X365816120Y-93798820D02*
X367816120Y-93798820D01*
X367816120Y-93798820D02*
X367816120Y-95798820D01*
X365816120Y-107798820D02*
X367816120Y-107798820D01*
X367816120Y-107798820D02*
X367816120Y-105798820D01*
X353816120Y-105798820D02*
X353816120Y-107798820D01*
X353816120Y-107798820D02*
X355816120Y-107798820D01*
X355816120Y-93798820D02*
X353816120Y-93798820D01*
X353816120Y-93798820D02*
X353816120Y-95798820D01*
X351291120Y-91273820D02*
X370341120Y-91273820D01*
X370341120Y-91273820D02*
X370341120Y-110323820D01*
X370341120Y-110323820D02*
X351291120Y-110323820D01*
X351291120Y-110323820D02*
X351291120Y-91273820D01*
X258130240Y-80695980D02*
X267070240Y-80695980D01*
X258130240Y-80695980D02*
X258130240Y-87995980D01*
X267070240Y-80695980D02*
X267070240Y-87995980D01*
X258130240Y-87995980D02*
X267070240Y-87995980D01*
X80002620Y-141386920D02*
X82002620Y-141386920D01*
X82002620Y-141386920D02*
X82002620Y-143386920D01*
X80002620Y-155386920D02*
X82002620Y-155386920D01*
X82002620Y-155386920D02*
X82002620Y-153386920D01*
X68002620Y-153386920D02*
X68002620Y-155386920D01*
X68002620Y-155386920D02*
X70002620Y-155386920D01*
X70002620Y-141386920D02*
X68002620Y-141386920D01*
X68002620Y-141386920D02*
X68002620Y-143386920D01*
X65477620Y-138861920D02*
X84527620Y-138861920D01*
X84527620Y-138861920D02*
X84527620Y-157911920D01*
X84527620Y-157911920D02*
X65477620Y-157911920D01*
X65477620Y-157911920D02*
X65477620Y-138861920D01*
X84765120Y-160449620D02*
X86765120Y-160449620D01*
X86765120Y-160449620D02*
X86765120Y-162449620D01*
X84765120Y-174449620D02*
X86765120Y-174449620D01*
X86765120Y-174449620D02*
X86765120Y-172449620D01*
X72765120Y-172449620D02*
X72765120Y-174449620D01*
X72765120Y-174449620D02*
X74765120Y-174449620D01*
X74765120Y-160449620D02*
X72765120Y-160449620D01*
X72765120Y-160449620D02*
X72765120Y-162449620D01*
X65477620Y-157924620D02*
X94052620Y-157924620D01*
X94052620Y-157924620D02*
X94052620Y-176974620D01*
X65477620Y-176974620D02*
X94052620Y-176974620D01*
X65477620Y-176974620D02*
X65477620Y-157924620D01*
X201465647Y-217609227D02*
X203465647Y-217609227D01*
X203465647Y-217609227D02*
X203465647Y-219609227D01*
X201465647Y-231609227D02*
X203465647Y-231609227D01*
X203465647Y-231609227D02*
X203465647Y-229609227D01*
X189465647Y-229609227D02*
X189465647Y-231609227D01*
X189465647Y-231609227D02*
X191465647Y-231609227D01*
X191465647Y-217609227D02*
X189465647Y-217609227D01*
X189465647Y-217609227D02*
X189465647Y-219609227D01*
X136934397Y-215084227D02*
X255996897Y-215084227D01*
X255996897Y-215084227D02*
X255996897Y-234134227D01*
X136934397Y-234134227D02*
X255996897Y-234134227D01*
X136934397Y-234134227D02*
X136934397Y-215084227D01*
X320566020Y-198549620D02*
X322566020Y-198549620D01*
X322566020Y-198549620D02*
X322566020Y-200549620D01*
X320566020Y-212549620D02*
X322566020Y-212549620D01*
X322566020Y-212549620D02*
X322566020Y-210549620D01*
X308566020Y-210549620D02*
X308566020Y-212549620D01*
X308566020Y-212549620D02*
X310566020Y-212549620D01*
X310566020Y-198549620D02*
X308566020Y-198549620D01*
X308566020Y-198549620D02*
X308566020Y-200549620D01*
X298897270Y-196024620D02*
X332234770Y-196024620D01*
X332234770Y-196024620D02*
X332234770Y-215074620D01*
X298897270Y-215074620D02*
X332234770Y-215074620D01*
X298897270Y-215074620D02*
X298897270Y-196024620D01*
X308691520Y-217599620D02*
X310691520Y-217599620D01*
X310691520Y-217599620D02*
X310691520Y-219599620D01*
X308691520Y-231599620D02*
X310691520Y-231599620D01*
X310691520Y-231599620D02*
X310691520Y-229599620D01*
X296691520Y-229599620D02*
X296691520Y-231599620D01*
X296691520Y-231599620D02*
X298691520Y-231599620D01*
X298691520Y-217599620D02*
X296691520Y-217599620D01*
X296691520Y-217599620D02*
X296691520Y-219599620D01*
X294166520Y-215074620D02*
X313216520Y-215074620D01*
X313216520Y-215074620D02*
X313216520Y-234124620D01*
X313216520Y-234124620D02*
X294166520Y-234124620D01*
X294166520Y-234124620D02*
X294166520Y-215074620D01*
X318089520Y-160449620D02*
X320089520Y-160449620D01*
X320089520Y-160449620D02*
X320089520Y-162449620D01*
X318089520Y-174449620D02*
X320089520Y-174449620D01*
X320089520Y-174449620D02*
X320089520Y-172449620D01*
X306089520Y-172449620D02*
X306089520Y-174449620D01*
X306089520Y-174449620D02*
X308089520Y-174449620D01*
X308089520Y-160449620D02*
X306089520Y-160449620D01*
X306089520Y-160449620D02*
X306089520Y-162449620D01*
X303564520Y-157924620D02*
X322614520Y-157924620D01*
X322614520Y-157924620D02*
X322614520Y-176974620D01*
X322614520Y-176974620D02*
X303564520Y-176974620D01*
X303564520Y-176974620D02*
X303564520Y-157924620D01*
X270520380Y-217599620D02*
X272520380Y-217599620D01*
X272520380Y-217599620D02*
X272520380Y-219599620D01*
X270520380Y-231599620D02*
X272520380Y-231599620D01*
X272520380Y-231599620D02*
X272520380Y-229599620D01*
X258520380Y-229599620D02*
X258520380Y-231599620D01*
X258520380Y-231599620D02*
X260520380Y-231599620D01*
X260520380Y-217599620D02*
X258520380Y-217599620D01*
X258520380Y-217599620D02*
X258520380Y-219599620D01*
X255995380Y-215074620D02*
X275045380Y-215074620D01*
X275045380Y-215074620D02*
X275045380Y-234124620D01*
X275045380Y-234124620D02*
X255995380Y-234124620D01*
X255995380Y-234124620D02*
X255995380Y-215074620D01*
X303814720Y-179499620D02*
X305814720Y-179499620D01*
X305814720Y-179499620D02*
X305814720Y-181499620D01*
X303814720Y-193499620D02*
X305814720Y-193499620D01*
X305814720Y-193499620D02*
X305814720Y-191499620D01*
X291814720Y-191499620D02*
X291814720Y-193499620D01*
X291814720Y-193499620D02*
X293814720Y-193499620D01*
X293814720Y-179499620D02*
X291814720Y-179499620D01*
X291814720Y-179499620D02*
X291814720Y-181499620D01*
X289289720Y-176974620D02*
X308339720Y-176974620D01*
X308339720Y-176974620D02*
X308339720Y-196024620D01*
X308339720Y-196024620D02*
X289289720Y-196024620D01*
X289289720Y-196024620D02*
X289289720Y-176974620D01*
X294340520Y-198549620D02*
X296340520Y-198549620D01*
X296340520Y-198549620D02*
X296340520Y-200549620D01*
X294340520Y-212549620D02*
X296340520Y-212549620D01*
X296340520Y-212549620D02*
X296340520Y-210549620D01*
X282340520Y-210549620D02*
X282340520Y-212549620D01*
X282340520Y-212549620D02*
X284340520Y-212549620D01*
X284340520Y-198549620D02*
X282340520Y-198549620D01*
X282340520Y-198549620D02*
X282340520Y-200549620D01*
X279815520Y-196024620D02*
X298865520Y-196024620D01*
X298865520Y-196024620D02*
X298865520Y-215074620D01*
X298865520Y-215074620D02*
X279815520Y-215074620D01*
X279815520Y-215074620D02*
X279815520Y-196024620D01*
X327741520Y-122349620D02*
X329741520Y-122349620D01*
X329741520Y-122349620D02*
X329741520Y-124349620D01*
X327741520Y-136349620D02*
X329741520Y-136349620D01*
X329741520Y-136349620D02*
X329741520Y-134349620D01*
X315741520Y-134349620D02*
X315741520Y-136349620D01*
X315741520Y-136349620D02*
X317741520Y-136349620D01*
X317741520Y-122349620D02*
X315741520Y-122349620D01*
X315741520Y-122349620D02*
X315741520Y-124349620D01*
X313216520Y-119824620D02*
X332266520Y-119824620D01*
X332266520Y-119824620D02*
X332266520Y-138874620D01*
X332266520Y-138874620D02*
X313216520Y-138874620D01*
X313216520Y-138874620D02*
X313216520Y-119824620D01*
X308640720Y-141399620D02*
X310640720Y-141399620D01*
X310640720Y-141399620D02*
X310640720Y-143399620D01*
X308640720Y-155399620D02*
X310640720Y-155399620D01*
X310640720Y-155399620D02*
X310640720Y-153399620D01*
X296640720Y-153399620D02*
X296640720Y-155399620D01*
X296640720Y-155399620D02*
X298640720Y-155399620D01*
X298640720Y-141399620D02*
X296640720Y-141399620D01*
X296640720Y-141399620D02*
X296640720Y-143399620D01*
X294115720Y-138874620D02*
X313165720Y-138874620D01*
X313165720Y-138874620D02*
X313165720Y-157924620D01*
X313165720Y-157924620D02*
X294115720Y-157924620D01*
X294115720Y-157924620D02*
X294115720Y-138874620D01*
X365841520Y-160449620D02*
X367841520Y-160449620D01*
X367841520Y-160449620D02*
X367841520Y-162449620D01*
X365841520Y-174449620D02*
X367841520Y-174449620D01*
X367841520Y-174449620D02*
X367841520Y-172449620D01*
X353841520Y-172449620D02*
X353841520Y-174449620D01*
X353841520Y-174449620D02*
X355841520Y-174449620D01*
X355841520Y-160449620D02*
X353841520Y-160449620D01*
X353841520Y-160449620D02*
X353841520Y-162449620D01*
X351316520Y-157924620D02*
X370366520Y-157924620D01*
X370366520Y-157924620D02*
X370366520Y-176974620D01*
X370366520Y-176974620D02*
X351316520Y-176974620D01*
X351316520Y-176974620D02*
X351316520Y-157924620D01*
X365841520Y-179499620D02*
X367841520Y-179499620D01*
X367841520Y-179499620D02*
X367841520Y-181499620D01*
X365841520Y-193499620D02*
X367841520Y-193499620D01*
X367841520Y-193499620D02*
X367841520Y-191499620D01*
X353841520Y-191499620D02*
X353841520Y-193499620D01*
X353841520Y-193499620D02*
X355841520Y-193499620D01*
X355841520Y-179499620D02*
X353841520Y-179499620D01*
X353841520Y-179499620D02*
X353841520Y-181499620D01*
X351316520Y-176974620D02*
X370366520Y-176974620D01*
X370366520Y-176974620D02*
X370366520Y-196024620D01*
X370366520Y-196024620D02*
X351316520Y-196024620D01*
X351316520Y-196024620D02*
X351316520Y-176974620D01*
X346740720Y-122349620D02*
X348740720Y-122349620D01*
X348740720Y-122349620D02*
X348740720Y-124349620D01*
X346740720Y-136349620D02*
X348740720Y-136349620D01*
X348740720Y-136349620D02*
X348740720Y-134349620D01*
X334740720Y-134349620D02*
X334740720Y-136349620D01*
X334740720Y-136349620D02*
X336740720Y-136349620D01*
X336740720Y-122349620D02*
X334740720Y-122349620D01*
X334740720Y-122349620D02*
X334740720Y-124349620D01*
X332215720Y-119824620D02*
X351265720Y-119824620D01*
X351265720Y-119824620D02*
X351265720Y-138874620D01*
X351265720Y-138874620D02*
X332215720Y-138874620D01*
X332215720Y-138874620D02*
X332215720Y-119824620D01*
X122890520Y-198549620D02*
X124890520Y-198549620D01*
X124890520Y-198549620D02*
X124890520Y-200549620D01*
X122890520Y-212549620D02*
X124890520Y-212549620D01*
X124890520Y-212549620D02*
X124890520Y-210549620D01*
X110890520Y-210549620D02*
X110890520Y-212549620D01*
X110890520Y-212549620D02*
X112890520Y-212549620D01*
X112890520Y-198549620D02*
X110890520Y-198549620D01*
X110890520Y-198549620D02*
X110890520Y-200549620D01*
X108365520Y-196024620D02*
X127415520Y-196024620D01*
X127415520Y-196024620D02*
X127415520Y-215074620D01*
X127415520Y-215074620D02*
X108365520Y-215074620D01*
X108365520Y-215074620D02*
X108365520Y-196024620D01*
X203840320Y-160449620D02*
X205840320Y-160449620D01*
X205840320Y-160449620D02*
X205840320Y-162449620D01*
X203840320Y-174449620D02*
X205840320Y-174449620D01*
X205840320Y-174449620D02*
X205840320Y-172449620D01*
X191840320Y-172449620D02*
X191840320Y-174449620D01*
X191840320Y-174449620D02*
X193840320Y-174449620D01*
X193840320Y-160449620D02*
X191840320Y-160449620D01*
X191840320Y-160449620D02*
X191840320Y-162449620D01*
X189315320Y-157924620D02*
X208365320Y-157924620D01*
X208365320Y-157924620D02*
X208365320Y-176974620D01*
X208365320Y-176974620D02*
X189315320Y-176974620D01*
X189315320Y-176974620D02*
X189315320Y-157924620D01*
X141940520Y-198549620D02*
X143940520Y-198549620D01*
X143940520Y-198549620D02*
X143940520Y-200549620D01*
X141940520Y-212549620D02*
X143940520Y-212549620D01*
X143940520Y-212549620D02*
X143940520Y-210549620D01*
X129940520Y-210549620D02*
X129940520Y-212549620D01*
X129940520Y-212549620D02*
X131940520Y-212549620D01*
X131940520Y-198549620D02*
X129940520Y-198549620D01*
X129940520Y-198549620D02*
X129940520Y-200549620D01*
X127415520Y-196024620D02*
X146465520Y-196024620D01*
X146465520Y-196024620D02*
X146465520Y-215074620D01*
X146465520Y-215074620D02*
X127415520Y-215074620D01*
X127415520Y-215074620D02*
X127415520Y-196024620D01*
X127640320Y-160449620D02*
X129640320Y-160449620D01*
X129640320Y-160449620D02*
X129640320Y-162449620D01*
X127640320Y-174449620D02*
X129640320Y-174449620D01*
X129640320Y-174449620D02*
X129640320Y-172449620D01*
X115640320Y-172449620D02*
X115640320Y-174449620D01*
X115640320Y-174449620D02*
X117640320Y-174449620D01*
X117640320Y-160449620D02*
X115640320Y-160449620D01*
X115640320Y-160449620D02*
X115640320Y-162449620D01*
X113115320Y-157924620D02*
X132165320Y-157924620D01*
X132165320Y-157924620D02*
X132165320Y-176974620D01*
X132165320Y-176974620D02*
X113115320Y-176974620D01*
X113115320Y-176974620D02*
X113115320Y-157924620D01*
X180040520Y-198549620D02*
X182040520Y-198549620D01*
X182040520Y-198549620D02*
X182040520Y-200549620D01*
X180040520Y-212549620D02*
X182040520Y-212549620D01*
X182040520Y-212549620D02*
X182040520Y-210549620D01*
X168040520Y-210549620D02*
X168040520Y-212549620D01*
X168040520Y-212549620D02*
X170040520Y-212549620D01*
X170040520Y-198549620D02*
X168040520Y-198549620D01*
X168040520Y-198549620D02*
X168040520Y-200549620D01*
X165515520Y-196024620D02*
X184565520Y-196024620D01*
X184565520Y-196024620D02*
X184565520Y-215074620D01*
X184565520Y-215074620D02*
X165515520Y-215074620D01*
X165515520Y-215074620D02*
X165515520Y-196024620D01*
X222890320Y-160449620D02*
X224890320Y-160449620D01*
X224890320Y-160449620D02*
X224890320Y-162449620D01*
X222890320Y-174449620D02*
X224890320Y-174449620D01*
X224890320Y-174449620D02*
X224890320Y-172449620D01*
X210890320Y-172449620D02*
X210890320Y-174449620D01*
X210890320Y-174449620D02*
X212890320Y-174449620D01*
X212890320Y-160449620D02*
X210890320Y-160449620D01*
X210890320Y-160449620D02*
X210890320Y-162449620D01*
X208365320Y-157924620D02*
X227415320Y-157924620D01*
X227415320Y-157924620D02*
X227415320Y-176974620D01*
X227415320Y-176974620D02*
X208365320Y-176974620D01*
X208365320Y-176974620D02*
X208365320Y-157924620D01*
X184790320Y-160449620D02*
X186790320Y-160449620D01*
X186790320Y-160449620D02*
X186790320Y-162449620D01*
X184790320Y-174449620D02*
X186790320Y-174449620D01*
X186790320Y-174449620D02*
X186790320Y-172449620D01*
X172790320Y-172449620D02*
X172790320Y-174449620D01*
X172790320Y-174449620D02*
X174790320Y-174449620D01*
X174790320Y-160449620D02*
X172790320Y-160449620D01*
X172790320Y-160449620D02*
X172790320Y-162449620D01*
X170265320Y-157924620D02*
X189315320Y-157924620D01*
X189315320Y-157924620D02*
X189315320Y-176974620D01*
X189315320Y-176974620D02*
X170265320Y-176974620D01*
X170265320Y-176974620D02*
X170265320Y-157924620D01*
X346766120Y-93798820D02*
X348766120Y-93798820D01*
X348766120Y-93798820D02*
X348766120Y-95798820D01*
X346766120Y-107798820D02*
X348766120Y-107798820D01*
X348766120Y-107798820D02*
X348766120Y-105798820D01*
X334766120Y-105798820D02*
X334766120Y-107798820D01*
X334766120Y-107798820D02*
X336766120Y-107798820D01*
X336766120Y-93798820D02*
X334766120Y-93798820D01*
X334766120Y-93798820D02*
X334766120Y-95798820D01*
X332241120Y-91273820D02*
X351291120Y-91273820D01*
X351291120Y-91273820D02*
X351291120Y-110323820D01*
X351291120Y-110323820D02*
X332241120Y-110323820D01*
X332241120Y-110323820D02*
X332241120Y-91273820D01*
X327716120Y-93798820D02*
X329716120Y-93798820D01*
X329716120Y-93798820D02*
X329716120Y-95798820D01*
X327716120Y-107798820D02*
X329716120Y-107798820D01*
X329716120Y-107798820D02*
X329716120Y-105798820D01*
X315716120Y-105798820D02*
X315716120Y-107798820D01*
X315716120Y-107798820D02*
X317716120Y-107798820D01*
X317716120Y-93798820D02*
X315716120Y-93798820D01*
X315716120Y-93798820D02*
X315716120Y-95798820D01*
X313191120Y-91273820D02*
X332241120Y-91273820D01*
X332241120Y-91273820D02*
X332241120Y-110323820D01*
X332241120Y-110323820D02*
X313191120Y-110323820D01*
X313191120Y-110323820D02*
X313191120Y-91273820D01*
X308666120Y-93798820D02*
X310666120Y-93798820D01*
X310666120Y-93798820D02*
X310666120Y-95798820D01*
X308666120Y-107798820D02*
X310666120Y-107798820D01*
X310666120Y-107798820D02*
X310666120Y-105798820D01*
X296666120Y-105798820D02*
X296666120Y-107798820D01*
X296666120Y-107798820D02*
X298666120Y-107798820D01*
X298666120Y-93798820D02*
X296666120Y-93798820D01*
X296666120Y-93798820D02*
X296666120Y-95798820D01*
X294141120Y-91273820D02*
X313191120Y-91273820D01*
X313191120Y-91273820D02*
X313191120Y-110323820D01*
X313191120Y-110323820D02*
X294141120Y-110323820D01*
X294141120Y-110323820D02*
X294141120Y-91273820D01*
X289675320Y-93798820D02*
X291675320Y-93798820D01*
X291675320Y-93798820D02*
X291675320Y-95798820D01*
X289675320Y-107798820D02*
X291675320Y-107798820D01*
X291675320Y-107798820D02*
X291675320Y-105798820D01*
X277675320Y-105798820D02*
X277675320Y-107798820D01*
X277675320Y-107798820D02*
X279675320Y-107798820D01*
X279675320Y-93798820D02*
X277675320Y-93798820D01*
X277675320Y-93798820D02*
X277675320Y-95798820D01*
X275150320Y-91273820D02*
X294200320Y-91273820D01*
X294200320Y-91273820D02*
X294200320Y-110323820D01*
X294200320Y-110323820D02*
X275150320Y-110323820D01*
X275150320Y-110323820D02*
X275150320Y-91273820D01*
X251516120Y-93798820D02*
X253516120Y-93798820D01*
X253516120Y-93798820D02*
X253516120Y-95798820D01*
X251516120Y-107798820D02*
X253516120Y-107798820D01*
X253516120Y-107798820D02*
X253516120Y-105798820D01*
X239516120Y-105798820D02*
X239516120Y-107798820D01*
X239516120Y-107798820D02*
X241516120Y-107798820D01*
X241516120Y-93798820D02*
X239516120Y-93798820D01*
X239516120Y-93798820D02*
X239516120Y-95798820D01*
X236991120Y-91273820D02*
X256041120Y-91273820D01*
X256041120Y-91273820D02*
X256041120Y-110323820D01*
X256041120Y-110323820D02*
X236991120Y-110323820D01*
X236991120Y-110323820D02*
X236991120Y-91273820D01*
X232466120Y-93798820D02*
X234466120Y-93798820D01*
X234466120Y-93798820D02*
X234466120Y-95798820D01*
X232466120Y-107798820D02*
X234466120Y-107798820D01*
X234466120Y-107798820D02*
X234466120Y-105798820D01*
X220466120Y-105798820D02*
X220466120Y-107798820D01*
X220466120Y-107798820D02*
X222466120Y-107798820D01*
X222466120Y-93798820D02*
X220466120Y-93798820D01*
X220466120Y-93798820D02*
X220466120Y-95798820D01*
X217941120Y-91273820D02*
X236991120Y-91273820D01*
X236991120Y-91273820D02*
X236991120Y-110323820D01*
X236991120Y-110323820D02*
X217941120Y-110323820D01*
X217941120Y-110323820D02*
X217941120Y-91273820D01*
X213416120Y-93798820D02*
X215416120Y-93798820D01*
X215416120Y-93798820D02*
X215416120Y-95798820D01*
X213416120Y-107798820D02*
X215416120Y-107798820D01*
X215416120Y-107798820D02*
X215416120Y-105798820D01*
X201416120Y-105798820D02*
X201416120Y-107798820D01*
X201416120Y-107798820D02*
X203416120Y-107798820D01*
X203416120Y-93798820D02*
X201416120Y-93798820D01*
X201416120Y-93798820D02*
X201416120Y-95798820D01*
X198891120Y-91273820D02*
X217941120Y-91273820D01*
X217941120Y-91273820D02*
X217941120Y-110323820D01*
X217941120Y-110323820D02*
X198891120Y-110323820D01*
X198891120Y-110323820D02*
X198891120Y-91273820D01*
X194366120Y-93798820D02*
X196366120Y-93798820D01*
X196366120Y-93798820D02*
X196366120Y-95798820D01*
X194366120Y-107798820D02*
X196366120Y-107798820D01*
X196366120Y-107798820D02*
X196366120Y-105798820D01*
X182366120Y-105798820D02*
X182366120Y-107798820D01*
X182366120Y-107798820D02*
X184366120Y-107798820D01*
X184366120Y-93798820D02*
X182366120Y-93798820D01*
X182366120Y-93798820D02*
X182366120Y-95798820D01*
X179841120Y-91273820D02*
X198891120Y-91273820D01*
X198891120Y-91273820D02*
X198891120Y-110323820D01*
X198891120Y-110323820D02*
X179841120Y-110323820D01*
X179841120Y-110323820D02*
X179841120Y-91273820D01*
X175316120Y-93798820D02*
X177316120Y-93798820D01*
X177316120Y-93798820D02*
X177316120Y-95798820D01*
X175316120Y-107798820D02*
X177316120Y-107798820D01*
X177316120Y-107798820D02*
X177316120Y-105798820D01*
X163316120Y-105798820D02*
X163316120Y-107798820D01*
X163316120Y-107798820D02*
X165316120Y-107798820D01*
X165316120Y-93798820D02*
X163316120Y-93798820D01*
X163316120Y-93798820D02*
X163316120Y-95798820D01*
X160791120Y-91273820D02*
X179841120Y-91273820D01*
X179841120Y-91273820D02*
X179841120Y-110323820D01*
X179841120Y-110323820D02*
X160791120Y-110323820D01*
X160791120Y-110323820D02*
X160791120Y-91273820D01*
X156266120Y-93798820D02*
X158266120Y-93798820D01*
X158266120Y-93798820D02*
X158266120Y-95798820D01*
X156266120Y-107798820D02*
X158266120Y-107798820D01*
X158266120Y-107798820D02*
X158266120Y-105798820D01*
X144266120Y-105798820D02*
X144266120Y-107798820D01*
X144266120Y-107798820D02*
X146266120Y-107798820D01*
X146266120Y-93798820D02*
X144266120Y-93798820D01*
X144266120Y-93798820D02*
X144266120Y-95798820D01*
X141741120Y-91273820D02*
X160791120Y-91273820D01*
X160791120Y-91273820D02*
X160791120Y-110323820D01*
X160791120Y-110323820D02*
X141741120Y-110323820D01*
X141741120Y-110323820D02*
X141741120Y-91273820D01*
X137216120Y-93798820D02*
X139216120Y-93798820D01*
X139216120Y-93798820D02*
X139216120Y-95798820D01*
X137216120Y-107798820D02*
X139216120Y-107798820D01*
X139216120Y-107798820D02*
X139216120Y-105798820D01*
X125216120Y-105798820D02*
X125216120Y-107798820D01*
X125216120Y-107798820D02*
X127216120Y-107798820D01*
X127216120Y-93798820D02*
X125216120Y-93798820D01*
X125216120Y-93798820D02*
X125216120Y-95798820D01*
X122691120Y-91273820D02*
X141741120Y-91273820D01*
X141741120Y-91273820D02*
X141741120Y-110323820D01*
X141741120Y-110323820D02*
X122691120Y-110323820D01*
X122691120Y-110323820D02*
X122691120Y-91273820D01*
X118166120Y-93798820D02*
X120166120Y-93798820D01*
X120166120Y-93798820D02*
X120166120Y-95798820D01*
X118166120Y-107798820D02*
X120166120Y-107798820D01*
X120166120Y-107798820D02*
X120166120Y-105798820D01*
X106166120Y-105798820D02*
X106166120Y-107798820D01*
X106166120Y-107798820D02*
X108166120Y-107798820D01*
X108166120Y-93798820D02*
X106166120Y-93798820D01*
X106166120Y-93798820D02*
X106166120Y-95798820D01*
X103641120Y-91273820D02*
X122691120Y-91273820D01*
X122691120Y-91273820D02*
X122691120Y-110323820D01*
X122691120Y-110323820D02*
X103641120Y-110323820D01*
X103641120Y-110323820D02*
X103641120Y-91273820D01*
X99116120Y-93798820D02*
X101116120Y-93798820D01*
X101116120Y-93798820D02*
X101116120Y-95798820D01*
X99116120Y-107798820D02*
X101116120Y-107798820D01*
X101116120Y-107798820D02*
X101116120Y-105798820D01*
X87116120Y-105798820D02*
X87116120Y-107798820D01*
X87116120Y-107798820D02*
X89116120Y-107798820D01*
X89116120Y-93798820D02*
X87116120Y-93798820D01*
X87116120Y-93798820D02*
X87116120Y-95798820D01*
X84591120Y-91273820D02*
X103641120Y-91273820D01*
X103641120Y-91273820D02*
X103641120Y-110323820D01*
X103641120Y-110323820D02*
X84591120Y-110323820D01*
X84591120Y-110323820D02*
X84591120Y-91273820D01*
X80066120Y-93798820D02*
X82066120Y-93798820D01*
X82066120Y-93798820D02*
X82066120Y-95798820D01*
X80066120Y-107798820D02*
X82066120Y-107798820D01*
X82066120Y-107798820D02*
X82066120Y-105798820D01*
X68066120Y-105798820D02*
X68066120Y-107798820D01*
X68066120Y-107798820D02*
X70066120Y-107798820D01*
X70066120Y-93798820D02*
X68066120Y-93798820D01*
X68066120Y-93798820D02*
X68066120Y-95798820D01*
X65541120Y-91273820D02*
X84591120Y-91273820D01*
X84591120Y-91273820D02*
X84591120Y-110323820D01*
X84591120Y-110323820D02*
X65541120Y-110323820D01*
X65541120Y-110323820D02*
X65541120Y-91273820D01*
X132313920Y-179499620D02*
X134313920Y-179499620D01*
X134313920Y-179499620D02*
X134313920Y-181499620D01*
X132313920Y-193499620D02*
X134313920Y-193499620D01*
X134313920Y-193499620D02*
X134313920Y-191499620D01*
X120313920Y-191499620D02*
X120313920Y-193499620D01*
X120313920Y-193499620D02*
X122313920Y-193499620D01*
X122313920Y-179499620D02*
X120313920Y-179499620D01*
X120313920Y-179499620D02*
X120313920Y-181499620D01*
X117788920Y-176974620D02*
X136838920Y-176974620D01*
X136838920Y-176974620D02*
X136838920Y-196024620D01*
X136838920Y-196024620D02*
X117788920Y-196024620D01*
X117788920Y-196024620D02*
X117788920Y-176974620D01*
X165740320Y-160449620D02*
X167740320Y-160449620D01*
X167740320Y-160449620D02*
X167740320Y-162449620D01*
X165740320Y-174449620D02*
X167740320Y-174449620D01*
X167740320Y-174449620D02*
X167740320Y-172449620D01*
X153740320Y-172449620D02*
X153740320Y-174449620D01*
X153740320Y-174449620D02*
X155740320Y-174449620D01*
X155740320Y-160449620D02*
X153740320Y-160449620D01*
X153740320Y-160449620D02*
X153740320Y-162449620D01*
X151215320Y-157924620D02*
X170265320Y-157924620D01*
X170265320Y-157924620D02*
X170265320Y-176974620D01*
X170265320Y-176974620D02*
X151215320Y-176974620D01*
X151215320Y-176974620D02*
X151215320Y-157924620D01*
X108590320Y-160449620D02*
X110590320Y-160449620D01*
X110590320Y-160449620D02*
X110590320Y-162449620D01*
X108590320Y-174449620D02*
X110590320Y-174449620D01*
X110590320Y-174449620D02*
X110590320Y-172449620D01*
X96590320Y-172449620D02*
X96590320Y-174449620D01*
X96590320Y-174449620D02*
X98590320Y-174449620D01*
X98590320Y-160449620D02*
X96590320Y-160449620D01*
X96590320Y-160449620D02*
X96590320Y-162449620D01*
X94065320Y-157924620D02*
X113115320Y-157924620D01*
X113115320Y-157924620D02*
X113115320Y-176974620D01*
X113115320Y-176974620D02*
X94065320Y-176974620D01*
X94065320Y-176974620D02*
X94065320Y-157924620D01*
X279989520Y-160449620D02*
X281989520Y-160449620D01*
X281989520Y-160449620D02*
X281989520Y-162449620D01*
X279989520Y-174449620D02*
X281989520Y-174449620D01*
X281989520Y-174449620D02*
X281989520Y-172449620D01*
X267989520Y-172449620D02*
X267989520Y-174449620D01*
X267989520Y-174449620D02*
X269989520Y-174449620D01*
X269989520Y-160449620D02*
X267989520Y-160449620D01*
X267989520Y-160449620D02*
X267989520Y-162449620D01*
X265464520Y-157924620D02*
X284514520Y-157924620D01*
X284514520Y-157924620D02*
X284514520Y-176974620D01*
X284514520Y-176974620D02*
X265464520Y-176974620D01*
X265464520Y-176974620D02*
X265464520Y-157924620D01*
X260990320Y-160449620D02*
X262990320Y-160449620D01*
X262990320Y-160449620D02*
X262990320Y-162449620D01*
X260990320Y-174449620D02*
X262990320Y-174449620D01*
X262990320Y-174449620D02*
X262990320Y-172449620D01*
X248990320Y-172449620D02*
X248990320Y-174449620D01*
X248990320Y-174449620D02*
X250990320Y-174449620D01*
X250990320Y-160449620D02*
X248990320Y-160449620D01*
X248990320Y-160449620D02*
X248990320Y-162449620D01*
X246465320Y-157924620D02*
X265515320Y-157924620D01*
X265515320Y-157924620D02*
X265515320Y-176974620D01*
X265515320Y-176974620D02*
X246465320Y-176974620D01*
X246465320Y-176974620D02*
X246465320Y-157924620D01*
X218140520Y-198549620D02*
X220140520Y-198549620D01*
X220140520Y-198549620D02*
X220140520Y-200549620D01*
X218140520Y-212549620D02*
X220140520Y-212549620D01*
X220140520Y-212549620D02*
X220140520Y-210549620D01*
X206140520Y-210549620D02*
X206140520Y-212549620D01*
X206140520Y-212549620D02*
X208140520Y-212549620D01*
X208140520Y-198549620D02*
X206140520Y-198549620D01*
X206140520Y-198549620D02*
X206140520Y-200549620D01*
X203615520Y-196024620D02*
X222665520Y-196024620D01*
X222665520Y-196024620D02*
X222665520Y-215074620D01*
X222665520Y-215074620D02*
X203615520Y-215074620D01*
X203615520Y-215074620D02*
X203615520Y-196024620D01*
X237190520Y-198549620D02*
X239190520Y-198549620D01*
X239190520Y-198549620D02*
X239190520Y-200549620D01*
X237190520Y-212549620D02*
X239190520Y-212549620D01*
X239190520Y-212549620D02*
X239190520Y-210549620D01*
X225190520Y-210549620D02*
X225190520Y-212549620D01*
X225190520Y-212549620D02*
X227190520Y-212549620D01*
X227190520Y-198549620D02*
X225190520Y-198549620D01*
X225190520Y-198549620D02*
X225190520Y-200549620D01*
X222665520Y-196024620D02*
X241715520Y-196024620D01*
X241715520Y-196024620D02*
X241715520Y-215074620D01*
X241715520Y-215074620D02*
X222665520Y-215074620D01*
X222665520Y-215074620D02*
X222665520Y-196024620D01*
X265714720Y-179499620D02*
X267714720Y-179499620D01*
X267714720Y-179499620D02*
X267714720Y-181499620D01*
X265714720Y-193499620D02*
X267714720Y-193499620D01*
X267714720Y-193499620D02*
X267714720Y-191499620D01*
X253714720Y-191499620D02*
X253714720Y-193499620D01*
X253714720Y-193499620D02*
X255714720Y-193499620D01*
X255714720Y-179499620D02*
X253714720Y-179499620D01*
X253714720Y-179499620D02*
X253714720Y-181499620D01*
X251189720Y-176974620D02*
X270239720Y-176974620D01*
X270239720Y-176974620D02*
X270239720Y-196024620D01*
X270239720Y-196024620D02*
X251189720Y-196024620D01*
X251189720Y-196024620D02*
X251189720Y-176974620D01*
X246664720Y-179499620D02*
X248664720Y-179499620D01*
X248664720Y-179499620D02*
X248664720Y-181499620D01*
X246664720Y-193499620D02*
X248664720Y-193499620D01*
X248664720Y-193499620D02*
X248664720Y-191499620D01*
X234664720Y-191499620D02*
X234664720Y-193499620D01*
X234664720Y-193499620D02*
X236664720Y-193499620D01*
X236664720Y-179499620D02*
X234664720Y-179499620D01*
X234664720Y-179499620D02*
X234664720Y-181499620D01*
X232139720Y-176974620D02*
X251189720Y-176974620D01*
X251189720Y-176974620D02*
X251189720Y-196024620D01*
X251189720Y-196024620D02*
X232139720Y-196024620D01*
X232139720Y-196024620D02*
X232139720Y-176974620D01*
X227614720Y-179499620D02*
X229614720Y-179499620D01*
X229614720Y-179499620D02*
X229614720Y-181499620D01*
X227614720Y-193499620D02*
X229614720Y-193499620D01*
X229614720Y-193499620D02*
X229614720Y-191499620D01*
X215614720Y-191499620D02*
X215614720Y-193499620D01*
X215614720Y-193499620D02*
X217614720Y-193499620D01*
X217614720Y-179499620D02*
X215614720Y-179499620D01*
X215614720Y-179499620D02*
X215614720Y-181499620D01*
X213089720Y-176974620D02*
X232139720Y-176974620D01*
X232139720Y-176974620D02*
X232139720Y-196024620D01*
X232139720Y-196024620D02*
X213089720Y-196024620D01*
X213089720Y-196024620D02*
X213089720Y-176974620D01*
X241940320Y-160449620D02*
X243940320Y-160449620D01*
X243940320Y-160449620D02*
X243940320Y-162449620D01*
X241940320Y-174449620D02*
X243940320Y-174449620D01*
X243940320Y-174449620D02*
X243940320Y-172449620D01*
X229940320Y-172449620D02*
X229940320Y-174449620D01*
X229940320Y-174449620D02*
X231940320Y-174449620D01*
X231940320Y-160449620D02*
X229940320Y-160449620D01*
X229940320Y-160449620D02*
X229940320Y-162449620D01*
X227415320Y-157924620D02*
X246465320Y-157924620D01*
X246465320Y-157924620D02*
X246465320Y-176974620D01*
X246465320Y-176974620D02*
X227415320Y-176974620D01*
X227415320Y-176974620D02*
X227415320Y-157924620D01*
X208564720Y-179499620D02*
X210564720Y-179499620D01*
X210564720Y-179499620D02*
X210564720Y-181499620D01*
X208564720Y-193499620D02*
X210564720Y-193499620D01*
X210564720Y-193499620D02*
X210564720Y-191499620D01*
X196564720Y-191499620D02*
X196564720Y-193499620D01*
X196564720Y-193499620D02*
X198564720Y-193499620D01*
X198564720Y-179499620D02*
X196564720Y-179499620D01*
X196564720Y-179499620D02*
X196564720Y-181499620D01*
X194039720Y-176974620D02*
X213089720Y-176974620D01*
X213089720Y-176974620D02*
X213089720Y-196024620D01*
X213089720Y-196024620D02*
X194039720Y-196024620D01*
X194039720Y-196024620D02*
X194039720Y-176974620D01*
X189514720Y-179499620D02*
X191514720Y-179499620D01*
X191514720Y-179499620D02*
X191514720Y-181499620D01*
X189514720Y-193499620D02*
X191514720Y-193499620D01*
X191514720Y-193499620D02*
X191514720Y-191499620D01*
X177514720Y-191499620D02*
X177514720Y-193499620D01*
X177514720Y-193499620D02*
X179514720Y-193499620D01*
X179514720Y-179499620D02*
X177514720Y-179499620D01*
X177514720Y-179499620D02*
X177514720Y-181499620D01*
X174989720Y-176974620D02*
X194039720Y-176974620D01*
X194039720Y-176974620D02*
X194039720Y-196024620D01*
X194039720Y-196024620D02*
X174989720Y-196024620D01*
X174989720Y-196024620D02*
X174989720Y-176974620D01*
X289590720Y-122349620D02*
X291590720Y-122349620D01*
X291590720Y-122349620D02*
X291590720Y-124349620D01*
X289590720Y-136349620D02*
X291590720Y-136349620D01*
X291590720Y-136349620D02*
X291590720Y-134349620D01*
X277590720Y-134349620D02*
X277590720Y-136349620D01*
X277590720Y-136349620D02*
X279590720Y-136349620D01*
X279590720Y-122349620D02*
X277590720Y-122349620D01*
X277590720Y-122349620D02*
X277590720Y-124349620D01*
X275065720Y-119824620D02*
X294115720Y-119824620D01*
X294115720Y-119824620D02*
X294115720Y-138874620D01*
X294115720Y-138874620D02*
X275065720Y-138874620D01*
X275065720Y-138874620D02*
X275065720Y-119824620D01*
X170464720Y-179499620D02*
X172464720Y-179499620D01*
X172464720Y-179499620D02*
X172464720Y-181499620D01*
X170464720Y-193499620D02*
X172464720Y-193499620D01*
X172464720Y-193499620D02*
X172464720Y-191499620D01*
X158464720Y-191499620D02*
X158464720Y-193499620D01*
X158464720Y-193499620D02*
X160464720Y-193499620D01*
X160464720Y-179499620D02*
X158464720Y-179499620D01*
X158464720Y-179499620D02*
X158464720Y-181499620D01*
X155939720Y-176974620D02*
X174989720Y-176974620D01*
X174989720Y-176974620D02*
X174989720Y-196024620D01*
X174989720Y-196024620D02*
X155939720Y-196024620D01*
X155939720Y-196024620D02*
X155939720Y-176974620D01*
X146690320Y-160449620D02*
X148690320Y-160449620D01*
X148690320Y-160449620D02*
X148690320Y-162449620D01*
X146690320Y-174449620D02*
X148690320Y-174449620D01*
X148690320Y-174449620D02*
X148690320Y-172449620D01*
X134690320Y-172449620D02*
X134690320Y-174449620D01*
X134690320Y-174449620D02*
X136690320Y-174449620D01*
X136690320Y-160449620D02*
X134690320Y-160449620D01*
X134690320Y-160449620D02*
X134690320Y-162449620D01*
X132165320Y-157924620D02*
X151215320Y-157924620D01*
X151215320Y-157924620D02*
X151215320Y-176974620D01*
X151215320Y-176974620D02*
X132165320Y-176974620D01*
X132165320Y-176974620D02*
X132165320Y-157924620D01*
X151414720Y-179499620D02*
X153414720Y-179499620D01*
X153414720Y-179499620D02*
X153414720Y-181499620D01*
X151414720Y-193499620D02*
X153414720Y-193499620D01*
X153414720Y-193499620D02*
X153414720Y-191499620D01*
X139414720Y-191499620D02*
X139414720Y-193499620D01*
X139414720Y-193499620D02*
X141414720Y-193499620D01*
X141414720Y-179499620D02*
X139414720Y-179499620D01*
X139414720Y-179499620D02*
X139414720Y-181499620D01*
X136889720Y-176974620D02*
X155939720Y-176974620D01*
X155939720Y-176974620D02*
X155939720Y-196024620D01*
X155939720Y-196024620D02*
X136889720Y-196024620D01*
X136889720Y-196024620D02*
X136889720Y-176974620D01*
X160990520Y-198549620D02*
X162990520Y-198549620D01*
X162990520Y-198549620D02*
X162990520Y-200549620D01*
X160990520Y-212549620D02*
X162990520Y-212549620D01*
X162990520Y-212549620D02*
X162990520Y-210549620D01*
X148990520Y-210549620D02*
X148990520Y-212549620D01*
X148990520Y-212549620D02*
X150990520Y-212549620D01*
X150990520Y-198549620D02*
X148990520Y-198549620D01*
X148990520Y-198549620D02*
X148990520Y-200549620D01*
X146465520Y-196024620D02*
X165515520Y-196024620D01*
X165515520Y-196024620D02*
X165515520Y-215074620D01*
X165515520Y-215074620D02*
X146465520Y-215074620D01*
X146465520Y-215074620D02*
X146465520Y-196024620D01*
X199090520Y-198549620D02*
X201090520Y-198549620D01*
X201090520Y-198549620D02*
X201090520Y-200549620D01*
X199090520Y-212549620D02*
X201090520Y-212549620D01*
X201090520Y-212549620D02*
X201090520Y-210549620D01*
X187090520Y-210549620D02*
X187090520Y-212549620D01*
X187090520Y-212549620D02*
X189090520Y-212549620D01*
X189090520Y-198549620D02*
X187090520Y-198549620D01*
X187090520Y-198549620D02*
X187090520Y-200549620D01*
X184565520Y-196024620D02*
X203615520Y-196024620D01*
X203615520Y-196024620D02*
X203615520Y-215074620D01*
X203615520Y-215074620D02*
X184565520Y-215074620D01*
X184565520Y-215074620D02*
X184565520Y-196024620D01*
X113314720Y-179499620D02*
X115314720Y-179499620D01*
X115314720Y-179499620D02*
X115314720Y-181499620D01*
X113314720Y-193499620D02*
X115314720Y-193499620D01*
X115314720Y-193499620D02*
X115314720Y-191499620D01*
X101314720Y-191499620D02*
X101314720Y-193499620D01*
X101314720Y-193499620D02*
X103314720Y-193499620D01*
X103314720Y-179499620D02*
X101314720Y-179499620D01*
X101314720Y-179499620D02*
X101314720Y-181499620D01*
X98789720Y-176974620D02*
X117839720Y-176974620D01*
X117839720Y-176974620D02*
X117839720Y-196024620D01*
X117839720Y-196024620D02*
X98789720Y-196024620D01*
X98789720Y-196024620D02*
X98789720Y-176974620D01*
X251490720Y-141399620D02*
X253490720Y-141399620D01*
X253490720Y-141399620D02*
X253490720Y-143399620D01*
X251490720Y-155399620D02*
X253490720Y-155399620D01*
X253490720Y-155399620D02*
X253490720Y-153399620D01*
X239490720Y-153399620D02*
X239490720Y-155399620D01*
X239490720Y-155399620D02*
X241490720Y-155399620D01*
X241490720Y-141399620D02*
X239490720Y-141399620D01*
X239490720Y-141399620D02*
X239490720Y-143399620D01*
X236965720Y-138874620D02*
X256015720Y-138874620D01*
X256015720Y-138874620D02*
X256015720Y-157924620D01*
X256015720Y-157924620D02*
X236965720Y-157924620D01*
X236965720Y-157924620D02*
X236965720Y-138874620D01*
X232440720Y-141399620D02*
X234440720Y-141399620D01*
X234440720Y-141399620D02*
X234440720Y-143399620D01*
X232440720Y-155399620D02*
X234440720Y-155399620D01*
X234440720Y-155399620D02*
X234440720Y-153399620D01*
X220440720Y-153399620D02*
X220440720Y-155399620D01*
X220440720Y-155399620D02*
X222440720Y-155399620D01*
X222440720Y-141399620D02*
X220440720Y-141399620D01*
X220440720Y-141399620D02*
X220440720Y-143399620D01*
X217915720Y-138874620D02*
X236965720Y-138874620D01*
X236965720Y-138874620D02*
X236965720Y-157924620D01*
X236965720Y-157924620D02*
X217915720Y-157924620D01*
X217915720Y-157924620D02*
X217915720Y-138874620D01*
X213390720Y-141399620D02*
X215390720Y-141399620D01*
X215390720Y-141399620D02*
X215390720Y-143399620D01*
X213390720Y-155399620D02*
X215390720Y-155399620D01*
X215390720Y-155399620D02*
X215390720Y-153399620D01*
X201390720Y-153399620D02*
X201390720Y-155399620D01*
X201390720Y-155399620D02*
X203390720Y-155399620D01*
X203390720Y-141399620D02*
X201390720Y-141399620D01*
X201390720Y-141399620D02*
X201390720Y-143399620D01*
X198865720Y-138874620D02*
X217915720Y-138874620D01*
X217915720Y-138874620D02*
X217915720Y-157924620D01*
X217915720Y-157924620D02*
X198865720Y-157924620D01*
X198865720Y-157924620D02*
X198865720Y-138874620D01*
X194340720Y-141399620D02*
X196340720Y-141399620D01*
X196340720Y-141399620D02*
X196340720Y-143399620D01*
X194340720Y-155399620D02*
X196340720Y-155399620D01*
X196340720Y-155399620D02*
X196340720Y-153399620D01*
X182340720Y-153399620D02*
X182340720Y-155399620D01*
X182340720Y-155399620D02*
X184340720Y-155399620D01*
X184340720Y-141399620D02*
X182340720Y-141399620D01*
X182340720Y-141399620D02*
X182340720Y-143399620D01*
X179815720Y-138874620D02*
X198865720Y-138874620D01*
X198865720Y-138874620D02*
X198865720Y-157924620D01*
X198865720Y-157924620D02*
X179815720Y-157924620D01*
X179815720Y-157924620D02*
X179815720Y-138874620D01*
X175290720Y-141399620D02*
X177290720Y-141399620D01*
X177290720Y-141399620D02*
X177290720Y-143399620D01*
X175290720Y-155399620D02*
X177290720Y-155399620D01*
X177290720Y-155399620D02*
X177290720Y-153399620D01*
X163290720Y-153399620D02*
X163290720Y-155399620D01*
X163290720Y-155399620D02*
X165290720Y-155399620D01*
X165290720Y-141399620D02*
X163290720Y-141399620D01*
X163290720Y-141399620D02*
X163290720Y-143399620D01*
X160765720Y-138874620D02*
X179815720Y-138874620D01*
X179815720Y-138874620D02*
X179815720Y-157924620D01*
X179815720Y-157924620D02*
X160765720Y-157924620D01*
X160765720Y-157924620D02*
X160765720Y-138874620D01*
X156240720Y-141399620D02*
X158240720Y-141399620D01*
X158240720Y-141399620D02*
X158240720Y-143399620D01*
X156240720Y-155399620D02*
X158240720Y-155399620D01*
X158240720Y-155399620D02*
X158240720Y-153399620D01*
X144240720Y-153399620D02*
X144240720Y-155399620D01*
X144240720Y-155399620D02*
X146240720Y-155399620D01*
X146240720Y-141399620D02*
X144240720Y-141399620D01*
X144240720Y-141399620D02*
X144240720Y-143399620D01*
X141715720Y-138874620D02*
X160765720Y-138874620D01*
X160765720Y-138874620D02*
X160765720Y-157924620D01*
X160765720Y-157924620D02*
X141715720Y-157924620D01*
X141715720Y-157924620D02*
X141715720Y-138874620D01*
X137190720Y-141399620D02*
X139190720Y-141399620D01*
X139190720Y-141399620D02*
X139190720Y-143399620D01*
X137190720Y-155399620D02*
X139190720Y-155399620D01*
X139190720Y-155399620D02*
X139190720Y-153399620D01*
X125190720Y-153399620D02*
X125190720Y-155399620D01*
X125190720Y-155399620D02*
X127190720Y-155399620D01*
X127190720Y-141399620D02*
X125190720Y-141399620D01*
X125190720Y-141399620D02*
X125190720Y-143399620D01*
X122665720Y-138874620D02*
X141715720Y-138874620D01*
X141715720Y-138874620D02*
X141715720Y-157924620D01*
X141715720Y-157924620D02*
X122665720Y-157924620D01*
X122665720Y-157924620D02*
X122665720Y-138874620D01*
X118140720Y-141399620D02*
X120140720Y-141399620D01*
X120140720Y-141399620D02*
X120140720Y-143399620D01*
X118140720Y-155399620D02*
X120140720Y-155399620D01*
X120140720Y-155399620D02*
X120140720Y-153399620D01*
X106140720Y-153399620D02*
X106140720Y-155399620D01*
X106140720Y-155399620D02*
X108140720Y-155399620D01*
X108140720Y-141399620D02*
X106140720Y-141399620D01*
X106140720Y-141399620D02*
X106140720Y-143399620D01*
X103615720Y-138874620D02*
X122665720Y-138874620D01*
X122665720Y-138874620D02*
X122665720Y-157924620D01*
X122665720Y-157924620D02*
X103615720Y-157924620D01*
X103615720Y-157924620D02*
X103615720Y-138874620D01*
X99039920Y-141399620D02*
X101039920Y-141399620D01*
X101039920Y-141399620D02*
X101039920Y-143399620D01*
X99039920Y-155399620D02*
X101039920Y-155399620D01*
X101039920Y-155399620D02*
X101039920Y-153399620D01*
X87039920Y-153399620D02*
X87039920Y-155399620D01*
X87039920Y-155399620D02*
X89039920Y-155399620D01*
X89039920Y-141399620D02*
X87039920Y-141399620D01*
X87039920Y-141399620D02*
X87039920Y-143399620D01*
X84514920Y-138874620D02*
X103564920Y-138874620D01*
X103564920Y-138874620D02*
X103564920Y-157924620D01*
X103564920Y-157924620D02*
X84514920Y-157924620D01*
X84514920Y-157924620D02*
X84514920Y-138874620D01*
X270540720Y-141399620D02*
X272540720Y-141399620D01*
X272540720Y-141399620D02*
X272540720Y-143399620D01*
X270540720Y-155399620D02*
X272540720Y-155399620D01*
X272540720Y-155399620D02*
X272540720Y-153399620D01*
X258540720Y-153399620D02*
X258540720Y-155399620D01*
X258540720Y-155399620D02*
X260540720Y-155399620D01*
X260540720Y-141399620D02*
X258540720Y-141399620D01*
X258540720Y-141399620D02*
X258540720Y-143399620D01*
X256015720Y-138874620D02*
X275065720Y-138874620D01*
X275065720Y-138874620D02*
X275065720Y-157924620D01*
X275065720Y-157924620D02*
X256015720Y-157924620D01*
X256015720Y-157924620D02*
X256015720Y-138874620D01*
X256240520Y-198549620D02*
X258240520Y-198549620D01*
X258240520Y-198549620D02*
X258240520Y-200549620D01*
X256240520Y-212549620D02*
X258240520Y-212549620D01*
X258240520Y-212549620D02*
X258240520Y-210549620D01*
X244240520Y-210549620D02*
X244240520Y-212549620D01*
X244240520Y-212549620D02*
X246240520Y-212549620D01*
X246240520Y-198549620D02*
X244240520Y-198549620D01*
X244240520Y-198549620D02*
X244240520Y-200549620D01*
X241715520Y-196024620D02*
X260765520Y-196024620D01*
X260765520Y-196024620D02*
X260765520Y-215074620D01*
X260765520Y-215074620D02*
X241715520Y-215074620D01*
X241715520Y-215074620D02*
X241715520Y-196024620D01*
X91902520Y-198549620D02*
X93902520Y-198549620D01*
X93902520Y-198549620D02*
X93902520Y-200549620D01*
X91902520Y-212549620D02*
X93902520Y-212549620D01*
X93902520Y-212549620D02*
X93902520Y-210549620D01*
X79902520Y-210549620D02*
X79902520Y-212549620D01*
X79902520Y-212549620D02*
X81902520Y-212549620D01*
X81902520Y-198549620D02*
X79902520Y-198549620D01*
X79902520Y-198549620D02*
X79902520Y-200549620D01*
X65471270Y-196024620D02*
X108333770Y-196024620D01*
X108333770Y-196024620D02*
X108333770Y-215074620D01*
X65471270Y-215074620D02*
X108333770Y-215074620D01*
X65471270Y-215074620D02*
X65471270Y-196024620D01*
X106209524Y-217599620D02*
X108209524Y-217599620D01*
X108209524Y-217599620D02*
X108209524Y-219599620D01*
X106209524Y-231599620D02*
X108209524Y-231599620D01*
X108209524Y-231599620D02*
X108209524Y-229599620D01*
X94209524Y-229599620D02*
X94209524Y-231599620D01*
X94209524Y-231599620D02*
X96209524Y-231599620D01*
X96209524Y-217599620D02*
X94209524Y-217599620D01*
X94209524Y-217599620D02*
X94209524Y-219599620D01*
X89303274Y-215074620D02*
X113115774Y-215074620D01*
X113115774Y-215074620D02*
X113115774Y-234124620D01*
X89303274Y-234124620D02*
X113115774Y-234124620D01*
X89303274Y-234124620D02*
X89303274Y-215074620D01*
X82377520Y-217599620D02*
X84377520Y-217599620D01*
X84377520Y-217599620D02*
X84377520Y-219599620D01*
X82377520Y-231599620D02*
X84377520Y-231599620D01*
X84377520Y-231599620D02*
X84377520Y-229599620D01*
X70377520Y-229599620D02*
X70377520Y-231599620D01*
X70377520Y-231599620D02*
X72377520Y-231599620D01*
X72377520Y-217599620D02*
X70377520Y-217599620D01*
X70377520Y-217599620D02*
X70377520Y-219599620D01*
X65471270Y-215074620D02*
X89283770Y-215074620D01*
X89283770Y-215074620D02*
X89283770Y-234124620D01*
X65471270Y-234124620D02*
X89283770Y-234124620D01*
X65471270Y-234124620D02*
X65471270Y-215074620D01*
X299039520Y-160449620D02*
X301039520Y-160449620D01*
X301039520Y-160449620D02*
X301039520Y-162449620D01*
X299039520Y-174449620D02*
X301039520Y-174449620D01*
X301039520Y-174449620D02*
X301039520Y-172449620D01*
X287039520Y-172449620D02*
X287039520Y-174449620D01*
X287039520Y-174449620D02*
X289039520Y-174449620D01*
X289039520Y-160449620D02*
X287039520Y-160449620D01*
X287039520Y-160449620D02*
X287039520Y-162449620D01*
X284514520Y-157924620D02*
X303564520Y-157924620D01*
X303564520Y-157924620D02*
X303564520Y-176974620D01*
X303564520Y-176974620D02*
X284514520Y-176974620D01*
X284514520Y-176974620D02*
X284514520Y-157924620D01*
X130017128Y-217609227D02*
X132017128Y-217609227D01*
X132017128Y-217609227D02*
X132017128Y-219609227D01*
X130017128Y-231609227D02*
X132017128Y-231609227D01*
X132017128Y-231609227D02*
X132017128Y-229609227D01*
X118017128Y-229609227D02*
X118017128Y-231609227D01*
X118017128Y-231609227D02*
X120017128Y-231609227D01*
X120017128Y-217609227D02*
X118017128Y-217609227D01*
X118017128Y-217609227D02*
X118017128Y-219609227D01*
X113110878Y-215084227D02*
X136923378Y-215084227D01*
X136923378Y-215084227D02*
X136923378Y-234134227D01*
X113110878Y-234134227D02*
X136923378Y-234134227D01*
X113110878Y-234134227D02*
X113110878Y-215084227D01*
X289590720Y-141399620D02*
X291590720Y-141399620D01*
X291590720Y-141399620D02*
X291590720Y-143399620D01*
X289590720Y-155399620D02*
X291590720Y-155399620D01*
X291590720Y-155399620D02*
X291590720Y-153399620D01*
X277590720Y-153399620D02*
X277590720Y-155399620D01*
X277590720Y-155399620D02*
X279590720Y-155399620D01*
X279590720Y-141399620D02*
X277590720Y-141399620D01*
X277590720Y-141399620D02*
X277590720Y-143399620D01*
X275065720Y-138874620D02*
X294115720Y-138874620D01*
X294115720Y-138874620D02*
X294115720Y-157924620D01*
X294115720Y-157924620D02*
X275065720Y-157924620D01*
X275065720Y-157924620D02*
X275065720Y-138874620D01*
X365841520Y-141399620D02*
X367841520Y-141399620D01*
X367841520Y-141399620D02*
X367841520Y-143399620D01*
X365841520Y-155399620D02*
X367841520Y-155399620D01*
X367841520Y-155399620D02*
X367841520Y-153399620D01*
X353841520Y-153399620D02*
X353841520Y-155399620D01*
X353841520Y-155399620D02*
X355841520Y-155399620D01*
X355841520Y-141399620D02*
X353841520Y-141399620D01*
X353841520Y-141399620D02*
X353841520Y-143399620D01*
X351316520Y-138874620D02*
X370366520Y-138874620D01*
X370366520Y-138874620D02*
X370366520Y-157924620D01*
X370366520Y-157924620D02*
X351316520Y-157924620D01*
X351316520Y-157924620D02*
X351316520Y-138874620D01*
X260765520Y-215074620D02*
X260765520Y-196024620D01*
X279815520Y-215074620D02*
X260765520Y-215074620D01*
X279815520Y-196024620D02*
X279815520Y-215074620D01*
X260765520Y-196024620D02*
X279815520Y-196024620D01*
X263290520Y-198549620D02*
X263290520Y-200549620D01*
X265290520Y-198549620D02*
X263290520Y-198549620D01*
X263290520Y-212549620D02*
X265290520Y-212549620D01*
X263290520Y-210549620D02*
X263290520Y-212549620D01*
X277290520Y-212549620D02*
X277290520Y-210549620D01*
X275290520Y-212549620D02*
X277290520Y-212549620D01*
X277290520Y-198549620D02*
X277290520Y-200549620D01*
X275290520Y-198549620D02*
X277290520Y-198549620D01*
X289641520Y-217599620D02*
X291641520Y-217599620D01*
X291641520Y-217599620D02*
X291641520Y-219599620D01*
X289641520Y-231599620D02*
X291641520Y-231599620D01*
X291641520Y-231599620D02*
X291641520Y-229599620D01*
X277641520Y-229599620D02*
X277641520Y-231599620D01*
X277641520Y-231599620D02*
X279641520Y-231599620D01*
X279641520Y-217599620D02*
X277641520Y-217599620D01*
X277641520Y-217599620D02*
X277641520Y-219599620D01*
X275116520Y-215074620D02*
X294166520Y-215074620D01*
X294166520Y-215074620D02*
X294166520Y-234124620D01*
X294166520Y-234124620D02*
X275116520Y-234124620D01*
X275116520Y-234124620D02*
X275116520Y-215074620D01*
X308640720Y-122349620D02*
X310640720Y-122349620D01*
X310640720Y-122349620D02*
X310640720Y-124349620D01*
X308640720Y-136349620D02*
X310640720Y-136349620D01*
X310640720Y-136349620D02*
X310640720Y-134349620D01*
X296640720Y-134349620D02*
X296640720Y-136349620D01*
X296640720Y-136349620D02*
X298640720Y-136349620D01*
X298640720Y-122349620D02*
X296640720Y-122349620D01*
X296640720Y-122349620D02*
X296640720Y-124349620D01*
X294115720Y-119824620D02*
X313165720Y-119824620D01*
X313165720Y-119824620D02*
X313165720Y-138874620D01*
X313165720Y-138874620D02*
X294115720Y-138874620D01*
X294115720Y-138874620D02*
X294115720Y-119824620D01*
X270540720Y-122349620D02*
X272540720Y-122349620D01*
X272540720Y-122349620D02*
X272540720Y-124349620D01*
X270540720Y-136349620D02*
X272540720Y-136349620D01*
X272540720Y-136349620D02*
X272540720Y-134349620D01*
X258540720Y-134349620D02*
X258540720Y-136349620D01*
X258540720Y-136349620D02*
X260540720Y-136349620D01*
X260540720Y-122349620D02*
X258540720Y-122349620D01*
X258540720Y-122349620D02*
X258540720Y-124349620D01*
X256015720Y-119824620D02*
X275065720Y-119824620D01*
X275065720Y-119824620D02*
X275065720Y-138874620D01*
X275065720Y-138874620D02*
X256015720Y-138874620D01*
X256015720Y-138874620D02*
X256015720Y-119824620D01*
X251490720Y-122349620D02*
X253490720Y-122349620D01*
X253490720Y-122349620D02*
X253490720Y-124349620D01*
X251490720Y-136349620D02*
X253490720Y-136349620D01*
X253490720Y-136349620D02*
X253490720Y-134349620D01*
X239490720Y-134349620D02*
X239490720Y-136349620D01*
X239490720Y-136349620D02*
X241490720Y-136349620D01*
X241490720Y-122349620D02*
X239490720Y-122349620D01*
X239490720Y-122349620D02*
X239490720Y-124349620D01*
X236965720Y-119824620D02*
X256015720Y-119824620D01*
X256015720Y-119824620D02*
X256015720Y-138874620D01*
X256015720Y-138874620D02*
X236965720Y-138874620D01*
X236965720Y-138874620D02*
X236965720Y-119824620D01*
X232440720Y-122349620D02*
X234440720Y-122349620D01*
X234440720Y-122349620D02*
X234440720Y-124349620D01*
X232440720Y-136349620D02*
X234440720Y-136349620D01*
X234440720Y-136349620D02*
X234440720Y-134349620D01*
X220440720Y-134349620D02*
X220440720Y-136349620D01*
X220440720Y-136349620D02*
X222440720Y-136349620D01*
X222440720Y-122349620D02*
X220440720Y-122349620D01*
X220440720Y-122349620D02*
X220440720Y-124349620D01*
X217915720Y-119824620D02*
X236965720Y-119824620D01*
X236965720Y-119824620D02*
X236965720Y-138874620D01*
X236965720Y-138874620D02*
X217915720Y-138874620D01*
X217915720Y-138874620D02*
X217915720Y-119824620D01*
X213390720Y-122349620D02*
X215390720Y-122349620D01*
X215390720Y-122349620D02*
X215390720Y-124349620D01*
X213390720Y-136349620D02*
X215390720Y-136349620D01*
X215390720Y-136349620D02*
X215390720Y-134349620D01*
X201390720Y-134349620D02*
X201390720Y-136349620D01*
X201390720Y-136349620D02*
X203390720Y-136349620D01*
X203390720Y-122349620D02*
X201390720Y-122349620D01*
X201390720Y-122349620D02*
X201390720Y-124349620D01*
X198865720Y-119824620D02*
X217915720Y-119824620D01*
X217915720Y-119824620D02*
X217915720Y-138874620D01*
X217915720Y-138874620D02*
X198865720Y-138874620D01*
X198865720Y-138874620D02*
X198865720Y-119824620D01*
X194340720Y-122349620D02*
X196340720Y-122349620D01*
X196340720Y-122349620D02*
X196340720Y-124349620D01*
X194340720Y-136349620D02*
X196340720Y-136349620D01*
X196340720Y-136349620D02*
X196340720Y-134349620D01*
X182340720Y-134349620D02*
X182340720Y-136349620D01*
X182340720Y-136349620D02*
X184340720Y-136349620D01*
X184340720Y-122349620D02*
X182340720Y-122349620D01*
X182340720Y-122349620D02*
X182340720Y-124349620D01*
X179815720Y-119824620D02*
X198865720Y-119824620D01*
X198865720Y-119824620D02*
X198865720Y-138874620D01*
X198865720Y-138874620D02*
X179815720Y-138874620D01*
X179815720Y-138874620D02*
X179815720Y-119824620D01*
X175290720Y-122349620D02*
X177290720Y-122349620D01*
X177290720Y-122349620D02*
X177290720Y-124349620D01*
X175290720Y-136349620D02*
X177290720Y-136349620D01*
X177290720Y-136349620D02*
X177290720Y-134349620D01*
X163290720Y-134349620D02*
X163290720Y-136349620D01*
X163290720Y-136349620D02*
X165290720Y-136349620D01*
X165290720Y-122349620D02*
X163290720Y-122349620D01*
X163290720Y-122349620D02*
X163290720Y-124349620D01*
X160765720Y-119824620D02*
X179815720Y-119824620D01*
X179815720Y-119824620D02*
X179815720Y-138874620D01*
X179815720Y-138874620D02*
X160765720Y-138874620D01*
X160765720Y-138874620D02*
X160765720Y-119824620D01*
X156240720Y-122349620D02*
X158240720Y-122349620D01*
X158240720Y-122349620D02*
X158240720Y-124349620D01*
X156240720Y-136349620D02*
X158240720Y-136349620D01*
X158240720Y-136349620D02*
X158240720Y-134349620D01*
X144240720Y-134349620D02*
X144240720Y-136349620D01*
X144240720Y-136349620D02*
X146240720Y-136349620D01*
X146240720Y-122349620D02*
X144240720Y-122349620D01*
X144240720Y-122349620D02*
X144240720Y-124349620D01*
X141715720Y-119824620D02*
X160765720Y-119824620D01*
X160765720Y-119824620D02*
X160765720Y-138874620D01*
X160765720Y-138874620D02*
X141715720Y-138874620D01*
X141715720Y-138874620D02*
X141715720Y-119824620D01*
X137190720Y-122349620D02*
X139190720Y-122349620D01*
X139190720Y-122349620D02*
X139190720Y-124349620D01*
X137190720Y-136349620D02*
X139190720Y-136349620D01*
X139190720Y-136349620D02*
X139190720Y-134349620D01*
X125190720Y-134349620D02*
X125190720Y-136349620D01*
X125190720Y-136349620D02*
X127190720Y-136349620D01*
X127190720Y-122349620D02*
X125190720Y-122349620D01*
X125190720Y-122349620D02*
X125190720Y-124349620D01*
X122665720Y-119824620D02*
X141715720Y-119824620D01*
X141715720Y-119824620D02*
X141715720Y-138874620D01*
X141715720Y-138874620D02*
X122665720Y-138874620D01*
X122665720Y-138874620D02*
X122665720Y-119824620D01*
X118089920Y-122349620D02*
X120089920Y-122349620D01*
X120089920Y-122349620D02*
X120089920Y-124349620D01*
X118089920Y-136349620D02*
X120089920Y-136349620D01*
X120089920Y-136349620D02*
X120089920Y-134349620D01*
X106089920Y-134349620D02*
X106089920Y-136349620D01*
X106089920Y-136349620D02*
X108089920Y-136349620D01*
X108089920Y-122349620D02*
X106089920Y-122349620D01*
X106089920Y-122349620D02*
X106089920Y-124349620D01*
X103564920Y-119824620D02*
X122614920Y-119824620D01*
X122614920Y-119824620D02*
X122614920Y-138874620D01*
X122614920Y-138874620D02*
X103564920Y-138874620D01*
X103564920Y-138874620D02*
X103564920Y-119824620D01*
X99039920Y-122349620D02*
X101039920Y-122349620D01*
X101039920Y-122349620D02*
X101039920Y-124349620D01*
X99039920Y-136349620D02*
X101039920Y-136349620D01*
X101039920Y-136349620D02*
X101039920Y-134349620D01*
X87039920Y-134349620D02*
X87039920Y-136349620D01*
X87039920Y-136349620D02*
X89039920Y-136349620D01*
X89039920Y-122349620D02*
X87039920Y-122349620D01*
X87039920Y-122349620D02*
X87039920Y-124349620D01*
X84514920Y-119824620D02*
X103564920Y-119824620D01*
X103564920Y-119824620D02*
X103564920Y-138874620D01*
X103564920Y-138874620D02*
X84514920Y-138874620D01*
X84514920Y-138874620D02*
X84514920Y-119824620D01*
X79989920Y-122349620D02*
X81989920Y-122349620D01*
X81989920Y-122349620D02*
X81989920Y-124349620D01*
X79989920Y-136349620D02*
X81989920Y-136349620D01*
X81989920Y-136349620D02*
X81989920Y-134349620D01*
X67989920Y-134349620D02*
X67989920Y-136349620D01*
X67989920Y-136349620D02*
X69989920Y-136349620D01*
X69989920Y-122349620D02*
X67989920Y-122349620D01*
X67989920Y-122349620D02*
X67989920Y-124349620D01*
X65464920Y-119824620D02*
X84514920Y-119824620D01*
X84514920Y-119824620D02*
X84514920Y-138874620D01*
X84514920Y-138874620D02*
X65464920Y-138874620D01*
X65464920Y-138874620D02*
X65464920Y-119824620D01*
X334802720Y-179499620D02*
X336802720Y-179499620D01*
X336802720Y-179499620D02*
X336802720Y-181499620D01*
X334802720Y-193499620D02*
X336802720Y-193499620D01*
X336802720Y-193499620D02*
X336802720Y-191499620D01*
X322802720Y-191499620D02*
X322802720Y-193499620D01*
X322802720Y-193499620D02*
X324802720Y-193499620D01*
X324802720Y-179499620D02*
X322802720Y-179499620D01*
X322802720Y-179499620D02*
X322802720Y-181499620D01*
X308371470Y-176974620D02*
X351233970Y-176974620D01*
X351233970Y-176974620D02*
X351233970Y-196024620D01*
X308371470Y-196024620D02*
X351233970Y-196024620D01*
X308371470Y-196024620D02*
X308371470Y-176974620D01*
X365841520Y-198549620D02*
X367841520Y-198549620D01*
X367841520Y-198549620D02*
X367841520Y-200549620D01*
X365841520Y-212549620D02*
X367841520Y-212549620D01*
X367841520Y-212549620D02*
X367841520Y-210549620D01*
X353841520Y-210549620D02*
X353841520Y-212549620D01*
X353841520Y-212549620D02*
X355841520Y-212549620D01*
X355841520Y-198549620D02*
X353841520Y-198549620D01*
X353841520Y-198549620D02*
X353841520Y-200549620D01*
X351316520Y-196024620D02*
X370366520Y-196024620D01*
X370366520Y-196024620D02*
X370366520Y-215074620D01*
X370366520Y-215074620D02*
X351316520Y-215074620D01*
X351316520Y-215074620D02*
X351316520Y-196024620D01*
X365841520Y-122349620D02*
X367841520Y-122349620D01*
X367841520Y-122349620D02*
X367841520Y-124349620D01*
X365841520Y-136349620D02*
X367841520Y-136349620D01*
X367841520Y-136349620D02*
X367841520Y-134349620D01*
X353841520Y-134349620D02*
X353841520Y-136349620D01*
X353841520Y-136349620D02*
X355841520Y-136349620D01*
X355841520Y-122349620D02*
X353841520Y-122349620D01*
X353841520Y-122349620D02*
X353841520Y-124349620D01*
X351316520Y-119824620D02*
X370366520Y-119824620D01*
X370366520Y-119824620D02*
X370366520Y-138874620D01*
X370366520Y-138874620D02*
X351316520Y-138874620D01*
X351316520Y-138874620D02*
X351316520Y-119824620D01*
X87140020Y-179499620D02*
X89140020Y-179499620D01*
X89140020Y-179499620D02*
X89140020Y-181499620D01*
X87140020Y-193499620D02*
X89140020Y-193499620D01*
X89140020Y-193499620D02*
X89140020Y-191499620D01*
X75140020Y-191499620D02*
X75140020Y-193499620D01*
X75140020Y-193499620D02*
X77140020Y-193499620D01*
X77140020Y-179499620D02*
X75140020Y-179499620D01*
X75140020Y-179499620D02*
X75140020Y-181499620D01*
X65471270Y-176974620D02*
X98808770Y-176974620D01*
X98808770Y-176974620D02*
X98808770Y-196024620D01*
X65471270Y-196024620D02*
X98808770Y-196024620D01*
X65471270Y-196024620D02*
X65471270Y-176974620D01*
X284764720Y-179499620D02*
X286764720Y-179499620D01*
X286764720Y-179499620D02*
X286764720Y-181499620D01*
X284764720Y-193499620D02*
X286764720Y-193499620D01*
X286764720Y-193499620D02*
X286764720Y-191499620D01*
X272764720Y-191499620D02*
X272764720Y-193499620D01*
X272764720Y-193499620D02*
X274764720Y-193499620D01*
X274764720Y-179499620D02*
X272764720Y-179499620D01*
X272764720Y-179499620D02*
X272764720Y-181499620D01*
X270239720Y-176974620D02*
X289289720Y-176974620D01*
X289289720Y-176974620D02*
X289289720Y-196024620D01*
X289289720Y-196024620D02*
X270239720Y-196024620D01*
X270239720Y-196024620D02*
X270239720Y-176974620D01*
X337241120Y-141399620D02*
X339241120Y-141399620D01*
X339241120Y-141399620D02*
X339241120Y-143399620D01*
X337241120Y-155399620D02*
X339241120Y-155399620D01*
X339241120Y-155399620D02*
X339241120Y-153399620D01*
X325241120Y-153399620D02*
X325241120Y-155399620D01*
X325241120Y-155399620D02*
X327241120Y-155399620D01*
X327241120Y-141399620D02*
X325241120Y-141399620D01*
X325241120Y-141399620D02*
X325241120Y-143399620D01*
X313191120Y-138874620D02*
X351291120Y-138874620D01*
X351291120Y-138874620D02*
X351291120Y-157924620D01*
X313191120Y-157924620D02*
X351291120Y-157924620D01*
X313191120Y-157924620D02*
X313191120Y-138874620D01*
X346791520Y-198549620D02*
X348791520Y-198549620D01*
X348791520Y-198549620D02*
X348791520Y-200549620D01*
X346791520Y-212549620D02*
X348791520Y-212549620D01*
X348791520Y-212549620D02*
X348791520Y-210549620D01*
X334791520Y-210549620D02*
X334791520Y-212549620D01*
X334791520Y-212549620D02*
X336791520Y-212549620D01*
X336791520Y-198549620D02*
X334791520Y-198549620D01*
X334791520Y-198549620D02*
X334791520Y-200549620D01*
X332266520Y-196024620D02*
X351316520Y-196024620D01*
X351316520Y-196024620D02*
X351316520Y-215074620D01*
X351316520Y-215074620D02*
X332266520Y-215074620D01*
X332266520Y-215074620D02*
X332266520Y-196024620D01*
X365841520Y-217599620D02*
X367841520Y-217599620D01*
X367841520Y-217599620D02*
X367841520Y-219599620D01*
X365841520Y-231599620D02*
X367841520Y-231599620D01*
X367841520Y-231599620D02*
X367841520Y-229599620D01*
X353841520Y-229599620D02*
X353841520Y-231599620D01*
X353841520Y-231599620D02*
X355841520Y-231599620D01*
X355841520Y-217599620D02*
X353841520Y-217599620D01*
X353841520Y-217599620D02*
X353841520Y-219599620D01*
X351316520Y-215074620D02*
X370366520Y-215074620D01*
X370366520Y-215074620D02*
X370366520Y-234124620D01*
X370366520Y-234124620D02*
X351316520Y-234124620D01*
X351316520Y-234124620D02*
X351316520Y-215074620D01*
X327741520Y-217599620D02*
X329741520Y-217599620D01*
X329741520Y-217599620D02*
X329741520Y-219599620D01*
X327741520Y-231599620D02*
X329741520Y-231599620D01*
X329741520Y-231599620D02*
X329741520Y-229599620D01*
X315741520Y-229599620D02*
X315741520Y-231599620D01*
X315741520Y-231599620D02*
X317741520Y-231599620D01*
X317741520Y-217599620D02*
X315741520Y-217599620D01*
X315741520Y-217599620D02*
X315741520Y-219599620D01*
X313216520Y-215074620D02*
X332266520Y-215074620D01*
X332266520Y-215074620D02*
X332266520Y-234124620D01*
X332266520Y-234124620D02*
X313216520Y-234124620D01*
X313216520Y-234124620D02*
X313216520Y-215074620D01*
X346791520Y-217599620D02*
X348791520Y-217599620D01*
X348791520Y-217599620D02*
X348791520Y-219599620D01*
X346791520Y-231599620D02*
X348791520Y-231599620D01*
X348791520Y-231599620D02*
X348791520Y-229599620D01*
X334791520Y-229599620D02*
X334791520Y-231599620D01*
X334791520Y-231599620D02*
X336791520Y-231599620D01*
X336791520Y-217599620D02*
X334791520Y-217599620D01*
X334791520Y-217599620D02*
X334791520Y-219599620D01*
X332266520Y-215074620D02*
X351316520Y-215074620D01*
X351316520Y-215074620D02*
X351316520Y-234124620D01*
X351316520Y-234124620D02*
X332266520Y-234124620D01*
X332266520Y-234124620D02*
X332266520Y-215074620D01*
X335032177Y-171077000D02*
X335032177Y-170077000D01*
X335413129Y-170077000D01*
X335508367Y-170124620D01*
X335555986Y-170172239D01*
X335603605Y-170267477D01*
X335603605Y-170410334D01*
X335555986Y-170505572D01*
X335508367Y-170553191D01*
X335413129Y-170600810D01*
X335032177Y-170600810D01*
X336032177Y-171077000D02*
X336032177Y-170410334D01*
X336032177Y-170077000D02*
X335984558Y-170124620D01*
X336032177Y-170172239D01*
X336079796Y-170124620D01*
X336032177Y-170077000D01*
X336032177Y-170172239D01*
X336508367Y-170410334D02*
X336508367Y-171410334D01*
X336508367Y-170457953D02*
X336603605Y-170410334D01*
X336794081Y-170410334D01*
X336889320Y-170457953D01*
X336936939Y-170505572D01*
X336984558Y-170600810D01*
X336984558Y-170886524D01*
X336936939Y-170981762D01*
X336889320Y-171029381D01*
X336794081Y-171077000D01*
X336603605Y-171077000D01*
X336508367Y-171029381D01*
X337794081Y-171029381D02*
X337698843Y-171077000D01*
X337508367Y-171077000D01*
X337413129Y-171029381D01*
X337365510Y-170934143D01*
X337365510Y-170553191D01*
X337413129Y-170457953D01*
X337508367Y-170410334D01*
X337698843Y-170410334D01*
X337794081Y-170457953D01*
X337841700Y-170553191D01*
X337841700Y-170648429D01*
X337365510Y-170743667D01*
X338794081Y-171077000D02*
X338222653Y-171077000D01*
X338508367Y-171077000D02*
X338508367Y-170077000D01*
X338413129Y-170219858D01*
X338317891Y-170315096D01*
X338222653Y-170362715D01*
X358125643Y-104426200D02*
X358125643Y-103426200D01*
X358458977Y-104140486D01*
X358792310Y-103426200D01*
X358792310Y-104426200D01*
X359173262Y-103426200D02*
X359839929Y-104426200D01*
X359839929Y-103426200D02*
X359173262Y-104426200D01*
X360173262Y-104378581D02*
X360316120Y-104426200D01*
X360554215Y-104426200D01*
X360649453Y-104378581D01*
X360697072Y-104330962D01*
X360744691Y-104235724D01*
X360744691Y-104140486D01*
X360697072Y-104045248D01*
X360649453Y-103997629D01*
X360554215Y-103950010D01*
X360363739Y-103902391D01*
X360268500Y-103854772D01*
X360220881Y-103807153D01*
X360173262Y-103711915D01*
X360173262Y-103616677D01*
X360220881Y-103521439D01*
X360268500Y-103473820D01*
X360363739Y-103426200D01*
X360601834Y-103426200D01*
X360744691Y-103473820D01*
X361173262Y-103759534D02*
X361173262Y-104759534D01*
X361173262Y-103807153D02*
X361268500Y-103759534D01*
X361458977Y-103759534D01*
X361554215Y-103807153D01*
X361601834Y-103854772D01*
X361649453Y-103950010D01*
X361649453Y-104235724D01*
X361601834Y-104330962D01*
X361554215Y-104378581D01*
X361458977Y-104426200D01*
X361268500Y-104426200D01*
X361173262Y-104378581D01*
X362601834Y-104426200D02*
X362030405Y-104426200D01*
X362316120Y-104426200D02*
X362316120Y-103426200D01*
X362220881Y-103569058D01*
X362125643Y-103664296D01*
X362030405Y-103711915D01*
X363458977Y-103759534D02*
X363458977Y-104426200D01*
X363220881Y-103378581D02*
X362982786Y-104092867D01*
X363601834Y-104092867D01*
X72859762Y-151014300D02*
X73431191Y-151014300D01*
X73145477Y-152014300D02*
X73145477Y-151014300D01*
X73764524Y-152014300D02*
X73764524Y-151347634D01*
X73764524Y-151014300D02*
X73716905Y-151061920D01*
X73764524Y-151109539D01*
X73812143Y-151061920D01*
X73764524Y-151014300D01*
X73764524Y-151109539D01*
X74383572Y-152014300D02*
X74288334Y-151966681D01*
X74240715Y-151871443D01*
X74240715Y-151014300D01*
X75193096Y-152014300D02*
X75193096Y-151014300D01*
X75193096Y-151966681D02*
X75097858Y-152014300D01*
X74907381Y-152014300D01*
X74812143Y-151966681D01*
X74764524Y-151919062D01*
X74716905Y-151823824D01*
X74716905Y-151538110D01*
X74764524Y-151442872D01*
X74812143Y-151395253D01*
X74907381Y-151347634D01*
X75097858Y-151347634D01*
X75193096Y-151395253D01*
X76050239Y-151966681D02*
X75955000Y-152014300D01*
X75764524Y-152014300D01*
X75669286Y-151966681D01*
X75621667Y-151871443D01*
X75621667Y-151490491D01*
X75669286Y-151395253D01*
X75764524Y-151347634D01*
X75955000Y-151347634D01*
X76050239Y-151395253D01*
X76097858Y-151490491D01*
X76097858Y-151585729D01*
X75621667Y-151680967D01*
X77050239Y-152014300D02*
X76478810Y-152014300D01*
X76764524Y-152014300D02*
X76764524Y-151014300D01*
X76669286Y-151157158D01*
X76574048Y-151252396D01*
X76478810Y-151300015D01*
X78098453Y-170077000D02*
X78669881Y-170077000D01*
X78384167Y-171077000D02*
X78384167Y-170077000D01*
X79431786Y-171077000D02*
X79431786Y-170553191D01*
X79384167Y-170457953D01*
X79288929Y-170410334D01*
X79098453Y-170410334D01*
X79003215Y-170457953D01*
X79431786Y-171029381D02*
X79336548Y-171077000D01*
X79098453Y-171077000D01*
X79003215Y-171029381D01*
X78955596Y-170934143D01*
X78955596Y-170838905D01*
X79003215Y-170743667D01*
X79098453Y-170696048D01*
X79336548Y-170696048D01*
X79431786Y-170648429D01*
X79907977Y-171077000D02*
X79907977Y-170077000D01*
X79907977Y-170457953D02*
X80003215Y-170410334D01*
X80193691Y-170410334D01*
X80288929Y-170457953D01*
X80336548Y-170505572D01*
X80384167Y-170600810D01*
X80384167Y-170886524D01*
X80336548Y-170981762D01*
X80288929Y-171029381D01*
X80193691Y-171077000D01*
X80003215Y-171077000D01*
X79907977Y-171029381D01*
X81336548Y-171077000D02*
X80765120Y-171077000D01*
X81050834Y-171077000D02*
X81050834Y-170077000D01*
X80955596Y-170219858D01*
X80860358Y-170315096D01*
X80765120Y-170362715D01*
X193941837Y-228188988D02*
X194084694Y-228236607D01*
X194322789Y-228236607D01*
X194418027Y-228188988D01*
X194465647Y-228141369D01*
X194513266Y-228046131D01*
X194513266Y-227950893D01*
X194465647Y-227855655D01*
X194418027Y-227808036D01*
X194322789Y-227760417D01*
X194132313Y-227712798D01*
X194037075Y-227665179D01*
X193989456Y-227617560D01*
X193941837Y-227522322D01*
X193941837Y-227427084D01*
X193989456Y-227331846D01*
X194037075Y-227284227D01*
X194132313Y-227236607D01*
X194370408Y-227236607D01*
X194513266Y-227284227D01*
X194941837Y-227569941D02*
X194941837Y-228569941D01*
X194941837Y-227617560D02*
X195037075Y-227569941D01*
X195227551Y-227569941D01*
X195322789Y-227617560D01*
X195370408Y-227665179D01*
X195418027Y-227760417D01*
X195418027Y-228046131D01*
X195370408Y-228141369D01*
X195322789Y-228188988D01*
X195227551Y-228236607D01*
X195037075Y-228236607D01*
X194941837Y-228188988D01*
X196275170Y-228236607D02*
X196275170Y-227712798D01*
X196227551Y-227617560D01*
X196132313Y-227569941D01*
X195941837Y-227569941D01*
X195846599Y-227617560D01*
X196275170Y-228188988D02*
X196179932Y-228236607D01*
X195941837Y-228236607D01*
X195846599Y-228188988D01*
X195798980Y-228093750D01*
X195798980Y-227998512D01*
X195846599Y-227903274D01*
X195941837Y-227855655D01*
X196179932Y-227855655D01*
X196275170Y-227808036D01*
X197179932Y-228188988D02*
X197084694Y-228236607D01*
X196894218Y-228236607D01*
X196798980Y-228188988D01*
X196751361Y-228141369D01*
X196703742Y-228046131D01*
X196703742Y-227760417D01*
X196751361Y-227665179D01*
X196798980Y-227617560D01*
X196894218Y-227569941D01*
X197084694Y-227569941D01*
X197179932Y-227617560D01*
X197989456Y-228188988D02*
X197894218Y-228236607D01*
X197703742Y-228236607D01*
X197608504Y-228188988D01*
X197560885Y-228093750D01*
X197560885Y-227712798D01*
X197608504Y-227617560D01*
X197703742Y-227569941D01*
X197894218Y-227569941D01*
X197989456Y-227617560D01*
X198037075Y-227712798D01*
X198037075Y-227808036D01*
X197560885Y-227903274D01*
X198989456Y-228236607D02*
X198418027Y-228236607D01*
X198703742Y-228236607D02*
X198703742Y-227236607D01*
X198608504Y-227379465D01*
X198513266Y-227474703D01*
X198418027Y-227522322D01*
X313970781Y-209177000D02*
X313637448Y-208700810D01*
X313399353Y-209177000D02*
X313399353Y-208177000D01*
X313780305Y-208177000D01*
X313875543Y-208224620D01*
X313923162Y-208272239D01*
X313970781Y-208367477D01*
X313970781Y-208510334D01*
X313923162Y-208605572D01*
X313875543Y-208653191D01*
X313780305Y-208700810D01*
X313399353Y-208700810D01*
X314351734Y-209129381D02*
X314446972Y-209177000D01*
X314637448Y-209177000D01*
X314732686Y-209129381D01*
X314780305Y-209034143D01*
X314780305Y-208986524D01*
X314732686Y-208891286D01*
X314637448Y-208843667D01*
X314494591Y-208843667D01*
X314399353Y-208796048D01*
X314351734Y-208700810D01*
X314351734Y-208653191D01*
X314399353Y-208557953D01*
X314494591Y-208510334D01*
X314637448Y-208510334D01*
X314732686Y-208557953D01*
X315208877Y-209177000D02*
X315208877Y-208177000D01*
X315637448Y-209177000D02*
X315637448Y-208653191D01*
X315589829Y-208557953D01*
X315494591Y-208510334D01*
X315351734Y-208510334D01*
X315256496Y-208557953D01*
X315208877Y-208605572D01*
X315970781Y-208510334D02*
X316351734Y-208510334D01*
X316113639Y-209177000D02*
X316113639Y-208319858D01*
X316161258Y-208224620D01*
X316256496Y-208177000D01*
X316351734Y-208177000D01*
X316542210Y-208510334D02*
X316923162Y-208510334D01*
X316685067Y-208177000D02*
X316685067Y-209034143D01*
X316732686Y-209129381D01*
X316827924Y-209177000D01*
X316923162Y-209177000D01*
X317780305Y-209177000D02*
X317208877Y-209177000D01*
X317494591Y-209177000D02*
X317494591Y-208177000D01*
X317399353Y-208319858D01*
X317304115Y-208415096D01*
X317208877Y-208462715D01*
X302239139Y-228227000D02*
X301905805Y-227750810D01*
X301667710Y-228227000D02*
X301667710Y-227227000D01*
X302048662Y-227227000D01*
X302143900Y-227274620D01*
X302191520Y-227322239D01*
X302239139Y-227417477D01*
X302239139Y-227560334D01*
X302191520Y-227655572D01*
X302143900Y-227703191D01*
X302048662Y-227750810D01*
X301667710Y-227750810D01*
X303096281Y-228179381D02*
X303001043Y-228227000D01*
X302810567Y-228227000D01*
X302715329Y-228179381D01*
X302667710Y-228131762D01*
X302620091Y-228036524D01*
X302620091Y-227750810D01*
X302667710Y-227655572D01*
X302715329Y-227607953D01*
X302810567Y-227560334D01*
X303001043Y-227560334D01*
X303096281Y-227607953D01*
X303381996Y-227560334D02*
X303762948Y-227560334D01*
X303524853Y-227227000D02*
X303524853Y-228084143D01*
X303572472Y-228179381D01*
X303667710Y-228227000D01*
X303762948Y-228227000D01*
X304096281Y-228227000D02*
X304096281Y-227560334D01*
X304096281Y-227750810D02*
X304143900Y-227655572D01*
X304191520Y-227607953D01*
X304286758Y-227560334D01*
X304381996Y-227560334D01*
X304858186Y-228227000D02*
X304762948Y-228179381D01*
X304715329Y-228084143D01*
X304715329Y-227227000D01*
X305762948Y-228227000D02*
X305191520Y-228227000D01*
X305477234Y-228227000D02*
X305477234Y-227227000D01*
X305381996Y-227369858D01*
X305286758Y-227465096D01*
X305191520Y-227512715D01*
X312160948Y-171077000D02*
X311827615Y-170600810D01*
X311589520Y-171077000D02*
X311589520Y-170077000D01*
X311970472Y-170077000D01*
X312065710Y-170124620D01*
X312113329Y-170172239D01*
X312160948Y-170267477D01*
X312160948Y-170410334D01*
X312113329Y-170505572D01*
X312065710Y-170553191D01*
X311970472Y-170600810D01*
X311589520Y-170600810D01*
X312589520Y-171077000D02*
X312589520Y-170077000D01*
X312589520Y-170457953D02*
X312684758Y-170410334D01*
X312875234Y-170410334D01*
X312970472Y-170457953D01*
X313018091Y-170505572D01*
X313065710Y-170600810D01*
X313065710Y-170886524D01*
X313018091Y-170981762D01*
X312970472Y-171029381D01*
X312875234Y-171077000D01*
X312684758Y-171077000D01*
X312589520Y-171029381D01*
X313494281Y-171077000D02*
X313494281Y-170410334D01*
X313494281Y-170600810D02*
X313541900Y-170505572D01*
X313589520Y-170457953D01*
X313684758Y-170410334D01*
X313779996Y-170410334D01*
X314637139Y-171077000D02*
X314065710Y-171077000D01*
X314351424Y-171077000D02*
X314351424Y-170077000D01*
X314256186Y-170219858D01*
X314160948Y-170315096D01*
X314065710Y-170362715D01*
X264353713Y-228227000D02*
X264020380Y-227750810D01*
X263782284Y-228227000D02*
X263782284Y-227227000D01*
X264163237Y-227227000D01*
X264258475Y-227274620D01*
X264306094Y-227322239D01*
X264353713Y-227417477D01*
X264353713Y-227560334D01*
X264306094Y-227655572D01*
X264258475Y-227703191D01*
X264163237Y-227750810D01*
X263782284Y-227750810D01*
X265210856Y-228227000D02*
X265210856Y-227703191D01*
X265163237Y-227607953D01*
X265067999Y-227560334D01*
X264877522Y-227560334D01*
X264782284Y-227607953D01*
X265210856Y-228179381D02*
X265115618Y-228227000D01*
X264877522Y-228227000D01*
X264782284Y-228179381D01*
X264734665Y-228084143D01*
X264734665Y-227988905D01*
X264782284Y-227893667D01*
X264877522Y-227846048D01*
X265115618Y-227846048D01*
X265210856Y-227798429D01*
X265829903Y-228227000D02*
X265734665Y-228179381D01*
X265687046Y-228084143D01*
X265687046Y-227227000D01*
X266067999Y-227560334D02*
X266448951Y-227560334D01*
X266210856Y-227227000D02*
X266210856Y-228084143D01*
X266258475Y-228179381D01*
X266353713Y-228227000D01*
X266448951Y-228227000D01*
X267306094Y-228227000D02*
X266734665Y-228227000D01*
X267020380Y-228227000D02*
X267020380Y-227227000D01*
X266925141Y-227369858D01*
X266829903Y-227465096D01*
X266734665Y-227512715D01*
X298433767Y-190222239D02*
X298338529Y-190174620D01*
X298243291Y-190079381D01*
X298100434Y-189936524D01*
X298005196Y-189888905D01*
X297909958Y-189888905D01*
X297957577Y-190127000D02*
X297862339Y-190079381D01*
X297767100Y-189984143D01*
X297719481Y-189793667D01*
X297719481Y-189460334D01*
X297767100Y-189269858D01*
X297862339Y-189174620D01*
X297957577Y-189127000D01*
X298148053Y-189127000D01*
X298243291Y-189174620D01*
X298338529Y-189269858D01*
X298386148Y-189460334D01*
X298386148Y-189793667D01*
X298338529Y-189984143D01*
X298243291Y-190079381D01*
X298148053Y-190127000D01*
X297957577Y-190127000D01*
X298671862Y-189460334D02*
X299052815Y-189460334D01*
X298814720Y-189127000D02*
X298814720Y-189984143D01*
X298862339Y-190079381D01*
X298957577Y-190127000D01*
X299052815Y-190127000D01*
X299909958Y-190127000D02*
X299338529Y-190127000D01*
X299624243Y-190127000D02*
X299624243Y-189127000D01*
X299529005Y-189269858D01*
X299433767Y-189365096D01*
X299338529Y-189412715D01*
X288102424Y-209272239D02*
X288007186Y-209224620D01*
X287911948Y-209129381D01*
X287769091Y-208986524D01*
X287673853Y-208938905D01*
X287578615Y-208938905D01*
X287626234Y-209177000D02*
X287530996Y-209129381D01*
X287435758Y-209034143D01*
X287388139Y-208843667D01*
X287388139Y-208510334D01*
X287435758Y-208319858D01*
X287530996Y-208224620D01*
X287626234Y-208177000D01*
X287816710Y-208177000D01*
X287911948Y-208224620D01*
X288007186Y-208319858D01*
X288054805Y-208510334D01*
X288054805Y-208843667D01*
X288007186Y-209034143D01*
X287911948Y-209129381D01*
X287816710Y-209177000D01*
X287626234Y-209177000D01*
X288435758Y-209129381D02*
X288530996Y-209177000D01*
X288721472Y-209177000D01*
X288816710Y-209129381D01*
X288864329Y-209034143D01*
X288864329Y-208986524D01*
X288816710Y-208891286D01*
X288721472Y-208843667D01*
X288578615Y-208843667D01*
X288483377Y-208796048D01*
X288435758Y-208700810D01*
X288435758Y-208653191D01*
X288483377Y-208557953D01*
X288578615Y-208510334D01*
X288721472Y-208510334D01*
X288816710Y-208557953D01*
X289150043Y-208510334D02*
X289530996Y-208510334D01*
X289292900Y-208177000D02*
X289292900Y-209034143D01*
X289340520Y-209129381D01*
X289435758Y-209177000D01*
X289530996Y-209177000D01*
X289864329Y-208510334D02*
X289864329Y-209177000D01*
X289864329Y-208605572D02*
X289911948Y-208557953D01*
X290007186Y-208510334D01*
X290150043Y-208510334D01*
X290245281Y-208557953D01*
X290292900Y-208653191D01*
X290292900Y-209177000D01*
X291292900Y-209177000D02*
X290721472Y-209177000D01*
X291007186Y-209177000D02*
X291007186Y-208177000D01*
X290911948Y-208319858D01*
X290816710Y-208415096D01*
X290721472Y-208462715D01*
X320503424Y-132977000D02*
X320503424Y-131977000D01*
X320884377Y-131977000D01*
X320979615Y-132024620D01*
X321027234Y-132072239D01*
X321074853Y-132167477D01*
X321074853Y-132310334D01*
X321027234Y-132405572D01*
X320979615Y-132453191D01*
X320884377Y-132500810D01*
X320503424Y-132500810D01*
X321503424Y-132977000D02*
X321503424Y-132310334D01*
X321503424Y-132500810D02*
X321551043Y-132405572D01*
X321598662Y-132357953D01*
X321693900Y-132310334D01*
X321789139Y-132310334D01*
X321979615Y-132310334D02*
X322360567Y-132310334D01*
X322122472Y-131977000D02*
X322122472Y-132834143D01*
X322170091Y-132929381D01*
X322265329Y-132977000D01*
X322360567Y-132977000D01*
X322646281Y-132929381D02*
X322789139Y-132977000D01*
X323027234Y-132977000D01*
X323122472Y-132929381D01*
X323170091Y-132881762D01*
X323217710Y-132786524D01*
X323217710Y-132691286D01*
X323170091Y-132596048D01*
X323122472Y-132548429D01*
X323027234Y-132500810D01*
X322836758Y-132453191D01*
X322741520Y-132405572D01*
X322693900Y-132357953D01*
X322646281Y-132262715D01*
X322646281Y-132167477D01*
X322693900Y-132072239D01*
X322741520Y-132024620D01*
X322836758Y-131977000D01*
X323074853Y-131977000D01*
X323217710Y-132024620D01*
X324074853Y-132929381D02*
X323979615Y-132977000D01*
X323789139Y-132977000D01*
X323693900Y-132929381D01*
X323646281Y-132881762D01*
X323598662Y-132786524D01*
X323598662Y-132500810D01*
X323646281Y-132405572D01*
X323693900Y-132357953D01*
X323789139Y-132310334D01*
X323979615Y-132310334D01*
X324074853Y-132357953D01*
X325027234Y-132977000D02*
X324455805Y-132977000D01*
X324741520Y-132977000D02*
X324741520Y-131977000D01*
X324646281Y-132119858D01*
X324551043Y-132215096D01*
X324455805Y-132262715D01*
X301783577Y-152027000D02*
X301783577Y-151027000D01*
X302164529Y-151027000D01*
X302259767Y-151074620D01*
X302307386Y-151122239D01*
X302355005Y-151217477D01*
X302355005Y-151360334D01*
X302307386Y-151455572D01*
X302259767Y-151503191D01*
X302164529Y-151550810D01*
X301783577Y-151550810D01*
X302926434Y-152027000D02*
X302831196Y-151979381D01*
X302783577Y-151884143D01*
X302783577Y-151027000D01*
X303735958Y-151360334D02*
X303735958Y-152027000D01*
X303307386Y-151360334D02*
X303307386Y-151884143D01*
X303355005Y-151979381D01*
X303450243Y-152027000D01*
X303593100Y-152027000D01*
X303688339Y-151979381D01*
X303735958Y-151931762D01*
X304164529Y-151979381D02*
X304259767Y-152027000D01*
X304450243Y-152027000D01*
X304545481Y-151979381D01*
X304593100Y-151884143D01*
X304593100Y-151836524D01*
X304545481Y-151741286D01*
X304450243Y-151693667D01*
X304307386Y-151693667D01*
X304212148Y-151646048D01*
X304164529Y-151550810D01*
X304164529Y-151503191D01*
X304212148Y-151407953D01*
X304307386Y-151360334D01*
X304450243Y-151360334D01*
X304545481Y-151407953D01*
X305545481Y-152027000D02*
X304974053Y-152027000D01*
X305259767Y-152027000D02*
X305259767Y-151027000D01*
X305164529Y-151169858D01*
X305069291Y-151265096D01*
X304974053Y-151312715D01*
X358674853Y-171077000D02*
X358674853Y-170077000D01*
X359055805Y-170077000D01*
X359151043Y-170124620D01*
X359198662Y-170172239D01*
X359246281Y-170267477D01*
X359246281Y-170410334D01*
X359198662Y-170505572D01*
X359151043Y-170553191D01*
X359055805Y-170600810D01*
X358674853Y-170600810D01*
X360103424Y-170410334D02*
X360103424Y-171219858D01*
X360055805Y-171315096D01*
X360008186Y-171362715D01*
X359912948Y-171410334D01*
X359770091Y-171410334D01*
X359674853Y-171362715D01*
X360103424Y-171029381D02*
X360008186Y-171077000D01*
X359817710Y-171077000D01*
X359722472Y-171029381D01*
X359674853Y-170981762D01*
X359627234Y-170886524D01*
X359627234Y-170600810D01*
X359674853Y-170505572D01*
X359722472Y-170457953D01*
X359817710Y-170410334D01*
X360008186Y-170410334D01*
X360103424Y-170457953D01*
X360579615Y-170077000D02*
X360579615Y-170886524D01*
X360627234Y-170981762D01*
X360674853Y-171029381D01*
X360770091Y-171077000D01*
X360960567Y-171077000D01*
X361055805Y-171029381D01*
X361103424Y-170981762D01*
X361151043Y-170886524D01*
X361151043Y-170077000D01*
X361627234Y-170410334D02*
X361627234Y-171410334D01*
X361627234Y-170457953D02*
X361722472Y-170410334D01*
X361912948Y-170410334D01*
X362008186Y-170457953D01*
X362055805Y-170505572D01*
X362103424Y-170600810D01*
X362103424Y-170886524D01*
X362055805Y-170981762D01*
X362008186Y-171029381D01*
X361912948Y-171077000D01*
X361722472Y-171077000D01*
X361627234Y-171029381D01*
X363055805Y-171077000D02*
X362484377Y-171077000D01*
X362770091Y-171077000D02*
X362770091Y-170077000D01*
X362674853Y-170219858D01*
X362579615Y-170315096D01*
X362484377Y-170362715D01*
X358698662Y-190127000D02*
X358698662Y-189127000D01*
X359079615Y-189127000D01*
X359174853Y-189174620D01*
X359222472Y-189222239D01*
X359270091Y-189317477D01*
X359270091Y-189460334D01*
X359222472Y-189555572D01*
X359174853Y-189603191D01*
X359079615Y-189650810D01*
X358698662Y-189650810D01*
X360127234Y-189460334D02*
X360127234Y-190269858D01*
X360079615Y-190365096D01*
X360031996Y-190412715D01*
X359936758Y-190460334D01*
X359793900Y-190460334D01*
X359698662Y-190412715D01*
X360127234Y-190079381D02*
X360031996Y-190127000D01*
X359841520Y-190127000D01*
X359746281Y-190079381D01*
X359698662Y-190031762D01*
X359651043Y-189936524D01*
X359651043Y-189650810D01*
X359698662Y-189555572D01*
X359746281Y-189507953D01*
X359841520Y-189460334D01*
X360031996Y-189460334D01*
X360127234Y-189507953D01*
X360603424Y-190127000D02*
X360603424Y-189127000D01*
X360841520Y-189127000D01*
X360984377Y-189174620D01*
X361079615Y-189269858D01*
X361127234Y-189365096D01*
X361174853Y-189555572D01*
X361174853Y-189698429D01*
X361127234Y-189888905D01*
X361079615Y-189984143D01*
X360984377Y-190079381D01*
X360841520Y-190127000D01*
X360603424Y-190127000D01*
X361603424Y-189460334D02*
X361603424Y-190127000D01*
X361603424Y-189555572D02*
X361651043Y-189507953D01*
X361746281Y-189460334D01*
X361889139Y-189460334D01*
X361984377Y-189507953D01*
X362031996Y-189603191D01*
X362031996Y-190127000D01*
X363031996Y-190127000D02*
X362460567Y-190127000D01*
X362746281Y-190127000D02*
X362746281Y-189127000D01*
X362651043Y-189269858D01*
X362555805Y-189365096D01*
X362460567Y-189412715D01*
X339264529Y-132977000D02*
X339264529Y-131977000D01*
X339645481Y-131977000D01*
X339740720Y-132024620D01*
X339788339Y-132072239D01*
X339835958Y-132167477D01*
X339835958Y-132310334D01*
X339788339Y-132405572D01*
X339740720Y-132453191D01*
X339645481Y-132500810D01*
X339264529Y-132500810D01*
X340693100Y-132977000D02*
X340693100Y-132453191D01*
X340645481Y-132357953D01*
X340550243Y-132310334D01*
X340359767Y-132310334D01*
X340264529Y-132357953D01*
X340693100Y-132929381D02*
X340597862Y-132977000D01*
X340359767Y-132977000D01*
X340264529Y-132929381D01*
X340216910Y-132834143D01*
X340216910Y-132738905D01*
X340264529Y-132643667D01*
X340359767Y-132596048D01*
X340597862Y-132596048D01*
X340693100Y-132548429D01*
X341597862Y-132310334D02*
X341597862Y-132977000D01*
X341169291Y-132310334D02*
X341169291Y-132834143D01*
X341216910Y-132929381D01*
X341312148Y-132977000D01*
X341455005Y-132977000D01*
X341550243Y-132929381D01*
X341597862Y-132881762D01*
X342026434Y-132929381D02*
X342121672Y-132977000D01*
X342312148Y-132977000D01*
X342407386Y-132929381D01*
X342455005Y-132834143D01*
X342455005Y-132786524D01*
X342407386Y-132691286D01*
X342312148Y-132643667D01*
X342169291Y-132643667D01*
X342074053Y-132596048D01*
X342026434Y-132500810D01*
X342026434Y-132453191D01*
X342074053Y-132357953D01*
X342169291Y-132310334D01*
X342312148Y-132310334D01*
X342407386Y-132357953D01*
X343264529Y-132929381D02*
X343169291Y-132977000D01*
X342978815Y-132977000D01*
X342883577Y-132929381D01*
X342835958Y-132834143D01*
X342835958Y-132453191D01*
X342883577Y-132357953D01*
X342978815Y-132310334D01*
X343169291Y-132310334D01*
X343264529Y-132357953D01*
X343312148Y-132453191D01*
X343312148Y-132548429D01*
X342835958Y-132643667D01*
X344264529Y-132977000D02*
X343693100Y-132977000D01*
X343978815Y-132977000D02*
X343978815Y-131977000D01*
X343883577Y-132119858D01*
X343788339Y-132215096D01*
X343693100Y-132262715D01*
X116200043Y-209177000D02*
X116200043Y-208177000D01*
X116533377Y-208891286D01*
X116866710Y-208177000D01*
X116866710Y-209177000D01*
X117247662Y-208177000D02*
X117914329Y-209177000D01*
X117914329Y-208177000D02*
X117247662Y-209177000D01*
X118200043Y-208510334D02*
X118723853Y-208510334D01*
X118200043Y-209177000D01*
X118723853Y-209177000D01*
X119628615Y-209177000D02*
X119057186Y-209177000D01*
X119342900Y-209177000D02*
X119342900Y-208177000D01*
X119247662Y-208319858D01*
X119152424Y-208415096D01*
X119057186Y-208462715D01*
X197173653Y-171077000D02*
X197173653Y-170077000D01*
X197506986Y-170791286D01*
X197840320Y-170077000D01*
X197840320Y-171077000D01*
X198221272Y-170077000D02*
X198887939Y-171077000D01*
X198887939Y-170077000D02*
X198221272Y-171077000D01*
X199173653Y-170410334D02*
X199411748Y-171077000D01*
X199649843Y-170410334D02*
X199411748Y-171077000D01*
X199316510Y-171315096D01*
X199268891Y-171362715D01*
X199173653Y-171410334D01*
X200554605Y-171077000D02*
X199983177Y-171077000D01*
X200268891Y-171077000D02*
X200268891Y-170077000D01*
X200173653Y-170219858D01*
X200078415Y-170315096D01*
X199983177Y-170362715D01*
X135250043Y-209177000D02*
X135250043Y-208177000D01*
X135583377Y-208891286D01*
X135916710Y-208177000D01*
X135916710Y-209177000D01*
X136297662Y-208177000D02*
X136964329Y-209177000D01*
X136964329Y-208177000D02*
X136297662Y-209177000D01*
X137250043Y-209177000D02*
X137773853Y-208510334D01*
X137250043Y-208510334D02*
X137773853Y-209177000D01*
X138678615Y-209177000D02*
X138107186Y-209177000D01*
X138392900Y-209177000D02*
X138392900Y-208177000D01*
X138297662Y-208319858D01*
X138202424Y-208415096D01*
X138107186Y-208462715D01*
X120830796Y-171077000D02*
X120830796Y-170077000D01*
X121164129Y-170791286D01*
X121497462Y-170077000D01*
X121497462Y-171077000D01*
X121878415Y-170077000D02*
X122545081Y-171077000D01*
X122545081Y-170077000D02*
X121878415Y-171077000D01*
X122830796Y-170410334D02*
X123021272Y-171077000D01*
X123211748Y-170600810D01*
X123402224Y-171077000D01*
X123592700Y-170410334D01*
X124497462Y-171077000D02*
X123926034Y-171077000D01*
X124211748Y-171077000D02*
X124211748Y-170077000D01*
X124116510Y-170219858D01*
X124021272Y-170315096D01*
X123926034Y-170362715D01*
X173373853Y-209177000D02*
X173373853Y-208177000D01*
X173707186Y-208891286D01*
X174040520Y-208177000D01*
X174040520Y-209177000D01*
X174421472Y-208177000D02*
X175088139Y-209177000D01*
X175088139Y-208177000D02*
X174421472Y-209177000D01*
X175373853Y-208510334D02*
X175611948Y-209177000D01*
X175850043Y-208510334D01*
X176754805Y-209177000D02*
X176183377Y-209177000D01*
X176469091Y-209177000D02*
X176469091Y-208177000D01*
X176373853Y-208319858D01*
X176278615Y-208415096D01*
X176183377Y-208462715D01*
X216152224Y-171077000D02*
X216152224Y-170077000D01*
X216485558Y-170791286D01*
X216818891Y-170077000D01*
X216818891Y-171077000D01*
X217199843Y-170077000D02*
X217866510Y-171077000D01*
X217866510Y-170077000D02*
X217199843Y-171077000D01*
X218676034Y-170410334D02*
X218676034Y-171077000D01*
X218247462Y-170410334D02*
X218247462Y-170934143D01*
X218295081Y-171029381D01*
X218390320Y-171077000D01*
X218533177Y-171077000D01*
X218628415Y-171029381D01*
X218676034Y-170981762D01*
X219676034Y-171077000D02*
X219104605Y-171077000D01*
X219390320Y-171077000D02*
X219390320Y-170077000D01*
X219295081Y-170219858D01*
X219199843Y-170315096D01*
X219104605Y-170362715D01*
X178218891Y-171077000D02*
X178218891Y-170077000D01*
X178552224Y-170791286D01*
X178885558Y-170077000D01*
X178885558Y-171077000D01*
X179266510Y-170077000D02*
X179933177Y-171077000D01*
X179933177Y-170077000D02*
X179266510Y-171077000D01*
X180171272Y-170410334D02*
X180552224Y-170410334D01*
X180314129Y-170077000D02*
X180314129Y-170934143D01*
X180361748Y-171029381D01*
X180456986Y-171077000D01*
X180552224Y-171077000D01*
X181409367Y-171077000D02*
X180837939Y-171077000D01*
X181123653Y-171077000D02*
X181123653Y-170077000D01*
X181028415Y-170219858D01*
X180933177Y-170315096D01*
X180837939Y-170362715D01*
X339075643Y-104426200D02*
X339075643Y-103426200D01*
X339408977Y-104140486D01*
X339742310Y-103426200D01*
X339742310Y-104426200D01*
X340123262Y-103426200D02*
X340789929Y-104426200D01*
X340789929Y-103426200D02*
X340123262Y-104426200D01*
X341123262Y-104378581D02*
X341266120Y-104426200D01*
X341504215Y-104426200D01*
X341599453Y-104378581D01*
X341647072Y-104330962D01*
X341694691Y-104235724D01*
X341694691Y-104140486D01*
X341647072Y-104045248D01*
X341599453Y-103997629D01*
X341504215Y-103950010D01*
X341313739Y-103902391D01*
X341218500Y-103854772D01*
X341170881Y-103807153D01*
X341123262Y-103711915D01*
X341123262Y-103616677D01*
X341170881Y-103521439D01*
X341218500Y-103473820D01*
X341313739Y-103426200D01*
X341551834Y-103426200D01*
X341694691Y-103473820D01*
X342123262Y-103759534D02*
X342123262Y-104759534D01*
X342123262Y-103807153D02*
X342218500Y-103759534D01*
X342408977Y-103759534D01*
X342504215Y-103807153D01*
X342551834Y-103854772D01*
X342599453Y-103950010D01*
X342599453Y-104235724D01*
X342551834Y-104330962D01*
X342504215Y-104378581D01*
X342408977Y-104426200D01*
X342218500Y-104426200D01*
X342123262Y-104378581D01*
X343551834Y-104426200D02*
X342980405Y-104426200D01*
X343266120Y-104426200D02*
X343266120Y-103426200D01*
X343170881Y-103569058D01*
X343075643Y-103664296D01*
X342980405Y-103711915D01*
X343885167Y-103426200D02*
X344504215Y-103426200D01*
X344170881Y-103807153D01*
X344313739Y-103807153D01*
X344408977Y-103854772D01*
X344456596Y-103902391D01*
X344504215Y-103997629D01*
X344504215Y-104235724D01*
X344456596Y-104330962D01*
X344408977Y-104378581D01*
X344313739Y-104426200D01*
X344028024Y-104426200D01*
X343932786Y-104378581D01*
X343885167Y-104330962D01*
X320025643Y-104426200D02*
X320025643Y-103426200D01*
X320358977Y-104140486D01*
X320692310Y-103426200D01*
X320692310Y-104426200D01*
X321073262Y-103426200D02*
X321739929Y-104426200D01*
X321739929Y-103426200D02*
X321073262Y-104426200D01*
X322073262Y-104378581D02*
X322216120Y-104426200D01*
X322454215Y-104426200D01*
X322549453Y-104378581D01*
X322597072Y-104330962D01*
X322644691Y-104235724D01*
X322644691Y-104140486D01*
X322597072Y-104045248D01*
X322549453Y-103997629D01*
X322454215Y-103950010D01*
X322263739Y-103902391D01*
X322168500Y-103854772D01*
X322120881Y-103807153D01*
X322073262Y-103711915D01*
X322073262Y-103616677D01*
X322120881Y-103521439D01*
X322168500Y-103473820D01*
X322263739Y-103426200D01*
X322501834Y-103426200D01*
X322644691Y-103473820D01*
X323073262Y-103759534D02*
X323073262Y-104759534D01*
X323073262Y-103807153D02*
X323168500Y-103759534D01*
X323358977Y-103759534D01*
X323454215Y-103807153D01*
X323501834Y-103854772D01*
X323549453Y-103950010D01*
X323549453Y-104235724D01*
X323501834Y-104330962D01*
X323454215Y-104378581D01*
X323358977Y-104426200D01*
X323168500Y-104426200D01*
X323073262Y-104378581D01*
X324501834Y-104426200D02*
X323930405Y-104426200D01*
X324216120Y-104426200D02*
X324216120Y-103426200D01*
X324120881Y-103569058D01*
X324025643Y-103664296D01*
X323930405Y-103711915D01*
X324882786Y-103521439D02*
X324930405Y-103473820D01*
X325025643Y-103426200D01*
X325263739Y-103426200D01*
X325358977Y-103473820D01*
X325406596Y-103521439D01*
X325454215Y-103616677D01*
X325454215Y-103711915D01*
X325406596Y-103854772D01*
X324835167Y-104426200D01*
X325454215Y-104426200D01*
X300975643Y-104426200D02*
X300975643Y-103426200D01*
X301308977Y-104140486D01*
X301642310Y-103426200D01*
X301642310Y-104426200D01*
X302023262Y-103426200D02*
X302689929Y-104426200D01*
X302689929Y-103426200D02*
X302023262Y-104426200D01*
X303023262Y-104378581D02*
X303166120Y-104426200D01*
X303404215Y-104426200D01*
X303499453Y-104378581D01*
X303547072Y-104330962D01*
X303594691Y-104235724D01*
X303594691Y-104140486D01*
X303547072Y-104045248D01*
X303499453Y-103997629D01*
X303404215Y-103950010D01*
X303213739Y-103902391D01*
X303118500Y-103854772D01*
X303070881Y-103807153D01*
X303023262Y-103711915D01*
X303023262Y-103616677D01*
X303070881Y-103521439D01*
X303118500Y-103473820D01*
X303213739Y-103426200D01*
X303451834Y-103426200D01*
X303594691Y-103473820D01*
X304023262Y-103759534D02*
X304023262Y-104759534D01*
X304023262Y-103807153D02*
X304118500Y-103759534D01*
X304308977Y-103759534D01*
X304404215Y-103807153D01*
X304451834Y-103854772D01*
X304499453Y-103950010D01*
X304499453Y-104235724D01*
X304451834Y-104330962D01*
X304404215Y-104378581D01*
X304308977Y-104426200D01*
X304118500Y-104426200D01*
X304023262Y-104378581D01*
X305451834Y-104426200D02*
X304880405Y-104426200D01*
X305166120Y-104426200D02*
X305166120Y-103426200D01*
X305070881Y-103569058D01*
X304975643Y-103664296D01*
X304880405Y-103711915D01*
X306404215Y-104426200D02*
X305832786Y-104426200D01*
X306118500Y-104426200D02*
X306118500Y-103426200D01*
X306023262Y-103569058D01*
X305928024Y-103664296D01*
X305832786Y-103711915D01*
X281984843Y-104426200D02*
X281984843Y-103426200D01*
X282318177Y-104140486D01*
X282651510Y-103426200D01*
X282651510Y-104426200D01*
X283032462Y-103426200D02*
X283699129Y-104426200D01*
X283699129Y-103426200D02*
X283032462Y-104426200D01*
X284032462Y-104378581D02*
X284175320Y-104426200D01*
X284413415Y-104426200D01*
X284508653Y-104378581D01*
X284556272Y-104330962D01*
X284603891Y-104235724D01*
X284603891Y-104140486D01*
X284556272Y-104045248D01*
X284508653Y-103997629D01*
X284413415Y-103950010D01*
X284222939Y-103902391D01*
X284127700Y-103854772D01*
X284080081Y-103807153D01*
X284032462Y-103711915D01*
X284032462Y-103616677D01*
X284080081Y-103521439D01*
X284127700Y-103473820D01*
X284222939Y-103426200D01*
X284461034Y-103426200D01*
X284603891Y-103473820D01*
X285032462Y-103759534D02*
X285032462Y-104759534D01*
X285032462Y-103807153D02*
X285127700Y-103759534D01*
X285318177Y-103759534D01*
X285413415Y-103807153D01*
X285461034Y-103854772D01*
X285508653Y-103950010D01*
X285508653Y-104235724D01*
X285461034Y-104330962D01*
X285413415Y-104378581D01*
X285318177Y-104426200D01*
X285127700Y-104426200D01*
X285032462Y-104378581D01*
X286461034Y-104426200D02*
X285889605Y-104426200D01*
X286175320Y-104426200D02*
X286175320Y-103426200D01*
X286080081Y-103569058D01*
X285984843Y-103664296D01*
X285889605Y-103711915D01*
X287080081Y-103426200D02*
X287175320Y-103426200D01*
X287270558Y-103473820D01*
X287318177Y-103521439D01*
X287365796Y-103616677D01*
X287413415Y-103807153D01*
X287413415Y-104045248D01*
X287365796Y-104235724D01*
X287318177Y-104330962D01*
X287270558Y-104378581D01*
X287175320Y-104426200D01*
X287080081Y-104426200D01*
X286984843Y-104378581D01*
X286937224Y-104330962D01*
X286889605Y-104235724D01*
X286841986Y-104045248D01*
X286841986Y-103807153D01*
X286889605Y-103616677D01*
X286937224Y-103521439D01*
X286984843Y-103473820D01*
X287080081Y-103426200D01*
X244301834Y-104426200D02*
X244301834Y-103426200D01*
X244635167Y-104140486D01*
X244968500Y-103426200D01*
X244968500Y-104426200D01*
X245349453Y-103426200D02*
X246016120Y-104426200D01*
X246016120Y-103426200D02*
X245349453Y-104426200D01*
X246349453Y-104378581D02*
X246492310Y-104426200D01*
X246730405Y-104426200D01*
X246825643Y-104378581D01*
X246873262Y-104330962D01*
X246920881Y-104235724D01*
X246920881Y-104140486D01*
X246873262Y-104045248D01*
X246825643Y-103997629D01*
X246730405Y-103950010D01*
X246539929Y-103902391D01*
X246444691Y-103854772D01*
X246397072Y-103807153D01*
X246349453Y-103711915D01*
X246349453Y-103616677D01*
X246397072Y-103521439D01*
X246444691Y-103473820D01*
X246539929Y-103426200D01*
X246778024Y-103426200D01*
X246920881Y-103473820D01*
X247349453Y-103759534D02*
X247349453Y-104759534D01*
X247349453Y-103807153D02*
X247444691Y-103759534D01*
X247635167Y-103759534D01*
X247730405Y-103807153D01*
X247778024Y-103854772D01*
X247825643Y-103950010D01*
X247825643Y-104235724D01*
X247778024Y-104330962D01*
X247730405Y-104378581D01*
X247635167Y-104426200D01*
X247444691Y-104426200D01*
X247349453Y-104378581D01*
X248301834Y-104426200D02*
X248492310Y-104426200D01*
X248587548Y-104378581D01*
X248635167Y-104330962D01*
X248730405Y-104188105D01*
X248778024Y-103997629D01*
X248778024Y-103616677D01*
X248730405Y-103521439D01*
X248682786Y-103473820D01*
X248587548Y-103426200D01*
X248397072Y-103426200D01*
X248301834Y-103473820D01*
X248254215Y-103521439D01*
X248206596Y-103616677D01*
X248206596Y-103854772D01*
X248254215Y-103950010D01*
X248301834Y-103997629D01*
X248397072Y-104045248D01*
X248587548Y-104045248D01*
X248682786Y-103997629D01*
X248730405Y-103950010D01*
X248778024Y-103854772D01*
X225251834Y-104426200D02*
X225251834Y-103426200D01*
X225585167Y-104140486D01*
X225918500Y-103426200D01*
X225918500Y-104426200D01*
X226299453Y-103426200D02*
X226966120Y-104426200D01*
X226966120Y-103426200D02*
X226299453Y-104426200D01*
X227299453Y-104378581D02*
X227442310Y-104426200D01*
X227680405Y-104426200D01*
X227775643Y-104378581D01*
X227823262Y-104330962D01*
X227870881Y-104235724D01*
X227870881Y-104140486D01*
X227823262Y-104045248D01*
X227775643Y-103997629D01*
X227680405Y-103950010D01*
X227489929Y-103902391D01*
X227394691Y-103854772D01*
X227347072Y-103807153D01*
X227299453Y-103711915D01*
X227299453Y-103616677D01*
X227347072Y-103521439D01*
X227394691Y-103473820D01*
X227489929Y-103426200D01*
X227728024Y-103426200D01*
X227870881Y-103473820D01*
X228299453Y-103759534D02*
X228299453Y-104759534D01*
X228299453Y-103807153D02*
X228394691Y-103759534D01*
X228585167Y-103759534D01*
X228680405Y-103807153D01*
X228728024Y-103854772D01*
X228775643Y-103950010D01*
X228775643Y-104235724D01*
X228728024Y-104330962D01*
X228680405Y-104378581D01*
X228585167Y-104426200D01*
X228394691Y-104426200D01*
X228299453Y-104378581D01*
X229347072Y-103854772D02*
X229251834Y-103807153D01*
X229204215Y-103759534D01*
X229156596Y-103664296D01*
X229156596Y-103616677D01*
X229204215Y-103521439D01*
X229251834Y-103473820D01*
X229347072Y-103426200D01*
X229537548Y-103426200D01*
X229632786Y-103473820D01*
X229680405Y-103521439D01*
X229728024Y-103616677D01*
X229728024Y-103664296D01*
X229680405Y-103759534D01*
X229632786Y-103807153D01*
X229537548Y-103854772D01*
X229347072Y-103854772D01*
X229251834Y-103902391D01*
X229204215Y-103950010D01*
X229156596Y-104045248D01*
X229156596Y-104235724D01*
X229204215Y-104330962D01*
X229251834Y-104378581D01*
X229347072Y-104426200D01*
X229537548Y-104426200D01*
X229632786Y-104378581D01*
X229680405Y-104330962D01*
X229728024Y-104235724D01*
X229728024Y-104045248D01*
X229680405Y-103950010D01*
X229632786Y-103902391D01*
X229537548Y-103854772D01*
X206201834Y-104426200D02*
X206201834Y-103426200D01*
X206535167Y-104140486D01*
X206868500Y-103426200D01*
X206868500Y-104426200D01*
X207249453Y-103426200D02*
X207916120Y-104426200D01*
X207916120Y-103426200D02*
X207249453Y-104426200D01*
X208249453Y-104378581D02*
X208392310Y-104426200D01*
X208630405Y-104426200D01*
X208725643Y-104378581D01*
X208773262Y-104330962D01*
X208820881Y-104235724D01*
X208820881Y-104140486D01*
X208773262Y-104045248D01*
X208725643Y-103997629D01*
X208630405Y-103950010D01*
X208439929Y-103902391D01*
X208344691Y-103854772D01*
X208297072Y-103807153D01*
X208249453Y-103711915D01*
X208249453Y-103616677D01*
X208297072Y-103521439D01*
X208344691Y-103473820D01*
X208439929Y-103426200D01*
X208678024Y-103426200D01*
X208820881Y-103473820D01*
X209249453Y-103759534D02*
X209249453Y-104759534D01*
X209249453Y-103807153D02*
X209344691Y-103759534D01*
X209535167Y-103759534D01*
X209630405Y-103807153D01*
X209678024Y-103854772D01*
X209725643Y-103950010D01*
X209725643Y-104235724D01*
X209678024Y-104330962D01*
X209630405Y-104378581D01*
X209535167Y-104426200D01*
X209344691Y-104426200D01*
X209249453Y-104378581D01*
X210058977Y-103426200D02*
X210725643Y-103426200D01*
X210297072Y-104426200D01*
X187151834Y-104426200D02*
X187151834Y-103426200D01*
X187485167Y-104140486D01*
X187818500Y-103426200D01*
X187818500Y-104426200D01*
X188199453Y-103426200D02*
X188866120Y-104426200D01*
X188866120Y-103426200D02*
X188199453Y-104426200D01*
X189199453Y-104378581D02*
X189342310Y-104426200D01*
X189580405Y-104426200D01*
X189675643Y-104378581D01*
X189723262Y-104330962D01*
X189770881Y-104235724D01*
X189770881Y-104140486D01*
X189723262Y-104045248D01*
X189675643Y-103997629D01*
X189580405Y-103950010D01*
X189389929Y-103902391D01*
X189294691Y-103854772D01*
X189247072Y-103807153D01*
X189199453Y-103711915D01*
X189199453Y-103616677D01*
X189247072Y-103521439D01*
X189294691Y-103473820D01*
X189389929Y-103426200D01*
X189628024Y-103426200D01*
X189770881Y-103473820D01*
X190199453Y-103759534D02*
X190199453Y-104759534D01*
X190199453Y-103807153D02*
X190294691Y-103759534D01*
X190485167Y-103759534D01*
X190580405Y-103807153D01*
X190628024Y-103854772D01*
X190675643Y-103950010D01*
X190675643Y-104235724D01*
X190628024Y-104330962D01*
X190580405Y-104378581D01*
X190485167Y-104426200D01*
X190294691Y-104426200D01*
X190199453Y-104378581D01*
X191532786Y-103426200D02*
X191342310Y-103426200D01*
X191247072Y-103473820D01*
X191199453Y-103521439D01*
X191104215Y-103664296D01*
X191056596Y-103854772D01*
X191056596Y-104235724D01*
X191104215Y-104330962D01*
X191151834Y-104378581D01*
X191247072Y-104426200D01*
X191437548Y-104426200D01*
X191532786Y-104378581D01*
X191580405Y-104330962D01*
X191628024Y-104235724D01*
X191628024Y-103997629D01*
X191580405Y-103902391D01*
X191532786Y-103854772D01*
X191437548Y-103807153D01*
X191247072Y-103807153D01*
X191151834Y-103854772D01*
X191104215Y-103902391D01*
X191056596Y-103997629D01*
X168101834Y-104426200D02*
X168101834Y-103426200D01*
X168435167Y-104140486D01*
X168768500Y-103426200D01*
X168768500Y-104426200D01*
X169149453Y-103426200D02*
X169816120Y-104426200D01*
X169816120Y-103426200D02*
X169149453Y-104426200D01*
X170149453Y-104378581D02*
X170292310Y-104426200D01*
X170530405Y-104426200D01*
X170625643Y-104378581D01*
X170673262Y-104330962D01*
X170720881Y-104235724D01*
X170720881Y-104140486D01*
X170673262Y-104045248D01*
X170625643Y-103997629D01*
X170530405Y-103950010D01*
X170339929Y-103902391D01*
X170244691Y-103854772D01*
X170197072Y-103807153D01*
X170149453Y-103711915D01*
X170149453Y-103616677D01*
X170197072Y-103521439D01*
X170244691Y-103473820D01*
X170339929Y-103426200D01*
X170578024Y-103426200D01*
X170720881Y-103473820D01*
X171149453Y-103759534D02*
X171149453Y-104759534D01*
X171149453Y-103807153D02*
X171244691Y-103759534D01*
X171435167Y-103759534D01*
X171530405Y-103807153D01*
X171578024Y-103854772D01*
X171625643Y-103950010D01*
X171625643Y-104235724D01*
X171578024Y-104330962D01*
X171530405Y-104378581D01*
X171435167Y-104426200D01*
X171244691Y-104426200D01*
X171149453Y-104378581D01*
X172530405Y-103426200D02*
X172054215Y-103426200D01*
X172006596Y-103902391D01*
X172054215Y-103854772D01*
X172149453Y-103807153D01*
X172387548Y-103807153D01*
X172482786Y-103854772D01*
X172530405Y-103902391D01*
X172578024Y-103997629D01*
X172578024Y-104235724D01*
X172530405Y-104330962D01*
X172482786Y-104378581D01*
X172387548Y-104426200D01*
X172149453Y-104426200D01*
X172054215Y-104378581D01*
X172006596Y-104330962D01*
X149051834Y-104426200D02*
X149051834Y-103426200D01*
X149385167Y-104140486D01*
X149718500Y-103426200D01*
X149718500Y-104426200D01*
X150099453Y-103426200D02*
X150766120Y-104426200D01*
X150766120Y-103426200D02*
X150099453Y-104426200D01*
X151099453Y-104378581D02*
X151242310Y-104426200D01*
X151480405Y-104426200D01*
X151575643Y-104378581D01*
X151623262Y-104330962D01*
X151670881Y-104235724D01*
X151670881Y-104140486D01*
X151623262Y-104045248D01*
X151575643Y-103997629D01*
X151480405Y-103950010D01*
X151289929Y-103902391D01*
X151194691Y-103854772D01*
X151147072Y-103807153D01*
X151099453Y-103711915D01*
X151099453Y-103616677D01*
X151147072Y-103521439D01*
X151194691Y-103473820D01*
X151289929Y-103426200D01*
X151528024Y-103426200D01*
X151670881Y-103473820D01*
X152099453Y-103759534D02*
X152099453Y-104759534D01*
X152099453Y-103807153D02*
X152194691Y-103759534D01*
X152385167Y-103759534D01*
X152480405Y-103807153D01*
X152528024Y-103854772D01*
X152575643Y-103950010D01*
X152575643Y-104235724D01*
X152528024Y-104330962D01*
X152480405Y-104378581D01*
X152385167Y-104426200D01*
X152194691Y-104426200D01*
X152099453Y-104378581D01*
X153432786Y-103759534D02*
X153432786Y-104426200D01*
X153194691Y-103378581D02*
X152956596Y-104092867D01*
X153575643Y-104092867D01*
X130001834Y-104426200D02*
X130001834Y-103426200D01*
X130335167Y-104140486D01*
X130668500Y-103426200D01*
X130668500Y-104426200D01*
X131049453Y-103426200D02*
X131716120Y-104426200D01*
X131716120Y-103426200D02*
X131049453Y-104426200D01*
X132049453Y-104378581D02*
X132192310Y-104426200D01*
X132430405Y-104426200D01*
X132525643Y-104378581D01*
X132573262Y-104330962D01*
X132620881Y-104235724D01*
X132620881Y-104140486D01*
X132573262Y-104045248D01*
X132525643Y-103997629D01*
X132430405Y-103950010D01*
X132239929Y-103902391D01*
X132144691Y-103854772D01*
X132097072Y-103807153D01*
X132049453Y-103711915D01*
X132049453Y-103616677D01*
X132097072Y-103521439D01*
X132144691Y-103473820D01*
X132239929Y-103426200D01*
X132478024Y-103426200D01*
X132620881Y-103473820D01*
X133049453Y-103759534D02*
X133049453Y-104759534D01*
X133049453Y-103807153D02*
X133144691Y-103759534D01*
X133335167Y-103759534D01*
X133430405Y-103807153D01*
X133478024Y-103854772D01*
X133525643Y-103950010D01*
X133525643Y-104235724D01*
X133478024Y-104330962D01*
X133430405Y-104378581D01*
X133335167Y-104426200D01*
X133144691Y-104426200D01*
X133049453Y-104378581D01*
X133858977Y-103426200D02*
X134478024Y-103426200D01*
X134144691Y-103807153D01*
X134287548Y-103807153D01*
X134382786Y-103854772D01*
X134430405Y-103902391D01*
X134478024Y-103997629D01*
X134478024Y-104235724D01*
X134430405Y-104330962D01*
X134382786Y-104378581D01*
X134287548Y-104426200D01*
X134001834Y-104426200D01*
X133906596Y-104378581D01*
X133858977Y-104330962D01*
X110951834Y-104426200D02*
X110951834Y-103426200D01*
X111285167Y-104140486D01*
X111618500Y-103426200D01*
X111618500Y-104426200D01*
X111999453Y-103426200D02*
X112666120Y-104426200D01*
X112666120Y-103426200D02*
X111999453Y-104426200D01*
X112999453Y-104378581D02*
X113142310Y-104426200D01*
X113380405Y-104426200D01*
X113475643Y-104378581D01*
X113523262Y-104330962D01*
X113570881Y-104235724D01*
X113570881Y-104140486D01*
X113523262Y-104045248D01*
X113475643Y-103997629D01*
X113380405Y-103950010D01*
X113189929Y-103902391D01*
X113094691Y-103854772D01*
X113047072Y-103807153D01*
X112999453Y-103711915D01*
X112999453Y-103616677D01*
X113047072Y-103521439D01*
X113094691Y-103473820D01*
X113189929Y-103426200D01*
X113428024Y-103426200D01*
X113570881Y-103473820D01*
X113999453Y-103759534D02*
X113999453Y-104759534D01*
X113999453Y-103807153D02*
X114094691Y-103759534D01*
X114285167Y-103759534D01*
X114380405Y-103807153D01*
X114428024Y-103854772D01*
X114475643Y-103950010D01*
X114475643Y-104235724D01*
X114428024Y-104330962D01*
X114380405Y-104378581D01*
X114285167Y-104426200D01*
X114094691Y-104426200D01*
X113999453Y-104378581D01*
X114856596Y-103521439D02*
X114904215Y-103473820D01*
X114999453Y-103426200D01*
X115237548Y-103426200D01*
X115332786Y-103473820D01*
X115380405Y-103521439D01*
X115428024Y-103616677D01*
X115428024Y-103711915D01*
X115380405Y-103854772D01*
X114808977Y-104426200D01*
X115428024Y-104426200D01*
X91901834Y-104426200D02*
X91901834Y-103426200D01*
X92235167Y-104140486D01*
X92568500Y-103426200D01*
X92568500Y-104426200D01*
X92949453Y-103426200D02*
X93616120Y-104426200D01*
X93616120Y-103426200D02*
X92949453Y-104426200D01*
X93949453Y-104378581D02*
X94092310Y-104426200D01*
X94330405Y-104426200D01*
X94425643Y-104378581D01*
X94473262Y-104330962D01*
X94520881Y-104235724D01*
X94520881Y-104140486D01*
X94473262Y-104045248D01*
X94425643Y-103997629D01*
X94330405Y-103950010D01*
X94139929Y-103902391D01*
X94044691Y-103854772D01*
X93997072Y-103807153D01*
X93949453Y-103711915D01*
X93949453Y-103616677D01*
X93997072Y-103521439D01*
X94044691Y-103473820D01*
X94139929Y-103426200D01*
X94378024Y-103426200D01*
X94520881Y-103473820D01*
X94949453Y-103759534D02*
X94949453Y-104759534D01*
X94949453Y-103807153D02*
X95044691Y-103759534D01*
X95235167Y-103759534D01*
X95330405Y-103807153D01*
X95378024Y-103854772D01*
X95425643Y-103950010D01*
X95425643Y-104235724D01*
X95378024Y-104330962D01*
X95330405Y-104378581D01*
X95235167Y-104426200D01*
X95044691Y-104426200D01*
X94949453Y-104378581D01*
X96378024Y-104426200D02*
X95806596Y-104426200D01*
X96092310Y-104426200D02*
X96092310Y-103426200D01*
X95997072Y-103569058D01*
X95901834Y-103664296D01*
X95806596Y-103711915D01*
X72851834Y-104426200D02*
X72851834Y-103426200D01*
X73185167Y-104140486D01*
X73518500Y-103426200D01*
X73518500Y-104426200D01*
X73899453Y-103426200D02*
X74566120Y-104426200D01*
X74566120Y-103426200D02*
X73899453Y-104426200D01*
X74899453Y-104378581D02*
X75042310Y-104426200D01*
X75280405Y-104426200D01*
X75375643Y-104378581D01*
X75423262Y-104330962D01*
X75470881Y-104235724D01*
X75470881Y-104140486D01*
X75423262Y-104045248D01*
X75375643Y-103997629D01*
X75280405Y-103950010D01*
X75089929Y-103902391D01*
X74994691Y-103854772D01*
X74947072Y-103807153D01*
X74899453Y-103711915D01*
X74899453Y-103616677D01*
X74947072Y-103521439D01*
X74994691Y-103473820D01*
X75089929Y-103426200D01*
X75328024Y-103426200D01*
X75470881Y-103473820D01*
X75899453Y-103759534D02*
X75899453Y-104759534D01*
X75899453Y-103807153D02*
X75994691Y-103759534D01*
X76185167Y-103759534D01*
X76280405Y-103807153D01*
X76328024Y-103854772D01*
X76375643Y-103950010D01*
X76375643Y-104235724D01*
X76328024Y-104330962D01*
X76280405Y-104378581D01*
X76185167Y-104426200D01*
X75994691Y-104426200D01*
X75899453Y-104378581D01*
X76994691Y-103426200D02*
X77089929Y-103426200D01*
X77185167Y-103473820D01*
X77232786Y-103521439D01*
X77280405Y-103616677D01*
X77328024Y-103807153D01*
X77328024Y-104045248D01*
X77280405Y-104235724D01*
X77232786Y-104330962D01*
X77185167Y-104378581D01*
X77089929Y-104426200D01*
X76994691Y-104426200D01*
X76899453Y-104378581D01*
X76851834Y-104330962D01*
X76804215Y-104235724D01*
X76756596Y-104045248D01*
X76756596Y-103807153D01*
X76804215Y-103616677D01*
X76851834Y-103521439D01*
X76899453Y-103473820D01*
X76994691Y-103426200D01*
X125623443Y-190127000D02*
X125623443Y-189127000D01*
X125956777Y-189841286D01*
X126290110Y-189127000D01*
X126290110Y-190127000D01*
X126671062Y-189127000D02*
X127337729Y-190127000D01*
X127337729Y-189127000D02*
X126671062Y-190127000D01*
X127671062Y-190079381D02*
X127766300Y-190127000D01*
X127956777Y-190127000D01*
X128052015Y-190079381D01*
X128099634Y-189984143D01*
X128099634Y-189936524D01*
X128052015Y-189841286D01*
X127956777Y-189793667D01*
X127813920Y-189793667D01*
X127718681Y-189746048D01*
X127671062Y-189650810D01*
X127671062Y-189603191D01*
X127718681Y-189507953D01*
X127813920Y-189460334D01*
X127956777Y-189460334D01*
X128052015Y-189507953D01*
X129052015Y-190127000D02*
X128480586Y-190127000D01*
X128766300Y-190127000D02*
X128766300Y-189127000D01*
X128671062Y-189269858D01*
X128575824Y-189365096D01*
X128480586Y-189412715D01*
X159145081Y-171077000D02*
X159145081Y-170077000D01*
X159478415Y-170791286D01*
X159811748Y-170077000D01*
X159811748Y-171077000D01*
X160192700Y-170077000D02*
X160859367Y-171077000D01*
X160859367Y-170077000D02*
X160192700Y-171077000D01*
X161240320Y-171077000D02*
X161240320Y-170410334D01*
X161240320Y-170600810D02*
X161287939Y-170505572D01*
X161335558Y-170457953D01*
X161430796Y-170410334D01*
X161526034Y-170410334D01*
X162383177Y-171077000D02*
X161811748Y-171077000D01*
X162097462Y-171077000D02*
X162097462Y-170077000D01*
X162002224Y-170219858D01*
X161906986Y-170315096D01*
X161811748Y-170362715D01*
X101852224Y-171077000D02*
X101852224Y-170077000D01*
X102185558Y-170791286D01*
X102518891Y-170077000D01*
X102518891Y-171077000D01*
X102899843Y-170077000D02*
X103566510Y-171077000D01*
X103566510Y-170077000D02*
X102899843Y-171077000D01*
X104376034Y-170410334D02*
X104376034Y-171410334D01*
X104376034Y-171029381D02*
X104280796Y-171077000D01*
X104090320Y-171077000D01*
X103995081Y-171029381D01*
X103947462Y-170981762D01*
X103899843Y-170886524D01*
X103899843Y-170600810D01*
X103947462Y-170505572D01*
X103995081Y-170457953D01*
X104090320Y-170410334D01*
X104280796Y-170410334D01*
X104376034Y-170457953D01*
X105376034Y-171077000D02*
X104804605Y-171077000D01*
X105090320Y-171077000D02*
X105090320Y-170077000D01*
X104995081Y-170219858D01*
X104899843Y-170315096D01*
X104804605Y-170362715D01*
X273251424Y-171077000D02*
X273251424Y-170077000D01*
X273584758Y-170791286D01*
X273918091Y-170077000D01*
X273918091Y-171077000D01*
X274299043Y-170077000D02*
X274965710Y-171077000D01*
X274965710Y-170077000D02*
X274299043Y-171077000D01*
X275346662Y-170410334D02*
X275346662Y-171410334D01*
X275346662Y-170457953D02*
X275441900Y-170410334D01*
X275632377Y-170410334D01*
X275727615Y-170457953D01*
X275775234Y-170505572D01*
X275822853Y-170600810D01*
X275822853Y-170886524D01*
X275775234Y-170981762D01*
X275727615Y-171029381D01*
X275632377Y-171077000D01*
X275441900Y-171077000D01*
X275346662Y-171029381D01*
X276775234Y-171077000D02*
X276203805Y-171077000D01*
X276489520Y-171077000D02*
X276489520Y-170077000D01*
X276394281Y-170219858D01*
X276299043Y-170315096D01*
X276203805Y-170362715D01*
X254252224Y-171077000D02*
X254252224Y-170077000D01*
X254585558Y-170791286D01*
X254918891Y-170077000D01*
X254918891Y-171077000D01*
X255299843Y-170077000D02*
X255966510Y-171077000D01*
X255966510Y-170077000D02*
X255299843Y-171077000D01*
X256490320Y-171077000D02*
X256395081Y-171029381D01*
X256347462Y-170981762D01*
X256299843Y-170886524D01*
X256299843Y-170600810D01*
X256347462Y-170505572D01*
X256395081Y-170457953D01*
X256490320Y-170410334D01*
X256633177Y-170410334D01*
X256728415Y-170457953D01*
X256776034Y-170505572D01*
X256823653Y-170600810D01*
X256823653Y-170886524D01*
X256776034Y-170981762D01*
X256728415Y-171029381D01*
X256633177Y-171077000D01*
X256490320Y-171077000D01*
X257776034Y-171077000D02*
X257204605Y-171077000D01*
X257490320Y-171077000D02*
X257490320Y-170077000D01*
X257395081Y-170219858D01*
X257299843Y-170315096D01*
X257204605Y-170362715D01*
X211402424Y-209177000D02*
X211402424Y-208177000D01*
X211735758Y-208891286D01*
X212069091Y-208177000D01*
X212069091Y-209177000D01*
X212450043Y-208177000D02*
X213116710Y-209177000D01*
X213116710Y-208177000D02*
X212450043Y-209177000D01*
X213497662Y-208510334D02*
X213497662Y-209177000D01*
X213497662Y-208605572D02*
X213545281Y-208557953D01*
X213640520Y-208510334D01*
X213783377Y-208510334D01*
X213878615Y-208557953D01*
X213926234Y-208653191D01*
X213926234Y-209177000D01*
X214926234Y-209177000D02*
X214354805Y-209177000D01*
X214640520Y-209177000D02*
X214640520Y-208177000D01*
X214545281Y-208319858D01*
X214450043Y-208415096D01*
X214354805Y-208462715D01*
X230238139Y-209177000D02*
X230238139Y-208177000D01*
X230571472Y-208891286D01*
X230904805Y-208177000D01*
X230904805Y-209177000D01*
X231285758Y-208177000D02*
X231952424Y-209177000D01*
X231952424Y-208177000D02*
X231285758Y-209177000D01*
X232333377Y-209177000D02*
X232333377Y-208510334D01*
X232333377Y-208605572D02*
X232380996Y-208557953D01*
X232476234Y-208510334D01*
X232619091Y-208510334D01*
X232714329Y-208557953D01*
X232761948Y-208653191D01*
X232761948Y-209177000D01*
X232761948Y-208653191D02*
X232809567Y-208557953D01*
X232904805Y-208510334D01*
X233047662Y-208510334D01*
X233142900Y-208557953D01*
X233190520Y-208653191D01*
X233190520Y-209177000D01*
X234190520Y-209177000D02*
X233619091Y-209177000D01*
X233904805Y-209177000D02*
X233904805Y-208177000D01*
X233809567Y-208319858D01*
X233714329Y-208415096D01*
X233619091Y-208462715D01*
X259167100Y-190127000D02*
X259167100Y-189127000D01*
X259500434Y-189841286D01*
X259833767Y-189127000D01*
X259833767Y-190127000D01*
X260214720Y-189127000D02*
X260881386Y-190127000D01*
X260881386Y-189127000D02*
X260214720Y-190127000D01*
X261405196Y-190127000D02*
X261309958Y-190079381D01*
X261262339Y-189984143D01*
X261262339Y-189127000D01*
X262309958Y-190127000D02*
X261738529Y-190127000D01*
X262024243Y-190127000D02*
X262024243Y-189127000D01*
X261929005Y-189269858D01*
X261833767Y-189365096D01*
X261738529Y-189412715D01*
X239974243Y-190127000D02*
X239974243Y-189127000D01*
X240307577Y-189841286D01*
X240640910Y-189127000D01*
X240640910Y-190127000D01*
X241021862Y-189127000D02*
X241688529Y-190127000D01*
X241688529Y-189127000D02*
X241021862Y-190127000D01*
X242069481Y-190127000D02*
X242069481Y-189127000D01*
X242164720Y-189746048D02*
X242450434Y-190127000D01*
X242450434Y-189460334D02*
X242069481Y-189841286D01*
X243402815Y-190127000D02*
X242831386Y-190127000D01*
X243117100Y-190127000D02*
X243117100Y-189127000D01*
X243021862Y-189269858D01*
X242926624Y-189365096D01*
X242831386Y-189412715D01*
X221090910Y-190127000D02*
X221090910Y-189127000D01*
X221424243Y-189841286D01*
X221757577Y-189127000D01*
X221757577Y-190127000D01*
X222138529Y-189127000D02*
X222805196Y-190127000D01*
X222805196Y-189127000D02*
X222138529Y-190127000D01*
X223186148Y-189460334D02*
X223186148Y-190317477D01*
X223138529Y-190412715D01*
X223043291Y-190460334D01*
X222995672Y-190460334D01*
X223186148Y-189127000D02*
X223138529Y-189174620D01*
X223186148Y-189222239D01*
X223233767Y-189174620D01*
X223186148Y-189127000D01*
X223186148Y-189222239D01*
X224186148Y-190127000D02*
X223614720Y-190127000D01*
X223900434Y-190127000D02*
X223900434Y-189127000D01*
X223805196Y-189269858D01*
X223709958Y-189365096D01*
X223614720Y-189412715D01*
X235416510Y-171077000D02*
X235416510Y-170077000D01*
X235749843Y-170791286D01*
X236083177Y-170077000D01*
X236083177Y-171077000D01*
X236464129Y-170077000D02*
X237130796Y-171077000D01*
X237130796Y-170077000D02*
X236464129Y-171077000D01*
X237511748Y-171077000D02*
X237511748Y-170410334D01*
X237511748Y-170077000D02*
X237464129Y-170124620D01*
X237511748Y-170172239D01*
X237559367Y-170124620D01*
X237511748Y-170077000D01*
X237511748Y-170172239D01*
X238511748Y-171077000D02*
X237940320Y-171077000D01*
X238226034Y-171077000D02*
X238226034Y-170077000D01*
X238130796Y-170219858D01*
X238035558Y-170315096D01*
X237940320Y-170362715D01*
X201826624Y-190127000D02*
X201826624Y-189127000D01*
X202159958Y-189841286D01*
X202493291Y-189127000D01*
X202493291Y-190127000D01*
X202874243Y-189127000D02*
X203540910Y-190127000D01*
X203540910Y-189127000D02*
X202874243Y-190127000D01*
X203921862Y-190127000D02*
X203921862Y-189127000D01*
X204350434Y-190127000D02*
X204350434Y-189603191D01*
X204302815Y-189507953D01*
X204207577Y-189460334D01*
X204064720Y-189460334D01*
X203969481Y-189507953D01*
X203921862Y-189555572D01*
X205350434Y-190127000D02*
X204779005Y-190127000D01*
X205064720Y-190127000D02*
X205064720Y-189127000D01*
X204969481Y-189269858D01*
X204874243Y-189365096D01*
X204779005Y-189412715D01*
X182776624Y-190127000D02*
X182776624Y-189127000D01*
X183109958Y-189841286D01*
X183443291Y-189127000D01*
X183443291Y-190127000D01*
X183824243Y-189127000D02*
X184490910Y-190127000D01*
X184490910Y-189127000D02*
X183824243Y-190127000D01*
X185300434Y-189460334D02*
X185300434Y-190269858D01*
X185252815Y-190365096D01*
X185205196Y-190412715D01*
X185109958Y-190460334D01*
X184967100Y-190460334D01*
X184871862Y-190412715D01*
X185300434Y-190079381D02*
X185205196Y-190127000D01*
X185014720Y-190127000D01*
X184919481Y-190079381D01*
X184871862Y-190031762D01*
X184824243Y-189936524D01*
X184824243Y-189650810D01*
X184871862Y-189555572D01*
X184919481Y-189507953D01*
X185014720Y-189460334D01*
X185205196Y-189460334D01*
X185300434Y-189507953D01*
X186300434Y-190127000D02*
X185729005Y-190127000D01*
X186014720Y-190127000D02*
X186014720Y-189127000D01*
X185919481Y-189269858D01*
X185824243Y-189365096D01*
X185729005Y-189412715D01*
X282400243Y-132977000D02*
X282400243Y-131977000D01*
X282733577Y-132691286D01*
X283066910Y-131977000D01*
X283066910Y-132977000D01*
X283447862Y-131977000D02*
X284114529Y-132977000D01*
X284114529Y-131977000D02*
X283447862Y-132977000D01*
X284828815Y-132453191D02*
X284495481Y-132453191D01*
X284495481Y-132977000D02*
X284495481Y-131977000D01*
X284971672Y-131977000D01*
X285876434Y-132977000D02*
X285305005Y-132977000D01*
X285590720Y-132977000D02*
X285590720Y-131977000D01*
X285495481Y-132119858D01*
X285400243Y-132215096D01*
X285305005Y-132262715D01*
X286828815Y-132977000D02*
X286257386Y-132977000D01*
X286543100Y-132977000D02*
X286543100Y-131977000D01*
X286447862Y-132119858D01*
X286352624Y-132215096D01*
X286257386Y-132262715D01*
X163893291Y-190127000D02*
X163893291Y-189127000D01*
X164226624Y-189841286D01*
X164559958Y-189127000D01*
X164559958Y-190127000D01*
X164940910Y-189127000D02*
X165607577Y-190127000D01*
X165607577Y-189127000D02*
X164940910Y-190127000D01*
X165845672Y-189460334D02*
X166226624Y-189460334D01*
X165988529Y-190127000D02*
X165988529Y-189269858D01*
X166036148Y-189174620D01*
X166131386Y-189127000D01*
X166226624Y-189127000D01*
X167083767Y-190127000D02*
X166512339Y-190127000D01*
X166798053Y-190127000D02*
X166798053Y-189127000D01*
X166702815Y-189269858D01*
X166607577Y-189365096D01*
X166512339Y-189412715D01*
X139976034Y-171077000D02*
X139976034Y-170077000D01*
X140309367Y-170791286D01*
X140642700Y-170077000D01*
X140642700Y-171077000D01*
X141023653Y-170077000D02*
X141690320Y-171077000D01*
X141690320Y-170077000D02*
X141023653Y-171077000D01*
X142452224Y-171029381D02*
X142356986Y-171077000D01*
X142166510Y-171077000D01*
X142071272Y-171029381D01*
X142023653Y-170934143D01*
X142023653Y-170553191D01*
X142071272Y-170457953D01*
X142166510Y-170410334D01*
X142356986Y-170410334D01*
X142452224Y-170457953D01*
X142499843Y-170553191D01*
X142499843Y-170648429D01*
X142023653Y-170743667D01*
X143452224Y-171077000D02*
X142880796Y-171077000D01*
X143166510Y-171077000D02*
X143166510Y-170077000D01*
X143071272Y-170219858D01*
X142976034Y-170315096D01*
X142880796Y-170362715D01*
X144676624Y-190127000D02*
X144676624Y-189127000D01*
X145009958Y-189841286D01*
X145343291Y-189127000D01*
X145343291Y-190127000D01*
X145724243Y-189127000D02*
X146390910Y-190127000D01*
X146390910Y-189127000D02*
X145724243Y-190127000D01*
X147200434Y-190127000D02*
X147200434Y-189127000D01*
X147200434Y-190079381D02*
X147105196Y-190127000D01*
X146914720Y-190127000D01*
X146819481Y-190079381D01*
X146771862Y-190031762D01*
X146724243Y-189936524D01*
X146724243Y-189650810D01*
X146771862Y-189555572D01*
X146819481Y-189507953D01*
X146914720Y-189460334D01*
X147105196Y-189460334D01*
X147200434Y-189507953D01*
X148200434Y-190127000D02*
X147629005Y-190127000D01*
X147914720Y-190127000D02*
X147914720Y-189127000D01*
X147819481Y-189269858D01*
X147724243Y-189365096D01*
X147629005Y-189412715D01*
X154276234Y-209177000D02*
X154276234Y-208177000D01*
X154609567Y-208891286D01*
X154942900Y-208177000D01*
X154942900Y-209177000D01*
X155323853Y-208177000D02*
X155990520Y-209177000D01*
X155990520Y-208177000D02*
X155323853Y-209177000D01*
X156800043Y-209129381D02*
X156704805Y-209177000D01*
X156514329Y-209177000D01*
X156419091Y-209129381D01*
X156371472Y-209081762D01*
X156323853Y-208986524D01*
X156323853Y-208700810D01*
X156371472Y-208605572D01*
X156419091Y-208557953D01*
X156514329Y-208510334D01*
X156704805Y-208510334D01*
X156800043Y-208557953D01*
X157752424Y-209177000D02*
X157180996Y-209177000D01*
X157466710Y-209177000D02*
X157466710Y-208177000D01*
X157371472Y-208319858D01*
X157276234Y-208415096D01*
X157180996Y-208462715D01*
X192352424Y-209177000D02*
X192352424Y-208177000D01*
X192685758Y-208891286D01*
X193019091Y-208177000D01*
X193019091Y-209177000D01*
X193400043Y-208177000D02*
X194066710Y-209177000D01*
X194066710Y-208177000D02*
X193400043Y-209177000D01*
X194447662Y-209177000D02*
X194447662Y-208177000D01*
X194447662Y-208557953D02*
X194542900Y-208510334D01*
X194733377Y-208510334D01*
X194828615Y-208557953D01*
X194876234Y-208605572D01*
X194923853Y-208700810D01*
X194923853Y-208986524D01*
X194876234Y-209081762D01*
X194828615Y-209129381D01*
X194733377Y-209177000D01*
X194542900Y-209177000D01*
X194447662Y-209129381D01*
X195876234Y-209177000D02*
X195304805Y-209177000D01*
X195590520Y-209177000D02*
X195590520Y-208177000D01*
X195495281Y-208319858D01*
X195400043Y-208415096D01*
X195304805Y-208462715D01*
X106576624Y-190127000D02*
X106576624Y-189127000D01*
X106909958Y-189841286D01*
X107243291Y-189127000D01*
X107243291Y-190127000D01*
X107624243Y-189127000D02*
X108290910Y-190127000D01*
X108290910Y-189127000D02*
X107624243Y-190127000D01*
X109100434Y-190127000D02*
X109100434Y-189603191D01*
X109052815Y-189507953D01*
X108957577Y-189460334D01*
X108767100Y-189460334D01*
X108671862Y-189507953D01*
X109100434Y-190079381D02*
X109005196Y-190127000D01*
X108767100Y-190127000D01*
X108671862Y-190079381D01*
X108624243Y-189984143D01*
X108624243Y-189888905D01*
X108671862Y-189793667D01*
X108767100Y-189746048D01*
X109005196Y-189746048D01*
X109100434Y-189698429D01*
X110100434Y-190127000D02*
X109529005Y-190127000D01*
X109814720Y-190127000D02*
X109814720Y-189127000D01*
X109719481Y-189269858D01*
X109624243Y-189365096D01*
X109529005Y-189412715D01*
X245205005Y-152027000D02*
X245205005Y-151027000D01*
X245538339Y-151741286D01*
X245871672Y-151027000D01*
X245871672Y-152027000D01*
X246252624Y-151027000D02*
X246919291Y-152027000D01*
X246919291Y-151027000D02*
X246252624Y-152027000D01*
X247347862Y-152027000D02*
X247538339Y-152027000D01*
X247633577Y-151979381D01*
X247681196Y-151931762D01*
X247776434Y-151788905D01*
X247824053Y-151598429D01*
X247824053Y-151217477D01*
X247776434Y-151122239D01*
X247728815Y-151074620D01*
X247633577Y-151027000D01*
X247443100Y-151027000D01*
X247347862Y-151074620D01*
X247300243Y-151122239D01*
X247252624Y-151217477D01*
X247252624Y-151455572D01*
X247300243Y-151550810D01*
X247347862Y-151598429D01*
X247443100Y-151646048D01*
X247633577Y-151646048D01*
X247728815Y-151598429D01*
X247776434Y-151550810D01*
X247824053Y-151455572D01*
X226155005Y-152027000D02*
X226155005Y-151027000D01*
X226488339Y-151741286D01*
X226821672Y-151027000D01*
X226821672Y-152027000D01*
X227202624Y-151027000D02*
X227869291Y-152027000D01*
X227869291Y-151027000D02*
X227202624Y-152027000D01*
X228393100Y-151455572D02*
X228297862Y-151407953D01*
X228250243Y-151360334D01*
X228202624Y-151265096D01*
X228202624Y-151217477D01*
X228250243Y-151122239D01*
X228297862Y-151074620D01*
X228393100Y-151027000D01*
X228583577Y-151027000D01*
X228678815Y-151074620D01*
X228726434Y-151122239D01*
X228774053Y-151217477D01*
X228774053Y-151265096D01*
X228726434Y-151360334D01*
X228678815Y-151407953D01*
X228583577Y-151455572D01*
X228393100Y-151455572D01*
X228297862Y-151503191D01*
X228250243Y-151550810D01*
X228202624Y-151646048D01*
X228202624Y-151836524D01*
X228250243Y-151931762D01*
X228297862Y-151979381D01*
X228393100Y-152027000D01*
X228583577Y-152027000D01*
X228678815Y-151979381D01*
X228726434Y-151931762D01*
X228774053Y-151836524D01*
X228774053Y-151646048D01*
X228726434Y-151550810D01*
X228678815Y-151503191D01*
X228583577Y-151455572D01*
X207105005Y-152027000D02*
X207105005Y-151027000D01*
X207438339Y-151741286D01*
X207771672Y-151027000D01*
X207771672Y-152027000D01*
X208152624Y-151027000D02*
X208819291Y-152027000D01*
X208819291Y-151027000D02*
X208152624Y-152027000D01*
X209105005Y-151027000D02*
X209771672Y-151027000D01*
X209343100Y-152027000D01*
X188055005Y-152027000D02*
X188055005Y-151027000D01*
X188388339Y-151741286D01*
X188721672Y-151027000D01*
X188721672Y-152027000D01*
X189102624Y-151027000D02*
X189769291Y-152027000D01*
X189769291Y-151027000D02*
X189102624Y-152027000D01*
X190578815Y-151027000D02*
X190388339Y-151027000D01*
X190293100Y-151074620D01*
X190245481Y-151122239D01*
X190150243Y-151265096D01*
X190102624Y-151455572D01*
X190102624Y-151836524D01*
X190150243Y-151931762D01*
X190197862Y-151979381D01*
X190293100Y-152027000D01*
X190483577Y-152027000D01*
X190578815Y-151979381D01*
X190626434Y-151931762D01*
X190674053Y-151836524D01*
X190674053Y-151598429D01*
X190626434Y-151503191D01*
X190578815Y-151455572D01*
X190483577Y-151407953D01*
X190293100Y-151407953D01*
X190197862Y-151455572D01*
X190150243Y-151503191D01*
X190102624Y-151598429D01*
X169005005Y-152027000D02*
X169005005Y-151027000D01*
X169338339Y-151741286D01*
X169671672Y-151027000D01*
X169671672Y-152027000D01*
X170052624Y-151027000D02*
X170719291Y-152027000D01*
X170719291Y-151027000D02*
X170052624Y-152027000D01*
X171576434Y-151027000D02*
X171100243Y-151027000D01*
X171052624Y-151503191D01*
X171100243Y-151455572D01*
X171195481Y-151407953D01*
X171433577Y-151407953D01*
X171528815Y-151455572D01*
X171576434Y-151503191D01*
X171624053Y-151598429D01*
X171624053Y-151836524D01*
X171576434Y-151931762D01*
X171528815Y-151979381D01*
X171433577Y-152027000D01*
X171195481Y-152027000D01*
X171100243Y-151979381D01*
X171052624Y-151931762D01*
X149955005Y-152027000D02*
X149955005Y-151027000D01*
X150288339Y-151741286D01*
X150621672Y-151027000D01*
X150621672Y-152027000D01*
X151002624Y-151027000D02*
X151669291Y-152027000D01*
X151669291Y-151027000D02*
X151002624Y-152027000D01*
X152478815Y-151360334D02*
X152478815Y-152027000D01*
X152240720Y-150979381D02*
X152002624Y-151693667D01*
X152621672Y-151693667D01*
X130905005Y-152027000D02*
X130905005Y-151027000D01*
X131238339Y-151741286D01*
X131571672Y-151027000D01*
X131571672Y-152027000D01*
X131952624Y-151027000D02*
X132619291Y-152027000D01*
X132619291Y-151027000D02*
X131952624Y-152027000D01*
X132905005Y-151027000D02*
X133524053Y-151027000D01*
X133190720Y-151407953D01*
X133333577Y-151407953D01*
X133428815Y-151455572D01*
X133476434Y-151503191D01*
X133524053Y-151598429D01*
X133524053Y-151836524D01*
X133476434Y-151931762D01*
X133428815Y-151979381D01*
X133333577Y-152027000D01*
X133047862Y-152027000D01*
X132952624Y-151979381D01*
X132905005Y-151931762D01*
X111855005Y-152027000D02*
X111855005Y-151027000D01*
X112188339Y-151741286D01*
X112521672Y-151027000D01*
X112521672Y-152027000D01*
X112902624Y-151027000D02*
X113569291Y-152027000D01*
X113569291Y-151027000D02*
X112902624Y-152027000D01*
X113902624Y-151122239D02*
X113950243Y-151074620D01*
X114045481Y-151027000D01*
X114283577Y-151027000D01*
X114378815Y-151074620D01*
X114426434Y-151122239D01*
X114474053Y-151217477D01*
X114474053Y-151312715D01*
X114426434Y-151455572D01*
X113855005Y-152027000D01*
X114474053Y-152027000D01*
X92754205Y-152027000D02*
X92754205Y-151027000D01*
X93087539Y-151741286D01*
X93420872Y-151027000D01*
X93420872Y-152027000D01*
X93801824Y-151027000D02*
X94468491Y-152027000D01*
X94468491Y-151027000D02*
X93801824Y-152027000D01*
X95373253Y-152027000D02*
X94801824Y-152027000D01*
X95087539Y-152027000D02*
X95087539Y-151027000D01*
X94992300Y-151169858D01*
X94897062Y-151265096D01*
X94801824Y-151312715D01*
X264255005Y-152027000D02*
X264255005Y-151027000D01*
X264588339Y-151741286D01*
X264921672Y-151027000D01*
X264921672Y-152027000D01*
X265302624Y-151027000D02*
X265969291Y-152027000D01*
X265969291Y-151027000D02*
X265302624Y-152027000D01*
X266540720Y-151027000D02*
X266635958Y-151027000D01*
X266731196Y-151074620D01*
X266778815Y-151122239D01*
X266826434Y-151217477D01*
X266874053Y-151407953D01*
X266874053Y-151646048D01*
X266826434Y-151836524D01*
X266778815Y-151931762D01*
X266731196Y-151979381D01*
X266635958Y-152027000D01*
X266540720Y-152027000D01*
X266445481Y-151979381D01*
X266397862Y-151931762D01*
X266350243Y-151836524D01*
X266302624Y-151646048D01*
X266302624Y-151407953D01*
X266350243Y-151217477D01*
X266397862Y-151122239D01*
X266445481Y-151074620D01*
X266540720Y-151027000D01*
X249883377Y-209177000D02*
X249407186Y-209177000D01*
X249407186Y-208177000D01*
X250073853Y-208510334D02*
X250454805Y-208510334D01*
X250216710Y-208177000D02*
X250216710Y-209034143D01*
X250264329Y-209129381D01*
X250359567Y-209177000D01*
X250454805Y-209177000D01*
X250788139Y-209177000D02*
X250788139Y-208177000D01*
X251216710Y-209177000D02*
X251216710Y-208653191D01*
X251169091Y-208557953D01*
X251073853Y-208510334D01*
X250930996Y-208510334D01*
X250835758Y-208557953D01*
X250788139Y-208605572D01*
X251692900Y-208510334D02*
X251692900Y-209177000D01*
X251692900Y-208605572D02*
X251740520Y-208557953D01*
X251835758Y-208510334D01*
X251978615Y-208510334D01*
X252073853Y-208557953D01*
X252121472Y-208653191D01*
X252121472Y-209177000D01*
X253121472Y-209177000D02*
X252550043Y-209177000D01*
X252835758Y-209177000D02*
X252835758Y-208177000D01*
X252740520Y-208319858D01*
X252645281Y-208415096D01*
X252550043Y-208462715D01*
X85307281Y-209177000D02*
X84831091Y-209177000D01*
X84831091Y-208177000D01*
X85592996Y-209129381D02*
X85688234Y-209177000D01*
X85878710Y-209177000D01*
X85973948Y-209129381D01*
X86021567Y-209034143D01*
X86021567Y-208986524D01*
X85973948Y-208891286D01*
X85878710Y-208843667D01*
X85735853Y-208843667D01*
X85640615Y-208796048D01*
X85592996Y-208700810D01*
X85592996Y-208653191D01*
X85640615Y-208557953D01*
X85735853Y-208510334D01*
X85878710Y-208510334D01*
X85973948Y-208557953D01*
X86450139Y-209177000D02*
X86450139Y-208177000D01*
X86878710Y-209177000D02*
X86878710Y-208653191D01*
X86831091Y-208557953D01*
X86735853Y-208510334D01*
X86592996Y-208510334D01*
X86497758Y-208557953D01*
X86450139Y-208605572D01*
X87212043Y-208510334D02*
X87592996Y-208510334D01*
X87354900Y-209177000D02*
X87354900Y-208319858D01*
X87402520Y-208224620D01*
X87497758Y-208177000D01*
X87592996Y-208177000D01*
X87783472Y-208510334D02*
X88164424Y-208510334D01*
X87926329Y-208177000D02*
X87926329Y-209034143D01*
X87973948Y-209129381D01*
X88069186Y-209177000D01*
X88164424Y-209177000D01*
X89021567Y-209177000D02*
X88450139Y-209177000D01*
X88735853Y-209177000D02*
X88735853Y-208177000D01*
X88640615Y-208319858D01*
X88545377Y-208415096D01*
X88450139Y-208462715D01*
X99900000Y-228227000D02*
X99423809Y-228227000D01*
X99423809Y-227227000D01*
X100661904Y-227560334D02*
X100661904Y-228369858D01*
X100614285Y-228465096D01*
X100566666Y-228512715D01*
X100471428Y-228560334D01*
X100328571Y-228560334D01*
X100233333Y-228512715D01*
X100661904Y-228179381D02*
X100566666Y-228227000D01*
X100376190Y-228227000D01*
X100280952Y-228179381D01*
X100233333Y-228131762D01*
X100185714Y-228036524D01*
X100185714Y-227750810D01*
X100233333Y-227655572D01*
X100280952Y-227607953D01*
X100376190Y-227560334D01*
X100566666Y-227560334D01*
X100661904Y-227607953D01*
X101566666Y-227560334D02*
X101566666Y-228227000D01*
X101138095Y-227560334D02*
X101138095Y-228084143D01*
X101185714Y-228179381D01*
X101280952Y-228227000D01*
X101423809Y-228227000D01*
X101519047Y-228179381D01*
X101566666Y-228131762D01*
X102042857Y-228227000D02*
X102042857Y-227560334D01*
X102042857Y-227227000D02*
X101995238Y-227274620D01*
X102042857Y-227322239D01*
X102090476Y-227274620D01*
X102042857Y-227227000D01*
X102042857Y-227322239D01*
X103042857Y-228227000D02*
X102471428Y-228227000D01*
X102757143Y-228227000D02*
X102757143Y-227227000D01*
X102661904Y-227369858D01*
X102566666Y-227465096D01*
X102471428Y-227512715D01*
X75925139Y-228227000D02*
X75448948Y-228227000D01*
X75448948Y-227227000D01*
X76687043Y-228179381D02*
X76591805Y-228227000D01*
X76401329Y-228227000D01*
X76306091Y-228179381D01*
X76258472Y-228131762D01*
X76210853Y-228036524D01*
X76210853Y-227750810D01*
X76258472Y-227655572D01*
X76306091Y-227607953D01*
X76401329Y-227560334D01*
X76591805Y-227560334D01*
X76687043Y-227607953D01*
X76972758Y-227560334D02*
X77353710Y-227560334D01*
X77115615Y-227227000D02*
X77115615Y-228084143D01*
X77163234Y-228179381D01*
X77258472Y-228227000D01*
X77353710Y-228227000D01*
X77687043Y-228227000D02*
X77687043Y-227560334D01*
X77687043Y-227750810D02*
X77734662Y-227655572D01*
X77782281Y-227607953D01*
X77877520Y-227560334D01*
X77972758Y-227560334D01*
X78448948Y-228227000D02*
X78353710Y-228179381D01*
X78306091Y-228084143D01*
X78306091Y-227227000D01*
X79353710Y-228227000D02*
X78782281Y-228227000D01*
X79067996Y-228227000D02*
X79067996Y-227227000D01*
X78972758Y-227369858D01*
X78877520Y-227465096D01*
X78782281Y-227512715D01*
X293110948Y-171077000D02*
X292634758Y-171077000D01*
X292634758Y-170077000D01*
X293444281Y-171077000D02*
X293444281Y-170077000D01*
X293444281Y-170457953D02*
X293539520Y-170410334D01*
X293729996Y-170410334D01*
X293825234Y-170457953D01*
X293872853Y-170505572D01*
X293920472Y-170600810D01*
X293920472Y-170886524D01*
X293872853Y-170981762D01*
X293825234Y-171029381D01*
X293729996Y-171077000D01*
X293539520Y-171077000D01*
X293444281Y-171029381D01*
X294349043Y-171077000D02*
X294349043Y-170410334D01*
X294349043Y-170600810D02*
X294396662Y-170505572D01*
X294444281Y-170457953D01*
X294539520Y-170410334D01*
X294634758Y-170410334D01*
X295491900Y-171077000D02*
X294920472Y-171077000D01*
X295206186Y-171077000D02*
X295206186Y-170077000D01*
X295110948Y-170219858D01*
X295015710Y-170315096D01*
X294920472Y-170362715D01*
X123850461Y-228236607D02*
X123374270Y-228236607D01*
X123374270Y-227236607D01*
X124612366Y-228236607D02*
X124612366Y-227712798D01*
X124564747Y-227617560D01*
X124469508Y-227569941D01*
X124279032Y-227569941D01*
X124183794Y-227617560D01*
X124612366Y-228188988D02*
X124517128Y-228236607D01*
X124279032Y-228236607D01*
X124183794Y-228188988D01*
X124136175Y-228093750D01*
X124136175Y-227998512D01*
X124183794Y-227903274D01*
X124279032Y-227855655D01*
X124517128Y-227855655D01*
X124612366Y-227808036D01*
X125231413Y-228236607D02*
X125136175Y-228188988D01*
X125088556Y-228093750D01*
X125088556Y-227236607D01*
X125469508Y-227569941D02*
X125850461Y-227569941D01*
X125612366Y-227236607D02*
X125612366Y-228093750D01*
X125659985Y-228188988D01*
X125755223Y-228236607D01*
X125850461Y-228236607D01*
X126707604Y-228236607D02*
X126136175Y-228236607D01*
X126421889Y-228236607D02*
X126421889Y-227236607D01*
X126326651Y-227379465D01*
X126231413Y-227474703D01*
X126136175Y-227522322D01*
X282543100Y-152027000D02*
X282543100Y-151027000D01*
X282543100Y-151503191D02*
X283114529Y-151503191D01*
X283114529Y-152027000D02*
X283114529Y-151027000D01*
X283495481Y-151360334D02*
X283733577Y-152027000D01*
X283971672Y-151360334D02*
X283733577Y-152027000D01*
X283638339Y-152265096D01*
X283590720Y-152312715D01*
X283495481Y-152360334D01*
X284352624Y-151360334D02*
X284352624Y-152360334D01*
X284352624Y-151407953D02*
X284447862Y-151360334D01*
X284638339Y-151360334D01*
X284733577Y-151407953D01*
X284781196Y-151455572D01*
X284828815Y-151550810D01*
X284828815Y-151836524D01*
X284781196Y-151931762D01*
X284733577Y-151979381D01*
X284638339Y-152027000D01*
X284447862Y-152027000D01*
X284352624Y-151979381D01*
X285257386Y-152027000D02*
X285257386Y-151027000D01*
X285685958Y-152027000D02*
X285685958Y-151503191D01*
X285638339Y-151407953D01*
X285543100Y-151360334D01*
X285400243Y-151360334D01*
X285305005Y-151407953D01*
X285257386Y-151455572D01*
X286685958Y-152027000D02*
X286114529Y-152027000D01*
X286400243Y-152027000D02*
X286400243Y-151027000D01*
X286305005Y-151169858D01*
X286209767Y-151265096D01*
X286114529Y-151312715D01*
X358531996Y-152027000D02*
X358531996Y-151027000D01*
X358531996Y-151503191D02*
X359103424Y-151503191D01*
X359103424Y-152027000D02*
X359103424Y-151027000D01*
X359722472Y-152027000D02*
X359627234Y-151979381D01*
X359579615Y-151931762D01*
X359531996Y-151836524D01*
X359531996Y-151550810D01*
X359579615Y-151455572D01*
X359627234Y-151407953D01*
X359722472Y-151360334D01*
X359865329Y-151360334D01*
X359960567Y-151407953D01*
X360008186Y-151455572D01*
X360055805Y-151550810D01*
X360055805Y-151836524D01*
X360008186Y-151931762D01*
X359960567Y-151979381D01*
X359865329Y-152027000D01*
X359722472Y-152027000D01*
X360484377Y-152027000D02*
X360484377Y-151360334D01*
X360484377Y-151455572D02*
X360531996Y-151407953D01*
X360627234Y-151360334D01*
X360770091Y-151360334D01*
X360865329Y-151407953D01*
X360912948Y-151503191D01*
X360912948Y-152027000D01*
X360912948Y-151503191D02*
X360960567Y-151407953D01*
X361055805Y-151360334D01*
X361198662Y-151360334D01*
X361293900Y-151407953D01*
X361341520Y-151503191D01*
X361341520Y-152027000D01*
X362198662Y-151979381D02*
X362103424Y-152027000D01*
X361912948Y-152027000D01*
X361817710Y-151979381D01*
X361770091Y-151884143D01*
X361770091Y-151503191D01*
X361817710Y-151407953D01*
X361912948Y-151360334D01*
X362103424Y-151360334D01*
X362198662Y-151407953D01*
X362246281Y-151503191D01*
X362246281Y-151598429D01*
X361770091Y-151693667D01*
X363198662Y-152027000D02*
X362627234Y-152027000D01*
X362912948Y-152027000D02*
X362912948Y-151027000D01*
X362817710Y-151169858D01*
X362722472Y-151265096D01*
X362627234Y-151312715D01*
X268885758Y-208224620D02*
X268790520Y-208177000D01*
X268647662Y-208177000D01*
X268504805Y-208224620D01*
X268409567Y-208319858D01*
X268361948Y-208415096D01*
X268314329Y-208605572D01*
X268314329Y-208748429D01*
X268361948Y-208938905D01*
X268409567Y-209034143D01*
X268504805Y-209129381D01*
X268647662Y-209177000D01*
X268742900Y-209177000D01*
X268885758Y-209129381D01*
X268933377Y-209081762D01*
X268933377Y-208748429D01*
X268742900Y-208748429D01*
X269219091Y-208510334D02*
X269600043Y-208510334D01*
X269361948Y-208177000D02*
X269361948Y-209034143D01*
X269409567Y-209129381D01*
X269504805Y-209177000D01*
X269600043Y-209177000D01*
X269933377Y-209177000D02*
X269933377Y-208177000D01*
X270361948Y-209177000D02*
X270361948Y-208653191D01*
X270314329Y-208557953D01*
X270219091Y-208510334D01*
X270076234Y-208510334D01*
X269980996Y-208557953D01*
X269933377Y-208605572D01*
X270838139Y-208510334D02*
X270838139Y-209177000D01*
X270838139Y-208605572D02*
X270885758Y-208557953D01*
X270980996Y-208510334D01*
X271123853Y-208510334D01*
X271219091Y-208557953D01*
X271266710Y-208653191D01*
X271266710Y-209177000D01*
X272266710Y-209177000D02*
X271695281Y-209177000D01*
X271980996Y-209177000D02*
X271980996Y-208177000D01*
X271885758Y-208319858D01*
X271790520Y-208415096D01*
X271695281Y-208462715D01*
X283141520Y-227703191D02*
X282808186Y-227703191D01*
X282808186Y-228227000D02*
X282808186Y-227227000D01*
X283284377Y-227227000D01*
X283665329Y-227560334D02*
X283665329Y-228227000D01*
X283665329Y-227655572D02*
X283712948Y-227607953D01*
X283808186Y-227560334D01*
X283951043Y-227560334D01*
X284046281Y-227607953D01*
X284093900Y-227703191D01*
X284093900Y-228227000D01*
X284998662Y-228179381D02*
X284903424Y-228227000D01*
X284712948Y-228227000D01*
X284617710Y-228179381D01*
X284570091Y-228131762D01*
X284522472Y-228036524D01*
X284522472Y-227750810D01*
X284570091Y-227655572D01*
X284617710Y-227607953D01*
X284712948Y-227560334D01*
X284903424Y-227560334D01*
X284998662Y-227607953D01*
X285284377Y-227560334D02*
X285665329Y-227560334D01*
X285427234Y-227227000D02*
X285427234Y-228084143D01*
X285474853Y-228179381D01*
X285570091Y-228227000D01*
X285665329Y-228227000D01*
X286522472Y-228227000D02*
X285951043Y-228227000D01*
X286236758Y-228227000D02*
X286236758Y-227227000D01*
X286141520Y-227369858D01*
X286046281Y-227465096D01*
X285951043Y-227512715D01*
X302831196Y-132453191D02*
X302497862Y-132453191D01*
X302497862Y-132977000D02*
X302497862Y-131977000D01*
X302974053Y-131977000D01*
X303878815Y-132977000D02*
X303307386Y-132977000D01*
X303593100Y-132977000D02*
X303593100Y-131977000D01*
X303497862Y-132119858D01*
X303402624Y-132215096D01*
X303307386Y-132262715D01*
X304259767Y-132072239D02*
X304307386Y-132024620D01*
X304402624Y-131977000D01*
X304640720Y-131977000D01*
X304735958Y-132024620D01*
X304783577Y-132072239D01*
X304831196Y-132167477D01*
X304831196Y-132262715D01*
X304783577Y-132405572D01*
X304212148Y-132977000D01*
X304831196Y-132977000D01*
X263350243Y-132977000D02*
X263350243Y-131977000D01*
X263683577Y-132691286D01*
X264016910Y-131977000D01*
X264016910Y-132977000D01*
X264397862Y-131977000D02*
X265064529Y-132977000D01*
X265064529Y-131977000D02*
X264397862Y-132977000D01*
X265778815Y-132453191D02*
X265445481Y-132453191D01*
X265445481Y-132977000D02*
X265445481Y-131977000D01*
X265921672Y-131977000D01*
X266826434Y-132977000D02*
X266255005Y-132977000D01*
X266540720Y-132977000D02*
X266540720Y-131977000D01*
X266445481Y-132119858D01*
X266350243Y-132215096D01*
X266255005Y-132262715D01*
X267445481Y-131977000D02*
X267540720Y-131977000D01*
X267635958Y-132024620D01*
X267683577Y-132072239D01*
X267731196Y-132167477D01*
X267778815Y-132357953D01*
X267778815Y-132596048D01*
X267731196Y-132786524D01*
X267683577Y-132881762D01*
X267635958Y-132929381D01*
X267540720Y-132977000D01*
X267445481Y-132977000D01*
X267350243Y-132929381D01*
X267302624Y-132881762D01*
X267255005Y-132786524D01*
X267207386Y-132596048D01*
X267207386Y-132357953D01*
X267255005Y-132167477D01*
X267302624Y-132072239D01*
X267350243Y-132024620D01*
X267445481Y-131977000D01*
X244776434Y-132977000D02*
X244776434Y-131977000D01*
X245109767Y-132691286D01*
X245443100Y-131977000D01*
X245443100Y-132977000D01*
X245824053Y-131977000D02*
X246490720Y-132977000D01*
X246490720Y-131977000D02*
X245824053Y-132977000D01*
X247205005Y-132453191D02*
X246871672Y-132453191D01*
X246871672Y-132977000D02*
X246871672Y-131977000D01*
X247347862Y-131977000D01*
X247776434Y-132977000D02*
X247966910Y-132977000D01*
X248062148Y-132929381D01*
X248109767Y-132881762D01*
X248205005Y-132738905D01*
X248252624Y-132548429D01*
X248252624Y-132167477D01*
X248205005Y-132072239D01*
X248157386Y-132024620D01*
X248062148Y-131977000D01*
X247871672Y-131977000D01*
X247776434Y-132024620D01*
X247728815Y-132072239D01*
X247681196Y-132167477D01*
X247681196Y-132405572D01*
X247728815Y-132500810D01*
X247776434Y-132548429D01*
X247871672Y-132596048D01*
X248062148Y-132596048D01*
X248157386Y-132548429D01*
X248205005Y-132500810D01*
X248252624Y-132405572D01*
X225726434Y-132977000D02*
X225726434Y-131977000D01*
X226059767Y-132691286D01*
X226393100Y-131977000D01*
X226393100Y-132977000D01*
X226774053Y-131977000D02*
X227440720Y-132977000D01*
X227440720Y-131977000D02*
X226774053Y-132977000D01*
X228155005Y-132453191D02*
X227821672Y-132453191D01*
X227821672Y-132977000D02*
X227821672Y-131977000D01*
X228297862Y-131977000D01*
X228821672Y-132405572D02*
X228726434Y-132357953D01*
X228678815Y-132310334D01*
X228631196Y-132215096D01*
X228631196Y-132167477D01*
X228678815Y-132072239D01*
X228726434Y-132024620D01*
X228821672Y-131977000D01*
X229012148Y-131977000D01*
X229107386Y-132024620D01*
X229155005Y-132072239D01*
X229202624Y-132167477D01*
X229202624Y-132215096D01*
X229155005Y-132310334D01*
X229107386Y-132357953D01*
X229012148Y-132405572D01*
X228821672Y-132405572D01*
X228726434Y-132453191D01*
X228678815Y-132500810D01*
X228631196Y-132596048D01*
X228631196Y-132786524D01*
X228678815Y-132881762D01*
X228726434Y-132929381D01*
X228821672Y-132977000D01*
X229012148Y-132977000D01*
X229107386Y-132929381D01*
X229155005Y-132881762D01*
X229202624Y-132786524D01*
X229202624Y-132596048D01*
X229155005Y-132500810D01*
X229107386Y-132453191D01*
X229012148Y-132405572D01*
X206676434Y-132977000D02*
X206676434Y-131977000D01*
X207009767Y-132691286D01*
X207343100Y-131977000D01*
X207343100Y-132977000D01*
X207724053Y-131977000D02*
X208390720Y-132977000D01*
X208390720Y-131977000D02*
X207724053Y-132977000D01*
X209105005Y-132453191D02*
X208771672Y-132453191D01*
X208771672Y-132977000D02*
X208771672Y-131977000D01*
X209247862Y-131977000D01*
X209533577Y-131977000D02*
X210200243Y-131977000D01*
X209771672Y-132977000D01*
X187626434Y-132977000D02*
X187626434Y-131977000D01*
X187959767Y-132691286D01*
X188293100Y-131977000D01*
X188293100Y-132977000D01*
X188674053Y-131977000D02*
X189340720Y-132977000D01*
X189340720Y-131977000D02*
X188674053Y-132977000D01*
X190055005Y-132453191D02*
X189721672Y-132453191D01*
X189721672Y-132977000D02*
X189721672Y-131977000D01*
X190197862Y-131977000D01*
X191007386Y-131977000D02*
X190816910Y-131977000D01*
X190721672Y-132024620D01*
X190674053Y-132072239D01*
X190578815Y-132215096D01*
X190531196Y-132405572D01*
X190531196Y-132786524D01*
X190578815Y-132881762D01*
X190626434Y-132929381D01*
X190721672Y-132977000D01*
X190912148Y-132977000D01*
X191007386Y-132929381D01*
X191055005Y-132881762D01*
X191102624Y-132786524D01*
X191102624Y-132548429D01*
X191055005Y-132453191D01*
X191007386Y-132405572D01*
X190912148Y-132357953D01*
X190721672Y-132357953D01*
X190626434Y-132405572D01*
X190578815Y-132453191D01*
X190531196Y-132548429D01*
X168576434Y-132977000D02*
X168576434Y-131977000D01*
X168909767Y-132691286D01*
X169243100Y-131977000D01*
X169243100Y-132977000D01*
X169624053Y-131977000D02*
X170290720Y-132977000D01*
X170290720Y-131977000D02*
X169624053Y-132977000D01*
X171005005Y-132453191D02*
X170671672Y-132453191D01*
X170671672Y-132977000D02*
X170671672Y-131977000D01*
X171147862Y-131977000D01*
X172005005Y-131977000D02*
X171528815Y-131977000D01*
X171481196Y-132453191D01*
X171528815Y-132405572D01*
X171624053Y-132357953D01*
X171862148Y-132357953D01*
X171957386Y-132405572D01*
X172005005Y-132453191D01*
X172052624Y-132548429D01*
X172052624Y-132786524D01*
X172005005Y-132881762D01*
X171957386Y-132929381D01*
X171862148Y-132977000D01*
X171624053Y-132977000D01*
X171528815Y-132929381D01*
X171481196Y-132881762D01*
X149526434Y-132977000D02*
X149526434Y-131977000D01*
X149859767Y-132691286D01*
X150193100Y-131977000D01*
X150193100Y-132977000D01*
X150574053Y-131977000D02*
X151240720Y-132977000D01*
X151240720Y-131977000D02*
X150574053Y-132977000D01*
X151955005Y-132453191D02*
X151621672Y-132453191D01*
X151621672Y-132977000D02*
X151621672Y-131977000D01*
X152097862Y-131977000D01*
X152907386Y-132310334D02*
X152907386Y-132977000D01*
X152669291Y-131929381D02*
X152431196Y-132643667D01*
X153050243Y-132643667D01*
X130476434Y-132977000D02*
X130476434Y-131977000D01*
X130809767Y-132691286D01*
X131143100Y-131977000D01*
X131143100Y-132977000D01*
X131524053Y-131977000D02*
X132190720Y-132977000D01*
X132190720Y-131977000D02*
X131524053Y-132977000D01*
X132905005Y-132453191D02*
X132571672Y-132453191D01*
X132571672Y-132977000D02*
X132571672Y-131977000D01*
X133047862Y-131977000D01*
X133333577Y-131977000D02*
X133952624Y-131977000D01*
X133619291Y-132357953D01*
X133762148Y-132357953D01*
X133857386Y-132405572D01*
X133905005Y-132453191D01*
X133952624Y-132548429D01*
X133952624Y-132786524D01*
X133905005Y-132881762D01*
X133857386Y-132929381D01*
X133762148Y-132977000D01*
X133476434Y-132977000D01*
X133381196Y-132929381D01*
X133333577Y-132881762D01*
X111375634Y-132977000D02*
X111375634Y-131977000D01*
X111708967Y-132691286D01*
X112042300Y-131977000D01*
X112042300Y-132977000D01*
X112423253Y-131977000D02*
X113089920Y-132977000D01*
X113089920Y-131977000D02*
X112423253Y-132977000D01*
X113804205Y-132453191D02*
X113470872Y-132453191D01*
X113470872Y-132977000D02*
X113470872Y-131977000D01*
X113947062Y-131977000D01*
X114280396Y-132072239D02*
X114328015Y-132024620D01*
X114423253Y-131977000D01*
X114661348Y-131977000D01*
X114756586Y-132024620D01*
X114804205Y-132072239D01*
X114851824Y-132167477D01*
X114851824Y-132262715D01*
X114804205Y-132405572D01*
X114232777Y-132977000D01*
X114851824Y-132977000D01*
X92325634Y-132977000D02*
X92325634Y-131977000D01*
X92658967Y-132691286D01*
X92992300Y-131977000D01*
X92992300Y-132977000D01*
X93373253Y-131977000D02*
X94039920Y-132977000D01*
X94039920Y-131977000D02*
X93373253Y-132977000D01*
X94754205Y-132453191D02*
X94420872Y-132453191D01*
X94420872Y-132977000D02*
X94420872Y-131977000D01*
X94897062Y-131977000D01*
X95801824Y-132977000D02*
X95230396Y-132977000D01*
X95516110Y-132977000D02*
X95516110Y-131977000D01*
X95420872Y-132119858D01*
X95325634Y-132215096D01*
X95230396Y-132262715D01*
X73466110Y-132453191D02*
X73799443Y-132453191D01*
X73942300Y-132977000D02*
X73466110Y-132977000D01*
X73466110Y-131977000D01*
X73942300Y-131977000D01*
X74323253Y-132929381D02*
X74418491Y-132977000D01*
X74608967Y-132977000D01*
X74704205Y-132929381D01*
X74751824Y-132834143D01*
X74751824Y-132786524D01*
X74704205Y-132691286D01*
X74608967Y-132643667D01*
X74466110Y-132643667D01*
X74370872Y-132596048D01*
X74323253Y-132500810D01*
X74323253Y-132453191D01*
X74370872Y-132357953D01*
X74466110Y-132310334D01*
X74608967Y-132310334D01*
X74704205Y-132357953D01*
X75608967Y-132929381D02*
X75513729Y-132977000D01*
X75323253Y-132977000D01*
X75228015Y-132929381D01*
X75180396Y-132881762D01*
X75132777Y-132786524D01*
X75132777Y-132500810D01*
X75180396Y-132405572D01*
X75228015Y-132357953D01*
X75323253Y-132310334D01*
X75513729Y-132310334D01*
X75608967Y-132357953D01*
X76561348Y-132977000D02*
X75989920Y-132977000D01*
X76275634Y-132977000D02*
X76275634Y-131977000D01*
X76180396Y-132119858D01*
X76085158Y-132215096D01*
X75989920Y-132262715D01*
X328064624Y-189603191D02*
X328397958Y-189603191D01*
X328540815Y-190127000D02*
X328064624Y-190127000D01*
X328064624Y-189127000D01*
X328540815Y-189127000D01*
X328969386Y-189460334D02*
X328969386Y-190127000D01*
X328969386Y-189555572D02*
X329017005Y-189507953D01*
X329112243Y-189460334D01*
X329255100Y-189460334D01*
X329350339Y-189507953D01*
X329397958Y-189603191D01*
X329397958Y-190127000D01*
X329731291Y-189460334D02*
X330112243Y-189460334D01*
X329874148Y-189127000D02*
X329874148Y-189984143D01*
X329921767Y-190079381D01*
X330017005Y-190127000D01*
X330112243Y-190127000D01*
X330445577Y-190127000D02*
X330445577Y-189460334D01*
X330445577Y-189650810D02*
X330493196Y-189555572D01*
X330540815Y-189507953D01*
X330636053Y-189460334D01*
X330731291Y-189460334D01*
X331588434Y-190127000D02*
X331017005Y-190127000D01*
X331302720Y-190127000D02*
X331302720Y-189127000D01*
X331207481Y-189269858D01*
X331112243Y-189365096D01*
X331017005Y-189412715D01*
X359246281Y-208653191D02*
X359579615Y-208653191D01*
X359722472Y-209177000D02*
X359246281Y-209177000D01*
X359246281Y-208177000D01*
X359722472Y-208177000D01*
X360151043Y-208510334D02*
X360151043Y-209177000D01*
X360151043Y-208605572D02*
X360198662Y-208557953D01*
X360293900Y-208510334D01*
X360436758Y-208510334D01*
X360531996Y-208557953D01*
X360579615Y-208653191D01*
X360579615Y-209177000D01*
X361484377Y-209177000D02*
X361484377Y-208177000D01*
X361484377Y-209129381D02*
X361389139Y-209177000D01*
X361198662Y-209177000D01*
X361103424Y-209129381D01*
X361055805Y-209081762D01*
X361008186Y-208986524D01*
X361008186Y-208700810D01*
X361055805Y-208605572D01*
X361103424Y-208557953D01*
X361198662Y-208510334D01*
X361389139Y-208510334D01*
X361484377Y-208557953D01*
X362484377Y-209177000D02*
X361912948Y-209177000D01*
X362198662Y-209177000D02*
X362198662Y-208177000D01*
X362103424Y-208319858D01*
X362008186Y-208415096D01*
X361912948Y-208462715D01*
X358270091Y-132977000D02*
X358270091Y-131977000D01*
X358508186Y-131977000D01*
X358651043Y-132024620D01*
X358746281Y-132119858D01*
X358793900Y-132215096D01*
X358841520Y-132405572D01*
X358841520Y-132548429D01*
X358793900Y-132738905D01*
X358746281Y-132834143D01*
X358651043Y-132929381D01*
X358508186Y-132977000D01*
X358270091Y-132977000D01*
X359651043Y-132929381D02*
X359555805Y-132977000D01*
X359365329Y-132977000D01*
X359270091Y-132929381D01*
X359222472Y-132834143D01*
X359222472Y-132453191D01*
X359270091Y-132357953D01*
X359365329Y-132310334D01*
X359555805Y-132310334D01*
X359651043Y-132357953D01*
X359698662Y-132453191D01*
X359698662Y-132548429D01*
X359222472Y-132643667D01*
X360270091Y-132977000D02*
X360174853Y-132929381D01*
X360127234Y-132834143D01*
X360127234Y-131977000D01*
X361031996Y-132929381D02*
X360936758Y-132977000D01*
X360746281Y-132977000D01*
X360651043Y-132929381D01*
X360603424Y-132834143D01*
X360603424Y-132453191D01*
X360651043Y-132357953D01*
X360746281Y-132310334D01*
X360936758Y-132310334D01*
X361031996Y-132357953D01*
X361079615Y-132453191D01*
X361079615Y-132548429D01*
X360603424Y-132643667D01*
X361365329Y-132310334D02*
X361746281Y-132310334D01*
X361508186Y-131977000D02*
X361508186Y-132834143D01*
X361555805Y-132929381D01*
X361651043Y-132977000D01*
X361746281Y-132977000D01*
X362460567Y-132929381D02*
X362365329Y-132977000D01*
X362174853Y-132977000D01*
X362079615Y-132929381D01*
X362031996Y-132834143D01*
X362031996Y-132453191D01*
X362079615Y-132357953D01*
X362174853Y-132310334D01*
X362365329Y-132310334D01*
X362460567Y-132357953D01*
X362508186Y-132453191D01*
X362508186Y-132548429D01*
X362031996Y-132643667D01*
X363460567Y-132977000D02*
X362889139Y-132977000D01*
X363174853Y-132977000D02*
X363174853Y-131977000D01*
X363079615Y-132119858D01*
X362984377Y-132215096D01*
X362889139Y-132262715D01*
X80282877Y-190031762D02*
X80235258Y-190079381D01*
X80092400Y-190127000D01*
X79997162Y-190127000D01*
X79854305Y-190079381D01*
X79759067Y-189984143D01*
X79711448Y-189888905D01*
X79663829Y-189698429D01*
X79663829Y-189555572D01*
X79711448Y-189365096D01*
X79759067Y-189269858D01*
X79854305Y-189174620D01*
X79997162Y-189127000D01*
X80092400Y-189127000D01*
X80235258Y-189174620D01*
X80282877Y-189222239D01*
X80711448Y-189460334D02*
X80711448Y-190460334D01*
X80711448Y-189507953D02*
X80806686Y-189460334D01*
X80997162Y-189460334D01*
X81092400Y-189507953D01*
X81140020Y-189555572D01*
X81187639Y-189650810D01*
X81187639Y-189936524D01*
X81140020Y-190031762D01*
X81092400Y-190079381D01*
X80997162Y-190127000D01*
X80806686Y-190127000D01*
X80711448Y-190079381D01*
X82092400Y-190127000D02*
X81616210Y-190127000D01*
X81616210Y-189127000D01*
X82854305Y-190079381D02*
X82759067Y-190127000D01*
X82568591Y-190127000D01*
X82473353Y-190079381D01*
X82425734Y-190031762D01*
X82378115Y-189936524D01*
X82378115Y-189650810D01*
X82425734Y-189555572D01*
X82473353Y-189507953D01*
X82568591Y-189460334D01*
X82759067Y-189460334D01*
X82854305Y-189507953D01*
X83282877Y-190127000D02*
X83282877Y-189127000D01*
X83378115Y-189746048D02*
X83663829Y-190127000D01*
X83663829Y-189460334D02*
X83282877Y-189841286D01*
X84616210Y-190127000D02*
X84044781Y-190127000D01*
X84330496Y-190127000D02*
X84330496Y-189127000D01*
X84235258Y-189269858D01*
X84140020Y-189365096D01*
X84044781Y-189412715D01*
X278883767Y-190031762D02*
X278836148Y-190079381D01*
X278693291Y-190127000D01*
X278598053Y-190127000D01*
X278455196Y-190079381D01*
X278359958Y-189984143D01*
X278312339Y-189888905D01*
X278264720Y-189698429D01*
X278264720Y-189555572D01*
X278312339Y-189365096D01*
X278359958Y-189269858D01*
X278455196Y-189174620D01*
X278598053Y-189127000D01*
X278693291Y-189127000D01*
X278836148Y-189174620D01*
X278883767Y-189222239D01*
X279455196Y-190127000D02*
X279359958Y-190079381D01*
X279312339Y-190031762D01*
X279264720Y-189936524D01*
X279264720Y-189650810D01*
X279312339Y-189555572D01*
X279359958Y-189507953D01*
X279455196Y-189460334D01*
X279598053Y-189460334D01*
X279693291Y-189507953D01*
X279740910Y-189555572D01*
X279788529Y-189650810D01*
X279788529Y-189936524D01*
X279740910Y-190031762D01*
X279693291Y-190079381D01*
X279598053Y-190127000D01*
X279455196Y-190127000D01*
X280359958Y-190127000D02*
X280264720Y-190079381D01*
X280217100Y-189984143D01*
X280217100Y-189127000D01*
X281264720Y-190127000D02*
X280693291Y-190127000D01*
X280979005Y-190127000D02*
X280979005Y-189127000D01*
X280883767Y-189269858D01*
X280788529Y-189365096D01*
X280693291Y-189412715D01*
X329598262Y-151503191D02*
X329741120Y-151550810D01*
X329788739Y-151598429D01*
X329836358Y-151693667D01*
X329836358Y-151836524D01*
X329788739Y-151931762D01*
X329741120Y-151979381D01*
X329645881Y-152027000D01*
X329264929Y-152027000D01*
X329264929Y-151027000D01*
X329598262Y-151027000D01*
X329693500Y-151074620D01*
X329741120Y-151122239D01*
X329788739Y-151217477D01*
X329788739Y-151312715D01*
X329741120Y-151407953D01*
X329693500Y-151455572D01*
X329598262Y-151503191D01*
X329264929Y-151503191D01*
X330217310Y-151979381D02*
X330360167Y-152027000D01*
X330598262Y-152027000D01*
X330693500Y-151979381D01*
X330741120Y-151931762D01*
X330788739Y-151836524D01*
X330788739Y-151741286D01*
X330741120Y-151646048D01*
X330693500Y-151598429D01*
X330598262Y-151550810D01*
X330407786Y-151503191D01*
X330312548Y-151455572D01*
X330264929Y-151407953D01*
X330217310Y-151312715D01*
X330217310Y-151217477D01*
X330264929Y-151122239D01*
X330312548Y-151074620D01*
X330407786Y-151027000D01*
X330645881Y-151027000D01*
X330788739Y-151074620D01*
X331217310Y-151360334D02*
X331217310Y-152360334D01*
X331217310Y-151407953D02*
X331312548Y-151360334D01*
X331503024Y-151360334D01*
X331598262Y-151407953D01*
X331645881Y-151455572D01*
X331693500Y-151550810D01*
X331693500Y-151836524D01*
X331645881Y-151931762D01*
X331598262Y-151979381D01*
X331503024Y-152027000D01*
X331312548Y-152027000D01*
X331217310Y-151979381D01*
X332550643Y-152027000D02*
X332550643Y-151503191D01*
X332503024Y-151407953D01*
X332407786Y-151360334D01*
X332217310Y-151360334D01*
X332122072Y-151407953D01*
X332550643Y-151979381D02*
X332455405Y-152027000D01*
X332217310Y-152027000D01*
X332122072Y-151979381D01*
X332074453Y-151884143D01*
X332074453Y-151788905D01*
X332122072Y-151693667D01*
X332217310Y-151646048D01*
X332455405Y-151646048D01*
X332550643Y-151598429D01*
X333455405Y-151979381D02*
X333360167Y-152027000D01*
X333169691Y-152027000D01*
X333074453Y-151979381D01*
X333026834Y-151931762D01*
X332979215Y-151836524D01*
X332979215Y-151550810D01*
X333026834Y-151455572D01*
X333074453Y-151407953D01*
X333169691Y-151360334D01*
X333360167Y-151360334D01*
X333455405Y-151407953D01*
X334264929Y-151979381D02*
X334169691Y-152027000D01*
X333979215Y-152027000D01*
X333883977Y-151979381D01*
X333836358Y-151884143D01*
X333836358Y-151503191D01*
X333883977Y-151407953D01*
X333979215Y-151360334D01*
X334169691Y-151360334D01*
X334264929Y-151407953D01*
X334312548Y-151503191D01*
X334312548Y-151598429D01*
X333836358Y-151693667D01*
X335264929Y-152027000D02*
X334693500Y-152027000D01*
X334979215Y-152027000D02*
X334979215Y-151027000D01*
X334883977Y-151169858D01*
X334788739Y-151265096D01*
X334693500Y-151312715D01*
X340172472Y-208891286D02*
X340648662Y-208891286D01*
X340077234Y-209177000D02*
X340410567Y-208177000D01*
X340743900Y-209177000D01*
X341505805Y-208510334D02*
X341505805Y-209177000D01*
X341077234Y-208510334D02*
X341077234Y-209034143D01*
X341124853Y-209129381D01*
X341220091Y-209177000D01*
X341362948Y-209177000D01*
X341458186Y-209129381D01*
X341505805Y-209081762D01*
X341981996Y-208510334D02*
X341981996Y-209510334D01*
X341981996Y-208557953D02*
X342077234Y-208510334D01*
X342267710Y-208510334D01*
X342362948Y-208557953D01*
X342410567Y-208605572D01*
X342458186Y-208700810D01*
X342458186Y-208986524D01*
X342410567Y-209081762D01*
X342362948Y-209129381D01*
X342267710Y-209177000D01*
X342077234Y-209177000D01*
X341981996Y-209129381D01*
X343410567Y-209177000D02*
X342839139Y-209177000D01*
X343124853Y-209177000D02*
X343124853Y-208177000D01*
X343029615Y-208319858D01*
X342934377Y-208415096D01*
X342839139Y-208462715D01*
X358627234Y-227941286D02*
X359103424Y-227941286D01*
X358531996Y-228227000D02*
X358865329Y-227227000D01*
X359198662Y-228227000D01*
X359531996Y-228227000D02*
X359531996Y-227560334D01*
X359531996Y-227750810D02*
X359579615Y-227655572D01*
X359627234Y-227607953D01*
X359722472Y-227560334D01*
X359817710Y-227560334D01*
X360579615Y-227560334D02*
X360579615Y-228369858D01*
X360531996Y-228465096D01*
X360484377Y-228512715D01*
X360389139Y-228560334D01*
X360246281Y-228560334D01*
X360151043Y-228512715D01*
X360579615Y-228179381D02*
X360484377Y-228227000D01*
X360293900Y-228227000D01*
X360198662Y-228179381D01*
X360151043Y-228131762D01*
X360103424Y-228036524D01*
X360103424Y-227750810D01*
X360151043Y-227655572D01*
X360198662Y-227607953D01*
X360293900Y-227560334D01*
X360484377Y-227560334D01*
X360579615Y-227607953D01*
X361055805Y-228227000D02*
X361055805Y-227227000D01*
X361484377Y-228227000D02*
X361484377Y-227703191D01*
X361436758Y-227607953D01*
X361341520Y-227560334D01*
X361198662Y-227560334D01*
X361103424Y-227607953D01*
X361055805Y-227655572D01*
X361817710Y-227560334D02*
X362198662Y-227560334D01*
X361960567Y-227227000D02*
X361960567Y-228084143D01*
X362008186Y-228179381D01*
X362103424Y-228227000D01*
X362198662Y-228227000D01*
X363055805Y-228227000D02*
X362484377Y-228227000D01*
X362770091Y-228227000D02*
X362770091Y-227227000D01*
X362674853Y-227369858D01*
X362579615Y-227465096D01*
X362484377Y-227512715D01*
X320765329Y-227941286D02*
X321241520Y-227941286D01*
X320670091Y-228227000D02*
X321003424Y-227227000D01*
X321336758Y-228227000D01*
X321812948Y-228227000D02*
X321717710Y-228179381D01*
X321670091Y-228084143D01*
X321670091Y-227227000D01*
X322574853Y-228179381D02*
X322479615Y-228227000D01*
X322289139Y-228227000D01*
X322193900Y-228179381D01*
X322146281Y-228084143D01*
X322146281Y-227703191D01*
X322193900Y-227607953D01*
X322289139Y-227560334D01*
X322479615Y-227560334D01*
X322574853Y-227607953D01*
X322622472Y-227703191D01*
X322622472Y-227798429D01*
X322146281Y-227893667D01*
X322908186Y-227560334D02*
X323289139Y-227560334D01*
X323051043Y-228227000D02*
X323051043Y-227369858D01*
X323098662Y-227274620D01*
X323193900Y-227227000D01*
X323289139Y-227227000D01*
X323479615Y-227560334D02*
X323860567Y-227560334D01*
X323622472Y-227227000D02*
X323622472Y-228084143D01*
X323670091Y-228179381D01*
X323765329Y-228227000D01*
X323860567Y-228227000D01*
X324717710Y-228227000D02*
X324146281Y-228227000D01*
X324431996Y-228227000D02*
X324431996Y-227227000D01*
X324336758Y-227369858D01*
X324241520Y-227465096D01*
X324146281Y-227512715D01*
X339601043Y-227941286D02*
X340077234Y-227941286D01*
X339505805Y-228227000D02*
X339839139Y-227227000D01*
X340172472Y-228227000D01*
X340505805Y-228227000D02*
X340505805Y-227227000D01*
X340743900Y-227227000D01*
X340886758Y-227274620D01*
X340981996Y-227369858D01*
X341029615Y-227465096D01*
X341077234Y-227655572D01*
X341077234Y-227798429D01*
X341029615Y-227988905D01*
X340981996Y-228084143D01*
X340886758Y-228179381D01*
X340743900Y-228227000D01*
X340505805Y-228227000D01*
X341410567Y-227560334D02*
X341601043Y-228227000D01*
X341791520Y-227750810D01*
X341981996Y-228227000D01*
X342172472Y-227560334D01*
X342553424Y-227560334D02*
X342553424Y-228227000D01*
X342553424Y-227655572D02*
X342601043Y-227607953D01*
X342696281Y-227560334D01*
X342839139Y-227560334D01*
X342934377Y-227607953D01*
X342981996Y-227703191D01*
X342981996Y-228227000D01*
X343981996Y-228227000D02*
X343410567Y-228227000D01*
X343696281Y-228227000D02*
X343696281Y-227227000D01*
X343601043Y-227369858D01*
X343505805Y-227465096D01*
X343410567Y-227512715D01*
M02*
