G04 #@! TF.GenerationSoftware,KiCad,Pcbnew,(5.1.9)-1*
G04 #@! TF.CreationDate,2021-04-20T15:34:40+09:00*
G04 #@! TF.ProjectId,JupiterAdvanced,4a757069-7465-4724-9164-76616e636564,1*
G04 #@! TF.SameCoordinates,Original*
G04 #@! TF.FileFunction,Legend,Top*
G04 #@! TF.FilePolarity,Positive*
%FSLAX46Y46*%
G04 Gerber Fmt 4.6, Leading zero omitted, Abs format (unit mm)*
G04 Created by KiCad (PCBNEW (5.1.9)-1) date 2021-04-20 15:34:40*
%MOMM*%
%LPD*%
G01*
G04 APERTURE LIST*
%ADD10C,0.150000*%
%ADD11C,2.500000*%
%ADD12C,3.987800*%
%ADD13C,1.750000*%
%ADD14C,0.650000*%
%ADD15O,1.000000X2.100000*%
%ADD16O,1.000000X1.600000*%
%ADD17C,3.048000*%
G04 APERTURE END LIST*
D10*
X343134523Y-238842300D02*
X343134523Y-239556586D01*
X343086904Y-239699443D01*
X342991666Y-239794681D01*
X342848809Y-239842300D01*
X342753571Y-239842300D01*
X344039285Y-239175634D02*
X344039285Y-239842300D01*
X343610714Y-239175634D02*
X343610714Y-239699443D01*
X343658333Y-239794681D01*
X343753571Y-239842300D01*
X343896428Y-239842300D01*
X343991666Y-239794681D01*
X344039285Y-239747062D01*
X344515476Y-239175634D02*
X344515476Y-240175634D01*
X344515476Y-239223253D02*
X344610714Y-239175634D01*
X344801190Y-239175634D01*
X344896428Y-239223253D01*
X344944047Y-239270872D01*
X344991666Y-239366110D01*
X344991666Y-239651824D01*
X344944047Y-239747062D01*
X344896428Y-239794681D01*
X344801190Y-239842300D01*
X344610714Y-239842300D01*
X344515476Y-239794681D01*
X345420238Y-239842300D02*
X345420238Y-239175634D01*
X345420238Y-238842300D02*
X345372619Y-238889920D01*
X345420238Y-238937539D01*
X345467857Y-238889920D01*
X345420238Y-238842300D01*
X345420238Y-238937539D01*
X345753571Y-239175634D02*
X346134523Y-239175634D01*
X345896428Y-238842300D02*
X345896428Y-239699443D01*
X345944047Y-239794681D01*
X346039285Y-239842300D01*
X346134523Y-239842300D01*
X346848809Y-239794681D02*
X346753571Y-239842300D01*
X346563095Y-239842300D01*
X346467857Y-239794681D01*
X346420238Y-239699443D01*
X346420238Y-239318491D01*
X346467857Y-239223253D01*
X346563095Y-239175634D01*
X346753571Y-239175634D01*
X346848809Y-239223253D01*
X346896428Y-239318491D01*
X346896428Y-239413729D01*
X346420238Y-239508967D01*
X347325000Y-239842300D02*
X347325000Y-239175634D01*
X347325000Y-239366110D02*
X347372619Y-239270872D01*
X347420238Y-239223253D01*
X347515476Y-239175634D01*
X347610714Y-239175634D01*
X348658333Y-239556586D02*
X349134523Y-239556586D01*
X348563095Y-239842300D02*
X348896428Y-238842300D01*
X349229761Y-239842300D01*
X349991666Y-239842300D02*
X349991666Y-238842300D01*
X349991666Y-239794681D02*
X349896428Y-239842300D01*
X349705952Y-239842300D01*
X349610714Y-239794681D01*
X349563095Y-239747062D01*
X349515476Y-239651824D01*
X349515476Y-239366110D01*
X349563095Y-239270872D01*
X349610714Y-239223253D01*
X349705952Y-239175634D01*
X349896428Y-239175634D01*
X349991666Y-239223253D01*
X350372619Y-239175634D02*
X350610714Y-239842300D01*
X350848809Y-239175634D01*
X351658333Y-239842300D02*
X351658333Y-239318491D01*
X351610714Y-239223253D01*
X351515476Y-239175634D01*
X351325000Y-239175634D01*
X351229761Y-239223253D01*
X351658333Y-239794681D02*
X351563095Y-239842300D01*
X351325000Y-239842300D01*
X351229761Y-239794681D01*
X351182142Y-239699443D01*
X351182142Y-239604205D01*
X351229761Y-239508967D01*
X351325000Y-239461348D01*
X351563095Y-239461348D01*
X351658333Y-239413729D01*
X352134523Y-239175634D02*
X352134523Y-239842300D01*
X352134523Y-239270872D02*
X352182142Y-239223253D01*
X352277380Y-239175634D01*
X352420238Y-239175634D01*
X352515476Y-239223253D01*
X352563095Y-239318491D01*
X352563095Y-239842300D01*
X353467857Y-239794681D02*
X353372619Y-239842300D01*
X353182142Y-239842300D01*
X353086904Y-239794681D01*
X353039285Y-239747062D01*
X352991666Y-239651824D01*
X352991666Y-239366110D01*
X353039285Y-239270872D01*
X353086904Y-239223253D01*
X353182142Y-239175634D01*
X353372619Y-239175634D01*
X353467857Y-239223253D01*
X354277380Y-239794681D02*
X354182142Y-239842300D01*
X353991666Y-239842300D01*
X353896428Y-239794681D01*
X353848809Y-239699443D01*
X353848809Y-239318491D01*
X353896428Y-239223253D01*
X353991666Y-239175634D01*
X354182142Y-239175634D01*
X354277380Y-239223253D01*
X354325000Y-239318491D01*
X354325000Y-239413729D01*
X353848809Y-239508967D01*
X355182142Y-239842300D02*
X355182142Y-238842300D01*
X355182142Y-239794681D02*
X355086904Y-239842300D01*
X354896428Y-239842300D01*
X354801190Y-239794681D01*
X354753571Y-239747062D01*
X354705952Y-239651824D01*
X354705952Y-239366110D01*
X354753571Y-239270872D01*
X354801190Y-239223253D01*
X354896428Y-239175634D01*
X355086904Y-239175634D01*
X355182142Y-239223253D01*
X356420238Y-239842300D02*
X356420238Y-238842300D01*
X356801190Y-238842300D01*
X356896428Y-238889920D01*
X356944047Y-238937539D01*
X356991666Y-239032777D01*
X356991666Y-239175634D01*
X356944047Y-239270872D01*
X356896428Y-239318491D01*
X356801190Y-239366110D01*
X356420238Y-239366110D01*
X357420238Y-239747062D02*
X357467857Y-239794681D01*
X357420238Y-239842300D01*
X357372619Y-239794681D01*
X357420238Y-239747062D01*
X357420238Y-239842300D01*
X358086904Y-238842300D02*
X358182142Y-238842300D01*
X358277380Y-238889920D01*
X358325000Y-238937539D01*
X358372619Y-239032777D01*
X358420238Y-239223253D01*
X358420238Y-239461348D01*
X358372619Y-239651824D01*
X358325000Y-239747062D01*
X358277380Y-239794681D01*
X358182142Y-239842300D01*
X358086904Y-239842300D01*
X357991666Y-239794681D01*
X357944047Y-239747062D01*
X357896428Y-239651824D01*
X357848809Y-239461348D01*
X357848809Y-239223253D01*
X357896428Y-239032777D01*
X357944047Y-238937539D01*
X357991666Y-238889920D01*
X358086904Y-238842300D01*
X359372619Y-239842300D02*
X358801190Y-239842300D01*
X359086904Y-239842300D02*
X359086904Y-238842300D01*
X358991666Y-238985158D01*
X358896428Y-239080396D01*
X358801190Y-239128015D01*
X360515476Y-238937539D02*
X360563095Y-238889920D01*
X360658333Y-238842300D01*
X360896428Y-238842300D01*
X360991666Y-238889920D01*
X361039285Y-238937539D01*
X361086904Y-239032777D01*
X361086904Y-239128015D01*
X361039285Y-239270872D01*
X360467857Y-239842300D01*
X361086904Y-239842300D01*
X362039285Y-239842300D02*
X361467857Y-239842300D01*
X361753571Y-239842300D02*
X361753571Y-238842300D01*
X361658333Y-238985158D01*
X361563095Y-239080396D01*
X361467857Y-239128015D01*
X362658333Y-238842300D02*
X362753571Y-238842300D01*
X362848809Y-238889920D01*
X362896428Y-238937539D01*
X362944047Y-239032777D01*
X362991666Y-239223253D01*
X362991666Y-239461348D01*
X362944047Y-239651824D01*
X362896428Y-239747062D01*
X362848809Y-239794681D01*
X362753571Y-239842300D01*
X362658333Y-239842300D01*
X362563095Y-239794681D01*
X362515476Y-239747062D01*
X362467857Y-239651824D01*
X362420238Y-239461348D01*
X362420238Y-239223253D01*
X362467857Y-239032777D01*
X362515476Y-238937539D01*
X362563095Y-238889920D01*
X362658333Y-238842300D01*
X363848809Y-239175634D02*
X363848809Y-239842300D01*
X363610714Y-238794681D02*
X363372619Y-239508967D01*
X363991666Y-239508967D01*
X364896428Y-239842300D02*
X364325000Y-239842300D01*
X364610714Y-239842300D02*
X364610714Y-238842300D01*
X364515476Y-238985158D01*
X364420238Y-239080396D01*
X364325000Y-239128015D01*
X365753571Y-239175634D02*
X365753571Y-239842300D01*
X365515476Y-238794681D02*
X365277380Y-239508967D01*
X365896428Y-239508967D01*
X293258095Y-154713380D02*
X293258095Y-153713380D01*
X293258095Y-154189571D02*
X293829523Y-154189571D01*
X293829523Y-154713380D02*
X293829523Y-153713380D01*
X294734285Y-153713380D02*
X294543809Y-153713380D01*
X294448571Y-153761000D01*
X294400952Y-153808619D01*
X294305714Y-153951476D01*
X294258095Y-154141952D01*
X294258095Y-154522904D01*
X294305714Y-154618142D01*
X294353333Y-154665761D01*
X294448571Y-154713380D01*
X294639047Y-154713380D01*
X294734285Y-154665761D01*
X294781904Y-154618142D01*
X294829523Y-154522904D01*
X294829523Y-154284809D01*
X294781904Y-154189571D01*
X294734285Y-154141952D01*
X294639047Y-154094333D01*
X294448571Y-154094333D01*
X294353333Y-154141952D01*
X294305714Y-154189571D01*
X294258095Y-154284809D01*
X141016095Y-154713380D02*
X141016095Y-153713380D01*
X141016095Y-154189571D02*
X141587523Y-154189571D01*
X141587523Y-154713380D02*
X141587523Y-153713380D01*
X142539904Y-153713380D02*
X142063714Y-153713380D01*
X142016095Y-154189571D01*
X142063714Y-154141952D01*
X142158952Y-154094333D01*
X142397047Y-154094333D01*
X142492285Y-154141952D01*
X142539904Y-154189571D01*
X142587523Y-154284809D01*
X142587523Y-154522904D01*
X142539904Y-154618142D01*
X142492285Y-154665761D01*
X142397047Y-154713380D01*
X142158952Y-154713380D01*
X142063714Y-154665761D01*
X142016095Y-154618142D01*
X64563095Y-236427380D02*
X64563095Y-235427380D01*
X64563095Y-235903571D02*
X65134523Y-235903571D01*
X65134523Y-236427380D02*
X65134523Y-235427380D01*
X66039285Y-235760714D02*
X66039285Y-236427380D01*
X65801190Y-235379761D02*
X65563095Y-236094047D01*
X66182142Y-236094047D01*
X369563095Y-236427380D02*
X369563095Y-235427380D01*
X369563095Y-235903571D02*
X370134523Y-235903571D01*
X370134523Y-236427380D02*
X370134523Y-235427380D01*
X370515476Y-235427380D02*
X371134523Y-235427380D01*
X370801190Y-235808333D01*
X370944047Y-235808333D01*
X371039285Y-235855952D01*
X371086904Y-235903571D01*
X371134523Y-235998809D01*
X371134523Y-236236904D01*
X371086904Y-236332142D01*
X371039285Y-236379761D01*
X370944047Y-236427380D01*
X370658333Y-236427380D01*
X370563095Y-236379761D01*
X370515476Y-236332142D01*
X369563095Y-83570380D02*
X369563095Y-82570380D01*
X369563095Y-83046571D02*
X370134523Y-83046571D01*
X370134523Y-83570380D02*
X370134523Y-82570380D01*
X370563095Y-82665619D02*
X370610714Y-82618000D01*
X370705952Y-82570380D01*
X370944047Y-82570380D01*
X371039285Y-82618000D01*
X371086904Y-82665619D01*
X371134523Y-82760857D01*
X371134523Y-82856095D01*
X371086904Y-82998952D01*
X370515476Y-83570380D01*
X371134523Y-83570380D01*
X64563095Y-83470380D02*
X64563095Y-82470380D01*
X64563095Y-82946571D02*
X65134523Y-82946571D01*
X65134523Y-83470380D02*
X65134523Y-82470380D01*
X66134523Y-83470380D02*
X65563095Y-83470380D01*
X65848809Y-83470380D02*
X65848809Y-82470380D01*
X65753571Y-82613238D01*
X65658333Y-82708476D01*
X65563095Y-82756095D01*
%LPC*%
D11*
X294020000Y-157761000D03*
X141778000Y-157761000D03*
X65325000Y-239475000D03*
X370325000Y-239475000D03*
X370325000Y-86618000D03*
X65325000Y-86518000D03*
D12*
X336889320Y-167449620D03*
D13*
X331809320Y-167449620D03*
X341969320Y-167449620D03*
D12*
X360816120Y-100798820D03*
D13*
X355736120Y-100798820D03*
X365896120Y-100798820D03*
D14*
X265490240Y-86945980D03*
X259710240Y-86945980D03*
D15*
X258280240Y-87475980D03*
X266920240Y-87475980D03*
D16*
X258280240Y-83295980D03*
X266920240Y-83295980D03*
D12*
X75002620Y-148386920D03*
D13*
X69922620Y-148386920D03*
X80082620Y-148386920D03*
D12*
X79765120Y-167449620D03*
D13*
X74685120Y-167449620D03*
X84845120Y-167449620D03*
D12*
X196465647Y-224609227D03*
D13*
X191385647Y-224609227D03*
X201545647Y-224609227D03*
D17*
X146465747Y-217624227D03*
X246465547Y-217624227D03*
D12*
X146465747Y-232864227D03*
X246465547Y-232864227D03*
X315566020Y-205549620D03*
D13*
X310486020Y-205549620D03*
X320646020Y-205549620D03*
D12*
X303691520Y-224599620D03*
D13*
X298611520Y-224599620D03*
X308771520Y-224599620D03*
D12*
X313089520Y-167449620D03*
D13*
X308009520Y-167449620D03*
X318169520Y-167449620D03*
D12*
X265520380Y-224599620D03*
D13*
X260440380Y-224599620D03*
X270600380Y-224599620D03*
D12*
X298814720Y-186499620D03*
D13*
X293734720Y-186499620D03*
X303894720Y-186499620D03*
D12*
X289340520Y-205549620D03*
D13*
X284260520Y-205549620D03*
X294420520Y-205549620D03*
D12*
X322741520Y-129349620D03*
D13*
X317661520Y-129349620D03*
X327821520Y-129349620D03*
D12*
X303640720Y-148399620D03*
D13*
X298560720Y-148399620D03*
X308720720Y-148399620D03*
D12*
X360841520Y-167449620D03*
D13*
X355761520Y-167449620D03*
X365921520Y-167449620D03*
D12*
X360841520Y-186499620D03*
D13*
X355761520Y-186499620D03*
X365921520Y-186499620D03*
D12*
X341740720Y-129349620D03*
D13*
X336660720Y-129349620D03*
X346820720Y-129349620D03*
D12*
X117890520Y-205549620D03*
D13*
X112810520Y-205549620D03*
X122970520Y-205549620D03*
D12*
X198840320Y-167449620D03*
D13*
X193760320Y-167449620D03*
X203920320Y-167449620D03*
D12*
X136940520Y-205549620D03*
D13*
X131860520Y-205549620D03*
X142020520Y-205549620D03*
D12*
X122640320Y-167449620D03*
D13*
X117560320Y-167449620D03*
X127720320Y-167449620D03*
D12*
X175040520Y-205549620D03*
D13*
X169960520Y-205549620D03*
X180120520Y-205549620D03*
D12*
X217890320Y-167449620D03*
D13*
X212810320Y-167449620D03*
X222970320Y-167449620D03*
D12*
X179790320Y-167449620D03*
D13*
X174710320Y-167449620D03*
X184870320Y-167449620D03*
D12*
X341766120Y-100798820D03*
D13*
X336686120Y-100798820D03*
X346846120Y-100798820D03*
D12*
X322716120Y-100798820D03*
D13*
X317636120Y-100798820D03*
X327796120Y-100798820D03*
D12*
X303666120Y-100798820D03*
D13*
X298586120Y-100798820D03*
X308746120Y-100798820D03*
D12*
X284675320Y-100798820D03*
D13*
X279595320Y-100798820D03*
X289755320Y-100798820D03*
D12*
X246516120Y-100798820D03*
D13*
X241436120Y-100798820D03*
X251596120Y-100798820D03*
D12*
X227466120Y-100798820D03*
D13*
X222386120Y-100798820D03*
X232546120Y-100798820D03*
D12*
X208416120Y-100798820D03*
D13*
X203336120Y-100798820D03*
X213496120Y-100798820D03*
D12*
X189366120Y-100798820D03*
D13*
X184286120Y-100798820D03*
X194446120Y-100798820D03*
D12*
X170316120Y-100798820D03*
D13*
X165236120Y-100798820D03*
X175396120Y-100798820D03*
D12*
X151266120Y-100798820D03*
D13*
X146186120Y-100798820D03*
X156346120Y-100798820D03*
D12*
X132216120Y-100798820D03*
D13*
X127136120Y-100798820D03*
X137296120Y-100798820D03*
D12*
X113166120Y-100798820D03*
D13*
X108086120Y-100798820D03*
X118246120Y-100798820D03*
D12*
X94116120Y-100798820D03*
D13*
X89036120Y-100798820D03*
X99196120Y-100798820D03*
D12*
X75066120Y-100798820D03*
D13*
X69986120Y-100798820D03*
X80146120Y-100798820D03*
D12*
X127313920Y-186499620D03*
D13*
X122233920Y-186499620D03*
X132393920Y-186499620D03*
D12*
X160740320Y-167449620D03*
D13*
X155660320Y-167449620D03*
X165820320Y-167449620D03*
D12*
X103590320Y-167449620D03*
D13*
X98510320Y-167449620D03*
X108670320Y-167449620D03*
D12*
X274989520Y-167449620D03*
D13*
X269909520Y-167449620D03*
X280069520Y-167449620D03*
D12*
X255990320Y-167449620D03*
D13*
X250910320Y-167449620D03*
X261070320Y-167449620D03*
D12*
X213140520Y-205549620D03*
D13*
X208060520Y-205549620D03*
X218220520Y-205549620D03*
D12*
X232190520Y-205549620D03*
D13*
X227110520Y-205549620D03*
X237270520Y-205549620D03*
D12*
X260714720Y-186499620D03*
D13*
X255634720Y-186499620D03*
X265794720Y-186499620D03*
D12*
X241664720Y-186499620D03*
D13*
X236584720Y-186499620D03*
X246744720Y-186499620D03*
D12*
X222614720Y-186499620D03*
D13*
X217534720Y-186499620D03*
X227694720Y-186499620D03*
D12*
X236940320Y-167449620D03*
D13*
X231860320Y-167449620D03*
X242020320Y-167449620D03*
D12*
X203564720Y-186499620D03*
D13*
X198484720Y-186499620D03*
X208644720Y-186499620D03*
D12*
X184514720Y-186499620D03*
D13*
X179434720Y-186499620D03*
X189594720Y-186499620D03*
D12*
X284590720Y-129349620D03*
D13*
X279510720Y-129349620D03*
X289670720Y-129349620D03*
D12*
X165464720Y-186499620D03*
D13*
X160384720Y-186499620D03*
X170544720Y-186499620D03*
D12*
X141690320Y-167449620D03*
D13*
X136610320Y-167449620D03*
X146770320Y-167449620D03*
D12*
X146414720Y-186499620D03*
D13*
X141334720Y-186499620D03*
X151494720Y-186499620D03*
D12*
X155990520Y-205549620D03*
D13*
X150910520Y-205549620D03*
X161070520Y-205549620D03*
D12*
X194090520Y-205549620D03*
D13*
X189010520Y-205549620D03*
X199170520Y-205549620D03*
D12*
X108314720Y-186499620D03*
D13*
X103234720Y-186499620D03*
X113394720Y-186499620D03*
D12*
X246490720Y-148399620D03*
D13*
X241410720Y-148399620D03*
X251570720Y-148399620D03*
D12*
X227440720Y-148399620D03*
D13*
X222360720Y-148399620D03*
X232520720Y-148399620D03*
D12*
X208390720Y-148399620D03*
D13*
X203310720Y-148399620D03*
X213470720Y-148399620D03*
D12*
X189340720Y-148399620D03*
D13*
X184260720Y-148399620D03*
X194420720Y-148399620D03*
D12*
X170290720Y-148399620D03*
D13*
X165210720Y-148399620D03*
X175370720Y-148399620D03*
D12*
X151240720Y-148399620D03*
D13*
X146160720Y-148399620D03*
X156320720Y-148399620D03*
D12*
X132190720Y-148399620D03*
D13*
X127110720Y-148399620D03*
X137270720Y-148399620D03*
D12*
X113140720Y-148399620D03*
D13*
X108060720Y-148399620D03*
X118220720Y-148399620D03*
D12*
X94039920Y-148399620D03*
D13*
X88959920Y-148399620D03*
X99119920Y-148399620D03*
D12*
X265540720Y-148399620D03*
D13*
X260460720Y-148399620D03*
X270620720Y-148399620D03*
D12*
X251240520Y-205549620D03*
D13*
X246160520Y-205549620D03*
X256320520Y-205549620D03*
D12*
X86902520Y-205549620D03*
D13*
X81822520Y-205549620D03*
X91982520Y-205549620D03*
D17*
X74996270Y-198564620D03*
X98808770Y-198564620D03*
D12*
X74996270Y-213804620D03*
X98808770Y-213804620D03*
X101209524Y-224599620D03*
D13*
X96129524Y-224599620D03*
X106289524Y-224599620D03*
D12*
X77377520Y-224599620D03*
D13*
X72297520Y-224599620D03*
X82457520Y-224599620D03*
D12*
X294039520Y-167449620D03*
D13*
X288959520Y-167449620D03*
X299119520Y-167449620D03*
D12*
X125017128Y-224609227D03*
D13*
X119937128Y-224609227D03*
X130097128Y-224609227D03*
D12*
X284590720Y-148399620D03*
D13*
X279510720Y-148399620D03*
X289670720Y-148399620D03*
D12*
X360841520Y-148399620D03*
D13*
X355761520Y-148399620D03*
X365921520Y-148399620D03*
X275370520Y-205549620D03*
X265210520Y-205549620D03*
D12*
X270290520Y-205549620D03*
X284641520Y-224599620D03*
D13*
X279561520Y-224599620D03*
X289721520Y-224599620D03*
D12*
X303640720Y-129349620D03*
D13*
X298560720Y-129349620D03*
X308720720Y-129349620D03*
D12*
X265540720Y-129349620D03*
D13*
X260460720Y-129349620D03*
X270620720Y-129349620D03*
D12*
X246490720Y-129349620D03*
D13*
X241410720Y-129349620D03*
X251570720Y-129349620D03*
D12*
X227440720Y-129349620D03*
D13*
X222360720Y-129349620D03*
X232520720Y-129349620D03*
D12*
X208390720Y-129349620D03*
D13*
X203310720Y-129349620D03*
X213470720Y-129349620D03*
D12*
X189340720Y-129349620D03*
D13*
X184260720Y-129349620D03*
X194420720Y-129349620D03*
D12*
X170290720Y-129349620D03*
D13*
X165210720Y-129349620D03*
X175370720Y-129349620D03*
D12*
X151240720Y-129349620D03*
D13*
X146160720Y-129349620D03*
X156320720Y-129349620D03*
D12*
X132190720Y-129349620D03*
D13*
X127110720Y-129349620D03*
X137270720Y-129349620D03*
D12*
X113089920Y-129349620D03*
D13*
X108009920Y-129349620D03*
X118169920Y-129349620D03*
D12*
X94039920Y-129349620D03*
D13*
X88959920Y-129349620D03*
X99119920Y-129349620D03*
D12*
X74989920Y-129349620D03*
D13*
X69909920Y-129349620D03*
X80069920Y-129349620D03*
D12*
X329802720Y-186499620D03*
D13*
X324722720Y-186499620D03*
X334882720Y-186499620D03*
D17*
X317896470Y-179514620D03*
X341708970Y-179514620D03*
D12*
X317896470Y-194754620D03*
X341708970Y-194754620D03*
X360841520Y-205549620D03*
D13*
X355761520Y-205549620D03*
X365921520Y-205549620D03*
D12*
X360841520Y-129349620D03*
D13*
X355761520Y-129349620D03*
X365921520Y-129349620D03*
D12*
X82140020Y-186499620D03*
D13*
X77060020Y-186499620D03*
X87220020Y-186499620D03*
D12*
X279764720Y-186499620D03*
D13*
X274684720Y-186499620D03*
X284844720Y-186499620D03*
D12*
X332241120Y-148399620D03*
D13*
X327161120Y-148399620D03*
X337321120Y-148399620D03*
D17*
X320334870Y-141414620D03*
X344147370Y-141414620D03*
D12*
X320334870Y-156654620D03*
X344147370Y-156654620D03*
X341791520Y-205549620D03*
D13*
X336711520Y-205549620D03*
X346871520Y-205549620D03*
D12*
X360841520Y-224599620D03*
D13*
X355761520Y-224599620D03*
X365921520Y-224599620D03*
D12*
X322741520Y-224599620D03*
D13*
X317661520Y-224599620D03*
X327821520Y-224599620D03*
D12*
X341791520Y-224599620D03*
D13*
X336711520Y-224599620D03*
X346871520Y-224599620D03*
M02*
