%FSLAX45Y45*%
G04 Gerber Fmt 4.5, Leading zero omitted, Abs format (unit mm)*
G04 Created by KiCad (PCBNEW (5.1.9)-1) date 2021-04-20 15:36:32*
%MOMM*%
%LPD*%
G01*
G04 APERTURE LIST*
%TA.AperFunction,Profile*%
%ADD10C,0.200000*%
%TD*%
%ADD11C,0.200000*%
%ADD12C,0.300000*%
G04 APERTURE END LIST*
D10*
X37022627Y-24437532D02*
X6542627Y-24437532D01*
X37522627Y-23937532D02*
G75*
G02*
X37022627Y-24437532I-500000J0D01*
G01*
X37522627Y-8650032D02*
X37522627Y-23937532D01*
X37022627Y-8150032D02*
G75*
G02*
X37522627Y-8650032I0J-500000D01*
G01*
X6542627Y-8150032D02*
X37022627Y-8150032D01*
X6042627Y-8650032D02*
G75*
G02*
X6542627Y-8150032I500000J0D01*
G01*
X6042627Y-23937532D02*
X6042627Y-8650032D01*
X6542627Y-24437532D02*
G75*
G02*
X6042627Y-23937532I0J500000D01*
G01*
D11*
X7702500Y-11007500D02*
X7742500Y-11047500D01*
X7742500Y-11007500D02*
X7702500Y-11047500D01*
X7702500Y-11377500D02*
X7742500Y-11417500D01*
X7742500Y-11377500D02*
X7702500Y-11417500D01*
X24123447Y-11187820D02*
X24163447Y-11227820D01*
X24163447Y-11187820D02*
X24123447Y-11227820D01*
X24126002Y-10987852D02*
X24166002Y-11027852D01*
X24166002Y-10987852D02*
X24126002Y-11027852D01*
X24126002Y-11087852D02*
X24166002Y-11127852D01*
X24166002Y-11087852D02*
X24126002Y-11127852D01*
X24146322Y-12141012D02*
X24186322Y-12181012D01*
X24186322Y-12141012D02*
X24146322Y-12181012D01*
X24537625Y-11086428D02*
X24577625Y-11126428D01*
X24577625Y-11086428D02*
X24537625Y-11126428D01*
X24539392Y-11186413D02*
X24579392Y-11226413D01*
X24579392Y-11186413D02*
X24539392Y-11226413D01*
X24543172Y-10986582D02*
X24583172Y-11026582D01*
X24583172Y-10986582D02*
X24543172Y-11026582D01*
X24558412Y-12141012D02*
X24598412Y-12181012D01*
X24598412Y-12141012D02*
X24558412Y-12181012D01*
X24815612Y-11273602D02*
X24855612Y-11313602D01*
X24855612Y-11273602D02*
X24815612Y-11313602D01*
X25326152Y-9663848D02*
X25366152Y-9703848D01*
X25366152Y-9663848D02*
X25326152Y-9703848D01*
X25326152Y-10037892D02*
X25366152Y-10077892D01*
X25366152Y-10037892D02*
X25326152Y-10077892D01*
X25402500Y-10517500D02*
X25442500Y-10557500D01*
X25442500Y-10517500D02*
X25402500Y-10557500D01*
X25467342Y-10883182D02*
X25507342Y-10923182D01*
X25507342Y-10883182D02*
X25467342Y-10923182D01*
X25541542Y-10723182D02*
X25581542Y-10763182D01*
X25581542Y-10723182D02*
X25541542Y-10763182D01*
X25545082Y-10563182D02*
X25585082Y-10603182D01*
X25585082Y-10563182D02*
X25545082Y-10603182D01*
X25596662Y-9975662D02*
X25636662Y-10015662D01*
X25636662Y-9975662D02*
X25596662Y-10015662D01*
X25606052Y-10643182D02*
X25646052Y-10683182D01*
X25646052Y-10643182D02*
X25606052Y-10683182D01*
X25608842Y-10803182D02*
X25648842Y-10843182D01*
X25648842Y-10803182D02*
X25608842Y-10843182D01*
X25611112Y-10483182D02*
X25651112Y-10523182D01*
X25651112Y-10483182D02*
X25611112Y-10523182D01*
X25702500Y-11147500D02*
X25742500Y-11187500D01*
X25742500Y-11147500D02*
X25702500Y-11187500D01*
X25782500Y-11327500D02*
X25822500Y-11367500D01*
X25822500Y-11327500D02*
X25782500Y-11367500D01*
X25952946Y-8971776D02*
X25992946Y-9011776D01*
X25992946Y-8971776D02*
X25952946Y-9011776D01*
X26104662Y-12067500D02*
X26144662Y-12107500D01*
X26144662Y-12067500D02*
X26104662Y-12107500D01*
X26502500Y-9457500D02*
X26542500Y-9497500D01*
X26542500Y-9457500D02*
X26502500Y-9497500D01*
X26551702Y-8971092D02*
X26591702Y-9011092D01*
X26591702Y-8971092D02*
X26551702Y-9011092D01*
X26674532Y-11755842D02*
X26714532Y-11795842D01*
X26714532Y-11755842D02*
X26674532Y-11795842D01*
X26754532Y-11861712D02*
X26794532Y-11901712D01*
X26794532Y-11861712D02*
X26754532Y-11901712D01*
X26977152Y-9882952D02*
X27017152Y-9922952D01*
X27017152Y-9882952D02*
X26977152Y-9922952D01*
X27192500Y-11577500D02*
X27232500Y-11617500D01*
X27232500Y-11577500D02*
X27192500Y-11617500D01*
X27274270Y-11082928D02*
X27314270Y-11122928D01*
X27314270Y-11082928D02*
X27274270Y-11122928D01*
X27292500Y-10907500D02*
X27332500Y-10947500D01*
X27332500Y-10907500D02*
X27292500Y-10947500D01*
X27292500Y-11677500D02*
X27332500Y-11717500D01*
X27332500Y-11677500D02*
X27292500Y-11717500D01*
X27351093Y-11018907D02*
X27391093Y-11058907D01*
X27391093Y-11018907D02*
X27351093Y-11058907D01*
X27623907Y-9858907D02*
X27663907Y-9898907D01*
X27663907Y-9858907D02*
X27623907Y-9898907D01*
X27662952Y-10246172D02*
X27702952Y-10286172D01*
X27702952Y-10246172D02*
X27662952Y-10286172D01*
X27782500Y-9527500D02*
X27822500Y-9567500D01*
X27822500Y-9527500D02*
X27782500Y-9567500D01*
X27789952Y-9805482D02*
X27829952Y-9845482D01*
X27829952Y-9805482D02*
X27789952Y-9845482D01*
X27792500Y-9647500D02*
X27832500Y-9687500D01*
X27832500Y-9647500D02*
X27792500Y-9687500D01*
X27897500Y-11072500D02*
X27937500Y-11112500D01*
X27937500Y-11072500D02*
X27897500Y-11112500D01*
X27962500Y-9627500D02*
X28002500Y-9667500D01*
X28002500Y-9627500D02*
X27962500Y-9667500D01*
X27972500Y-9387500D02*
X28012500Y-9427500D01*
X28012500Y-9387500D02*
X27972500Y-9427500D01*
X27972500Y-9507500D02*
X28012500Y-9547500D01*
X28012500Y-9507500D02*
X27972500Y-9547500D01*
X28081446Y-9381367D02*
X28121446Y-9421367D01*
X28121446Y-9381367D02*
X28081446Y-9421367D01*
X28724672Y-11131362D02*
X28764672Y-11171362D01*
X28764672Y-11131362D02*
X28724672Y-11171362D01*
X28725942Y-11358692D02*
X28765942Y-11398692D01*
X28765942Y-11358692D02*
X28725942Y-11398692D01*
X28938032Y-12055922D02*
X28978032Y-12095922D01*
X28978032Y-12055922D02*
X28938032Y-12095922D01*
X29000262Y-11813352D02*
X29040262Y-11853352D01*
X29040262Y-11813352D02*
X29000262Y-11853352D01*
X29032012Y-11983222D02*
X29072012Y-12023222D01*
X29072012Y-11983222D02*
X29032012Y-12023222D01*
X29136152Y-11909872D02*
X29176152Y-11949872D01*
X29176152Y-11909872D02*
X29136152Y-11949872D01*
X29287282Y-12055922D02*
X29327282Y-12095922D01*
X29327282Y-12055922D02*
X29287282Y-12095922D01*
X29426982Y-11711752D02*
X29466982Y-11751752D01*
X29466982Y-11711752D02*
X29426982Y-11751752D01*
X29444762Y-11864152D02*
X29484762Y-11904152D01*
X29484762Y-11864152D02*
X29444762Y-11904152D01*
X29451112Y-11974642D02*
X29491112Y-12014642D01*
X29491112Y-11974642D02*
X29451112Y-12014642D01*
X29852500Y-10697500D02*
X29892500Y-10737500D01*
X29892500Y-10697500D02*
X29852500Y-10737500D01*
X29852500Y-10907500D02*
X29892500Y-10947500D01*
X29892500Y-10907500D02*
X29852500Y-10947500D01*
X25858024Y-8329598D02*
G75*
G03*
X25858024Y-8329598I-30000J0D01*
G01*
X25808024Y-8299598D02*
X25808024Y-8359598D01*
X25848024Y-8299598D02*
X25848024Y-8359598D01*
X25808024Y-8359598D02*
G75*
G03*
X25848024Y-8359598I20000J0D01*
G01*
X25848024Y-8299598D02*
G75*
G03*
X25808024Y-8299598I-20000J0D01*
G01*
X25858024Y-8747598D02*
G75*
G03*
X25858024Y-8747598I-30000J0D01*
G01*
X25808024Y-8692598D02*
X25808024Y-8802598D01*
X25848024Y-8692598D02*
X25848024Y-8802598D01*
X25808024Y-8802598D02*
G75*
G03*
X25848024Y-8802598I20000J0D01*
G01*
X25848024Y-8692598D02*
G75*
G03*
X25808024Y-8692598I-20000J0D01*
G01*
X26722024Y-8329598D02*
G75*
G03*
X26722024Y-8329598I-30000J0D01*
G01*
X26672024Y-8299598D02*
X26672024Y-8359598D01*
X26712024Y-8299598D02*
X26712024Y-8359598D01*
X26672024Y-8359598D02*
G75*
G03*
X26712024Y-8359598I20000J0D01*
G01*
X26712024Y-8299598D02*
G75*
G03*
X26672024Y-8299598I-20000J0D01*
G01*
X26722024Y-8747598D02*
G75*
G03*
X26722024Y-8747598I-30000J0D01*
G01*
X26672024Y-8692598D02*
X26672024Y-8802598D01*
X26712024Y-8692598D02*
X26712024Y-8802598D01*
X26672024Y-8802598D02*
G75*
G03*
X26712024Y-8802598I20000J0D01*
G01*
X26712024Y-8692598D02*
G75*
G03*
X26672024Y-8692598I-20000J0D01*
G01*
X7117992Y-12607462D02*
X7117992Y-12754462D01*
X7044492Y-12680962D02*
X7191492Y-12680962D01*
X7119262Y-14511192D02*
X7119262Y-14658192D01*
X7045762Y-14584692D02*
X7192762Y-14584692D01*
X7125612Y-9752382D02*
X7125612Y-9899382D01*
X7052112Y-9825882D02*
X7199112Y-9825882D01*
X7356752Y-22132462D02*
X7356752Y-22279462D01*
X7283252Y-22205962D02*
X7430252Y-22205962D01*
X7595512Y-16417462D02*
X7595512Y-16564462D01*
X7522012Y-16490962D02*
X7669012Y-16490962D01*
X7752992Y-12353462D02*
X7752992Y-12500462D01*
X7679492Y-12426962D02*
X7826492Y-12426962D01*
X7754262Y-14257192D02*
X7754262Y-14404192D01*
X7680762Y-14330692D02*
X7827762Y-14330692D01*
X7760612Y-9498382D02*
X7760612Y-9645382D01*
X7687112Y-9571882D02*
X7834112Y-9571882D01*
X7833002Y-18322462D02*
X7833002Y-18469462D01*
X7759502Y-18395962D02*
X7906502Y-18395962D01*
X7991752Y-21878462D02*
X7991752Y-22025462D01*
X7918252Y-21951962D02*
X8065252Y-21951962D01*
X8230512Y-16163462D02*
X8230512Y-16310462D01*
X8157012Y-16236962D02*
X8304012Y-16236962D01*
X8309252Y-20227462D02*
X8309252Y-20374462D01*
X8235752Y-20300962D02*
X8382752Y-20300962D01*
X8468002Y-18068462D02*
X8468002Y-18215462D01*
X8394502Y-18141962D02*
X8541502Y-18141962D01*
X8944252Y-19973462D02*
X8944252Y-20120462D01*
X8870752Y-20046962D02*
X9017752Y-20046962D01*
X9022992Y-12607462D02*
X9022992Y-12754462D01*
X8949492Y-12680962D02*
X9096492Y-12680962D01*
X9022992Y-14512462D02*
X9022992Y-14659462D01*
X8949492Y-14585962D02*
X9096492Y-14585962D01*
X9030612Y-9752382D02*
X9030612Y-9899382D01*
X8957112Y-9825882D02*
X9104112Y-9825882D01*
X9657992Y-12353462D02*
X9657992Y-12500462D01*
X9584492Y-12426962D02*
X9731492Y-12426962D01*
X9657992Y-14258462D02*
X9657992Y-14405462D01*
X9584492Y-14331962D02*
X9731492Y-14331962D01*
X9665612Y-9498382D02*
X9665612Y-9645382D01*
X9592112Y-9571882D02*
X9739112Y-9571882D01*
X9739952Y-22132462D02*
X9739952Y-22279462D01*
X9666452Y-22205962D02*
X9813452Y-22205962D01*
X9978032Y-16417462D02*
X9978032Y-16564462D01*
X9904532Y-16490962D02*
X10051532Y-16490962D01*
X10374952Y-21878462D02*
X10374952Y-22025462D01*
X10301452Y-21951962D02*
X10448452Y-21951962D01*
X10450472Y-18322462D02*
X10450472Y-18469462D01*
X10376972Y-18395962D02*
X10523972Y-18395962D01*
X10613032Y-16163462D02*
X10613032Y-16310462D01*
X10539532Y-16236962D02*
X10686532Y-16236962D01*
X10927992Y-12607462D02*
X10927992Y-12754462D01*
X10854492Y-12680962D02*
X11001492Y-12680962D01*
X10933072Y-14512462D02*
X10933072Y-14659462D01*
X10859572Y-14585962D02*
X11006572Y-14585962D01*
X10935612Y-9752382D02*
X10935612Y-9899382D01*
X10862112Y-9825882D02*
X11009112Y-9825882D01*
X11085472Y-18068462D02*
X11085472Y-18215462D01*
X11011972Y-18141962D02*
X11158972Y-18141962D01*
X11408052Y-20227462D02*
X11408052Y-20374462D01*
X11334552Y-20300962D02*
X11481552Y-20300962D01*
X11562992Y-12353462D02*
X11562992Y-12500462D01*
X11489492Y-12426962D02*
X11636492Y-12426962D01*
X11568072Y-14258462D02*
X11568072Y-14405462D01*
X11494572Y-14331962D02*
X11641572Y-14331962D01*
X11570612Y-9498382D02*
X11570612Y-9645382D01*
X11497112Y-9571882D02*
X11644112Y-9571882D01*
X11883032Y-16417462D02*
X11883032Y-16564462D01*
X11809532Y-16490962D02*
X11956532Y-16490962D01*
X12043052Y-19973462D02*
X12043052Y-20120462D01*
X11969552Y-20046962D02*
X12116552Y-20046962D01*
X12120713Y-22133423D02*
X12120713Y-22280423D01*
X12047213Y-22206923D02*
X12194213Y-22206923D01*
X12350392Y-18322462D02*
X12350392Y-18469462D01*
X12276892Y-18395962D02*
X12423892Y-18395962D01*
X12518032Y-16163462D02*
X12518032Y-16310462D01*
X12444532Y-16236962D02*
X12591532Y-16236962D01*
X12755713Y-21879423D02*
X12755713Y-22026423D01*
X12682213Y-21952923D02*
X12829213Y-21952923D01*
X12838072Y-12607462D02*
X12838072Y-12754462D01*
X12764572Y-12680962D02*
X12911572Y-12680962D01*
X12838072Y-14512462D02*
X12838072Y-14659462D01*
X12764572Y-14585962D02*
X12911572Y-14585962D01*
X12840612Y-9752382D02*
X12840612Y-9899382D01*
X12767112Y-9825882D02*
X12914112Y-9825882D01*
X12985392Y-18068462D02*
X12985392Y-18215462D01*
X12911892Y-18141962D02*
X13058892Y-18141962D01*
X13313052Y-20227462D02*
X13313052Y-20374462D01*
X13239552Y-20300962D02*
X13386552Y-20300962D01*
X13473072Y-12353462D02*
X13473072Y-12500462D01*
X13399572Y-12426962D02*
X13546572Y-12426962D01*
X13473072Y-14258462D02*
X13473072Y-14405462D01*
X13399572Y-14331962D02*
X13546572Y-14331962D01*
X13475612Y-9498382D02*
X13475612Y-9645382D01*
X13402112Y-9571882D02*
X13549112Y-9571882D01*
X13788032Y-16417462D02*
X13788032Y-16564462D01*
X13714532Y-16490962D02*
X13861532Y-16490962D01*
X13948052Y-19973462D02*
X13948052Y-20120462D01*
X13874552Y-20046962D02*
X14021552Y-20046962D01*
X14260472Y-18322462D02*
X14260472Y-18469462D01*
X14186972Y-18395962D02*
X14333972Y-18395962D01*
X14423032Y-16163462D02*
X14423032Y-16310462D01*
X14349532Y-16236962D02*
X14496532Y-16236962D01*
X14743072Y-12607462D02*
X14743072Y-12754462D01*
X14669572Y-12680962D02*
X14816572Y-12680962D01*
X14743072Y-14512462D02*
X14743072Y-14659462D01*
X14669572Y-14585962D02*
X14816572Y-14585962D01*
X14745612Y-9752382D02*
X14745612Y-9899382D01*
X14672112Y-9825882D02*
X14819112Y-9825882D01*
X14895472Y-18068462D02*
X14895472Y-18215462D01*
X14821972Y-18141962D02*
X14968972Y-18141962D01*
X15218052Y-20227462D02*
X15218052Y-20374462D01*
X15144552Y-20300962D02*
X15291552Y-20300962D01*
X15378072Y-12353462D02*
X15378072Y-12500462D01*
X15304572Y-12426962D02*
X15451572Y-12426962D01*
X15378072Y-14258462D02*
X15378072Y-14405462D01*
X15304572Y-14331962D02*
X15451572Y-14331962D01*
X15380612Y-9498382D02*
X15380612Y-9645382D01*
X15307112Y-9571882D02*
X15454112Y-9571882D01*
X15693032Y-16417462D02*
X15693032Y-16564462D01*
X15619532Y-16490962D02*
X15766532Y-16490962D01*
X15853052Y-19973462D02*
X15853052Y-20120462D01*
X15779552Y-20046962D02*
X15926552Y-20046962D01*
X16165472Y-18322462D02*
X16165472Y-18469462D01*
X16091972Y-18395962D02*
X16238972Y-18395962D01*
X16328032Y-16163462D02*
X16328032Y-16310462D01*
X16254532Y-16236962D02*
X16401532Y-16236962D01*
X16648072Y-12607462D02*
X16648072Y-12754462D01*
X16574572Y-12680962D02*
X16721572Y-12680962D01*
X16648072Y-14512462D02*
X16648072Y-14659462D01*
X16574572Y-14585962D02*
X16721572Y-14585962D01*
X16650612Y-9752382D02*
X16650612Y-9899382D01*
X16577112Y-9825882D02*
X16724112Y-9825882D01*
X16800472Y-18068462D02*
X16800472Y-18215462D01*
X16726972Y-18141962D02*
X16873972Y-18141962D01*
X17123052Y-20227462D02*
X17123052Y-20374462D01*
X17049552Y-20300962D02*
X17196552Y-20300962D01*
X17283072Y-12353462D02*
X17283072Y-12500462D01*
X17209572Y-12426962D02*
X17356572Y-12426962D01*
X17283072Y-14258462D02*
X17283072Y-14405462D01*
X17209572Y-14331962D02*
X17356572Y-14331962D01*
X17285612Y-9498382D02*
X17285612Y-9645382D01*
X17212112Y-9571882D02*
X17359112Y-9571882D01*
X17598032Y-16417462D02*
X17598032Y-16564462D01*
X17524532Y-16490962D02*
X17671532Y-16490962D01*
X17758052Y-19973462D02*
X17758052Y-20120462D01*
X17684552Y-20046962D02*
X17831552Y-20046962D01*
X18070472Y-18322462D02*
X18070472Y-18469462D01*
X17996972Y-18395962D02*
X18143972Y-18395962D01*
X18233032Y-16163462D02*
X18233032Y-16310462D01*
X18159532Y-16236962D02*
X18306532Y-16236962D01*
X18553072Y-12607462D02*
X18553072Y-12754462D01*
X18479572Y-12680962D02*
X18626572Y-12680962D01*
X18553072Y-14512462D02*
X18553072Y-14659462D01*
X18479572Y-14585962D02*
X18626572Y-14585962D01*
X18555612Y-9752382D02*
X18555612Y-9899382D01*
X18482112Y-9825882D02*
X18629112Y-9825882D01*
X18705472Y-18068462D02*
X18705472Y-18215462D01*
X18631972Y-18141962D02*
X18778972Y-18141962D01*
X19028052Y-20227462D02*
X19028052Y-20374462D01*
X18954552Y-20300962D02*
X19101552Y-20300962D01*
X19188072Y-12353462D02*
X19188072Y-12500462D01*
X19114572Y-12426962D02*
X19261572Y-12426962D01*
X19188072Y-14258462D02*
X19188072Y-14405462D01*
X19114572Y-14331962D02*
X19261572Y-14331962D01*
X19190612Y-9498382D02*
X19190612Y-9645382D01*
X19117112Y-9571882D02*
X19264112Y-9571882D01*
X19265565Y-22133423D02*
X19265565Y-22280423D01*
X19192065Y-22206923D02*
X19339065Y-22206923D01*
X19503032Y-16417462D02*
X19503032Y-16564462D01*
X19429532Y-16490962D02*
X19576532Y-16490962D01*
X19663052Y-19973462D02*
X19663052Y-20120462D01*
X19589552Y-20046962D02*
X19736552Y-20046962D01*
X19900565Y-21879423D02*
X19900565Y-22026423D01*
X19827065Y-21952923D02*
X19974065Y-21952923D01*
X19975472Y-18322462D02*
X19975472Y-18469462D01*
X19901972Y-18395962D02*
X20048972Y-18395962D01*
X20138032Y-16163462D02*
X20138032Y-16310462D01*
X20064532Y-16236962D02*
X20211532Y-16236962D01*
X20458072Y-12607462D02*
X20458072Y-12754462D01*
X20384572Y-12680962D02*
X20531572Y-12680962D01*
X20458072Y-14512462D02*
X20458072Y-14659462D01*
X20384572Y-14585962D02*
X20531572Y-14585962D01*
X20460612Y-9752382D02*
X20460612Y-9899382D01*
X20387112Y-9825882D02*
X20534112Y-9825882D01*
X20610472Y-18068462D02*
X20610472Y-18215462D01*
X20536972Y-18141962D02*
X20683972Y-18141962D01*
X20933052Y-20227462D02*
X20933052Y-20374462D01*
X20859552Y-20300962D02*
X21006552Y-20300962D01*
X21093072Y-12353462D02*
X21093072Y-12500462D01*
X21019572Y-12426962D02*
X21166572Y-12426962D01*
X21093072Y-14258462D02*
X21093072Y-14405462D01*
X21019572Y-14331962D02*
X21166572Y-14331962D01*
X21095612Y-9498382D02*
X21095612Y-9645382D01*
X21022112Y-9571882D02*
X21169112Y-9571882D01*
X21408032Y-16417462D02*
X21408032Y-16564462D01*
X21334532Y-16490962D02*
X21481532Y-16490962D01*
X21568052Y-19973462D02*
X21568052Y-20120462D01*
X21494552Y-20046962D02*
X21641552Y-20046962D01*
X21880472Y-18322462D02*
X21880472Y-18469462D01*
X21806972Y-18395962D02*
X21953972Y-18395962D01*
X22043032Y-16163462D02*
X22043032Y-16310462D01*
X21969532Y-16236962D02*
X22116532Y-16236962D01*
X22363072Y-12607462D02*
X22363072Y-12754462D01*
X22289572Y-12680962D02*
X22436572Y-12680962D01*
X22363072Y-14512462D02*
X22363072Y-14659462D01*
X22289572Y-14585962D02*
X22436572Y-14585962D01*
X22365612Y-9752382D02*
X22365612Y-9899382D01*
X22292112Y-9825882D02*
X22439112Y-9825882D01*
X22515472Y-18068462D02*
X22515472Y-18215462D01*
X22441972Y-18141962D02*
X22588972Y-18141962D01*
X22838052Y-20227462D02*
X22838052Y-20374462D01*
X22764552Y-20300962D02*
X22911552Y-20300962D01*
X22998072Y-12353462D02*
X22998072Y-12500462D01*
X22924572Y-12426962D02*
X23071572Y-12426962D01*
X22998072Y-14258462D02*
X22998072Y-14405462D01*
X22924572Y-14331962D02*
X23071572Y-14331962D01*
X23000612Y-9498382D02*
X23000612Y-9645382D01*
X22927112Y-9571882D02*
X23074112Y-9571882D01*
X23313032Y-16417462D02*
X23313032Y-16564462D01*
X23239532Y-16490962D02*
X23386532Y-16490962D01*
X23473052Y-19973462D02*
X23473052Y-20120462D01*
X23399552Y-20046962D02*
X23546552Y-20046962D01*
X23785472Y-18322462D02*
X23785472Y-18469462D01*
X23711972Y-18395962D02*
X23858972Y-18395962D01*
X23948032Y-16163462D02*
X23948032Y-16310462D01*
X23874532Y-16236962D02*
X24021532Y-16236962D01*
X24268072Y-12607462D02*
X24268072Y-12754462D01*
X24194572Y-12680962D02*
X24341572Y-12680962D01*
X24268072Y-14512462D02*
X24268072Y-14659462D01*
X24194572Y-14585962D02*
X24341572Y-14585962D01*
X24270612Y-9752382D02*
X24270612Y-9899382D01*
X24197112Y-9825882D02*
X24344112Y-9825882D01*
X24420472Y-18068462D02*
X24420472Y-18215462D01*
X24346972Y-18141962D02*
X24493972Y-18141962D01*
X24743052Y-20227462D02*
X24743052Y-20374462D01*
X24669552Y-20300962D02*
X24816552Y-20300962D01*
X24903072Y-12353462D02*
X24903072Y-12500462D01*
X24829572Y-12426962D02*
X24976572Y-12426962D01*
X24903072Y-14258462D02*
X24903072Y-14405462D01*
X24829572Y-14331962D02*
X24976572Y-14331962D01*
X24905612Y-9498382D02*
X24905612Y-9645382D01*
X24832112Y-9571882D02*
X24979112Y-9571882D01*
X25218032Y-16417462D02*
X25218032Y-16564462D01*
X25144532Y-16490962D02*
X25291532Y-16490962D01*
X25378052Y-19973462D02*
X25378052Y-20120462D01*
X25304552Y-20046962D02*
X25451552Y-20046962D01*
X25690472Y-18322462D02*
X25690472Y-18469462D01*
X25616972Y-18395962D02*
X25763972Y-18395962D01*
X25853032Y-16163462D02*
X25853032Y-16310462D01*
X25779532Y-16236962D02*
X25926532Y-16236962D01*
X26171038Y-22132462D02*
X26171038Y-22279462D01*
X26097538Y-22205962D02*
X26244538Y-22205962D01*
X26173072Y-12607462D02*
X26173072Y-12754462D01*
X26099572Y-12680962D02*
X26246572Y-12680962D01*
X26173072Y-14512462D02*
X26173072Y-14659462D01*
X26099572Y-14585962D02*
X26246572Y-14585962D01*
X26325472Y-18068462D02*
X26325472Y-18215462D01*
X26251972Y-18141962D02*
X26398972Y-18141962D01*
X26648052Y-20227462D02*
X26648052Y-20374462D01*
X26574552Y-20300962D02*
X26721552Y-20300962D01*
X26806038Y-21878462D02*
X26806038Y-22025462D01*
X26732538Y-21951962D02*
X26879538Y-21951962D01*
X26808072Y-12353462D02*
X26808072Y-12500462D01*
X26734572Y-12426962D02*
X26881572Y-12426962D01*
X26808072Y-14258462D02*
X26808072Y-14405462D01*
X26734572Y-14331962D02*
X26881572Y-14331962D01*
X27117952Y-16417462D02*
X27117952Y-16564462D01*
X27044452Y-16490962D02*
X27191452Y-16490962D01*
X27283052Y-19973462D02*
X27283052Y-20120462D01*
X27209552Y-20046962D02*
X27356552Y-20046962D01*
X27595472Y-18322462D02*
X27595472Y-18469462D01*
X27521972Y-18395962D02*
X27668972Y-18395962D01*
X27752952Y-16163462D02*
X27752952Y-16310462D01*
X27679452Y-16236962D02*
X27826452Y-16236962D01*
X28078072Y-12607462D02*
X28078072Y-12754462D01*
X28004572Y-12680962D02*
X28151572Y-12680962D01*
X28078072Y-14512462D02*
X28078072Y-14659462D01*
X28004572Y-14585962D02*
X28151572Y-14585962D01*
X28083152Y-22132462D02*
X28083152Y-22279462D01*
X28009652Y-22205962D02*
X28156652Y-22205962D01*
X28086532Y-9752382D02*
X28086532Y-9899382D01*
X28013032Y-9825882D02*
X28160032Y-9825882D01*
X28230472Y-18068462D02*
X28230472Y-18215462D01*
X28156972Y-18141962D02*
X28303972Y-18141962D01*
X28553052Y-20227462D02*
X28553052Y-20374462D01*
X28479552Y-20300962D02*
X28626552Y-20300962D01*
X28713072Y-12353462D02*
X28713072Y-12500462D01*
X28639572Y-12426962D02*
X28786572Y-12426962D01*
X28713072Y-14258462D02*
X28713072Y-14405462D01*
X28639572Y-14331962D02*
X28786572Y-14331962D01*
X28718152Y-21878462D02*
X28718152Y-22025462D01*
X28644652Y-21951962D02*
X28791652Y-21951962D01*
X28721532Y-9498382D02*
X28721532Y-9645382D01*
X28648032Y-9571882D02*
X28795032Y-9571882D01*
X29022952Y-16417462D02*
X29022952Y-16564462D01*
X28949452Y-16490962D02*
X29096452Y-16490962D01*
X29188052Y-19973462D02*
X29188052Y-20120462D01*
X29114552Y-20046962D02*
X29261552Y-20046962D01*
X29500472Y-18322462D02*
X29500472Y-18469462D01*
X29426972Y-18395962D02*
X29573972Y-18395962D01*
X29657952Y-16163462D02*
X29657952Y-16310462D01*
X29584452Y-16236962D02*
X29731452Y-16236962D01*
X29983072Y-12607462D02*
X29983072Y-12754462D01*
X29909572Y-12680962D02*
X30056572Y-12680962D01*
X29983072Y-14512462D02*
X29983072Y-14659462D01*
X29909572Y-14585962D02*
X30056572Y-14585962D01*
X29985612Y-9752382D02*
X29985612Y-9899382D01*
X29912112Y-9825882D02*
X30059112Y-9825882D01*
X29988152Y-22132462D02*
X29988152Y-22279462D01*
X29914652Y-22205962D02*
X30061652Y-22205962D01*
X30135472Y-18068462D02*
X30135472Y-18215462D01*
X30061972Y-18141962D02*
X30208972Y-18141962D01*
X30618072Y-12353462D02*
X30618072Y-12500462D01*
X30544572Y-12426962D02*
X30691572Y-12426962D01*
X30618072Y-14258462D02*
X30618072Y-14405462D01*
X30544572Y-14331962D02*
X30691572Y-14331962D01*
X30620612Y-9498382D02*
X30620612Y-9645382D01*
X30547112Y-9571882D02*
X30694112Y-9571882D01*
X30623152Y-21878462D02*
X30623152Y-22025462D01*
X30549652Y-21951962D02*
X30696652Y-21951962D01*
X30927952Y-16417462D02*
X30927952Y-16564462D01*
X30854452Y-16490962D02*
X31001452Y-16490962D01*
X31175602Y-20227462D02*
X31175602Y-20374462D01*
X31102102Y-20300962D02*
X31249102Y-20300962D01*
X31562952Y-16163462D02*
X31562952Y-16310462D01*
X31489452Y-16236962D02*
X31636452Y-16236962D01*
X31810602Y-19973462D02*
X31810602Y-20120462D01*
X31737102Y-20046962D02*
X31884102Y-20046962D01*
X31890612Y-9752382D02*
X31890612Y-9899382D01*
X31817112Y-9825882D02*
X31964112Y-9825882D01*
X31893152Y-12607462D02*
X31893152Y-12754462D01*
X31819652Y-12680962D02*
X31966652Y-12680962D01*
X31893152Y-22132462D02*
X31893152Y-22279462D01*
X31819652Y-22205962D02*
X31966652Y-22205962D01*
X32525612Y-9498382D02*
X32525612Y-9645382D01*
X32452112Y-9571882D02*
X32599112Y-9571882D01*
X32528152Y-12353462D02*
X32528152Y-12500462D01*
X32454652Y-12426962D02*
X32601652Y-12426962D01*
X32528152Y-21878462D02*
X32528152Y-22025462D01*
X32454652Y-21951962D02*
X32601652Y-21951962D01*
X32599272Y-18322462D02*
X32599272Y-18469462D01*
X32525772Y-18395962D02*
X32672772Y-18395962D01*
X32843112Y-14512462D02*
X32843112Y-14659462D01*
X32769612Y-14585962D02*
X32916612Y-14585962D01*
X33234272Y-18068462D02*
X33234272Y-18215462D01*
X33160772Y-18141962D02*
X33307772Y-18141962D01*
X33307932Y-16417462D02*
X33307932Y-16564462D01*
X33234432Y-16490962D02*
X33381432Y-16490962D01*
X33478112Y-14258462D02*
X33478112Y-14405462D01*
X33404612Y-14331962D02*
X33551612Y-14331962D01*
X33793072Y-12607462D02*
X33793072Y-12754462D01*
X33719572Y-12680962D02*
X33866572Y-12680962D01*
X33795612Y-9752382D02*
X33795612Y-9899382D01*
X33722112Y-9825882D02*
X33869112Y-9825882D01*
X33798152Y-20227462D02*
X33798152Y-20374462D01*
X33724652Y-20300962D02*
X33871652Y-20300962D01*
X33798152Y-22132462D02*
X33798152Y-22279462D01*
X33724652Y-22205962D02*
X33871652Y-22205962D01*
X33942932Y-16163462D02*
X33942932Y-16310462D01*
X33869432Y-16236962D02*
X34016432Y-16236962D01*
X34428072Y-12353462D02*
X34428072Y-12500462D01*
X34354572Y-12426962D02*
X34501572Y-12426962D01*
X34430612Y-9498382D02*
X34430612Y-9645382D01*
X34357112Y-9571882D02*
X34504112Y-9571882D01*
X34433152Y-19973462D02*
X34433152Y-20120462D01*
X34359652Y-20046962D02*
X34506652Y-20046962D01*
X34433152Y-21878462D02*
X34433152Y-22025462D01*
X34359652Y-21951962D02*
X34506652Y-21951962D01*
X35700612Y-9752382D02*
X35700612Y-9899382D01*
X35627112Y-9825882D02*
X35774112Y-9825882D01*
X35703152Y-12607462D02*
X35703152Y-12754462D01*
X35629652Y-12680962D02*
X35776652Y-12680962D01*
X35703152Y-14512462D02*
X35703152Y-14659462D01*
X35629652Y-14585962D02*
X35776652Y-14585962D01*
X35703152Y-16417462D02*
X35703152Y-16564462D01*
X35629652Y-16490962D02*
X35776652Y-16490962D01*
X35703152Y-18322462D02*
X35703152Y-18469462D01*
X35629652Y-18395962D02*
X35776652Y-18395962D01*
X35703152Y-20227462D02*
X35703152Y-20374462D01*
X35629652Y-20300962D02*
X35776652Y-20300962D01*
X35703152Y-22132462D02*
X35703152Y-22279462D01*
X35629652Y-22205962D02*
X35776652Y-22205962D01*
X36335612Y-9498382D02*
X36335612Y-9645382D01*
X36262112Y-9571882D02*
X36409112Y-9571882D01*
X36338152Y-12353462D02*
X36338152Y-12500462D01*
X36264652Y-12426962D02*
X36411652Y-12426962D01*
X36338152Y-14258462D02*
X36338152Y-14405462D01*
X36264652Y-14331962D02*
X36411652Y-14331962D01*
X36338152Y-16163462D02*
X36338152Y-16310462D01*
X36264652Y-16236962D02*
X36411652Y-16236962D01*
X36338152Y-18068462D02*
X36338152Y-18215462D01*
X36264652Y-18141962D02*
X36411652Y-18141962D01*
X36338152Y-19973462D02*
X36338152Y-20120462D01*
X36264652Y-20046962D02*
X36411652Y-20046962D01*
X36338152Y-21878462D02*
X36338152Y-22025462D01*
X36264652Y-21951962D02*
X36411652Y-21951962D01*
D12*
X6068928Y-25163214D02*
X6068928Y-24863214D01*
X6140357Y-24863214D01*
X6183214Y-24877500D01*
X6211786Y-24906071D01*
X6226071Y-24934643D01*
X6240357Y-24991786D01*
X6240357Y-25034643D01*
X6226071Y-25091786D01*
X6211786Y-25120357D01*
X6183214Y-25148928D01*
X6140357Y-25163214D01*
X6068928Y-25163214D01*
X6368928Y-25163214D02*
X6368928Y-24963214D01*
X6368928Y-25020357D02*
X6383214Y-24991786D01*
X6397500Y-24977500D01*
X6426071Y-24963214D01*
X6454643Y-24963214D01*
X6554643Y-25163214D02*
X6554643Y-24963214D01*
X6554643Y-24863214D02*
X6540357Y-24877500D01*
X6554643Y-24891786D01*
X6568928Y-24877500D01*
X6554643Y-24863214D01*
X6554643Y-24891786D01*
X6740357Y-25163214D02*
X6711786Y-25148928D01*
X6697500Y-25120357D01*
X6697500Y-24863214D01*
X6897500Y-25163214D02*
X6868928Y-25148928D01*
X6854643Y-25120357D01*
X6854643Y-24863214D01*
X7240357Y-25163214D02*
X7240357Y-24863214D01*
X7340357Y-25077500D01*
X7440357Y-24863214D01*
X7440357Y-25163214D01*
X7711786Y-25163214D02*
X7711786Y-25006071D01*
X7697500Y-24977500D01*
X7668928Y-24963214D01*
X7611786Y-24963214D01*
X7583214Y-24977500D01*
X7711786Y-25148928D02*
X7683214Y-25163214D01*
X7611786Y-25163214D01*
X7583214Y-25148928D01*
X7568928Y-25120357D01*
X7568928Y-25091786D01*
X7583214Y-25063214D01*
X7611786Y-25048928D01*
X7683214Y-25048928D01*
X7711786Y-25034643D01*
X7854643Y-24963214D02*
X7854643Y-25263214D01*
X7854643Y-24977500D02*
X7883214Y-24963214D01*
X7940357Y-24963214D01*
X7968928Y-24977500D01*
X7983214Y-24991786D01*
X7997500Y-25020357D01*
X7997500Y-25106071D01*
X7983214Y-25134643D01*
X7968928Y-25148928D01*
X7940357Y-25163214D01*
X7883214Y-25163214D01*
X7854643Y-25148928D01*
X8126071Y-25134643D02*
X8140357Y-25148928D01*
X8126071Y-25163214D01*
X8111786Y-25148928D01*
X8126071Y-25134643D01*
X8126071Y-25163214D01*
X8126071Y-24977500D02*
X8140357Y-24991786D01*
X8126071Y-25006071D01*
X8111786Y-24991786D01*
X8126071Y-24977500D01*
X8126071Y-25006071D01*
X5742500Y-25637500D02*
X5782500Y-25677500D01*
X5782500Y-25637500D02*
X5742500Y-25677500D01*
X6126071Y-25493214D02*
X6154643Y-25493214D01*
X6183214Y-25507500D01*
X6197500Y-25521786D01*
X6211786Y-25550357D01*
X6226071Y-25607500D01*
X6226071Y-25678928D01*
X6211786Y-25736071D01*
X6197500Y-25764643D01*
X6183214Y-25778928D01*
X6154643Y-25793214D01*
X6126071Y-25793214D01*
X6097500Y-25778928D01*
X6083214Y-25764643D01*
X6068928Y-25736071D01*
X6054643Y-25678928D01*
X6054643Y-25607500D01*
X6068928Y-25550357D01*
X6083214Y-25521786D01*
X6097500Y-25507500D01*
X6126071Y-25493214D01*
X6354643Y-25764643D02*
X6368928Y-25778928D01*
X6354643Y-25793214D01*
X6340357Y-25778928D01*
X6354643Y-25764643D01*
X6354643Y-25793214D01*
X6626071Y-25593214D02*
X6626071Y-25793214D01*
X6554643Y-25478928D02*
X6483214Y-25693214D01*
X6668928Y-25693214D01*
X6840357Y-25493214D02*
X6868928Y-25493214D01*
X6897500Y-25507500D01*
X6911786Y-25521786D01*
X6926071Y-25550357D01*
X6940357Y-25607500D01*
X6940357Y-25678928D01*
X6926071Y-25736071D01*
X6911786Y-25764643D01*
X6897500Y-25778928D01*
X6868928Y-25793214D01*
X6840357Y-25793214D01*
X6811786Y-25778928D01*
X6797500Y-25764643D01*
X6783214Y-25736071D01*
X6768928Y-25678928D01*
X6768928Y-25607500D01*
X6783214Y-25550357D01*
X6797500Y-25521786D01*
X6811786Y-25507500D01*
X6840357Y-25493214D01*
X7068928Y-25793214D02*
X7068928Y-25593214D01*
X7068928Y-25621786D02*
X7083214Y-25607500D01*
X7111786Y-25593214D01*
X7154643Y-25593214D01*
X7183214Y-25607500D01*
X7197500Y-25636071D01*
X7197500Y-25793214D01*
X7197500Y-25636071D02*
X7211786Y-25607500D01*
X7240357Y-25593214D01*
X7283214Y-25593214D01*
X7311786Y-25607500D01*
X7326071Y-25636071D01*
X7326071Y-25793214D01*
X7468928Y-25793214D02*
X7468928Y-25593214D01*
X7468928Y-25621786D02*
X7483214Y-25607500D01*
X7511786Y-25593214D01*
X7554643Y-25593214D01*
X7583214Y-25607500D01*
X7597500Y-25636071D01*
X7597500Y-25793214D01*
X7597500Y-25636071D02*
X7611786Y-25607500D01*
X7640357Y-25593214D01*
X7683214Y-25593214D01*
X7711786Y-25607500D01*
X7726071Y-25636071D01*
X7726071Y-25793214D01*
X8311786Y-25478928D02*
X8054643Y-25864643D01*
X8697500Y-25493214D02*
X8726071Y-25493214D01*
X8754643Y-25507500D01*
X8768929Y-25521786D01*
X8783214Y-25550357D01*
X8797500Y-25607500D01*
X8797500Y-25678928D01*
X8783214Y-25736071D01*
X8768929Y-25764643D01*
X8754643Y-25778928D01*
X8726071Y-25793214D01*
X8697500Y-25793214D01*
X8668929Y-25778928D01*
X8654643Y-25764643D01*
X8640357Y-25736071D01*
X8626071Y-25678928D01*
X8626071Y-25607500D01*
X8640357Y-25550357D01*
X8654643Y-25521786D01*
X8668929Y-25507500D01*
X8697500Y-25493214D01*
X8926071Y-25764643D02*
X8940357Y-25778928D01*
X8926071Y-25793214D01*
X8911786Y-25778928D01*
X8926071Y-25764643D01*
X8926071Y-25793214D01*
X9126071Y-25493214D02*
X9154643Y-25493214D01*
X9183214Y-25507500D01*
X9197500Y-25521786D01*
X9211786Y-25550357D01*
X9226071Y-25607500D01*
X9226071Y-25678928D01*
X9211786Y-25736071D01*
X9197500Y-25764643D01*
X9183214Y-25778928D01*
X9154643Y-25793214D01*
X9126071Y-25793214D01*
X9097500Y-25778928D01*
X9083214Y-25764643D01*
X9068929Y-25736071D01*
X9054643Y-25678928D01*
X9054643Y-25607500D01*
X9068929Y-25550357D01*
X9083214Y-25521786D01*
X9097500Y-25507500D01*
X9126071Y-25493214D01*
X9511786Y-25793214D02*
X9340357Y-25793214D01*
X9426071Y-25793214D02*
X9426071Y-25493214D01*
X9397500Y-25536071D01*
X9368929Y-25564643D01*
X9340357Y-25578928D01*
X9768929Y-25493214D02*
X9711786Y-25493214D01*
X9683214Y-25507500D01*
X9668929Y-25521786D01*
X9640357Y-25564643D01*
X9626071Y-25621786D01*
X9626071Y-25736071D01*
X9640357Y-25764643D01*
X9654643Y-25778928D01*
X9683214Y-25793214D01*
X9740357Y-25793214D01*
X9768929Y-25778928D01*
X9783214Y-25764643D01*
X9797500Y-25736071D01*
X9797500Y-25664643D01*
X9783214Y-25636071D01*
X9768929Y-25621786D01*
X9740357Y-25607500D01*
X9683214Y-25607500D01*
X9654643Y-25621786D01*
X9640357Y-25636071D01*
X9626071Y-25664643D01*
X9911786Y-25493214D02*
X9911786Y-25550357D01*
X10026071Y-25493214D02*
X10026071Y-25550357D01*
X10468929Y-25907500D02*
X10454643Y-25893214D01*
X10426071Y-25850357D01*
X10411786Y-25821786D01*
X10397500Y-25778928D01*
X10383214Y-25707500D01*
X10383214Y-25650357D01*
X10397500Y-25578928D01*
X10411786Y-25536071D01*
X10426071Y-25507500D01*
X10454643Y-25464643D01*
X10468929Y-25450357D01*
X10726071Y-25493214D02*
X10583214Y-25493214D01*
X10568929Y-25636071D01*
X10583214Y-25621786D01*
X10611786Y-25607500D01*
X10683214Y-25607500D01*
X10711786Y-25621786D01*
X10726071Y-25636071D01*
X10740357Y-25664643D01*
X10740357Y-25736071D01*
X10726071Y-25764643D01*
X10711786Y-25778928D01*
X10683214Y-25793214D01*
X10611786Y-25793214D01*
X10583214Y-25778928D01*
X10568929Y-25764643D01*
X10840357Y-25493214D02*
X11040357Y-25493214D01*
X10911786Y-25793214D01*
X11383214Y-25793214D02*
X11383214Y-25493214D01*
X11511786Y-25793214D02*
X11511786Y-25636071D01*
X11497500Y-25607500D01*
X11468928Y-25593214D01*
X11426071Y-25593214D01*
X11397500Y-25607500D01*
X11383214Y-25621786D01*
X11697500Y-25793214D02*
X11668928Y-25778928D01*
X11654643Y-25764643D01*
X11640357Y-25736071D01*
X11640357Y-25650357D01*
X11654643Y-25621786D01*
X11668928Y-25607500D01*
X11697500Y-25593214D01*
X11740357Y-25593214D01*
X11768928Y-25607500D01*
X11783214Y-25621786D01*
X11797500Y-25650357D01*
X11797500Y-25736071D01*
X11783214Y-25764643D01*
X11768928Y-25778928D01*
X11740357Y-25793214D01*
X11697500Y-25793214D01*
X11968928Y-25793214D02*
X11940357Y-25778928D01*
X11926071Y-25750357D01*
X11926071Y-25493214D01*
X12197500Y-25778928D02*
X12168928Y-25793214D01*
X12111786Y-25793214D01*
X12083214Y-25778928D01*
X12068928Y-25750357D01*
X12068928Y-25636071D01*
X12083214Y-25607500D01*
X12111786Y-25593214D01*
X12168928Y-25593214D01*
X12197500Y-25607500D01*
X12211786Y-25636071D01*
X12211786Y-25664643D01*
X12068928Y-25693214D01*
X12326071Y-25778928D02*
X12354643Y-25793214D01*
X12411786Y-25793214D01*
X12440357Y-25778928D01*
X12454643Y-25750357D01*
X12454643Y-25736071D01*
X12440357Y-25707500D01*
X12411786Y-25693214D01*
X12368928Y-25693214D01*
X12340357Y-25678928D01*
X12326071Y-25650357D01*
X12326071Y-25636071D01*
X12340357Y-25607500D01*
X12368928Y-25593214D01*
X12411786Y-25593214D01*
X12440357Y-25607500D01*
X12554643Y-25907500D02*
X12568928Y-25893214D01*
X12597500Y-25850357D01*
X12611786Y-25821786D01*
X12626071Y-25778928D01*
X12640357Y-25707500D01*
X12640357Y-25650357D01*
X12626071Y-25578928D01*
X12611786Y-25536071D01*
X12597500Y-25507500D01*
X12568928Y-25464643D01*
X12554643Y-25450357D01*
X5782500Y-26053500D02*
G75*
G03*
X5782500Y-26053500I-30000J0D01*
G01*
X6126071Y-25889214D02*
X6154643Y-25889214D01*
X6183214Y-25903500D01*
X6197500Y-25917786D01*
X6211786Y-25946357D01*
X6226071Y-26003500D01*
X6226071Y-26074928D01*
X6211786Y-26132071D01*
X6197500Y-26160643D01*
X6183214Y-26174928D01*
X6154643Y-26189214D01*
X6126071Y-26189214D01*
X6097500Y-26174928D01*
X6083214Y-26160643D01*
X6068928Y-26132071D01*
X6054643Y-26074928D01*
X6054643Y-26003500D01*
X6068928Y-25946357D01*
X6083214Y-25917786D01*
X6097500Y-25903500D01*
X6126071Y-25889214D01*
X6354643Y-26160643D02*
X6368928Y-26174928D01*
X6354643Y-26189214D01*
X6340357Y-26174928D01*
X6354643Y-26160643D01*
X6354643Y-26189214D01*
X6626071Y-25889214D02*
X6568928Y-25889214D01*
X6540357Y-25903500D01*
X6526071Y-25917786D01*
X6497500Y-25960643D01*
X6483214Y-26017786D01*
X6483214Y-26132071D01*
X6497500Y-26160643D01*
X6511786Y-26174928D01*
X6540357Y-26189214D01*
X6597500Y-26189214D01*
X6626071Y-26174928D01*
X6640357Y-26160643D01*
X6654643Y-26132071D01*
X6654643Y-26060643D01*
X6640357Y-26032071D01*
X6626071Y-26017786D01*
X6597500Y-26003500D01*
X6540357Y-26003500D01*
X6511786Y-26017786D01*
X6497500Y-26032071D01*
X6483214Y-26060643D01*
X6840357Y-25889214D02*
X6868928Y-25889214D01*
X6897500Y-25903500D01*
X6911786Y-25917786D01*
X6926071Y-25946357D01*
X6940357Y-26003500D01*
X6940357Y-26074928D01*
X6926071Y-26132071D01*
X6911786Y-26160643D01*
X6897500Y-26174928D01*
X6868928Y-26189214D01*
X6840357Y-26189214D01*
X6811786Y-26174928D01*
X6797500Y-26160643D01*
X6783214Y-26132071D01*
X6768928Y-26074928D01*
X6768928Y-26003500D01*
X6783214Y-25946357D01*
X6797500Y-25917786D01*
X6811786Y-25903500D01*
X6840357Y-25889214D01*
X7068928Y-26189214D02*
X7068928Y-25989214D01*
X7068928Y-26017786D02*
X7083214Y-26003500D01*
X7111786Y-25989214D01*
X7154643Y-25989214D01*
X7183214Y-26003500D01*
X7197500Y-26032071D01*
X7197500Y-26189214D01*
X7197500Y-26032071D02*
X7211786Y-26003500D01*
X7240357Y-25989214D01*
X7283214Y-25989214D01*
X7311786Y-26003500D01*
X7326071Y-26032071D01*
X7326071Y-26189214D01*
X7468928Y-26189214D02*
X7468928Y-25989214D01*
X7468928Y-26017786D02*
X7483214Y-26003500D01*
X7511786Y-25989214D01*
X7554643Y-25989214D01*
X7583214Y-26003500D01*
X7597500Y-26032071D01*
X7597500Y-26189214D01*
X7597500Y-26032071D02*
X7611786Y-26003500D01*
X7640357Y-25989214D01*
X7683214Y-25989214D01*
X7711786Y-26003500D01*
X7726071Y-26032071D01*
X7726071Y-26189214D01*
X8311786Y-25874928D02*
X8054643Y-26260643D01*
X8697500Y-25889214D02*
X8726071Y-25889214D01*
X8754643Y-25903500D01*
X8768929Y-25917786D01*
X8783214Y-25946357D01*
X8797500Y-26003500D01*
X8797500Y-26074928D01*
X8783214Y-26132071D01*
X8768929Y-26160643D01*
X8754643Y-26174928D01*
X8726071Y-26189214D01*
X8697500Y-26189214D01*
X8668929Y-26174928D01*
X8654643Y-26160643D01*
X8640357Y-26132071D01*
X8626071Y-26074928D01*
X8626071Y-26003500D01*
X8640357Y-25946357D01*
X8654643Y-25917786D01*
X8668929Y-25903500D01*
X8697500Y-25889214D01*
X8926071Y-26160643D02*
X8940357Y-26174928D01*
X8926071Y-26189214D01*
X8911786Y-26174928D01*
X8926071Y-26160643D01*
X8926071Y-26189214D01*
X9126071Y-25889214D02*
X9154643Y-25889214D01*
X9183214Y-25903500D01*
X9197500Y-25917786D01*
X9211786Y-25946357D01*
X9226071Y-26003500D01*
X9226071Y-26074928D01*
X9211786Y-26132071D01*
X9197500Y-26160643D01*
X9183214Y-26174928D01*
X9154643Y-26189214D01*
X9126071Y-26189214D01*
X9097500Y-26174928D01*
X9083214Y-26160643D01*
X9068929Y-26132071D01*
X9054643Y-26074928D01*
X9054643Y-26003500D01*
X9068929Y-25946357D01*
X9083214Y-25917786D01*
X9097500Y-25903500D01*
X9126071Y-25889214D01*
X9340357Y-25917786D02*
X9354643Y-25903500D01*
X9383214Y-25889214D01*
X9454643Y-25889214D01*
X9483214Y-25903500D01*
X9497500Y-25917786D01*
X9511786Y-25946357D01*
X9511786Y-25974928D01*
X9497500Y-26017786D01*
X9326071Y-26189214D01*
X9511786Y-26189214D01*
X9768929Y-25989214D02*
X9768929Y-26189214D01*
X9697500Y-25874928D02*
X9626071Y-26089214D01*
X9811786Y-26089214D01*
X9911786Y-25889214D02*
X9911786Y-25946357D01*
X10026071Y-25889214D02*
X10026071Y-25946357D01*
X10468929Y-26303500D02*
X10454643Y-26289214D01*
X10426071Y-26246357D01*
X10411786Y-26217786D01*
X10397500Y-26174928D01*
X10383214Y-26103500D01*
X10383214Y-26046357D01*
X10397500Y-25974928D01*
X10411786Y-25932071D01*
X10426071Y-25903500D01*
X10454643Y-25860643D01*
X10468929Y-25846357D01*
X10640357Y-25889214D02*
X10668929Y-25889214D01*
X10697500Y-25903500D01*
X10711786Y-25917786D01*
X10726071Y-25946357D01*
X10740357Y-26003500D01*
X10740357Y-26074928D01*
X10726071Y-26132071D01*
X10711786Y-26160643D01*
X10697500Y-26174928D01*
X10668929Y-26189214D01*
X10640357Y-26189214D01*
X10611786Y-26174928D01*
X10597500Y-26160643D01*
X10583214Y-26132071D01*
X10568929Y-26074928D01*
X10568929Y-26003500D01*
X10583214Y-25946357D01*
X10597500Y-25917786D01*
X10611786Y-25903500D01*
X10640357Y-25889214D01*
X11097500Y-26189214D02*
X11097500Y-25889214D01*
X11226071Y-26189214D02*
X11226071Y-26032071D01*
X11211786Y-26003500D01*
X11183214Y-25989214D01*
X11140357Y-25989214D01*
X11111786Y-26003500D01*
X11097500Y-26017786D01*
X11411786Y-26189214D02*
X11383214Y-26174928D01*
X11368928Y-26160643D01*
X11354643Y-26132071D01*
X11354643Y-26046357D01*
X11368928Y-26017786D01*
X11383214Y-26003500D01*
X11411786Y-25989214D01*
X11454643Y-25989214D01*
X11483214Y-26003500D01*
X11497500Y-26017786D01*
X11511786Y-26046357D01*
X11511786Y-26132071D01*
X11497500Y-26160643D01*
X11483214Y-26174928D01*
X11454643Y-26189214D01*
X11411786Y-26189214D01*
X11683214Y-26189214D02*
X11654643Y-26174928D01*
X11640357Y-26146357D01*
X11640357Y-25889214D01*
X11911786Y-26174928D02*
X11883214Y-26189214D01*
X11826071Y-26189214D01*
X11797500Y-26174928D01*
X11783214Y-26146357D01*
X11783214Y-26032071D01*
X11797500Y-26003500D01*
X11826071Y-25989214D01*
X11883214Y-25989214D01*
X11911786Y-26003500D01*
X11926071Y-26032071D01*
X11926071Y-26060643D01*
X11783214Y-26089214D01*
X12040357Y-26174928D02*
X12068928Y-26189214D01*
X12126071Y-26189214D01*
X12154643Y-26174928D01*
X12168928Y-26146357D01*
X12168928Y-26132071D01*
X12154643Y-26103500D01*
X12126071Y-26089214D01*
X12083214Y-26089214D01*
X12054643Y-26074928D01*
X12040357Y-26046357D01*
X12040357Y-26032071D01*
X12054643Y-26003500D01*
X12083214Y-25989214D01*
X12126071Y-25989214D01*
X12154643Y-26003500D01*
X12526071Y-26074928D02*
X12754643Y-26074928D01*
X12640357Y-26189214D02*
X12640357Y-25960643D01*
X13254643Y-25989214D02*
X13254643Y-26189214D01*
X13183214Y-25874928D02*
X13111786Y-26089214D01*
X13297500Y-26089214D01*
X13626071Y-26174928D02*
X13654643Y-26189214D01*
X13711786Y-26189214D01*
X13740357Y-26174928D01*
X13754643Y-26146357D01*
X13754643Y-26132071D01*
X13740357Y-26103500D01*
X13711786Y-26089214D01*
X13668928Y-26089214D01*
X13640357Y-26074928D01*
X13626071Y-26046357D01*
X13626071Y-26032071D01*
X13640357Y-26003500D01*
X13668928Y-25989214D01*
X13711786Y-25989214D01*
X13740357Y-26003500D01*
X13926071Y-26189214D02*
X13897500Y-26174928D01*
X13883214Y-26146357D01*
X13883214Y-25889214D01*
X14083214Y-26189214D02*
X14054643Y-26174928D01*
X14040357Y-26160643D01*
X14026071Y-26132071D01*
X14026071Y-26046357D01*
X14040357Y-26017786D01*
X14054643Y-26003500D01*
X14083214Y-25989214D01*
X14126071Y-25989214D01*
X14154643Y-26003500D01*
X14168928Y-26017786D01*
X14183214Y-26046357D01*
X14183214Y-26132071D01*
X14168928Y-26160643D01*
X14154643Y-26174928D01*
X14126071Y-26189214D01*
X14083214Y-26189214D01*
X14268928Y-25989214D02*
X14383214Y-25989214D01*
X14311786Y-25889214D02*
X14311786Y-26146357D01*
X14326071Y-26174928D01*
X14354643Y-26189214D01*
X14383214Y-26189214D01*
X14468928Y-26174928D02*
X14497500Y-26189214D01*
X14554643Y-26189214D01*
X14583214Y-26174928D01*
X14597500Y-26146357D01*
X14597500Y-26132071D01*
X14583214Y-26103500D01*
X14554643Y-26089214D01*
X14511786Y-26089214D01*
X14483214Y-26074928D01*
X14468928Y-26046357D01*
X14468928Y-26032071D01*
X14483214Y-26003500D01*
X14511786Y-25989214D01*
X14554643Y-25989214D01*
X14583214Y-26003500D01*
X14697500Y-26303500D02*
X14711786Y-26289214D01*
X14740357Y-26246357D01*
X14754643Y-26217786D01*
X14768928Y-26174928D01*
X14783214Y-26103500D01*
X14783214Y-26046357D01*
X14768928Y-25974928D01*
X14754643Y-25932071D01*
X14740357Y-25903500D01*
X14711786Y-25860643D01*
X14697500Y-25846357D01*
X5709000Y-26376000D02*
X5709000Y-26523000D01*
X5635500Y-26449500D02*
X5782500Y-26449500D01*
X6226071Y-26585214D02*
X6054643Y-26585214D01*
X6140357Y-26585214D02*
X6140357Y-26285214D01*
X6111786Y-26328071D01*
X6083214Y-26356643D01*
X6054643Y-26370928D01*
X6354643Y-26556643D02*
X6368928Y-26570928D01*
X6354643Y-26585214D01*
X6340357Y-26570928D01*
X6354643Y-26556643D01*
X6354643Y-26585214D01*
X6626071Y-26385214D02*
X6626071Y-26585214D01*
X6554643Y-26270928D02*
X6483214Y-26485214D01*
X6668928Y-26485214D01*
X6754643Y-26285214D02*
X6954643Y-26285214D01*
X6826071Y-26585214D01*
X7068928Y-26585214D02*
X7068928Y-26385214D01*
X7068928Y-26413786D02*
X7083214Y-26399500D01*
X7111786Y-26385214D01*
X7154643Y-26385214D01*
X7183214Y-26399500D01*
X7197500Y-26428071D01*
X7197500Y-26585214D01*
X7197500Y-26428071D02*
X7211786Y-26399500D01*
X7240357Y-26385214D01*
X7283214Y-26385214D01*
X7311786Y-26399500D01*
X7326071Y-26428071D01*
X7326071Y-26585214D01*
X7468928Y-26585214D02*
X7468928Y-26385214D01*
X7468928Y-26413786D02*
X7483214Y-26399500D01*
X7511786Y-26385214D01*
X7554643Y-26385214D01*
X7583214Y-26399500D01*
X7597500Y-26428071D01*
X7597500Y-26585214D01*
X7597500Y-26428071D02*
X7611786Y-26399500D01*
X7640357Y-26385214D01*
X7683214Y-26385214D01*
X7711786Y-26399500D01*
X7726071Y-26428071D01*
X7726071Y-26585214D01*
X8311786Y-26270928D02*
X8054643Y-26656643D01*
X8697500Y-26285214D02*
X8726071Y-26285214D01*
X8754643Y-26299500D01*
X8768929Y-26313786D01*
X8783214Y-26342357D01*
X8797500Y-26399500D01*
X8797500Y-26470928D01*
X8783214Y-26528071D01*
X8768929Y-26556643D01*
X8754643Y-26570928D01*
X8726071Y-26585214D01*
X8697500Y-26585214D01*
X8668929Y-26570928D01*
X8654643Y-26556643D01*
X8640357Y-26528071D01*
X8626071Y-26470928D01*
X8626071Y-26399500D01*
X8640357Y-26342357D01*
X8654643Y-26313786D01*
X8668929Y-26299500D01*
X8697500Y-26285214D01*
X8926071Y-26556643D02*
X8940357Y-26570928D01*
X8926071Y-26585214D01*
X8911786Y-26570928D01*
X8926071Y-26556643D01*
X8926071Y-26585214D01*
X9126071Y-26285214D02*
X9154643Y-26285214D01*
X9183214Y-26299500D01*
X9197500Y-26313786D01*
X9211786Y-26342357D01*
X9226071Y-26399500D01*
X9226071Y-26470928D01*
X9211786Y-26528071D01*
X9197500Y-26556643D01*
X9183214Y-26570928D01*
X9154643Y-26585214D01*
X9126071Y-26585214D01*
X9097500Y-26570928D01*
X9083214Y-26556643D01*
X9068929Y-26528071D01*
X9054643Y-26470928D01*
X9054643Y-26399500D01*
X9068929Y-26342357D01*
X9083214Y-26313786D01*
X9097500Y-26299500D01*
X9126071Y-26285214D01*
X9497500Y-26285214D02*
X9354643Y-26285214D01*
X9340357Y-26428071D01*
X9354643Y-26413786D01*
X9383214Y-26399500D01*
X9454643Y-26399500D01*
X9483214Y-26413786D01*
X9497500Y-26428071D01*
X9511786Y-26456643D01*
X9511786Y-26528071D01*
X9497500Y-26556643D01*
X9483214Y-26570928D01*
X9454643Y-26585214D01*
X9383214Y-26585214D01*
X9354643Y-26570928D01*
X9340357Y-26556643D01*
X9683214Y-26413786D02*
X9654643Y-26399500D01*
X9640357Y-26385214D01*
X9626071Y-26356643D01*
X9626071Y-26342357D01*
X9640357Y-26313786D01*
X9654643Y-26299500D01*
X9683214Y-26285214D01*
X9740357Y-26285214D01*
X9768929Y-26299500D01*
X9783214Y-26313786D01*
X9797500Y-26342357D01*
X9797500Y-26356643D01*
X9783214Y-26385214D01*
X9768929Y-26399500D01*
X9740357Y-26413786D01*
X9683214Y-26413786D01*
X9654643Y-26428071D01*
X9640357Y-26442357D01*
X9626071Y-26470928D01*
X9626071Y-26528071D01*
X9640357Y-26556643D01*
X9654643Y-26570928D01*
X9683214Y-26585214D01*
X9740357Y-26585214D01*
X9768929Y-26570928D01*
X9783214Y-26556643D01*
X9797500Y-26528071D01*
X9797500Y-26470928D01*
X9783214Y-26442357D01*
X9768929Y-26428071D01*
X9740357Y-26413786D01*
X9911786Y-26285214D02*
X9911786Y-26342357D01*
X10026071Y-26285214D02*
X10026071Y-26342357D01*
X10468929Y-26699500D02*
X10454643Y-26685214D01*
X10426071Y-26642357D01*
X10411786Y-26613786D01*
X10397500Y-26570928D01*
X10383214Y-26499500D01*
X10383214Y-26442357D01*
X10397500Y-26370928D01*
X10411786Y-26328071D01*
X10426071Y-26299500D01*
X10454643Y-26256643D01*
X10468929Y-26242357D01*
X10740357Y-26585214D02*
X10568929Y-26585214D01*
X10654643Y-26585214D02*
X10654643Y-26285214D01*
X10626071Y-26328071D01*
X10597500Y-26356643D01*
X10568929Y-26370928D01*
X10883214Y-26585214D02*
X10940357Y-26585214D01*
X10968929Y-26570928D01*
X10983214Y-26556643D01*
X11011786Y-26513786D01*
X11026071Y-26456643D01*
X11026071Y-26342357D01*
X11011786Y-26313786D01*
X10997500Y-26299500D01*
X10968929Y-26285214D01*
X10911786Y-26285214D01*
X10883214Y-26299500D01*
X10868929Y-26313786D01*
X10854643Y-26342357D01*
X10854643Y-26413786D01*
X10868929Y-26442357D01*
X10883214Y-26456643D01*
X10911786Y-26470928D01*
X10968929Y-26470928D01*
X10997500Y-26456643D01*
X11011786Y-26442357D01*
X11026071Y-26413786D01*
X11197500Y-26413786D02*
X11168929Y-26399500D01*
X11154643Y-26385214D01*
X11140357Y-26356643D01*
X11140357Y-26342357D01*
X11154643Y-26313786D01*
X11168929Y-26299500D01*
X11197500Y-26285214D01*
X11254643Y-26285214D01*
X11283214Y-26299500D01*
X11297500Y-26313786D01*
X11311786Y-26342357D01*
X11311786Y-26356643D01*
X11297500Y-26385214D01*
X11283214Y-26399500D01*
X11254643Y-26413786D01*
X11197500Y-26413786D01*
X11168929Y-26428071D01*
X11154643Y-26442357D01*
X11140357Y-26470928D01*
X11140357Y-26528071D01*
X11154643Y-26556643D01*
X11168929Y-26570928D01*
X11197500Y-26585214D01*
X11254643Y-26585214D01*
X11283214Y-26570928D01*
X11297500Y-26556643D01*
X11311786Y-26528071D01*
X11311786Y-26470928D01*
X11297500Y-26442357D01*
X11283214Y-26428071D01*
X11254643Y-26413786D01*
X11668928Y-26585214D02*
X11668928Y-26285214D01*
X11797500Y-26585214D02*
X11797500Y-26428071D01*
X11783214Y-26399500D01*
X11754643Y-26385214D01*
X11711786Y-26385214D01*
X11683214Y-26399500D01*
X11668928Y-26413786D01*
X11983214Y-26585214D02*
X11954643Y-26570928D01*
X11940357Y-26556643D01*
X11926071Y-26528071D01*
X11926071Y-26442357D01*
X11940357Y-26413786D01*
X11954643Y-26399500D01*
X11983214Y-26385214D01*
X12026071Y-26385214D01*
X12054643Y-26399500D01*
X12068928Y-26413786D01*
X12083214Y-26442357D01*
X12083214Y-26528071D01*
X12068928Y-26556643D01*
X12054643Y-26570928D01*
X12026071Y-26585214D01*
X11983214Y-26585214D01*
X12254643Y-26585214D02*
X12226071Y-26570928D01*
X12211786Y-26542357D01*
X12211786Y-26285214D01*
X12483214Y-26570928D02*
X12454643Y-26585214D01*
X12397500Y-26585214D01*
X12368928Y-26570928D01*
X12354643Y-26542357D01*
X12354643Y-26428071D01*
X12368928Y-26399500D01*
X12397500Y-26385214D01*
X12454643Y-26385214D01*
X12483214Y-26399500D01*
X12497500Y-26428071D01*
X12497500Y-26456643D01*
X12354643Y-26485214D01*
X12611786Y-26570928D02*
X12640357Y-26585214D01*
X12697500Y-26585214D01*
X12726071Y-26570928D01*
X12740357Y-26542357D01*
X12740357Y-26528071D01*
X12726071Y-26499500D01*
X12697500Y-26485214D01*
X12654643Y-26485214D01*
X12626071Y-26470928D01*
X12611786Y-26442357D01*
X12611786Y-26428071D01*
X12626071Y-26399500D01*
X12654643Y-26385214D01*
X12697500Y-26385214D01*
X12726071Y-26399500D01*
X12840357Y-26699500D02*
X12854643Y-26685214D01*
X12883214Y-26642357D01*
X12897500Y-26613786D01*
X12911786Y-26570928D01*
X12926071Y-26499500D01*
X12926071Y-26442357D01*
X12911786Y-26370928D01*
X12897500Y-26328071D01*
X12883214Y-26299500D01*
X12854643Y-26256643D01*
X12840357Y-26242357D01*
M02*
