0
SECTION
2
HEADER
9
$INSUNITS
70
4
9
$ACADVER
1
AC1014
9
$HANDSEED
5
FFFF
0
ENDSEC
0
SECTION
2
TABLES
0
TABLE
2
VPORT
5
8
100
AcDbSymbolTable
0
ENDTAB
0
TABLE
2
LTYPE
5
5
100
AcDbSymbolTable
0
LTYPE
5
14
100
AcDbSymbolTableRecord
100
AcDbLinetypeTableRecord
2
BYBLOCK
70
0
0
LTYPE
5
15
100
AcDbSymbolTableRecord
100
AcDbLinetypeTableRecord
2
BYLAYER
70
0
0
ENDTAB
0
TABLE
2
LAYER
5
2
100
AcDbSymbolTable
70
2
0
LAYER
5
50
100
AcDbSymbolTableRecord
100
AcDbLayerTableRecord
2
0
70
0
6
CONTINUOUS
0
ENDTAB
0
TABLE
2
STYLE
5
3
100
AcDbSymbolTable
70
1
0
STYLE
5
11
100
AcDbSymbolTableRecord
100
AcDbTextStyleTableRecord
2
STANDARD
70
0
0
ENDTAB
0
TABLE
2
VIEW
5
6
100
AcDbSymbolTable
70
0
0
ENDTAB
0
TABLE
2
UCS
5
7
100
AcDbSymbolTable
70
0
0
ENDTAB
0
TABLE
2
APPID
5
9
100
AcDbSymbolTable
70
2
0
APPID
5
12
100
AcDbSymbolTableRecord
100
AcDbRegAppTableRecord
2
ACAD
70
0
0
ENDTAB
0
TABLE
2
DIMSTYLE
5
A
100
AcDbSymbolTable
70
1
0
ENDTAB
0
TABLE
2
BLOCK_RECORD
5
1
100
AcDbSymbolTable
70
1
0
BLOCK_RECORD
5
1F
100
AcDbSymbolTableRecord
100
AcDbBlockTableRecord
2
*MODEL_SPACE
0
BLOCK_RECORD
5
1B
100
AcDbSymbolTableRecord
100
AcDbBlockTableRecord
2
*PAPER_SPACE
0
ENDTAB
0
ENDSEC
0
SECTION
2
BLOCKS
0
BLOCK
5
20
100
AcDbEntity
100
AcDbBlockBegin
2
*MODEL_SPACE
0
ENDBLK
5
21
100
AcDbEntity
100
AcDbBlockEnd
0
BLOCK
5
1C
100
AcDbEntity
100
AcDbBlockBegin
2
*PAPER_SPACE
0
ENDBLK
5
1D
100
AcDbEntity
100
AcDbBlockEnd
0
ENDSEC
0
SECTION
2
ENTITIES
0
LWPOLYLINE
5
100
100
AcDbEntity
8
0
100
AcDbPolyline
90
78
70
1
43
0.0
10
215.5
20
173.375
10
215.5
20
171.87499999999997
42
0.41421356237315055
10
217
20
170.37499999999997
10
228.60000000000002
20
170.375
10
228.60000000000002
20
165.375
10
238.60000000000002
20
165.375
10
238.60000000000002
20
170.375
10
297.30000000000007
20
170.37500000000009
10
297.29999999999893
20
165.37500000000207
10
307.30000000000007
20
165.37499999999989
10
307.30000000000007
20
170.37499999999997
10
317.30000000000007
20
170.37499999999997
42
-0.41421356237309298
10
322.30000000000007
20
165.375
10
322.30000000000007
20
155.375
10
317.29999999999785
20
155.37500000000458
10
317.30000000000007
20
145.375
10
322.29999999999802
20
145.37500000000452
10
322.30000000000132
20
93.937499999995509
10
317.30000000000007
20
93.9375
10
317.30000000000121
20
83.937499999995438
10
322.30000000000007
20
83.9375
10
322.30000000000047
20
32.499999999995516
10
317.30000000000007
20
32.5
10
317.3000000000003
20
22.499999999995151
10
322.30000000000007
20
22.5
10
322.30000000000007
20
12.500000000000002
42
-0.41421356237309437
10
317.30000000000007
20
7.5000000000000036
10
307.30000000000007
20
7.5000000000000036
10
307.30000000000007
20
12.500000000000075
10
297.30000000000013
20
12.499999999997902
10
297.30000000000007
20
7.4999999999999307
10
238.60000000000002
20
7.4999999999999929
10
238.60000000000002
20
12.499999999999993
10
228.60000000000002
20
12.499999999999993
10
228.60000000000002
20
7.4999999999999929
10
169.90000000000003
20
7.4999999999999929
10
169.90000000000003
20
12.499999999999993
10
159.90000000000003
20
12.499999999999993
10
159.90000000000003
20
7.4999999999999929
10
101.20000000000002
20
7.4999999999999929
10
101.20000000000002
20
12.499999999999993
10
91.200000000000017
20
12.499999999999993
10
91.200000000000017
20
7.4999999999999929
10
32.5
20
7.5
10
32.5
20
12.5
10
22.5
20
12.5
10
22.5
20
7.5
10
12.5
20
7.4999999999999991
42
-0.41421356237309553
10
7.4999999999999991
20
12.5
10
7.4999999999999991
20
22.5
10
12.499999999999993
20
22.5
10
12.499999999999984
20
32.500000000000007
10
7.5000000000000053
20
32.5
10
7.5000000000000053
20
83.9375
10
12.499999999999982
20
83.9375
10
12.499999999999837
20
93.937500000000028
10
7.5000000000000213
20
93.9375
10
7.4999999999993872
20
145.37500000000006
10
12.499999999998915
20
145.37500000000006
10
12.499999999999458
20
155.37500000000003
10
7.4999999999994582
20
155.37500000000003
10
7.5000000000000195
20
165.375
42
-0.41421356237309387
10
12.5
20
170.375
10
22.5
20
170.375
10
22.499999999998806
20
165.37500000000017
10
32.5
20
165.375
10
32.499999999998849
20
170.37500000000023
10
91.200000000000017
20
170.375
10
91.200000000000017
20
165.375
10
101.20000000000002
20
165.375
10
101.20000000000002
20
170.375
10
159.90000000000003
20
170.375
10
159.90000000000003
20
165.375
10
169.90000000000003
20
165.375
10
169.90000000000003
20
170.375
10
202.80000000000004
20
170.37499999999997
42
0.41421356237312973
10
204.30000000000001
20
171.87499999999997
10
204.30000000000001
20
173.375
0
ARC
5
101
100
AcDbEntity
8
0
100
AcDbCircle
10
317.30000000000007
20
12.500000000000014
30
0
40
5.0000000000000098
210
0
220
0
230
1
100
AcDbArc
50
270
51
360
0
ARC
5
102
100
AcDbEntity
8
0
100
AcDbCircle
10
12.50000000000002
20
165.375
30
0
40
5
210
0
220
0
230
1
100
AcDbArc
50
90.000000000000242
51
180
0
ARC
5
103
100
AcDbEntity
8
0
100
AcDbCircle
10
12.499999999999996
20
12.499999999999996
30
0
40
4.9999999999999964
210
0
220
0
230
1
100
AcDbArc
50
180
51
270.00000000000006
0
ARC
5
104
100
AcDbEntity
8
0
100
AcDbCircle
10
317.30000000000007
20
165.37499999999997
30
0
40
5
210
0
220
-0
230
1
100
AcDbArc
50
0
51
90
0
ENDSEC
0
SECTION
2
OBJECTS
0
DICTIONARY
5
C
100
AcDbDictionary
3
ACAD_GROUP
350
D
3
ACAD_MLINESTYLE
350
17
0
DICTIONARY
5
D
100
AcDbDictionary
0
DICTIONARY
5
1A
330
C
100
AcDbDictionary
0
DICTIONARY
5
17
100
AcDbDictionary
0
ENDSEC
0
EOF
