<svg id="Layer_7_copy_2" data-name="Layer 7 copy 2" xmlns="http://www.w3.org/2000/svg" width="1095.07" height="308.92" viewBox="0 0 1095.07 308.92">
  <defs>
    <style>
      .cls-1 {
        fill: #231f20;
      }
    </style>
  </defs>
  <path class="cls-1" d="M272.18,197.22c-9.62-5.84-20.62-1.48-29,4.53-9.63,6.91-17.81,16.12-26,24.66A613.94,613.94,0,0,0,96.37,409.87c-9.32,22-21,49.13-11.73,73.05,3.78,9.81,11.53,17.1,21.89,19.43s21.45.35,31.47-2.82c46-14.57,85.56-45.79,120-78.72,18.15-17.37,35.63-35.59,52.15-54.53,17-19.45,32.83-40.07,45.68-62.5,6-10.52,11.5-22.15,11.54-34.53,0-9.43-3.55-19.5-10.73-25.85-19.87-17.57-46.25,4.18-62.74,16A651.17,651.17,0,0,0,181.3,362.07C164.92,381,149,401,139.9,424.61c-3.23,8.36-5.61,19.67.54,27.33,7.44,9.27,20.69,5.6,30.33,2.74,23.53-7,45.25-18.76,66.66-30.54,10.85-6,21.68-12,32.78-17.5,5.45-2.7,11-5.28,16.56-7.66q4.14-1.75,8.36-3.34c3.05-1.15,6.37-2.6,9.68-2.53,9.68.2,8.9,14.23,10,20.89,1.42,8.68,5.71,15.9,14.48,18.61s18.45.87,26.83-1.84c12.13-3.93,24-9.35,35.47-14.88A382.16,382.16,0,0,0,426,397l-3-3.92c-5.07,5.13-10.53,11-10.71,18.66-.16,6.48,3.66,12.51,10.32,13.57,3.83.62,7.77-.16,11.56-.76q6.94-1.11,13.8-2.73a189.84,189.84,0,0,0,26.77-8.54l-3.07-3.08c-1.69,7.43,2.9,14.34,9.51,17.55,8,3.9,16.89,1.46,24.35-2.59,8.37-4.53,16.11-10.55,23.67-16.3s15.2-12,22.45-18.44a377.39,377.39,0,0,0,40.2-41.64q4.54-5.52,8.9-11.2c2.71-3.54,5.72-7.25,6.7-11.72,1.72-7.81-4.69-13.12-12.11-11.4-7.8,1.81-14.2,8.64-19.71,14.05a151.14,151.14,0,0,0-17.59,20.79,148.1,148.1,0,0,0-13.49,23.51q-2.8,6.12-5.06,12.46c-1.49,4.21-3.06,8.59-3.16,13.1-.17,7.75,5.15,13.47,12.52,15.09,7.86,1.74,15.07-.84,22.21-3.95,4.46-1.93,9.15-4.19,14-4.69.94-.1,2.33-.26,3,.63.54.71.29,2.14.29,3a21.4,21.4,0,0,0,.41,5.3c1.58,6.42,7.51,10.6,13.57,12.38,7.68,2.25,15.12.53,22.31-2.54,8.9-3.79,17.82-10,27.87-9.72,5.34.14,9.78,3,14.53,5.09a50.63,50.63,0,0,0,12.48,3.69,53.78,53.78,0,0,0,25.34-2A52.2,52.2,0,0,0,716.67,415c2.71-1.73.2-6.06-2.52-4.31a48.24,48.24,0,0,1-46,3.28c-3.93-1.82-7.73-4-12.06-4.76a29.23,29.23,0,0,0-12.74.93c-7.82,2.17-14.71,6.61-22.22,9.56-6.68,2.62-13.76,3.69-20.46.45a13.58,13.58,0,0,1-6.11-5.35c-1.62-2.95-.83-5.9-1.28-9.07-1.19-8.33-10.81-5.95-16.38-4-7.14,2.53-14,7.06-21.77,7.3-6.85.2-13.89-2.87-13.79-10.68.06-4.32,1.87-8.72,3.33-12.73s3.05-7.88,4.85-11.7A145.47,145.47,0,0,1,577,334.26c5-5.15,10.8-11.7,17.66-14.33,2.9-1.11,7.12-1.58,8,2.3,1,4.36-3.53,9.29-5.94,12.43a375.31,375.31,0,0,1-78,75.78c-7.4,5.33-15.35,11.84-24.42,13.87a16,16,0,0,1-12.58-1.93c-3.62-2.37-6.29-6.38-5.28-10.81.38-1.67-1.19-3.83-3.07-3.08A187.65,187.65,0,0,1,431.12,420c-3.25.48-7.32,1.29-10.31-.51-2.37-1.44-3.38-4.28-3.5-6.93-.28-6.53,5-11.67,9.24-16,2-2-.57-5.44-3-3.92-21.31,13.08-44.21,25-68,33-8,2.69-17.78,4.84-26,1.74-8.8-3.32-9.69-12.51-10.72-20.64-.86-6.91-2.17-15.12-9.59-17.87-5.36-2-10.92.18-15.95,2.09-5.22,2-10.36,4.16-15.43,6.47-21.25,9.66-41.24,21.77-61.9,32.57a312.45,312.45,0,0,1-31.9,14.79c-5.31,2.05-10.7,3.89-16.17,5.47-5.26,1.51-11.06,3.32-16.59,2.39-11.94-2-10.39-15.94-7.42-24.5,3.91-11.28,10-21.87,16.68-31.72,13.54-20,30.14-38.24,46.87-55.65a649.75,649.75,0,0,1,52.76-49.11q14.15-11.78,28.95-22.72c9.64-7.12,19.39-14.51,29.81-20.47,9.77-5.59,22.49-10.1,32.64-2.77,7.84,5.66,11.19,16.12,10.67,25.45-.68,12.31-6.9,23.56-13.07,33.92a346.54,346.54,0,0,1-20.51,30.46c-14.84,19.77-31.49,38.12-48.6,55.94-31.8,33.14-65.95,65.22-106.65,87.17A234.51,234.51,0,0,1,141.79,493c-9.73,3.52-20.28,6.39-30.71,5.14C84.19,494.86,84.22,463.22,89.54,443,92.72,431,97.64,419.38,102.6,408q6.95-16,14.81-31.61A610.21,610.21,0,0,1,193.89,260q11.19-13.4,23.15-26.13c7.83-8.33,15.73-16.91,24.39-24.39,7.36-6.34,18.59-13.76,28.23-7.92,2.76,1.68,5.27-2.64,2.52-4.31Z" transform="translate(-68.93 -194.46)"/>
  <path class="cls-1" d="M70.65,274.06c48.16,16.66,98.66,25,149.31,29.24,52.67,4.45,105.71,5.33,158.55,4.64,107.58-1.4,214.89-11,321.58-24.57,59.33-7.53,118.51-16.28,177.6-25.53l-1.93-4.57C812.43,290.73,749,328,684.08,362.75c-65.24,34.93-132.05,68-201.26,94.38a502.48,502.48,0,0,1-57.73,18.56c-9.8,2.44-19.69,4.5-29.67,6-7.29,1.1-18.51,2.62-22.23-5.59l-.39,3A129.15,129.15,0,0,1,460,444.77c17.75,0,34.15,5,51.28,8.88a111.34,111.34,0,0,0,50.19-.32c18-4.07,35.26-10.6,53.38-14.07,19.24-3.7,38.87-4.74,58.42-4.88,35.53-.27,71.17,2.52,106.58-1.59,34-3.94,67.62-14,94-36.62l-3.53-3.53c-5.87,6.57-2.85,15.93,3.67,20.9,10.22,7.8,23.65.69,33.06-4.87A2.52,2.52,0,0,0,905.7,404c-5.13-.32-7.54,6.05-4.66,9.91,4.52,6,16.17,2.9,22.2,1.88,10.64-1.8,21.15-4.95,32-5.35,12-.44,21.76,4.12,32.41,9.07,34.91,16.22,73.19,9,110.11,6.81,21.46-1.26,43.18-.57,63.27,7.87,3,1.24,4.25-3.6,1.33-4.82-30.56-12.84-64.16-8.05-96.2-5.59-16.92,1.3-34.2,2.21-51-.76A100.19,100.19,0,0,1,991,415.61c-8.06-3.66-15.86-8-24.7-9.48-9.37-1.56-18.82-.22-28.05,1.59-5.14,1-10.25,2.17-15.41,3.08-3,.53-6,1-9,1.23-1,.08-1.94.18-2.91.19a10.62,10.62,0,0,1-2.58-.08q-2.57.23-2.68-3.13l-1.27-4.66c-6.91,4.09-15.76,9.59-24.13,7-5.7-1.75-11.26-9.92-6.54-15.21a2.5,2.5,0,0,0-3.53-3.53c-53.57,45.94-129.72,36.45-194.92,36.72-18.62.08-37.29,1-55.69,4s-35.79,9.17-53.75,13.77c-18.71,4.78-36.38,5.71-55.25,1.27-16.3-3.84-32.08-8.43-49-8.61a134.42,134.42,0,0,0-92.38,35.84,2.55,2.55,0,0,0-.39,3c5.54,12.25,22.44,8.86,32.86,7.08a385.6,385.6,0,0,0,54.75-13.92c35.74-11.7,70.44-26.83,104.66-42.36,70.09-31.83,138-68.24,204.86-106.34,37.65-21.46,75-43.45,112.27-65.52,2.59-1.53.75-5-1.92-4.57-105.79,16.57-211.91,31.52-318.62,40.7-105,9-211,12.94-316.22,6.18C184.06,296.2,126.58,288.13,72,269.24c-3-1.05-4.35,3.78-1.32,4.82Z" transform="translate(-68.93 -194.46)"/>
</svg>
