0
SECTION
2
HEADER
9
$INSUNITS
70
4
9
$ACADVER
1
AC1014
9
$HANDSEED
5
FFFF
0
ENDSEC
0
SECTION
2
TABLES
0
TABLE
2
VPORT
5
8
100
AcDbSymbolTable
0
ENDTAB
0
TABLE
2
LTYPE
5
5
100
AcDbSymbolTable
0
LTYPE
5
14
100
AcDbSymbolTableRecord
100
AcDbLinetypeTableRecord
2
BYBLOCK
70
0
0
LTYPE
5
15
100
AcDbSymbolTableRecord
100
AcDbLinetypeTableRecord
2
BYLAYER
70
0
0
ENDTAB
0
TABLE
2
LAYER
5
2
100
AcDbSymbolTable
70
2
0
LAYER
5
50
100
AcDbSymbolTableRecord
100
AcDbLayerTableRecord
2
0
70
0
6
CONTINUOUS
0
ENDTAB
0
TABLE
2
STYLE
5
3
100
AcDbSymbolTable
70
1
0
STYLE
5
11
100
AcDbSymbolTableRecord
100
AcDbTextStyleTableRecord
2
STANDARD
70
0
0
ENDTAB
0
TABLE
2
VIEW
5
6
100
AcDbSymbolTable
70
0
0
ENDTAB
0
TABLE
2
UCS
5
7
100
AcDbSymbolTable
70
0
0
ENDTAB
0
TABLE
2
APPID
5
9
100
AcDbSymbolTable
70
2
0
APPID
5
12
100
AcDbSymbolTableRecord
100
AcDbRegAppTableRecord
2
ACAD
70
0
0
ENDTAB
0
TABLE
2
DIMSTYLE
5
A
100
AcDbSymbolTable
70
1
0
ENDTAB
0
TABLE
2
BLOCK_RECORD
5
1
100
AcDbSymbolTable
70
1
0
BLOCK_RECORD
5
1F
100
AcDbSymbolTableRecord
100
AcDbBlockTableRecord
2
*MODEL_SPACE
0
BLOCK_RECORD
5
1B
100
AcDbSymbolTableRecord
100
AcDbBlockTableRecord
2
*PAPER_SPACE
0
ENDTAB
0
ENDSEC
0
SECTION
2
BLOCKS
0
BLOCK
5
20
100
AcDbEntity
100
AcDbBlockBegin
2
*MODEL_SPACE
0
ENDBLK
5
21
100
AcDbEntity
100
AcDbBlockEnd
0
BLOCK
5
1C
100
AcDbEntity
100
AcDbBlockBegin
2
*PAPER_SPACE
0
ENDBLK
5
1D
100
AcDbEntity
100
AcDbBlockEnd
0
ENDSEC
0
SECTION
2
ENTITIES
0
LWPOLYLINE
5
100
100
AcDbEntity
8
0
100
AcDbPolyline
90
4
70
1
43
0.0
10
300.87
20
91.433099999999996
10
300.87
20
77.433800000000005
10
314.86900000000003
20
77.433800000000005
10
314.86900000000003
20
91.433099999999996
0
LWPOLYLINE
5
101
100
AcDbEntity
8
0
100
AcDbPolyline
90
4
70
1
43
0.0
10
105.319
20
158.108
10
91.319699999999983
20
158.108
10
91.319699999999983
20
144.10900000000001
10
105.319
20
144.10900000000001
0
LWPOLYLINE
5
102
100
AcDbEntity
8
0
100
AcDbPolyline
90
4
70
1
43
0.0
10
143.41899999999998
20
144.10900000000001
10
143.41899999999998
20
158.108
10
129.41800000000001
20
158.108
10
129.41800000000001
20
144.10900000000001
0
LWPOLYLINE
5
103
100
AcDbEntity
8
0
100
AcDbPolyline
90
68
70
1
43
0.0
10
91.200000000000017
20
165.375
10
91.200000000000017
20
170.375
10
32.500000000000036
20
170.375
10
32.5
20
165.375
10
22.499999999999964
20
165.375
10
22.5
20
170.375
10
12.5
20
170.375
42
0.41421356237309387
10
7.5
20
165.375
10
7.5
20
155.375
10
12.5
20
155.375
10
12.499999999999929
20
145.375
10
7.4999999999998943
20
145.375
10
7.5000000000000213
20
93.9375
10
12.5
20
93.9375
10
12.499999999999982
20
83.9375
10
7.4999999999999991
20
83.9375
10
7.5000000000000053
20
32.5
10
12.5
20
32.5
10
12.499999999999993
20
22.5
10
7.4999999999999991
20
22.5
10
7.4999999999999991
20
12.5
42
0.41421356237309553
10
12.5
20
7.5
10
22.5
20
7.5
10
22.5
20
12.5
10
32.5
20
12.5
10
32.5
20
7.5
10
91.200000000000017
20
7.4999999999999929
10
91.200000000000017
20
12.499999999999993
10
101.20000000000002
20
12.499999999999993
10
101.20000000000002
20
7.4999999999999929
10
159.90000000000003
20
7.4999999999999929
10
159.90000000000003
20
12.499999999999993
10
169.90000000000003
20
12.499999999999993
10
169.90000000000003
20
7.4999999999999929
10
228.60000000000002
20
7.4999999999999929
10
228.60000000000002
20
12.499999999999993
10
238.60000000000002
20
12.499999999999993
10
238.60000000000002
20
7.4999999999999929
10
297.30000000000007
20
7.4999999999999307
10
297.30000000000007
20
12.500000000000004
10
307.30000000000007
20
12.500000000000075
10
307.30000000000007
20
7.5000000000000036
10
317.30000000000007
20
7.5000000000000036
42
0.41421356237309437
10
322.30000000000007
20
12.500000000000002
10
322.30000000000007
20
22.5
10
317.30000000000007
20
22.499999999999922
10
317.30000000000007
20
32.5
10
322.30000000000007
20
32.500000000000071
10
322.30000000000007
20
83.9375
10
317.30000000000007
20
83.937499999999943
10
317.30000000000007
20
93.9375
10
322.30000000000007
20
93.937500000000085
10
322.30000000000007
20
145.37499999999994
10
317.30000000000007
20
145.375
10
317.30000000000007
20
155.37500000000009
10
322.30000000000007
20
155.375
10
322.30000000000007
20
165.375
42
0.41421356237309298
10
317.30000000000007
20
170.37499999999997
10
307.30000000000007
20
170.37499999999997
10
307.30000000000007
20
165.37499999999989
10
297.30000000000007
20
165.37499999999997
10
297.30000000000007
20
170.37500000000009
10
169.90000000000003
20
170.375
10
169.90000000000003
20
165.375
10
159.90000000000003
20
165.375
10
159.90000000000003
20
170.375
10
101.20000000000002
20
170.375
10
101.20000000000002
20
165.375
0
LWPOLYLINE
5
104
100
AcDbEntity
8
0
100
AcDbPolyline
90
4
70
1
43
0.0
10
300.87
20
115.53380000000001
10
314.86900000000003
20
115.53380000000001
10
314.86900000000003
20
129.53299999999999
10
300.87
20
129.53299999999999
0
LWPOLYLINE
5
105
100
AcDbEntity
8
0
100
AcDbPolyline
90
4
70
1
43
0.0
10
48.169000000000004
20
115.53380000000001
10
48.169000000000004
20
129.53299999999999
10
34.169699999999999
20
129.53299999999999
10
34.169699999999999
20
115.53380000000001
0
LWPOLYLINE
5
106
100
AcDbEntity
8
0
100
AcDbPolyline
90
4
70
1
43
0.0
10
215.14500000000001
20
91.433099999999996
10
215.14500000000001
20
77.433800000000005
10
229.14400000000001
20
77.433800000000005
10
229.14400000000001
20
91.433099999999996
0
LWPOLYLINE
5
107
100
AcDbEntity
8
0
100
AcDbPolyline
90
<<<<<<< HEAD
18
=======
28
>>>>>>> c69146599d757b68716b7adcbbe8b3e26b33cf29
70
1
43
0.0
10
283.91300000000001
20
58.383800000000001
10
269.91200000000003
20
58.383800000000001
10
266.661
20
58.383800000000001
10
266.661
20
57.413600000000002
10
263.36200000000002
20
57.413600000000002
10
<<<<<<< HEAD
260.81299999999999
20
57.413600000000002
10
259.81299999999999
20
57.413600000000002
10
259.81299999999999
20
72.383099999999999
10
260.81299999999999
20
72.383099999999999
=======
263.36200000000002
20
58.613799999999998
10
261.637
20
58.613799999999998
10
261.637
20
64.883700000000005
10
260.81299999999999
20
64.883700000000005
10
260.81299999999999
20
67.682600000000008
10
261.637
20
67.682600000000008
10
261.637
20
70.912700000000001
10
268.38800000000003
20
70.912700000000001
10
269.91200000000003
20
70.912700000000001
>>>>>>> c69146599d757b68716b7adcbbe8b3e26b33cf29
10
269.91200000000003
20
72.383099999999999
10
283.91300000000001
20
72.383099999999999
10
<<<<<<< HEAD
292.18799999999999
20
72.383099999999999
10
293.012
20
72.383099999999999
10
294.01200000000006
20
72.383099999999999
10
294.01200000000006
20
57.413600000000002
10
293.012
=======
283.91300000000001
20
70.912700000000001
10
285.43700000000001
20
70.912700000000001
10
292.18799999999999
20
70.912700000000001
10
292.18799999999999
20
67.682600000000008
10
293.012
20
67.682600000000008
10
293.012
20
64.883700000000005
10
292.18799999999999
20
64.883700000000005
10
292.18799999999999
20
58.613799999999998
10
290.46299999999997
20
58.613799999999998
10
290.46299999999997
>>>>>>> c69146599d757b68716b7adcbbe8b3e26b33cf29
20
57.413600000000002
10
287.16200000000003
20
57.413600000000002
10
287.16200000000003
20
58.383800000000001
0
LWPOLYLINE
5
108
100
AcDbEntity
8
0
100
AcDbPolyline
90
4
70
1
43
0.0
10
53.219700000000003
20
129.53299999999999
10
53.219700000000003
20
115.53380000000001
10
67.218999999999994
20
115.53380000000001
10
67.218999999999994
20
129.53299999999999
0
LWPOLYLINE
5
109
100
AcDbEntity
8
0
100
AcDbPolyline
90
4
70
1
43
0.0
10
262.76999999999998
20
144.10900000000001
10
276.76900000000001
20
144.10900000000001
10
276.76900000000001
20
158.108
10
262.76999999999998
20
158.108
0
LWPOLYLINE
5
110
100
AcDbEntity
8
0
100
AcDbPolyline
90
4
70
1
43
0.0
10
133.89400000000001
20
91.433099999999996
10
119.895
20
91.433099999999996
10
119.895
20
77.433800000000005
10
133.89400000000001
20
77.433800000000005
0
LWPOLYLINE
5
111
100
AcDbEntity
8
0
100
AcDbPolyline
90
4
70
1
43
0.0
10
31.500399999999999
20
34.283100000000005
10
17.500910000000001
20
34.283100000000005
10
17.500910000000001
20
20.283639999999998
10
31.500399999999999
20
20.283639999999998
0
LWPOLYLINE
5
112
100
AcDbEntity
8
0
100
AcDbPolyline
90
4
70
1
43
0.0
10
277.05700000000002
20
91.433099999999996
10
277.05700000000002
20
77.433800000000005
10
291.05700000000002
20
77.433800000000005
10
291.05700000000002
20
91.433099999999996
0
LWPOLYLINE
5
113
100
AcDbEntity
8
0
100
AcDbPolyline
90
4
70
1
43
0.0
10
224.66999999999999
20
20.283639999999998
10
238.66900000000001
20
20.283639999999998
10
238.66900000000001
20
34.283100000000005
10
224.66999999999999
20
34.283100000000005
0
LWPOLYLINE
5
114
100
AcDbEntity
8
0
100
AcDbPolyline
90
4
70
1
43
0.0
10
95.793999999999997
20
91.433099999999996
10
81.79470000000002
20
91.433099999999996
10
81.79470000000002
20
77.433800000000005
10
95.793999999999997
20
77.433800000000005
0
LWPOLYLINE
5
115
100
AcDbEntity
8
0
100
AcDbPolyline
90
4
70
1
43
0.0
10
167.52000000000004
20
129.53299999999999
10
167.52000000000004
20
115.53380000000001
10
181.51900000000001
20
115.53380000000001
10
181.51900000000001
20
129.53299999999999
0
LWPOLYLINE
5
116
100
AcDbEntity
8
0
100
AcDbPolyline
90
4
70
1
43
0.0
10
200.56900000000002
20
158.108
10
186.56999999999999
20
158.108
10
186.56999999999999
20
144.10900000000001
10
200.56900000000002
20
144.10900000000001
0
LWPOLYLINE
5
117
100
AcDbEntity
8
0
100
AcDbPolyline
90
4
70
1
43
0.0
10
72.2697
20
115.53380000000001
10
86.268999999999991
20
115.53380000000001
10
86.268999999999991
20
129.53299999999999
10
72.2697
20
129.53299999999999
0
LWPOLYLINE
5
118
100
AcDbEntity
8
0
100
AcDbPolyline
90
<<<<<<< HEAD
4
=======
28
>>>>>>> c69146599d757b68716b7adcbbe8b3e26b33cf29
70
1
43
0.0
10
<<<<<<< HEAD
196.095
20
77.433800000000005
10
210.09400000000002
20
77.433800000000005
10
210.09400000000002
20
91.433099999999996
10
196.095
20
91.433099999999996
0
LWPOLYLINE
5
119
100
AcDbEntity
8
0
100
AcDbPolyline
90
4
70
1
43
0.0
10
177.04499999999999
20
91.433099999999996
10
177.04499999999999
20
77.433800000000005
10
191.04400000000001
20
77.433800000000005
10
191.04400000000001
20
91.433099999999996
0
LWPOLYLINE
5
120
100
AcDbEntity
8
0
100
AcDbPolyline
90
4
70
1
43
0.0
10
267.24400000000003
20
77.433800000000005
10
267.24400000000003
20
91.433099999999996
10
253.245
20
91.433099999999996
10
253.245
20
77.433800000000005
0
LWPOLYLINE
5
121
100
AcDbEntity
8
0
100
AcDbPolyline
90
4
70
1
43
0.0
10
257.71900000000005
20
110.48309999999999
10
243.72
20
110.48309999999999
10
243.72
20
96.483800000000002
10
257.71900000000005
20
96.483800000000002
0
LWPOLYLINE
5
122
100
AcDbEntity
8
0
100
AcDbPolyline
90
4
70
1
43
0.0
10
181.80700000000002
20
58.383800000000001
10
195.80700000000004
20
58.383800000000001
10
195.80700000000004
20
72.383099999999999
10
181.80700000000002
20
72.383099999999999
0
LWPOLYLINE
5
123
100
AcDbEntity
8
0
100
AcDbPolyline
90
4
70
1
43
0.0
10
105.319
20
129.53299999999999
10
91.319699999999983
20
129.53299999999999
10
91.319699999999983
20
115.53380000000001
10
105.319
20
115.53380000000001
0
LWPOLYLINE
5
124
100
AcDbEntity
8
0
100
AcDbPolyline
90
4
70
1
43
0.0
10
171.994
20
77.433800000000005
10
171.994
20
91.433099999999996
10
157.995
20
91.433099999999996
10
157.995
20
77.433800000000005
0
LWPOLYLINE
5
125
=======
42.550899999999999
20
51.8628
10
49.300399999999996
20
51.8628
10
49.300399999999996
20
48.632600000000004
10
50.125900000000001
20
48.632600000000004
10
50.125900000000001
20
45.833799999999997
10
49.300399999999996
20
45.833799999999997
10
49.300399999999996
20
39.563800000000001
10
47.575200000000002
20
39.563800000000001
10
47.575200000000002
20
38.363500000000002
10
44.274799999999999
20
38.363500000000002
10
44.274799999999999
20
39.333599999999997
10
41.025400000000005
20
39.333599999999997
10
27.0259
20
39.333599999999997
10
23.775100000000002
20
39.333599999999997
10
23.775100000000002
20
38.363500000000002
10
20.476089999999999
20
38.363500000000002
10
20.476089999999999
20
39.563800000000001
10
18.750800000000002
20
39.563800000000001
10
18.750800000000002
20
45.833799999999997
10
17.925330000000002
20
45.833799999999997
10
17.925330000000002
20
48.632600000000004
10
18.750800000000002
20
48.632600000000004
10
18.750800000000002
20
51.8628
10
25.500399999999999
20
51.8628
10
27.0259
20
51.8628
10
27.0259
20
53.332999999999998
10
41.025400000000005
20
53.332999999999998
10
41.025400000000005
20
51.8628
0
LWPOLYLINE
5
119
>>>>>>> c69146599d757b68716b7adcbbe8b3e26b33cf29
100
AcDbEntity
8
0
100
AcDbPolyline
90
4
70
1
43
0.0
10
<<<<<<< HEAD
295.81900000000007
20
144.10900000000001
10
295.81900000000007
20
158.108
10
281.82000000000005
20
158.108
10
281.82000000000005
20
144.10900000000001
0
LWPOLYLINE
5
126
=======
196.095
20
77.433800000000005
10
210.09400000000002
20
77.433800000000005
10
210.09400000000002
20
91.433099999999996
10
196.095
20
91.433099999999996
0
LWPOLYLINE
5
120
>>>>>>> c69146599d757b68716b7adcbbe8b3e26b33cf29
100
AcDbEntity
8
0
100
AcDbPolyline
90
<<<<<<< HEAD
4
=======
40
>>>>>>> c69146599d757b68716b7adcbbe8b3e26b33cf29
70
1
43
0.0
10
<<<<<<< HEAD
243.72
20
34.283100000000005
10
243.72
20
20.283639999999998
10
257.71900000000005
20
20.283639999999998
10
257.71900000000005
20
34.283100000000005
0
LWPOLYLINE
5
127
=======
90.186999999999983
20
26.783839999999998
10
89.362899999999996
20
26.783839999999998
10
89.362899999999996
20
29.584000000000003
10
90.186999999999983
20
29.584000000000003
10
90.186999999999983
20
32.812799999999996
10
96.938100000000006
20
32.812799999999996
10
99.93810000000002
20
32.812799999999996
10
99.93810000000002
20
29.584000000000003
10
136.56200000000001
20
29.584000000000003
10
136.56200000000001
20
34.283100000000005
10
150.56299999999999
20
34.283100000000005
10
150.56299999999999
20
29.584000000000003
10
187.18700000000001
20
29.584000000000003
10
187.18700000000001
20
32.812799999999996
10
190.18700000000001
20
32.812799999999996
10
196.93799999999999
20
32.812799999999996
10
196.93799999999999
20
29.584000000000003
10
197.762
20
29.584000000000003
10
197.762
20
26.783839999999998
10
196.93799999999999
20
26.783839999999998
10
196.93799999999999
20
20.513770000000001
10
195.21299999999999
20
20.513770000000001
10
195.21299999999999
20
19.313500000000001
10
191.91200000000003
20
19.313500000000001
10
191.91200000000003
20
20.513770000000001
10
190.18700000000001
20
20.513770000000001
10
187.18700000000001
20
20.513770000000001
10
187.18700000000001
20
24.982730000000004
10
150.56299999999999
20
24.982730000000004
10
150.56299999999999
20
20.283639999999998
10
136.56200000000001
20
20.283639999999998
10
136.56200000000001
20
24.982730000000004
10
99.93810000000002
20
24.982730000000004
10
99.93810000000002
20
20.513770000000001
10
96.938100000000006
20
20.513770000000001
10
95.212599999999995
20
20.513770000000001
10
95.212599999999995
20
19.313500000000001
10
91.911999999999978
20
19.313500000000001
10
91.911999999999978
20
20.513770000000001
10
90.186999999999983
20
20.513770000000001
0
LWPOLYLINE
5
121
100
AcDbEntity
8
0
100
AcDbPolyline
90
4
70
1
43
0.0
10
177.04499999999999
20
91.433099999999996
10
177.04499999999999
20
77.433800000000005
10
191.04400000000001
20
77.433800000000005
10
191.04400000000001
20
91.433099999999996
0
LWPOLYLINE
5
122
100
AcDbEntity
8
0
100
AcDbPolyline
90
4
70
1
43
0.0
10
267.24400000000003
20
77.433800000000005
10
267.24400000000003
20
91.433099999999996
10
253.245
20
91.433099999999996
10
253.245
20
77.433800000000005
0
LWPOLYLINE
5
123
100
AcDbEntity
8
0
100
AcDbPolyline
90
4
70
1
43
0.0
10
257.71900000000005
20
110.48309999999999
10
243.72
20
110.48309999999999
10
243.72
20
96.483800000000002
10
257.71900000000005
20
96.483800000000002
0
LWPOLYLINE
5
124
100
AcDbEntity
8
0
100
AcDbPolyline
90
4
70
1
43
0.0
10
181.80700000000002
20
58.383800000000001
10
195.80700000000004
20
58.383800000000001
10
195.80700000000004
20
72.383099999999999
10
181.80700000000002
20
72.383099999999999
0
LWPOLYLINE
5
125
100
AcDbEntity
8
0
100
AcDbPolyline
90
4
70
1
43
0.0
10
105.319
20
129.53299999999999
10
91.319699999999983
20
129.53299999999999
10
91.319699999999983
20
115.53380000000001
10
105.319
20
115.53380000000001
0
LWPOLYLINE
5
126
100
AcDbEntity
8
0
100
AcDbPolyline
90
4
70
1
43
0.0
10
171.994
20
77.433800000000005
10
171.994
20
91.433099999999996
10
157.995
20
91.433099999999996
10
157.995
20
77.433800000000005
0
LWPOLYLINE
5
127
100
AcDbEntity
8
0
100
AcDbPolyline
90
4
70
1
43
0.0
10
295.81900000000007
20
144.10900000000001
10
295.81900000000007
20
158.108
10
281.82000000000005
20
158.108
10
281.82000000000005
20
144.10900000000001
0
LWPOLYLINE
5
128
100
AcDbEntity
8
0
100
AcDbPolyline
90
4
70
1
43
0.0
10
243.72
20
34.283100000000005
10
243.72
20
20.283639999999998
10
257.71900000000005
20
20.283639999999998
10
257.71900000000005
20
34.283100000000005
0
LWPOLYLINE
5
129
>>>>>>> c69146599d757b68716b7adcbbe8b3e26b33cf29
100
AcDbEntity
8
0
100
AcDbPolyline
90
4
70
1
43
0.0
10
134.18200000000002
20
53.332999999999998
10
134.18200000000002
20
39.333599999999997
10
148.18200000000002
20
39.333599999999997
10
148.18200000000002
20
53.332999999999998
0
LWPOLYLINE
5
<<<<<<< HEAD
128
=======
130
>>>>>>> c69146599d757b68716b7adcbbe8b3e26b33cf29
100
AcDbEntity
8
0
100
AcDbPolyline
90
4
70
1
43
0.0
10
224.38200000000001
20
53.332999999999998
10
210.38200000000003
20
53.332999999999998
10
210.38200000000003
20
39.333599999999997
10
224.38200000000001
20
39.333599999999997
0
LWPOLYLINE
5
<<<<<<< HEAD
129
=======
131
>>>>>>> c69146599d757b68716b7adcbbe8b3e26b33cf29
100
AcDbEntity
8
0
100
AcDbPolyline
90
4
70
1
43
0.0
10
86.557199999999995
20
58.383800000000001
10
100.5565
20
58.383800000000001
10
100.5565
20
72.383099999999999
10
86.557199999999995
20
72.383099999999999
0
LWPOLYLINE
5
<<<<<<< HEAD
130
=======
132
>>>>>>> c69146599d757b68716b7adcbbe8b3e26b33cf29
100
AcDbEntity
8
0
100
AcDbPolyline
90
4
70
1
43
0.0
10
255.626
20
39.333599999999997
10
269.625
20
39.333599999999997
10
269.625
20
53.332999999999998
10
255.626
20
53.332999999999998
0
LWPOLYLINE
5
<<<<<<< HEAD
131
=======
133
>>>>>>> c69146599d757b68716b7adcbbe8b3e26b33cf29
100
AcDbEntity
8
0
100
AcDbPolyline
90
4
70
1
43
0.0
10
41.311999999999998
20
20.283639999999998
10
55.31280000000001
20
20.283639999999998
10
55.31280000000001
20
34.283100000000005
10
41.311999999999998
20
34.283100000000005
0
LWPOLYLINE
5
<<<<<<< HEAD
132
=======
134
100
AcDbEntity
8
0
100
AcDbPolyline
90
4
70
1
43
0.0
10
138.94499999999999
20
91.433099999999996
10
138.94499999999999
20
77.433800000000005
10
152.94399999999999
20
77.433800000000005
10
152.94399999999999
20
91.433099999999996
0
LWPOLYLINE
5
135
>>>>>>> c69146599d757b68716b7adcbbe8b3e26b33cf29
100
AcDbEntity
8
0
100
AcDbPolyline
90
4
70
1
43
0.0
10
<<<<<<< HEAD
138.94499999999999
20
91.433099999999996
10
138.94499999999999
20
77.433800000000005
10
152.94399999999999
20
77.433800000000005
10
152.94399999999999
20
91.433099999999996
0
LWPOLYLINE
5
133
=======
143.41899999999998
20
110.48309999999999
10
129.41800000000001
20
110.48309999999999
10
129.41800000000001
20
96.483800000000002
10
143.41899999999998
20
96.483800000000002
0
LWPOLYLINE
5
136
>>>>>>> c69146599d757b68716b7adcbbe8b3e26b33cf29
100
AcDbEntity
8
0
100
AcDbPolyline
90
<<<<<<< HEAD
4
=======
28
>>>>>>> c69146599d757b68716b7adcbbe8b3e26b33cf29
70
1
43
0.0
10
<<<<<<< HEAD
143.41899999999998
20
110.48309999999999
10
129.41800000000001
20
110.48309999999999
10
129.41800000000001
20
96.483800000000002
10
143.41899999999998
20
96.483800000000002
0
LWPOLYLINE
5
134
=======
264.01999999999998
20
96.713800000000006
10
264.01999999999998
20
102.9837
10
263.19400000000002
20
102.9837
10
263.19400000000002
20
105.7826
10
264.01999999999998
20
105.7826
10
264.01999999999998
20
109.0127
10
270.76900000000001
20
109.0127
10
272.29500000000002
20
109.0127
10
272.29500000000002
20
110.48309999999999
10
286.29400000000004
20
110.48309999999999
10
286.29400000000004
20
109.0127
10
287.81999999999999
20
109.0127
10
294.56900000000007
20
109.0127
10
294.56900000000007
20
105.7826
10
295.39499999999998
20
105.7826
10
295.39499999999998
20
102.9837
10
294.56900000000007
20
102.9837
10
294.56900000000007
20
96.713800000000006
10
292.84399999999999
20
96.713800000000006
10
292.84399999999999
20
95.513599999999997
10
289.54500000000002
20
95.513599999999997
10
289.54500000000002
20
96.483800000000002
10
286.29400000000004
20
96.483800000000002
10
272.29500000000002
20
96.483800000000002
10
269.04400000000004
20
96.483800000000002
10
269.04400000000004
20
95.513599999999997
10
265.74299999999999
20
95.513599999999997
10
265.74299999999999
20
96.713800000000006
0
LWPOLYLINE
5
137
>>>>>>> c69146599d757b68716b7adcbbe8b3e26b33cf29
100
AcDbEntity
8
0
100
AcDbPolyline
90
4
70
1
43
0.0
10
162.46899999999999
20
110.48309999999999
10
148.47000000000003
20
110.48309999999999
10
148.47000000000003
20
96.483800000000002
10
162.46899999999999
20
96.483800000000002
0
LWPOLYLINE
5
<<<<<<< HEAD
135
=======
138
>>>>>>> c69146599d757b68716b7adcbbe8b3e26b33cf29
100
AcDbEntity
8
0
100
AcDbPolyline
90
4
70
1
43
0.0
10
167.52000000000004
20
158.108
10
167.52000000000004
20
144.10900000000001
10
181.51900000000001
20
144.10900000000001
10
181.51900000000001
20
158.108
0
LWPOLYLINE
5
<<<<<<< HEAD
136
=======
139
>>>>>>> c69146599d757b68716b7adcbbe8b3e26b33cf29
100
AcDbEntity
8
0
100
AcDbPolyline
90
4
70
1
43
0.0
10
57.694000000000003
20
77.433800000000005
10
57.694000000000003
20
91.433099999999996
10
43.694699999999997
20
91.433099999999996
10
43.694699999999997
20
77.433800000000005
0
LWPOLYLINE
5
<<<<<<< HEAD
137
=======
140
>>>>>>> c69146599d757b68716b7adcbbe8b3e26b33cf29
100
AcDbEntity
8
0
100
AcDbPolyline
90
4
70
1
43
0.0
10
110.36830000000002
20
158.108
10
110.36830000000002
20
144.10900000000001
10
124.36900000000001
20
144.10900000000001
10
124.36900000000001
20
158.108
0
LWPOLYLINE
5
<<<<<<< HEAD
138
=======
141
>>>>>>> c69146599d757b68716b7adcbbe8b3e26b33cf29
100
AcDbEntity
8
0
100
AcDbPolyline
90
4
70
1
43
0.0
10
200.857
20
72.383099999999999
10
200.857
20
58.383800000000001
10
214.85700000000003
20
58.383800000000001
10
214.85700000000003
20
72.383099999999999
0
LWPOLYLINE
5
<<<<<<< HEAD
139
=======
142
>>>>>>> c69146599d757b68716b7adcbbe8b3e26b33cf29
100
AcDbEntity
8
0
100
AcDbPolyline
90
4
70
1
43
0.0
10
72.2697
20
158.108
10
72.2697
20
144.10900000000001
10
86.268999999999991
20
144.10900000000001
10
86.268999999999991
20
158.108
0
LWPOLYLINE
5
<<<<<<< HEAD
140
=======
143
>>>>>>> c69146599d757b68716b7adcbbe8b3e26b33cf29
100
AcDbEntity
8
0
100
AcDbPolyline
90
4
70
1
43
0.0
10
148.47000000000003
20
129.53299999999999
10
148.47000000000003
20
115.53380000000001
10
162.46899999999999
20
115.53380000000001
10
162.46899999999999
20
129.53299999999999
0
LWPOLYLINE
5
<<<<<<< HEAD
141
=======
144
>>>>>>> c69146599d757b68716b7adcbbe8b3e26b33cf29
100
AcDbEntity
8
0
100
AcDbPolyline
90
4
70
1
43
0.0
10
191.33199999999999
20
39.333599999999997
10
205.33199999999999
20
39.333599999999997
10
205.33199999999999
20
53.332999999999998
10
191.33199999999999
20
53.332999999999998
0
LWPOLYLINE
5
<<<<<<< HEAD
142
=======
145
>>>>>>> c69146599d757b68716b7adcbbe8b3e26b33cf29
100
AcDbEntity
8
0
100
AcDbPolyline
90
4
70
1
43
0.0
10
124.36900000000001
20
115.53380000000001
10
124.36900000000001
20
129.53299999999999
10
110.36830000000002
20
129.53299999999999
10
110.36830000000002
20
115.53380000000001
0
LWPOLYLINE
5
<<<<<<< HEAD
143
=======
146
>>>>>>> c69146599d757b68716b7adcbbe8b3e26b33cf29
100
AcDbEntity
8
0
100
AcDbPolyline
90
4
70
1
43
0.0
10
91.319699999999983
20
110.48309999999999
10
91.319699999999983
20
96.483800000000002
10
105.319
20
96.483800000000002
10
105.319
20
110.48309999999999
0
LWPOLYLINE
5
<<<<<<< HEAD
144
=======
147
>>>>>>> c69146599d757b68716b7adcbbe8b3e26b33cf29
100
AcDbEntity
8
0
100
AcDbPolyline
90
4
70
1
43
0.0
10
15.11965
20
139.05799999999999
10
15.11965
20
134.584
10
29.119200000000003
20
134.584
10
<<<<<<< HEAD
29.119200000000003
20
139.05799999999999
0
LWPOLYLINE
5
145
100
AcDbEntity
8
0
100
AcDbPolyline
90
34
70
1
43
0.0
10
150.56299999999999
20
24.982730000000004
10
150.56299999999999
20
20.283639999999998
10
136.56200000000001
20
20.283639999999998
10
136.56200000000001
20
24.982730000000004
10
99.93810000000002
20
24.982730000000004
10
99.93810000000002
20
20.513770000000001
10
99.93810000000002
20
19.913634999999999
10
99.93810000000002
20
19.313500000000001
10
95.212599999999995
20
19.313500000000001
10
91.911999999999978
20
19.313500000000001
10
89.362899999999996
20
19.313500000000001
10
87.362899999999996
20
19.313500000000001
10
87.362899999999996
20
33.812799999999996
10
89.362899999999996
20
33.812799999999996
10
99.93810000000002
20
33.812799999999996
10
99.93810000000002
20
32.812799999999996
10
99.93810000000002
20
29.584000000000003
10
136.56200000000001
20
29.584000000000003
10
136.56200000000001
20
34.283100000000005
10
150.56299999999999
20
34.283100000000005
10
150.56299999999999
20
29.584000000000003
10
187.18700000000001
20
29.584000000000003
10
187.18700000000001
20
32.812799999999996
10
187.18700000000001
20
33.812799999999996
10
197.762
20
33.812799999999996
10
199.762
20
33.812799999999996
10
199.762
20
19.313500000000001
10
197.762
20
19.313500000000001
10
195.21299999999999
20
19.313500000000001
10
191.91200000000003
20
19.313500000000001
10
187.18700000000001
20
19.313500000000001
10
187.18700000000001
20
19.913634999999999
10
187.18700000000001
20
20.513770000000001
10
187.18700000000001
20
24.982730000000004
0
LWPOLYLINE
5
146
=======
29.119200000000003
20
139.05799999999999
0
LWPOLYLINE
5
148
>>>>>>> c69146599d757b68716b7adcbbe8b3e26b33cf29
100
AcDbEntity
8
0
100
AcDbPolyline
90
4
70
1
43
0.0
10
19.882159999999999
20
91.433099999999996
10
19.882159999999999
20
77.433800000000005
10
33.881700000000002
20
77.433800000000005
10
33.881700000000002
20
91.433099999999996
0
LWPOLYLINE
5
<<<<<<< HEAD
147
=======
149
>>>>>>> c69146599d757b68716b7adcbbe8b3e26b33cf29
100
AcDbEntity
8
0
100
AcDbPolyline
90
4
70
1
43
0.0
10
238.66900000000001
20
115.53380000000001
10
238.66900000000001
20
129.53299999999999
10
224.66999999999999
20
129.53299999999999
10
224.66999999999999
20
115.53380000000001
0
LWPOLYLINE
5
<<<<<<< HEAD
148
=======
150
>>>>>>> c69146599d757b68716b7adcbbe8b3e26b33cf29
100
AcDbEntity
8
0
100
AcDbPolyline
90
4
70
1
43
0.0
10
48.169000000000004
20
158.108
10
34.169699999999999
20
158.108
10
34.169699999999999
20
144.10900000000001
10
48.169000000000004
20
144.10900000000001
0
LWPOLYLINE
5
<<<<<<< HEAD
149
=======
151
>>>>>>> c69146599d757b68716b7adcbbe8b3e26b33cf29
100
AcDbEntity
8
0
100
AcDbPolyline
90
4
70
1
43
0.0
10
276.76900000000001
20
34.283100000000005
10
262.76999999999998
20
34.283100000000005
10
262.76999999999998
20
20.283639999999998
10
276.76900000000001
20
20.283639999999998
0
LWPOLYLINE
5
<<<<<<< HEAD
150
=======
152
>>>>>>> c69146599d757b68716b7adcbbe8b3e26b33cf29
100
AcDbEntity
8
0
100
AcDbPolyline
90
4
70
1
43
0.0
10
77.032200000000003
20
53.332999999999998
10
77.032200000000003
20
39.333599999999997
10
91.031499999999994
20
39.333599999999997
10
91.031499999999994
20
53.332999999999998
0
LWPOLYLINE
5
<<<<<<< HEAD
151
=======
153
>>>>>>> c69146599d757b68716b7adcbbe8b3e26b33cf29
100
AcDbEntity
8
0
100
AcDbPolyline
90
4
70
1
43
0.0
10
219.61900000000003
20
20.283639999999998
10
219.61900000000003
20
34.283100000000005
10
205.62
20
34.283100000000005
10
205.62
20
20.283639999999998
0
LWPOLYLINE
5
<<<<<<< HEAD
152
=======
154
>>>>>>> c69146599d757b68716b7adcbbe8b3e26b33cf29
100
AcDbEntity
8
0
100
AcDbPolyline
90
4
70
1
43
0.0
10
205.62
20
129.53299999999999
10
205.62
20
115.53380000000001
10
219.61900000000003
20
115.53380000000001
10
219.61900000000003
20
129.53299999999999
0
LWPOLYLINE
5
<<<<<<< HEAD
153
=======
155
>>>>>>> c69146599d757b68716b7adcbbe8b3e26b33cf29
100
AcDbEntity
8
0
100
AcDbPolyline
90
4
70
1
43
0.0
10
100.84470000000002
20
91.433099999999996
10
100.84470000000002
20
77.433800000000005
10
114.84400000000001
20
77.433800000000005
10
114.84400000000001
20
91.433099999999996
0
LWPOLYLINE
5
<<<<<<< HEAD
154
=======
156
>>>>>>> c69146599d757b68716b7adcbbe8b3e26b33cf29
100
AcDbEntity
8
0
100
AcDbPolyline
90
4
70
1
43
0.0
10
219.61900000000003
20
110.48309999999999
10
205.62
20
110.48309999999999
10
205.62
20
96.483800000000002
10
219.61900000000003
20
96.483800000000002
0
LWPOLYLINE
5
<<<<<<< HEAD
155
=======
157
>>>>>>> c69146599d757b68716b7adcbbe8b3e26b33cf29
100
AcDbEntity
8
0
100
AcDbPolyline
90
4
70
1
43
0.0
10
67.507199999999997
20
72.383099999999999
10
67.507199999999997
20
58.383800000000001
10
81.506500000000003
20
58.383800000000001
10
81.506500000000003
20
72.383099999999999
0
LWPOLYLINE
5
<<<<<<< HEAD
156
=======
158
>>>>>>> c69146599d757b68716b7adcbbe8b3e26b33cf29
100
AcDbEntity
8
0
100
AcDbPolyline
90
4
70
1
43
0.0
10
48.4572
20
58.383800000000001
10
62.456500000000005
20
58.383800000000001
10
62.456500000000005
20
72.383099999999999
10
48.4572
20
72.383099999999999
0
LWPOLYLINE
5
<<<<<<< HEAD
157
=======
159
>>>>>>> c69146599d757b68716b7adcbbe8b3e26b33cf29
100
AcDbEntity
8
0
100
AcDbPolyline
90
4
70
1
43
0.0
10
172.28200000000001
20
53.332999999999998
10
172.28200000000001
20
39.333599999999997
10
186.28200000000004
20
39.333599999999997
10
186.28200000000004
20
53.332999999999998
0
LWPOLYLINE
5
<<<<<<< HEAD
158
=======
160
>>>>>>> c69146599d757b68716b7adcbbe8b3e26b33cf29
100
AcDbEntity
8
0
100
AcDbPolyline
90
4
70
1
43
0.0
10
234.19499999999999
20
91.433099999999996
10
234.19499999999999
20
77.433800000000005
10
248.19400000000002
20
77.433800000000005
10
248.19400000000002
20
91.433099999999996
0
LWPOLYLINE
5
<<<<<<< HEAD
159
=======
161
>>>>>>> c69146599d757b68716b7adcbbe8b3e26b33cf29
100
AcDbEntity
8
0
100
AcDbPolyline
90
4
70
1
43
0.0
10
67.218999999999994
20
96.483800000000002
10
67.218999999999994
20
110.48309999999999
10
53.219700000000003
20
110.48309999999999
10
53.219700000000003
20
96.483800000000002
0
LWPOLYLINE
5
<<<<<<< HEAD
160
=======
162
>>>>>>> c69146599d757b68716b7adcbbe8b3e26b33cf29
100
AcDbEntity
8
0
100
AcDbPolyline
90
4
70
1
43
0.0
10
48.169000000000004
20
96.483800000000002
10
48.169000000000004
20
110.48309999999999
10
34.169699999999999
20
110.48309999999999
10
34.169699999999999
20
96.483800000000002
0
LWPOLYLINE
5
<<<<<<< HEAD
161
=======
163
>>>>>>> c69146599d757b68716b7adcbbe8b3e26b33cf29
100
AcDbEntity
8
0
100
AcDbPolyline
90
4
70
1
43
0.0
10
314.86900000000003
20
158.108
10
300.87
20
158.108
10
300.87
20
144.10900000000001
10
314.86900000000003
20
144.10900000000001
0
LWPOLYLINE
5
<<<<<<< HEAD
162
=======
164
>>>>>>> c69146599d757b68716b7adcbbe8b3e26b33cf29
100
AcDbEntity
8
0
100
AcDbPolyline
90
4
70
1
43
0.0
10
76.744
20
77.433800000000005
10
76.744
20
91.433099999999996
10
62.744700000000009
20
91.433099999999996
10
62.744700000000009
20
77.433800000000005
0
LWPOLYLINE
5
<<<<<<< HEAD
163
=======
165
>>>>>>> c69146599d757b68716b7adcbbe8b3e26b33cf29
100
AcDbEntity
8
0
100
AcDbPolyline
90
4
70
1
43
0.0
10
238.66900000000001
20
158.108
10
224.66999999999999
20
158.108
10
224.66999999999999
20
144.10900000000001
10
238.66900000000001
20
144.10900000000001
0
LWPOLYLINE
5
<<<<<<< HEAD
164
100
AcDbEntity
8
0
100
AcDbPolyline
90
18
70
1
43
0.0
10
289.54500000000002
20
95.513599999999997
10
289.54500000000002
20
96.483800000000002
10
286.29400000000004
20
96.483800000000002
10
272.29500000000002
20
96.483800000000002
10
269.04400000000004
20
96.483800000000002
10
269.04400000000004
20
95.513599999999997
10
265.74299999999999
20
95.513599999999997
10
263.19400000000002
20
95.513599999999997
10
262.19400000000002
20
95.513599999999997
10
262.19400000000002
20
110.48309999999999
10
263.19400000000002
20
110.48309999999999
10
272.29500000000002
20
110.48309999999999
10
286.29400000000004
20
110.48309999999999
10
295.39499999999998
20
110.48309999999999
10
296.39500000000004
20
110.48309999999999
10
296.39500000000004
20
95.513599999999997
10
295.39499999999998
20
95.513599999999997
10
292.84399999999999
20
95.513599999999997
0
LWPOLYLINE
5
165
=======
166
>>>>>>> c69146599d757b68716b7adcbbe8b3e26b33cf29
100
AcDbEntity
8
0
100
AcDbPolyline
90
4
70
1
43
0.0
10
295.81900000000007
20
20.283639999999998
10
295.81900000000007
20
34.283100000000005
10
281.82000000000005
20
34.283100000000005
10
281.82000000000005
20
20.283639999999998
0
LWPOLYLINE
5
<<<<<<< HEAD
166
=======
167
>>>>>>> c69146599d757b68716b7adcbbe8b3e26b33cf29
100
AcDbEntity
8
0
100
AcDbPolyline
90
4
70
1
43
0.0
10
36.262900000000002
20
58.383800000000001
10
36.262900000000002
20
72.383099999999999
10
22.262029999999999
20
72.383099999999999
10
22.262029999999999
20
58.383800000000001
0
LWPOLYLINE
5
<<<<<<< HEAD
167
=======
168
>>>>>>> c69146599d757b68716b7adcbbe8b3e26b33cf29
100
AcDbEntity
8
0
100
AcDbPolyline
90
4
70
1
43
0.0
10
110.36830000000002
20
110.48309999999999
10
110.36830000000002
20
96.483800000000002
10
124.36900000000001
20
96.483800000000002
10
124.36900000000001
20
110.48309999999999
0
LWPOLYLINE
5
<<<<<<< HEAD
168
=======
169
>>>>>>> c69146599d757b68716b7adcbbe8b3e26b33cf29
100
AcDbEntity
8
0
100
AcDbPolyline
90
4
70
1
43
0.0
10
295.81900000000007
20
53.332999999999998
10
281.82000000000005
20
53.332999999999998
10
281.82000000000005
20
39.333599999999997
10
295.81900000000007
20
39.333599999999997
0
LWPOLYLINE
5
<<<<<<< HEAD
169
=======
170
>>>>>>> c69146599d757b68716b7adcbbe8b3e26b33cf29
100
AcDbEntity
8
0
100
AcDbPolyline
90
4
70
1
43
0.0
10
243.72
20
115.53380000000001
10
257.71900000000005
20
115.53380000000001
10
257.71900000000005
20
129.53299999999999
10
243.72
20
129.53299999999999
0
LWPOLYLINE
5
<<<<<<< HEAD
170
=======
171
>>>>>>> c69146599d757b68716b7adcbbe8b3e26b33cf29
100
AcDbEntity
8
0
100
AcDbPolyline
90
4
70
1
43
0.0
10
300.87
20
72.383099999999999
10
300.87
20
58.383800000000001
10
314.86900000000003
20
58.383800000000001
10
314.86900000000003
20
72.383099999999999
0
LWPOLYLINE
5
<<<<<<< HEAD
171
=======
172
>>>>>>> c69146599d757b68716b7adcbbe8b3e26b33cf29
100
AcDbEntity
8
0
100
AcDbPolyline
90
4
70
1
43
0.0
10
186.56999999999999
20
115.53380000000001
10
200.56900000000002
20
115.53380000000001
10
200.56900000000002
20
129.53299999999999
10
186.56999999999999
20
129.53299999999999
0
LWPOLYLINE
5
<<<<<<< HEAD
172
=======
173
>>>>>>> c69146599d757b68716b7adcbbe8b3e26b33cf29
100
AcDbEntity
8
0
100
AcDbPolyline
90
4
70
1
43
0.0
10
162.75700000000001
20
72.383099999999999
10
162.75700000000001
20
58.383800000000001
10
176.75700000000003
20
58.383800000000001
10
176.75700000000003
20
72.383099999999999
0
LWPOLYLINE
5
<<<<<<< HEAD
173
=======
174
>>>>>>> c69146599d757b68716b7adcbbe8b3e26b33cf29
100
AcDbEntity
8
0
100
AcDbPolyline
90
4
70
1
43
0.0
10
143.70699999999999
20
58.383800000000001
10
157.70699999999999
20
58.383800000000001
10
157.70699999999999
20
72.383099999999999
10
143.70699999999999
20
72.383099999999999
0
LWPOLYLINE
5
<<<<<<< HEAD
174
=======
175
>>>>>>> c69146599d757b68716b7adcbbe8b3e26b33cf29
100
AcDbEntity
8
0
100
AcDbPolyline
90
4
70
1
43
0.0
10
96.082200000000014
20
39.333599999999997
10
110.08150000000001
20
39.333599999999997
10
110.08150000000001
20
53.332999999999998
10
96.082200000000014
20
53.332999999999998
0
LWPOLYLINE
5
<<<<<<< HEAD
175
=======
176
>>>>>>> c69146599d757b68716b7adcbbe8b3e26b33cf29
100
AcDbEntity
8
0
100
AcDbPolyline
90
4
70
1
43
0.0
10
314.86900000000003
20
53.332999999999998
10
300.87
20
53.332999999999998
10
300.87
20
39.333599999999997
10
314.86900000000003
20
39.333599999999997
0
LWPOLYLINE
5
<<<<<<< HEAD
176
=======
177
>>>>>>> c69146599d757b68716b7adcbbe8b3e26b33cf29
100
AcDbEntity
8
0
100
AcDbPolyline
90
4
70
1
43
0.0
10
143.41899999999998
20
115.53380000000001
10
143.41899999999998
20
129.53299999999999
10
129.41800000000001
20
129.53299999999999
10
129.41800000000001
20
115.53380000000001
0
LWPOLYLINE
5
<<<<<<< HEAD
177
=======
178
>>>>>>> c69146599d757b68716b7adcbbe8b3e26b33cf29
100
AcDbEntity
8
0
100
AcDbPolyline
90
4
70
1
43
0.0
10
186.56999999999999
20
96.483800000000002
10
200.56900000000002
20
96.483800000000002
10
200.56900000000002
20
110.48309999999999
10
186.56999999999999
20
110.48309999999999
0
CIRCLE
5
<<<<<<< HEAD
178
=======
179
>>>>>>> c69146599d757b68716b7adcbbe8b3e26b33cf29
100
AcDbEntity
8
0
100
AcDbCircle
10
241.19450000000001
20
94.214154439318378
30
0
40
1.3500000000000001
210
0
220
0
230
1
0
LWPOLYLINE
5
<<<<<<< HEAD
179
=======
180
>>>>>>> c69146599d757b68716b7adcbbe8b3e26b33cf29
100
AcDbEntity
8
0
100
AcDbPolyline
90
4
70
1
43
0.0
10
138.65700000000001
20
72.383099999999999
10
124.65700000000001
20
72.383099999999999
10
124.65700000000001
20
58.383800000000001
10
138.65700000000001
20
58.383800000000001
0
LWPOLYLINE
5
<<<<<<< HEAD
180
=======
181
>>>>>>> c69146599d757b68716b7adcbbe8b3e26b33cf29
100
AcDbEntity
8
0
100
AcDbPolyline
90
4
70
1
43
0.0
10
314.86900000000003
20
34.283100000000005
10
300.87
20
34.283100000000005
10
300.87
20
20.283639999999998
10
314.86900000000003
20
20.283639999999998
0
LWPOLYLINE
5
<<<<<<< HEAD
181
=======
182
>>>>>>> c69146599d757b68716b7adcbbe8b3e26b33cf29
100
AcDbEntity
8
0
100
AcDbPolyline
90
4
70
1
43
0.0
10
129.13200000000001
20
39.333599999999997
10
129.13200000000001
20
53.332999999999998
10
115.13200000000001
20
53.332999999999998
10
115.13200000000001
20
39.333599999999997
0
LWPOLYLINE
5
<<<<<<< HEAD
182
=======
183
>>>>>>> c69146599d757b68716b7adcbbe8b3e26b33cf29
100
AcDbEntity
8
0
100
AcDbPolyline
90
4
70
1
43
0.0
10
224.66999999999999
20
110.48309999999999
10
224.66999999999999
20
96.483800000000002
10
238.66900000000001
20
96.483800000000002
10
238.66900000000001
20
110.48309999999999
0
LWPOLYLINE
5
<<<<<<< HEAD
183
=======
184
>>>>>>> c69146599d757b68716b7adcbbe8b3e26b33cf29
100
AcDbEntity
8
0
100
AcDbPolyline
90
4
70
1
43
0.0
10
243.43200000000002
20
53.332999999999998
10
229.43200000000004
20
53.332999999999998
10
229.43200000000004
20
39.333599999999997
10
243.43200000000002
20
39.333599999999997
0
LWPOLYLINE
5
<<<<<<< HEAD
184
=======
185
>>>>>>> c69146599d757b68716b7adcbbe8b3e26b33cf29
100
AcDbEntity
8
0
100
AcDbPolyline
90
4
70
1
43
0.0
10
243.72
20
158.108
10
243.72
20
144.10900000000001
10
257.71900000000005
20
144.10900000000001
10
257.71900000000005
20
158.108
0
LWPOLYLINE
5
<<<<<<< HEAD
185
=======
186
>>>>>>> c69146599d757b68716b7adcbbe8b3e26b33cf29
100
AcDbEntity
8
0
100
AcDbPolyline
90
4
70
1
43
0.0
10
53.219700000000003
20
144.10900000000001
10
67.218999999999994
20
144.10900000000001
10
67.218999999999994
20
158.108
10
53.219700000000003
20
158.108
0
LWPOLYLINE
5
<<<<<<< HEAD
186
=======
187
>>>>>>> c69146599d757b68716b7adcbbe8b3e26b33cf29
100
AcDbEntity
8
0
100
AcDbPolyline
90
4
70
1
43
0.0
10
295.81900000000007
20
115.53380000000001
10
295.81900000000007
20
129.53299999999999
10
281.82000000000005
20
129.53299999999999
10
281.82000000000005
20
115.53380000000001
0
LWPOLYLINE
5
<<<<<<< HEAD
187
=======
188
>>>>>>> c69146599d757b68716b7adcbbe8b3e26b33cf29
100
AcDbEntity
8
0
100
AcDbPolyline
90
4
70
1
43
0.0
10
252.95699999999999
20
72.383099999999999
10
238.95700000000002
20
72.383099999999999
10
238.95700000000002
20
58.383800000000001
10
252.95699999999999
20
58.383800000000001
0
LWPOLYLINE
5
<<<<<<< HEAD
188
=======
189
>>>>>>> c69146599d757b68716b7adcbbe8b3e26b33cf29
100
AcDbEntity
8
0
100
AcDbPolyline
90
4
70
1
43
0.0
10
65.126000000000005
20
34.283100000000005
10
65.126000000000005
20
20.283639999999998
10
79.12530000000001
20
20.283639999999998
10
79.12530000000001
20
34.283100000000005
0
LWPOLYLINE
5
<<<<<<< HEAD
189
=======
190
>>>>>>> c69146599d757b68716b7adcbbe8b3e26b33cf29
100
AcDbEntity
8
0
100
AcDbPolyline
90
4
70
1
43
0.0
10
119.60700000000003
20
58.383800000000001
10
119.60700000000003
20
72.383099999999999
10
105.60720000000002
20
72.383099999999999
10
105.60720000000002
20
58.383800000000001
0
<<<<<<< HEAD
LWPOLYLINE
5
190
100
AcDbEntity
8
0
100
AcDbPolyline
90
18
70
1
43
0.0
10
27.0259
20
53.332999999999998
10
41.025400000000005
20
53.332999999999998
10
50.125900000000001
20
53.332999999999998
10
51.125900000000001
20
53.332999999999998
10
51.125900000000001
20
38.363500000000002
10
50.125900000000001
20
38.363500000000002
10
47.575200000000002
20
38.363500000000002
10
44.274799999999999
20
38.363500000000002
10
44.274799999999999
20
39.333599999999997
10
41.025400000000005
20
39.333599999999997
10
27.0259
20
39.333599999999997
10
23.775100000000002
20
39.333599999999997
10
23.775100000000002
20
38.363500000000002
10
20.476089999999999
20
38.363500000000002
10
17.925330000000002
20
38.363500000000002
10
16.925330000000002
20
38.363500000000002
10
16.925330000000002
20
53.332999999999998
10
17.925330000000002
20
53.332999999999998
0
=======
>>>>>>> c69146599d757b68716b7adcbbe8b3e26b33cf29
CIRCLE
5
191
100
AcDbEntity
8
0
100
AcDbCircle
10
317.30000000000007
20
165.37499999999997
30
0
40
1.3500000000000001
210
0
220
0
230
1
0
LWPOLYLINE
5
192
100
AcDbEntity
8
0
100
AcDbPolyline
90
4
70
1
43
0.0
10
72.2697
20
110.48309999999999
10
72.2697
20
96.483800000000002
10
86.268999999999991
20
96.483800000000002
10
86.268999999999991
20
110.48309999999999
0
LWPOLYLINE
5
193
100
AcDbEntity
8
0
100
AcDbPolyline
90
4
70
1
43
0.0
10
262.76999999999998
20
115.53380000000001
10
276.76900000000001
20
115.53380000000001
10
276.76900000000001
20
129.53299999999999
10
262.76999999999998
20
129.53299999999999
0
LWPOLYLINE
5
194
100
AcDbEntity
8
0
100
AcDbPolyline
90
4
70
1
43
0.0
10
181.51900000000001
20
96.483800000000002
10
181.51900000000001
20
110.48309999999999
10
167.52000000000004
20
110.48309999999999
10
167.52000000000004
20
96.483800000000002
0
CIRCLE
5
195
100
AcDbEntity
8
0
100
AcDbCircle
10
88.952795940115251
20
94.214154439318378
30
0
40
1.3500000000000001
210
0
220
0
230
1
0
LWPOLYLINE
5
196
100
AcDbEntity
8
0
100
AcDbPolyline
90
4
70
1
43
0.0
10
300.87
20
96.483800000000002
10
314.86900000000003
20
96.483800000000002
10
314.86900000000003
20
110.48309999999999
10
300.87
20
110.48309999999999
0
LWPOLYLINE
5
197
100
AcDbEntity
8
0
100
AcDbPolyline
90
4
70
1
43
0.0
10
219.619
20
144.10900000000001
10
219.619
20
158.108
10
205.62
20
158.108
10
205.62
20
144.10900000000001
0
LWPOLYLINE
5
198
100
AcDbEntity
8
0
100
AcDbPolyline
90
4
70
1
43
0.0
10
162.46899999999999
20
158.108
10
148.47000000000003
20
158.108
10
148.47000000000003
20
144.10900000000001
10
162.46899999999999
20
144.10900000000001
0
LWPOLYLINE
5
199
100
AcDbEntity
8
0
100
AcDbPolyline
90
4
70
1
43
0.0
10
29.119200000000003
20
129.53299999999999
10
15.11965
20
129.53299999999999
10
15.11965
20
115.53380000000001
10
29.119200000000003
20
115.53380000000001
0
LWPOLYLINE
5
200
100
AcDbEntity
8
0
100
AcDbPolyline
90
4
70
1
43
0.0
10
219.90700000000004
20
72.383099999999999
10
219.90700000000004
20
58.383800000000001
10
233.90700000000004
20
58.383800000000001
10
233.90700000000004
20
72.383099999999999
0
LWPOLYLINE
5
201
100
AcDbEntity
8
0
100
AcDbPolyline
90
4
70
1
43
0.0
10
153.232
20
39.333599999999997
10
167.23199999999997
20
39.333599999999997
10
167.23199999999997
20
53.332999999999998
10
153.232
20
53.332999999999998
0
LWPOLYLINE
5
202
100
AcDbEntity
8
0
100
AcDbPolyline
90
4
70
1
43
0.0
10
57.982199999999999
20
39.333599999999997
10
71.981499999999997
20
39.333599999999997
10
71.981499999999997
20
53.332999999999998
10
57.982199999999999
20
53.332999999999998
0
LWPOLYLINE
5
203
100
AcDbEntity
8
0
100
AcDbPolyline
90
4
70
1
43
0.0
10
29.119200000000003
20
110.48309999999999
10
15.11965
20
110.48309999999999
10
15.11965
20
96.483800000000002
10
29.119200000000003
20
96.483800000000002
0
LWPOLYLINE
5
204
100
AcDbEntity
8
0
100
AcDbPolyline
90
4
70
1
43
0.0
10
29.119200000000003
20
158.108
10
15.11965
20
158.108
10
15.11965
20
144.10900000000001
10
29.119200000000003
20
144.10900000000001
0
CIRCLE
5
205
100
AcDbEntity
8
0
100
AcDbCircle
10
12.50000000000002
20
165.375
30
0
40
1.3500000000000001
210
0
220
0
230
1
0
CIRCLE
5
206
100
AcDbEntity
8
0
100
AcDbCircle
10
317.30000000000007
20
12.500000000000014
30
0
40
1.3500000000000001
210
0
220
0
230
1
0
CIRCLE
5
207
100
AcDbEntity
8
0
100
AcDbCircle
10
12.499999999999996
20
12.499999999999996
30
0
40
1.3500000000000001
210
0
220
0
230
1
0
LWPOLYLINE
5
208
100
AcDbEntity
8
0
100
AcDbPolyline
90
4
70
1
43
0.0
10
314.86900000000003
20
134.584
10
314.86900000000003
20
139.05799999999999
10
300.87
20
139.05799999999999
10
300.87
20
134.584
0
LWPOLYLINE
5
209
100
AcDbEntity
8
0
100
AcDbPolyline
90
4
70
1
43
0.0
10
34.169699999999999
20
134.584
10
34.169699999999999
20
139.05799999999999
10
48.169000000000004
20
139.05799999999999
10
48.169000000000004
20
134.584
0
LWPOLYLINE
5
210
100
AcDbEntity
8
0
100
AcDbPolyline
90
4
70
1
43
0.0
10
53.219700000000003
20
134.584
10
53.219700000000003
20
139.05799999999999
10
67.218999999999994
20
139.05799999999999
10
67.218999999999994
20
134.584
0
LWPOLYLINE
5
211
100
AcDbEntity
8
0
100
AcDbPolyline
90
4
70
1
43
0.0
10
72.2697
20
134.584
10
72.2697
20
139.05799999999999
10
86.268999999999991
20
139.05799999999999
10
86.268999999999991
20
134.584
0
LWPOLYLINE
5
212
100
AcDbEntity
8
0
100
AcDbPolyline
90
4
70
1
43
0.0
10
91.319699999999983
20
134.584
10
91.319699999999983
20
139.05799999999999
10
105.319
20
139.05799999999999
10
105.319
20
134.584
0
LWPOLYLINE
5
213
100
AcDbEntity
8
0
100
AcDbPolyline
90
4
70
1
43
0.0
10
110.36830000000002
20
134.584
10
110.36830000000002
20
139.05799999999999
10
124.36900000000001
20
139.05799999999999
10
124.36900000000001
20
134.584
0
LWPOLYLINE
5
214
100
AcDbEntity
8
0
100
AcDbPolyline
90
4
70
1
43
0.0
10
129.41800000000001
20
134.584
10
129.41800000000001
20
139.05799999999999
10
143.41899999999998
20
139.05799999999999
10
143.41899999999998
20
134.584
0
LWPOLYLINE
5
215
100
AcDbEntity
8
0
100
AcDbPolyline
90
4
70
1
43
0.0
10
148.47000000000003
20
134.584
10
148.47000000000003
20
139.05799999999999
10
162.46899999999999
20
139.05799999999999
10
162.46899999999999
20
134.584
0
LWPOLYLINE
5
216
100
AcDbEntity
8
0
100
AcDbPolyline
90
4
70
1
43
0.0
10
167.52000000000004
20
134.584
10
167.52000000000004
20
139.05799999999999
10
181.51900000000001
20
139.05799999999999
10
181.51900000000001
20
134.584
0
LWPOLYLINE
5
217
100
AcDbEntity
8
0
100
AcDbPolyline
90
4
70
1
43
0.0
10
186.56999999999999
20
134.584
10
186.56999999999999
20
139.05799999999999
10
201.5595093119002
20
139.05799999999999
10
201.5595093119002
20
134.584
0
LWPOLYLINE
5
218
100
AcDbEntity
8
0
100
AcDbPolyline
90
4
70
1
43
0.0
10
205.62
20
139.05799999999999
10
205.62
20
134.584
10
219.619
20
134.584
10
219.619
20
139.05799999999999
0
LWPOLYLINE
5
219
100
AcDbEntity
8
0
100
AcDbPolyline
90
4
70
1
43
0.0
10
224.66999999999999
20
139.05799999999999
10
224.66999999999999
20
134.584
10
238.66900000000001
20
134.584
10
238.66900000000001
20
139.05799999999999
0
LWPOLYLINE
5
220
100
AcDbEntity
8
0
100
AcDbPolyline
90
4
70
1
43
0.0
10
243.72
20
134.584
10
243.72
20
139.05799999999999
10
257.71900000000005
20
139.05799999999999
10
257.71900000000005
20
134.584
0
LWPOLYLINE
5
221
100
AcDbEntity
8
0
100
AcDbPolyline
90
4
70
1
43
0.0
10
262.76999999999998
20
134.584
10
262.76999999999998
20
139.05799999999999
10
276.76900000000001
20
139.05799999999999
10
276.76900000000001
20
134.584
0
LWPOLYLINE
5
222
100
AcDbEntity
8
0
100
AcDbPolyline
90
4
70
1
43
0.0
10
281.82000000000005
20
134.584
10
281.82000000000005
20
139.05799999999999
10
295.81900000000007
20
139.05799999999999
10
295.81900000000007
20
134.584
0
ENDSEC
0
SECTION
2
OBJECTS
0
DICTIONARY
5
C
100
AcDbDictionary
3
ACAD_GROUP
350
D
3
ACAD_MLINESTYLE
350
17
0
DICTIONARY
5
D
100
AcDbDictionary
0
DICTIONARY
5
1A
330
C
100
AcDbDictionary
0
DICTIONARY
5
17
100
AcDbDictionary
0
ENDSEC
0
EOF
