0
SECTION
2
HEADER
9
$INSUNITS
70
4
9
$ACADVER
1
AC1014
9
$HANDSEED
5
FFFF
0
ENDSEC
0
SECTION
2
TABLES
0
TABLE
2
VPORT
5
8
100
AcDbSymbolTable
0
ENDTAB
0
TABLE
2
LTYPE
5
5
100
AcDbSymbolTable
0
LTYPE
5
14
100
AcDbSymbolTableRecord
100
AcDbLinetypeTableRecord
2
BYBLOCK
70
0
0
LTYPE
5
15
100
AcDbSymbolTableRecord
100
AcDbLinetypeTableRecord
2
BYLAYER
70
0
0
ENDTAB
0
TABLE
2
LAYER
5
2
100
AcDbSymbolTable
70
2
0
LAYER
5
50
100
AcDbSymbolTableRecord
100
AcDbLayerTableRecord
2
0
70
0
6
CONTINUOUS
0
ENDTAB
0
TABLE
2
STYLE
5
3
100
AcDbSymbolTable
70
1
0
STYLE
5
11
100
AcDbSymbolTableRecord
100
AcDbTextStyleTableRecord
2
STANDARD
70
0
0
ENDTAB
0
TABLE
2
VIEW
5
6
100
AcDbSymbolTable
70
0
0
ENDTAB
0
TABLE
2
UCS
5
7
100
AcDbSymbolTable
70
0
0
ENDTAB
0
TABLE
2
APPID
5
9
100
AcDbSymbolTable
70
2
0
APPID
5
12
100
AcDbSymbolTableRecord
100
AcDbRegAppTableRecord
2
ACAD
70
0
0
ENDTAB
0
TABLE
2
DIMSTYLE
5
A
100
AcDbSymbolTable
70
1
0
ENDTAB
0
TABLE
2
BLOCK_RECORD
5
1
100
AcDbSymbolTable
70
1
0
BLOCK_RECORD
5
1F
100
AcDbSymbolTableRecord
100
AcDbBlockTableRecord
2
*MODEL_SPACE
0
BLOCK_RECORD
5
1B
100
AcDbSymbolTableRecord
100
AcDbBlockTableRecord
2
*PAPER_SPACE
0
ENDTAB
0
ENDSEC
0
SECTION
2
BLOCKS
0
BLOCK
5
20
100
AcDbEntity
100
AcDbBlockBegin
2
*MODEL_SPACE
0
ENDBLK
5
21
100
AcDbEntity
100
AcDbBlockEnd
0
BLOCK
5
1C
100
AcDbEntity
100
AcDbBlockBegin
2
*PAPER_SPACE
0
ENDBLK
5
1D
100
AcDbEntity
100
AcDbBlockEnd
0
ENDSEC
0
SECTION
2
ENTITIES
0
LWPOLYLINE
5
100
100
AcDbEntity
8
0
100
AcDbPolyline
90
36
70
1
43
0.0
10
41.800399999999996
20
44.3628
10
41.800399999999996
20
41.132600000000004
10
42.625900000000001
20
41.132600000000004
10
42.625900000000001
20
38.333799999999997
10
41.800399999999996
20
38.333799999999997
10
41.800399999999996
20
32.063800000000001
10
40.075200000000002
20
32.063800000000001
10
40.075200000000002
20
30.863499999999998
10
36.774799999999999
20
30.863499999999998
10
36.774799999999999
20
32.063800000000001
10
35.050899999999999
20
32.063800000000001
10
35.050899999999999
20
36.532699999999998
10
33.525400000000005
20
36.532699999999998
10
33.525400000000005
20
31.833600000000001
10
19.5259
20
31.833600000000001
10
19.5259
20
36.532699999999998
10
18.000399999999999
20
36.532699999999998
10
18.000399999999999
20
32.063800000000001
10
16.275100000000002
20
32.063800000000001
10
16.275100000000002
20
30.863499999999998
10
12.976089999999999
20
30.863499999999998
10
12.976089999999999
20
32.063800000000001
10
11.250800000000002
20
32.063800000000001
10
11.250800000000002
20
38.333799999999997
10
10.425330000000002
20
38.333799999999997
10
10.425330000000002
20
41.132600000000004
10
11.250800000000002
20
41.132600000000004
10
11.250800000000002
20
44.3628
10
18.000399999999999
20
44.3628
10
18.000399999999999
20
41.132600000000004
10
19.5259
20
41.132600000000004
10
19.5259
20
45.832999999999998
10
33.525400000000005
20
45.832999999999998
10
33.525400000000005
20
41.132600000000004
10
35.050899999999999
20
41.132600000000004
10
35.050899999999999
20
44.3628
0
LWPOLYLINE
5
101
100
AcDbEntity
8
0
100
AcDbPolyline
90
36
70
1
43
0.0
10
189.43799999999999
20
13.013770000000001
10
187.71299999999999
20
13.013770000000001
10
187.71299999999999
20
11.813500000000001
10
184.41200000000003
20
11.813500000000001
10
184.41200000000003
20
13.013770000000001
10
182.68700000000001
20
13.013770000000001
10
182.68700000000001
20
17.482730000000004
10
143.06299999999999
20
17.482730000000004
10
143.06299999999999
20
12.78364
10
129.06200000000001
20
12.78364
10
129.06200000000001
20
17.482730000000004
10
89.438100000000006
20
17.482730000000004
10
89.438100000000006
20
13.013770000000001
10
87.712599999999995
20
13.013770000000001
10
87.712599999999995
20
11.813500000000001
10
84.411999999999978
20
11.813500000000001
10
84.411999999999978
20
13.013770000000001
10
82.686999999999983
20
13.013770000000001
10
82.686999999999983
20
19.283839999999998
10
81.862899999999996
20
19.283839999999998
10
81.862899999999996
20
22.084000000000003
10
82.686999999999983
20
22.084000000000003
10
82.686999999999983
20
25.312799999999996
10
89.438100000000006
20
25.312799999999996
10
89.438100000000006
20
22.084000000000003
10
129.06200000000001
20
22.084000000000003
10
129.06200000000001
20
26.783100000000001
10
143.06299999999999
20
26.783100000000001
10
143.06299999999999
20
22.084000000000003
10
182.68700000000001
20
22.084000000000003
10
182.68700000000001
20
25.312799999999996
10
189.43799999999999
20
25.312799999999996
10
189.43799999999999
20
22.084000000000003
10
190.262
20
22.084000000000003
10
190.262
20
19.283839999999998
10
189.43799999999999
20
19.283839999999998
0
LWPOLYLINE
5
102
100
AcDbEntity
8
0
100
AcDbPolyline
90
4
70
1
43
0.0
10
255.27000000000001
20
12.78364
10
269.26900000000001
20
12.78364
10
269.26900000000001
20
26.783100000000001
10
255.27000000000001
20
26.783100000000001
0
LWPOLYLINE
5
103
100
AcDbEntity
8
0
100
AcDbPolyline
90
4
70
1
43
0.0
10
183.83199999999999
20
45.832999999999998
10
183.83199999999999
20
31.833600000000001
10
197.83199999999999
20
31.833600000000001
10
197.83199999999999
20
45.832999999999998
0
LWPOLYLINE
5
104
100
AcDbEntity
8
0
100
AcDbPolyline
90
4
70
1
43
0.0
10
202.88200000000003
20
45.832999999999998
10
202.88200000000003
20
31.833600000000001
10
216.88200000000001
20
31.833600000000001
10
216.88200000000001
20
45.832999999999998
0
LWPOLYLINE
5
105
100
AcDbEntity
8
0
100
AcDbPolyline
90
4
70
1
43
0.0
10
231.16900000000001
20
12.78364
10
231.16900000000001
20
26.783100000000001
10
217.16999999999999
20
26.783100000000001
10
217.16999999999999
20
12.78364
0
LWPOLYLINE
5
106
100
AcDbEntity
8
0
100
AcDbPolyline
90
4
70
1
43
0.0
10
274.32000000000005
20
12.78364
10
288.31900000000007
20
12.78364
10
288.31900000000007
20
26.783100000000001
10
274.32000000000005
20
26.783100000000001
0
LWPOLYLINE
5
107
100
AcDbEntity
8
0
100
AcDbPolyline
90
4
70
1
43
0.0
10
198.12
20
26.783100000000001
10
198.12
20
12.78364
10
212.11900000000003
20
12.78364
10
212.11900000000003
20
26.783100000000001
0
LWPOLYLINE
5
108
100
AcDbEntity
8
0
100
AcDbPolyline
90
4
70
1
43
0.0
10
71.62530000000001
20
26.783100000000001
10
57.626000000000005
20
26.783100000000001
10
57.626000000000005
20
12.78364
10
71.62530000000001
20
12.78364
0
LINE
5
109
100
AcDbEntity
8
0
100
AcDbLine
10
24.000399999999999
20
26.783100000000001
30
0
11
24.000399999999999
21
12.78364
31
0
0
LWPOLYLINE
5
110
100
AcDbEntity
8
0
100
AcDbPolyline
90
4
70
1
43
0.0
10
178.78200000000004
20
45.832999999999998
10
164.78200000000001
20
45.832999999999998
10
164.78200000000001
20
31.833600000000001
10
178.78200000000004
20
31.833600000000001
0
LWPOLYLINE
5
111
100
AcDbEntity
8
0
100
AcDbPolyline
90
4
70
1
43
0.0
10
202.59400000000002
20
69.933800000000005
10
202.59400000000002
20
83.933099999999996
10
188.595
20
83.933099999999996
10
188.595
20
69.933800000000005
0
LWPOLYLINE
5
112
100
AcDbEntity
8
0
100
AcDbPolyline
90
4
70
1
43
0.0
10
183.54400000000001
20
83.933099999999996
10
169.54499999999999
20
83.933099999999996
10
169.54499999999999
20
69.933800000000005
10
183.54400000000001
20
69.933800000000005
0
LWPOLYLINE
5
113
100
AcDbEntity
8
0
100
AcDbPolyline
90
4
70
1
43
0.0
10
164.494
20
83.933099999999996
10
150.495
20
83.933099999999996
10
150.495
20
69.933800000000005
10
164.494
20
69.933800000000005
0
LWPOLYLINE
5
114
100
AcDbEntity
8
0
100
AcDbPolyline
90
4
70
1
43
0.0
10
145.44399999999999
20
83.933099999999996
10
131.44499999999999
20
83.933099999999996
10
131.44499999999999
20
69.933800000000005
10
145.44399999999999
20
69.933800000000005
0
LWPOLYLINE
5
115
100
AcDbEntity
8
0
100
AcDbPolyline
90
4
70
1
43
0.0
10
126.39400000000001
20
83.933099999999996
10
112.395
20
83.933099999999996
10
112.395
20
69.933800000000005
10
126.39400000000001
20
69.933800000000005
0
LWPOLYLINE
5
116
100
AcDbEntity
8
0
100
AcDbPolyline
90
4
70
1
43
0.0
10
250.21900000000002
20
26.783100000000001
10
236.22
20
26.783100000000001
10
236.22
20
12.78364
10
250.21900000000002
20
12.78364
0
LWPOLYLINE
5
117
100
AcDbEntity
8
0
100
AcDbPolyline
90
4
70
1
43
0.0
10
102.58150000000001
20
31.833600000000001
10
102.58150000000001
20
45.832999999999998
10
88.582200000000014
20
45.832999999999998
10
88.582200000000014
20
31.833600000000001
0
LWPOLYLINE
5
118
100
AcDbEntity
8
0
100
AcDbPolyline
90
4
70
1
43
0.0
10
47.81280000000001
20
26.783100000000001
10
33.811999999999998
20
26.783100000000001
10
33.811999999999998
20
12.78364
10
47.81280000000001
20
12.78364
0
LWPOLYLINE
5
119
100
AcDbEntity
8
0
100
AcDbPolyline
90
4
70
1
43
0.0
10
107.63200000000001
20
31.833600000000001
10
121.63200000000002
20
31.833600000000001
10
121.63200000000002
20
45.832999999999998
10
107.63200000000001
20
45.832999999999998
0
LWPOLYLINE
5
120
100
AcDbEntity
8
0
100
AcDbPolyline
90
4
70
1
43
0.0
10
140.68200000000002
20
31.833600000000001
10
140.68200000000002
20
45.832999999999998
10
126.682
20
45.832999999999998
10
126.682
20
31.833600000000001
0
LWPOLYLINE
5
121
100
AcDbEntity
8
0
100
AcDbPolyline
90
4
70
1
43
0.0
10
64.7697
20
136.60900000000001
10
78.768999999999991
20
136.60900000000001
10
78.768999999999991
20
150.608
10
64.7697
20
150.608
0
LWPOLYLINE
5
122
100
AcDbEntity
8
0
100
AcDbPolyline
90
4
70
1
43
0.0
10
59.718999999999994
20
150.608
10
45.719700000000003
20
150.608
10
45.719700000000003
20
136.60900000000001
10
59.718999999999994
20
136.60900000000001
0
LWPOLYLINE
5
123
100
AcDbEntity
8
0
100
AcDbPolyline
90
36
70
1
43
0.0
10
253.31299999999999
20
57.383699999999997
10
253.31299999999999
20
60.182600000000008
10
254.13700000000003
20
60.182600000000008
10
254.13700000000003
20
63.412700000000008
10
260.88800000000003
20
63.412700000000008
10
260.88800000000003
20
60.182600000000008
10
262.41200000000003
20
60.182600000000008
10
262.41200000000003
20
64.883099999999999
10
276.41300000000001
20
64.883099999999999
10
276.41300000000001
20
60.182600000000008
10
277.93700000000001
20
60.182600000000008
10
277.93700000000001
20
63.412700000000008
10
284.68799999999999
20
63.412700000000008
10
284.68799999999999
20
60.182600000000008
10
285.512
20
60.182600000000008
10
285.512
20
57.383699999999997
10
284.68799999999999
20
57.383699999999997
10
284.68799999999999
20
51.113799999999998
10
282.96299999999997
20
51.113799999999998
10
282.96299999999997
20
49.913600000000002
10
279.66200000000003
20
49.913600000000002
10
279.66200000000003
20
51.113799999999998
10
277.93700000000001
20
51.113799999999998
10
277.93700000000001
20
55.582799999999999
10
276.41300000000001
20
55.582799999999999
10
276.41300000000001
20
50.883800000000001
10
262.41200000000003
20
50.883800000000001
10
262.41200000000003
20
55.582799999999999
10
260.88800000000003
20
55.582799999999999
10
260.88800000000003
20
51.113799999999998
10
259.161
20
51.113799999999998
10
259.161
20
49.913600000000002
10
255.86200000000002
20
49.913600000000002
10
255.86200000000002
20
51.113799999999998
10
254.13700000000003
20
51.113799999999998
10
254.13700000000003
20
57.383699999999997
0
LWPOLYLINE
5
124
100
AcDbEntity
8
0
100
AcDbPolyline
90
4
70
1
43
0.0
10
50.482199999999999
20
31.833600000000001
10
64.481499999999997
20
31.833600000000001
10
64.481499999999997
20
45.832999999999998
10
50.482199999999999
20
45.832999999999998
0
LWPOLYLINE
5
125
100
AcDbEntity
8
0
100
AcDbPolyline
90
4
70
1
43
0.0
10
262.125
20
45.832999999999998
10
248.126
20
45.832999999999998
10
248.126
20
31.833600000000001
10
262.125
20
31.833600000000001
0
LWPOLYLINE
5
126
100
AcDbEntity
8
0
100
AcDbPolyline
90
4
70
1
43
0.0
10
7.61965
20
136.60900000000001
10
21.619200000000003
20
136.60900000000001
10
21.619200000000003
20
150.608
10
7.61965
20
150.608
0
LWPOLYLINE
5
127
100
AcDbEntity
8
0
100
AcDbPolyline
90
4
70
1
43
0.0
10
93.0565
20
50.883800000000001
10
93.0565
20
64.883099999999999
10
79.057199999999995
20
64.883099999999999
10
79.057199999999995
20
50.883800000000001
0
LWPOLYLINE
5
128
100
AcDbEntity
8
0
100
AcDbPolyline
90
4
70
1
43
0.0
10
74.006500000000003
20
64.883099999999999
10
60.007200000000005
20
64.883099999999999
10
60.007200000000005
20
50.883800000000001
10
74.006500000000003
20
50.883800000000001
0
LWPOLYLINE
5
129
100
AcDbEntity
8
0
100
AcDbPolyline
90
4
70
1
43
0.0
10
54.956500000000005
20
64.883099999999999
10
40.9572
20
64.883099999999999
10
40.9572
20
50.883800000000001
10
54.956500000000005
20
50.883800000000001
0
LWPOLYLINE
5
130
100
AcDbEntity
8
0
100
AcDbPolyline
90
4
70
1
43
0.0
10
28.762900000000002
20
64.883099999999999
10
14.762030000000001
20
64.883099999999999
10
14.762030000000001
20
50.883800000000001
10
28.762900000000002
20
50.883800000000001
0
LWPOLYLINE
5
131
100
AcDbEntity
8
0
100
AcDbPolyline
90
4
70
1
43
0.0
10
307.36900000000003
20
83.933099999999996
10
293.37
20
83.933099999999996
10
293.37
20
69.933800000000005
10
307.36900000000003
20
69.933800000000005
0
LWPOLYLINE
5
132
100
AcDbEntity
8
0
100
AcDbPolyline
90
4
70
1
43
0.0
10
283.55700000000002
20
83.933099999999996
10
269.55700000000002
20
83.933099999999996
10
269.55700000000002
20
69.933800000000005
10
283.55700000000002
20
69.933800000000005
0
LWPOLYLINE
5
133
100
AcDbEntity
8
0
100
AcDbPolyline
90
4
70
1
43
0.0
10
307.36900000000003
20
64.883099999999999
10
293.37
20
64.883099999999999
10
293.37
20
50.883800000000001
10
307.36900000000003
20
50.883800000000001
0
LWPOLYLINE
5
134
100
AcDbEntity
8
0
100
AcDbPolyline
90
4
70
1
43
0.0
10
245.45699999999999
20
64.883099999999999
10
231.45700000000002
20
64.883099999999999
10
231.45700000000002
20
50.883800000000001
10
245.45699999999999
20
50.883800000000001
0
LWPOLYLINE
5
135
100
AcDbEntity
8
0
100
AcDbPolyline
90
4
70
1
43
0.0
10
40.669000000000004
20
150.608
10
26.669699999999999
20
150.608
10
26.669699999999999
20
136.60900000000001
10
40.669000000000004
20
136.60900000000001
0
LINE
5
136
100
AcDbEntity
8
0
100
AcDbLine
10
293.37
20
26.783100000000001
30
0
11
307.36900000000003
21
26.783100000000001
31
0
0
LINE
5
137
100
AcDbEntity
8
0
100
AcDbLine
10
307.36900000000003
20
12.78364
30
0
11
293.37
21
12.78364
31
0
0
LWPOLYLINE
5
138
100
AcDbEntity
8
0
100
AcDbPolyline
90
4
70
1
43
0.0
10
145.732
20
31.833600000000001
10
159.732
20
31.833600000000001
10
159.732
20
45.832999999999998
10
145.732
20
45.832999999999998
0
LWPOLYLINE
5
139
100
AcDbEntity
8
0
100
AcDbPolyline
90
4
70
1
43
0.0
10
169.25700000000003
20
50.883800000000001
10
169.25700000000003
20
64.883099999999999
10
155.25700000000001
20
64.883099999999999
10
155.25700000000001
20
50.883800000000001
0
LWPOLYLINE
5
140
100
AcDbEntity
8
0
100
AcDbPolyline
90
4
70
1
43
0.0
10
150.20699999999999
20
64.883099999999999
10
136.20699999999999
20
64.883099999999999
10
136.20699999999999
20
50.883800000000001
10
150.20699999999999
20
50.883800000000001
0
LWPOLYLINE
5
141
100
AcDbEntity
8
0
100
AcDbPolyline
90
4
70
1
43
0.0
10
131.15700000000001
20
64.883099999999999
10
117.15700000000001
20
64.883099999999999
10
117.15700000000001
20
50.883800000000001
10
131.15700000000001
20
50.883800000000001
0
LWPOLYLINE
5
142
100
AcDbEntity
8
0
100
AcDbPolyline
90
4
70
1
43
0.0
10
112.10700000000003
20
64.883099999999999
10
98.10720000000002
20
64.883099999999999
10
98.10720000000002
20
50.883800000000001
10
112.10700000000003
20
50.883800000000001
0
LWPOLYLINE
5
143
100
AcDbEntity
8
0
100
AcDbPolyline
90
4
70
1
43
0.0
10
50.194000000000003
20
69.933800000000005
10
50.194000000000003
20
83.933099999999996
10
36.194700000000005
20
83.933099999999996
10
36.194700000000005
20
69.933800000000005
0
LWPOLYLINE
5
144
100
AcDbEntity
8
0
100
AcDbPolyline
90
4
70
1
43
0.0
10
26.381700000000002
20
83.933099999999996
10
12.382159999999999
20
83.933099999999996
10
12.382159999999999
20
69.933800000000005
10
26.381700000000002
20
69.933800000000005
0
LWPOLYLINE
5
145
100
AcDbEntity
8
0
100
AcDbPolyline
90
4
70
1
43
0.0
10
235.93200000000002
20
45.832999999999998
10
221.93200000000004
20
45.832999999999998
10
221.93200000000004
20
31.833600000000001
10
235.93200000000002
20
31.833600000000001
0
LWPOLYLINE
5
146
100
AcDbEntity
8
0
100
AcDbPolyline
90
4
70
1
43
0.0
10
74.294700000000006
20
83.933099999999996
10
74.294700000000006
20
69.933800000000005
10
88.293999999999997
20
69.933800000000005
10
88.293999999999997
20
83.933099999999996
0
LWPOLYLINE
5
147
100
AcDbEntity
8
0
100
AcDbPolyline
90
4
70
1
43
0.0
10
69.244
20
83.933099999999996
10
55.244700000000009
20
83.933099999999996
10
55.244700000000009
20
69.933800000000005
10
69.244
20
69.933800000000005
0
LWPOLYLINE
5
148
100
AcDbEntity
8
0
100
AcDbPolyline
90
4
70
1
43
0.0
10
107.34400000000001
20
83.933099999999996
10
93.344700000000017
20
83.933099999999996
10
93.344700000000017
20
69.933800000000005
10
107.34400000000001
20
69.933800000000005
0
LWPOLYLINE
5
149
100
AcDbEntity
8
0
100
AcDbPolyline
90
4
70
1
43
0.0
10
240.69400000000002
20
69.933800000000005
10
240.69400000000002
20
83.933099999999996
10
226.69499999999999
20
83.933099999999996
10
226.69499999999999
20
69.933800000000005
0
LWPOLYLINE
5
150
100
AcDbEntity
8
0
100
AcDbPolyline
90
4
70
1
43
0.0
10
221.64400000000001
20
83.933099999999996
10
207.64500000000001
20
83.933099999999996
10
207.64500000000001
20
69.933800000000005
10
221.64400000000001
20
69.933800000000005
0
LWPOLYLINE
5
151
100
AcDbEntity
8
0
100
AcDbPolyline
90
4
70
1
43
0.0
10
259.74400000000003
20
83.933099999999996
10
245.745
20
83.933099999999996
10
245.745
20
69.933800000000005
10
259.74400000000003
20
69.933800000000005
0
LWPOLYLINE
5
152
100
AcDbEntity
8
0
100
AcDbPolyline
90
4
70
1
43
0.0
10
226.40700000000004
20
64.883099999999999
10
212.40700000000004
20
64.883099999999999
10
212.40700000000004
20
50.883800000000001
10
226.40700000000004
20
50.883800000000001
0
LWPOLYLINE
5
153
100
AcDbEntity
8
0
100
AcDbPolyline
90
4
70
1
43
0.0
10
207.35700000000003
20
64.883099999999999
10
193.357
20
64.883099999999999
10
193.357
20
50.883800000000001
10
207.35700000000003
20
50.883800000000001
0
LWPOLYLINE
5
154
100
AcDbEntity
8
0
100
AcDbPolyline
90
4
70
1
43
0.0
10
188.30700000000004
20
64.883099999999999
10
174.30700000000002
20
64.883099999999999
10
174.30700000000002
20
50.883800000000001
10
188.30700000000004
20
50.883800000000001
0
LWPOLYLINE
5
155
100
AcDbEntity
8
0
100
AcDbPolyline
90
36
70
1
43
0.0
10
264.79500000000002
20
98.282600000000002
10
264.79500000000002
20
102.98309999999999
10
278.79400000000004
20
102.98309999999999
10
278.79400000000004
20
98.282600000000002
10
280.31999999999999
20
98.282600000000002
10
280.31999999999999
20
101.5127
10
287.06900000000007
20
101.5127
10
287.06900000000007
20
98.282600000000002
10
287.89499999999998
20
98.282600000000002
10
287.89499999999998
20
95.483699999999999
10
287.06900000000007
20
95.483699999999999
10
287.06900000000007
20
89.213800000000006
10
285.34399999999999
20
89.213800000000006
10
285.34399999999999
20
88.013599999999997
10
282.04500000000002
20
88.013599999999997
10
282.04500000000002
20
89.213800000000006
10
280.31999999999999
20
89.213800000000006
10
280.31999999999999
20
93.6828
10
278.79400000000004
20
93.6828
10
278.79400000000004
20
88.983800000000002
10
264.79500000000002
20
88.983800000000002
10
264.79500000000002
20
93.6828
10
263.26900000000001
20
93.6828
10
263.26900000000001
20
89.213800000000006
10
261.54400000000004
20
89.213800000000006
10
261.54400000000004
20
88.013599999999997
10
258.24299999999999
20
88.013599999999997
10
258.24299999999999
20
89.213800000000006
10
256.51999999999998
20
89.213800000000006
10
256.51999999999998
20
95.483699999999999
10
255.69400000000002
20
95.483699999999999
10
255.69400000000002
20
98.282600000000002
10
256.51999999999998
20
98.282600000000002
10
256.51999999999998
20
101.5127
10
263.26900000000001
20
101.5127
10
263.26900000000001
20
98.282600000000002
0
LWPOLYLINE
5
156
100
AcDbEntity
8
0
100
AcDbPolyline
90
4
70
1
43
0.0
10
307.36900000000003
20
102.98309999999999
10
293.37
20
102.98309999999999
10
293.37
20
88.983800000000002
10
307.36900000000003
20
88.983800000000002
0
LWPOLYLINE
5
157
100
AcDbEntity
8
0
100
AcDbPolyline
90
4
70
1
43
0.0
10
250.21900000000002
20
102.98309999999999
10
236.22
20
102.98309999999999
10
236.22
20
88.983800000000002
10
250.21900000000002
20
88.983800000000002
0
LWPOLYLINE
5
158
100
AcDbEntity
8
0
100
AcDbPolyline
90
4
70
1
43
0.0
10
231.16900000000001
20
102.98309999999999
10
217.16999999999999
20
102.98309999999999
10
217.16999999999999
20
88.983800000000002
10
231.16900000000001
20
88.983800000000002
0
LWPOLYLINE
5
159
100
AcDbEntity
8
0
100
AcDbPolyline
90
4
70
1
43
0.0
10
212.11900000000003
20
102.98309999999999
10
198.12
20
102.98309999999999
10
198.12
20
88.983800000000002
10
212.11900000000003
20
88.983800000000002
0
LWPOLYLINE
5
160
100
AcDbEntity
8
0
100
AcDbPolyline
90
4
70
1
43
0.0
10
193.06900000000002
20
102.98309999999999
10
179.06999999999999
20
102.98309999999999
10
179.06999999999999
20
88.983800000000002
10
193.06900000000002
20
88.983800000000002
0
LWPOLYLINE
5
161
100
AcDbEntity
8
0
100
AcDbPolyline
90
4
70
1
43
0.0
10
174.01900000000001
20
102.98309999999999
10
160.02000000000004
20
102.98309999999999
10
160.02000000000004
20
88.983800000000002
10
174.01900000000001
20
88.983800000000002
0
LWPOLYLINE
5
162
100
AcDbEntity
8
0
100
AcDbPolyline
90
4
70
1
43
0.0
10
154.96899999999999
20
102.98309999999999
10
140.97000000000003
20
102.98309999999999
10
140.97000000000003
20
88.983800000000002
10
154.96899999999999
20
88.983800000000002
0
LWPOLYLINE
5
163
100
AcDbEntity
8
0
100
AcDbPolyline
90
4
70
1
43
0.0
10
135.91899999999998
20
102.98309999999999
10
121.91800000000001
20
102.98309999999999
10
121.91800000000001
20
88.983800000000002
10
135.91899999999998
20
88.983800000000002
0
LWPOLYLINE
5
164
100
AcDbEntity
8
0
100
AcDbPolyline
90
4
70
1
43
0.0
10
116.86900000000001
20
102.98309999999999
10
102.86830000000002
20
102.98309999999999
10
102.86830000000002
20
88.983800000000002
10
116.86900000000001
20
88.983800000000002
0
LWPOLYLINE
5
165
100
AcDbEntity
8
0
100
AcDbPolyline
90
4
70
1
43
0.0
10
97.819000000000003
20
102.98309999999999
10
83.819699999999983
20
102.98309999999999
10
83.819699999999983
20
88.983800000000002
10
97.819000000000003
20
88.983800000000002
0
LWPOLYLINE
5
166
100
AcDbEntity
8
0
100
AcDbPolyline
90
4
70
1
43
0.0
10
78.768999999999991
20
102.98309999999999
10
64.7697
20
102.98309999999999
10
64.7697
20
88.983800000000002
10
78.768999999999991
20
88.983800000000002
0
LWPOLYLINE
5
167
100
AcDbEntity
8
0
100
AcDbPolyline
90
4
70
1
43
0.0
10
59.718999999999994
20
102.98309999999999
10
45.719700000000003
20
102.98309999999999
10
45.719700000000003
20
88.983800000000002
10
59.718999999999994
20
88.983800000000002
0
LWPOLYLINE
5
168
100
AcDbEntity
8
0
100
AcDbPolyline
90
4
70
1
43
0.0
10
40.669000000000004
20
102.98309999999999
10
26.669699999999999
20
102.98309999999999
10
26.669699999999999
20
88.983800000000002
10
40.669000000000004
20
88.983800000000002
0
LWPOLYLINE
5
169
100
AcDbEntity
8
0
100
AcDbPolyline
90
4
70
1
43
0.0
10
21.619200000000003
20
102.98309999999999
10
7.61965
20
102.98309999999999
10
7.61965
20
88.983800000000002
10
21.619200000000003
20
88.983800000000002
0
LWPOLYLINE
5
170
100
AcDbEntity
8
0
100
AcDbPolyline
90
4
70
1
43
0.0
10
307.36900000000003
20
122.03299999999999
10
293.37
20
122.03299999999999
10
293.37
20
108.03380000000001
10
307.36900000000003
20
108.03380000000001
0
LWPOLYLINE
5
171
100
AcDbEntity
8
0
100
AcDbPolyline
90
4
70
1
43
0.0
10
288.31900000000007
20
122.03299999999999
10
274.32000000000005
20
122.03299999999999
10
274.32000000000005
20
108.03380000000001
10
288.31900000000007
20
108.03380000000001
0
LWPOLYLINE
5
172
100
AcDbEntity
8
0
100
AcDbPolyline
90
4
70
1
43
0.0
10
269.26900000000001
20
122.03299999999999
10
255.27000000000001
20
122.03299999999999
10
255.27000000000001
20
108.03380000000001
10
269.26900000000001
20
108.03380000000001
0
LWPOLYLINE
5
173
100
AcDbEntity
8
0
100
AcDbPolyline
90
4
70
1
43
0.0
10
250.21900000000002
20
122.03299999999999
10
236.22
20
122.03299999999999
10
236.22
20
108.03380000000001
10
250.21900000000002
20
108.03380000000001
0
LWPOLYLINE
5
174
100
AcDbEntity
8
0
100
AcDbPolyline
90
4
70
1
43
0.0
10
83.531499999999994
20
45.832999999999998
10
69.532200000000003
20
45.832999999999998
10
69.532200000000003
20
31.833600000000001
10
83.531499999999994
20
31.833600000000001
0
LWPOLYLINE
5
175
100
AcDbEntity
8
0
100
AcDbPolyline
90
4
70
1
43
0.0
10
231.16900000000001
20
122.03299999999999
10
217.16999999999999
20
122.03299999999999
10
217.16999999999999
20
108.03380000000001
10
231.16900000000001
20
108.03380000000001
0
LWPOLYLINE
5
176
100
AcDbEntity
8
0
100
AcDbPolyline
90
4
70
1
43
0.0
10
212.11900000000003
20
122.03299999999999
10
198.12
20
122.03299999999999
10
198.12
20
108.03380000000001
10
212.11900000000003
20
108.03380000000001
0
LWPOLYLINE
5
177
100
AcDbEntity
8
0
100
AcDbPolyline
90
4
70
1
43
0.0
10
193.06900000000002
20
122.03299999999999
10
179.06999999999999
20
122.03299999999999
10
179.06999999999999
20
108.03380000000001
10
193.06900000000002
20
108.03380000000001
0
LWPOLYLINE
5
178
100
AcDbEntity
8
0
100
AcDbPolyline
90
4
70
1
43
0.0
10
174.01900000000001
20
122.03299999999999
10
160.02000000000004
20
122.03299999999999
10
160.02000000000004
20
108.03380000000001
10
174.01900000000001
20
108.03380000000001
0
LWPOLYLINE
5
179
100
AcDbEntity
8
0
100
AcDbPolyline
90
4
70
1
43
0.0
10
154.96899999999999
20
122.03299999999999
10
140.97000000000003
20
122.03299999999999
10
140.97000000000003
20
108.03380000000001
10
154.96899999999999
20
108.03380000000001
0
LWPOLYLINE
5
180
100
AcDbEntity
8
0
100
AcDbPolyline
90
4
70
1
43
0.0
10
135.91899999999998
20
122.03299999999999
10
121.91800000000001
20
122.03299999999999
10
121.91800000000001
20
108.03380000000001
10
135.91899999999998
20
108.03380000000001
0
LWPOLYLINE
5
181
100
AcDbEntity
8
0
100
AcDbPolyline
90
4
70
1
43
0.0
10
116.86900000000001
20
122.03299999999999
10
102.86830000000002
20
122.03299999999999
10
102.86830000000002
20
108.03380000000001
10
116.86900000000001
20
108.03380000000001
0
LWPOLYLINE
5
182
100
AcDbEntity
8
0
100
AcDbPolyline
90
4
70
1
43
0.0
10
97.819000000000003
20
122.03299999999999
10
83.819699999999983
20
122.03299999999999
10
83.819699999999983
20
108.03380000000001
10
97.819000000000003
20
108.03380000000001
0
LWPOLYLINE
5
183
100
AcDbEntity
8
0
100
AcDbPolyline
90
4
70
1
43
0.0
10
78.768999999999991
20
122.03299999999999
10
64.7697
20
122.03299999999999
10
64.7697
20
108.03380000000001
10
78.768999999999991
20
108.03380000000001
0
LWPOLYLINE
5
184
100
AcDbEntity
8
0
100
AcDbPolyline
90
4
70
1
43
0.0
10
59.718999999999994
20
122.03299999999999
10
45.719700000000003
20
122.03299999999999
10
45.719700000000003
20
108.03380000000001
10
59.718999999999994
20
108.03380000000001
0
LWPOLYLINE
5
185
100
AcDbEntity
8
0
100
AcDbPolyline
90
4
70
1
43
0.0
10
40.669000000000004
20
122.03299999999999
10
26.669699999999999
20
122.03299999999999
10
26.669699999999999
20
108.03380000000001
10
40.669000000000004
20
108.03380000000001
0
LWPOLYLINE
5
186
100
AcDbEntity
8
0
100
AcDbPolyline
90
4
70
1
43
0.0
10
21.619200000000003
20
122.03299999999999
10
7.61965
20
122.03299999999999
10
7.61965
20
108.03380000000001
10
21.619200000000003
20
108.03380000000001
0
LWPOLYLINE
5
187
100
AcDbEntity
8
0
100
AcDbPolyline
90
4
70
1
43
0.0
10
307.36900000000003
20
150.608
10
293.37
20
150.608
10
293.37
20
136.60900000000001
10
307.36900000000003
20
136.60900000000001
0
LWPOLYLINE
5
188
100
AcDbEntity
8
0
100
AcDbPolyline
90
4
70
1
43
0.0
10
288.31900000000007
20
150.608
10
274.32000000000005
20
150.608
10
274.32000000000005
20
136.60900000000001
10
288.31900000000007
20
136.60900000000001
0
LWPOLYLINE
5
189
100
AcDbEntity
8
0
100
AcDbPolyline
90
4
70
1
43
0.0
10
269.26900000000001
20
150.608
10
255.27000000000001
20
150.608
10
255.27000000000001
20
136.60900000000001
10
269.26900000000001
20
136.60900000000001
0
LWPOLYLINE
5
190
100
AcDbEntity
8
0
100
AcDbPolyline
90
4
70
1
43
0.0
10
250.21900000000002
20
150.608
10
236.22
20
150.608
10
236.22
20
136.60900000000001
10
250.21900000000002
20
136.60900000000001
0
LWPOLYLINE
5
191
100
AcDbEntity
8
0
100
AcDbPolyline
90
4
70
1
43
0.0
10
231.16900000000001
20
150.608
10
217.16999999999999
20
150.608
10
217.16999999999999
20
136.60900000000001
10
231.16900000000001
20
136.60900000000001
0
LWPOLYLINE
5
192
100
AcDbEntity
8
0
100
AcDbPolyline
90
4
70
1
43
0.0
10
193.06900000000002
20
150.608
10
179.06999999999999
20
150.608
10
179.06999999999999
20
136.60900000000001
10
193.06900000000002
20
136.60900000000001
0
LWPOLYLINE
5
193
100
AcDbEntity
8
0
100
AcDbPolyline
90
4
70
1
43
0.0
10
174.01900000000001
20
150.608
10
160.02000000000004
20
150.608
10
160.02000000000004
20
136.60900000000001
10
174.01900000000001
20
136.60900000000001
0
LWPOLYLINE
5
194
100
AcDbEntity
8
0
100
AcDbPolyline
90
4
70
1
43
0.0
10
154.96899999999999
20
150.608
10
140.97000000000003
20
150.608
10
140.97000000000003
20
136.60900000000001
10
154.96899999999999
20
136.60900000000001
0
LWPOLYLINE
5
195
100
AcDbEntity
8
0
100
AcDbPolyline
90
4
70
1
43
0.0
10
135.91899999999998
20
150.608
10
121.91800000000001
20
150.608
10
121.91800000000001
20
136.60900000000001
10
135.91899999999998
20
136.60900000000001
0
LWPOLYLINE
5
196
100
AcDbEntity
8
0
100
AcDbPolyline
90
4
70
1
43
0.0
10
116.86900000000001
20
150.608
10
102.86830000000002
20
150.608
10
102.86830000000002
20
136.60900000000001
10
116.86900000000001
20
136.60900000000001
0
LWPOLYLINE
5
197
100
AcDbEntity
8
0
100
AcDbPolyline
90
4
70
1
43
0.0
10
97.819000000000003
20
150.608
10
83.819699999999983
20
150.608
10
83.819699999999983
20
136.60900000000001
10
97.819000000000003
20
136.60900000000001
0
LINE
5
198
100
AcDbEntity
8
0
100
AcDbLine
10
293.37
20
12.78364
30
0
11
293.37
21
26.783100000000001
31
0
0
LINE
5
199
100
AcDbEntity
8
0
100
AcDbLine
10
307.36900000000003
20
26.783100000000001
30
0
11
307.36900000000003
21
12.78364
31
0
0
LWPOLYLINE
5
200
100
AcDbEntity
8
0
100
AcDbPolyline
90
4
70
1
43
0.0
10
293.37
20
45.832999999999998
10
293.37
20
31.833600000000001
10
307.36900000000003
20
31.833600000000001
10
307.36900000000003
20
45.832999999999998
0
LWPOLYLINE
5
201
100
AcDbEntity
8
0
100
AcDbPolyline
90
4
70
1
43
0.0
10
288.31900000000007
20
45.832999999999998
10
274.32000000000005
20
45.832999999999998
10
274.32000000000005
20
31.833600000000001
10
288.31900000000007
20
31.833600000000001
0
LINE
5
202
100
AcDbEntity
8
0
100
AcDbLine
10
10.000910000000001
20
26.783100000000001
30
0
11
24.000399999999999
21
26.783100000000001
31
0
0
LINE
5
203
100
AcDbEntity
8
0
100
AcDbLine
10
24.000399999999999
20
12.78364
30
0
11
10.000910000000001
21
12.78364
31
0
0
LINE
5
204
100
AcDbEntity
8
0
100
AcDbLine
10
10.000910000000001
20
12.78364
30
0
11
10.000910000000001
21
26.783100000000001
31
0
0
LWPOLYLINE
5
205
100
AcDbEntity
8
0
100
AcDbPolyline
90
8
70
1
43
0.0
10
0
20
157.875
10
-1.1102230246251565e-15
20
4.9999999999999991
42
0.41421356237309548
10
5
20
0
10
309.80000000000007
20
3.3306690738754696e-15
42
0.41421356237309437
10
314.80000000000007
20
5
10
314.80000000000007
20
157.875
42
0.41421356237309298
10
309.80000000000007
20
162.87499999999997
10
4.9999999999999991
20
162.875
42
0.41421356237309281
0
LINE
5
206
100
AcDbEntity
8
0
100
AcDbLine
10
10.000910000000001
20
26.783100000000001
30
0
11
24.000399999999999
21
12.78364
31
0
0
LINE
5
207
100
AcDbEntity
8
0
100
AcDbLine
10
24.000399999999999
20
26.783100000000001
30
0
11
10.000910000000001
21
12.78364
31
0
0
LINE
5
208
100
AcDbEntity
8
0
100
AcDbLine
10
17.000655000000002
20
19.783370000000001
30
0
11
17.000655000000002
21
1.3877787807814457e-16
31
0
0
LINE
5
209
100
AcDbEntity
8
0
100
AcDbLine
10
17.000655000000002
20
19.783370000000001
30
0
11
-2.2204460492503131e-15
21
19.783370000000001
31
0
0
LINE
5
210
100
AcDbEntity
8
0
100
AcDbLine
10
293.37
20
26.783100000000001
30
0
11
307.36900000000003
21
12.78364
31
0
0
ENDSEC
0
SECTION
2
OBJECTS
0
DICTIONARY
5
C
100
AcDbDictionary
3
ACAD_GROUP
350
D
3
ACAD_MLINESTYLE
350
17
0
DICTIONARY
5
D
100
AcDbDictionary
0
DICTIONARY
5
1A
330
C
100
AcDbDictionary
0
DICTIONARY
5
17
100
AcDbDictionary
0
ENDSEC
0
EOF
