G04 #@! TF.GenerationSoftware,KiCad,Pcbnew,(5.1.9)-1*
G04 #@! TF.CreationDate,2021-04-20T15:34:40+09:00*
G04 #@! TF.ProjectId,JupiterAdvanced,4a757069-7465-4724-9164-76616e636564,1*
G04 #@! TF.SameCoordinates,Original*
G04 #@! TF.FileFunction,Soldermask,Bot*
G04 #@! TF.FilePolarity,Negative*
%FSLAX46Y46*%
G04 Gerber Fmt 4.6, Leading zero omitted, Abs format (unit mm)*
G04 Created by KiCad (PCBNEW (5.1.9)-1) date 2021-04-20 15:34:40*
%MOMM*%
%LPD*%
G01*
G04 APERTURE LIST*
%ADD10R,0.700000X0.600000*%
%ADD11R,1.500000X0.550000*%
%ADD12R,0.550000X1.500000*%
%ADD13C,2.500000*%
%ADD14C,2.250000*%
%ADD15C,3.987800*%
%ADD16C,1.750000*%
%ADD17R,1.200000X1.400000*%
%ADD18R,0.600000X1.450000*%
%ADD19R,0.300000X1.450000*%
%ADD20C,0.650000*%
%ADD21O,1.000000X2.100000*%
%ADD22O,1.000000X1.600000*%
%ADD23R,0.700000X1.000000*%
%ADD24C,3.048000*%
%ADD25R,1.200000X0.900000*%
G04 APERTURE END LIST*
G36*
G01*
X270137500Y-86774999D02*
X270137500Y-88175001D01*
G75*
G02*
X269887501Y-88425000I-249999J0D01*
G01*
X269337499Y-88425000D01*
G75*
G02*
X269087500Y-88175001I0J249999D01*
G01*
X269087500Y-86774999D01*
G75*
G02*
X269337499Y-86525000I249999J0D01*
G01*
X269887501Y-86525000D01*
G75*
G02*
X270137500Y-86774999I0J-249999D01*
G01*
G37*
G36*
G01*
X273287500Y-86774999D02*
X273287500Y-88175001D01*
G75*
G02*
X273037501Y-88425000I-249999J0D01*
G01*
X272487499Y-88425000D01*
G75*
G02*
X272237500Y-88175001I0J249999D01*
G01*
X272237500Y-86774999D01*
G75*
G02*
X272487499Y-86525000I249999J0D01*
G01*
X273037501Y-86525000D01*
G75*
G02*
X273287500Y-86774999I0J-249999D01*
G01*
G37*
D10*
X285901720Y-83323820D03*
X280101720Y-83323820D03*
X285901720Y-87023820D03*
X280101720Y-87023820D03*
D11*
X260025000Y-104475000D03*
X260025000Y-105275000D03*
X260025000Y-106075000D03*
X260025000Y-106875000D03*
X260025000Y-107675000D03*
X260025000Y-108475000D03*
X260025000Y-109275000D03*
X260025000Y-110075000D03*
X260025000Y-110875000D03*
X260025000Y-111675000D03*
X260025000Y-112475000D03*
D12*
X261725000Y-114175000D03*
X262525000Y-114175000D03*
X263325000Y-114175000D03*
X264125000Y-114175000D03*
X264925000Y-114175000D03*
X265725000Y-114175000D03*
X266525000Y-114175000D03*
X267325000Y-114175000D03*
X268125000Y-114175000D03*
X268925000Y-114175000D03*
X269725000Y-114175000D03*
D11*
X271425000Y-112475000D03*
X271425000Y-111675000D03*
X271425000Y-110875000D03*
X271425000Y-110075000D03*
X271425000Y-109275000D03*
X271425000Y-108475000D03*
X271425000Y-107675000D03*
X271425000Y-106875000D03*
X271425000Y-106075000D03*
X271425000Y-105275000D03*
X271425000Y-104475000D03*
D12*
X269725000Y-102775000D03*
X268925000Y-102775000D03*
X268125000Y-102775000D03*
X267325000Y-102775000D03*
X266525000Y-102775000D03*
X265725000Y-102775000D03*
X264925000Y-102775000D03*
X264125000Y-102775000D03*
X263325000Y-102775000D03*
X262525000Y-102775000D03*
X261725000Y-102775000D03*
D13*
X294020000Y-157761000D03*
X141778000Y-157761000D03*
X65325000Y-239475000D03*
X370325000Y-239475000D03*
X370325000Y-86618000D03*
X65325000Y-86518000D03*
G36*
G01*
X261753670Y-98633580D02*
X260841170Y-98633580D01*
G75*
G02*
X260597420Y-98389830I0J243750D01*
G01*
X260597420Y-97902330D01*
G75*
G02*
X260841170Y-97658580I243750J0D01*
G01*
X261753670Y-97658580D01*
G75*
G02*
X261997420Y-97902330I0J-243750D01*
G01*
X261997420Y-98389830D01*
G75*
G02*
X261753670Y-98633580I-243750J0D01*
G01*
G37*
G36*
G01*
X261753670Y-96758580D02*
X260841170Y-96758580D01*
G75*
G02*
X260597420Y-96514830I0J243750D01*
G01*
X260597420Y-96027330D01*
G75*
G02*
X260841170Y-95783580I243750J0D01*
G01*
X261753670Y-95783580D01*
G75*
G02*
X261997420Y-96027330I0J-243750D01*
G01*
X261997420Y-96514830D01*
G75*
G02*
X261753670Y-96758580I-243750J0D01*
G01*
G37*
G36*
G01*
X264273350Y-98633580D02*
X263360850Y-98633580D01*
G75*
G02*
X263117100Y-98389830I0J243750D01*
G01*
X263117100Y-97902330D01*
G75*
G02*
X263360850Y-97658580I243750J0D01*
G01*
X264273350Y-97658580D01*
G75*
G02*
X264517100Y-97902330I0J-243750D01*
G01*
X264517100Y-98389830D01*
G75*
G02*
X264273350Y-98633580I-243750J0D01*
G01*
G37*
G36*
G01*
X264273350Y-96758580D02*
X263360850Y-96758580D01*
G75*
G02*
X263117100Y-96514830I0J243750D01*
G01*
X263117100Y-96027330D01*
G75*
G02*
X263360850Y-95783580I243750J0D01*
G01*
X264273350Y-95783580D01*
G75*
G02*
X264517100Y-96027330I0J-243750D01*
G01*
X264517100Y-96514830D01*
G75*
G02*
X264273350Y-96758580I-243750J0D01*
G01*
G37*
D14*
X339429320Y-162369620D03*
D15*
X336889320Y-167449620D03*
D14*
X333079320Y-164909620D03*
D16*
X331809320Y-167449620D03*
X341969320Y-167449620D03*
D14*
X363356120Y-95718820D03*
D15*
X360816120Y-100798820D03*
D14*
X357006120Y-98258820D03*
D16*
X355736120Y-100798820D03*
X365896120Y-100798820D03*
D17*
X282199100Y-113759520D03*
X282199100Y-111559520D03*
X280499100Y-111559520D03*
X280499100Y-113759520D03*
D18*
X265825240Y-88390980D03*
X259375240Y-88390980D03*
X265050240Y-88390980D03*
X260150240Y-88390980D03*
D19*
X260850240Y-88390980D03*
X264350240Y-88390980D03*
X261350240Y-88390980D03*
X263850240Y-88390980D03*
X261850240Y-88390980D03*
X263350240Y-88390980D03*
X262850240Y-88390980D03*
X262350240Y-88390980D03*
D20*
X265490240Y-86945980D03*
X259710240Y-86945980D03*
D21*
X258280240Y-87475980D03*
X266920240Y-87475980D03*
D22*
X258280240Y-83295980D03*
X266920240Y-83295980D03*
D10*
X261531860Y-93205340D03*
X263531860Y-93205340D03*
X261531860Y-91305340D03*
D23*
X263531860Y-91505340D03*
D14*
X77542620Y-143306920D03*
D15*
X75002620Y-148386920D03*
D14*
X71192620Y-145846920D03*
D16*
X69922620Y-148386920D03*
X80082620Y-148386920D03*
D14*
X82305120Y-162369620D03*
D15*
X79765120Y-167449620D03*
D14*
X75955120Y-164909620D03*
D16*
X74685120Y-167449620D03*
X84845120Y-167449620D03*
D14*
X199005647Y-219529227D03*
D15*
X196465647Y-224609227D03*
D14*
X192655647Y-222069227D03*
D16*
X191385647Y-224609227D03*
X201545647Y-224609227D03*
D24*
X146465747Y-217624227D03*
X246465547Y-217624227D03*
D15*
X146465747Y-232864227D03*
X246465547Y-232864227D03*
D14*
X318106020Y-200469620D03*
D15*
X315566020Y-205549620D03*
D14*
X311756020Y-203009620D03*
D16*
X310486020Y-205549620D03*
X320646020Y-205549620D03*
D14*
X306231520Y-219519620D03*
D15*
X303691520Y-224599620D03*
D14*
X299881520Y-222059620D03*
D16*
X298611520Y-224599620D03*
X308771520Y-224599620D03*
D14*
X315629520Y-162369620D03*
D15*
X313089520Y-167449620D03*
D14*
X309279520Y-164909620D03*
D16*
X308009520Y-167449620D03*
X318169520Y-167449620D03*
D14*
X268060380Y-219519620D03*
D15*
X265520380Y-224599620D03*
D14*
X261710380Y-222059620D03*
D16*
X260440380Y-224599620D03*
X270600380Y-224599620D03*
G36*
G01*
X279103770Y-91493520D02*
X280016270Y-91493520D01*
G75*
G02*
X280260020Y-91737270I0J-243750D01*
G01*
X280260020Y-92224770D01*
G75*
G02*
X280016270Y-92468520I-243750J0D01*
G01*
X279103770Y-92468520D01*
G75*
G02*
X278860020Y-92224770I0J243750D01*
G01*
X278860020Y-91737270D01*
G75*
G02*
X279103770Y-91493520I243750J0D01*
G01*
G37*
G36*
G01*
X279103770Y-89618520D02*
X280016270Y-89618520D01*
G75*
G02*
X280260020Y-89862270I0J-243750D01*
G01*
X280260020Y-90349770D01*
G75*
G02*
X280016270Y-90593520I-243750J0D01*
G01*
X279103770Y-90593520D01*
G75*
G02*
X278860020Y-90349770I0J243750D01*
G01*
X278860020Y-89862270D01*
G75*
G02*
X279103770Y-89618520I243750J0D01*
G01*
G37*
G36*
G01*
X260837500Y-117231250D02*
X260837500Y-116318750D01*
G75*
G02*
X261081250Y-116075000I243750J0D01*
G01*
X261568750Y-116075000D01*
G75*
G02*
X261812500Y-116318750I0J-243750D01*
G01*
X261812500Y-117231250D01*
G75*
G02*
X261568750Y-117475000I-243750J0D01*
G01*
X261081250Y-117475000D01*
G75*
G02*
X260837500Y-117231250I0J243750D01*
G01*
G37*
G36*
G01*
X258962500Y-117231250D02*
X258962500Y-116318750D01*
G75*
G02*
X259206250Y-116075000I243750J0D01*
G01*
X259693750Y-116075000D01*
G75*
G02*
X259937500Y-116318750I0J-243750D01*
G01*
X259937500Y-117231250D01*
G75*
G02*
X259693750Y-117475000I-243750J0D01*
G01*
X259206250Y-117475000D01*
G75*
G02*
X258962500Y-117231250I0J243750D01*
G01*
G37*
G36*
G01*
X255160120Y-91550170D02*
X255160120Y-92462670D01*
G75*
G02*
X254916370Y-92706420I-243750J0D01*
G01*
X254428870Y-92706420D01*
G75*
G02*
X254185120Y-92462670I0J243750D01*
G01*
X254185120Y-91550170D01*
G75*
G02*
X254428870Y-91306420I243750J0D01*
G01*
X254916370Y-91306420D01*
G75*
G02*
X255160120Y-91550170I0J-243750D01*
G01*
G37*
G36*
G01*
X257035120Y-91550170D02*
X257035120Y-92462670D01*
G75*
G02*
X256791370Y-92706420I-243750J0D01*
G01*
X256303870Y-92706420D01*
G75*
G02*
X256060120Y-92462670I0J243750D01*
G01*
X256060120Y-91550170D01*
G75*
G02*
X256303870Y-91306420I243750J0D01*
G01*
X256791370Y-91306420D01*
G75*
G02*
X257035120Y-91550170I0J-243750D01*
G01*
G37*
G36*
G01*
X270063620Y-92462670D02*
X270063620Y-91550170D01*
G75*
G02*
X270307370Y-91306420I243750J0D01*
G01*
X270794870Y-91306420D01*
G75*
G02*
X271038620Y-91550170I0J-243750D01*
G01*
X271038620Y-92462670D01*
G75*
G02*
X270794870Y-92706420I-243750J0D01*
G01*
X270307370Y-92706420D01*
G75*
G02*
X270063620Y-92462670I0J243750D01*
G01*
G37*
G36*
G01*
X268188620Y-92462670D02*
X268188620Y-91550170D01*
G75*
G02*
X268432370Y-91306420I243750J0D01*
G01*
X268919870Y-91306420D01*
G75*
G02*
X269163620Y-91550170I0J-243750D01*
G01*
X269163620Y-92462670D01*
G75*
G02*
X268919870Y-92706420I-243750J0D01*
G01*
X268432370Y-92706420D01*
G75*
G02*
X268188620Y-92462670I0J243750D01*
G01*
G37*
D14*
X301354720Y-181419620D03*
D15*
X298814720Y-186499620D03*
D14*
X295004720Y-183959620D03*
D16*
X293734720Y-186499620D03*
X303894720Y-186499620D03*
D14*
X291880520Y-200469620D03*
D15*
X289340520Y-205549620D03*
D14*
X285530520Y-203009620D03*
D16*
X284260520Y-205549620D03*
X294420520Y-205549620D03*
D14*
X325281520Y-124269620D03*
D15*
X322741520Y-129349620D03*
D14*
X318931520Y-126809620D03*
D16*
X317661520Y-129349620D03*
X327821520Y-129349620D03*
D14*
X306180720Y-143319620D03*
D15*
X303640720Y-148399620D03*
D14*
X299830720Y-145859620D03*
D16*
X298560720Y-148399620D03*
X308720720Y-148399620D03*
D14*
X363381520Y-162369620D03*
D15*
X360841520Y-167449620D03*
D14*
X357031520Y-164909620D03*
D16*
X355761520Y-167449620D03*
X365921520Y-167449620D03*
D14*
X363381520Y-181419620D03*
D15*
X360841520Y-186499620D03*
D14*
X357031520Y-183959620D03*
D16*
X355761520Y-186499620D03*
X365921520Y-186499620D03*
D14*
X344280720Y-124269620D03*
D15*
X341740720Y-129349620D03*
D14*
X337930720Y-126809620D03*
D16*
X336660720Y-129349620D03*
X346820720Y-129349620D03*
D14*
X120430520Y-200469620D03*
D15*
X117890520Y-205549620D03*
D14*
X114080520Y-203009620D03*
D16*
X112810520Y-205549620D03*
X122970520Y-205549620D03*
D14*
X201380320Y-162369620D03*
D15*
X198840320Y-167449620D03*
D14*
X195030320Y-164909620D03*
D16*
X193760320Y-167449620D03*
X203920320Y-167449620D03*
D14*
X139480520Y-200469620D03*
D15*
X136940520Y-205549620D03*
D14*
X133130520Y-203009620D03*
D16*
X131860520Y-205549620D03*
X142020520Y-205549620D03*
D14*
X125180320Y-162369620D03*
D15*
X122640320Y-167449620D03*
D14*
X118830320Y-164909620D03*
D16*
X117560320Y-167449620D03*
X127720320Y-167449620D03*
D14*
X177580520Y-200469620D03*
D15*
X175040520Y-205549620D03*
D14*
X171230520Y-203009620D03*
D16*
X169960520Y-205549620D03*
X180120520Y-205549620D03*
D14*
X220430320Y-162369620D03*
D15*
X217890320Y-167449620D03*
D14*
X214080320Y-164909620D03*
D16*
X212810320Y-167449620D03*
X222970320Y-167449620D03*
D14*
X182330320Y-162369620D03*
D15*
X179790320Y-167449620D03*
D14*
X175980320Y-164909620D03*
D16*
X174710320Y-167449620D03*
X184870320Y-167449620D03*
D14*
X344306120Y-95718820D03*
D15*
X341766120Y-100798820D03*
D14*
X337956120Y-98258820D03*
D16*
X336686120Y-100798820D03*
X346846120Y-100798820D03*
D14*
X325256120Y-95718820D03*
D15*
X322716120Y-100798820D03*
D14*
X318906120Y-98258820D03*
D16*
X317636120Y-100798820D03*
X327796120Y-100798820D03*
D14*
X306206120Y-95718820D03*
D15*
X303666120Y-100798820D03*
D14*
X299856120Y-98258820D03*
D16*
X298586120Y-100798820D03*
X308746120Y-100798820D03*
D14*
X287215320Y-95718820D03*
D15*
X284675320Y-100798820D03*
D14*
X280865320Y-98258820D03*
D16*
X279595320Y-100798820D03*
X289755320Y-100798820D03*
D14*
X249056120Y-95718820D03*
D15*
X246516120Y-100798820D03*
D14*
X242706120Y-98258820D03*
D16*
X241436120Y-100798820D03*
X251596120Y-100798820D03*
D14*
X230006120Y-95718820D03*
D15*
X227466120Y-100798820D03*
D14*
X223656120Y-98258820D03*
D16*
X222386120Y-100798820D03*
X232546120Y-100798820D03*
D14*
X210956120Y-95718820D03*
D15*
X208416120Y-100798820D03*
D14*
X204606120Y-98258820D03*
D16*
X203336120Y-100798820D03*
X213496120Y-100798820D03*
D14*
X191906120Y-95718820D03*
D15*
X189366120Y-100798820D03*
D14*
X185556120Y-98258820D03*
D16*
X184286120Y-100798820D03*
X194446120Y-100798820D03*
D14*
X172856120Y-95718820D03*
D15*
X170316120Y-100798820D03*
D14*
X166506120Y-98258820D03*
D16*
X165236120Y-100798820D03*
X175396120Y-100798820D03*
D14*
X153806120Y-95718820D03*
D15*
X151266120Y-100798820D03*
D14*
X147456120Y-98258820D03*
D16*
X146186120Y-100798820D03*
X156346120Y-100798820D03*
D14*
X134756120Y-95718820D03*
D15*
X132216120Y-100798820D03*
D14*
X128406120Y-98258820D03*
D16*
X127136120Y-100798820D03*
X137296120Y-100798820D03*
D14*
X115706120Y-95718820D03*
D15*
X113166120Y-100798820D03*
D14*
X109356120Y-98258820D03*
D16*
X108086120Y-100798820D03*
X118246120Y-100798820D03*
D14*
X96656120Y-95718820D03*
D15*
X94116120Y-100798820D03*
D14*
X90306120Y-98258820D03*
D16*
X89036120Y-100798820D03*
X99196120Y-100798820D03*
D14*
X77606120Y-95718820D03*
D15*
X75066120Y-100798820D03*
D14*
X71256120Y-98258820D03*
D16*
X69986120Y-100798820D03*
X80146120Y-100798820D03*
D14*
X129853920Y-181419620D03*
D15*
X127313920Y-186499620D03*
D14*
X123503920Y-183959620D03*
D16*
X122233920Y-186499620D03*
X132393920Y-186499620D03*
D14*
X163280320Y-162369620D03*
D15*
X160740320Y-167449620D03*
D14*
X156930320Y-164909620D03*
D16*
X155660320Y-167449620D03*
X165820320Y-167449620D03*
D14*
X106130320Y-162369620D03*
D15*
X103590320Y-167449620D03*
D14*
X99780320Y-164909620D03*
D16*
X98510320Y-167449620D03*
X108670320Y-167449620D03*
D14*
X277529520Y-162369620D03*
D15*
X274989520Y-167449620D03*
D14*
X271179520Y-164909620D03*
D16*
X269909520Y-167449620D03*
X280069520Y-167449620D03*
D14*
X258530320Y-162369620D03*
D15*
X255990320Y-167449620D03*
D14*
X252180320Y-164909620D03*
D16*
X250910320Y-167449620D03*
X261070320Y-167449620D03*
D14*
X215680520Y-200469620D03*
D15*
X213140520Y-205549620D03*
D14*
X209330520Y-203009620D03*
D16*
X208060520Y-205549620D03*
X218220520Y-205549620D03*
D14*
X234730520Y-200469620D03*
D15*
X232190520Y-205549620D03*
D14*
X228380520Y-203009620D03*
D16*
X227110520Y-205549620D03*
X237270520Y-205549620D03*
D14*
X263254720Y-181419620D03*
D15*
X260714720Y-186499620D03*
D14*
X256904720Y-183959620D03*
D16*
X255634720Y-186499620D03*
X265794720Y-186499620D03*
D14*
X244204720Y-181419620D03*
D15*
X241664720Y-186499620D03*
D14*
X237854720Y-183959620D03*
D16*
X236584720Y-186499620D03*
X246744720Y-186499620D03*
D14*
X225154720Y-181419620D03*
D15*
X222614720Y-186499620D03*
D14*
X218804720Y-183959620D03*
D16*
X217534720Y-186499620D03*
X227694720Y-186499620D03*
D14*
X239480320Y-162369620D03*
D15*
X236940320Y-167449620D03*
D14*
X233130320Y-164909620D03*
D16*
X231860320Y-167449620D03*
X242020320Y-167449620D03*
D14*
X206104720Y-181419620D03*
D15*
X203564720Y-186499620D03*
D14*
X199754720Y-183959620D03*
D16*
X198484720Y-186499620D03*
X208644720Y-186499620D03*
D14*
X187054720Y-181419620D03*
D15*
X184514720Y-186499620D03*
D14*
X180704720Y-183959620D03*
D16*
X179434720Y-186499620D03*
X189594720Y-186499620D03*
D14*
X287130720Y-124269620D03*
D15*
X284590720Y-129349620D03*
D14*
X280780720Y-126809620D03*
D16*
X279510720Y-129349620D03*
X289670720Y-129349620D03*
D14*
X168004720Y-181419620D03*
D15*
X165464720Y-186499620D03*
D14*
X161654720Y-183959620D03*
D16*
X160384720Y-186499620D03*
X170544720Y-186499620D03*
D14*
X144230320Y-162369620D03*
D15*
X141690320Y-167449620D03*
D14*
X137880320Y-164909620D03*
D16*
X136610320Y-167449620D03*
X146770320Y-167449620D03*
D14*
X148954720Y-181419620D03*
D15*
X146414720Y-186499620D03*
D14*
X142604720Y-183959620D03*
D16*
X141334720Y-186499620D03*
X151494720Y-186499620D03*
D14*
X158530520Y-200469620D03*
D15*
X155990520Y-205549620D03*
D14*
X152180520Y-203009620D03*
D16*
X150910520Y-205549620D03*
X161070520Y-205549620D03*
D14*
X196630520Y-200469620D03*
D15*
X194090520Y-205549620D03*
D14*
X190280520Y-203009620D03*
D16*
X189010520Y-205549620D03*
X199170520Y-205549620D03*
D14*
X110854720Y-181419620D03*
D15*
X108314720Y-186499620D03*
D14*
X104504720Y-183959620D03*
D16*
X103234720Y-186499620D03*
X113394720Y-186499620D03*
D14*
X249030720Y-143319620D03*
D15*
X246490720Y-148399620D03*
D14*
X242680720Y-145859620D03*
D16*
X241410720Y-148399620D03*
X251570720Y-148399620D03*
D14*
X229980720Y-143319620D03*
D15*
X227440720Y-148399620D03*
D14*
X223630720Y-145859620D03*
D16*
X222360720Y-148399620D03*
X232520720Y-148399620D03*
D14*
X210930720Y-143319620D03*
D15*
X208390720Y-148399620D03*
D14*
X204580720Y-145859620D03*
D16*
X203310720Y-148399620D03*
X213470720Y-148399620D03*
D14*
X191880720Y-143319620D03*
D15*
X189340720Y-148399620D03*
D14*
X185530720Y-145859620D03*
D16*
X184260720Y-148399620D03*
X194420720Y-148399620D03*
D14*
X172830720Y-143319620D03*
D15*
X170290720Y-148399620D03*
D14*
X166480720Y-145859620D03*
D16*
X165210720Y-148399620D03*
X175370720Y-148399620D03*
D14*
X153780720Y-143319620D03*
D15*
X151240720Y-148399620D03*
D14*
X147430720Y-145859620D03*
D16*
X146160720Y-148399620D03*
X156320720Y-148399620D03*
D14*
X134730720Y-143319620D03*
D15*
X132190720Y-148399620D03*
D14*
X128380720Y-145859620D03*
D16*
X127110720Y-148399620D03*
X137270720Y-148399620D03*
D14*
X115680720Y-143319620D03*
D15*
X113140720Y-148399620D03*
D14*
X109330720Y-145859620D03*
D16*
X108060720Y-148399620D03*
X118220720Y-148399620D03*
D14*
X96579920Y-143319620D03*
D15*
X94039920Y-148399620D03*
D14*
X90229920Y-145859620D03*
D16*
X88959920Y-148399620D03*
X99119920Y-148399620D03*
D14*
X268080720Y-143319620D03*
D15*
X265540720Y-148399620D03*
D14*
X261730720Y-145859620D03*
D16*
X260460720Y-148399620D03*
X270620720Y-148399620D03*
D14*
X253780520Y-200469620D03*
D15*
X251240520Y-205549620D03*
D14*
X247430520Y-203009620D03*
D16*
X246160520Y-205549620D03*
X256320520Y-205549620D03*
D14*
X89442520Y-200469620D03*
D15*
X86902520Y-205549620D03*
D14*
X83092520Y-203009620D03*
D16*
X81822520Y-205549620D03*
X91982520Y-205549620D03*
D24*
X74996270Y-198564620D03*
X98808770Y-198564620D03*
D15*
X74996270Y-213804620D03*
X98808770Y-213804620D03*
D14*
X103749524Y-219519620D03*
D15*
X101209524Y-224599620D03*
D14*
X97399524Y-222059620D03*
D16*
X96129524Y-224599620D03*
X106289524Y-224599620D03*
D14*
X79917520Y-219519620D03*
D15*
X77377520Y-224599620D03*
D14*
X73567520Y-222059620D03*
D16*
X72297520Y-224599620D03*
X82457520Y-224599620D03*
D14*
X296579520Y-162369620D03*
D15*
X294039520Y-167449620D03*
D14*
X290229520Y-164909620D03*
D16*
X288959520Y-167449620D03*
X299119520Y-167449620D03*
D14*
X127557128Y-219529227D03*
D15*
X125017128Y-224609227D03*
D14*
X121207128Y-222069227D03*
D16*
X119937128Y-224609227D03*
X130097128Y-224609227D03*
D14*
X287130720Y-143319620D03*
D15*
X284590720Y-148399620D03*
D14*
X280780720Y-145859620D03*
D16*
X279510720Y-148399620D03*
X289670720Y-148399620D03*
D14*
X363381520Y-143319620D03*
D15*
X360841520Y-148399620D03*
D14*
X357031520Y-145859620D03*
D16*
X355761520Y-148399620D03*
X365921520Y-148399620D03*
X275370520Y-205549620D03*
X265210520Y-205549620D03*
D14*
X266480520Y-203009620D03*
D15*
X270290520Y-205549620D03*
D14*
X272830520Y-200469620D03*
X287181520Y-219519620D03*
D15*
X284641520Y-224599620D03*
D14*
X280831520Y-222059620D03*
D16*
X279561520Y-224599620D03*
X289721520Y-224599620D03*
D14*
X306180720Y-124269620D03*
D15*
X303640720Y-129349620D03*
D14*
X299830720Y-126809620D03*
D16*
X298560720Y-129349620D03*
X308720720Y-129349620D03*
G36*
G01*
X256080420Y-96070120D02*
X254830420Y-96070120D01*
G75*
G02*
X254580420Y-95820120I0J250000D01*
G01*
X254580420Y-95070120D01*
G75*
G02*
X254830420Y-94820120I250000J0D01*
G01*
X256080420Y-94820120D01*
G75*
G02*
X256330420Y-95070120I0J-250000D01*
G01*
X256330420Y-95820120D01*
G75*
G02*
X256080420Y-96070120I-250000J0D01*
G01*
G37*
G36*
G01*
X256080420Y-98870120D02*
X254830420Y-98870120D01*
G75*
G02*
X254580420Y-98620120I0J250000D01*
G01*
X254580420Y-97870120D01*
G75*
G02*
X254830420Y-97620120I250000J0D01*
G01*
X256080420Y-97620120D01*
G75*
G02*
X256330420Y-97870120I0J-250000D01*
G01*
X256330420Y-98620120D01*
G75*
G02*
X256080420Y-98870120I-250000J0D01*
G01*
G37*
D14*
X268080720Y-124269620D03*
D15*
X265540720Y-129349620D03*
D14*
X261730720Y-126809620D03*
D16*
X260460720Y-129349620D03*
X270620720Y-129349620D03*
D14*
X249030720Y-124269620D03*
D15*
X246490720Y-129349620D03*
D14*
X242680720Y-126809620D03*
D16*
X241410720Y-129349620D03*
X251570720Y-129349620D03*
D14*
X229980720Y-124269620D03*
D15*
X227440720Y-129349620D03*
D14*
X223630720Y-126809620D03*
D16*
X222360720Y-129349620D03*
X232520720Y-129349620D03*
D14*
X210930720Y-124269620D03*
D15*
X208390720Y-129349620D03*
D14*
X204580720Y-126809620D03*
D16*
X203310720Y-129349620D03*
X213470720Y-129349620D03*
D14*
X191880720Y-124269620D03*
D15*
X189340720Y-129349620D03*
D14*
X185530720Y-126809620D03*
D16*
X184260720Y-129349620D03*
X194420720Y-129349620D03*
D14*
X172830720Y-124269620D03*
D15*
X170290720Y-129349620D03*
D14*
X166480720Y-126809620D03*
D16*
X165210720Y-129349620D03*
X175370720Y-129349620D03*
D14*
X153780720Y-124269620D03*
D15*
X151240720Y-129349620D03*
D14*
X147430720Y-126809620D03*
D16*
X146160720Y-129349620D03*
X156320720Y-129349620D03*
D14*
X134730720Y-124269620D03*
D15*
X132190720Y-129349620D03*
D14*
X128380720Y-126809620D03*
D16*
X127110720Y-129349620D03*
X137270720Y-129349620D03*
D14*
X115629920Y-124269620D03*
D15*
X113089920Y-129349620D03*
D14*
X109279920Y-126809620D03*
D16*
X108009920Y-129349620D03*
X118169920Y-129349620D03*
D14*
X96579920Y-124269620D03*
D15*
X94039920Y-129349620D03*
D14*
X90229920Y-126809620D03*
D16*
X88959920Y-129349620D03*
X99119920Y-129349620D03*
D14*
X77529920Y-124269620D03*
D15*
X74989920Y-129349620D03*
D14*
X71179920Y-126809620D03*
D16*
X69909920Y-129349620D03*
X80069920Y-129349620D03*
D14*
X332342720Y-181419620D03*
D15*
X329802720Y-186499620D03*
D14*
X325992720Y-183959620D03*
D16*
X324722720Y-186499620D03*
X334882720Y-186499620D03*
D24*
X317896470Y-179514620D03*
X341708970Y-179514620D03*
D15*
X317896470Y-194754620D03*
X341708970Y-194754620D03*
D14*
X363381520Y-200469620D03*
D15*
X360841520Y-205549620D03*
D14*
X357031520Y-203009620D03*
D16*
X355761520Y-205549620D03*
X365921520Y-205549620D03*
D14*
X363381520Y-124269620D03*
D15*
X360841520Y-129349620D03*
D14*
X357031520Y-126809620D03*
D16*
X355761520Y-129349620D03*
X365921520Y-129349620D03*
D25*
X365007120Y-228791620D03*
X365007120Y-232091620D03*
X365007120Y-209741620D03*
X365007120Y-213041620D03*
X365007120Y-190691620D03*
X365007120Y-193991620D03*
X365007120Y-171641620D03*
X365007120Y-174941620D03*
X365007120Y-152591620D03*
X365007120Y-155891620D03*
X365007120Y-133541620D03*
X365007120Y-136841620D03*
X365032520Y-105244820D03*
X365032520Y-108544820D03*
X345957120Y-228791620D03*
X345957120Y-232091620D03*
X345957120Y-209741620D03*
X345957120Y-213041620D03*
X340877120Y-171641620D03*
X340877120Y-174941620D03*
X335797120Y-152591620D03*
X335797120Y-155891620D03*
X345957120Y-133541620D03*
X345957120Y-136841620D03*
X345982520Y-105244820D03*
X345982520Y-108544820D03*
X326907120Y-228791620D03*
X326907120Y-232091620D03*
X319287120Y-209741620D03*
X319287120Y-213041620D03*
X333257120Y-190691620D03*
X333257120Y-193991620D03*
X316747120Y-171641620D03*
X316747120Y-174941620D03*
X326907120Y-133541620D03*
X326907120Y-136841620D03*
X326932520Y-105244820D03*
X326932520Y-108544820D03*
X307857120Y-228791620D03*
X307857120Y-232091620D03*
X302777120Y-190691620D03*
X302777120Y-193991620D03*
X297697120Y-171641620D03*
X297697120Y-174941620D03*
X307857120Y-152591620D03*
X307857120Y-155891620D03*
X307857120Y-133541620D03*
X307857120Y-136841620D03*
X307882520Y-105244820D03*
X307882520Y-108544820D03*
X288807120Y-228791620D03*
X288807120Y-232091620D03*
X293887120Y-209741620D03*
X293887120Y-213041620D03*
X283727120Y-190691620D03*
X283727120Y-193991620D03*
X278647120Y-171641620D03*
X278647120Y-174941620D03*
X288807120Y-152591620D03*
X288807120Y-155891620D03*
X288807120Y-133541620D03*
X288807120Y-136841620D03*
X291085020Y-105063020D03*
X291085020Y-108363020D03*
X269757120Y-228791620D03*
X269757120Y-232091620D03*
X274837120Y-209741620D03*
X274837120Y-213041620D03*
X264677120Y-190691620D03*
X264677120Y-193991620D03*
X259597120Y-171641620D03*
X259597120Y-174941620D03*
X269757120Y-152591620D03*
X269757120Y-155891620D03*
X269757120Y-133541620D03*
X269757120Y-136841620D03*
X255787120Y-209741620D03*
X255787120Y-213041620D03*
X245627120Y-190691620D03*
X245627120Y-193991620D03*
X240547120Y-171641620D03*
X240547120Y-174941620D03*
X250707120Y-152591620D03*
X250707120Y-155891620D03*
X250707120Y-133541620D03*
X250707120Y-136841620D03*
X248330720Y-107847860D03*
X248330720Y-111147860D03*
X236737120Y-209741620D03*
X236737120Y-213041620D03*
X226577120Y-190691620D03*
X226577120Y-193991620D03*
X221497120Y-171641620D03*
X221497120Y-174941620D03*
X231657120Y-152591620D03*
X231657120Y-155891620D03*
X231657120Y-133541620D03*
X231657120Y-136841620D03*
X231682520Y-105244820D03*
X231682520Y-108544820D03*
X217687120Y-209741620D03*
X217687120Y-213041620D03*
X207527120Y-190691620D03*
X207527120Y-193991620D03*
X202447120Y-171641620D03*
X202447120Y-174941620D03*
X212607120Y-152591620D03*
X212607120Y-155891620D03*
X212607120Y-133541620D03*
X212607120Y-136841620D03*
X212632520Y-105244820D03*
X212632520Y-108544820D03*
X199907120Y-228791620D03*
X199907120Y-232091620D03*
X198637120Y-209741620D03*
X198637120Y-213041620D03*
X188477120Y-190691620D03*
X188477120Y-193991620D03*
X183397120Y-171641620D03*
X183397120Y-174941620D03*
X193557120Y-152591620D03*
X193557120Y-155891620D03*
X193557120Y-133541620D03*
X193557120Y-136841620D03*
X193582520Y-105244820D03*
X193582520Y-108544820D03*
X179587120Y-209741620D03*
X179587120Y-213041620D03*
X169427120Y-190691620D03*
X169427120Y-193991620D03*
X164347120Y-171641620D03*
X164347120Y-174941620D03*
X174507120Y-152591620D03*
X174507120Y-155891620D03*
X174507120Y-133541620D03*
X174507120Y-136841620D03*
X174532520Y-105244820D03*
X174532520Y-108544820D03*
X160537120Y-209741620D03*
X160537120Y-213041620D03*
X150377120Y-190691620D03*
X150377120Y-193991620D03*
X145297120Y-171641620D03*
X145297120Y-174941620D03*
X155457120Y-152591620D03*
X155457120Y-155891620D03*
X155457120Y-133541620D03*
X155457120Y-136841620D03*
X155482520Y-105244820D03*
X155482520Y-108544820D03*
X128787120Y-228791620D03*
X128787120Y-232091620D03*
X141487120Y-209741620D03*
X141487120Y-213041620D03*
X131327120Y-190691620D03*
X131327120Y-193991620D03*
X126247120Y-171641620D03*
X126247120Y-174941620D03*
X136407120Y-152591620D03*
X136407120Y-155891620D03*
X136407120Y-133541620D03*
X136407120Y-136841620D03*
X136432520Y-105244820D03*
X136432520Y-108544820D03*
X122437120Y-209741620D03*
X122437120Y-213041620D03*
X112277120Y-190691620D03*
X112277120Y-193991620D03*
X107197120Y-171641620D03*
X107197120Y-174941620D03*
X117357120Y-152591620D03*
X117357120Y-155891620D03*
X117357120Y-133541620D03*
X117357120Y-136841620D03*
X117382520Y-105244820D03*
X117382520Y-108544820D03*
X105927120Y-228791620D03*
X105927120Y-232091620D03*
X90687120Y-209741620D03*
X90687120Y-213041620D03*
X98307120Y-152591620D03*
X98307120Y-155891620D03*
X98307120Y-133541620D03*
X98307120Y-136841620D03*
X98281720Y-105270220D03*
X98281720Y-108570220D03*
X81797120Y-228791620D03*
X81797120Y-232091620D03*
X85607120Y-190691620D03*
X85607120Y-193991620D03*
X83067120Y-171641620D03*
X83067120Y-174941620D03*
X79257120Y-152591620D03*
X79257120Y-155891620D03*
X79257120Y-133541620D03*
X79257120Y-136841620D03*
X79282520Y-105244820D03*
X79282520Y-108544820D03*
D14*
X84680020Y-181419620D03*
D15*
X82140020Y-186499620D03*
D14*
X78330020Y-183959620D03*
D16*
X77060020Y-186499620D03*
X87220020Y-186499620D03*
D14*
X282304720Y-181419620D03*
D15*
X279764720Y-186499620D03*
D14*
X275954720Y-183959620D03*
D16*
X274684720Y-186499620D03*
X284844720Y-186499620D03*
G36*
G01*
X267475000Y-96618750D02*
X267475000Y-97531250D01*
G75*
G02*
X267231250Y-97775000I-243750J0D01*
G01*
X266743750Y-97775000D01*
G75*
G02*
X266500000Y-97531250I0J243750D01*
G01*
X266500000Y-96618750D01*
G75*
G02*
X266743750Y-96375000I243750J0D01*
G01*
X267231250Y-96375000D01*
G75*
G02*
X267475000Y-96618750I0J-243750D01*
G01*
G37*
G36*
G01*
X269350000Y-96618750D02*
X269350000Y-97531250D01*
G75*
G02*
X269106250Y-97775000I-243750J0D01*
G01*
X268618750Y-97775000D01*
G75*
G02*
X268375000Y-97531250I0J243750D01*
G01*
X268375000Y-96618750D01*
G75*
G02*
X268618750Y-96375000I243750J0D01*
G01*
X269106250Y-96375000D01*
G75*
G02*
X269350000Y-96618750I0J-243750D01*
G01*
G37*
G36*
G01*
X285661520Y-111982570D02*
X285661520Y-111070070D01*
G75*
G02*
X285905270Y-110826320I243750J0D01*
G01*
X286392770Y-110826320D01*
G75*
G02*
X286636520Y-111070070I0J-243750D01*
G01*
X286636520Y-111982570D01*
G75*
G02*
X286392770Y-112226320I-243750J0D01*
G01*
X285905270Y-112226320D01*
G75*
G02*
X285661520Y-111982570I0J243750D01*
G01*
G37*
G36*
G01*
X283786520Y-111982570D02*
X283786520Y-111070070D01*
G75*
G02*
X284030270Y-110826320I243750J0D01*
G01*
X284517770Y-110826320D01*
G75*
G02*
X284761520Y-111070070I0J-243750D01*
G01*
X284761520Y-111982570D01*
G75*
G02*
X284517770Y-112226320I-243750J0D01*
G01*
X284030270Y-112226320D01*
G75*
G02*
X283786520Y-111982570I0J243750D01*
G01*
G37*
G36*
G01*
X285686920Y-114255870D02*
X285686920Y-113343370D01*
G75*
G02*
X285930670Y-113099620I243750J0D01*
G01*
X286418170Y-113099620D01*
G75*
G02*
X286661920Y-113343370I0J-243750D01*
G01*
X286661920Y-114255870D01*
G75*
G02*
X286418170Y-114499620I-243750J0D01*
G01*
X285930670Y-114499620D01*
G75*
G02*
X285686920Y-114255870I0J243750D01*
G01*
G37*
G36*
G01*
X283811920Y-114255870D02*
X283811920Y-113343370D01*
G75*
G02*
X284055670Y-113099620I243750J0D01*
G01*
X284543170Y-113099620D01*
G75*
G02*
X284786920Y-113343370I0J-243750D01*
G01*
X284786920Y-114255870D01*
G75*
G02*
X284543170Y-114499620I-243750J0D01*
G01*
X284055670Y-114499620D01*
G75*
G02*
X283811920Y-114255870I0J243750D01*
G01*
G37*
G36*
G01*
X253919670Y-103533120D02*
X254832170Y-103533120D01*
G75*
G02*
X255075920Y-103776870I0J-243750D01*
G01*
X255075920Y-104264370D01*
G75*
G02*
X254832170Y-104508120I-243750J0D01*
G01*
X253919670Y-104508120D01*
G75*
G02*
X253675920Y-104264370I0J243750D01*
G01*
X253675920Y-103776870D01*
G75*
G02*
X253919670Y-103533120I243750J0D01*
G01*
G37*
G36*
G01*
X253919670Y-101658120D02*
X254832170Y-101658120D01*
G75*
G02*
X255075920Y-101901870I0J-243750D01*
G01*
X255075920Y-102389370D01*
G75*
G02*
X254832170Y-102633120I-243750J0D01*
G01*
X253919670Y-102633120D01*
G75*
G02*
X253675920Y-102389370I0J243750D01*
G01*
X253675920Y-101901870D01*
G75*
G02*
X253919670Y-101658120I243750J0D01*
G01*
G37*
G36*
G01*
X270175000Y-117331250D02*
X270175000Y-116418750D01*
G75*
G02*
X270418750Y-116175000I243750J0D01*
G01*
X270906250Y-116175000D01*
G75*
G02*
X271150000Y-116418750I0J-243750D01*
G01*
X271150000Y-117331250D01*
G75*
G02*
X270906250Y-117575000I-243750J0D01*
G01*
X270418750Y-117575000D01*
G75*
G02*
X270175000Y-117331250I0J243750D01*
G01*
G37*
G36*
G01*
X268300000Y-117331250D02*
X268300000Y-116418750D01*
G75*
G02*
X268543750Y-116175000I243750J0D01*
G01*
X269031250Y-116175000D01*
G75*
G02*
X269275000Y-116418750I0J-243750D01*
G01*
X269275000Y-117331250D01*
G75*
G02*
X269031250Y-117575000I-243750J0D01*
G01*
X268543750Y-117575000D01*
G75*
G02*
X268300000Y-117331250I0J243750D01*
G01*
G37*
G36*
G01*
X280119770Y-108763220D02*
X281032270Y-108763220D01*
G75*
G02*
X281276020Y-109006970I0J-243750D01*
G01*
X281276020Y-109494470D01*
G75*
G02*
X281032270Y-109738220I-243750J0D01*
G01*
X280119770Y-109738220D01*
G75*
G02*
X279876020Y-109494470I0J243750D01*
G01*
X279876020Y-109006970D01*
G75*
G02*
X280119770Y-108763220I243750J0D01*
G01*
G37*
G36*
G01*
X280119770Y-106888220D02*
X281032270Y-106888220D01*
G75*
G02*
X281276020Y-107131970I0J-243750D01*
G01*
X281276020Y-107619470D01*
G75*
G02*
X281032270Y-107863220I-243750J0D01*
G01*
X280119770Y-107863220D01*
G75*
G02*
X279876020Y-107619470I0J243750D01*
G01*
X279876020Y-107131970D01*
G75*
G02*
X280119770Y-106888220I243750J0D01*
G01*
G37*
G36*
G01*
X254819470Y-111099420D02*
X253906970Y-111099420D01*
G75*
G02*
X253663220Y-110855670I0J243750D01*
G01*
X253663220Y-110368170D01*
G75*
G02*
X253906970Y-110124420I243750J0D01*
G01*
X254819470Y-110124420D01*
G75*
G02*
X255063220Y-110368170I0J-243750D01*
G01*
X255063220Y-110855670D01*
G75*
G02*
X254819470Y-111099420I-243750J0D01*
G01*
G37*
G36*
G01*
X254819470Y-112974420D02*
X253906970Y-112974420D01*
G75*
G02*
X253663220Y-112730670I0J243750D01*
G01*
X253663220Y-112243170D01*
G75*
G02*
X253906970Y-111999420I243750J0D01*
G01*
X254819470Y-111999420D01*
G75*
G02*
X255063220Y-112243170I0J-243750D01*
G01*
X255063220Y-112730670D01*
G75*
G02*
X254819470Y-112974420I-243750J0D01*
G01*
G37*
D14*
X334781120Y-143319620D03*
D15*
X332241120Y-148399620D03*
D14*
X328431120Y-145859620D03*
D16*
X327161120Y-148399620D03*
X337321120Y-148399620D03*
D24*
X320334870Y-141414620D03*
X344147370Y-141414620D03*
D15*
X320334870Y-156654620D03*
X344147370Y-156654620D03*
D14*
X344331520Y-200469620D03*
D15*
X341791520Y-205549620D03*
D14*
X337981520Y-203009620D03*
D16*
X336711520Y-205549620D03*
X346871520Y-205549620D03*
D14*
X363381520Y-219519620D03*
D15*
X360841520Y-224599620D03*
D14*
X357031520Y-222059620D03*
D16*
X355761520Y-224599620D03*
X365921520Y-224599620D03*
D14*
X325281520Y-219519620D03*
D15*
X322741520Y-224599620D03*
D14*
X318931520Y-222059620D03*
D16*
X317661520Y-224599620D03*
X327821520Y-224599620D03*
D14*
X344331520Y-219519620D03*
D15*
X341791520Y-224599620D03*
D14*
X337981520Y-222059620D03*
D16*
X336711520Y-224599620D03*
X346871520Y-224599620D03*
M02*
