G04 #@! TF.GenerationSoftware,KiCad,Pcbnew,(5.1.9)-1*
G04 #@! TF.CreationDate,2021-04-20T15:34:40+09:00*
G04 #@! TF.ProjectId,JupiterAdvanced,4a757069-7465-4724-9164-76616e636564,1*
G04 #@! TF.SameCoordinates,Original*
G04 #@! TF.FileFunction,Other,User*
%FSLAX46Y46*%
G04 Gerber Fmt 4.6, Leading zero omitted, Abs format (unit mm)*
G04 Created by KiCad (PCBNEW (5.1.9)-1) date 2021-04-20 15:34:40*
%MOMM*%
%LPD*%
G01*
G04 APERTURE LIST*
%ADD10C,0.050000*%
%ADD11C,0.150000*%
G04 APERTURE END LIST*
D10*
X273537500Y-88675000D02*
X273537500Y-86275000D01*
X273537500Y-86275000D02*
X268837500Y-86275000D01*
X268837500Y-86275000D02*
X268837500Y-88675000D01*
X268837500Y-88675000D02*
X273537500Y-88675000D01*
X272425000Y-101775000D02*
X272425000Y-115175000D01*
X259025000Y-101775000D02*
X259025000Y-115175000D01*
X259025000Y-115175000D02*
X272425000Y-115175000D01*
X259025000Y-101775000D02*
X272425000Y-101775000D01*
X260347420Y-98888580D02*
X262247420Y-98888580D01*
X262247420Y-98888580D02*
X262247420Y-95528580D01*
X262247420Y-95528580D02*
X260347420Y-95528580D01*
X260347420Y-95528580D02*
X260347420Y-98888580D01*
X262867100Y-98888580D02*
X264767100Y-98888580D01*
X264767100Y-98888580D02*
X264767100Y-95528580D01*
X264767100Y-95528580D02*
X262867100Y-95528580D01*
X262867100Y-95528580D02*
X262867100Y-98888580D01*
X283049100Y-110559520D02*
X283049100Y-114759520D01*
X279649100Y-110559520D02*
X283049100Y-110559520D01*
X279649100Y-114759520D02*
X279649100Y-110559520D01*
X283049100Y-114759520D02*
X279649100Y-114759520D01*
D11*
X266350240Y-89195980D02*
X266350240Y-88195980D01*
X258850240Y-89195980D02*
X266350240Y-89195980D01*
X258850240Y-88195980D02*
X258850240Y-89195980D01*
X258100240Y-80695980D02*
X258100240Y-88195980D01*
X267100240Y-80695980D02*
X258100240Y-80695980D01*
X267100240Y-88195980D02*
X267100240Y-80695980D01*
X266350240Y-88195980D02*
X267100240Y-88195980D01*
X258100240Y-88195980D02*
X258850240Y-88195980D01*
D10*
X280510020Y-92723520D02*
X280510020Y-89363520D01*
X278610020Y-92723520D02*
X280510020Y-92723520D01*
X278610020Y-89363520D02*
X278610020Y-92723520D01*
X280510020Y-89363520D02*
X278610020Y-89363520D01*
X262067500Y-115825000D02*
X258707500Y-115825000D01*
X262067500Y-117725000D02*
X262067500Y-115825000D01*
X258707500Y-117725000D02*
X262067500Y-117725000D01*
X258707500Y-115825000D02*
X258707500Y-117725000D01*
X253930120Y-92956420D02*
X257290120Y-92956420D01*
X253930120Y-91056420D02*
X253930120Y-92956420D01*
X257290120Y-91056420D02*
X253930120Y-91056420D01*
X257290120Y-92956420D02*
X257290120Y-91056420D01*
X271293620Y-91056420D02*
X267933620Y-91056420D01*
X271293620Y-92956420D02*
X271293620Y-91056420D01*
X267933620Y-92956420D02*
X271293620Y-92956420D01*
X267933620Y-91056420D02*
X267933620Y-92956420D01*
X254335420Y-94565120D02*
X254335420Y-99125120D01*
X256575420Y-94565120D02*
X254335420Y-94565120D01*
X256575420Y-99125120D02*
X256575420Y-94565120D01*
X254335420Y-99125120D02*
X256575420Y-99125120D01*
X366157120Y-232791620D02*
X363857120Y-232791620D01*
X363857120Y-228091620D02*
X363857120Y-232791620D01*
X366157120Y-228091620D02*
X363857120Y-228091620D01*
X366157120Y-232791620D02*
X366157120Y-228091620D01*
X366157120Y-213741620D02*
X363857120Y-213741620D01*
X363857120Y-209041620D02*
X363857120Y-213741620D01*
X366157120Y-209041620D02*
X363857120Y-209041620D01*
X366157120Y-213741620D02*
X366157120Y-209041620D01*
X366157120Y-194691620D02*
X363857120Y-194691620D01*
X363857120Y-189991620D02*
X363857120Y-194691620D01*
X366157120Y-189991620D02*
X363857120Y-189991620D01*
X366157120Y-194691620D02*
X366157120Y-189991620D01*
X366157120Y-175641620D02*
X363857120Y-175641620D01*
X363857120Y-170941620D02*
X363857120Y-175641620D01*
X366157120Y-170941620D02*
X363857120Y-170941620D01*
X366157120Y-175641620D02*
X366157120Y-170941620D01*
X366157120Y-156591620D02*
X363857120Y-156591620D01*
X363857120Y-151891620D02*
X363857120Y-156591620D01*
X366157120Y-151891620D02*
X363857120Y-151891620D01*
X366157120Y-156591620D02*
X366157120Y-151891620D01*
X366157120Y-137541620D02*
X363857120Y-137541620D01*
X363857120Y-132841620D02*
X363857120Y-137541620D01*
X366157120Y-132841620D02*
X363857120Y-132841620D01*
X366157120Y-137541620D02*
X366157120Y-132841620D01*
X366182520Y-109244820D02*
X363882520Y-109244820D01*
X363882520Y-104544820D02*
X363882520Y-109244820D01*
X366182520Y-104544820D02*
X363882520Y-104544820D01*
X366182520Y-109244820D02*
X366182520Y-104544820D01*
X347107120Y-232791620D02*
X344807120Y-232791620D01*
X344807120Y-228091620D02*
X344807120Y-232791620D01*
X347107120Y-228091620D02*
X344807120Y-228091620D01*
X347107120Y-232791620D02*
X347107120Y-228091620D01*
X347107120Y-213741620D02*
X344807120Y-213741620D01*
X344807120Y-209041620D02*
X344807120Y-213741620D01*
X347107120Y-209041620D02*
X344807120Y-209041620D01*
X347107120Y-213741620D02*
X347107120Y-209041620D01*
X342027120Y-175641620D02*
X339727120Y-175641620D01*
X339727120Y-170941620D02*
X339727120Y-175641620D01*
X342027120Y-170941620D02*
X339727120Y-170941620D01*
X342027120Y-175641620D02*
X342027120Y-170941620D01*
X336947120Y-156591620D02*
X334647120Y-156591620D01*
X334647120Y-151891620D02*
X334647120Y-156591620D01*
X336947120Y-151891620D02*
X334647120Y-151891620D01*
X336947120Y-156591620D02*
X336947120Y-151891620D01*
X347107120Y-137541620D02*
X344807120Y-137541620D01*
X344807120Y-132841620D02*
X344807120Y-137541620D01*
X347107120Y-132841620D02*
X344807120Y-132841620D01*
X347107120Y-137541620D02*
X347107120Y-132841620D01*
X347132520Y-109244820D02*
X344832520Y-109244820D01*
X344832520Y-104544820D02*
X344832520Y-109244820D01*
X347132520Y-104544820D02*
X344832520Y-104544820D01*
X347132520Y-109244820D02*
X347132520Y-104544820D01*
X328057120Y-232791620D02*
X325757120Y-232791620D01*
X325757120Y-228091620D02*
X325757120Y-232791620D01*
X328057120Y-228091620D02*
X325757120Y-228091620D01*
X328057120Y-232791620D02*
X328057120Y-228091620D01*
X320437120Y-213741620D02*
X318137120Y-213741620D01*
X318137120Y-209041620D02*
X318137120Y-213741620D01*
X320437120Y-209041620D02*
X318137120Y-209041620D01*
X320437120Y-213741620D02*
X320437120Y-209041620D01*
X334407120Y-194691620D02*
X332107120Y-194691620D01*
X332107120Y-189991620D02*
X332107120Y-194691620D01*
X334407120Y-189991620D02*
X332107120Y-189991620D01*
X334407120Y-194691620D02*
X334407120Y-189991620D01*
X317897120Y-175641620D02*
X315597120Y-175641620D01*
X315597120Y-170941620D02*
X315597120Y-175641620D01*
X317897120Y-170941620D02*
X315597120Y-170941620D01*
X317897120Y-175641620D02*
X317897120Y-170941620D01*
X328057120Y-137541620D02*
X325757120Y-137541620D01*
X325757120Y-132841620D02*
X325757120Y-137541620D01*
X328057120Y-132841620D02*
X325757120Y-132841620D01*
X328057120Y-137541620D02*
X328057120Y-132841620D01*
X328082520Y-109244820D02*
X325782520Y-109244820D01*
X325782520Y-104544820D02*
X325782520Y-109244820D01*
X328082520Y-104544820D02*
X325782520Y-104544820D01*
X328082520Y-109244820D02*
X328082520Y-104544820D01*
X309007120Y-232791620D02*
X306707120Y-232791620D01*
X306707120Y-228091620D02*
X306707120Y-232791620D01*
X309007120Y-228091620D02*
X306707120Y-228091620D01*
X309007120Y-232791620D02*
X309007120Y-228091620D01*
X303927120Y-194691620D02*
X301627120Y-194691620D01*
X301627120Y-189991620D02*
X301627120Y-194691620D01*
X303927120Y-189991620D02*
X301627120Y-189991620D01*
X303927120Y-194691620D02*
X303927120Y-189991620D01*
X298847120Y-175641620D02*
X296547120Y-175641620D01*
X296547120Y-170941620D02*
X296547120Y-175641620D01*
X298847120Y-170941620D02*
X296547120Y-170941620D01*
X298847120Y-175641620D02*
X298847120Y-170941620D01*
X309007120Y-156591620D02*
X306707120Y-156591620D01*
X306707120Y-151891620D02*
X306707120Y-156591620D01*
X309007120Y-151891620D02*
X306707120Y-151891620D01*
X309007120Y-156591620D02*
X309007120Y-151891620D01*
X309007120Y-137541620D02*
X306707120Y-137541620D01*
X306707120Y-132841620D02*
X306707120Y-137541620D01*
X309007120Y-132841620D02*
X306707120Y-132841620D01*
X309007120Y-137541620D02*
X309007120Y-132841620D01*
X309032520Y-109244820D02*
X306732520Y-109244820D01*
X306732520Y-104544820D02*
X306732520Y-109244820D01*
X309032520Y-104544820D02*
X306732520Y-104544820D01*
X309032520Y-109244820D02*
X309032520Y-104544820D01*
X289957120Y-232791620D02*
X287657120Y-232791620D01*
X287657120Y-228091620D02*
X287657120Y-232791620D01*
X289957120Y-228091620D02*
X287657120Y-228091620D01*
X289957120Y-232791620D02*
X289957120Y-228091620D01*
X295037120Y-213741620D02*
X292737120Y-213741620D01*
X292737120Y-209041620D02*
X292737120Y-213741620D01*
X295037120Y-209041620D02*
X292737120Y-209041620D01*
X295037120Y-213741620D02*
X295037120Y-209041620D01*
X284877120Y-194691620D02*
X282577120Y-194691620D01*
X282577120Y-189991620D02*
X282577120Y-194691620D01*
X284877120Y-189991620D02*
X282577120Y-189991620D01*
X284877120Y-194691620D02*
X284877120Y-189991620D01*
X279797120Y-175641620D02*
X277497120Y-175641620D01*
X277497120Y-170941620D02*
X277497120Y-175641620D01*
X279797120Y-170941620D02*
X277497120Y-170941620D01*
X279797120Y-175641620D02*
X279797120Y-170941620D01*
X289957120Y-156591620D02*
X287657120Y-156591620D01*
X287657120Y-151891620D02*
X287657120Y-156591620D01*
X289957120Y-151891620D02*
X287657120Y-151891620D01*
X289957120Y-156591620D02*
X289957120Y-151891620D01*
X289957120Y-137541620D02*
X287657120Y-137541620D01*
X287657120Y-132841620D02*
X287657120Y-137541620D01*
X289957120Y-132841620D02*
X287657120Y-132841620D01*
X289957120Y-137541620D02*
X289957120Y-132841620D01*
X292235020Y-109063020D02*
X289935020Y-109063020D01*
X289935020Y-104363020D02*
X289935020Y-109063020D01*
X292235020Y-104363020D02*
X289935020Y-104363020D01*
X292235020Y-109063020D02*
X292235020Y-104363020D01*
X270907120Y-232791620D02*
X268607120Y-232791620D01*
X268607120Y-228091620D02*
X268607120Y-232791620D01*
X270907120Y-228091620D02*
X268607120Y-228091620D01*
X270907120Y-232791620D02*
X270907120Y-228091620D01*
X275987120Y-213741620D02*
X273687120Y-213741620D01*
X273687120Y-209041620D02*
X273687120Y-213741620D01*
X275987120Y-209041620D02*
X273687120Y-209041620D01*
X275987120Y-213741620D02*
X275987120Y-209041620D01*
X265827120Y-194691620D02*
X263527120Y-194691620D01*
X263527120Y-189991620D02*
X263527120Y-194691620D01*
X265827120Y-189991620D02*
X263527120Y-189991620D01*
X265827120Y-194691620D02*
X265827120Y-189991620D01*
X260747120Y-175641620D02*
X258447120Y-175641620D01*
X258447120Y-170941620D02*
X258447120Y-175641620D01*
X260747120Y-170941620D02*
X258447120Y-170941620D01*
X260747120Y-175641620D02*
X260747120Y-170941620D01*
X270907120Y-156591620D02*
X268607120Y-156591620D01*
X268607120Y-151891620D02*
X268607120Y-156591620D01*
X270907120Y-151891620D02*
X268607120Y-151891620D01*
X270907120Y-156591620D02*
X270907120Y-151891620D01*
X270907120Y-137541620D02*
X268607120Y-137541620D01*
X268607120Y-132841620D02*
X268607120Y-137541620D01*
X270907120Y-132841620D02*
X268607120Y-132841620D01*
X270907120Y-137541620D02*
X270907120Y-132841620D01*
X256937120Y-213741620D02*
X254637120Y-213741620D01*
X254637120Y-209041620D02*
X254637120Y-213741620D01*
X256937120Y-209041620D02*
X254637120Y-209041620D01*
X256937120Y-213741620D02*
X256937120Y-209041620D01*
X246777120Y-194691620D02*
X244477120Y-194691620D01*
X244477120Y-189991620D02*
X244477120Y-194691620D01*
X246777120Y-189991620D02*
X244477120Y-189991620D01*
X246777120Y-194691620D02*
X246777120Y-189991620D01*
X241697120Y-175641620D02*
X239397120Y-175641620D01*
X239397120Y-170941620D02*
X239397120Y-175641620D01*
X241697120Y-170941620D02*
X239397120Y-170941620D01*
X241697120Y-175641620D02*
X241697120Y-170941620D01*
X251857120Y-156591620D02*
X249557120Y-156591620D01*
X249557120Y-151891620D02*
X249557120Y-156591620D01*
X251857120Y-151891620D02*
X249557120Y-151891620D01*
X251857120Y-156591620D02*
X251857120Y-151891620D01*
X251857120Y-137541620D02*
X249557120Y-137541620D01*
X249557120Y-132841620D02*
X249557120Y-137541620D01*
X251857120Y-132841620D02*
X249557120Y-132841620D01*
X251857120Y-137541620D02*
X251857120Y-132841620D01*
X249480720Y-111847860D02*
X247180720Y-111847860D01*
X247180720Y-107147860D02*
X247180720Y-111847860D01*
X249480720Y-107147860D02*
X247180720Y-107147860D01*
X249480720Y-111847860D02*
X249480720Y-107147860D01*
X237887120Y-213741620D02*
X235587120Y-213741620D01*
X235587120Y-209041620D02*
X235587120Y-213741620D01*
X237887120Y-209041620D02*
X235587120Y-209041620D01*
X237887120Y-213741620D02*
X237887120Y-209041620D01*
X227727120Y-194691620D02*
X225427120Y-194691620D01*
X225427120Y-189991620D02*
X225427120Y-194691620D01*
X227727120Y-189991620D02*
X225427120Y-189991620D01*
X227727120Y-194691620D02*
X227727120Y-189991620D01*
X222647120Y-175641620D02*
X220347120Y-175641620D01*
X220347120Y-170941620D02*
X220347120Y-175641620D01*
X222647120Y-170941620D02*
X220347120Y-170941620D01*
X222647120Y-175641620D02*
X222647120Y-170941620D01*
X232807120Y-156591620D02*
X230507120Y-156591620D01*
X230507120Y-151891620D02*
X230507120Y-156591620D01*
X232807120Y-151891620D02*
X230507120Y-151891620D01*
X232807120Y-156591620D02*
X232807120Y-151891620D01*
X232807120Y-137541620D02*
X230507120Y-137541620D01*
X230507120Y-132841620D02*
X230507120Y-137541620D01*
X232807120Y-132841620D02*
X230507120Y-132841620D01*
X232807120Y-137541620D02*
X232807120Y-132841620D01*
X232832520Y-109244820D02*
X230532520Y-109244820D01*
X230532520Y-104544820D02*
X230532520Y-109244820D01*
X232832520Y-104544820D02*
X230532520Y-104544820D01*
X232832520Y-109244820D02*
X232832520Y-104544820D01*
X218837120Y-213741620D02*
X216537120Y-213741620D01*
X216537120Y-209041620D02*
X216537120Y-213741620D01*
X218837120Y-209041620D02*
X216537120Y-209041620D01*
X218837120Y-213741620D02*
X218837120Y-209041620D01*
X208677120Y-194691620D02*
X206377120Y-194691620D01*
X206377120Y-189991620D02*
X206377120Y-194691620D01*
X208677120Y-189991620D02*
X206377120Y-189991620D01*
X208677120Y-194691620D02*
X208677120Y-189991620D01*
X203597120Y-175641620D02*
X201297120Y-175641620D01*
X201297120Y-170941620D02*
X201297120Y-175641620D01*
X203597120Y-170941620D02*
X201297120Y-170941620D01*
X203597120Y-175641620D02*
X203597120Y-170941620D01*
X213757120Y-156591620D02*
X211457120Y-156591620D01*
X211457120Y-151891620D02*
X211457120Y-156591620D01*
X213757120Y-151891620D02*
X211457120Y-151891620D01*
X213757120Y-156591620D02*
X213757120Y-151891620D01*
X213757120Y-137541620D02*
X211457120Y-137541620D01*
X211457120Y-132841620D02*
X211457120Y-137541620D01*
X213757120Y-132841620D02*
X211457120Y-132841620D01*
X213757120Y-137541620D02*
X213757120Y-132841620D01*
X213782520Y-109244820D02*
X211482520Y-109244820D01*
X211482520Y-104544820D02*
X211482520Y-109244820D01*
X213782520Y-104544820D02*
X211482520Y-104544820D01*
X213782520Y-109244820D02*
X213782520Y-104544820D01*
X201057120Y-232791620D02*
X198757120Y-232791620D01*
X198757120Y-228091620D02*
X198757120Y-232791620D01*
X201057120Y-228091620D02*
X198757120Y-228091620D01*
X201057120Y-232791620D02*
X201057120Y-228091620D01*
X199787120Y-213741620D02*
X197487120Y-213741620D01*
X197487120Y-209041620D02*
X197487120Y-213741620D01*
X199787120Y-209041620D02*
X197487120Y-209041620D01*
X199787120Y-213741620D02*
X199787120Y-209041620D01*
X189627120Y-194691620D02*
X187327120Y-194691620D01*
X187327120Y-189991620D02*
X187327120Y-194691620D01*
X189627120Y-189991620D02*
X187327120Y-189991620D01*
X189627120Y-194691620D02*
X189627120Y-189991620D01*
X184547120Y-175641620D02*
X182247120Y-175641620D01*
X182247120Y-170941620D02*
X182247120Y-175641620D01*
X184547120Y-170941620D02*
X182247120Y-170941620D01*
X184547120Y-175641620D02*
X184547120Y-170941620D01*
X194707120Y-156591620D02*
X192407120Y-156591620D01*
X192407120Y-151891620D02*
X192407120Y-156591620D01*
X194707120Y-151891620D02*
X192407120Y-151891620D01*
X194707120Y-156591620D02*
X194707120Y-151891620D01*
X194707120Y-137541620D02*
X192407120Y-137541620D01*
X192407120Y-132841620D02*
X192407120Y-137541620D01*
X194707120Y-132841620D02*
X192407120Y-132841620D01*
X194707120Y-137541620D02*
X194707120Y-132841620D01*
X194732520Y-109244820D02*
X192432520Y-109244820D01*
X192432520Y-104544820D02*
X192432520Y-109244820D01*
X194732520Y-104544820D02*
X192432520Y-104544820D01*
X194732520Y-109244820D02*
X194732520Y-104544820D01*
X180737120Y-213741620D02*
X178437120Y-213741620D01*
X178437120Y-209041620D02*
X178437120Y-213741620D01*
X180737120Y-209041620D02*
X178437120Y-209041620D01*
X180737120Y-213741620D02*
X180737120Y-209041620D01*
X170577120Y-194691620D02*
X168277120Y-194691620D01*
X168277120Y-189991620D02*
X168277120Y-194691620D01*
X170577120Y-189991620D02*
X168277120Y-189991620D01*
X170577120Y-194691620D02*
X170577120Y-189991620D01*
X165497120Y-175641620D02*
X163197120Y-175641620D01*
X163197120Y-170941620D02*
X163197120Y-175641620D01*
X165497120Y-170941620D02*
X163197120Y-170941620D01*
X165497120Y-175641620D02*
X165497120Y-170941620D01*
X175657120Y-156591620D02*
X173357120Y-156591620D01*
X173357120Y-151891620D02*
X173357120Y-156591620D01*
X175657120Y-151891620D02*
X173357120Y-151891620D01*
X175657120Y-156591620D02*
X175657120Y-151891620D01*
X175657120Y-137541620D02*
X173357120Y-137541620D01*
X173357120Y-132841620D02*
X173357120Y-137541620D01*
X175657120Y-132841620D02*
X173357120Y-132841620D01*
X175657120Y-137541620D02*
X175657120Y-132841620D01*
X175682520Y-109244820D02*
X173382520Y-109244820D01*
X173382520Y-104544820D02*
X173382520Y-109244820D01*
X175682520Y-104544820D02*
X173382520Y-104544820D01*
X175682520Y-109244820D02*
X175682520Y-104544820D01*
X161687120Y-213741620D02*
X159387120Y-213741620D01*
X159387120Y-209041620D02*
X159387120Y-213741620D01*
X161687120Y-209041620D02*
X159387120Y-209041620D01*
X161687120Y-213741620D02*
X161687120Y-209041620D01*
X151527120Y-194691620D02*
X149227120Y-194691620D01*
X149227120Y-189991620D02*
X149227120Y-194691620D01*
X151527120Y-189991620D02*
X149227120Y-189991620D01*
X151527120Y-194691620D02*
X151527120Y-189991620D01*
X146447120Y-175641620D02*
X144147120Y-175641620D01*
X144147120Y-170941620D02*
X144147120Y-175641620D01*
X146447120Y-170941620D02*
X144147120Y-170941620D01*
X146447120Y-175641620D02*
X146447120Y-170941620D01*
X156607120Y-156591620D02*
X154307120Y-156591620D01*
X154307120Y-151891620D02*
X154307120Y-156591620D01*
X156607120Y-151891620D02*
X154307120Y-151891620D01*
X156607120Y-156591620D02*
X156607120Y-151891620D01*
X156607120Y-137541620D02*
X154307120Y-137541620D01*
X154307120Y-132841620D02*
X154307120Y-137541620D01*
X156607120Y-132841620D02*
X154307120Y-132841620D01*
X156607120Y-137541620D02*
X156607120Y-132841620D01*
X156632520Y-109244820D02*
X154332520Y-109244820D01*
X154332520Y-104544820D02*
X154332520Y-109244820D01*
X156632520Y-104544820D02*
X154332520Y-104544820D01*
X156632520Y-109244820D02*
X156632520Y-104544820D01*
X129937120Y-232791620D02*
X127637120Y-232791620D01*
X127637120Y-228091620D02*
X127637120Y-232791620D01*
X129937120Y-228091620D02*
X127637120Y-228091620D01*
X129937120Y-232791620D02*
X129937120Y-228091620D01*
X142637120Y-213741620D02*
X140337120Y-213741620D01*
X140337120Y-209041620D02*
X140337120Y-213741620D01*
X142637120Y-209041620D02*
X140337120Y-209041620D01*
X142637120Y-213741620D02*
X142637120Y-209041620D01*
X132477120Y-194691620D02*
X130177120Y-194691620D01*
X130177120Y-189991620D02*
X130177120Y-194691620D01*
X132477120Y-189991620D02*
X130177120Y-189991620D01*
X132477120Y-194691620D02*
X132477120Y-189991620D01*
X127397120Y-175641620D02*
X125097120Y-175641620D01*
X125097120Y-170941620D02*
X125097120Y-175641620D01*
X127397120Y-170941620D02*
X125097120Y-170941620D01*
X127397120Y-175641620D02*
X127397120Y-170941620D01*
X137557120Y-156591620D02*
X135257120Y-156591620D01*
X135257120Y-151891620D02*
X135257120Y-156591620D01*
X137557120Y-151891620D02*
X135257120Y-151891620D01*
X137557120Y-156591620D02*
X137557120Y-151891620D01*
X137557120Y-137541620D02*
X135257120Y-137541620D01*
X135257120Y-132841620D02*
X135257120Y-137541620D01*
X137557120Y-132841620D02*
X135257120Y-132841620D01*
X137557120Y-137541620D02*
X137557120Y-132841620D01*
X137582520Y-109244820D02*
X135282520Y-109244820D01*
X135282520Y-104544820D02*
X135282520Y-109244820D01*
X137582520Y-104544820D02*
X135282520Y-104544820D01*
X137582520Y-109244820D02*
X137582520Y-104544820D01*
X123587120Y-213741620D02*
X121287120Y-213741620D01*
X121287120Y-209041620D02*
X121287120Y-213741620D01*
X123587120Y-209041620D02*
X121287120Y-209041620D01*
X123587120Y-213741620D02*
X123587120Y-209041620D01*
X113427120Y-194691620D02*
X111127120Y-194691620D01*
X111127120Y-189991620D02*
X111127120Y-194691620D01*
X113427120Y-189991620D02*
X111127120Y-189991620D01*
X113427120Y-194691620D02*
X113427120Y-189991620D01*
X108347120Y-175641620D02*
X106047120Y-175641620D01*
X106047120Y-170941620D02*
X106047120Y-175641620D01*
X108347120Y-170941620D02*
X106047120Y-170941620D01*
X108347120Y-175641620D02*
X108347120Y-170941620D01*
X118507120Y-156591620D02*
X116207120Y-156591620D01*
X116207120Y-151891620D02*
X116207120Y-156591620D01*
X118507120Y-151891620D02*
X116207120Y-151891620D01*
X118507120Y-156591620D02*
X118507120Y-151891620D01*
X118507120Y-137541620D02*
X116207120Y-137541620D01*
X116207120Y-132841620D02*
X116207120Y-137541620D01*
X118507120Y-132841620D02*
X116207120Y-132841620D01*
X118507120Y-137541620D02*
X118507120Y-132841620D01*
X118532520Y-109244820D02*
X116232520Y-109244820D01*
X116232520Y-104544820D02*
X116232520Y-109244820D01*
X118532520Y-104544820D02*
X116232520Y-104544820D01*
X118532520Y-109244820D02*
X118532520Y-104544820D01*
X107077120Y-232791620D02*
X104777120Y-232791620D01*
X104777120Y-228091620D02*
X104777120Y-232791620D01*
X107077120Y-228091620D02*
X104777120Y-228091620D01*
X107077120Y-232791620D02*
X107077120Y-228091620D01*
X91837120Y-213741620D02*
X89537120Y-213741620D01*
X89537120Y-209041620D02*
X89537120Y-213741620D01*
X91837120Y-209041620D02*
X89537120Y-209041620D01*
X91837120Y-213741620D02*
X91837120Y-209041620D01*
X99457120Y-156591620D02*
X97157120Y-156591620D01*
X97157120Y-151891620D02*
X97157120Y-156591620D01*
X99457120Y-151891620D02*
X97157120Y-151891620D01*
X99457120Y-156591620D02*
X99457120Y-151891620D01*
X99457120Y-137541620D02*
X97157120Y-137541620D01*
X97157120Y-132841620D02*
X97157120Y-137541620D01*
X99457120Y-132841620D02*
X97157120Y-132841620D01*
X99457120Y-137541620D02*
X99457120Y-132841620D01*
X99431720Y-109270220D02*
X97131720Y-109270220D01*
X97131720Y-104570220D02*
X97131720Y-109270220D01*
X99431720Y-104570220D02*
X97131720Y-104570220D01*
X99431720Y-109270220D02*
X99431720Y-104570220D01*
X82947120Y-232791620D02*
X80647120Y-232791620D01*
X80647120Y-228091620D02*
X80647120Y-232791620D01*
X82947120Y-228091620D02*
X80647120Y-228091620D01*
X82947120Y-232791620D02*
X82947120Y-228091620D01*
X86757120Y-194691620D02*
X84457120Y-194691620D01*
X84457120Y-189991620D02*
X84457120Y-194691620D01*
X86757120Y-189991620D02*
X84457120Y-189991620D01*
X86757120Y-194691620D02*
X86757120Y-189991620D01*
X84217120Y-175641620D02*
X81917120Y-175641620D01*
X81917120Y-170941620D02*
X81917120Y-175641620D01*
X84217120Y-170941620D02*
X81917120Y-170941620D01*
X84217120Y-175641620D02*
X84217120Y-170941620D01*
X80407120Y-156591620D02*
X78107120Y-156591620D01*
X78107120Y-151891620D02*
X78107120Y-156591620D01*
X80407120Y-151891620D02*
X78107120Y-151891620D01*
X80407120Y-156591620D02*
X80407120Y-151891620D01*
X80407120Y-137541620D02*
X78107120Y-137541620D01*
X78107120Y-132841620D02*
X78107120Y-137541620D01*
X80407120Y-132841620D02*
X78107120Y-132841620D01*
X80407120Y-137541620D02*
X80407120Y-132841620D01*
X80432520Y-109244820D02*
X78132520Y-109244820D01*
X78132520Y-104544820D02*
X78132520Y-109244820D01*
X80432520Y-104544820D02*
X78132520Y-104544820D01*
X80432520Y-109244820D02*
X80432520Y-104544820D01*
X266245000Y-98025000D02*
X269605000Y-98025000D01*
X266245000Y-96125000D02*
X266245000Y-98025000D01*
X269605000Y-96125000D02*
X266245000Y-96125000D01*
X269605000Y-98025000D02*
X269605000Y-96125000D01*
X286891520Y-110576320D02*
X283531520Y-110576320D01*
X286891520Y-112476320D02*
X286891520Y-110576320D01*
X283531520Y-112476320D02*
X286891520Y-112476320D01*
X283531520Y-110576320D02*
X283531520Y-112476320D01*
X286916920Y-112849620D02*
X283556920Y-112849620D01*
X286916920Y-114749620D02*
X286916920Y-112849620D01*
X283556920Y-114749620D02*
X286916920Y-114749620D01*
X283556920Y-112849620D02*
X283556920Y-114749620D01*
X255325920Y-104763120D02*
X255325920Y-101403120D01*
X253425920Y-104763120D02*
X255325920Y-104763120D01*
X253425920Y-101403120D02*
X253425920Y-104763120D01*
X255325920Y-101403120D02*
X253425920Y-101403120D01*
X271405000Y-115925000D02*
X268045000Y-115925000D01*
X271405000Y-117825000D02*
X271405000Y-115925000D01*
X268045000Y-117825000D02*
X271405000Y-117825000D01*
X268045000Y-115925000D02*
X268045000Y-117825000D01*
X281526020Y-109993220D02*
X281526020Y-106633220D01*
X279626020Y-109993220D02*
X281526020Y-109993220D01*
X279626020Y-106633220D02*
X279626020Y-109993220D01*
X281526020Y-106633220D02*
X279626020Y-106633220D01*
X253413220Y-109869420D02*
X253413220Y-113229420D01*
X255313220Y-109869420D02*
X253413220Y-109869420D01*
X255313220Y-113229420D02*
X255313220Y-109869420D01*
X253413220Y-113229420D02*
X255313220Y-113229420D01*
M02*
