<?xml version="1.0"?>
<!-- Generated by SVGo -->
<svg width="314.802mm" height="152.877mm"
     viewBox="0.000 0.000 314.802 152.877"
     xmlns="http://www.w3.org/2000/svg" 
     xmlns:xlink="http://www.w3.org/1999/xlink">
<polygon points="309.802,147.877 5.001,147.877 5.001,5.001 309.802,5.001" style="fill:none;stroke-width:0.050000mm;stroke:black"/>
<polygon points="128.968,131.351 128.968,136.050 89.344,136.050 89.344,132.821 82.594,132.821 82.594,136.050 81.769,136.050 81.769,138.851 82.594,138.851 82.594,145.121 84.319,145.121 84.319,146.321 87.619,146.321 87.619,145.121 89.344,145.121 89.344,140.651 128.968,140.651 128.968,145.351 142.969,145.351 142.969,140.651 182.594,140.651 182.594,145.121 184.319,145.121 184.319,146.321 187.619,146.321 187.619,145.121 189.344,145.121 189.344,138.851 190.169,138.851 190.169,136.050 189.344,136.050 189.344,132.821 182.594,132.821 182.594,136.050 142.969,136.050 142.969,131.351" style="fill:none;stroke-width:0.050000mm;stroke:black"/>
<polygon points="293.276,131.351 293.276,145.351 307.276,145.351 307.276,131.351" style="fill:none;stroke-width:0.050000mm;stroke:black"/>
<polygon points="274.226,131.351 274.226,145.351 288.226,145.351 288.226,131.351" style="fill:none;stroke-width:0.050000mm;stroke:black"/>
<polygon points="255.176,131.351 255.176,145.351 269.176,145.351 269.176,131.351" style="fill:none;stroke-width:0.050000mm;stroke:black"/>
<polygon points="236.126,131.351 236.126,145.351 250.126,145.351 250.126,131.351" style="fill:none;stroke-width:0.050000mm;stroke:black"/>
<polygon points="217.076,131.351 217.076,145.351 231.076,145.351 231.076,131.351" style="fill:none;stroke-width:0.050000mm;stroke:black"/>
<polygon points="198.026,131.351 198.026,145.351 212.026,145.351 212.026,131.351" style="fill:none;stroke-width:0.050000mm;stroke:black"/>
<polygon points="57.532,131.351 57.532,145.351 71.532,145.351 71.532,131.351" style="fill:none;stroke-width:0.050000mm;stroke:black"/>
<polygon points="33.719,131.351 33.719,145.351 47.719,145.351 47.719,131.351" style="fill:none;stroke-width:0.050000mm;stroke:black"/>
<polygon points="9.907,131.351 9.907,145.351 23.907,145.351 23.907,131.351" style="fill:none;stroke-width:0.050000mm;stroke:black"/>
<polygon points="19.432,112.301 19.432,117.001 17.907,117.001 17.907,113.771 11.157,113.771 11.157,117.001 10.332,117.001 10.332,119.801 11.157,119.801 11.157,126.071 12.882,126.071 12.882,127.271 16.182,127.271 16.182,126.071 17.907,126.071 17.907,121.601 19.432,121.601 19.432,126.301 33.432,126.301 33.432,121.601 34.957,121.601 34.957,126.071 36.682,126.071 36.682,127.271 39.982,127.271 39.982,126.071 41.707,126.071 41.707,119.801 42.532,119.801 42.532,117.001 41.707,117.001 41.707,113.771 34.957,113.771 34.957,117.001 33.432,117.001 33.432,112.301" style="fill:none;stroke-width:0.050000mm;stroke:black"/>
<polygon points="293.276,112.301 293.276,126.301 307.276,126.301 307.276,112.301" style="fill:none;stroke-width:0.050000mm;stroke:black"/>
<polygon points="274.226,112.301 274.226,126.301 288.226,126.301 288.226,112.301" style="fill:none;stroke-width:0.050000mm;stroke:black"/>
<polygon points="248.032,112.301 248.032,126.301 262.032,126.301 262.032,112.301" style="fill:none;stroke-width:0.050000mm;stroke:black"/>
<polygon points="221.838,112.301 221.838,126.301 235.838,126.301 235.838,112.301" style="fill:none;stroke-width:0.050000mm;stroke:black"/>
<polygon points="202.788,112.301 202.788,126.301 216.788,126.301 216.788,112.301" style="fill:none;stroke-width:0.050000mm;stroke:black"/>
<polygon points="183.738,112.301 183.738,126.301 197.738,126.301 197.738,112.301" style="fill:none;stroke-width:0.050000mm;stroke:black"/>
<polygon points="164.688,112.301 164.688,126.301 178.688,126.301 178.688,112.301" style="fill:none;stroke-width:0.050000mm;stroke:black"/>
<polygon points="145.638,112.301 145.638,126.301 159.638,126.301 159.638,112.301" style="fill:none;stroke-width:0.050000mm;stroke:black"/>
<polygon points="126.588,112.301 126.588,126.301 140.588,126.301 140.588,112.301" style="fill:none;stroke-width:0.050000mm;stroke:black"/>
<polygon points="107.538,112.301 107.538,126.301 121.538,126.301 121.538,112.301" style="fill:none;stroke-width:0.050000mm;stroke:black"/>
<polygon points="88.488,112.301 88.488,126.301 102.488,126.301 102.488,112.301" style="fill:none;stroke-width:0.050000mm;stroke:black"/>
<polygon points="69.438,112.301 69.438,126.301 83.438,126.301 83.438,112.301" style="fill:none;stroke-width:0.050000mm;stroke:black"/>
<polygon points="50.388,112.301 50.388,126.301 64.388,126.301 64.388,112.301" style="fill:none;stroke-width:0.050000mm;stroke:black"/>
<polygon points="262.319,93.251 262.319,97.951 260.794,97.951 260.794,94.721 254.044,94.721 254.044,97.951 253.219,97.951 253.219,100.751 254.044,100.751 254.044,107.021 255.769,107.021 255.769,108.221 259.068,108.221 259.068,107.021 260.794,107.021 260.794,102.551 262.319,102.551 262.319,107.251 276.319,107.251 276.319,102.551 277.844,102.551 277.844,107.021 279.569,107.021 279.569,108.221 282.869,108.221 282.869,107.021 284.594,107.021 284.594,100.751 285.419,100.751 285.419,97.951 284.594,97.951 284.594,94.721 277.844,94.721 277.844,97.951 276.319,97.951 276.319,93.251" style="fill:none;stroke-width:0.050000mm;stroke:black"/>
<polygon points="293.276,93.251 293.276,107.251 307.276,107.251 307.276,93.251" style="fill:none;stroke-width:0.050000mm;stroke:black"/>
<polygon points="231.363,93.251 231.363,107.251 245.363,107.251 245.363,93.251" style="fill:none;stroke-width:0.050000mm;stroke:black"/>
<polygon points="212.313,93.251 212.313,107.251 226.313,107.251 226.313,93.251" style="fill:none;stroke-width:0.050000mm;stroke:black"/>
<polygon points="193.263,93.251 193.263,107.251 207.263,107.251 207.263,93.251" style="fill:none;stroke-width:0.050000mm;stroke:black"/>
<polygon points="174.213,93.251 174.213,107.251 188.213,107.251 188.213,93.251" style="fill:none;stroke-width:0.050000mm;stroke:black"/>
<polygon points="155.163,93.251 155.163,107.251 169.163,107.251 169.163,93.251" style="fill:none;stroke-width:0.050000mm;stroke:black"/>
<polygon points="136.113,93.251 136.113,107.251 150.113,107.251 150.113,93.251" style="fill:none;stroke-width:0.050000mm;stroke:black"/>
<polygon points="117.063,93.251 117.063,107.251 131.063,107.251 131.063,93.251" style="fill:none;stroke-width:0.050000mm;stroke:black"/>
<polygon points="98.013,93.251 98.013,107.251 112.013,107.251 112.013,93.251" style="fill:none;stroke-width:0.050000mm;stroke:black"/>
<polygon points="78.963,93.251 78.963,107.251 92.963,107.251 92.963,93.251" style="fill:none;stroke-width:0.050000mm;stroke:black"/>
<polygon points="59.913,93.251 59.913,107.251 73.913,107.251 73.913,93.251" style="fill:none;stroke-width:0.050000mm;stroke:black"/>
<polygon points="40.863,93.251 40.863,107.251 54.863,107.251 54.863,93.251" style="fill:none;stroke-width:0.050000mm;stroke:black"/>
<polygon points="14.669,93.251 14.669,107.251 28.669,107.251 28.669,93.251" style="fill:none;stroke-width:0.050000mm;stroke:black"/>
<polygon points="293.276,74.201 293.276,88.201 307.276,88.201 307.276,74.201" style="fill:none;stroke-width:0.050000mm;stroke:black"/>
<polygon points="269.463,74.201 269.463,88.201 283.463,88.201 283.463,74.201" style="fill:none;stroke-width:0.050000mm;stroke:black"/>
<polygon points="245.651,74.201 245.651,88.201 259.650,88.201 259.650,74.201" style="fill:none;stroke-width:0.050000mm;stroke:black"/>
<polygon points="226.601,74.201 226.601,88.201 240.601,88.201 240.601,74.201" style="fill:none;stroke-width:0.050000mm;stroke:black"/>
<polygon points="207.551,74.201 207.551,88.201 221.551,88.201 221.551,74.201" style="fill:none;stroke-width:0.050000mm;stroke:black"/>
<polygon points="188.501,74.201 188.501,88.201 202.501,88.201 202.501,74.201" style="fill:none;stroke-width:0.050000mm;stroke:black"/>
<polygon points="169.451,74.201 169.451,88.201 183.451,88.201 183.451,74.201" style="fill:none;stroke-width:0.050000mm;stroke:black"/>
<polygon points="150.401,74.201 150.401,88.201 164.401,88.201 164.401,74.201" style="fill:none;stroke-width:0.050000mm;stroke:black"/>
<polygon points="131.351,74.201 131.351,88.201 145.351,88.201 145.351,74.201" style="fill:none;stroke-width:0.050000mm;stroke:black"/>
<polygon points="112.301,74.201 112.301,88.201 126.301,88.201 126.301,74.201" style="fill:none;stroke-width:0.050000mm;stroke:black"/>
<polygon points="93.251,74.201 93.251,88.201 107.251,88.201 107.251,74.201" style="fill:none;stroke-width:0.050000mm;stroke:black"/>
<polygon points="74.201,74.201 74.201,88.201 88.201,88.201 88.201,74.201" style="fill:none;stroke-width:0.050000mm;stroke:black"/>
<polygon points="55.151,74.201 55.151,88.201 69.151,88.201 69.151,74.201" style="fill:none;stroke-width:0.050000mm;stroke:black"/>
<polygon points="36.101,74.201 36.101,88.201 50.101,88.201 50.101,74.201" style="fill:none;stroke-width:0.050000mm;stroke:black"/>
<polygon points="12.288,74.201 12.288,88.201 26.288,88.201 26.288,74.201" style="fill:none;stroke-width:0.050000mm;stroke:black"/>
<polygon points="264.701,55.151 264.701,59.851 263.176,59.851 263.176,56.621 256.426,56.621 256.426,59.851 255.601,59.851 255.601,62.651 256.426,62.651 256.426,68.921 258.150,68.921 258.150,70.121 261.451,70.121 261.451,68.921 263.176,68.921 263.176,64.451 264.701,64.451 264.701,69.151 278.701,69.151 278.701,64.451 280.226,64.451 280.226,68.921 281.951,68.921 281.951,70.121 285.251,70.121 285.251,68.921 286.976,68.921 286.976,62.651 287.801,62.651 287.801,59.851 286.976,59.851 286.976,56.621 280.226,56.621 280.226,59.851 278.701,59.851 278.701,55.151" style="fill:none;stroke-width:0.050000mm;stroke:black"/>
<polygon points="293.276,55.151 293.276,69.151 307.276,69.151 307.276,55.151" style="fill:none;stroke-width:0.050000mm;stroke:black"/>
<polygon points="236.126,55.151 236.126,69.151 250.126,69.151 250.126,55.151" style="fill:none;stroke-width:0.050000mm;stroke:black"/>
<polygon points="217.076,55.151 217.076,69.151 231.076,69.151 231.076,55.151" style="fill:none;stroke-width:0.050000mm;stroke:black"/>
<polygon points="198.026,55.151 198.026,69.151 212.026,69.151 212.026,55.151" style="fill:none;stroke-width:0.050000mm;stroke:black"/>
<polygon points="178.976,55.151 178.976,69.151 192.976,69.151 192.976,55.151" style="fill:none;stroke-width:0.050000mm;stroke:black"/>
<polygon points="159.926,55.151 159.926,69.151 173.926,69.151 173.926,55.151" style="fill:none;stroke-width:0.050000mm;stroke:black"/>
<polygon points="140.876,55.151 140.876,69.151 154.876,69.151 154.876,55.151" style="fill:none;stroke-width:0.050000mm;stroke:black"/>
<polygon points="121.825,55.151 121.825,69.151 135.826,69.151 135.826,55.151" style="fill:none;stroke-width:0.050000mm;stroke:black"/>
<polygon points="102.775,55.151 102.775,69.151 116.775,69.151 116.775,55.151" style="fill:none;stroke-width:0.050000mm;stroke:black"/>
<polygon points="83.726,55.151 83.726,69.151 97.726,69.151 97.726,55.151" style="fill:none;stroke-width:0.050000mm;stroke:black"/>
<polygon points="64.676,55.151 64.676,69.151 78.676,69.151 78.676,55.151" style="fill:none;stroke-width:0.050000mm;stroke:black"/>
<polygon points="45.626,55.151 45.626,69.151 59.626,69.151 59.626,55.151" style="fill:none;stroke-width:0.050000mm;stroke:black"/>
<polygon points="26.576,55.151 26.576,69.151 40.576,69.151 40.576,55.151" style="fill:none;stroke-width:0.050000mm;stroke:black"/>
<polygon points="7.526,55.151 7.526,69.151 21.526,69.151 21.526,55.151" style="fill:none;stroke-width:0.050000mm;stroke:black"/>
<polygon points="293.276,36.101 293.276,50.101 307.276,50.101 307.276,36.101" style="fill:none;stroke-width:0.050000mm;stroke:black"/>
<polygon points="274.226,36.101 274.226,50.101 288.226,50.101 288.226,36.101" style="fill:none;stroke-width:0.050000mm;stroke:black"/>
<polygon points="255.176,36.101 255.176,50.101 269.176,50.101 269.176,36.101" style="fill:none;stroke-width:0.050000mm;stroke:black"/>
<polygon points="236.126,36.101 236.126,50.101 250.126,50.101 250.126,36.101" style="fill:none;stroke-width:0.050000mm;stroke:black"/>
<polygon points="217.076,36.101 217.076,50.101 231.076,50.101 231.076,36.101" style="fill:none;stroke-width:0.050000mm;stroke:black"/>
<polygon points="198.026,36.101 198.026,50.101 212.026,50.101 212.026,36.101" style="fill:none;stroke-width:0.050000mm;stroke:black"/>
<polygon points="178.976,36.101 178.976,50.101 192.976,50.101 192.976,36.101" style="fill:none;stroke-width:0.050000mm;stroke:black"/>
<polygon points="159.926,36.101 159.926,50.101 173.926,50.101 173.926,36.101" style="fill:none;stroke-width:0.050000mm;stroke:black"/>
<polygon points="140.876,36.101 140.876,50.101 154.876,50.101 154.876,36.101" style="fill:none;stroke-width:0.050000mm;stroke:black"/>
<polygon points="121.825,36.101 121.825,50.101 135.826,50.101 135.826,36.101" style="fill:none;stroke-width:0.050000mm;stroke:black"/>
<polygon points="102.775,36.101 102.775,50.101 116.775,50.101 116.775,36.101" style="fill:none;stroke-width:0.050000mm;stroke:black"/>
<polygon points="83.726,36.101 83.726,50.101 97.726,50.101 97.726,36.101" style="fill:none;stroke-width:0.050000mm;stroke:black"/>
<polygon points="64.676,36.101 64.676,50.101 78.676,50.101 78.676,36.101" style="fill:none;stroke-width:0.050000mm;stroke:black"/>
<polygon points="45.626,36.101 45.626,50.101 59.626,50.101 59.626,36.101" style="fill:none;stroke-width:0.050000mm;stroke:black"/>
<polygon points="26.576,36.101 26.576,50.101 40.576,50.101 40.576,36.101" style="fill:none;stroke-width:0.050000mm;stroke:black"/>
<polygon points="7.526,36.101 7.526,50.101 21.526,50.101 21.526,36.101" style="fill:none;stroke-width:0.050000mm;stroke:black"/>
<polygon points="293.276,7.526 293.276,21.526 307.276,21.526 307.276,7.526" style="fill:none;stroke-width:0.050000mm;stroke:black"/>
<polygon points="274.226,7.526 274.226,21.526 288.226,21.526 288.226,7.526" style="fill:none;stroke-width:0.050000mm;stroke:black"/>
<polygon points="255.176,7.526 255.176,21.526 269.176,21.526 269.176,7.526" style="fill:none;stroke-width:0.050000mm;stroke:black"/>
<polygon points="236.126,7.526 236.126,21.526 250.126,21.526 250.126,7.526" style="fill:none;stroke-width:0.050000mm;stroke:black"/>
<polygon points="217.076,7.526 217.076,21.526 231.076,21.526 231.076,7.526" style="fill:none;stroke-width:0.050000mm;stroke:black"/>
<polygon points="178.976,7.526 178.976,21.526 192.976,21.526 192.976,7.526" style="fill:none;stroke-width:0.050000mm;stroke:black"/>
<polygon points="159.926,7.526 159.926,21.526 173.926,21.526 173.926,7.526" style="fill:none;stroke-width:0.050000mm;stroke:black"/>
<polygon points="140.876,7.526 140.876,21.526 154.876,21.526 154.876,7.526" style="fill:none;stroke-width:0.050000mm;stroke:black"/>
<polygon points="121.825,7.526 121.825,21.526 135.826,21.526 135.826,7.526" style="fill:none;stroke-width:0.050000mm;stroke:black"/>
<polygon points="102.775,7.526 102.775,21.526 116.775,21.526 116.775,7.526" style="fill:none;stroke-width:0.050000mm;stroke:black"/>
<polygon points="83.726,7.526 83.726,21.526 97.726,21.526 97.726,7.526" style="fill:none;stroke-width:0.050000mm;stroke:black"/>
<polygon points="64.676,7.526 64.676,21.526 78.676,21.526 78.676,7.526" style="fill:none;stroke-width:0.050000mm;stroke:black"/>
<polygon points="45.626,7.526 45.626,21.526 59.626,21.526 59.626,7.526" style="fill:none;stroke-width:0.050000mm;stroke:black"/>
<polygon points="26.576,7.526 26.576,21.526 40.576,21.526 40.576,7.526" style="fill:none;stroke-width:0.050000mm;stroke:black"/>
<polygon points="7.526,7.526 7.526,21.526 21.526,21.526 21.526,7.526" style="fill:none;stroke-width:0.050000mm;stroke:black"/>
</svg>
