G04 #@! TF.GenerationSoftware,KiCad,Pcbnew,(5.1.9)-1*
G04 #@! TF.CreationDate,2021-04-14T22:58:01+09:00*
G04 #@! TF.ProjectId,JupiterAdvanced,4a757069-7465-4724-9164-76616e636564,1*
G04 #@! TF.SameCoordinates,Original*
G04 #@! TF.FileFunction,Legend,Top*
G04 #@! TF.FilePolarity,Positive*
%FSLAX46Y46*%
G04 Gerber Fmt 4.6, Leading zero omitted, Abs format (unit mm)*
G04 Created by KiCad (PCBNEW (5.1.9)-1) date 2021-04-14 22:58:01*
%MOMM*%
%LPD*%
G01*
G04 APERTURE LIST*
%ADD10C,0.150000*%
G04 APERTURE END LIST*
D10*
X346804743Y-238842300D02*
X346804743Y-239556586D01*
X346757124Y-239699443D01*
X346661886Y-239794681D01*
X346519029Y-239842300D01*
X346423791Y-239842300D01*
X347709505Y-239175634D02*
X347709505Y-239842300D01*
X347280934Y-239175634D02*
X347280934Y-239699443D01*
X347328553Y-239794681D01*
X347423791Y-239842300D01*
X347566648Y-239842300D01*
X347661886Y-239794681D01*
X347709505Y-239747062D01*
X348185696Y-239175634D02*
X348185696Y-240175634D01*
X348185696Y-239223253D02*
X348280934Y-239175634D01*
X348471410Y-239175634D01*
X348566648Y-239223253D01*
X348614267Y-239270872D01*
X348661886Y-239366110D01*
X348661886Y-239651824D01*
X348614267Y-239747062D01*
X348566648Y-239794681D01*
X348471410Y-239842300D01*
X348280934Y-239842300D01*
X348185696Y-239794681D01*
X349090458Y-239842300D02*
X349090458Y-239175634D01*
X349090458Y-238842300D02*
X349042839Y-238889920D01*
X349090458Y-238937539D01*
X349138077Y-238889920D01*
X349090458Y-238842300D01*
X349090458Y-238937539D01*
X349423791Y-239175634D02*
X349804743Y-239175634D01*
X349566648Y-238842300D02*
X349566648Y-239699443D01*
X349614267Y-239794681D01*
X349709505Y-239842300D01*
X349804743Y-239842300D01*
X350519029Y-239794681D02*
X350423791Y-239842300D01*
X350233315Y-239842300D01*
X350138077Y-239794681D01*
X350090458Y-239699443D01*
X350090458Y-239318491D01*
X350138077Y-239223253D01*
X350233315Y-239175634D01*
X350423791Y-239175634D01*
X350519029Y-239223253D01*
X350566648Y-239318491D01*
X350566648Y-239413729D01*
X350090458Y-239508967D01*
X350995220Y-239842300D02*
X350995220Y-239175634D01*
X350995220Y-239366110D02*
X351042839Y-239270872D01*
X351090458Y-239223253D01*
X351185696Y-239175634D01*
X351280934Y-239175634D01*
X352328553Y-239556586D02*
X352804743Y-239556586D01*
X352233315Y-239842300D02*
X352566648Y-238842300D01*
X352899981Y-239842300D01*
X353661886Y-239842300D02*
X353661886Y-238842300D01*
X353661886Y-239794681D02*
X353566648Y-239842300D01*
X353376172Y-239842300D01*
X353280934Y-239794681D01*
X353233315Y-239747062D01*
X353185696Y-239651824D01*
X353185696Y-239366110D01*
X353233315Y-239270872D01*
X353280934Y-239223253D01*
X353376172Y-239175634D01*
X353566648Y-239175634D01*
X353661886Y-239223253D01*
X354042839Y-239175634D02*
X354280934Y-239842300D01*
X354519029Y-239175634D01*
X355328553Y-239842300D02*
X355328553Y-239318491D01*
X355280934Y-239223253D01*
X355185696Y-239175634D01*
X354995220Y-239175634D01*
X354899981Y-239223253D01*
X355328553Y-239794681D02*
X355233315Y-239842300D01*
X354995220Y-239842300D01*
X354899981Y-239794681D01*
X354852362Y-239699443D01*
X354852362Y-239604205D01*
X354899981Y-239508967D01*
X354995220Y-239461348D01*
X355233315Y-239461348D01*
X355328553Y-239413729D01*
X355804743Y-239175634D02*
X355804743Y-239842300D01*
X355804743Y-239270872D02*
X355852362Y-239223253D01*
X355947600Y-239175634D01*
X356090458Y-239175634D01*
X356185696Y-239223253D01*
X356233315Y-239318491D01*
X356233315Y-239842300D01*
X357138077Y-239794681D02*
X357042839Y-239842300D01*
X356852362Y-239842300D01*
X356757124Y-239794681D01*
X356709505Y-239747062D01*
X356661886Y-239651824D01*
X356661886Y-239366110D01*
X356709505Y-239270872D01*
X356757124Y-239223253D01*
X356852362Y-239175634D01*
X357042839Y-239175634D01*
X357138077Y-239223253D01*
X357947600Y-239794681D02*
X357852362Y-239842300D01*
X357661886Y-239842300D01*
X357566648Y-239794681D01*
X357519029Y-239699443D01*
X357519029Y-239318491D01*
X357566648Y-239223253D01*
X357661886Y-239175634D01*
X357852362Y-239175634D01*
X357947600Y-239223253D01*
X357995220Y-239318491D01*
X357995220Y-239413729D01*
X357519029Y-239508967D01*
X358852362Y-239842300D02*
X358852362Y-238842300D01*
X358852362Y-239794681D02*
X358757124Y-239842300D01*
X358566648Y-239842300D01*
X358471410Y-239794681D01*
X358423791Y-239747062D01*
X358376172Y-239651824D01*
X358376172Y-239366110D01*
X358423791Y-239270872D01*
X358471410Y-239223253D01*
X358566648Y-239175634D01*
X358757124Y-239175634D01*
X358852362Y-239223253D01*
X360090458Y-239842300D02*
X360090458Y-238842300D01*
X360471410Y-238842300D01*
X360566648Y-238889920D01*
X360614267Y-238937539D01*
X360661886Y-239032777D01*
X360661886Y-239175634D01*
X360614267Y-239270872D01*
X360566648Y-239318491D01*
X360471410Y-239366110D01*
X360090458Y-239366110D01*
X361090458Y-239747062D02*
X361138077Y-239794681D01*
X361090458Y-239842300D01*
X361042839Y-239794681D01*
X361090458Y-239747062D01*
X361090458Y-239842300D01*
X361757124Y-238842300D02*
X361852362Y-238842300D01*
X361947600Y-238889920D01*
X361995220Y-238937539D01*
X362042839Y-239032777D01*
X362090458Y-239223253D01*
X362090458Y-239461348D01*
X362042839Y-239651824D01*
X361995220Y-239747062D01*
X361947600Y-239794681D01*
X361852362Y-239842300D01*
X361757124Y-239842300D01*
X361661886Y-239794681D01*
X361614267Y-239747062D01*
X361566648Y-239651824D01*
X361519029Y-239461348D01*
X361519029Y-239223253D01*
X361566648Y-239032777D01*
X361614267Y-238937539D01*
X361661886Y-238889920D01*
X361757124Y-238842300D01*
X363042839Y-239842300D02*
X362471410Y-239842300D01*
X362757124Y-239842300D02*
X362757124Y-238842300D01*
X362661886Y-238985158D01*
X362566648Y-239080396D01*
X362471410Y-239128015D01*
X364185696Y-238937539D02*
X364233315Y-238889920D01*
X364328553Y-238842300D01*
X364566648Y-238842300D01*
X364661886Y-238889920D01*
X364709505Y-238937539D01*
X364757124Y-239032777D01*
X364757124Y-239128015D01*
X364709505Y-239270872D01*
X364138077Y-239842300D01*
X364757124Y-239842300D01*
X365709505Y-239842300D02*
X365138077Y-239842300D01*
X365423791Y-239842300D02*
X365423791Y-238842300D01*
X365328553Y-238985158D01*
X365233315Y-239080396D01*
X365138077Y-239128015D01*
X366328553Y-238842300D02*
X366423791Y-238842300D01*
X366519029Y-238889920D01*
X366566648Y-238937539D01*
X366614267Y-239032777D01*
X366661886Y-239223253D01*
X366661886Y-239461348D01*
X366614267Y-239651824D01*
X366566648Y-239747062D01*
X366519029Y-239794681D01*
X366423791Y-239842300D01*
X366328553Y-239842300D01*
X366233315Y-239794681D01*
X366185696Y-239747062D01*
X366138077Y-239651824D01*
X366090458Y-239461348D01*
X366090458Y-239223253D01*
X366138077Y-239032777D01*
X366185696Y-238937539D01*
X366233315Y-238889920D01*
X366328553Y-238842300D01*
X367519029Y-239175634D02*
X367519029Y-239842300D01*
X367280934Y-238794681D02*
X367042839Y-239508967D01*
X367661886Y-239508967D01*
X368566648Y-239842300D02*
X367995220Y-239842300D01*
X368280934Y-239842300D02*
X368280934Y-238842300D01*
X368185696Y-238985158D01*
X368090458Y-239080396D01*
X367995220Y-239128015D01*
X369423791Y-239175634D02*
X369423791Y-239842300D01*
X369185696Y-238794681D02*
X368947600Y-239508967D01*
X369566648Y-239508967D01*
M02*
