G04 #@! TF.GenerationSoftware,KiCad,Pcbnew,(5.1.9-0-10_14)*
G04 #@! TF.CreationDate,2021-04-15T17:38:18+09:00*
G04 #@! TF.ProjectId,JupiterAdvanced,4a757069-7465-4724-9164-76616e636564,1*
G04 #@! TF.SameCoordinates,Original*
G04 #@! TF.FileFunction,Other,Fab,Top*
%FSLAX46Y46*%
G04 Gerber Fmt 4.6, Leading zero omitted, Abs format (unit mm)*
G04 Created by KiCad (PCBNEW (5.1.9-0-10_14)) date 2021-04-15 17:38:18*
%MOMM*%
%LPD*%
G01*
G04 APERTURE LIST*
%ADD10C,0.150000*%
G04 APERTURE END LIST*
D10*
X307539285Y-186427380D02*
X307539285Y-185427380D01*
X307872619Y-186141666D01*
X308205952Y-185427380D01*
X308205952Y-186427380D01*
X308825000Y-186427380D02*
X308729761Y-186379761D01*
X308682142Y-186332142D01*
X308634523Y-186236904D01*
X308634523Y-185951190D01*
X308682142Y-185855952D01*
X308729761Y-185808333D01*
X308825000Y-185760714D01*
X308967857Y-185760714D01*
X309063095Y-185808333D01*
X309110714Y-185855952D01*
X309158333Y-185951190D01*
X309158333Y-186236904D01*
X309110714Y-186332142D01*
X309063095Y-186379761D01*
X308967857Y-186427380D01*
X308825000Y-186427380D01*
X310015476Y-185760714D02*
X310015476Y-186427380D01*
X309586904Y-185760714D02*
X309586904Y-186284523D01*
X309634523Y-186379761D01*
X309729761Y-186427380D01*
X309872619Y-186427380D01*
X309967857Y-186379761D01*
X310015476Y-186332142D01*
X310491666Y-185760714D02*
X310491666Y-186427380D01*
X310491666Y-185855952D02*
X310539285Y-185808333D01*
X310634523Y-185760714D01*
X310777380Y-185760714D01*
X310872619Y-185808333D01*
X310920238Y-185903571D01*
X310920238Y-186427380D01*
X311253571Y-185760714D02*
X311634523Y-185760714D01*
X311396428Y-185427380D02*
X311396428Y-186284523D01*
X311444047Y-186379761D01*
X311539285Y-186427380D01*
X311634523Y-186427380D01*
X311967857Y-186427380D02*
X311967857Y-185760714D01*
X311967857Y-185427380D02*
X311920238Y-185475000D01*
X311967857Y-185522619D01*
X312015476Y-185475000D01*
X311967857Y-185427380D01*
X311967857Y-185522619D01*
X312444047Y-185760714D02*
X312444047Y-186427380D01*
X312444047Y-185855952D02*
X312491666Y-185808333D01*
X312586904Y-185760714D01*
X312729761Y-185760714D01*
X312825000Y-185808333D01*
X312872619Y-185903571D01*
X312872619Y-186427380D01*
X313777380Y-185760714D02*
X313777380Y-186570238D01*
X313729761Y-186665476D01*
X313682142Y-186713095D01*
X313586904Y-186760714D01*
X313444047Y-186760714D01*
X313348809Y-186713095D01*
X313777380Y-186379761D02*
X313682142Y-186427380D01*
X313491666Y-186427380D01*
X313396428Y-186379761D01*
X313348809Y-186332142D01*
X313301190Y-186236904D01*
X313301190Y-185951190D01*
X313348809Y-185855952D01*
X313396428Y-185808333D01*
X313491666Y-185760714D01*
X313682142Y-185760714D01*
X313777380Y-185808333D01*
X314253571Y-186427380D02*
X314253571Y-185427380D01*
X314253571Y-185903571D02*
X314825000Y-185903571D01*
X314825000Y-186427380D02*
X314825000Y-185427380D01*
X315444047Y-186427380D02*
X315348809Y-186379761D01*
X315301190Y-186332142D01*
X315253571Y-186236904D01*
X315253571Y-185951190D01*
X315301190Y-185855952D01*
X315348809Y-185808333D01*
X315444047Y-185760714D01*
X315586904Y-185760714D01*
X315682142Y-185808333D01*
X315729761Y-185855952D01*
X315777380Y-185951190D01*
X315777380Y-186236904D01*
X315729761Y-186332142D01*
X315682142Y-186379761D01*
X315586904Y-186427380D01*
X315444047Y-186427380D01*
X316348809Y-186427380D02*
X316253571Y-186379761D01*
X316205952Y-186284523D01*
X316205952Y-185427380D01*
X317110714Y-186379761D02*
X317015476Y-186427380D01*
X316825000Y-186427380D01*
X316729761Y-186379761D01*
X316682142Y-186284523D01*
X316682142Y-185903571D01*
X316729761Y-185808333D01*
X316825000Y-185760714D01*
X317015476Y-185760714D01*
X317110714Y-185808333D01*
X317158333Y-185903571D01*
X317158333Y-185998809D01*
X316682142Y-186094047D01*
X311863095Y-182927380D02*
X311863095Y-181927380D01*
X311863095Y-182403571D02*
X312434523Y-182403571D01*
X312434523Y-182927380D02*
X312434523Y-181927380D01*
X313339285Y-181927380D02*
X313148809Y-181927380D01*
X313053571Y-181975000D01*
X313005952Y-182022619D01*
X312910714Y-182165476D01*
X312863095Y-182355952D01*
X312863095Y-182736904D01*
X312910714Y-182832142D01*
X312958333Y-182879761D01*
X313053571Y-182927380D01*
X313244047Y-182927380D01*
X313339285Y-182879761D01*
X313386904Y-182832142D01*
X313434523Y-182736904D01*
X313434523Y-182498809D01*
X313386904Y-182403571D01*
X313339285Y-182355952D01*
X313244047Y-182308333D01*
X313053571Y-182308333D01*
X312958333Y-182355952D01*
X312910714Y-182403571D01*
X312863095Y-182498809D01*
X90539285Y-183427380D02*
X90539285Y-182427380D01*
X90872619Y-183141666D01*
X91205952Y-182427380D01*
X91205952Y-183427380D01*
X91825000Y-183427380D02*
X91729761Y-183379761D01*
X91682142Y-183332142D01*
X91634523Y-183236904D01*
X91634523Y-182951190D01*
X91682142Y-182855952D01*
X91729761Y-182808333D01*
X91825000Y-182760714D01*
X91967857Y-182760714D01*
X92063095Y-182808333D01*
X92110714Y-182855952D01*
X92158333Y-182951190D01*
X92158333Y-183236904D01*
X92110714Y-183332142D01*
X92063095Y-183379761D01*
X91967857Y-183427380D01*
X91825000Y-183427380D01*
X93015476Y-182760714D02*
X93015476Y-183427380D01*
X92586904Y-182760714D02*
X92586904Y-183284523D01*
X92634523Y-183379761D01*
X92729761Y-183427380D01*
X92872619Y-183427380D01*
X92967857Y-183379761D01*
X93015476Y-183332142D01*
X93491666Y-182760714D02*
X93491666Y-183427380D01*
X93491666Y-182855952D02*
X93539285Y-182808333D01*
X93634523Y-182760714D01*
X93777380Y-182760714D01*
X93872619Y-182808333D01*
X93920238Y-182903571D01*
X93920238Y-183427380D01*
X94253571Y-182760714D02*
X94634523Y-182760714D01*
X94396428Y-182427380D02*
X94396428Y-183284523D01*
X94444047Y-183379761D01*
X94539285Y-183427380D01*
X94634523Y-183427380D01*
X94967857Y-183427380D02*
X94967857Y-182760714D01*
X94967857Y-182427380D02*
X94920238Y-182475000D01*
X94967857Y-182522619D01*
X95015476Y-182475000D01*
X94967857Y-182427380D01*
X94967857Y-182522619D01*
X95444047Y-182760714D02*
X95444047Y-183427380D01*
X95444047Y-182855952D02*
X95491666Y-182808333D01*
X95586904Y-182760714D01*
X95729761Y-182760714D01*
X95825000Y-182808333D01*
X95872619Y-182903571D01*
X95872619Y-183427380D01*
X96777380Y-182760714D02*
X96777380Y-183570238D01*
X96729761Y-183665476D01*
X96682142Y-183713095D01*
X96586904Y-183760714D01*
X96444047Y-183760714D01*
X96348809Y-183713095D01*
X96777380Y-183379761D02*
X96682142Y-183427380D01*
X96491666Y-183427380D01*
X96396428Y-183379761D01*
X96348809Y-183332142D01*
X96301190Y-183236904D01*
X96301190Y-182951190D01*
X96348809Y-182855952D01*
X96396428Y-182808333D01*
X96491666Y-182760714D01*
X96682142Y-182760714D01*
X96777380Y-182808333D01*
X97253571Y-183427380D02*
X97253571Y-182427380D01*
X97253571Y-182903571D02*
X97825000Y-182903571D01*
X97825000Y-183427380D02*
X97825000Y-182427380D01*
X98444047Y-183427380D02*
X98348809Y-183379761D01*
X98301190Y-183332142D01*
X98253571Y-183236904D01*
X98253571Y-182951190D01*
X98301190Y-182855952D01*
X98348809Y-182808333D01*
X98444047Y-182760714D01*
X98586904Y-182760714D01*
X98682142Y-182808333D01*
X98729761Y-182855952D01*
X98777380Y-182951190D01*
X98777380Y-183236904D01*
X98729761Y-183332142D01*
X98682142Y-183379761D01*
X98586904Y-183427380D01*
X98444047Y-183427380D01*
X99348809Y-183427380D02*
X99253571Y-183379761D01*
X99205952Y-183284523D01*
X99205952Y-182427380D01*
X100110714Y-183379761D02*
X100015476Y-183427380D01*
X99825000Y-183427380D01*
X99729761Y-183379761D01*
X99682142Y-183284523D01*
X99682142Y-182903571D01*
X99729761Y-182808333D01*
X99825000Y-182760714D01*
X100015476Y-182760714D01*
X100110714Y-182808333D01*
X100158333Y-182903571D01*
X100158333Y-182998809D01*
X99682142Y-183094047D01*
X94863095Y-179927380D02*
X94863095Y-178927380D01*
X94863095Y-179403571D02*
X95434523Y-179403571D01*
X95434523Y-179927380D02*
X95434523Y-178927380D01*
X96386904Y-178927380D02*
X95910714Y-178927380D01*
X95863095Y-179403571D01*
X95910714Y-179355952D01*
X96005952Y-179308333D01*
X96244047Y-179308333D01*
X96339285Y-179355952D01*
X96386904Y-179403571D01*
X96434523Y-179498809D01*
X96434523Y-179736904D01*
X96386904Y-179832142D01*
X96339285Y-179879761D01*
X96244047Y-179927380D01*
X96005952Y-179927380D01*
X95910714Y-179879761D01*
X95863095Y-179832142D01*
X60539285Y-243427380D02*
X60539285Y-242427380D01*
X60872619Y-243141666D01*
X61205952Y-242427380D01*
X61205952Y-243427380D01*
X61825000Y-243427380D02*
X61729761Y-243379761D01*
X61682142Y-243332142D01*
X61634523Y-243236904D01*
X61634523Y-242951190D01*
X61682142Y-242855952D01*
X61729761Y-242808333D01*
X61825000Y-242760714D01*
X61967857Y-242760714D01*
X62063095Y-242808333D01*
X62110714Y-242855952D01*
X62158333Y-242951190D01*
X62158333Y-243236904D01*
X62110714Y-243332142D01*
X62063095Y-243379761D01*
X61967857Y-243427380D01*
X61825000Y-243427380D01*
X63015476Y-242760714D02*
X63015476Y-243427380D01*
X62586904Y-242760714D02*
X62586904Y-243284523D01*
X62634523Y-243379761D01*
X62729761Y-243427380D01*
X62872619Y-243427380D01*
X62967857Y-243379761D01*
X63015476Y-243332142D01*
X63491666Y-242760714D02*
X63491666Y-243427380D01*
X63491666Y-242855952D02*
X63539285Y-242808333D01*
X63634523Y-242760714D01*
X63777380Y-242760714D01*
X63872619Y-242808333D01*
X63920238Y-242903571D01*
X63920238Y-243427380D01*
X64253571Y-242760714D02*
X64634523Y-242760714D01*
X64396428Y-242427380D02*
X64396428Y-243284523D01*
X64444047Y-243379761D01*
X64539285Y-243427380D01*
X64634523Y-243427380D01*
X64967857Y-243427380D02*
X64967857Y-242760714D01*
X64967857Y-242427380D02*
X64920238Y-242475000D01*
X64967857Y-242522619D01*
X65015476Y-242475000D01*
X64967857Y-242427380D01*
X64967857Y-242522619D01*
X65444047Y-242760714D02*
X65444047Y-243427380D01*
X65444047Y-242855952D02*
X65491666Y-242808333D01*
X65586904Y-242760714D01*
X65729761Y-242760714D01*
X65825000Y-242808333D01*
X65872619Y-242903571D01*
X65872619Y-243427380D01*
X66777380Y-242760714D02*
X66777380Y-243570238D01*
X66729761Y-243665476D01*
X66682142Y-243713095D01*
X66586904Y-243760714D01*
X66444047Y-243760714D01*
X66348809Y-243713095D01*
X66777380Y-243379761D02*
X66682142Y-243427380D01*
X66491666Y-243427380D01*
X66396428Y-243379761D01*
X66348809Y-243332142D01*
X66301190Y-243236904D01*
X66301190Y-242951190D01*
X66348809Y-242855952D01*
X66396428Y-242808333D01*
X66491666Y-242760714D01*
X66682142Y-242760714D01*
X66777380Y-242808333D01*
X67253571Y-243427380D02*
X67253571Y-242427380D01*
X67253571Y-242903571D02*
X67825000Y-242903571D01*
X67825000Y-243427380D02*
X67825000Y-242427380D01*
X68444047Y-243427380D02*
X68348809Y-243379761D01*
X68301190Y-243332142D01*
X68253571Y-243236904D01*
X68253571Y-242951190D01*
X68301190Y-242855952D01*
X68348809Y-242808333D01*
X68444047Y-242760714D01*
X68586904Y-242760714D01*
X68682142Y-242808333D01*
X68729761Y-242855952D01*
X68777380Y-242951190D01*
X68777380Y-243236904D01*
X68729761Y-243332142D01*
X68682142Y-243379761D01*
X68586904Y-243427380D01*
X68444047Y-243427380D01*
X69348809Y-243427380D02*
X69253571Y-243379761D01*
X69205952Y-243284523D01*
X69205952Y-242427380D01*
X70110714Y-243379761D02*
X70015476Y-243427380D01*
X69825000Y-243427380D01*
X69729761Y-243379761D01*
X69682142Y-243284523D01*
X69682142Y-242903571D01*
X69729761Y-242808333D01*
X69825000Y-242760714D01*
X70015476Y-242760714D01*
X70110714Y-242808333D01*
X70158333Y-242903571D01*
X70158333Y-242998809D01*
X69682142Y-243094047D01*
X64863095Y-239927380D02*
X64863095Y-238927380D01*
X64863095Y-239403571D02*
X65434523Y-239403571D01*
X65434523Y-239927380D02*
X65434523Y-238927380D01*
X66339285Y-239260714D02*
X66339285Y-239927380D01*
X66101190Y-238879761D02*
X65863095Y-239594047D01*
X66482142Y-239594047D01*
X365539285Y-243427380D02*
X365539285Y-242427380D01*
X365872619Y-243141666D01*
X366205952Y-242427380D01*
X366205952Y-243427380D01*
X366825000Y-243427380D02*
X366729761Y-243379761D01*
X366682142Y-243332142D01*
X366634523Y-243236904D01*
X366634523Y-242951190D01*
X366682142Y-242855952D01*
X366729761Y-242808333D01*
X366825000Y-242760714D01*
X366967857Y-242760714D01*
X367063095Y-242808333D01*
X367110714Y-242855952D01*
X367158333Y-242951190D01*
X367158333Y-243236904D01*
X367110714Y-243332142D01*
X367063095Y-243379761D01*
X366967857Y-243427380D01*
X366825000Y-243427380D01*
X368015476Y-242760714D02*
X368015476Y-243427380D01*
X367586904Y-242760714D02*
X367586904Y-243284523D01*
X367634523Y-243379761D01*
X367729761Y-243427380D01*
X367872619Y-243427380D01*
X367967857Y-243379761D01*
X368015476Y-243332142D01*
X368491666Y-242760714D02*
X368491666Y-243427380D01*
X368491666Y-242855952D02*
X368539285Y-242808333D01*
X368634523Y-242760714D01*
X368777380Y-242760714D01*
X368872619Y-242808333D01*
X368920238Y-242903571D01*
X368920238Y-243427380D01*
X369253571Y-242760714D02*
X369634523Y-242760714D01*
X369396428Y-242427380D02*
X369396428Y-243284523D01*
X369444047Y-243379761D01*
X369539285Y-243427380D01*
X369634523Y-243427380D01*
X369967857Y-243427380D02*
X369967857Y-242760714D01*
X369967857Y-242427380D02*
X369920238Y-242475000D01*
X369967857Y-242522619D01*
X370015476Y-242475000D01*
X369967857Y-242427380D01*
X369967857Y-242522619D01*
X370444047Y-242760714D02*
X370444047Y-243427380D01*
X370444047Y-242855952D02*
X370491666Y-242808333D01*
X370586904Y-242760714D01*
X370729761Y-242760714D01*
X370825000Y-242808333D01*
X370872619Y-242903571D01*
X370872619Y-243427380D01*
X371777380Y-242760714D02*
X371777380Y-243570238D01*
X371729761Y-243665476D01*
X371682142Y-243713095D01*
X371586904Y-243760714D01*
X371444047Y-243760714D01*
X371348809Y-243713095D01*
X371777380Y-243379761D02*
X371682142Y-243427380D01*
X371491666Y-243427380D01*
X371396428Y-243379761D01*
X371348809Y-243332142D01*
X371301190Y-243236904D01*
X371301190Y-242951190D01*
X371348809Y-242855952D01*
X371396428Y-242808333D01*
X371491666Y-242760714D01*
X371682142Y-242760714D01*
X371777380Y-242808333D01*
X372253571Y-243427380D02*
X372253571Y-242427380D01*
X372253571Y-242903571D02*
X372825000Y-242903571D01*
X372825000Y-243427380D02*
X372825000Y-242427380D01*
X373444047Y-243427380D02*
X373348809Y-243379761D01*
X373301190Y-243332142D01*
X373253571Y-243236904D01*
X373253571Y-242951190D01*
X373301190Y-242855952D01*
X373348809Y-242808333D01*
X373444047Y-242760714D01*
X373586904Y-242760714D01*
X373682142Y-242808333D01*
X373729761Y-242855952D01*
X373777380Y-242951190D01*
X373777380Y-243236904D01*
X373729761Y-243332142D01*
X373682142Y-243379761D01*
X373586904Y-243427380D01*
X373444047Y-243427380D01*
X374348809Y-243427380D02*
X374253571Y-243379761D01*
X374205952Y-243284523D01*
X374205952Y-242427380D01*
X375110714Y-243379761D02*
X375015476Y-243427380D01*
X374825000Y-243427380D01*
X374729761Y-243379761D01*
X374682142Y-243284523D01*
X374682142Y-242903571D01*
X374729761Y-242808333D01*
X374825000Y-242760714D01*
X375015476Y-242760714D01*
X375110714Y-242808333D01*
X375158333Y-242903571D01*
X375158333Y-242998809D01*
X374682142Y-243094047D01*
X369863095Y-239927380D02*
X369863095Y-238927380D01*
X369863095Y-239403571D02*
X370434523Y-239403571D01*
X370434523Y-239927380D02*
X370434523Y-238927380D01*
X370815476Y-238927380D02*
X371434523Y-238927380D01*
X371101190Y-239308333D01*
X371244047Y-239308333D01*
X371339285Y-239355952D01*
X371386904Y-239403571D01*
X371434523Y-239498809D01*
X371434523Y-239736904D01*
X371386904Y-239832142D01*
X371339285Y-239879761D01*
X371244047Y-239927380D01*
X370958333Y-239927380D01*
X370863095Y-239879761D01*
X370815476Y-239832142D01*
X365539285Y-89427380D02*
X365539285Y-88427380D01*
X365872619Y-89141666D01*
X366205952Y-88427380D01*
X366205952Y-89427380D01*
X366825000Y-89427380D02*
X366729761Y-89379761D01*
X366682142Y-89332142D01*
X366634523Y-89236904D01*
X366634523Y-88951190D01*
X366682142Y-88855952D01*
X366729761Y-88808333D01*
X366825000Y-88760714D01*
X366967857Y-88760714D01*
X367063095Y-88808333D01*
X367110714Y-88855952D01*
X367158333Y-88951190D01*
X367158333Y-89236904D01*
X367110714Y-89332142D01*
X367063095Y-89379761D01*
X366967857Y-89427380D01*
X366825000Y-89427380D01*
X368015476Y-88760714D02*
X368015476Y-89427380D01*
X367586904Y-88760714D02*
X367586904Y-89284523D01*
X367634523Y-89379761D01*
X367729761Y-89427380D01*
X367872619Y-89427380D01*
X367967857Y-89379761D01*
X368015476Y-89332142D01*
X368491666Y-88760714D02*
X368491666Y-89427380D01*
X368491666Y-88855952D02*
X368539285Y-88808333D01*
X368634523Y-88760714D01*
X368777380Y-88760714D01*
X368872619Y-88808333D01*
X368920238Y-88903571D01*
X368920238Y-89427380D01*
X369253571Y-88760714D02*
X369634523Y-88760714D01*
X369396428Y-88427380D02*
X369396428Y-89284523D01*
X369444047Y-89379761D01*
X369539285Y-89427380D01*
X369634523Y-89427380D01*
X369967857Y-89427380D02*
X369967857Y-88760714D01*
X369967857Y-88427380D02*
X369920238Y-88475000D01*
X369967857Y-88522619D01*
X370015476Y-88475000D01*
X369967857Y-88427380D01*
X369967857Y-88522619D01*
X370444047Y-88760714D02*
X370444047Y-89427380D01*
X370444047Y-88855952D02*
X370491666Y-88808333D01*
X370586904Y-88760714D01*
X370729761Y-88760714D01*
X370825000Y-88808333D01*
X370872619Y-88903571D01*
X370872619Y-89427380D01*
X371777380Y-88760714D02*
X371777380Y-89570238D01*
X371729761Y-89665476D01*
X371682142Y-89713095D01*
X371586904Y-89760714D01*
X371444047Y-89760714D01*
X371348809Y-89713095D01*
X371777380Y-89379761D02*
X371682142Y-89427380D01*
X371491666Y-89427380D01*
X371396428Y-89379761D01*
X371348809Y-89332142D01*
X371301190Y-89236904D01*
X371301190Y-88951190D01*
X371348809Y-88855952D01*
X371396428Y-88808333D01*
X371491666Y-88760714D01*
X371682142Y-88760714D01*
X371777380Y-88808333D01*
X372253571Y-89427380D02*
X372253571Y-88427380D01*
X372253571Y-88903571D02*
X372825000Y-88903571D01*
X372825000Y-89427380D02*
X372825000Y-88427380D01*
X373444047Y-89427380D02*
X373348809Y-89379761D01*
X373301190Y-89332142D01*
X373253571Y-89236904D01*
X373253571Y-88951190D01*
X373301190Y-88855952D01*
X373348809Y-88808333D01*
X373444047Y-88760714D01*
X373586904Y-88760714D01*
X373682142Y-88808333D01*
X373729761Y-88855952D01*
X373777380Y-88951190D01*
X373777380Y-89236904D01*
X373729761Y-89332142D01*
X373682142Y-89379761D01*
X373586904Y-89427380D01*
X373444047Y-89427380D01*
X374348809Y-89427380D02*
X374253571Y-89379761D01*
X374205952Y-89284523D01*
X374205952Y-88427380D01*
X375110714Y-89379761D02*
X375015476Y-89427380D01*
X374825000Y-89427380D01*
X374729761Y-89379761D01*
X374682142Y-89284523D01*
X374682142Y-88903571D01*
X374729761Y-88808333D01*
X374825000Y-88760714D01*
X375015476Y-88760714D01*
X375110714Y-88808333D01*
X375158333Y-88903571D01*
X375158333Y-88998809D01*
X374682142Y-89094047D01*
X369863095Y-85927380D02*
X369863095Y-84927380D01*
X369863095Y-85403571D02*
X370434523Y-85403571D01*
X370434523Y-85927380D02*
X370434523Y-84927380D01*
X370863095Y-85022619D02*
X370910714Y-84975000D01*
X371005952Y-84927380D01*
X371244047Y-84927380D01*
X371339285Y-84975000D01*
X371386904Y-85022619D01*
X371434523Y-85117857D01*
X371434523Y-85213095D01*
X371386904Y-85355952D01*
X370815476Y-85927380D01*
X371434523Y-85927380D01*
X59539285Y-89427380D02*
X59539285Y-88427380D01*
X59872619Y-89141666D01*
X60205952Y-88427380D01*
X60205952Y-89427380D01*
X60825000Y-89427380D02*
X60729761Y-89379761D01*
X60682142Y-89332142D01*
X60634523Y-89236904D01*
X60634523Y-88951190D01*
X60682142Y-88855952D01*
X60729761Y-88808333D01*
X60825000Y-88760714D01*
X60967857Y-88760714D01*
X61063095Y-88808333D01*
X61110714Y-88855952D01*
X61158333Y-88951190D01*
X61158333Y-89236904D01*
X61110714Y-89332142D01*
X61063095Y-89379761D01*
X60967857Y-89427380D01*
X60825000Y-89427380D01*
X62015476Y-88760714D02*
X62015476Y-89427380D01*
X61586904Y-88760714D02*
X61586904Y-89284523D01*
X61634523Y-89379761D01*
X61729761Y-89427380D01*
X61872619Y-89427380D01*
X61967857Y-89379761D01*
X62015476Y-89332142D01*
X62491666Y-88760714D02*
X62491666Y-89427380D01*
X62491666Y-88855952D02*
X62539285Y-88808333D01*
X62634523Y-88760714D01*
X62777380Y-88760714D01*
X62872619Y-88808333D01*
X62920238Y-88903571D01*
X62920238Y-89427380D01*
X63253571Y-88760714D02*
X63634523Y-88760714D01*
X63396428Y-88427380D02*
X63396428Y-89284523D01*
X63444047Y-89379761D01*
X63539285Y-89427380D01*
X63634523Y-89427380D01*
X63967857Y-89427380D02*
X63967857Y-88760714D01*
X63967857Y-88427380D02*
X63920238Y-88475000D01*
X63967857Y-88522619D01*
X64015476Y-88475000D01*
X63967857Y-88427380D01*
X63967857Y-88522619D01*
X64444047Y-88760714D02*
X64444047Y-89427380D01*
X64444047Y-88855952D02*
X64491666Y-88808333D01*
X64586904Y-88760714D01*
X64729761Y-88760714D01*
X64825000Y-88808333D01*
X64872619Y-88903571D01*
X64872619Y-89427380D01*
X65777380Y-88760714D02*
X65777380Y-89570238D01*
X65729761Y-89665476D01*
X65682142Y-89713095D01*
X65586904Y-89760714D01*
X65444047Y-89760714D01*
X65348809Y-89713095D01*
X65777380Y-89379761D02*
X65682142Y-89427380D01*
X65491666Y-89427380D01*
X65396428Y-89379761D01*
X65348809Y-89332142D01*
X65301190Y-89236904D01*
X65301190Y-88951190D01*
X65348809Y-88855952D01*
X65396428Y-88808333D01*
X65491666Y-88760714D01*
X65682142Y-88760714D01*
X65777380Y-88808333D01*
X66253571Y-89427380D02*
X66253571Y-88427380D01*
X66253571Y-88903571D02*
X66825000Y-88903571D01*
X66825000Y-89427380D02*
X66825000Y-88427380D01*
X67444047Y-89427380D02*
X67348809Y-89379761D01*
X67301190Y-89332142D01*
X67253571Y-89236904D01*
X67253571Y-88951190D01*
X67301190Y-88855952D01*
X67348809Y-88808333D01*
X67444047Y-88760714D01*
X67586904Y-88760714D01*
X67682142Y-88808333D01*
X67729761Y-88855952D01*
X67777380Y-88951190D01*
X67777380Y-89236904D01*
X67729761Y-89332142D01*
X67682142Y-89379761D01*
X67586904Y-89427380D01*
X67444047Y-89427380D01*
X68348809Y-89427380D02*
X68253571Y-89379761D01*
X68205952Y-89284523D01*
X68205952Y-88427380D01*
X69110714Y-89379761D02*
X69015476Y-89427380D01*
X68825000Y-89427380D01*
X68729761Y-89379761D01*
X68682142Y-89284523D01*
X68682142Y-88903571D01*
X68729761Y-88808333D01*
X68825000Y-88760714D01*
X69015476Y-88760714D01*
X69110714Y-88808333D01*
X69158333Y-88903571D01*
X69158333Y-88998809D01*
X68682142Y-89094047D01*
X63863095Y-85927380D02*
X63863095Y-84927380D01*
X63863095Y-85403571D02*
X64434523Y-85403571D01*
X64434523Y-85927380D02*
X64434523Y-84927380D01*
X65434523Y-85927380D02*
X64863095Y-85927380D01*
X65148809Y-85927380D02*
X65148809Y-84927380D01*
X65053571Y-85070238D01*
X64958333Y-85165476D01*
X64863095Y-85213095D01*
M02*
