M48
INCH,TZ
T1C0.0256
T2C0.0689
T3C0.1200
T4C0.1570
%
G90
G05
T1
X102248Y-34231
X104524Y-34231
T2
X27524Y-50925
X27529Y-58420
X27554Y-39685
X28464Y-88425
X29404Y-65925
X30339Y-73425
X31524Y-50925
X31529Y-58420
X31554Y-39685
X32214Y-80925
X32464Y-88425
X33404Y-65925
X34339Y-73425
X35024Y-50925
X35024Y-58425
X35054Y-39685
X36214Y-80925
X37846Y-88425
X38784Y-65925
X39024Y-50925
X39024Y-58425
X39054Y-39685
X40644Y-73425
X41846Y-88425
X42524Y-50925
X42544Y-58425
X42554Y-39685
X42784Y-65925
X44414Y-80925
X44644Y-73425
X46284Y-65925
X46524Y-50925
X46544Y-58425
X46554Y-39685
X47219Y-88429
X48124Y-73425
X48414Y-80925
X50044Y-50925
X50044Y-58425
X50054Y-39685
X50284Y-65925
X51219Y-88429
X51914Y-80925
X52124Y-73425
X53784Y-65925
X54044Y-50925
X54044Y-58425
X54054Y-39685
X55644Y-73425
X55914Y-80925
X57544Y-50925
X57544Y-58425
X57554Y-39685
X57784Y-65925
X59414Y-80925
X59644Y-73425
X61284Y-65925
X61544Y-50925
X61544Y-58425
X61554Y-39685
X63144Y-73425
X63414Y-80925
X65044Y-50925
X65044Y-58425
X65054Y-39685
X65284Y-65925
X66914Y-80925
X67144Y-73425
X68784Y-65925
X69044Y-50925
X69044Y-58425
X69054Y-39685
X70644Y-73425
X70914Y-80925
X72544Y-50925
X72544Y-58425
X72554Y-39685
X72784Y-65925
X74414Y-80925
X74644Y-73425
X75349Y-88429
X76284Y-65925
X76544Y-50925
X76544Y-58425
X76554Y-39685
X78144Y-73425
X78414Y-80925
X79349Y-88429
X80044Y-50925
X80044Y-58425
X80054Y-39685
X80284Y-65925
X81914Y-80925
X82144Y-73425
X83784Y-65925
X84044Y-50925
X84044Y-58425
X84054Y-39685
X85644Y-73425
X85914Y-80925
X87544Y-50925
X87544Y-58425
X87554Y-39685
X87784Y-65925
X89414Y-80925
X89644Y-73425
X91284Y-65925
X91544Y-50925
X91544Y-58425
X91554Y-39685
X93144Y-73425
X93414Y-80925
X95044Y-50925
X95044Y-58425
X95054Y-39685
X95284Y-65925
X96914Y-80925
X97144Y-73425
X98784Y-65925
X99044Y-50925
X99044Y-58425
X99054Y-39685
X100644Y-73425
X100914Y-80925
X102536Y-88425
X102544Y-50925
X102544Y-58425
X102784Y-65925
X104414Y-80925
X104644Y-73425
X106264Y-65925
X106536Y-88425
X106544Y-50925
X106544Y-58425
X108144Y-73425
X108414Y-80925
X110044Y-50925
X110044Y-58425
X110064Y-88425
X110077Y-39685
X110264Y-65925
X111914Y-80925
X112144Y-73425
X113764Y-65925
X114044Y-50925
X114044Y-58425
X114064Y-88425
X114077Y-39685
X115644Y-73425
X115914Y-80925
X117544Y-50925
X117544Y-58425
X117554Y-39685
X117564Y-88425
X117764Y-65925
X119644Y-73425
X121264Y-65925
X121544Y-50925
X121544Y-58425
X121554Y-39685
X121564Y-88425
X122239Y-80925
X125054Y-39685
X125064Y-50925
X125064Y-88425
X125264Y-65925
X126239Y-80925
X127844Y-73425
X128804Y-58425
X129054Y-39685
X129064Y-50925
X129064Y-88425
X130634Y-65925
X131844Y-73425
X132544Y-50925
X132554Y-39685
X132564Y-80925
X132564Y-88425
X132804Y-58425
X134634Y-65925
X136544Y-50925
X136554Y-39685
X136564Y-80925
X136564Y-88425
X140054Y-39685
X140064Y-50925
X140064Y-58425
X140064Y-65925
X140064Y-73425
X140064Y-80925
X140064Y-88425
X144054Y-39685
X144064Y-50925
X144064Y-58425
X144064Y-65925
X144064Y-73425
X144064Y-80925
X144064Y-88425
T3
X29526Y-78175
X38901Y-78175
X57664Y-85679
X97034Y-85679
X125156Y-70675
X126116Y-55675
X134531Y-70675
X135491Y-55675
T4
X29524Y-50925
X29526Y-84175
X29529Y-58420
X29554Y-39685
X30464Y-88425
X31404Y-65925
X32339Y-73425
X34214Y-80925
X37024Y-50925
X37024Y-58425
X37054Y-39685
X38901Y-84175
X39846Y-88425
X40784Y-65925
X42644Y-73425
X44524Y-50925
X44544Y-58425
X44554Y-39685
X46414Y-80925
X48284Y-65925
X49219Y-88429
X50124Y-73425
X52044Y-50925
X52044Y-58425
X52054Y-39685
X53914Y-80925
X55784Y-65925
X57644Y-73425
X57664Y-91679
X59544Y-50925
X59544Y-58425
X59554Y-39685
X61414Y-80925
X63284Y-65925
X65144Y-73425
X67044Y-50925
X67044Y-58425
X67054Y-39685
X68914Y-80925
X70784Y-65925
X72644Y-73425
X74544Y-50925
X74544Y-58425
X74554Y-39685
X76414Y-80925
X77349Y-88429
X78284Y-65925
X80144Y-73425
X82044Y-50925
X82044Y-58425
X82054Y-39685
X83914Y-80925
X85784Y-65925
X87644Y-73425
X89544Y-50925
X89544Y-58425
X89554Y-39685
X91414Y-80925
X93284Y-65925
X95144Y-73425
X97034Y-91679
X97044Y-50925
X97044Y-58425
X97054Y-39685
X98914Y-80925
X100784Y-65925
X102644Y-73425
X104536Y-88425
X104544Y-50925
X104544Y-58425
X106414Y-80925
X108264Y-65925
X110144Y-73425
X112044Y-50925
X112044Y-58425
X112064Y-88425
X112077Y-39685
X113914Y-80925
X115764Y-65925
X117644Y-73425
X119544Y-50925
X119544Y-58425
X119554Y-39685
X119564Y-88425
X123264Y-65925
X124239Y-80925
X125156Y-76675
X126116Y-61675
X127054Y-39685
X127064Y-50925
X127064Y-88425
X129844Y-73425
X130804Y-58425
X132634Y-65925
X134531Y-76675
X134544Y-50925
X134554Y-39685
X134564Y-80925
X134564Y-88425
X135491Y-61675
X142054Y-39685
X142064Y-50925
X142064Y-58425
X142064Y-65925
X142064Y-73425
X142064Y-80925
X142064Y-88425
T0
M30
