G04 #@! TF.GenerationSoftware,KiCad,Pcbnew,(5.1.9-0-10_14)*
G04 #@! TF.CreationDate,2021-04-15T17:38:18+09:00*
G04 #@! TF.ProjectId,JupiterAdvanced,4a757069-7465-4724-9164-76616e636564,1*
G04 #@! TF.SameCoordinates,Original*
G04 #@! TF.FileFunction,Legend,Top*
G04 #@! TF.FilePolarity,Positive*
%FSLAX46Y46*%
G04 Gerber Fmt 4.6, Leading zero omitted, Abs format (unit mm)*
G04 Created by KiCad (PCBNEW (5.1.9-0-10_14)) date 2021-04-15 17:38:18*
%MOMM*%
%LPD*%
G01*
G04 APERTURE LIST*
%ADD10C,0.150000*%
G04 APERTURE END LIST*
D10*
X343134523Y-238842300D02*
X343134523Y-239556586D01*
X343086904Y-239699443D01*
X342991666Y-239794681D01*
X342848809Y-239842300D01*
X342753571Y-239842300D01*
X344039285Y-239175634D02*
X344039285Y-239842300D01*
X343610714Y-239175634D02*
X343610714Y-239699443D01*
X343658333Y-239794681D01*
X343753571Y-239842300D01*
X343896428Y-239842300D01*
X343991666Y-239794681D01*
X344039285Y-239747062D01*
X344515476Y-239175634D02*
X344515476Y-240175634D01*
X344515476Y-239223253D02*
X344610714Y-239175634D01*
X344801190Y-239175634D01*
X344896428Y-239223253D01*
X344944047Y-239270872D01*
X344991666Y-239366110D01*
X344991666Y-239651824D01*
X344944047Y-239747062D01*
X344896428Y-239794681D01*
X344801190Y-239842300D01*
X344610714Y-239842300D01*
X344515476Y-239794681D01*
X345420238Y-239842300D02*
X345420238Y-239175634D01*
X345420238Y-238842300D02*
X345372619Y-238889920D01*
X345420238Y-238937539D01*
X345467857Y-238889920D01*
X345420238Y-238842300D01*
X345420238Y-238937539D01*
X345753571Y-239175634D02*
X346134523Y-239175634D01*
X345896428Y-238842300D02*
X345896428Y-239699443D01*
X345944047Y-239794681D01*
X346039285Y-239842300D01*
X346134523Y-239842300D01*
X346848809Y-239794681D02*
X346753571Y-239842300D01*
X346563095Y-239842300D01*
X346467857Y-239794681D01*
X346420238Y-239699443D01*
X346420238Y-239318491D01*
X346467857Y-239223253D01*
X346563095Y-239175634D01*
X346753571Y-239175634D01*
X346848809Y-239223253D01*
X346896428Y-239318491D01*
X346896428Y-239413729D01*
X346420238Y-239508967D01*
X347325000Y-239842300D02*
X347325000Y-239175634D01*
X347325000Y-239366110D02*
X347372619Y-239270872D01*
X347420238Y-239223253D01*
X347515476Y-239175634D01*
X347610714Y-239175634D01*
X348658333Y-239556586D02*
X349134523Y-239556586D01*
X348563095Y-239842300D02*
X348896428Y-238842300D01*
X349229761Y-239842300D01*
X349991666Y-239842300D02*
X349991666Y-238842300D01*
X349991666Y-239794681D02*
X349896428Y-239842300D01*
X349705952Y-239842300D01*
X349610714Y-239794681D01*
X349563095Y-239747062D01*
X349515476Y-239651824D01*
X349515476Y-239366110D01*
X349563095Y-239270872D01*
X349610714Y-239223253D01*
X349705952Y-239175634D01*
X349896428Y-239175634D01*
X349991666Y-239223253D01*
X350372619Y-239175634D02*
X350610714Y-239842300D01*
X350848809Y-239175634D01*
X351658333Y-239842300D02*
X351658333Y-239318491D01*
X351610714Y-239223253D01*
X351515476Y-239175634D01*
X351325000Y-239175634D01*
X351229761Y-239223253D01*
X351658333Y-239794681D02*
X351563095Y-239842300D01*
X351325000Y-239842300D01*
X351229761Y-239794681D01*
X351182142Y-239699443D01*
X351182142Y-239604205D01*
X351229761Y-239508967D01*
X351325000Y-239461348D01*
X351563095Y-239461348D01*
X351658333Y-239413729D01*
X352134523Y-239175634D02*
X352134523Y-239842300D01*
X352134523Y-239270872D02*
X352182142Y-239223253D01*
X352277380Y-239175634D01*
X352420238Y-239175634D01*
X352515476Y-239223253D01*
X352563095Y-239318491D01*
X352563095Y-239842300D01*
X353467857Y-239794681D02*
X353372619Y-239842300D01*
X353182142Y-239842300D01*
X353086904Y-239794681D01*
X353039285Y-239747062D01*
X352991666Y-239651824D01*
X352991666Y-239366110D01*
X353039285Y-239270872D01*
X353086904Y-239223253D01*
X353182142Y-239175634D01*
X353372619Y-239175634D01*
X353467857Y-239223253D01*
X354277380Y-239794681D02*
X354182142Y-239842300D01*
X353991666Y-239842300D01*
X353896428Y-239794681D01*
X353848809Y-239699443D01*
X353848809Y-239318491D01*
X353896428Y-239223253D01*
X353991666Y-239175634D01*
X354182142Y-239175634D01*
X354277380Y-239223253D01*
X354325000Y-239318491D01*
X354325000Y-239413729D01*
X353848809Y-239508967D01*
X355182142Y-239842300D02*
X355182142Y-238842300D01*
X355182142Y-239794681D02*
X355086904Y-239842300D01*
X354896428Y-239842300D01*
X354801190Y-239794681D01*
X354753571Y-239747062D01*
X354705952Y-239651824D01*
X354705952Y-239366110D01*
X354753571Y-239270872D01*
X354801190Y-239223253D01*
X354896428Y-239175634D01*
X355086904Y-239175634D01*
X355182142Y-239223253D01*
X356420238Y-239842300D02*
X356420238Y-238842300D01*
X356801190Y-238842300D01*
X356896428Y-238889920D01*
X356944047Y-238937539D01*
X356991666Y-239032777D01*
X356991666Y-239175634D01*
X356944047Y-239270872D01*
X356896428Y-239318491D01*
X356801190Y-239366110D01*
X356420238Y-239366110D01*
X357420238Y-239747062D02*
X357467857Y-239794681D01*
X357420238Y-239842300D01*
X357372619Y-239794681D01*
X357420238Y-239747062D01*
X357420238Y-239842300D01*
X358086904Y-238842300D02*
X358182142Y-238842300D01*
X358277380Y-238889920D01*
X358325000Y-238937539D01*
X358372619Y-239032777D01*
X358420238Y-239223253D01*
X358420238Y-239461348D01*
X358372619Y-239651824D01*
X358325000Y-239747062D01*
X358277380Y-239794681D01*
X358182142Y-239842300D01*
X358086904Y-239842300D01*
X357991666Y-239794681D01*
X357944047Y-239747062D01*
X357896428Y-239651824D01*
X357848809Y-239461348D01*
X357848809Y-239223253D01*
X357896428Y-239032777D01*
X357944047Y-238937539D01*
X357991666Y-238889920D01*
X358086904Y-238842300D01*
X359372619Y-239842300D02*
X358801190Y-239842300D01*
X359086904Y-239842300D02*
X359086904Y-238842300D01*
X358991666Y-238985158D01*
X358896428Y-239080396D01*
X358801190Y-239128015D01*
X360515476Y-238937539D02*
X360563095Y-238889920D01*
X360658333Y-238842300D01*
X360896428Y-238842300D01*
X360991666Y-238889920D01*
X361039285Y-238937539D01*
X361086904Y-239032777D01*
X361086904Y-239128015D01*
X361039285Y-239270872D01*
X360467857Y-239842300D01*
X361086904Y-239842300D01*
X362039285Y-239842300D02*
X361467857Y-239842300D01*
X361753571Y-239842300D02*
X361753571Y-238842300D01*
X361658333Y-238985158D01*
X361563095Y-239080396D01*
X361467857Y-239128015D01*
X362658333Y-238842300D02*
X362753571Y-238842300D01*
X362848809Y-238889920D01*
X362896428Y-238937539D01*
X362944047Y-239032777D01*
X362991666Y-239223253D01*
X362991666Y-239461348D01*
X362944047Y-239651824D01*
X362896428Y-239747062D01*
X362848809Y-239794681D01*
X362753571Y-239842300D01*
X362658333Y-239842300D01*
X362563095Y-239794681D01*
X362515476Y-239747062D01*
X362467857Y-239651824D01*
X362420238Y-239461348D01*
X362420238Y-239223253D01*
X362467857Y-239032777D01*
X362515476Y-238937539D01*
X362563095Y-238889920D01*
X362658333Y-238842300D01*
X363848809Y-239175634D02*
X363848809Y-239842300D01*
X363610714Y-238794681D02*
X363372619Y-239508967D01*
X363991666Y-239508967D01*
X364896428Y-239842300D02*
X364325000Y-239842300D01*
X364610714Y-239842300D02*
X364610714Y-238842300D01*
X364515476Y-238985158D01*
X364420238Y-239080396D01*
X364325000Y-239128015D01*
X365753571Y-239175634D02*
X365753571Y-239842300D01*
X365515476Y-238794681D02*
X365277380Y-239508967D01*
X365896428Y-239508967D01*
X311563095Y-179427380D02*
X311563095Y-178427380D01*
X311563095Y-178903571D02*
X312134523Y-178903571D01*
X312134523Y-179427380D02*
X312134523Y-178427380D01*
X313039285Y-178427380D02*
X312848809Y-178427380D01*
X312753571Y-178475000D01*
X312705952Y-178522619D01*
X312610714Y-178665476D01*
X312563095Y-178855952D01*
X312563095Y-179236904D01*
X312610714Y-179332142D01*
X312658333Y-179379761D01*
X312753571Y-179427380D01*
X312944047Y-179427380D01*
X313039285Y-179379761D01*
X313086904Y-179332142D01*
X313134523Y-179236904D01*
X313134523Y-178998809D01*
X313086904Y-178903571D01*
X313039285Y-178855952D01*
X312944047Y-178808333D01*
X312753571Y-178808333D01*
X312658333Y-178855952D01*
X312610714Y-178903571D01*
X312563095Y-178998809D01*
X94563095Y-176427380D02*
X94563095Y-175427380D01*
X94563095Y-175903571D02*
X95134523Y-175903571D01*
X95134523Y-176427380D02*
X95134523Y-175427380D01*
X96086904Y-175427380D02*
X95610714Y-175427380D01*
X95563095Y-175903571D01*
X95610714Y-175855952D01*
X95705952Y-175808333D01*
X95944047Y-175808333D01*
X96039285Y-175855952D01*
X96086904Y-175903571D01*
X96134523Y-175998809D01*
X96134523Y-176236904D01*
X96086904Y-176332142D01*
X96039285Y-176379761D01*
X95944047Y-176427380D01*
X95705952Y-176427380D01*
X95610714Y-176379761D01*
X95563095Y-176332142D01*
X64563095Y-236427380D02*
X64563095Y-235427380D01*
X64563095Y-235903571D02*
X65134523Y-235903571D01*
X65134523Y-236427380D02*
X65134523Y-235427380D01*
X66039285Y-235760714D02*
X66039285Y-236427380D01*
X65801190Y-235379761D02*
X65563095Y-236094047D01*
X66182142Y-236094047D01*
X369563095Y-236427380D02*
X369563095Y-235427380D01*
X369563095Y-235903571D02*
X370134523Y-235903571D01*
X370134523Y-236427380D02*
X370134523Y-235427380D01*
X370515476Y-235427380D02*
X371134523Y-235427380D01*
X370801190Y-235808333D01*
X370944047Y-235808333D01*
X371039285Y-235855952D01*
X371086904Y-235903571D01*
X371134523Y-235998809D01*
X371134523Y-236236904D01*
X371086904Y-236332142D01*
X371039285Y-236379761D01*
X370944047Y-236427380D01*
X370658333Y-236427380D01*
X370563095Y-236379761D01*
X370515476Y-236332142D01*
X369563095Y-82427380D02*
X369563095Y-81427380D01*
X369563095Y-81903571D02*
X370134523Y-81903571D01*
X370134523Y-82427380D02*
X370134523Y-81427380D01*
X370563095Y-81522619D02*
X370610714Y-81475000D01*
X370705952Y-81427380D01*
X370944047Y-81427380D01*
X371039285Y-81475000D01*
X371086904Y-81522619D01*
X371134523Y-81617857D01*
X371134523Y-81713095D01*
X371086904Y-81855952D01*
X370515476Y-82427380D01*
X371134523Y-82427380D01*
X63563095Y-82427380D02*
X63563095Y-81427380D01*
X63563095Y-81903571D02*
X64134523Y-81903571D01*
X64134523Y-82427380D02*
X64134523Y-81427380D01*
X65134523Y-82427380D02*
X64563095Y-82427380D01*
X64848809Y-82427380D02*
X64848809Y-81427380D01*
X64753571Y-81570238D01*
X64658333Y-81665476D01*
X64563095Y-81713095D01*
M02*
