G04 #@! TF.GenerationSoftware,KiCad,Pcbnew,(5.1.9)-1*
G04 #@! TF.CreationDate,2021-04-14T22:58:01+09:00*
G04 #@! TF.ProjectId,JupiterAdvanced,4a757069-7465-4724-9164-76616e636564,1*
G04 #@! TF.SameCoordinates,Original*
G04 #@! TF.FileFunction,Copper,L1,Top*
G04 #@! TF.FilePolarity,Positive*
%FSLAX46Y46*%
G04 Gerber Fmt 4.6, Leading zero omitted, Abs format (unit mm)*
G04 Created by KiCad (PCBNEW (5.1.9)-1) date 2021-04-14 22:58:01*
%MOMM*%
%LPD*%
G01*
G04 APERTURE LIST*
G04 #@! TA.AperFunction,ComponentPad*
%ADD10C,2.250000*%
G04 #@! TD*
G04 #@! TA.AperFunction,ComponentPad*
%ADD11O,1.000000X2.100000*%
G04 #@! TD*
G04 #@! TA.AperFunction,ComponentPad*
%ADD12O,1.000000X1.600000*%
G04 #@! TD*
G04 #@! TA.AperFunction,ViaPad*
%ADD13C,0.800000*%
G04 #@! TD*
G04 #@! TA.AperFunction,Conductor*
%ADD14C,0.254000*%
G04 #@! TD*
G04 #@! TA.AperFunction,Conductor*
%ADD15C,0.381000*%
G04 #@! TD*
G04 #@! TA.AperFunction,Conductor*
%ADD16C,0.150000*%
G04 #@! TD*
G04 APERTURE END LIST*
D10*
X339429320Y-162369620D03*
X333079320Y-164909620D03*
X363356120Y-95718820D03*
X357006120Y-98258820D03*
D11*
X258280240Y-87475980D03*
X266920240Y-87475980D03*
D12*
X258280240Y-83295980D03*
X266920240Y-83295980D03*
D10*
X77542620Y-143306920D03*
X71192620Y-145846920D03*
X82305120Y-162369620D03*
X75955120Y-164909620D03*
X199005647Y-219529227D03*
X192655647Y-222069227D03*
X318106020Y-200469620D03*
X311756020Y-203009620D03*
X306231520Y-219519620D03*
X299881520Y-222059620D03*
X315629520Y-162369620D03*
X309279520Y-164909620D03*
X268060380Y-219519620D03*
X261710380Y-222059620D03*
X301354720Y-181419620D03*
X295004720Y-183959620D03*
X291880520Y-200469620D03*
X285530520Y-203009620D03*
X325281520Y-124269620D03*
X318931520Y-126809620D03*
X306180720Y-143319620D03*
X299830720Y-145859620D03*
X363381520Y-162369620D03*
X357031520Y-164909620D03*
X363381520Y-181419620D03*
X357031520Y-183959620D03*
X344280720Y-124269620D03*
X337930720Y-126809620D03*
X120430520Y-200469620D03*
X114080520Y-203009620D03*
X201380320Y-162369620D03*
X195030320Y-164909620D03*
X139480520Y-200469620D03*
X133130520Y-203009620D03*
X125180320Y-162369620D03*
X118830320Y-164909620D03*
X177580520Y-200469620D03*
X171230520Y-203009620D03*
X220430320Y-162369620D03*
X214080320Y-164909620D03*
X182330320Y-162369620D03*
X175980320Y-164909620D03*
X344306120Y-95718820D03*
X337956120Y-98258820D03*
X325256120Y-95718820D03*
X318906120Y-98258820D03*
X306206120Y-95718820D03*
X299856120Y-98258820D03*
X287215320Y-95718820D03*
X280865320Y-98258820D03*
X249056120Y-95718820D03*
X242706120Y-98258820D03*
X230006120Y-95718820D03*
X223656120Y-98258820D03*
X210956120Y-95718820D03*
X204606120Y-98258820D03*
X191906120Y-95718820D03*
X185556120Y-98258820D03*
X172856120Y-95718820D03*
X166506120Y-98258820D03*
X153806120Y-95718820D03*
X147456120Y-98258820D03*
X134756120Y-95718820D03*
X128406120Y-98258820D03*
X115706120Y-95718820D03*
X109356120Y-98258820D03*
X96656120Y-95718820D03*
X90306120Y-98258820D03*
X77606120Y-95718820D03*
X71256120Y-98258820D03*
X129853920Y-181419620D03*
X123503920Y-183959620D03*
X163280320Y-162369620D03*
X156930320Y-164909620D03*
X106130320Y-162369620D03*
X99780320Y-164909620D03*
X277529520Y-162369620D03*
X271179520Y-164909620D03*
X258530320Y-162369620D03*
X252180320Y-164909620D03*
X215680520Y-200469620D03*
X209330520Y-203009620D03*
X234730520Y-200469620D03*
X228380520Y-203009620D03*
X263254720Y-181419620D03*
X256904720Y-183959620D03*
X244204720Y-181419620D03*
X237854720Y-183959620D03*
X225154720Y-181419620D03*
X218804720Y-183959620D03*
X239480320Y-162369620D03*
X233130320Y-164909620D03*
X206104720Y-181419620D03*
X199754720Y-183959620D03*
X187054720Y-181419620D03*
X180704720Y-183959620D03*
X287130720Y-124269620D03*
X280780720Y-126809620D03*
X168004720Y-181419620D03*
X161654720Y-183959620D03*
X144230320Y-162369620D03*
X137880320Y-164909620D03*
X148954720Y-181419620D03*
X142604720Y-183959620D03*
X158530520Y-200469620D03*
X152180520Y-203009620D03*
X196630520Y-200469620D03*
X190280520Y-203009620D03*
X110854720Y-181419620D03*
X104504720Y-183959620D03*
X249030720Y-143319620D03*
X242680720Y-145859620D03*
X229980720Y-143319620D03*
X223630720Y-145859620D03*
X210930720Y-143319620D03*
X204580720Y-145859620D03*
X191880720Y-143319620D03*
X185530720Y-145859620D03*
X172830720Y-143319620D03*
X166480720Y-145859620D03*
X153780720Y-143319620D03*
X147430720Y-145859620D03*
X134730720Y-143319620D03*
X128380720Y-145859620D03*
X115680720Y-143319620D03*
X109330720Y-145859620D03*
X96579920Y-143319620D03*
X90229920Y-145859620D03*
X268080720Y-143319620D03*
X261730720Y-145859620D03*
X253780520Y-200469620D03*
X247430520Y-203009620D03*
X89442520Y-200469620D03*
X83092520Y-203009620D03*
X103749524Y-219519620D03*
X97399524Y-222059620D03*
X79917520Y-219519620D03*
X73567520Y-222059620D03*
X296579520Y-162369620D03*
X290229520Y-164909620D03*
X127557128Y-219529227D03*
X121207128Y-222069227D03*
X287130720Y-143319620D03*
X280780720Y-145859620D03*
X363381520Y-143319620D03*
X357031520Y-145859620D03*
X266480520Y-203009620D03*
X272830520Y-200469620D03*
X287181520Y-219519620D03*
X280831520Y-222059620D03*
X306180720Y-124269620D03*
X299830720Y-126809620D03*
X268080720Y-124269620D03*
X261730720Y-126809620D03*
X249030720Y-124269620D03*
X242680720Y-126809620D03*
X229980720Y-124269620D03*
X223630720Y-126809620D03*
X210930720Y-124269620D03*
X204580720Y-126809620D03*
X191880720Y-124269620D03*
X185530720Y-126809620D03*
X172830720Y-124269620D03*
X166480720Y-126809620D03*
X153780720Y-124269620D03*
X147430720Y-126809620D03*
X134730720Y-124269620D03*
X128380720Y-126809620D03*
X115629920Y-124269620D03*
X109279920Y-126809620D03*
X96579920Y-124269620D03*
X90229920Y-126809620D03*
X77529920Y-124269620D03*
X71179920Y-126809620D03*
X332342720Y-181419620D03*
X325992720Y-183959620D03*
X363381520Y-200469620D03*
X357031520Y-203009620D03*
X363381520Y-124269620D03*
X357031520Y-126809620D03*
X84680020Y-181419620D03*
X78330020Y-183959620D03*
X282304720Y-181419620D03*
X275954720Y-183959620D03*
X334781120Y-143319620D03*
X328431120Y-145859620D03*
X344331520Y-200469620D03*
X337981520Y-203009620D03*
X363381520Y-219519620D03*
X357031520Y-222059620D03*
X325281520Y-219519620D03*
X318931520Y-222059620D03*
X344331520Y-219519620D03*
X337981520Y-222059620D03*
D13*
X270949420Y-118770020D03*
X291561520Y-119298720D03*
X294647620Y-118841520D03*
X270145320Y-117758020D03*
X290520120Y-120032220D03*
X294711120Y-119946420D03*
X271745320Y-117762210D03*
X290202620Y-118333520D03*
X294469820Y-117317520D03*
X287446720Y-111513620D03*
X287459420Y-113786920D03*
X278785320Y-113748820D03*
X253461520Y-100578920D03*
X253906020Y-105544620D03*
X256166620Y-99956620D03*
X276829520Y-102661720D03*
X269971520Y-99029520D03*
X278099520Y-98254820D03*
X256311120Y-105031820D03*
X261246620Y-120556020D03*
X248356120Y-112936020D03*
X255615420Y-107431820D03*
X255650820Y-105831820D03*
X256260520Y-106631820D03*
X256288420Y-108231820D03*
X254873420Y-109031820D03*
X245631720Y-110065820D03*
X241460020Y-110078520D03*
X255760920Y-109831820D03*
X245576250Y-111064282D03*
X241460020Y-111078523D03*
X256432420Y-110631820D03*
X245593922Y-112064128D03*
X241434473Y-112078199D03*
X266945320Y-117758420D03*
X245784120Y-121610120D03*
X241663220Y-121610120D03*
X267745320Y-118817120D03*
X268545320Y-117720120D03*
X265717020Y-89910920D03*
X259729460Y-89917760D03*
X269345320Y-118778820D03*
X289580320Y-120759220D03*
X293072820Y-120759220D03*
D14*
X337956120Y-126784220D02*
X337930720Y-126809620D01*
X337956120Y-98258820D02*
X337956120Y-126784220D01*
X337930720Y-136360020D02*
X328431120Y-145859620D01*
X337930720Y-126809620D02*
X337930720Y-136360020D01*
X328431120Y-160261420D02*
X333079320Y-164909620D01*
X328431120Y-145859620D02*
X328431120Y-160261420D01*
X334204319Y-184042257D02*
X338245320Y-188083258D01*
X334204319Y-166034619D02*
X334204319Y-184042257D01*
X333079320Y-164909620D02*
X334204319Y-166034619D01*
X338245320Y-202745820D02*
X337981520Y-203009620D01*
X338245320Y-188083258D02*
X338245320Y-202745820D01*
X337981520Y-203009620D02*
X337981520Y-222059620D01*
X337956120Y-91461820D02*
X337956120Y-98258820D01*
X297850463Y-90676110D02*
X337170410Y-90676110D01*
X296311320Y-92215253D02*
X297850463Y-90676110D01*
X296311320Y-117177820D02*
X296311320Y-92215253D01*
X337170410Y-90676110D02*
X337956120Y-91461820D01*
X294647620Y-118841520D02*
X296311320Y-117177820D01*
X271254220Y-119298720D02*
X291561520Y-119298720D01*
X270949420Y-118993920D02*
X271254220Y-119298720D01*
X270949420Y-118770020D02*
X270949420Y-118993920D01*
X318906120Y-126784220D02*
X318931520Y-126809620D01*
X318906120Y-98258820D02*
X318906120Y-126784220D01*
X309279520Y-149730488D02*
X309279520Y-164909620D01*
X318931520Y-140078488D02*
X309279520Y-149730488D01*
X318931520Y-126809620D02*
X318931520Y-140078488D01*
X319601988Y-183959620D02*
X325992720Y-183959620D01*
X309279520Y-173637152D02*
X319601988Y-183959620D01*
X309279520Y-164909620D02*
X309279520Y-173637152D01*
X313076404Y-203009620D02*
X311756020Y-203009620D01*
X325992720Y-190093304D02*
X313076404Y-203009620D01*
X325992720Y-183959620D02*
X325992720Y-190093304D01*
X311756020Y-214884120D02*
X318931520Y-222059620D01*
X311756020Y-203009620D02*
X311756020Y-214884120D01*
X294711120Y-119946420D02*
X296882820Y-117774720D01*
X296882820Y-117774720D02*
X296882820Y-92285820D01*
X296882820Y-92285820D02*
X298038520Y-91130120D01*
X298038520Y-91130120D02*
X318218820Y-91130120D01*
X318906120Y-91817420D02*
X318906120Y-98258820D01*
X318218820Y-91130120D02*
X318906120Y-91817420D01*
X270514520Y-120032220D02*
X290520120Y-120032220D01*
X270145320Y-119663020D02*
X270514520Y-120032220D01*
X270145320Y-117758020D02*
X270145320Y-119663020D01*
X357006120Y-126784220D02*
X357031520Y-126809620D01*
X357006120Y-98258820D02*
X357006120Y-126784220D01*
X357031520Y-126809620D02*
X357031520Y-145859620D01*
X357031520Y-145859620D02*
X357031520Y-164909620D01*
X357031520Y-164909620D02*
X357031520Y-183959620D01*
X357031520Y-183959620D02*
X357031520Y-203009620D01*
X357031520Y-203009620D02*
X357031520Y-222059620D01*
X271745320Y-117762210D02*
X272316630Y-118333520D01*
X272316630Y-118333520D02*
X290202620Y-118333520D01*
X357006120Y-91080820D02*
X357006120Y-98258820D01*
X356147400Y-90222100D02*
X357006120Y-91080820D01*
X297662406Y-90222100D02*
X356147400Y-90222100D01*
X295765220Y-92119286D02*
X297662406Y-90222100D01*
X295765220Y-116022120D02*
X295765220Y-92119286D01*
X294469820Y-117317520D02*
X295765220Y-116022120D01*
D15*
X253461520Y-100578920D02*
X254388620Y-101506020D01*
X254388620Y-101506020D02*
X254388620Y-105062020D01*
X254388620Y-105062020D02*
X253906020Y-105544620D01*
X253906020Y-105544620D02*
X253906020Y-105544620D01*
X256166620Y-99956620D02*
X257106420Y-99016820D01*
X257106420Y-99016820D02*
X268206220Y-99016820D01*
X276829520Y-101125020D02*
X276829520Y-102661720D01*
X274721320Y-99016820D02*
X276829520Y-101125020D01*
X268206220Y-99016820D02*
X274721320Y-99016820D01*
D14*
X280865320Y-126725020D02*
X280780720Y-126809620D01*
X280780720Y-126809620D02*
X280780720Y-145859620D01*
X271179520Y-158509782D02*
X271179520Y-164909620D01*
X280780720Y-148908582D02*
X271179520Y-158509782D01*
X280780720Y-145859620D02*
X280780720Y-148908582D01*
X271179520Y-179184420D02*
X275954720Y-183959620D01*
X271179520Y-164909620D02*
X271179520Y-179184420D01*
X275954720Y-193433820D02*
X285530520Y-203009620D01*
X275954720Y-183959620D02*
X275954720Y-193433820D01*
X285530520Y-217360620D02*
X280831520Y-222059620D01*
X285530520Y-203009620D02*
X285530520Y-217360620D01*
X290189920Y-121978420D02*
X285611920Y-121978420D01*
X285611920Y-121978420D02*
X280780720Y-126809620D01*
X293237920Y-118930420D02*
X290189920Y-121978420D01*
X293237920Y-101137720D02*
X293237920Y-118930420D01*
X290359020Y-98258820D02*
X293237920Y-101137720D01*
X280865320Y-98258820D02*
X290359020Y-98258820D01*
X280861320Y-98254820D02*
X280865320Y-98258820D01*
X278099520Y-98254820D02*
X280861320Y-98254820D01*
X71256120Y-126733420D02*
X71179920Y-126809620D01*
X71256120Y-98258820D02*
X71256120Y-126733420D01*
X71179920Y-126809620D02*
X71179920Y-126666420D01*
X71192620Y-126679120D02*
X71192620Y-145846920D01*
X71179920Y-126666420D02*
X71192620Y-126679120D01*
X71192620Y-160147120D02*
X75955120Y-164909620D01*
X71192620Y-145846920D02*
X71192620Y-160147120D01*
X75955120Y-181584720D02*
X78330020Y-183959620D01*
X75955120Y-164909620D02*
X75955120Y-181584720D01*
X78330020Y-217297120D02*
X73567520Y-222059620D01*
X78330020Y-183959620D02*
X78330020Y-217297120D01*
X71256120Y-91344520D02*
X71256120Y-98258820D01*
X72715120Y-89885520D02*
X71256120Y-91344520D01*
X252267720Y-97289620D02*
X252267720Y-90393520D01*
X251759720Y-89885520D02*
X72715120Y-89885520D01*
X252267720Y-90393520D02*
X251759720Y-89885520D01*
X256311120Y-101333020D02*
X252267720Y-97289620D01*
X256311120Y-105031820D02*
X256311120Y-101333020D01*
X261246620Y-120556020D02*
X249384820Y-120556020D01*
X248356120Y-119527320D02*
X248356120Y-112936020D01*
X249384820Y-120556020D02*
X248356120Y-119527320D01*
X128406120Y-126784220D02*
X128380720Y-126809620D01*
X128406120Y-98258820D02*
X128406120Y-126784220D01*
X128380720Y-126809620D02*
X128380720Y-145859620D01*
X128380720Y-155359220D02*
X118830320Y-164909620D01*
X128380720Y-145859620D02*
X128380720Y-155359220D01*
X118830320Y-179286020D02*
X123503920Y-183959620D01*
X118830320Y-164909620D02*
X118830320Y-179286020D01*
X123503920Y-193383020D02*
X133130520Y-203009620D01*
X123503920Y-183959620D02*
X123503920Y-193383020D01*
X133130520Y-210145835D02*
X121207128Y-222069227D01*
X133130520Y-203009620D02*
X133130520Y-210145835D01*
X130500120Y-91485720D02*
X128406120Y-93579720D01*
X250858020Y-91981020D02*
X250375420Y-91498420D01*
X250858020Y-98743053D02*
X250858020Y-91981020D01*
X128406120Y-93579720D02*
X128406120Y-98258820D01*
X167533320Y-91485720D02*
X130500120Y-91485720D01*
X249591210Y-100009863D02*
X250858020Y-98743053D01*
X167546020Y-91498420D02*
X167533320Y-91485720D01*
X250375420Y-91498420D02*
X167546020Y-91498420D01*
X249591210Y-103192677D02*
X249591210Y-100009863D01*
X253830353Y-107431820D02*
X249591210Y-103192677D01*
X255615420Y-107431820D02*
X253830353Y-107431820D01*
X90306120Y-126733420D02*
X90229920Y-126809620D01*
X90306120Y-98258820D02*
X90306120Y-126733420D01*
X90229920Y-126809620D02*
X90229920Y-145859620D01*
X90229920Y-195872220D02*
X83092520Y-203009620D01*
X90229920Y-145859620D02*
X90229920Y-195872220D01*
X83092520Y-203009620D02*
X83092520Y-215279020D01*
X89873120Y-222059620D02*
X97399524Y-222059620D01*
X83092520Y-215279020D02*
X89873120Y-222059620D01*
X90306120Y-91344520D02*
X90306120Y-98258820D01*
X91282520Y-90368120D02*
X90306120Y-91344520D01*
X251813710Y-90765010D02*
X251416820Y-90368120D01*
X251813710Y-97477677D02*
X251813710Y-90765010D01*
X254906130Y-100570096D02*
X251813710Y-97477677D01*
X254906130Y-104702792D02*
X254906130Y-100570096D01*
X255650820Y-105447482D02*
X254906130Y-104702792D01*
X251416820Y-90368120D02*
X91282520Y-90368120D01*
X255650820Y-105831820D02*
X255650820Y-105447482D01*
X109356120Y-126733420D02*
X109279920Y-126809620D01*
X109356120Y-98258820D02*
X109356120Y-126733420D01*
X109279920Y-145808820D02*
X109330720Y-145859620D01*
X109279920Y-126809620D02*
X109279920Y-145808820D01*
X109330720Y-155359220D02*
X99780320Y-164909620D01*
X109330720Y-145859620D02*
X109330720Y-155359220D01*
X99780320Y-179235220D02*
X104504720Y-183959620D01*
X99780320Y-164909620D02*
X99780320Y-179235220D01*
X104504720Y-193433820D02*
X114080520Y-203009620D01*
X104504720Y-183959620D02*
X104504720Y-193433820D01*
X256260520Y-106631820D02*
X253672420Y-106631820D01*
X253672420Y-106631820D02*
X250045220Y-103004620D01*
X250045220Y-103004620D02*
X250045220Y-100197920D01*
X250045220Y-100197920D02*
X251327920Y-98915220D01*
X109356120Y-92868520D02*
X109356120Y-98258820D01*
X251327920Y-98915220D02*
X251327920Y-91396820D01*
X250858020Y-90926920D02*
X111297720Y-90926920D01*
X251327920Y-91396820D02*
X250858020Y-90926920D01*
X111297720Y-90926920D02*
X109356120Y-92868520D01*
X147456120Y-126784220D02*
X147430720Y-126809620D01*
X147456120Y-98258820D02*
X147456120Y-126784220D01*
X147430720Y-126809620D02*
X147430720Y-145859620D01*
X147430720Y-155359220D02*
X137880320Y-164909620D01*
X147430720Y-145859620D02*
X147430720Y-155359220D01*
X137880320Y-179235220D02*
X142604720Y-183959620D01*
X137880320Y-164909620D02*
X137880320Y-179235220D01*
X142604720Y-193433820D02*
X152180520Y-203009620D01*
X142604720Y-183959620D02*
X142604720Y-193433820D01*
X147456120Y-93605120D02*
X147456120Y-98258820D01*
X149016720Y-92044520D02*
X147456120Y-93605120D01*
X246235220Y-92044520D02*
X149016720Y-92044520D01*
X247175020Y-92984320D02*
X246235220Y-92044520D01*
X247175020Y-96514920D02*
X247175020Y-92984320D01*
X249080020Y-98419920D02*
X247175020Y-96514920D01*
X249080020Y-103323553D02*
X249080020Y-98419920D01*
X253988287Y-108231820D02*
X249080020Y-103323553D01*
X256288420Y-108231820D02*
X253988287Y-108231820D01*
X166506120Y-126784220D02*
X166480720Y-126809620D01*
X166506120Y-98258820D02*
X166506120Y-126784220D01*
X166480720Y-126809620D02*
X166480720Y-145859620D01*
X166480720Y-155359220D02*
X156930320Y-164909620D01*
X166480720Y-145859620D02*
X166480720Y-155359220D01*
X156930320Y-179235220D02*
X161654720Y-183959620D01*
X156930320Y-164909620D02*
X156930320Y-179235220D01*
X161654720Y-193433820D02*
X171230520Y-203009620D01*
X161654720Y-183959620D02*
X161654720Y-193433820D01*
X253194820Y-110053120D02*
X253182120Y-110065820D01*
X241460020Y-110078520D02*
X238920020Y-107538520D01*
X238920020Y-107538520D02*
X238920020Y-93479620D01*
X238920020Y-93479620D02*
X238069120Y-92628720D01*
X238069120Y-92628720D02*
X168219120Y-92628720D01*
X166506120Y-94341720D02*
X166506120Y-98258820D01*
X168219120Y-92628720D02*
X166506120Y-94341720D01*
X245644420Y-110053120D02*
X245631720Y-110065820D01*
X253194820Y-110053120D02*
X245644420Y-110053120D01*
X253852120Y-110053120D02*
X253194820Y-110053120D01*
X254873420Y-109031820D02*
X253852120Y-110053120D01*
X185556120Y-126784220D02*
X185530720Y-126809620D01*
X185556120Y-98258820D02*
X185556120Y-126784220D01*
X185530720Y-126809620D02*
X185530720Y-145859620D01*
X185530720Y-155359220D02*
X175980320Y-164909620D01*
X185530720Y-145859620D02*
X185530720Y-155359220D01*
X175980320Y-179235220D02*
X180704720Y-183959620D01*
X175980320Y-164909620D02*
X175980320Y-179235220D01*
X180704720Y-193433820D02*
X190280520Y-203009620D01*
X180704720Y-183959620D02*
X180704720Y-193433820D01*
X190280520Y-219694100D02*
X192655647Y-222069227D01*
X190280520Y-203009620D02*
X190280520Y-219694100D01*
X240894335Y-111078523D02*
X238196120Y-108380308D01*
X241460020Y-111078523D02*
X240894335Y-111078523D01*
X238196120Y-108380308D02*
X238196120Y-94216220D01*
X238196120Y-94216220D02*
X237205520Y-93225620D01*
X237205520Y-93225620D02*
X186342020Y-93225620D01*
X185556120Y-94011520D02*
X185556120Y-98258820D01*
X186342020Y-93225620D02*
X185556120Y-94011520D01*
X254083024Y-111064282D02*
X245576250Y-111064282D01*
X255315486Y-109831820D02*
X254083024Y-111064282D01*
X255760920Y-109831820D02*
X255315486Y-109831820D01*
X204606120Y-126784220D02*
X204580720Y-126809620D01*
X204606120Y-98258820D02*
X204606120Y-126784220D01*
X204580720Y-126809620D02*
X204580720Y-145859620D01*
X204580720Y-155359220D02*
X195030320Y-164909620D01*
X204580720Y-145859620D02*
X204580720Y-155359220D01*
X195030320Y-179235220D02*
X199754720Y-183959620D01*
X195030320Y-164909620D02*
X195030320Y-179235220D01*
X199754720Y-193433820D02*
X209330520Y-203009620D01*
X199754720Y-183959620D02*
X199754720Y-193433820D01*
X240868788Y-112078199D02*
X237218220Y-108427631D01*
X241434473Y-112078199D02*
X240868788Y-112078199D01*
X237218220Y-108427631D02*
X237218220Y-94355920D01*
X237218220Y-94355920D02*
X236672120Y-93809820D01*
X236672120Y-93809820D02*
X205684120Y-93809820D01*
X204606120Y-94887820D02*
X204606120Y-98258820D01*
X205684120Y-93809820D02*
X204606120Y-94887820D01*
X254523912Y-112064128D02*
X245593922Y-112064128D01*
X255976120Y-110611920D02*
X254523912Y-112064128D01*
X256412520Y-110611920D02*
X256432420Y-110631820D01*
X255976120Y-110611920D02*
X256412520Y-110611920D01*
X223656120Y-126784220D02*
X223630720Y-126809620D01*
X223656120Y-98258820D02*
X223656120Y-126784220D01*
X223630720Y-126809620D02*
X223630720Y-145859620D01*
X223630720Y-155359220D02*
X214080320Y-164909620D01*
X223630720Y-145859620D02*
X223630720Y-155359220D01*
X214080320Y-179235220D02*
X218804720Y-183959620D01*
X214080320Y-164909620D02*
X214080320Y-179235220D01*
X218804720Y-193433820D02*
X228380520Y-203009620D01*
X218804720Y-183959620D02*
X218804720Y-193433820D01*
X266945320Y-117758420D02*
X266945320Y-121016820D01*
X266945320Y-121016820D02*
X266352020Y-121610120D01*
X241663220Y-121610120D02*
X240342420Y-120289320D01*
X240342420Y-120289320D02*
X240342420Y-113101120D01*
X240342420Y-113101120D02*
X236443520Y-109202220D01*
X236443520Y-109202220D02*
X236443520Y-95295720D01*
X235414619Y-94266819D02*
X224607321Y-94266819D01*
X236443520Y-95295720D02*
X235414619Y-94266819D01*
X223656120Y-95218020D02*
X223656120Y-98258820D01*
X224607321Y-94266819D02*
X223656120Y-95218020D01*
X257436620Y-121610120D02*
X245784120Y-121610120D01*
X266352020Y-121610120D02*
X257436620Y-121610120D01*
X242706120Y-126784220D02*
X242680720Y-126809620D01*
X242706120Y-98258820D02*
X242706120Y-126784220D01*
X242680720Y-126809620D02*
X242680720Y-145859620D01*
X242680720Y-155359220D02*
X233130320Y-164909620D01*
X242680720Y-145859620D02*
X242680720Y-155359220D01*
X233130320Y-179235220D02*
X237854720Y-183959620D01*
X233130320Y-164909620D02*
X233130320Y-179235220D01*
X237854720Y-193433820D02*
X247430520Y-203009620D01*
X237854720Y-183959620D02*
X237854720Y-193433820D01*
X243060220Y-95016320D02*
X242706120Y-95370420D01*
X244825520Y-96006920D02*
X243834920Y-95016320D01*
X244825520Y-98712020D02*
X244825520Y-96006920D01*
X243720620Y-99816920D02*
X244825520Y-98712020D01*
X243720620Y-121394220D02*
X243720620Y-99816920D01*
X244838220Y-122511820D02*
X243720620Y-121394220D01*
X242706120Y-95370420D02*
X242706120Y-98258820D01*
X266745720Y-122511820D02*
X244838220Y-122511820D01*
X243834920Y-95016320D02*
X243060220Y-95016320D01*
X267745320Y-121512220D02*
X266745720Y-122511820D01*
X267745320Y-118817120D02*
X267745320Y-121512220D01*
X261730720Y-126809620D02*
X261730720Y-145859620D01*
X252180320Y-158458982D02*
X252180320Y-164909620D01*
X261730720Y-148908582D02*
X252180320Y-158458982D01*
X261730720Y-145859620D02*
X261730720Y-148908582D01*
X252180320Y-179235220D02*
X256904720Y-183959620D01*
X252180320Y-164909620D02*
X252180320Y-179235220D01*
X256904720Y-193433820D02*
X266480520Y-203009620D01*
X256904720Y-183959620D02*
X256904720Y-193433820D01*
X266480520Y-217289480D02*
X261710380Y-222059620D01*
X266480520Y-203009620D02*
X266480520Y-217289480D01*
X268545320Y-121656058D02*
X265962358Y-124239020D01*
X268545320Y-117720120D02*
X268545320Y-121656058D01*
X264301320Y-124239020D02*
X261730720Y-126809620D01*
X265962358Y-124239020D02*
X264301320Y-124239020D01*
D15*
X259736300Y-89910920D02*
X259729460Y-89917760D01*
X265717020Y-89910920D02*
X259736300Y-89910920D01*
D14*
X299856120Y-126784220D02*
X299830720Y-126809620D01*
X299856120Y-98258820D02*
X299856120Y-126784220D01*
X299830720Y-126809620D02*
X299830720Y-145859620D01*
X299830720Y-155308420D02*
X290229520Y-164909620D01*
X299830720Y-145859620D02*
X299830720Y-155308420D01*
X290229520Y-179184420D02*
X295004720Y-183959620D01*
X290229520Y-164909620D02*
X290229520Y-179184420D01*
X296129719Y-218307819D02*
X299881520Y-222059620D01*
X296129719Y-185084619D02*
X296129719Y-218307819D01*
X295004720Y-183959620D02*
X296129719Y-185084619D01*
X293780320Y-120759220D02*
X299830720Y-126809620D01*
X293072820Y-120759220D02*
X293780320Y-120759220D01*
X270543020Y-120759220D02*
X289580320Y-120759220D01*
X269345320Y-119561520D02*
X270543020Y-120759220D01*
X269345320Y-118778820D02*
X269345320Y-119561520D01*
X287764220Y-116847620D02*
X275635720Y-116847620D01*
X275635720Y-108618020D01*
X275633280Y-108593244D01*
X275626053Y-108569419D01*
X275614317Y-108547463D01*
X275598523Y-108528217D01*
X275579277Y-108512423D01*
X275557321Y-108500687D01*
X275533496Y-108493460D01*
X275508202Y-108491021D01*
X272524220Y-108503201D01*
X272524220Y-106344720D01*
X275433292Y-106344720D01*
X275438163Y-106348717D01*
X275460119Y-106360453D01*
X275483944Y-106367680D01*
X275508720Y-106370120D01*
X275533496Y-106367680D01*
X275557321Y-106360453D01*
X275579277Y-106348717D01*
X275598523Y-106332923D01*
X275614317Y-106313677D01*
X275626053Y-106291721D01*
X275633280Y-106267896D01*
X275635720Y-106243120D01*
X275635720Y-104935020D01*
X287764220Y-104935020D01*
X287764220Y-116847620D01*
G04 #@! TA.AperFunction,Conductor*
D16*
G36*
X287764220Y-116847620D02*
G01*
X275635720Y-116847620D01*
X275635720Y-108618020D01*
X275633280Y-108593244D01*
X275626053Y-108569419D01*
X275614317Y-108547463D01*
X275598523Y-108528217D01*
X275579277Y-108512423D01*
X275557321Y-108500687D01*
X275533496Y-108493460D01*
X275508202Y-108491021D01*
X272524220Y-108503201D01*
X272524220Y-106344720D01*
X275433292Y-106344720D01*
X275438163Y-106348717D01*
X275460119Y-106360453D01*
X275483944Y-106367680D01*
X275508720Y-106370120D01*
X275533496Y-106367680D01*
X275557321Y-106360453D01*
X275579277Y-106348717D01*
X275598523Y-106332923D01*
X275614317Y-106313677D01*
X275626053Y-106291721D01*
X275633280Y-106267896D01*
X275635720Y-106243120D01*
X275635720Y-104935020D01*
X287764220Y-104935020D01*
X287764220Y-116847620D01*
G37*
G04 #@! TD.AperFunction*
M02*
