M48
INCH,TZ
T1C0.0157
T2C0.0236
T3C0.0579
%
G90
G05
T1
X95053Y-44125
X95063Y-43338
X95063Y-43732
X95143Y-47878
X96684Y-43726
X96691Y-44120
X96705Y-43333
X96765Y-47878
X97778Y-44463
X99788Y-39598
X99963Y-41553
X100344Y-42926
X100636Y-42296
X100650Y-41666
X100693Y-43241
X100853Y-39353
X100890Y-41981
X100901Y-42611
X100910Y-41351
X100958Y-43556
X102256Y-35401
X102853Y-47463
X104613Y-35398
X105097Y-46362
X105412Y-46778
X105727Y-46347
X106041Y-46763
X106288Y-38988
X106356Y-46361
X106673Y-46760
X106986Y-46363
X108988Y-40418
X109488Y-38683
X109758Y-44783
X113168Y-43903
X113173Y-44798
X114008Y-47543
X114253Y-46588
X114378Y-47257
X114788Y-46968
X115383Y-47543
X115933Y-46188
X116003Y-46788
X116028Y-47223
T3
X28024Y-49925
X28029Y-57420
X28054Y-38685
X28964Y-87425
X29904Y-64925
X30524Y-48925
X30529Y-56420
X30554Y-37685
X30839Y-72425
X31464Y-86425
X32404Y-63925
X32714Y-79925
X33339Y-71425
X35214Y-78925
X35524Y-49925
X35524Y-57425
X35554Y-38685
X38024Y-48925
X38024Y-56425
X38054Y-37685
X38346Y-87425
X39284Y-64925
X40846Y-86425
X41144Y-72425
X41784Y-63925
X43024Y-49925
X43044Y-57425
X43054Y-38685
X43644Y-71425
X44914Y-79925
X45524Y-48925
X45544Y-56425
X45554Y-37685
X46784Y-64925
X47414Y-78925
X47719Y-87429
X48624Y-72425
X49284Y-63925
X50219Y-86429
X50544Y-49925
X50544Y-57425
X50554Y-38685
X51124Y-71425
X52414Y-79925
X53044Y-48925
X53044Y-56425
X53054Y-37685
X54284Y-64925
X54914Y-78925
X56144Y-72425
X56784Y-63925
X58044Y-49925
X58044Y-57425
X58054Y-38685
X58644Y-71425
X59914Y-79925
X60544Y-48925
X60544Y-56425
X60554Y-37685
X61784Y-64925
X62414Y-78925
X63644Y-72425
X64284Y-63925
X65544Y-49925
X65544Y-57425
X65554Y-38685
X66144Y-71425
X67414Y-79925
X68044Y-48925
X68044Y-56425
X68054Y-37685
X69284Y-64925
X69914Y-78925
X71144Y-72425
X71784Y-63925
X73044Y-49925
X73044Y-57425
X73054Y-38685
X73644Y-71425
X74914Y-79925
X75544Y-48925
X75544Y-56425
X75554Y-37685
X75849Y-87429
X76784Y-64925
X77414Y-78925
X78349Y-86429
X78644Y-72425
X79284Y-63925
X80544Y-49925
X80544Y-57425
X80554Y-38685
X81144Y-71425
X82414Y-79925
X83044Y-48925
X83044Y-56425
X83054Y-37685
X84284Y-64925
X84914Y-78925
X86144Y-72425
X86784Y-63925
X88044Y-49925
X88044Y-57425
X88054Y-38685
X88644Y-71425
X89914Y-79925
X90544Y-48925
X90544Y-56425
X90554Y-37685
X91784Y-64925
X92414Y-78925
X93644Y-72425
X94284Y-63925
X95544Y-49925
X95544Y-57425
X95554Y-38685
X96144Y-71425
X97414Y-79925
X98044Y-48925
X98044Y-56425
X98054Y-37685
X99284Y-64925
X99914Y-78925
X101144Y-72425
X101784Y-63925
X103036Y-87425
X103044Y-49925
X103044Y-57425
X103644Y-71425
X104914Y-79925
X105536Y-86425
X105544Y-48925
X105544Y-56425
X106764Y-64925
X107414Y-78925
X108644Y-72425
X109264Y-63925
X110544Y-49925
X110544Y-57425
X110564Y-87425
X110577Y-38685
X111144Y-71425
X112414Y-79925
X113044Y-48925
X113044Y-56425
X113064Y-86425
X113077Y-37685
X114264Y-64925
X114914Y-78925
X116144Y-72425
X116764Y-63925
X118044Y-49925
X118044Y-57425
X118054Y-38685
X118064Y-87425
X118644Y-71425
X120544Y-48925
X120544Y-56425
X120554Y-37685
X120564Y-86425
X121764Y-64925
X122739Y-79925
X124264Y-63925
X125239Y-78925
X125554Y-38685
X125564Y-49925
X125564Y-87425
X128054Y-37685
X128064Y-48925
X128064Y-86425
X128344Y-72425
X129304Y-57425
X130844Y-71425
X131134Y-64925
X131804Y-56425
X133044Y-49925
X133054Y-38685
X133064Y-79925
X133064Y-87425
X133634Y-63925
X135544Y-48925
X135554Y-37685
X135564Y-78925
X135564Y-86425
X140554Y-38685
X140564Y-49925
X140564Y-57425
X140564Y-64925
X140564Y-72425
X140564Y-79925
X140564Y-87425
X143054Y-37685
X143064Y-48925
X143064Y-56425
X143064Y-63925
X143064Y-71425
X143064Y-78925
X143064Y-86425
T2
G00X101685Y-32676
M15
G01X101685Y-32912
M16
G05
G00X101685Y-34223
M15
G01X101685Y-34656
M16
G05
G00X105087Y-32676
M15
G01X105087Y-32912
M16
G05
G00X105087Y-34223
M15
G01X105087Y-34656
M16
G05
T0
M30
