G04 #@! TF.GenerationSoftware,KiCad,Pcbnew,(5.1.9-0-10_14)*
G04 #@! TF.CreationDate,2021-04-15T17:38:18+09:00*
G04 #@! TF.ProjectId,JupiterAdvanced,4a757069-7465-4724-9164-76616e636564,1*
G04 #@! TF.SameCoordinates,Original*
G04 #@! TF.FileFunction,Soldermask,Top*
G04 #@! TF.FilePolarity,Negative*
%FSLAX46Y46*%
G04 Gerber Fmt 4.6, Leading zero omitted, Abs format (unit mm)*
G04 Created by KiCad (PCBNEW (5.1.9-0-10_14)) date 2021-04-15 17:38:18*
%MOMM*%
%LPD*%
G01*
G04 APERTURE LIST*
%ADD10C,2.500000*%
%ADD11C,3.987800*%
%ADD12C,1.750000*%
%ADD13C,0.650000*%
%ADD14O,1.000000X2.100000*%
%ADD15O,1.000000X1.600000*%
%ADD16C,3.048000*%
G04 APERTURE END LIST*
D10*
X312325000Y-182475000D03*
X95325000Y-179475000D03*
X65325000Y-239475000D03*
X370325000Y-239475000D03*
X370325000Y-85475000D03*
X64325000Y-85475000D03*
D11*
X336889320Y-167449620D03*
D12*
X331809320Y-167449620D03*
X341969320Y-167449620D03*
D11*
X360816120Y-100798820D03*
D12*
X355736120Y-100798820D03*
X365896120Y-100798820D03*
D13*
X265490240Y-86945980D03*
X259710240Y-86945980D03*
D14*
X258280240Y-87475980D03*
X266920240Y-87475980D03*
D15*
X258280240Y-83295980D03*
X266920240Y-83295980D03*
D11*
X75002620Y-148386920D03*
D12*
X69922620Y-148386920D03*
X80082620Y-148386920D03*
D11*
X79765120Y-167449620D03*
D12*
X74685120Y-167449620D03*
X84845120Y-167449620D03*
D11*
X196465647Y-224609227D03*
D12*
X191385647Y-224609227D03*
X201545647Y-224609227D03*
D16*
X146465747Y-217624227D03*
X246465547Y-217624227D03*
D11*
X146465747Y-232864227D03*
X246465547Y-232864227D03*
X315566020Y-205549620D03*
D12*
X310486020Y-205549620D03*
X320646020Y-205549620D03*
D11*
X303691520Y-224599620D03*
D12*
X298611520Y-224599620D03*
X308771520Y-224599620D03*
D11*
X313089520Y-167449620D03*
D12*
X308009520Y-167449620D03*
X318169520Y-167449620D03*
D11*
X265520380Y-224599620D03*
D12*
X260440380Y-224599620D03*
X270600380Y-224599620D03*
D11*
X298814720Y-186499620D03*
D12*
X293734720Y-186499620D03*
X303894720Y-186499620D03*
D11*
X289340520Y-205549620D03*
D12*
X284260520Y-205549620D03*
X294420520Y-205549620D03*
D11*
X322741520Y-129349620D03*
D12*
X317661520Y-129349620D03*
X327821520Y-129349620D03*
D11*
X303640720Y-148399620D03*
D12*
X298560720Y-148399620D03*
X308720720Y-148399620D03*
D11*
X360841520Y-167449620D03*
D12*
X355761520Y-167449620D03*
X365921520Y-167449620D03*
D11*
X360841520Y-186499620D03*
D12*
X355761520Y-186499620D03*
X365921520Y-186499620D03*
D11*
X341740720Y-129349620D03*
D12*
X336660720Y-129349620D03*
X346820720Y-129349620D03*
D11*
X117890520Y-205549620D03*
D12*
X112810520Y-205549620D03*
X122970520Y-205549620D03*
D11*
X198840320Y-167449620D03*
D12*
X193760320Y-167449620D03*
X203920320Y-167449620D03*
D11*
X136940520Y-205549620D03*
D12*
X131860520Y-205549620D03*
X142020520Y-205549620D03*
D11*
X122640320Y-167449620D03*
D12*
X117560320Y-167449620D03*
X127720320Y-167449620D03*
D11*
X175040520Y-205549620D03*
D12*
X169960520Y-205549620D03*
X180120520Y-205549620D03*
D11*
X217890320Y-167449620D03*
D12*
X212810320Y-167449620D03*
X222970320Y-167449620D03*
D11*
X179790320Y-167449620D03*
D12*
X174710320Y-167449620D03*
X184870320Y-167449620D03*
D11*
X341766120Y-100798820D03*
D12*
X336686120Y-100798820D03*
X346846120Y-100798820D03*
D11*
X322716120Y-100798820D03*
D12*
X317636120Y-100798820D03*
X327796120Y-100798820D03*
D11*
X303666120Y-100798820D03*
D12*
X298586120Y-100798820D03*
X308746120Y-100798820D03*
D11*
X284675320Y-100798820D03*
D12*
X279595320Y-100798820D03*
X289755320Y-100798820D03*
D11*
X246516120Y-100798820D03*
D12*
X241436120Y-100798820D03*
X251596120Y-100798820D03*
D11*
X227466120Y-100798820D03*
D12*
X222386120Y-100798820D03*
X232546120Y-100798820D03*
D11*
X208416120Y-100798820D03*
D12*
X203336120Y-100798820D03*
X213496120Y-100798820D03*
D11*
X189366120Y-100798820D03*
D12*
X184286120Y-100798820D03*
X194446120Y-100798820D03*
D11*
X170316120Y-100798820D03*
D12*
X165236120Y-100798820D03*
X175396120Y-100798820D03*
D11*
X151266120Y-100798820D03*
D12*
X146186120Y-100798820D03*
X156346120Y-100798820D03*
D11*
X132216120Y-100798820D03*
D12*
X127136120Y-100798820D03*
X137296120Y-100798820D03*
D11*
X113166120Y-100798820D03*
D12*
X108086120Y-100798820D03*
X118246120Y-100798820D03*
D11*
X94116120Y-100798820D03*
D12*
X89036120Y-100798820D03*
X99196120Y-100798820D03*
D11*
X75066120Y-100798820D03*
D12*
X69986120Y-100798820D03*
X80146120Y-100798820D03*
D11*
X127313920Y-186499620D03*
D12*
X122233920Y-186499620D03*
X132393920Y-186499620D03*
D11*
X160740320Y-167449620D03*
D12*
X155660320Y-167449620D03*
X165820320Y-167449620D03*
D11*
X103590320Y-167449620D03*
D12*
X98510320Y-167449620D03*
X108670320Y-167449620D03*
D11*
X274989520Y-167449620D03*
D12*
X269909520Y-167449620D03*
X280069520Y-167449620D03*
D11*
X255990320Y-167449620D03*
D12*
X250910320Y-167449620D03*
X261070320Y-167449620D03*
D11*
X213140520Y-205549620D03*
D12*
X208060520Y-205549620D03*
X218220520Y-205549620D03*
D11*
X232190520Y-205549620D03*
D12*
X227110520Y-205549620D03*
X237270520Y-205549620D03*
D11*
X260714720Y-186499620D03*
D12*
X255634720Y-186499620D03*
X265794720Y-186499620D03*
D11*
X241664720Y-186499620D03*
D12*
X236584720Y-186499620D03*
X246744720Y-186499620D03*
D11*
X222614720Y-186499620D03*
D12*
X217534720Y-186499620D03*
X227694720Y-186499620D03*
D11*
X236940320Y-167449620D03*
D12*
X231860320Y-167449620D03*
X242020320Y-167449620D03*
D11*
X203564720Y-186499620D03*
D12*
X198484720Y-186499620D03*
X208644720Y-186499620D03*
D11*
X184514720Y-186499620D03*
D12*
X179434720Y-186499620D03*
X189594720Y-186499620D03*
D11*
X284590720Y-129349620D03*
D12*
X279510720Y-129349620D03*
X289670720Y-129349620D03*
D11*
X165464720Y-186499620D03*
D12*
X160384720Y-186499620D03*
X170544720Y-186499620D03*
D11*
X141690320Y-167449620D03*
D12*
X136610320Y-167449620D03*
X146770320Y-167449620D03*
D11*
X146414720Y-186499620D03*
D12*
X141334720Y-186499620D03*
X151494720Y-186499620D03*
D11*
X155990520Y-205549620D03*
D12*
X150910520Y-205549620D03*
X161070520Y-205549620D03*
D11*
X194090520Y-205549620D03*
D12*
X189010520Y-205549620D03*
X199170520Y-205549620D03*
D11*
X108314720Y-186499620D03*
D12*
X103234720Y-186499620D03*
X113394720Y-186499620D03*
D11*
X246490720Y-148399620D03*
D12*
X241410720Y-148399620D03*
X251570720Y-148399620D03*
D11*
X227440720Y-148399620D03*
D12*
X222360720Y-148399620D03*
X232520720Y-148399620D03*
D11*
X208390720Y-148399620D03*
D12*
X203310720Y-148399620D03*
X213470720Y-148399620D03*
D11*
X189340720Y-148399620D03*
D12*
X184260720Y-148399620D03*
X194420720Y-148399620D03*
D11*
X170290720Y-148399620D03*
D12*
X165210720Y-148399620D03*
X175370720Y-148399620D03*
D11*
X151240720Y-148399620D03*
D12*
X146160720Y-148399620D03*
X156320720Y-148399620D03*
D11*
X132190720Y-148399620D03*
D12*
X127110720Y-148399620D03*
X137270720Y-148399620D03*
D11*
X113140720Y-148399620D03*
D12*
X108060720Y-148399620D03*
X118220720Y-148399620D03*
D11*
X94039920Y-148399620D03*
D12*
X88959920Y-148399620D03*
X99119920Y-148399620D03*
D11*
X265540720Y-148399620D03*
D12*
X260460720Y-148399620D03*
X270620720Y-148399620D03*
D11*
X251240520Y-205549620D03*
D12*
X246160520Y-205549620D03*
X256320520Y-205549620D03*
D11*
X86902520Y-205549620D03*
D12*
X81822520Y-205549620D03*
X91982520Y-205549620D03*
D16*
X74996270Y-198564620D03*
X98808770Y-198564620D03*
D11*
X74996270Y-213804620D03*
X98808770Y-213804620D03*
X101209524Y-224599620D03*
D12*
X96129524Y-224599620D03*
X106289524Y-224599620D03*
D11*
X77377520Y-224599620D03*
D12*
X72297520Y-224599620D03*
X82457520Y-224599620D03*
D11*
X294039520Y-167449620D03*
D12*
X288959520Y-167449620D03*
X299119520Y-167449620D03*
D11*
X125017128Y-224609227D03*
D12*
X119937128Y-224609227D03*
X130097128Y-224609227D03*
D11*
X284590720Y-148399620D03*
D12*
X279510720Y-148399620D03*
X289670720Y-148399620D03*
D11*
X360841520Y-148399620D03*
D12*
X355761520Y-148399620D03*
X365921520Y-148399620D03*
X275370520Y-205549620D03*
X265210520Y-205549620D03*
D11*
X270290520Y-205549620D03*
X284641520Y-224599620D03*
D12*
X279561520Y-224599620D03*
X289721520Y-224599620D03*
D11*
X303640720Y-129349620D03*
D12*
X298560720Y-129349620D03*
X308720720Y-129349620D03*
D11*
X265540720Y-129349620D03*
D12*
X260460720Y-129349620D03*
X270620720Y-129349620D03*
D11*
X246490720Y-129349620D03*
D12*
X241410720Y-129349620D03*
X251570720Y-129349620D03*
D11*
X227440720Y-129349620D03*
D12*
X222360720Y-129349620D03*
X232520720Y-129349620D03*
D11*
X208390720Y-129349620D03*
D12*
X203310720Y-129349620D03*
X213470720Y-129349620D03*
D11*
X189340720Y-129349620D03*
D12*
X184260720Y-129349620D03*
X194420720Y-129349620D03*
D11*
X170290720Y-129349620D03*
D12*
X165210720Y-129349620D03*
X175370720Y-129349620D03*
D11*
X151240720Y-129349620D03*
D12*
X146160720Y-129349620D03*
X156320720Y-129349620D03*
D11*
X132190720Y-129349620D03*
D12*
X127110720Y-129349620D03*
X137270720Y-129349620D03*
D11*
X113089920Y-129349620D03*
D12*
X108009920Y-129349620D03*
X118169920Y-129349620D03*
D11*
X94039920Y-129349620D03*
D12*
X88959920Y-129349620D03*
X99119920Y-129349620D03*
D11*
X74989920Y-129349620D03*
D12*
X69909920Y-129349620D03*
X80069920Y-129349620D03*
D11*
X329802720Y-186499620D03*
D12*
X324722720Y-186499620D03*
X334882720Y-186499620D03*
D16*
X317896470Y-179514620D03*
X341708970Y-179514620D03*
D11*
X317896470Y-194754620D03*
X341708970Y-194754620D03*
X360841520Y-205549620D03*
D12*
X355761520Y-205549620D03*
X365921520Y-205549620D03*
D11*
X360841520Y-129349620D03*
D12*
X355761520Y-129349620D03*
X365921520Y-129349620D03*
D11*
X82140020Y-186499620D03*
D12*
X77060020Y-186499620D03*
X87220020Y-186499620D03*
D11*
X279764720Y-186499620D03*
D12*
X274684720Y-186499620D03*
X284844720Y-186499620D03*
D11*
X332241120Y-148399620D03*
D12*
X327161120Y-148399620D03*
X337321120Y-148399620D03*
D16*
X320334870Y-141414620D03*
X344147370Y-141414620D03*
D11*
X320334870Y-156654620D03*
X344147370Y-156654620D03*
X341791520Y-205549620D03*
D12*
X336711520Y-205549620D03*
X346871520Y-205549620D03*
D11*
X360841520Y-224599620D03*
D12*
X355761520Y-224599620D03*
X365921520Y-224599620D03*
D11*
X322741520Y-224599620D03*
D12*
X317661520Y-224599620D03*
X327821520Y-224599620D03*
D11*
X341791520Y-224599620D03*
D12*
X336711520Y-224599620D03*
X346871520Y-224599620D03*
M02*
