G04 #@! TF.GenerationSoftware,KiCad,Pcbnew,(5.1.9-0-10_14)*
G04 #@! TF.CreationDate,2021-05-12T14:40:02+09:00*
G04 #@! TF.ProjectId,JupiterAdvanced,4a757069-7465-4724-9164-76616e636564,1*
G04 #@! TF.SameCoordinates,Original*
G04 #@! TF.FileFunction,Legend,Bot*
G04 #@! TF.FilePolarity,Positive*
%FSLAX46Y46*%
G04 Gerber Fmt 4.6, Leading zero omitted, Abs format (unit mm)*
G04 Created by KiCad (PCBNEW (5.1.9-0-10_14)) date 2021-05-12 14:40:02*
%MOMM*%
%LPD*%
G01*
G04 APERTURE LIST*
%ADD10C,0.200000*%
%ADD11C,0.120000*%
%ADD12C,0.150000*%
%ADD13R,0.700000X0.600000*%
%ADD14R,1.500000X0.550000*%
%ADD15R,0.550000X1.500000*%
%ADD16C,2.500000*%
%ADD17C,1.750000*%
%ADD18C,2.250000*%
%ADD19C,3.987800*%
%ADD20R,1.200000X1.400000*%
%ADD21O,1.000000X1.600000*%
%ADD22O,1.000000X2.100000*%
%ADD23C,0.650000*%
%ADD24R,0.300000X1.450000*%
%ADD25R,0.600000X1.450000*%
%ADD26R,0.700000X1.000000*%
%ADD27C,3.048000*%
%ADD28R,1.200000X0.900000*%
G04 APERTURE END LIST*
D10*
X286252920Y-83019900D02*
X286252920Y-87319900D01*
X286252920Y-87323820D02*
X279752920Y-87323820D01*
X279755600Y-83019900D02*
X279755600Y-87319900D01*
X286255600Y-83019900D02*
X279755600Y-83019900D01*
D11*
X272022742Y-88385000D02*
X270352258Y-88385000D01*
X272022742Y-86565000D02*
X270352258Y-86565000D01*
D12*
X260550000Y-103300000D02*
X261125000Y-103300000D01*
X260550000Y-113650000D02*
X261225000Y-113650000D01*
X270900000Y-113650000D02*
X270225000Y-113650000D01*
X270900000Y-103300000D02*
X270225000Y-103300000D01*
X260550000Y-103300000D02*
X260550000Y-103975000D01*
X270900000Y-103300000D02*
X270900000Y-103975000D01*
X270900000Y-113650000D02*
X270900000Y-112975000D01*
X260550000Y-113650000D02*
X260550000Y-112975000D01*
X261125000Y-103300000D02*
X261125000Y-102025000D01*
D11*
X260587420Y-97467158D02*
X260587420Y-96950002D01*
X262007420Y-97467158D02*
X262007420Y-96950002D01*
X263107100Y-97467158D02*
X263107100Y-96950002D01*
X264527100Y-97467158D02*
X264527100Y-96950002D01*
X282999100Y-114659520D02*
X279699100Y-114659520D01*
X279699100Y-114659520D02*
X279699100Y-110659520D01*
D12*
X261881860Y-90805340D02*
X261881860Y-93705340D01*
X261881860Y-90805340D02*
X263181860Y-90805340D01*
X263181860Y-90805340D02*
X263181860Y-93705340D01*
X263181860Y-93705340D02*
X261881860Y-93705340D01*
D11*
X278850020Y-90784942D02*
X278850020Y-91302098D01*
X280270020Y-90784942D02*
X280270020Y-91302098D01*
X260128922Y-117485000D02*
X260646078Y-117485000D01*
X260128922Y-116065000D02*
X260646078Y-116065000D01*
X255868698Y-91296420D02*
X255351542Y-91296420D01*
X255868698Y-92716420D02*
X255351542Y-92716420D01*
X269355042Y-92716420D02*
X269872198Y-92716420D01*
X269355042Y-91296420D02*
X269872198Y-91296420D01*
X256365420Y-97447184D02*
X256365420Y-96243056D01*
X254545420Y-97447184D02*
X254545420Y-96243056D01*
X366007120Y-232691620D02*
X364007120Y-232691620D01*
X364007120Y-232691620D02*
X364007120Y-228791620D01*
X366007120Y-232691620D02*
X366007120Y-228791620D01*
X366007120Y-213641620D02*
X364007120Y-213641620D01*
X364007120Y-213641620D02*
X364007120Y-209741620D01*
X366007120Y-213641620D02*
X366007120Y-209741620D01*
X366007120Y-194591620D02*
X364007120Y-194591620D01*
X364007120Y-194591620D02*
X364007120Y-190691620D01*
X366007120Y-194591620D02*
X366007120Y-190691620D01*
X366007120Y-175541620D02*
X364007120Y-175541620D01*
X364007120Y-175541620D02*
X364007120Y-171641620D01*
X366007120Y-175541620D02*
X366007120Y-171641620D01*
X366007120Y-156491620D02*
X364007120Y-156491620D01*
X364007120Y-156491620D02*
X364007120Y-152591620D01*
X366007120Y-156491620D02*
X366007120Y-152591620D01*
X366007120Y-137441620D02*
X364007120Y-137441620D01*
X364007120Y-137441620D02*
X364007120Y-133541620D01*
X366007120Y-137441620D02*
X366007120Y-133541620D01*
X366032520Y-109144820D02*
X364032520Y-109144820D01*
X364032520Y-109144820D02*
X364032520Y-105244820D01*
X366032520Y-109144820D02*
X366032520Y-105244820D01*
X346957120Y-232691620D02*
X344957120Y-232691620D01*
X344957120Y-232691620D02*
X344957120Y-228791620D01*
X346957120Y-232691620D02*
X346957120Y-228791620D01*
X346957120Y-213641620D02*
X344957120Y-213641620D01*
X344957120Y-213641620D02*
X344957120Y-209741620D01*
X346957120Y-213641620D02*
X346957120Y-209741620D01*
X341877120Y-175541620D02*
X339877120Y-175541620D01*
X339877120Y-175541620D02*
X339877120Y-171641620D01*
X341877120Y-175541620D02*
X341877120Y-171641620D01*
X336797120Y-156491620D02*
X334797120Y-156491620D01*
X334797120Y-156491620D02*
X334797120Y-152591620D01*
X336797120Y-156491620D02*
X336797120Y-152591620D01*
X346957120Y-137441620D02*
X344957120Y-137441620D01*
X344957120Y-137441620D02*
X344957120Y-133541620D01*
X346957120Y-137441620D02*
X346957120Y-133541620D01*
X346982520Y-109144820D02*
X344982520Y-109144820D01*
X344982520Y-109144820D02*
X344982520Y-105244820D01*
X346982520Y-109144820D02*
X346982520Y-105244820D01*
X327907120Y-232691620D02*
X325907120Y-232691620D01*
X325907120Y-232691620D02*
X325907120Y-228791620D01*
X327907120Y-232691620D02*
X327907120Y-228791620D01*
X320287120Y-213641620D02*
X318287120Y-213641620D01*
X318287120Y-213641620D02*
X318287120Y-209741620D01*
X320287120Y-213641620D02*
X320287120Y-209741620D01*
X334257120Y-194591620D02*
X332257120Y-194591620D01*
X332257120Y-194591620D02*
X332257120Y-190691620D01*
X334257120Y-194591620D02*
X334257120Y-190691620D01*
X317747120Y-175541620D02*
X315747120Y-175541620D01*
X315747120Y-175541620D02*
X315747120Y-171641620D01*
X317747120Y-175541620D02*
X317747120Y-171641620D01*
X327907120Y-137441620D02*
X325907120Y-137441620D01*
X325907120Y-137441620D02*
X325907120Y-133541620D01*
X327907120Y-137441620D02*
X327907120Y-133541620D01*
X327932520Y-109144820D02*
X325932520Y-109144820D01*
X325932520Y-109144820D02*
X325932520Y-105244820D01*
X327932520Y-109144820D02*
X327932520Y-105244820D01*
X308857120Y-232691620D02*
X306857120Y-232691620D01*
X306857120Y-232691620D02*
X306857120Y-228791620D01*
X308857120Y-232691620D02*
X308857120Y-228791620D01*
X303777120Y-194591620D02*
X301777120Y-194591620D01*
X301777120Y-194591620D02*
X301777120Y-190691620D01*
X303777120Y-194591620D02*
X303777120Y-190691620D01*
X298697120Y-175541620D02*
X296697120Y-175541620D01*
X296697120Y-175541620D02*
X296697120Y-171641620D01*
X298697120Y-175541620D02*
X298697120Y-171641620D01*
X308857120Y-156491620D02*
X306857120Y-156491620D01*
X306857120Y-156491620D02*
X306857120Y-152591620D01*
X308857120Y-156491620D02*
X308857120Y-152591620D01*
X308857120Y-137441620D02*
X306857120Y-137441620D01*
X306857120Y-137441620D02*
X306857120Y-133541620D01*
X308857120Y-137441620D02*
X308857120Y-133541620D01*
X308882520Y-109144820D02*
X306882520Y-109144820D01*
X306882520Y-109144820D02*
X306882520Y-105244820D01*
X308882520Y-109144820D02*
X308882520Y-105244820D01*
X289807120Y-232691620D02*
X287807120Y-232691620D01*
X287807120Y-232691620D02*
X287807120Y-228791620D01*
X289807120Y-232691620D02*
X289807120Y-228791620D01*
X294887120Y-213641620D02*
X292887120Y-213641620D01*
X292887120Y-213641620D02*
X292887120Y-209741620D01*
X294887120Y-213641620D02*
X294887120Y-209741620D01*
X284727120Y-194591620D02*
X282727120Y-194591620D01*
X282727120Y-194591620D02*
X282727120Y-190691620D01*
X284727120Y-194591620D02*
X284727120Y-190691620D01*
X279647120Y-175541620D02*
X277647120Y-175541620D01*
X277647120Y-175541620D02*
X277647120Y-171641620D01*
X279647120Y-175541620D02*
X279647120Y-171641620D01*
X289807120Y-156491620D02*
X287807120Y-156491620D01*
X287807120Y-156491620D02*
X287807120Y-152591620D01*
X289807120Y-156491620D02*
X289807120Y-152591620D01*
X289807120Y-137441620D02*
X287807120Y-137441620D01*
X287807120Y-137441620D02*
X287807120Y-133541620D01*
X289807120Y-137441620D02*
X289807120Y-133541620D01*
X292085020Y-108963020D02*
X290085020Y-108963020D01*
X290085020Y-108963020D02*
X290085020Y-105063020D01*
X292085020Y-108963020D02*
X292085020Y-105063020D01*
X270757120Y-232691620D02*
X268757120Y-232691620D01*
X268757120Y-232691620D02*
X268757120Y-228791620D01*
X270757120Y-232691620D02*
X270757120Y-228791620D01*
X275837120Y-213641620D02*
X273837120Y-213641620D01*
X273837120Y-213641620D02*
X273837120Y-209741620D01*
X275837120Y-213641620D02*
X275837120Y-209741620D01*
X265677120Y-194591620D02*
X263677120Y-194591620D01*
X263677120Y-194591620D02*
X263677120Y-190691620D01*
X265677120Y-194591620D02*
X265677120Y-190691620D01*
X260597120Y-175541620D02*
X258597120Y-175541620D01*
X258597120Y-175541620D02*
X258597120Y-171641620D01*
X260597120Y-175541620D02*
X260597120Y-171641620D01*
X270757120Y-156491620D02*
X268757120Y-156491620D01*
X268757120Y-156491620D02*
X268757120Y-152591620D01*
X270757120Y-156491620D02*
X270757120Y-152591620D01*
X270757120Y-137441620D02*
X268757120Y-137441620D01*
X268757120Y-137441620D02*
X268757120Y-133541620D01*
X270757120Y-137441620D02*
X270757120Y-133541620D01*
X256787120Y-213641620D02*
X254787120Y-213641620D01*
X254787120Y-213641620D02*
X254787120Y-209741620D01*
X256787120Y-213641620D02*
X256787120Y-209741620D01*
X246627120Y-194591620D02*
X244627120Y-194591620D01*
X244627120Y-194591620D02*
X244627120Y-190691620D01*
X246627120Y-194591620D02*
X246627120Y-190691620D01*
X241547120Y-175541620D02*
X239547120Y-175541620D01*
X239547120Y-175541620D02*
X239547120Y-171641620D01*
X241547120Y-175541620D02*
X241547120Y-171641620D01*
X251707120Y-156491620D02*
X249707120Y-156491620D01*
X249707120Y-156491620D02*
X249707120Y-152591620D01*
X251707120Y-156491620D02*
X251707120Y-152591620D01*
X251707120Y-137441620D02*
X249707120Y-137441620D01*
X249707120Y-137441620D02*
X249707120Y-133541620D01*
X251707120Y-137441620D02*
X251707120Y-133541620D01*
X249330720Y-111747860D02*
X247330720Y-111747860D01*
X247330720Y-111747860D02*
X247330720Y-107847860D01*
X249330720Y-111747860D02*
X249330720Y-107847860D01*
X237737120Y-213641620D02*
X235737120Y-213641620D01*
X235737120Y-213641620D02*
X235737120Y-209741620D01*
X237737120Y-213641620D02*
X237737120Y-209741620D01*
X227577120Y-194591620D02*
X225577120Y-194591620D01*
X225577120Y-194591620D02*
X225577120Y-190691620D01*
X227577120Y-194591620D02*
X227577120Y-190691620D01*
X222497120Y-175541620D02*
X220497120Y-175541620D01*
X220497120Y-175541620D02*
X220497120Y-171641620D01*
X222497120Y-175541620D02*
X222497120Y-171641620D01*
X232657120Y-156491620D02*
X230657120Y-156491620D01*
X230657120Y-156491620D02*
X230657120Y-152591620D01*
X232657120Y-156491620D02*
X232657120Y-152591620D01*
X232657120Y-137441620D02*
X230657120Y-137441620D01*
X230657120Y-137441620D02*
X230657120Y-133541620D01*
X232657120Y-137441620D02*
X232657120Y-133541620D01*
X232682520Y-109144820D02*
X230682520Y-109144820D01*
X230682520Y-109144820D02*
X230682520Y-105244820D01*
X232682520Y-109144820D02*
X232682520Y-105244820D01*
X218687120Y-213641620D02*
X216687120Y-213641620D01*
X216687120Y-213641620D02*
X216687120Y-209741620D01*
X218687120Y-213641620D02*
X218687120Y-209741620D01*
X208527120Y-194591620D02*
X206527120Y-194591620D01*
X206527120Y-194591620D02*
X206527120Y-190691620D01*
X208527120Y-194591620D02*
X208527120Y-190691620D01*
X203447120Y-175541620D02*
X201447120Y-175541620D01*
X201447120Y-175541620D02*
X201447120Y-171641620D01*
X203447120Y-175541620D02*
X203447120Y-171641620D01*
X213607120Y-156491620D02*
X211607120Y-156491620D01*
X211607120Y-156491620D02*
X211607120Y-152591620D01*
X213607120Y-156491620D02*
X213607120Y-152591620D01*
X213607120Y-137441620D02*
X211607120Y-137441620D01*
X211607120Y-137441620D02*
X211607120Y-133541620D01*
X213607120Y-137441620D02*
X213607120Y-133541620D01*
X213632520Y-109144820D02*
X211632520Y-109144820D01*
X211632520Y-109144820D02*
X211632520Y-105244820D01*
X213632520Y-109144820D02*
X213632520Y-105244820D01*
X200907120Y-232691620D02*
X198907120Y-232691620D01*
X198907120Y-232691620D02*
X198907120Y-228791620D01*
X200907120Y-232691620D02*
X200907120Y-228791620D01*
X199637120Y-213641620D02*
X197637120Y-213641620D01*
X197637120Y-213641620D02*
X197637120Y-209741620D01*
X199637120Y-213641620D02*
X199637120Y-209741620D01*
X189477120Y-194591620D02*
X187477120Y-194591620D01*
X187477120Y-194591620D02*
X187477120Y-190691620D01*
X189477120Y-194591620D02*
X189477120Y-190691620D01*
X184397120Y-175541620D02*
X182397120Y-175541620D01*
X182397120Y-175541620D02*
X182397120Y-171641620D01*
X184397120Y-175541620D02*
X184397120Y-171641620D01*
X194557120Y-156491620D02*
X192557120Y-156491620D01*
X192557120Y-156491620D02*
X192557120Y-152591620D01*
X194557120Y-156491620D02*
X194557120Y-152591620D01*
X194557120Y-137441620D02*
X192557120Y-137441620D01*
X192557120Y-137441620D02*
X192557120Y-133541620D01*
X194557120Y-137441620D02*
X194557120Y-133541620D01*
X194582520Y-109144820D02*
X192582520Y-109144820D01*
X192582520Y-109144820D02*
X192582520Y-105244820D01*
X194582520Y-109144820D02*
X194582520Y-105244820D01*
X180587120Y-213641620D02*
X178587120Y-213641620D01*
X178587120Y-213641620D02*
X178587120Y-209741620D01*
X180587120Y-213641620D02*
X180587120Y-209741620D01*
X170427120Y-194591620D02*
X168427120Y-194591620D01*
X168427120Y-194591620D02*
X168427120Y-190691620D01*
X170427120Y-194591620D02*
X170427120Y-190691620D01*
X165347120Y-175541620D02*
X163347120Y-175541620D01*
X163347120Y-175541620D02*
X163347120Y-171641620D01*
X165347120Y-175541620D02*
X165347120Y-171641620D01*
X175507120Y-156491620D02*
X173507120Y-156491620D01*
X173507120Y-156491620D02*
X173507120Y-152591620D01*
X175507120Y-156491620D02*
X175507120Y-152591620D01*
X175507120Y-137441620D02*
X173507120Y-137441620D01*
X173507120Y-137441620D02*
X173507120Y-133541620D01*
X175507120Y-137441620D02*
X175507120Y-133541620D01*
X175532520Y-109144820D02*
X173532520Y-109144820D01*
X173532520Y-109144820D02*
X173532520Y-105244820D01*
X175532520Y-109144820D02*
X175532520Y-105244820D01*
X161537120Y-213641620D02*
X159537120Y-213641620D01*
X159537120Y-213641620D02*
X159537120Y-209741620D01*
X161537120Y-213641620D02*
X161537120Y-209741620D01*
X151377120Y-194591620D02*
X149377120Y-194591620D01*
X149377120Y-194591620D02*
X149377120Y-190691620D01*
X151377120Y-194591620D02*
X151377120Y-190691620D01*
X146297120Y-175541620D02*
X144297120Y-175541620D01*
X144297120Y-175541620D02*
X144297120Y-171641620D01*
X146297120Y-175541620D02*
X146297120Y-171641620D01*
X156457120Y-156491620D02*
X154457120Y-156491620D01*
X154457120Y-156491620D02*
X154457120Y-152591620D01*
X156457120Y-156491620D02*
X156457120Y-152591620D01*
X156457120Y-137441620D02*
X154457120Y-137441620D01*
X154457120Y-137441620D02*
X154457120Y-133541620D01*
X156457120Y-137441620D02*
X156457120Y-133541620D01*
X156482520Y-109144820D02*
X154482520Y-109144820D01*
X154482520Y-109144820D02*
X154482520Y-105244820D01*
X156482520Y-109144820D02*
X156482520Y-105244820D01*
X129787120Y-232691620D02*
X127787120Y-232691620D01*
X127787120Y-232691620D02*
X127787120Y-228791620D01*
X129787120Y-232691620D02*
X129787120Y-228791620D01*
X142487120Y-213641620D02*
X140487120Y-213641620D01*
X140487120Y-213641620D02*
X140487120Y-209741620D01*
X142487120Y-213641620D02*
X142487120Y-209741620D01*
X132327120Y-194591620D02*
X130327120Y-194591620D01*
X130327120Y-194591620D02*
X130327120Y-190691620D01*
X132327120Y-194591620D02*
X132327120Y-190691620D01*
X127247120Y-175541620D02*
X125247120Y-175541620D01*
X125247120Y-175541620D02*
X125247120Y-171641620D01*
X127247120Y-175541620D02*
X127247120Y-171641620D01*
X137407120Y-156491620D02*
X135407120Y-156491620D01*
X135407120Y-156491620D02*
X135407120Y-152591620D01*
X137407120Y-156491620D02*
X137407120Y-152591620D01*
X137407120Y-137441620D02*
X135407120Y-137441620D01*
X135407120Y-137441620D02*
X135407120Y-133541620D01*
X137407120Y-137441620D02*
X137407120Y-133541620D01*
X137432520Y-109144820D02*
X135432520Y-109144820D01*
X135432520Y-109144820D02*
X135432520Y-105244820D01*
X137432520Y-109144820D02*
X137432520Y-105244820D01*
X123437120Y-213641620D02*
X121437120Y-213641620D01*
X121437120Y-213641620D02*
X121437120Y-209741620D01*
X123437120Y-213641620D02*
X123437120Y-209741620D01*
X113277120Y-194591620D02*
X111277120Y-194591620D01*
X111277120Y-194591620D02*
X111277120Y-190691620D01*
X113277120Y-194591620D02*
X113277120Y-190691620D01*
X108197120Y-175541620D02*
X106197120Y-175541620D01*
X106197120Y-175541620D02*
X106197120Y-171641620D01*
X108197120Y-175541620D02*
X108197120Y-171641620D01*
X118357120Y-156491620D02*
X116357120Y-156491620D01*
X116357120Y-156491620D02*
X116357120Y-152591620D01*
X118357120Y-156491620D02*
X118357120Y-152591620D01*
X118357120Y-137441620D02*
X116357120Y-137441620D01*
X116357120Y-137441620D02*
X116357120Y-133541620D01*
X118357120Y-137441620D02*
X118357120Y-133541620D01*
X118382520Y-109144820D02*
X116382520Y-109144820D01*
X116382520Y-109144820D02*
X116382520Y-105244820D01*
X118382520Y-109144820D02*
X118382520Y-105244820D01*
X106927120Y-232691620D02*
X104927120Y-232691620D01*
X104927120Y-232691620D02*
X104927120Y-228791620D01*
X106927120Y-232691620D02*
X106927120Y-228791620D01*
X91687120Y-213641620D02*
X89687120Y-213641620D01*
X89687120Y-213641620D02*
X89687120Y-209741620D01*
X91687120Y-213641620D02*
X91687120Y-209741620D01*
X99307120Y-156491620D02*
X97307120Y-156491620D01*
X97307120Y-156491620D02*
X97307120Y-152591620D01*
X99307120Y-156491620D02*
X99307120Y-152591620D01*
X99307120Y-137441620D02*
X97307120Y-137441620D01*
X97307120Y-137441620D02*
X97307120Y-133541620D01*
X99307120Y-137441620D02*
X99307120Y-133541620D01*
X99281720Y-109170220D02*
X97281720Y-109170220D01*
X97281720Y-109170220D02*
X97281720Y-105270220D01*
X99281720Y-109170220D02*
X99281720Y-105270220D01*
X82797120Y-232691620D02*
X80797120Y-232691620D01*
X80797120Y-232691620D02*
X80797120Y-228791620D01*
X82797120Y-232691620D02*
X82797120Y-228791620D01*
X86607120Y-194591620D02*
X84607120Y-194591620D01*
X84607120Y-194591620D02*
X84607120Y-190691620D01*
X86607120Y-194591620D02*
X86607120Y-190691620D01*
X84067120Y-175541620D02*
X82067120Y-175541620D01*
X82067120Y-175541620D02*
X82067120Y-171641620D01*
X84067120Y-175541620D02*
X84067120Y-171641620D01*
X80257120Y-156491620D02*
X78257120Y-156491620D01*
X78257120Y-156491620D02*
X78257120Y-152591620D01*
X80257120Y-156491620D02*
X80257120Y-152591620D01*
X80257120Y-137441620D02*
X78257120Y-137441620D01*
X78257120Y-137441620D02*
X78257120Y-133541620D01*
X80257120Y-137441620D02*
X80257120Y-133541620D01*
X80282520Y-109144820D02*
X78282520Y-109144820D01*
X78282520Y-109144820D02*
X78282520Y-105244820D01*
X80282520Y-109144820D02*
X80282520Y-105244820D01*
X268183578Y-96365000D02*
X267666422Y-96365000D01*
X268183578Y-97785000D02*
X267666422Y-97785000D01*
X284952942Y-112236320D02*
X285470098Y-112236320D01*
X284952942Y-110816320D02*
X285470098Y-110816320D01*
X284978342Y-114509620D02*
X285495498Y-114509620D01*
X284978342Y-113089620D02*
X285495498Y-113089620D01*
X253665920Y-102824542D02*
X253665920Y-103341698D01*
X255085920Y-102824542D02*
X255085920Y-103341698D01*
X269466422Y-117585000D02*
X269983578Y-117585000D01*
X269466422Y-116165000D02*
X269983578Y-116165000D01*
X279866020Y-108054642D02*
X279866020Y-108571798D01*
X281286020Y-108054642D02*
X281286020Y-108571798D01*
X255073220Y-111807998D02*
X255073220Y-111290842D01*
X253653220Y-111807998D02*
X253653220Y-111290842D01*
D12*
X284307113Y-82022581D02*
X284164256Y-82070200D01*
X283926160Y-82070200D01*
X283830922Y-82022581D01*
X283783303Y-81974962D01*
X283735684Y-81879724D01*
X283735684Y-81784486D01*
X283783303Y-81689248D01*
X283830922Y-81641629D01*
X283926160Y-81594010D01*
X284116637Y-81546391D01*
X284211875Y-81498772D01*
X284259494Y-81451153D01*
X284307113Y-81355915D01*
X284307113Y-81260677D01*
X284259494Y-81165439D01*
X284211875Y-81117820D01*
X284116637Y-81070200D01*
X283878541Y-81070200D01*
X283735684Y-81117820D01*
X283402351Y-81070200D02*
X283164256Y-82070200D01*
X282973780Y-81355915D01*
X282783303Y-82070200D01*
X282545208Y-81070200D01*
X281640446Y-82070200D02*
X282211875Y-82070200D01*
X281926160Y-82070200D02*
X281926160Y-81070200D01*
X282021399Y-81213058D01*
X282116637Y-81308296D01*
X282211875Y-81355915D01*
X272020833Y-85503571D02*
X272354166Y-85503571D01*
X272354166Y-86027380D02*
X272354166Y-85027380D01*
X271877976Y-85027380D01*
X271163690Y-85503571D02*
X271020833Y-85551190D01*
X270973214Y-85598809D01*
X270925595Y-85694047D01*
X270925595Y-85836904D01*
X270973214Y-85932142D01*
X271020833Y-85979761D01*
X271116071Y-86027380D01*
X271497023Y-86027380D01*
X271497023Y-85027380D01*
X271163690Y-85027380D01*
X271068452Y-85075000D01*
X271020833Y-85122619D01*
X270973214Y-85217857D01*
X270973214Y-85313095D01*
X271020833Y-85408333D01*
X271068452Y-85455952D01*
X271163690Y-85503571D01*
X271497023Y-85503571D01*
X269973214Y-86027380D02*
X270544642Y-86027380D01*
X270258928Y-86027380D02*
X270258928Y-85027380D01*
X270354166Y-85170238D01*
X270449404Y-85265476D01*
X270544642Y-85313095D01*
X257727380Y-107236904D02*
X258536904Y-107236904D01*
X258632142Y-107284523D01*
X258679761Y-107332142D01*
X258727380Y-107427380D01*
X258727380Y-107617857D01*
X258679761Y-107713095D01*
X258632142Y-107760714D01*
X258536904Y-107808333D01*
X257727380Y-107808333D01*
X258727380Y-108808333D02*
X258727380Y-108236904D01*
X258727380Y-108522619D02*
X257727380Y-108522619D01*
X257870238Y-108427380D01*
X257965476Y-108332142D01*
X258013095Y-108236904D01*
X257727380Y-109427380D02*
X257727380Y-109522619D01*
X257775000Y-109617857D01*
X257822619Y-109665476D01*
X257917857Y-109713095D01*
X258108333Y-109760714D01*
X258346428Y-109760714D01*
X258536904Y-109713095D01*
X258632142Y-109665476D01*
X258679761Y-109617857D01*
X258727380Y-109522619D01*
X258727380Y-109427380D01*
X258679761Y-109332142D01*
X258632142Y-109284523D01*
X258536904Y-109236904D01*
X258346428Y-109189285D01*
X258108333Y-109189285D01*
X257917857Y-109236904D01*
X257822619Y-109284523D01*
X257775000Y-109332142D01*
X257727380Y-109427380D01*
X263399800Y-97041913D02*
X262923610Y-96708580D01*
X263399800Y-96470484D02*
X262399800Y-96470484D01*
X262399800Y-96851437D01*
X262447420Y-96946675D01*
X262495039Y-96994294D01*
X262590277Y-97041913D01*
X262733134Y-97041913D01*
X262828372Y-96994294D01*
X262875991Y-96946675D01*
X262923610Y-96851437D01*
X262923610Y-96470484D01*
X262399800Y-97899056D02*
X262399800Y-97708580D01*
X262447420Y-97613341D01*
X262495039Y-97565722D01*
X262637896Y-97470484D01*
X262828372Y-97422865D01*
X263209324Y-97422865D01*
X263304562Y-97470484D01*
X263352181Y-97518103D01*
X263399800Y-97613341D01*
X263399800Y-97803818D01*
X263352181Y-97899056D01*
X263304562Y-97946675D01*
X263209324Y-97994294D01*
X262971229Y-97994294D01*
X262875991Y-97946675D01*
X262828372Y-97899056D01*
X262780753Y-97803818D01*
X262780753Y-97613341D01*
X262828372Y-97518103D01*
X262875991Y-97470484D01*
X262971229Y-97422865D01*
X265919480Y-97041913D02*
X265443290Y-96708580D01*
X265919480Y-96470484D02*
X264919480Y-96470484D01*
X264919480Y-96851437D01*
X264967100Y-96946675D01*
X265014719Y-96994294D01*
X265109957Y-97041913D01*
X265252814Y-97041913D01*
X265348052Y-96994294D01*
X265395671Y-96946675D01*
X265443290Y-96851437D01*
X265443290Y-96470484D01*
X264919480Y-97946675D02*
X264919480Y-97470484D01*
X265395671Y-97422865D01*
X265348052Y-97470484D01*
X265300433Y-97565722D01*
X265300433Y-97803818D01*
X265348052Y-97899056D01*
X265395671Y-97946675D01*
X265490909Y-97994294D01*
X265729004Y-97994294D01*
X265824242Y-97946675D01*
X265871861Y-97899056D01*
X265919480Y-97803818D01*
X265919480Y-97565722D01*
X265871861Y-97470484D01*
X265824242Y-97422865D01*
X283775290Y-112183329D02*
X284251480Y-112183329D01*
X283251480Y-111849996D02*
X283775290Y-112183329D01*
X283251480Y-112516662D01*
X284251480Y-113373805D02*
X284251480Y-112802377D01*
X284251480Y-113088091D02*
X283251480Y-113088091D01*
X283394338Y-112992853D01*
X283489576Y-112897615D01*
X283537195Y-112802377D01*
X264423095Y-86377380D02*
X264423095Y-87186904D01*
X264375476Y-87282142D01*
X264327857Y-87329761D01*
X264232619Y-87377380D01*
X264042142Y-87377380D01*
X263946904Y-87329761D01*
X263899285Y-87282142D01*
X263851666Y-87186904D01*
X263851666Y-86377380D01*
X263423095Y-87329761D02*
X263280238Y-87377380D01*
X263042142Y-87377380D01*
X262946904Y-87329761D01*
X262899285Y-87282142D01*
X262851666Y-87186904D01*
X262851666Y-87091666D01*
X262899285Y-86996428D01*
X262946904Y-86948809D01*
X263042142Y-86901190D01*
X263232619Y-86853571D01*
X263327857Y-86805952D01*
X263375476Y-86758333D01*
X263423095Y-86663095D01*
X263423095Y-86567857D01*
X263375476Y-86472619D01*
X263327857Y-86425000D01*
X263232619Y-86377380D01*
X262994523Y-86377380D01*
X262851666Y-86425000D01*
X262089761Y-86853571D02*
X261946904Y-86901190D01*
X261899285Y-86948809D01*
X261851666Y-87044047D01*
X261851666Y-87186904D01*
X261899285Y-87282142D01*
X261946904Y-87329761D01*
X262042142Y-87377380D01*
X262423095Y-87377380D01*
X262423095Y-86377380D01*
X262089761Y-86377380D01*
X261994523Y-86425000D01*
X261946904Y-86472619D01*
X261899285Y-86567857D01*
X261899285Y-86663095D01*
X261946904Y-86758333D01*
X261994523Y-86805952D01*
X262089761Y-86853571D01*
X262423095Y-86853571D01*
X260899285Y-87377380D02*
X261470714Y-87377380D01*
X261185000Y-87377380D02*
X261185000Y-86377380D01*
X261280238Y-86520238D01*
X261375476Y-86615476D01*
X261470714Y-86663095D01*
X263293764Y-94157720D02*
X263293764Y-94967244D01*
X263246145Y-95062482D01*
X263198526Y-95110101D01*
X263103288Y-95157720D01*
X262912812Y-95157720D01*
X262817574Y-95110101D01*
X262769955Y-95062482D01*
X262722336Y-94967244D01*
X262722336Y-94157720D01*
X261722336Y-95157720D02*
X262293764Y-95157720D01*
X262008050Y-95157720D02*
X262008050Y-94157720D01*
X262103288Y-94300578D01*
X262198526Y-94395816D01*
X262293764Y-94443435D01*
X278362400Y-90876853D02*
X277886210Y-90543520D01*
X278362400Y-90305424D02*
X277362400Y-90305424D01*
X277362400Y-90686377D01*
X277410020Y-90781615D01*
X277457639Y-90829234D01*
X277552877Y-90876853D01*
X277695734Y-90876853D01*
X277790972Y-90829234D01*
X277838591Y-90781615D01*
X277886210Y-90686377D01*
X277886210Y-90305424D01*
X277790972Y-91448281D02*
X277743353Y-91353043D01*
X277695734Y-91305424D01*
X277600496Y-91257805D01*
X277552877Y-91257805D01*
X277457639Y-91305424D01*
X277410020Y-91353043D01*
X277362400Y-91448281D01*
X277362400Y-91638758D01*
X277410020Y-91733996D01*
X277457639Y-91781615D01*
X277552877Y-91829234D01*
X277600496Y-91829234D01*
X277695734Y-91781615D01*
X277743353Y-91733996D01*
X277790972Y-91638758D01*
X277790972Y-91448281D01*
X277838591Y-91353043D01*
X277886210Y-91305424D01*
X277981448Y-91257805D01*
X278171924Y-91257805D01*
X278267162Y-91305424D01*
X278314781Y-91353043D01*
X278362400Y-91448281D01*
X278362400Y-91638758D01*
X278314781Y-91733996D01*
X278267162Y-91781615D01*
X278171924Y-91829234D01*
X277981448Y-91829234D01*
X277886210Y-91781615D01*
X277838591Y-91733996D01*
X277790972Y-91638758D01*
X260554166Y-118877380D02*
X260887500Y-118401190D01*
X261125595Y-118877380D02*
X261125595Y-117877380D01*
X260744642Y-117877380D01*
X260649404Y-117925000D01*
X260601785Y-117972619D01*
X260554166Y-118067857D01*
X260554166Y-118210714D01*
X260601785Y-118305952D01*
X260649404Y-118353571D01*
X260744642Y-118401190D01*
X261125595Y-118401190D01*
X260220833Y-117877380D02*
X259554166Y-117877380D01*
X259982738Y-118877380D01*
X255776786Y-90808800D02*
X256110120Y-90332610D01*
X256348215Y-90808800D02*
X256348215Y-89808800D01*
X255967262Y-89808800D01*
X255872024Y-89856420D01*
X255824405Y-89904039D01*
X255776786Y-89999277D01*
X255776786Y-90142134D01*
X255824405Y-90237372D01*
X255872024Y-90284991D01*
X255967262Y-90332610D01*
X256348215Y-90332610D01*
X255443453Y-89808800D02*
X254824405Y-89808800D01*
X255157739Y-90189753D01*
X255014881Y-90189753D01*
X254919643Y-90237372D01*
X254872024Y-90284991D01*
X254824405Y-90380229D01*
X254824405Y-90618324D01*
X254872024Y-90713562D01*
X254919643Y-90761181D01*
X255014881Y-90808800D01*
X255300596Y-90808800D01*
X255395834Y-90761181D01*
X255443453Y-90713562D01*
X269780286Y-94108800D02*
X270113620Y-93632610D01*
X270351715Y-94108800D02*
X270351715Y-93108800D01*
X269970762Y-93108800D01*
X269875524Y-93156420D01*
X269827905Y-93204039D01*
X269780286Y-93299277D01*
X269780286Y-93442134D01*
X269827905Y-93537372D01*
X269875524Y-93584991D01*
X269970762Y-93632610D01*
X270351715Y-93632610D01*
X268827905Y-94108800D02*
X269399334Y-94108800D01*
X269113620Y-94108800D02*
X269113620Y-93108800D01*
X269208858Y-93251658D01*
X269304096Y-93346896D01*
X269399334Y-93394515D01*
X257203991Y-96035596D02*
X257203991Y-95702262D01*
X257727800Y-95702262D02*
X256727800Y-95702262D01*
X256727800Y-96178453D01*
X257727800Y-97083215D02*
X257727800Y-96511786D01*
X257727800Y-96797500D02*
X256727800Y-96797500D01*
X256870658Y-96702262D01*
X256965896Y-96607024D01*
X257013515Y-96511786D01*
X257727800Y-98035596D02*
X257727800Y-97464167D01*
X257727800Y-97749881D02*
X256727800Y-97749881D01*
X256870658Y-97654643D01*
X256965896Y-97559405D01*
X257013515Y-97464167D01*
X367459500Y-228751143D02*
X366459500Y-228751143D01*
X366459500Y-228989239D01*
X366507120Y-229132096D01*
X366602358Y-229227334D01*
X366697596Y-229274953D01*
X366888072Y-229322572D01*
X367030929Y-229322572D01*
X367221405Y-229274953D01*
X367316643Y-229227334D01*
X367411881Y-229132096D01*
X367459500Y-228989239D01*
X367459500Y-228751143D01*
X367459500Y-230274953D02*
X367459500Y-229703524D01*
X367459500Y-229989239D02*
X366459500Y-229989239D01*
X366602358Y-229894000D01*
X366697596Y-229798762D01*
X366745215Y-229703524D01*
X366459500Y-230894000D02*
X366459500Y-230989239D01*
X366507120Y-231084477D01*
X366554739Y-231132096D01*
X366649977Y-231179715D01*
X366840453Y-231227334D01*
X367078548Y-231227334D01*
X367269024Y-231179715D01*
X367364262Y-231132096D01*
X367411881Y-231084477D01*
X367459500Y-230989239D01*
X367459500Y-230894000D01*
X367411881Y-230798762D01*
X367364262Y-230751143D01*
X367269024Y-230703524D01*
X367078548Y-230655905D01*
X366840453Y-230655905D01*
X366649977Y-230703524D01*
X366554739Y-230751143D01*
X366507120Y-230798762D01*
X366459500Y-230894000D01*
X366459500Y-231846381D02*
X366459500Y-231941620D01*
X366507120Y-232036858D01*
X366554739Y-232084477D01*
X366649977Y-232132096D01*
X366840453Y-232179715D01*
X367078548Y-232179715D01*
X367269024Y-232132096D01*
X367364262Y-232084477D01*
X367411881Y-232036858D01*
X367459500Y-231941620D01*
X367459500Y-231846381D01*
X367411881Y-231751143D01*
X367364262Y-231703524D01*
X367269024Y-231655905D01*
X367078548Y-231608286D01*
X366840453Y-231608286D01*
X366649977Y-231655905D01*
X366554739Y-231703524D01*
X366507120Y-231751143D01*
X366459500Y-231846381D01*
X367459500Y-210177334D02*
X366459500Y-210177334D01*
X366459500Y-210415429D01*
X366507120Y-210558286D01*
X366602358Y-210653524D01*
X366697596Y-210701143D01*
X366888072Y-210748762D01*
X367030929Y-210748762D01*
X367221405Y-210701143D01*
X367316643Y-210653524D01*
X367411881Y-210558286D01*
X367459500Y-210415429D01*
X367459500Y-210177334D01*
X367459500Y-211224953D02*
X367459500Y-211415429D01*
X367411881Y-211510667D01*
X367364262Y-211558286D01*
X367221405Y-211653524D01*
X367030929Y-211701143D01*
X366649977Y-211701143D01*
X366554739Y-211653524D01*
X366507120Y-211605905D01*
X366459500Y-211510667D01*
X366459500Y-211320191D01*
X366507120Y-211224953D01*
X366554739Y-211177334D01*
X366649977Y-211129715D01*
X366888072Y-211129715D01*
X366983310Y-211177334D01*
X367030929Y-211224953D01*
X367078548Y-211320191D01*
X367078548Y-211510667D01*
X367030929Y-211605905D01*
X366983310Y-211653524D01*
X366888072Y-211701143D01*
X367459500Y-212177334D02*
X367459500Y-212367810D01*
X367411881Y-212463048D01*
X367364262Y-212510667D01*
X367221405Y-212605905D01*
X367030929Y-212653524D01*
X366649977Y-212653524D01*
X366554739Y-212605905D01*
X366507120Y-212558286D01*
X366459500Y-212463048D01*
X366459500Y-212272572D01*
X366507120Y-212177334D01*
X366554739Y-212129715D01*
X366649977Y-212082096D01*
X366888072Y-212082096D01*
X366983310Y-212129715D01*
X367030929Y-212177334D01*
X367078548Y-212272572D01*
X367078548Y-212463048D01*
X367030929Y-212558286D01*
X366983310Y-212605905D01*
X366888072Y-212653524D01*
X367459500Y-191127334D02*
X366459500Y-191127334D01*
X366459500Y-191365429D01*
X366507120Y-191508286D01*
X366602358Y-191603524D01*
X366697596Y-191651143D01*
X366888072Y-191698762D01*
X367030929Y-191698762D01*
X367221405Y-191651143D01*
X367316643Y-191603524D01*
X367411881Y-191508286D01*
X367459500Y-191365429D01*
X367459500Y-191127334D01*
X367459500Y-192174953D02*
X367459500Y-192365429D01*
X367411881Y-192460667D01*
X367364262Y-192508286D01*
X367221405Y-192603524D01*
X367030929Y-192651143D01*
X366649977Y-192651143D01*
X366554739Y-192603524D01*
X366507120Y-192555905D01*
X366459500Y-192460667D01*
X366459500Y-192270191D01*
X366507120Y-192174953D01*
X366554739Y-192127334D01*
X366649977Y-192079715D01*
X366888072Y-192079715D01*
X366983310Y-192127334D01*
X367030929Y-192174953D01*
X367078548Y-192270191D01*
X367078548Y-192460667D01*
X367030929Y-192555905D01*
X366983310Y-192603524D01*
X366888072Y-192651143D01*
X366888072Y-193222572D02*
X366840453Y-193127334D01*
X366792834Y-193079715D01*
X366697596Y-193032096D01*
X366649977Y-193032096D01*
X366554739Y-193079715D01*
X366507120Y-193127334D01*
X366459500Y-193222572D01*
X366459500Y-193413048D01*
X366507120Y-193508286D01*
X366554739Y-193555905D01*
X366649977Y-193603524D01*
X366697596Y-193603524D01*
X366792834Y-193555905D01*
X366840453Y-193508286D01*
X366888072Y-193413048D01*
X366888072Y-193222572D01*
X366935691Y-193127334D01*
X366983310Y-193079715D01*
X367078548Y-193032096D01*
X367269024Y-193032096D01*
X367364262Y-193079715D01*
X367411881Y-193127334D01*
X367459500Y-193222572D01*
X367459500Y-193413048D01*
X367411881Y-193508286D01*
X367364262Y-193555905D01*
X367269024Y-193603524D01*
X367078548Y-193603524D01*
X366983310Y-193555905D01*
X366935691Y-193508286D01*
X366888072Y-193413048D01*
X367459500Y-172077334D02*
X366459500Y-172077334D01*
X366459500Y-172315429D01*
X366507120Y-172458286D01*
X366602358Y-172553524D01*
X366697596Y-172601143D01*
X366888072Y-172648762D01*
X367030929Y-172648762D01*
X367221405Y-172601143D01*
X367316643Y-172553524D01*
X367411881Y-172458286D01*
X367459500Y-172315429D01*
X367459500Y-172077334D01*
X367459500Y-173124953D02*
X367459500Y-173315429D01*
X367411881Y-173410667D01*
X367364262Y-173458286D01*
X367221405Y-173553524D01*
X367030929Y-173601143D01*
X366649977Y-173601143D01*
X366554739Y-173553524D01*
X366507120Y-173505905D01*
X366459500Y-173410667D01*
X366459500Y-173220191D01*
X366507120Y-173124953D01*
X366554739Y-173077334D01*
X366649977Y-173029715D01*
X366888072Y-173029715D01*
X366983310Y-173077334D01*
X367030929Y-173124953D01*
X367078548Y-173220191D01*
X367078548Y-173410667D01*
X367030929Y-173505905D01*
X366983310Y-173553524D01*
X366888072Y-173601143D01*
X366459500Y-173934477D02*
X366459500Y-174601143D01*
X367459500Y-174172572D01*
X367459500Y-153027334D02*
X366459500Y-153027334D01*
X366459500Y-153265429D01*
X366507120Y-153408286D01*
X366602358Y-153503524D01*
X366697596Y-153551143D01*
X366888072Y-153598762D01*
X367030929Y-153598762D01*
X367221405Y-153551143D01*
X367316643Y-153503524D01*
X367411881Y-153408286D01*
X367459500Y-153265429D01*
X367459500Y-153027334D01*
X367459500Y-154074953D02*
X367459500Y-154265429D01*
X367411881Y-154360667D01*
X367364262Y-154408286D01*
X367221405Y-154503524D01*
X367030929Y-154551143D01*
X366649977Y-154551143D01*
X366554739Y-154503524D01*
X366507120Y-154455905D01*
X366459500Y-154360667D01*
X366459500Y-154170191D01*
X366507120Y-154074953D01*
X366554739Y-154027334D01*
X366649977Y-153979715D01*
X366888072Y-153979715D01*
X366983310Y-154027334D01*
X367030929Y-154074953D01*
X367078548Y-154170191D01*
X367078548Y-154360667D01*
X367030929Y-154455905D01*
X366983310Y-154503524D01*
X366888072Y-154551143D01*
X366459500Y-155408286D02*
X366459500Y-155217810D01*
X366507120Y-155122572D01*
X366554739Y-155074953D01*
X366697596Y-154979715D01*
X366888072Y-154932096D01*
X367269024Y-154932096D01*
X367364262Y-154979715D01*
X367411881Y-155027334D01*
X367459500Y-155122572D01*
X367459500Y-155313048D01*
X367411881Y-155408286D01*
X367364262Y-155455905D01*
X367269024Y-155503524D01*
X367030929Y-155503524D01*
X366935691Y-155455905D01*
X366888072Y-155408286D01*
X366840453Y-155313048D01*
X366840453Y-155122572D01*
X366888072Y-155027334D01*
X366935691Y-154979715D01*
X367030929Y-154932096D01*
X367459500Y-133977334D02*
X366459500Y-133977334D01*
X366459500Y-134215429D01*
X366507120Y-134358286D01*
X366602358Y-134453524D01*
X366697596Y-134501143D01*
X366888072Y-134548762D01*
X367030929Y-134548762D01*
X367221405Y-134501143D01*
X367316643Y-134453524D01*
X367411881Y-134358286D01*
X367459500Y-134215429D01*
X367459500Y-133977334D01*
X367459500Y-135024953D02*
X367459500Y-135215429D01*
X367411881Y-135310667D01*
X367364262Y-135358286D01*
X367221405Y-135453524D01*
X367030929Y-135501143D01*
X366649977Y-135501143D01*
X366554739Y-135453524D01*
X366507120Y-135405905D01*
X366459500Y-135310667D01*
X366459500Y-135120191D01*
X366507120Y-135024953D01*
X366554739Y-134977334D01*
X366649977Y-134929715D01*
X366888072Y-134929715D01*
X366983310Y-134977334D01*
X367030929Y-135024953D01*
X367078548Y-135120191D01*
X367078548Y-135310667D01*
X367030929Y-135405905D01*
X366983310Y-135453524D01*
X366888072Y-135501143D01*
X366459500Y-136405905D02*
X366459500Y-135929715D01*
X366935691Y-135882096D01*
X366888072Y-135929715D01*
X366840453Y-136024953D01*
X366840453Y-136263048D01*
X366888072Y-136358286D01*
X366935691Y-136405905D01*
X367030929Y-136453524D01*
X367269024Y-136453524D01*
X367364262Y-136405905D01*
X367411881Y-136358286D01*
X367459500Y-136263048D01*
X367459500Y-136024953D01*
X367411881Y-135929715D01*
X367364262Y-135882096D01*
X367484900Y-105680534D02*
X366484900Y-105680534D01*
X366484900Y-105918629D01*
X366532520Y-106061486D01*
X366627758Y-106156724D01*
X366722996Y-106204343D01*
X366913472Y-106251962D01*
X367056329Y-106251962D01*
X367246805Y-106204343D01*
X367342043Y-106156724D01*
X367437281Y-106061486D01*
X367484900Y-105918629D01*
X367484900Y-105680534D01*
X367484900Y-106728153D02*
X367484900Y-106918629D01*
X367437281Y-107013867D01*
X367389662Y-107061486D01*
X367246805Y-107156724D01*
X367056329Y-107204343D01*
X366675377Y-107204343D01*
X366580139Y-107156724D01*
X366532520Y-107109105D01*
X366484900Y-107013867D01*
X366484900Y-106823391D01*
X366532520Y-106728153D01*
X366580139Y-106680534D01*
X366675377Y-106632915D01*
X366913472Y-106632915D01*
X367008710Y-106680534D01*
X367056329Y-106728153D01*
X367103948Y-106823391D01*
X367103948Y-107013867D01*
X367056329Y-107109105D01*
X367008710Y-107156724D01*
X366913472Y-107204343D01*
X366818234Y-108061486D02*
X367484900Y-108061486D01*
X366437281Y-107823391D02*
X367151567Y-107585296D01*
X367151567Y-108204343D01*
X348409500Y-229227334D02*
X347409500Y-229227334D01*
X347409500Y-229465429D01*
X347457120Y-229608286D01*
X347552358Y-229703524D01*
X347647596Y-229751143D01*
X347838072Y-229798762D01*
X347980929Y-229798762D01*
X348171405Y-229751143D01*
X348266643Y-229703524D01*
X348361881Y-229608286D01*
X348409500Y-229465429D01*
X348409500Y-229227334D01*
X348409500Y-230274953D02*
X348409500Y-230465429D01*
X348361881Y-230560667D01*
X348314262Y-230608286D01*
X348171405Y-230703524D01*
X347980929Y-230751143D01*
X347599977Y-230751143D01*
X347504739Y-230703524D01*
X347457120Y-230655905D01*
X347409500Y-230560667D01*
X347409500Y-230370191D01*
X347457120Y-230274953D01*
X347504739Y-230227334D01*
X347599977Y-230179715D01*
X347838072Y-230179715D01*
X347933310Y-230227334D01*
X347980929Y-230274953D01*
X348028548Y-230370191D01*
X348028548Y-230560667D01*
X347980929Y-230655905D01*
X347933310Y-230703524D01*
X347838072Y-230751143D01*
X347409500Y-231084477D02*
X347409500Y-231703524D01*
X347790453Y-231370191D01*
X347790453Y-231513048D01*
X347838072Y-231608286D01*
X347885691Y-231655905D01*
X347980929Y-231703524D01*
X348219024Y-231703524D01*
X348314262Y-231655905D01*
X348361881Y-231608286D01*
X348409500Y-231513048D01*
X348409500Y-231227334D01*
X348361881Y-231132096D01*
X348314262Y-231084477D01*
X348409500Y-210177334D02*
X347409500Y-210177334D01*
X347409500Y-210415429D01*
X347457120Y-210558286D01*
X347552358Y-210653524D01*
X347647596Y-210701143D01*
X347838072Y-210748762D01*
X347980929Y-210748762D01*
X348171405Y-210701143D01*
X348266643Y-210653524D01*
X348361881Y-210558286D01*
X348409500Y-210415429D01*
X348409500Y-210177334D01*
X348409500Y-211224953D02*
X348409500Y-211415429D01*
X348361881Y-211510667D01*
X348314262Y-211558286D01*
X348171405Y-211653524D01*
X347980929Y-211701143D01*
X347599977Y-211701143D01*
X347504739Y-211653524D01*
X347457120Y-211605905D01*
X347409500Y-211510667D01*
X347409500Y-211320191D01*
X347457120Y-211224953D01*
X347504739Y-211177334D01*
X347599977Y-211129715D01*
X347838072Y-211129715D01*
X347933310Y-211177334D01*
X347980929Y-211224953D01*
X348028548Y-211320191D01*
X348028548Y-211510667D01*
X347980929Y-211605905D01*
X347933310Y-211653524D01*
X347838072Y-211701143D01*
X347504739Y-212082096D02*
X347457120Y-212129715D01*
X347409500Y-212224953D01*
X347409500Y-212463048D01*
X347457120Y-212558286D01*
X347504739Y-212605905D01*
X347599977Y-212653524D01*
X347695215Y-212653524D01*
X347838072Y-212605905D01*
X348409500Y-212034477D01*
X348409500Y-212653524D01*
X343329500Y-172077334D02*
X342329500Y-172077334D01*
X342329500Y-172315429D01*
X342377120Y-172458286D01*
X342472358Y-172553524D01*
X342567596Y-172601143D01*
X342758072Y-172648762D01*
X342900929Y-172648762D01*
X343091405Y-172601143D01*
X343186643Y-172553524D01*
X343281881Y-172458286D01*
X343329500Y-172315429D01*
X343329500Y-172077334D01*
X343329500Y-173124953D02*
X343329500Y-173315429D01*
X343281881Y-173410667D01*
X343234262Y-173458286D01*
X343091405Y-173553524D01*
X342900929Y-173601143D01*
X342519977Y-173601143D01*
X342424739Y-173553524D01*
X342377120Y-173505905D01*
X342329500Y-173410667D01*
X342329500Y-173220191D01*
X342377120Y-173124953D01*
X342424739Y-173077334D01*
X342519977Y-173029715D01*
X342758072Y-173029715D01*
X342853310Y-173077334D01*
X342900929Y-173124953D01*
X342948548Y-173220191D01*
X342948548Y-173410667D01*
X342900929Y-173505905D01*
X342853310Y-173553524D01*
X342758072Y-173601143D01*
X343329500Y-174553524D02*
X343329500Y-173982096D01*
X343329500Y-174267810D02*
X342329500Y-174267810D01*
X342472358Y-174172572D01*
X342567596Y-174077334D01*
X342615215Y-173982096D01*
X338249500Y-153027334D02*
X337249500Y-153027334D01*
X337249500Y-153265429D01*
X337297120Y-153408286D01*
X337392358Y-153503524D01*
X337487596Y-153551143D01*
X337678072Y-153598762D01*
X337820929Y-153598762D01*
X338011405Y-153551143D01*
X338106643Y-153503524D01*
X338201881Y-153408286D01*
X338249500Y-153265429D01*
X338249500Y-153027334D01*
X338249500Y-154074953D02*
X338249500Y-154265429D01*
X338201881Y-154360667D01*
X338154262Y-154408286D01*
X338011405Y-154503524D01*
X337820929Y-154551143D01*
X337439977Y-154551143D01*
X337344739Y-154503524D01*
X337297120Y-154455905D01*
X337249500Y-154360667D01*
X337249500Y-154170191D01*
X337297120Y-154074953D01*
X337344739Y-154027334D01*
X337439977Y-153979715D01*
X337678072Y-153979715D01*
X337773310Y-154027334D01*
X337820929Y-154074953D01*
X337868548Y-154170191D01*
X337868548Y-154360667D01*
X337820929Y-154455905D01*
X337773310Y-154503524D01*
X337678072Y-154551143D01*
X337249500Y-155170191D02*
X337249500Y-155265429D01*
X337297120Y-155360667D01*
X337344739Y-155408286D01*
X337439977Y-155455905D01*
X337630453Y-155503524D01*
X337868548Y-155503524D01*
X338059024Y-155455905D01*
X338154262Y-155408286D01*
X338201881Y-155360667D01*
X338249500Y-155265429D01*
X338249500Y-155170191D01*
X338201881Y-155074953D01*
X338154262Y-155027334D01*
X338059024Y-154979715D01*
X337868548Y-154932096D01*
X337630453Y-154932096D01*
X337439977Y-154979715D01*
X337344739Y-155027334D01*
X337297120Y-155074953D01*
X337249500Y-155170191D01*
X348409500Y-133977334D02*
X347409500Y-133977334D01*
X347409500Y-134215429D01*
X347457120Y-134358286D01*
X347552358Y-134453524D01*
X347647596Y-134501143D01*
X347838072Y-134548762D01*
X347980929Y-134548762D01*
X348171405Y-134501143D01*
X348266643Y-134453524D01*
X348361881Y-134358286D01*
X348409500Y-134215429D01*
X348409500Y-133977334D01*
X347838072Y-135120191D02*
X347790453Y-135024953D01*
X347742834Y-134977334D01*
X347647596Y-134929715D01*
X347599977Y-134929715D01*
X347504739Y-134977334D01*
X347457120Y-135024953D01*
X347409500Y-135120191D01*
X347409500Y-135310667D01*
X347457120Y-135405905D01*
X347504739Y-135453524D01*
X347599977Y-135501143D01*
X347647596Y-135501143D01*
X347742834Y-135453524D01*
X347790453Y-135405905D01*
X347838072Y-135310667D01*
X347838072Y-135120191D01*
X347885691Y-135024953D01*
X347933310Y-134977334D01*
X348028548Y-134929715D01*
X348219024Y-134929715D01*
X348314262Y-134977334D01*
X348361881Y-135024953D01*
X348409500Y-135120191D01*
X348409500Y-135310667D01*
X348361881Y-135405905D01*
X348314262Y-135453524D01*
X348219024Y-135501143D01*
X348028548Y-135501143D01*
X347933310Y-135453524D01*
X347885691Y-135405905D01*
X347838072Y-135310667D01*
X348409500Y-135977334D02*
X348409500Y-136167810D01*
X348361881Y-136263048D01*
X348314262Y-136310667D01*
X348171405Y-136405905D01*
X347980929Y-136453524D01*
X347599977Y-136453524D01*
X347504739Y-136405905D01*
X347457120Y-136358286D01*
X347409500Y-136263048D01*
X347409500Y-136072572D01*
X347457120Y-135977334D01*
X347504739Y-135929715D01*
X347599977Y-135882096D01*
X347838072Y-135882096D01*
X347933310Y-135929715D01*
X347980929Y-135977334D01*
X348028548Y-136072572D01*
X348028548Y-136263048D01*
X347980929Y-136358286D01*
X347933310Y-136405905D01*
X347838072Y-136453524D01*
X348434900Y-105680534D02*
X347434900Y-105680534D01*
X347434900Y-105918629D01*
X347482520Y-106061486D01*
X347577758Y-106156724D01*
X347672996Y-106204343D01*
X347863472Y-106251962D01*
X348006329Y-106251962D01*
X348196805Y-106204343D01*
X348292043Y-106156724D01*
X348387281Y-106061486D01*
X348434900Y-105918629D01*
X348434900Y-105680534D01*
X347863472Y-106823391D02*
X347815853Y-106728153D01*
X347768234Y-106680534D01*
X347672996Y-106632915D01*
X347625377Y-106632915D01*
X347530139Y-106680534D01*
X347482520Y-106728153D01*
X347434900Y-106823391D01*
X347434900Y-107013867D01*
X347482520Y-107109105D01*
X347530139Y-107156724D01*
X347625377Y-107204343D01*
X347672996Y-107204343D01*
X347768234Y-107156724D01*
X347815853Y-107109105D01*
X347863472Y-107013867D01*
X347863472Y-106823391D01*
X347911091Y-106728153D01*
X347958710Y-106680534D01*
X348053948Y-106632915D01*
X348244424Y-106632915D01*
X348339662Y-106680534D01*
X348387281Y-106728153D01*
X348434900Y-106823391D01*
X348434900Y-107013867D01*
X348387281Y-107109105D01*
X348339662Y-107156724D01*
X348244424Y-107204343D01*
X348053948Y-107204343D01*
X347958710Y-107156724D01*
X347911091Y-107109105D01*
X347863472Y-107013867D01*
X347863472Y-107775772D02*
X347815853Y-107680534D01*
X347768234Y-107632915D01*
X347672996Y-107585296D01*
X347625377Y-107585296D01*
X347530139Y-107632915D01*
X347482520Y-107680534D01*
X347434900Y-107775772D01*
X347434900Y-107966248D01*
X347482520Y-108061486D01*
X347530139Y-108109105D01*
X347625377Y-108156724D01*
X347672996Y-108156724D01*
X347768234Y-108109105D01*
X347815853Y-108061486D01*
X347863472Y-107966248D01*
X347863472Y-107775772D01*
X347911091Y-107680534D01*
X347958710Y-107632915D01*
X348053948Y-107585296D01*
X348244424Y-107585296D01*
X348339662Y-107632915D01*
X348387281Y-107680534D01*
X348434900Y-107775772D01*
X348434900Y-107966248D01*
X348387281Y-108061486D01*
X348339662Y-108109105D01*
X348244424Y-108156724D01*
X348053948Y-108156724D01*
X347958710Y-108109105D01*
X347911091Y-108061486D01*
X347863472Y-107966248D01*
X329359500Y-229227334D02*
X328359500Y-229227334D01*
X328359500Y-229465429D01*
X328407120Y-229608286D01*
X328502358Y-229703524D01*
X328597596Y-229751143D01*
X328788072Y-229798762D01*
X328930929Y-229798762D01*
X329121405Y-229751143D01*
X329216643Y-229703524D01*
X329311881Y-229608286D01*
X329359500Y-229465429D01*
X329359500Y-229227334D01*
X328788072Y-230370191D02*
X328740453Y-230274953D01*
X328692834Y-230227334D01*
X328597596Y-230179715D01*
X328549977Y-230179715D01*
X328454739Y-230227334D01*
X328407120Y-230274953D01*
X328359500Y-230370191D01*
X328359500Y-230560667D01*
X328407120Y-230655905D01*
X328454739Y-230703524D01*
X328549977Y-230751143D01*
X328597596Y-230751143D01*
X328692834Y-230703524D01*
X328740453Y-230655905D01*
X328788072Y-230560667D01*
X328788072Y-230370191D01*
X328835691Y-230274953D01*
X328883310Y-230227334D01*
X328978548Y-230179715D01*
X329169024Y-230179715D01*
X329264262Y-230227334D01*
X329311881Y-230274953D01*
X329359500Y-230370191D01*
X329359500Y-230560667D01*
X329311881Y-230655905D01*
X329264262Y-230703524D01*
X329169024Y-230751143D01*
X328978548Y-230751143D01*
X328883310Y-230703524D01*
X328835691Y-230655905D01*
X328788072Y-230560667D01*
X328359500Y-231084477D02*
X328359500Y-231751143D01*
X329359500Y-231322572D01*
X321739500Y-210177334D02*
X320739500Y-210177334D01*
X320739500Y-210415429D01*
X320787120Y-210558286D01*
X320882358Y-210653524D01*
X320977596Y-210701143D01*
X321168072Y-210748762D01*
X321310929Y-210748762D01*
X321501405Y-210701143D01*
X321596643Y-210653524D01*
X321691881Y-210558286D01*
X321739500Y-210415429D01*
X321739500Y-210177334D01*
X321168072Y-211320191D02*
X321120453Y-211224953D01*
X321072834Y-211177334D01*
X320977596Y-211129715D01*
X320929977Y-211129715D01*
X320834739Y-211177334D01*
X320787120Y-211224953D01*
X320739500Y-211320191D01*
X320739500Y-211510667D01*
X320787120Y-211605905D01*
X320834739Y-211653524D01*
X320929977Y-211701143D01*
X320977596Y-211701143D01*
X321072834Y-211653524D01*
X321120453Y-211605905D01*
X321168072Y-211510667D01*
X321168072Y-211320191D01*
X321215691Y-211224953D01*
X321263310Y-211177334D01*
X321358548Y-211129715D01*
X321549024Y-211129715D01*
X321644262Y-211177334D01*
X321691881Y-211224953D01*
X321739500Y-211320191D01*
X321739500Y-211510667D01*
X321691881Y-211605905D01*
X321644262Y-211653524D01*
X321549024Y-211701143D01*
X321358548Y-211701143D01*
X321263310Y-211653524D01*
X321215691Y-211605905D01*
X321168072Y-211510667D01*
X320739500Y-212558286D02*
X320739500Y-212367810D01*
X320787120Y-212272572D01*
X320834739Y-212224953D01*
X320977596Y-212129715D01*
X321168072Y-212082096D01*
X321549024Y-212082096D01*
X321644262Y-212129715D01*
X321691881Y-212177334D01*
X321739500Y-212272572D01*
X321739500Y-212463048D01*
X321691881Y-212558286D01*
X321644262Y-212605905D01*
X321549024Y-212653524D01*
X321310929Y-212653524D01*
X321215691Y-212605905D01*
X321168072Y-212558286D01*
X321120453Y-212463048D01*
X321120453Y-212272572D01*
X321168072Y-212177334D01*
X321215691Y-212129715D01*
X321310929Y-212082096D01*
X335709500Y-191127334D02*
X334709500Y-191127334D01*
X334709500Y-191365429D01*
X334757120Y-191508286D01*
X334852358Y-191603524D01*
X334947596Y-191651143D01*
X335138072Y-191698762D01*
X335280929Y-191698762D01*
X335471405Y-191651143D01*
X335566643Y-191603524D01*
X335661881Y-191508286D01*
X335709500Y-191365429D01*
X335709500Y-191127334D01*
X335138072Y-192270191D02*
X335090453Y-192174953D01*
X335042834Y-192127334D01*
X334947596Y-192079715D01*
X334899977Y-192079715D01*
X334804739Y-192127334D01*
X334757120Y-192174953D01*
X334709500Y-192270191D01*
X334709500Y-192460667D01*
X334757120Y-192555905D01*
X334804739Y-192603524D01*
X334899977Y-192651143D01*
X334947596Y-192651143D01*
X335042834Y-192603524D01*
X335090453Y-192555905D01*
X335138072Y-192460667D01*
X335138072Y-192270191D01*
X335185691Y-192174953D01*
X335233310Y-192127334D01*
X335328548Y-192079715D01*
X335519024Y-192079715D01*
X335614262Y-192127334D01*
X335661881Y-192174953D01*
X335709500Y-192270191D01*
X335709500Y-192460667D01*
X335661881Y-192555905D01*
X335614262Y-192603524D01*
X335519024Y-192651143D01*
X335328548Y-192651143D01*
X335233310Y-192603524D01*
X335185691Y-192555905D01*
X335138072Y-192460667D01*
X334709500Y-193555905D02*
X334709500Y-193079715D01*
X335185691Y-193032096D01*
X335138072Y-193079715D01*
X335090453Y-193174953D01*
X335090453Y-193413048D01*
X335138072Y-193508286D01*
X335185691Y-193555905D01*
X335280929Y-193603524D01*
X335519024Y-193603524D01*
X335614262Y-193555905D01*
X335661881Y-193508286D01*
X335709500Y-193413048D01*
X335709500Y-193174953D01*
X335661881Y-193079715D01*
X335614262Y-193032096D01*
X319199500Y-172077334D02*
X318199500Y-172077334D01*
X318199500Y-172315429D01*
X318247120Y-172458286D01*
X318342358Y-172553524D01*
X318437596Y-172601143D01*
X318628072Y-172648762D01*
X318770929Y-172648762D01*
X318961405Y-172601143D01*
X319056643Y-172553524D01*
X319151881Y-172458286D01*
X319199500Y-172315429D01*
X319199500Y-172077334D01*
X318628072Y-173220191D02*
X318580453Y-173124953D01*
X318532834Y-173077334D01*
X318437596Y-173029715D01*
X318389977Y-173029715D01*
X318294739Y-173077334D01*
X318247120Y-173124953D01*
X318199500Y-173220191D01*
X318199500Y-173410667D01*
X318247120Y-173505905D01*
X318294739Y-173553524D01*
X318389977Y-173601143D01*
X318437596Y-173601143D01*
X318532834Y-173553524D01*
X318580453Y-173505905D01*
X318628072Y-173410667D01*
X318628072Y-173220191D01*
X318675691Y-173124953D01*
X318723310Y-173077334D01*
X318818548Y-173029715D01*
X319009024Y-173029715D01*
X319104262Y-173077334D01*
X319151881Y-173124953D01*
X319199500Y-173220191D01*
X319199500Y-173410667D01*
X319151881Y-173505905D01*
X319104262Y-173553524D01*
X319009024Y-173601143D01*
X318818548Y-173601143D01*
X318723310Y-173553524D01*
X318675691Y-173505905D01*
X318628072Y-173410667D01*
X318532834Y-174458286D02*
X319199500Y-174458286D01*
X318151881Y-174220191D02*
X318866167Y-173982096D01*
X318866167Y-174601143D01*
X329359500Y-133977334D02*
X328359500Y-133977334D01*
X328359500Y-134215429D01*
X328407120Y-134358286D01*
X328502358Y-134453524D01*
X328597596Y-134501143D01*
X328788072Y-134548762D01*
X328930929Y-134548762D01*
X329121405Y-134501143D01*
X329216643Y-134453524D01*
X329311881Y-134358286D01*
X329359500Y-134215429D01*
X329359500Y-133977334D01*
X328788072Y-135120191D02*
X328740453Y-135024953D01*
X328692834Y-134977334D01*
X328597596Y-134929715D01*
X328549977Y-134929715D01*
X328454739Y-134977334D01*
X328407120Y-135024953D01*
X328359500Y-135120191D01*
X328359500Y-135310667D01*
X328407120Y-135405905D01*
X328454739Y-135453524D01*
X328549977Y-135501143D01*
X328597596Y-135501143D01*
X328692834Y-135453524D01*
X328740453Y-135405905D01*
X328788072Y-135310667D01*
X328788072Y-135120191D01*
X328835691Y-135024953D01*
X328883310Y-134977334D01*
X328978548Y-134929715D01*
X329169024Y-134929715D01*
X329264262Y-134977334D01*
X329311881Y-135024953D01*
X329359500Y-135120191D01*
X329359500Y-135310667D01*
X329311881Y-135405905D01*
X329264262Y-135453524D01*
X329169024Y-135501143D01*
X328978548Y-135501143D01*
X328883310Y-135453524D01*
X328835691Y-135405905D01*
X328788072Y-135310667D01*
X328359500Y-135834477D02*
X328359500Y-136453524D01*
X328740453Y-136120191D01*
X328740453Y-136263048D01*
X328788072Y-136358286D01*
X328835691Y-136405905D01*
X328930929Y-136453524D01*
X329169024Y-136453524D01*
X329264262Y-136405905D01*
X329311881Y-136358286D01*
X329359500Y-136263048D01*
X329359500Y-135977334D01*
X329311881Y-135882096D01*
X329264262Y-135834477D01*
X329384900Y-105680534D02*
X328384900Y-105680534D01*
X328384900Y-105918629D01*
X328432520Y-106061486D01*
X328527758Y-106156724D01*
X328622996Y-106204343D01*
X328813472Y-106251962D01*
X328956329Y-106251962D01*
X329146805Y-106204343D01*
X329242043Y-106156724D01*
X329337281Y-106061486D01*
X329384900Y-105918629D01*
X329384900Y-105680534D01*
X328813472Y-106823391D02*
X328765853Y-106728153D01*
X328718234Y-106680534D01*
X328622996Y-106632915D01*
X328575377Y-106632915D01*
X328480139Y-106680534D01*
X328432520Y-106728153D01*
X328384900Y-106823391D01*
X328384900Y-107013867D01*
X328432520Y-107109105D01*
X328480139Y-107156724D01*
X328575377Y-107204343D01*
X328622996Y-107204343D01*
X328718234Y-107156724D01*
X328765853Y-107109105D01*
X328813472Y-107013867D01*
X328813472Y-106823391D01*
X328861091Y-106728153D01*
X328908710Y-106680534D01*
X329003948Y-106632915D01*
X329194424Y-106632915D01*
X329289662Y-106680534D01*
X329337281Y-106728153D01*
X329384900Y-106823391D01*
X329384900Y-107013867D01*
X329337281Y-107109105D01*
X329289662Y-107156724D01*
X329194424Y-107204343D01*
X329003948Y-107204343D01*
X328908710Y-107156724D01*
X328861091Y-107109105D01*
X328813472Y-107013867D01*
X328480139Y-107585296D02*
X328432520Y-107632915D01*
X328384900Y-107728153D01*
X328384900Y-107966248D01*
X328432520Y-108061486D01*
X328480139Y-108109105D01*
X328575377Y-108156724D01*
X328670615Y-108156724D01*
X328813472Y-108109105D01*
X329384900Y-107537677D01*
X329384900Y-108156724D01*
X310309500Y-229227334D02*
X309309500Y-229227334D01*
X309309500Y-229465429D01*
X309357120Y-229608286D01*
X309452358Y-229703524D01*
X309547596Y-229751143D01*
X309738072Y-229798762D01*
X309880929Y-229798762D01*
X310071405Y-229751143D01*
X310166643Y-229703524D01*
X310261881Y-229608286D01*
X310309500Y-229465429D01*
X310309500Y-229227334D01*
X309738072Y-230370191D02*
X309690453Y-230274953D01*
X309642834Y-230227334D01*
X309547596Y-230179715D01*
X309499977Y-230179715D01*
X309404739Y-230227334D01*
X309357120Y-230274953D01*
X309309500Y-230370191D01*
X309309500Y-230560667D01*
X309357120Y-230655905D01*
X309404739Y-230703524D01*
X309499977Y-230751143D01*
X309547596Y-230751143D01*
X309642834Y-230703524D01*
X309690453Y-230655905D01*
X309738072Y-230560667D01*
X309738072Y-230370191D01*
X309785691Y-230274953D01*
X309833310Y-230227334D01*
X309928548Y-230179715D01*
X310119024Y-230179715D01*
X310214262Y-230227334D01*
X310261881Y-230274953D01*
X310309500Y-230370191D01*
X310309500Y-230560667D01*
X310261881Y-230655905D01*
X310214262Y-230703524D01*
X310119024Y-230751143D01*
X309928548Y-230751143D01*
X309833310Y-230703524D01*
X309785691Y-230655905D01*
X309738072Y-230560667D01*
X310309500Y-231703524D02*
X310309500Y-231132096D01*
X310309500Y-231417810D02*
X309309500Y-231417810D01*
X309452358Y-231322572D01*
X309547596Y-231227334D01*
X309595215Y-231132096D01*
X305229500Y-191127334D02*
X304229500Y-191127334D01*
X304229500Y-191365429D01*
X304277120Y-191508286D01*
X304372358Y-191603524D01*
X304467596Y-191651143D01*
X304658072Y-191698762D01*
X304800929Y-191698762D01*
X304991405Y-191651143D01*
X305086643Y-191603524D01*
X305181881Y-191508286D01*
X305229500Y-191365429D01*
X305229500Y-191127334D01*
X304658072Y-192270191D02*
X304610453Y-192174953D01*
X304562834Y-192127334D01*
X304467596Y-192079715D01*
X304419977Y-192079715D01*
X304324739Y-192127334D01*
X304277120Y-192174953D01*
X304229500Y-192270191D01*
X304229500Y-192460667D01*
X304277120Y-192555905D01*
X304324739Y-192603524D01*
X304419977Y-192651143D01*
X304467596Y-192651143D01*
X304562834Y-192603524D01*
X304610453Y-192555905D01*
X304658072Y-192460667D01*
X304658072Y-192270191D01*
X304705691Y-192174953D01*
X304753310Y-192127334D01*
X304848548Y-192079715D01*
X305039024Y-192079715D01*
X305134262Y-192127334D01*
X305181881Y-192174953D01*
X305229500Y-192270191D01*
X305229500Y-192460667D01*
X305181881Y-192555905D01*
X305134262Y-192603524D01*
X305039024Y-192651143D01*
X304848548Y-192651143D01*
X304753310Y-192603524D01*
X304705691Y-192555905D01*
X304658072Y-192460667D01*
X304229500Y-193270191D02*
X304229500Y-193365429D01*
X304277120Y-193460667D01*
X304324739Y-193508286D01*
X304419977Y-193555905D01*
X304610453Y-193603524D01*
X304848548Y-193603524D01*
X305039024Y-193555905D01*
X305134262Y-193508286D01*
X305181881Y-193460667D01*
X305229500Y-193365429D01*
X305229500Y-193270191D01*
X305181881Y-193174953D01*
X305134262Y-193127334D01*
X305039024Y-193079715D01*
X304848548Y-193032096D01*
X304610453Y-193032096D01*
X304419977Y-193079715D01*
X304324739Y-193127334D01*
X304277120Y-193174953D01*
X304229500Y-193270191D01*
X300149500Y-172077334D02*
X299149500Y-172077334D01*
X299149500Y-172315429D01*
X299197120Y-172458286D01*
X299292358Y-172553524D01*
X299387596Y-172601143D01*
X299578072Y-172648762D01*
X299720929Y-172648762D01*
X299911405Y-172601143D01*
X300006643Y-172553524D01*
X300101881Y-172458286D01*
X300149500Y-172315429D01*
X300149500Y-172077334D01*
X299149500Y-172982096D02*
X299149500Y-173648762D01*
X300149500Y-173220191D01*
X300149500Y-174077334D02*
X300149500Y-174267810D01*
X300101881Y-174363048D01*
X300054262Y-174410667D01*
X299911405Y-174505905D01*
X299720929Y-174553524D01*
X299339977Y-174553524D01*
X299244739Y-174505905D01*
X299197120Y-174458286D01*
X299149500Y-174363048D01*
X299149500Y-174172572D01*
X299197120Y-174077334D01*
X299244739Y-174029715D01*
X299339977Y-173982096D01*
X299578072Y-173982096D01*
X299673310Y-174029715D01*
X299720929Y-174077334D01*
X299768548Y-174172572D01*
X299768548Y-174363048D01*
X299720929Y-174458286D01*
X299673310Y-174505905D01*
X299578072Y-174553524D01*
X310309500Y-153027334D02*
X309309500Y-153027334D01*
X309309500Y-153265429D01*
X309357120Y-153408286D01*
X309452358Y-153503524D01*
X309547596Y-153551143D01*
X309738072Y-153598762D01*
X309880929Y-153598762D01*
X310071405Y-153551143D01*
X310166643Y-153503524D01*
X310261881Y-153408286D01*
X310309500Y-153265429D01*
X310309500Y-153027334D01*
X309309500Y-153932096D02*
X309309500Y-154598762D01*
X310309500Y-154170191D01*
X309738072Y-155122572D02*
X309690453Y-155027334D01*
X309642834Y-154979715D01*
X309547596Y-154932096D01*
X309499977Y-154932096D01*
X309404739Y-154979715D01*
X309357120Y-155027334D01*
X309309500Y-155122572D01*
X309309500Y-155313048D01*
X309357120Y-155408286D01*
X309404739Y-155455905D01*
X309499977Y-155503524D01*
X309547596Y-155503524D01*
X309642834Y-155455905D01*
X309690453Y-155408286D01*
X309738072Y-155313048D01*
X309738072Y-155122572D01*
X309785691Y-155027334D01*
X309833310Y-154979715D01*
X309928548Y-154932096D01*
X310119024Y-154932096D01*
X310214262Y-154979715D01*
X310261881Y-155027334D01*
X310309500Y-155122572D01*
X310309500Y-155313048D01*
X310261881Y-155408286D01*
X310214262Y-155455905D01*
X310119024Y-155503524D01*
X309928548Y-155503524D01*
X309833310Y-155455905D01*
X309785691Y-155408286D01*
X309738072Y-155313048D01*
X310309500Y-133977334D02*
X309309500Y-133977334D01*
X309309500Y-134215429D01*
X309357120Y-134358286D01*
X309452358Y-134453524D01*
X309547596Y-134501143D01*
X309738072Y-134548762D01*
X309880929Y-134548762D01*
X310071405Y-134501143D01*
X310166643Y-134453524D01*
X310261881Y-134358286D01*
X310309500Y-134215429D01*
X310309500Y-133977334D01*
X309309500Y-134882096D02*
X309309500Y-135548762D01*
X310309500Y-135120191D01*
X309309500Y-135834477D02*
X309309500Y-136501143D01*
X310309500Y-136072572D01*
X310334900Y-105680534D02*
X309334900Y-105680534D01*
X309334900Y-105918629D01*
X309382520Y-106061486D01*
X309477758Y-106156724D01*
X309572996Y-106204343D01*
X309763472Y-106251962D01*
X309906329Y-106251962D01*
X310096805Y-106204343D01*
X310192043Y-106156724D01*
X310287281Y-106061486D01*
X310334900Y-105918629D01*
X310334900Y-105680534D01*
X309334900Y-106585296D02*
X309334900Y-107251962D01*
X310334900Y-106823391D01*
X309334900Y-108061486D02*
X309334900Y-107871010D01*
X309382520Y-107775772D01*
X309430139Y-107728153D01*
X309572996Y-107632915D01*
X309763472Y-107585296D01*
X310144424Y-107585296D01*
X310239662Y-107632915D01*
X310287281Y-107680534D01*
X310334900Y-107775772D01*
X310334900Y-107966248D01*
X310287281Y-108061486D01*
X310239662Y-108109105D01*
X310144424Y-108156724D01*
X309906329Y-108156724D01*
X309811091Y-108109105D01*
X309763472Y-108061486D01*
X309715853Y-107966248D01*
X309715853Y-107775772D01*
X309763472Y-107680534D01*
X309811091Y-107632915D01*
X309906329Y-107585296D01*
X291259500Y-229227334D02*
X290259500Y-229227334D01*
X290259500Y-229465429D01*
X290307120Y-229608286D01*
X290402358Y-229703524D01*
X290497596Y-229751143D01*
X290688072Y-229798762D01*
X290830929Y-229798762D01*
X291021405Y-229751143D01*
X291116643Y-229703524D01*
X291211881Y-229608286D01*
X291259500Y-229465429D01*
X291259500Y-229227334D01*
X290259500Y-230132096D02*
X290259500Y-230798762D01*
X291259500Y-230370191D01*
X290259500Y-231655905D02*
X290259500Y-231179715D01*
X290735691Y-231132096D01*
X290688072Y-231179715D01*
X290640453Y-231274953D01*
X290640453Y-231513048D01*
X290688072Y-231608286D01*
X290735691Y-231655905D01*
X290830929Y-231703524D01*
X291069024Y-231703524D01*
X291164262Y-231655905D01*
X291211881Y-231608286D01*
X291259500Y-231513048D01*
X291259500Y-231274953D01*
X291211881Y-231179715D01*
X291164262Y-231132096D01*
X296339500Y-210177334D02*
X295339500Y-210177334D01*
X295339500Y-210415429D01*
X295387120Y-210558286D01*
X295482358Y-210653524D01*
X295577596Y-210701143D01*
X295768072Y-210748762D01*
X295910929Y-210748762D01*
X296101405Y-210701143D01*
X296196643Y-210653524D01*
X296291881Y-210558286D01*
X296339500Y-210415429D01*
X296339500Y-210177334D01*
X295339500Y-211082096D02*
X295339500Y-211748762D01*
X296339500Y-211320191D01*
X295672834Y-212558286D02*
X296339500Y-212558286D01*
X295291881Y-212320191D02*
X296006167Y-212082096D01*
X296006167Y-212701143D01*
X286179500Y-191127334D02*
X285179500Y-191127334D01*
X285179500Y-191365429D01*
X285227120Y-191508286D01*
X285322358Y-191603524D01*
X285417596Y-191651143D01*
X285608072Y-191698762D01*
X285750929Y-191698762D01*
X285941405Y-191651143D01*
X286036643Y-191603524D01*
X286131881Y-191508286D01*
X286179500Y-191365429D01*
X286179500Y-191127334D01*
X285179500Y-192032096D02*
X285179500Y-192698762D01*
X286179500Y-192270191D01*
X285179500Y-192984477D02*
X285179500Y-193603524D01*
X285560453Y-193270191D01*
X285560453Y-193413048D01*
X285608072Y-193508286D01*
X285655691Y-193555905D01*
X285750929Y-193603524D01*
X285989024Y-193603524D01*
X286084262Y-193555905D01*
X286131881Y-193508286D01*
X286179500Y-193413048D01*
X286179500Y-193127334D01*
X286131881Y-193032096D01*
X286084262Y-192984477D01*
X281099500Y-172077334D02*
X280099500Y-172077334D01*
X280099500Y-172315429D01*
X280147120Y-172458286D01*
X280242358Y-172553524D01*
X280337596Y-172601143D01*
X280528072Y-172648762D01*
X280670929Y-172648762D01*
X280861405Y-172601143D01*
X280956643Y-172553524D01*
X281051881Y-172458286D01*
X281099500Y-172315429D01*
X281099500Y-172077334D01*
X280099500Y-172982096D02*
X280099500Y-173648762D01*
X281099500Y-173220191D01*
X280194739Y-173982096D02*
X280147120Y-174029715D01*
X280099500Y-174124953D01*
X280099500Y-174363048D01*
X280147120Y-174458286D01*
X280194739Y-174505905D01*
X280289977Y-174553524D01*
X280385215Y-174553524D01*
X280528072Y-174505905D01*
X281099500Y-173934477D01*
X281099500Y-174553524D01*
X291259500Y-153027334D02*
X290259500Y-153027334D01*
X290259500Y-153265429D01*
X290307120Y-153408286D01*
X290402358Y-153503524D01*
X290497596Y-153551143D01*
X290688072Y-153598762D01*
X290830929Y-153598762D01*
X291021405Y-153551143D01*
X291116643Y-153503524D01*
X291211881Y-153408286D01*
X291259500Y-153265429D01*
X291259500Y-153027334D01*
X290259500Y-153932096D02*
X290259500Y-154598762D01*
X291259500Y-154170191D01*
X291259500Y-155503524D02*
X291259500Y-154932096D01*
X291259500Y-155217810D02*
X290259500Y-155217810D01*
X290402358Y-155122572D01*
X290497596Y-155027334D01*
X290545215Y-154932096D01*
X291259500Y-133977334D02*
X290259500Y-133977334D01*
X290259500Y-134215429D01*
X290307120Y-134358286D01*
X290402358Y-134453524D01*
X290497596Y-134501143D01*
X290688072Y-134548762D01*
X290830929Y-134548762D01*
X291021405Y-134501143D01*
X291116643Y-134453524D01*
X291211881Y-134358286D01*
X291259500Y-134215429D01*
X291259500Y-133977334D01*
X290259500Y-134882096D02*
X290259500Y-135548762D01*
X291259500Y-135120191D01*
X290259500Y-136120191D02*
X290259500Y-136215429D01*
X290307120Y-136310667D01*
X290354739Y-136358286D01*
X290449977Y-136405905D01*
X290640453Y-136453524D01*
X290878548Y-136453524D01*
X291069024Y-136405905D01*
X291164262Y-136358286D01*
X291211881Y-136310667D01*
X291259500Y-136215429D01*
X291259500Y-136120191D01*
X291211881Y-136024953D01*
X291164262Y-135977334D01*
X291069024Y-135929715D01*
X290878548Y-135882096D01*
X290640453Y-135882096D01*
X290449977Y-135929715D01*
X290354739Y-135977334D01*
X290307120Y-136024953D01*
X290259500Y-136120191D01*
X293537400Y-105498734D02*
X292537400Y-105498734D01*
X292537400Y-105736829D01*
X292585020Y-105879686D01*
X292680258Y-105974924D01*
X292775496Y-106022543D01*
X292965972Y-106070162D01*
X293108829Y-106070162D01*
X293299305Y-106022543D01*
X293394543Y-105974924D01*
X293489781Y-105879686D01*
X293537400Y-105736829D01*
X293537400Y-105498734D01*
X292537400Y-106927305D02*
X292537400Y-106736829D01*
X292585020Y-106641591D01*
X292632639Y-106593972D01*
X292775496Y-106498734D01*
X292965972Y-106451115D01*
X293346924Y-106451115D01*
X293442162Y-106498734D01*
X293489781Y-106546353D01*
X293537400Y-106641591D01*
X293537400Y-106832067D01*
X293489781Y-106927305D01*
X293442162Y-106974924D01*
X293346924Y-107022543D01*
X293108829Y-107022543D01*
X293013591Y-106974924D01*
X292965972Y-106927305D01*
X292918353Y-106832067D01*
X292918353Y-106641591D01*
X292965972Y-106546353D01*
X293013591Y-106498734D01*
X293108829Y-106451115D01*
X293537400Y-107498734D02*
X293537400Y-107689210D01*
X293489781Y-107784448D01*
X293442162Y-107832067D01*
X293299305Y-107927305D01*
X293108829Y-107974924D01*
X292727877Y-107974924D01*
X292632639Y-107927305D01*
X292585020Y-107879686D01*
X292537400Y-107784448D01*
X292537400Y-107593972D01*
X292585020Y-107498734D01*
X292632639Y-107451115D01*
X292727877Y-107403496D01*
X292965972Y-107403496D01*
X293061210Y-107451115D01*
X293108829Y-107498734D01*
X293156448Y-107593972D01*
X293156448Y-107784448D01*
X293108829Y-107879686D01*
X293061210Y-107927305D01*
X292965972Y-107974924D01*
X272209500Y-229227334D02*
X271209500Y-229227334D01*
X271209500Y-229465429D01*
X271257120Y-229608286D01*
X271352358Y-229703524D01*
X271447596Y-229751143D01*
X271638072Y-229798762D01*
X271780929Y-229798762D01*
X271971405Y-229751143D01*
X272066643Y-229703524D01*
X272161881Y-229608286D01*
X272209500Y-229465429D01*
X272209500Y-229227334D01*
X271209500Y-230655905D02*
X271209500Y-230465429D01*
X271257120Y-230370191D01*
X271304739Y-230322572D01*
X271447596Y-230227334D01*
X271638072Y-230179715D01*
X272019024Y-230179715D01*
X272114262Y-230227334D01*
X272161881Y-230274953D01*
X272209500Y-230370191D01*
X272209500Y-230560667D01*
X272161881Y-230655905D01*
X272114262Y-230703524D01*
X272019024Y-230751143D01*
X271780929Y-230751143D01*
X271685691Y-230703524D01*
X271638072Y-230655905D01*
X271590453Y-230560667D01*
X271590453Y-230370191D01*
X271638072Y-230274953D01*
X271685691Y-230227334D01*
X271780929Y-230179715D01*
X271638072Y-231322572D02*
X271590453Y-231227334D01*
X271542834Y-231179715D01*
X271447596Y-231132096D01*
X271399977Y-231132096D01*
X271304739Y-231179715D01*
X271257120Y-231227334D01*
X271209500Y-231322572D01*
X271209500Y-231513048D01*
X271257120Y-231608286D01*
X271304739Y-231655905D01*
X271399977Y-231703524D01*
X271447596Y-231703524D01*
X271542834Y-231655905D01*
X271590453Y-231608286D01*
X271638072Y-231513048D01*
X271638072Y-231322572D01*
X271685691Y-231227334D01*
X271733310Y-231179715D01*
X271828548Y-231132096D01*
X272019024Y-231132096D01*
X272114262Y-231179715D01*
X272161881Y-231227334D01*
X272209500Y-231322572D01*
X272209500Y-231513048D01*
X272161881Y-231608286D01*
X272114262Y-231655905D01*
X272019024Y-231703524D01*
X271828548Y-231703524D01*
X271733310Y-231655905D01*
X271685691Y-231608286D01*
X271638072Y-231513048D01*
X277289500Y-210177334D02*
X276289500Y-210177334D01*
X276289500Y-210415429D01*
X276337120Y-210558286D01*
X276432358Y-210653524D01*
X276527596Y-210701143D01*
X276718072Y-210748762D01*
X276860929Y-210748762D01*
X277051405Y-210701143D01*
X277146643Y-210653524D01*
X277241881Y-210558286D01*
X277289500Y-210415429D01*
X277289500Y-210177334D01*
X276289500Y-211605905D02*
X276289500Y-211415429D01*
X276337120Y-211320191D01*
X276384739Y-211272572D01*
X276527596Y-211177334D01*
X276718072Y-211129715D01*
X277099024Y-211129715D01*
X277194262Y-211177334D01*
X277241881Y-211224953D01*
X277289500Y-211320191D01*
X277289500Y-211510667D01*
X277241881Y-211605905D01*
X277194262Y-211653524D01*
X277099024Y-211701143D01*
X276860929Y-211701143D01*
X276765691Y-211653524D01*
X276718072Y-211605905D01*
X276670453Y-211510667D01*
X276670453Y-211320191D01*
X276718072Y-211224953D01*
X276765691Y-211177334D01*
X276860929Y-211129715D01*
X276289500Y-212034477D02*
X276289500Y-212701143D01*
X277289500Y-212272572D01*
X267129500Y-191127334D02*
X266129500Y-191127334D01*
X266129500Y-191365429D01*
X266177120Y-191508286D01*
X266272358Y-191603524D01*
X266367596Y-191651143D01*
X266558072Y-191698762D01*
X266700929Y-191698762D01*
X266891405Y-191651143D01*
X266986643Y-191603524D01*
X267081881Y-191508286D01*
X267129500Y-191365429D01*
X267129500Y-191127334D01*
X266129500Y-192555905D02*
X266129500Y-192365429D01*
X266177120Y-192270191D01*
X266224739Y-192222572D01*
X266367596Y-192127334D01*
X266558072Y-192079715D01*
X266939024Y-192079715D01*
X267034262Y-192127334D01*
X267081881Y-192174953D01*
X267129500Y-192270191D01*
X267129500Y-192460667D01*
X267081881Y-192555905D01*
X267034262Y-192603524D01*
X266939024Y-192651143D01*
X266700929Y-192651143D01*
X266605691Y-192603524D01*
X266558072Y-192555905D01*
X266510453Y-192460667D01*
X266510453Y-192270191D01*
X266558072Y-192174953D01*
X266605691Y-192127334D01*
X266700929Y-192079715D01*
X266129500Y-193508286D02*
X266129500Y-193317810D01*
X266177120Y-193222572D01*
X266224739Y-193174953D01*
X266367596Y-193079715D01*
X266558072Y-193032096D01*
X266939024Y-193032096D01*
X267034262Y-193079715D01*
X267081881Y-193127334D01*
X267129500Y-193222572D01*
X267129500Y-193413048D01*
X267081881Y-193508286D01*
X267034262Y-193555905D01*
X266939024Y-193603524D01*
X266700929Y-193603524D01*
X266605691Y-193555905D01*
X266558072Y-193508286D01*
X266510453Y-193413048D01*
X266510453Y-193222572D01*
X266558072Y-193127334D01*
X266605691Y-193079715D01*
X266700929Y-193032096D01*
X262049500Y-172077334D02*
X261049500Y-172077334D01*
X261049500Y-172315429D01*
X261097120Y-172458286D01*
X261192358Y-172553524D01*
X261287596Y-172601143D01*
X261478072Y-172648762D01*
X261620929Y-172648762D01*
X261811405Y-172601143D01*
X261906643Y-172553524D01*
X262001881Y-172458286D01*
X262049500Y-172315429D01*
X262049500Y-172077334D01*
X261049500Y-173505905D02*
X261049500Y-173315429D01*
X261097120Y-173220191D01*
X261144739Y-173172572D01*
X261287596Y-173077334D01*
X261478072Y-173029715D01*
X261859024Y-173029715D01*
X261954262Y-173077334D01*
X262001881Y-173124953D01*
X262049500Y-173220191D01*
X262049500Y-173410667D01*
X262001881Y-173505905D01*
X261954262Y-173553524D01*
X261859024Y-173601143D01*
X261620929Y-173601143D01*
X261525691Y-173553524D01*
X261478072Y-173505905D01*
X261430453Y-173410667D01*
X261430453Y-173220191D01*
X261478072Y-173124953D01*
X261525691Y-173077334D01*
X261620929Y-173029715D01*
X261049500Y-174505905D02*
X261049500Y-174029715D01*
X261525691Y-173982096D01*
X261478072Y-174029715D01*
X261430453Y-174124953D01*
X261430453Y-174363048D01*
X261478072Y-174458286D01*
X261525691Y-174505905D01*
X261620929Y-174553524D01*
X261859024Y-174553524D01*
X261954262Y-174505905D01*
X262001881Y-174458286D01*
X262049500Y-174363048D01*
X262049500Y-174124953D01*
X262001881Y-174029715D01*
X261954262Y-173982096D01*
X272209500Y-153027334D02*
X271209500Y-153027334D01*
X271209500Y-153265429D01*
X271257120Y-153408286D01*
X271352358Y-153503524D01*
X271447596Y-153551143D01*
X271638072Y-153598762D01*
X271780929Y-153598762D01*
X271971405Y-153551143D01*
X272066643Y-153503524D01*
X272161881Y-153408286D01*
X272209500Y-153265429D01*
X272209500Y-153027334D01*
X271209500Y-154455905D02*
X271209500Y-154265429D01*
X271257120Y-154170191D01*
X271304739Y-154122572D01*
X271447596Y-154027334D01*
X271638072Y-153979715D01*
X272019024Y-153979715D01*
X272114262Y-154027334D01*
X272161881Y-154074953D01*
X272209500Y-154170191D01*
X272209500Y-154360667D01*
X272161881Y-154455905D01*
X272114262Y-154503524D01*
X272019024Y-154551143D01*
X271780929Y-154551143D01*
X271685691Y-154503524D01*
X271638072Y-154455905D01*
X271590453Y-154360667D01*
X271590453Y-154170191D01*
X271638072Y-154074953D01*
X271685691Y-154027334D01*
X271780929Y-153979715D01*
X271542834Y-155408286D02*
X272209500Y-155408286D01*
X271161881Y-155170191D02*
X271876167Y-154932096D01*
X271876167Y-155551143D01*
X272209500Y-133977334D02*
X271209500Y-133977334D01*
X271209500Y-134215429D01*
X271257120Y-134358286D01*
X271352358Y-134453524D01*
X271447596Y-134501143D01*
X271638072Y-134548762D01*
X271780929Y-134548762D01*
X271971405Y-134501143D01*
X272066643Y-134453524D01*
X272161881Y-134358286D01*
X272209500Y-134215429D01*
X272209500Y-133977334D01*
X271209500Y-135405905D02*
X271209500Y-135215429D01*
X271257120Y-135120191D01*
X271304739Y-135072572D01*
X271447596Y-134977334D01*
X271638072Y-134929715D01*
X272019024Y-134929715D01*
X272114262Y-134977334D01*
X272161881Y-135024953D01*
X272209500Y-135120191D01*
X272209500Y-135310667D01*
X272161881Y-135405905D01*
X272114262Y-135453524D01*
X272019024Y-135501143D01*
X271780929Y-135501143D01*
X271685691Y-135453524D01*
X271638072Y-135405905D01*
X271590453Y-135310667D01*
X271590453Y-135120191D01*
X271638072Y-135024953D01*
X271685691Y-134977334D01*
X271780929Y-134929715D01*
X271209500Y-135834477D02*
X271209500Y-136453524D01*
X271590453Y-136120191D01*
X271590453Y-136263048D01*
X271638072Y-136358286D01*
X271685691Y-136405905D01*
X271780929Y-136453524D01*
X272019024Y-136453524D01*
X272114262Y-136405905D01*
X272161881Y-136358286D01*
X272209500Y-136263048D01*
X272209500Y-135977334D01*
X272161881Y-135882096D01*
X272114262Y-135834477D01*
X258239500Y-210177334D02*
X257239500Y-210177334D01*
X257239500Y-210415429D01*
X257287120Y-210558286D01*
X257382358Y-210653524D01*
X257477596Y-210701143D01*
X257668072Y-210748762D01*
X257810929Y-210748762D01*
X258001405Y-210701143D01*
X258096643Y-210653524D01*
X258191881Y-210558286D01*
X258239500Y-210415429D01*
X258239500Y-210177334D01*
X257239500Y-211605905D02*
X257239500Y-211415429D01*
X257287120Y-211320191D01*
X257334739Y-211272572D01*
X257477596Y-211177334D01*
X257668072Y-211129715D01*
X258049024Y-211129715D01*
X258144262Y-211177334D01*
X258191881Y-211224953D01*
X258239500Y-211320191D01*
X258239500Y-211510667D01*
X258191881Y-211605905D01*
X258144262Y-211653524D01*
X258049024Y-211701143D01*
X257810929Y-211701143D01*
X257715691Y-211653524D01*
X257668072Y-211605905D01*
X257620453Y-211510667D01*
X257620453Y-211320191D01*
X257668072Y-211224953D01*
X257715691Y-211177334D01*
X257810929Y-211129715D01*
X257334739Y-212082096D02*
X257287120Y-212129715D01*
X257239500Y-212224953D01*
X257239500Y-212463048D01*
X257287120Y-212558286D01*
X257334739Y-212605905D01*
X257429977Y-212653524D01*
X257525215Y-212653524D01*
X257668072Y-212605905D01*
X258239500Y-212034477D01*
X258239500Y-212653524D01*
X248079500Y-191127334D02*
X247079500Y-191127334D01*
X247079500Y-191365429D01*
X247127120Y-191508286D01*
X247222358Y-191603524D01*
X247317596Y-191651143D01*
X247508072Y-191698762D01*
X247650929Y-191698762D01*
X247841405Y-191651143D01*
X247936643Y-191603524D01*
X248031881Y-191508286D01*
X248079500Y-191365429D01*
X248079500Y-191127334D01*
X247079500Y-192555905D02*
X247079500Y-192365429D01*
X247127120Y-192270191D01*
X247174739Y-192222572D01*
X247317596Y-192127334D01*
X247508072Y-192079715D01*
X247889024Y-192079715D01*
X247984262Y-192127334D01*
X248031881Y-192174953D01*
X248079500Y-192270191D01*
X248079500Y-192460667D01*
X248031881Y-192555905D01*
X247984262Y-192603524D01*
X247889024Y-192651143D01*
X247650929Y-192651143D01*
X247555691Y-192603524D01*
X247508072Y-192555905D01*
X247460453Y-192460667D01*
X247460453Y-192270191D01*
X247508072Y-192174953D01*
X247555691Y-192127334D01*
X247650929Y-192079715D01*
X248079500Y-193603524D02*
X248079500Y-193032096D01*
X248079500Y-193317810D02*
X247079500Y-193317810D01*
X247222358Y-193222572D01*
X247317596Y-193127334D01*
X247365215Y-193032096D01*
X242999500Y-172077334D02*
X241999500Y-172077334D01*
X241999500Y-172315429D01*
X242047120Y-172458286D01*
X242142358Y-172553524D01*
X242237596Y-172601143D01*
X242428072Y-172648762D01*
X242570929Y-172648762D01*
X242761405Y-172601143D01*
X242856643Y-172553524D01*
X242951881Y-172458286D01*
X242999500Y-172315429D01*
X242999500Y-172077334D01*
X241999500Y-173505905D02*
X241999500Y-173315429D01*
X242047120Y-173220191D01*
X242094739Y-173172572D01*
X242237596Y-173077334D01*
X242428072Y-173029715D01*
X242809024Y-173029715D01*
X242904262Y-173077334D01*
X242951881Y-173124953D01*
X242999500Y-173220191D01*
X242999500Y-173410667D01*
X242951881Y-173505905D01*
X242904262Y-173553524D01*
X242809024Y-173601143D01*
X242570929Y-173601143D01*
X242475691Y-173553524D01*
X242428072Y-173505905D01*
X242380453Y-173410667D01*
X242380453Y-173220191D01*
X242428072Y-173124953D01*
X242475691Y-173077334D01*
X242570929Y-173029715D01*
X241999500Y-174220191D02*
X241999500Y-174315429D01*
X242047120Y-174410667D01*
X242094739Y-174458286D01*
X242189977Y-174505905D01*
X242380453Y-174553524D01*
X242618548Y-174553524D01*
X242809024Y-174505905D01*
X242904262Y-174458286D01*
X242951881Y-174410667D01*
X242999500Y-174315429D01*
X242999500Y-174220191D01*
X242951881Y-174124953D01*
X242904262Y-174077334D01*
X242809024Y-174029715D01*
X242618548Y-173982096D01*
X242380453Y-173982096D01*
X242189977Y-174029715D01*
X242094739Y-174077334D01*
X242047120Y-174124953D01*
X241999500Y-174220191D01*
X253159500Y-153027334D02*
X252159500Y-153027334D01*
X252159500Y-153265429D01*
X252207120Y-153408286D01*
X252302358Y-153503524D01*
X252397596Y-153551143D01*
X252588072Y-153598762D01*
X252730929Y-153598762D01*
X252921405Y-153551143D01*
X253016643Y-153503524D01*
X253111881Y-153408286D01*
X253159500Y-153265429D01*
X253159500Y-153027334D01*
X252159500Y-154503524D02*
X252159500Y-154027334D01*
X252635691Y-153979715D01*
X252588072Y-154027334D01*
X252540453Y-154122572D01*
X252540453Y-154360667D01*
X252588072Y-154455905D01*
X252635691Y-154503524D01*
X252730929Y-154551143D01*
X252969024Y-154551143D01*
X253064262Y-154503524D01*
X253111881Y-154455905D01*
X253159500Y-154360667D01*
X253159500Y-154122572D01*
X253111881Y-154027334D01*
X253064262Y-153979715D01*
X253159500Y-155027334D02*
X253159500Y-155217810D01*
X253111881Y-155313048D01*
X253064262Y-155360667D01*
X252921405Y-155455905D01*
X252730929Y-155503524D01*
X252349977Y-155503524D01*
X252254739Y-155455905D01*
X252207120Y-155408286D01*
X252159500Y-155313048D01*
X252159500Y-155122572D01*
X252207120Y-155027334D01*
X252254739Y-154979715D01*
X252349977Y-154932096D01*
X252588072Y-154932096D01*
X252683310Y-154979715D01*
X252730929Y-155027334D01*
X252778548Y-155122572D01*
X252778548Y-155313048D01*
X252730929Y-155408286D01*
X252683310Y-155455905D01*
X252588072Y-155503524D01*
X253159500Y-133977334D02*
X252159500Y-133977334D01*
X252159500Y-134215429D01*
X252207120Y-134358286D01*
X252302358Y-134453524D01*
X252397596Y-134501143D01*
X252588072Y-134548762D01*
X252730929Y-134548762D01*
X252921405Y-134501143D01*
X253016643Y-134453524D01*
X253111881Y-134358286D01*
X253159500Y-134215429D01*
X253159500Y-133977334D01*
X252159500Y-135453524D02*
X252159500Y-134977334D01*
X252635691Y-134929715D01*
X252588072Y-134977334D01*
X252540453Y-135072572D01*
X252540453Y-135310667D01*
X252588072Y-135405905D01*
X252635691Y-135453524D01*
X252730929Y-135501143D01*
X252969024Y-135501143D01*
X253064262Y-135453524D01*
X253111881Y-135405905D01*
X253159500Y-135310667D01*
X253159500Y-135072572D01*
X253111881Y-134977334D01*
X253064262Y-134929715D01*
X252588072Y-136072572D02*
X252540453Y-135977334D01*
X252492834Y-135929715D01*
X252397596Y-135882096D01*
X252349977Y-135882096D01*
X252254739Y-135929715D01*
X252207120Y-135977334D01*
X252159500Y-136072572D01*
X252159500Y-136263048D01*
X252207120Y-136358286D01*
X252254739Y-136405905D01*
X252349977Y-136453524D01*
X252397596Y-136453524D01*
X252492834Y-136405905D01*
X252540453Y-136358286D01*
X252588072Y-136263048D01*
X252588072Y-136072572D01*
X252635691Y-135977334D01*
X252683310Y-135929715D01*
X252778548Y-135882096D01*
X252969024Y-135882096D01*
X253064262Y-135929715D01*
X253111881Y-135977334D01*
X253159500Y-136072572D01*
X253159500Y-136263048D01*
X253111881Y-136358286D01*
X253064262Y-136405905D01*
X252969024Y-136453524D01*
X252778548Y-136453524D01*
X252683310Y-136405905D01*
X252635691Y-136358286D01*
X252588072Y-136263048D01*
X250783100Y-108283574D02*
X249783100Y-108283574D01*
X249783100Y-108521669D01*
X249830720Y-108664526D01*
X249925958Y-108759764D01*
X250021196Y-108807383D01*
X250211672Y-108855002D01*
X250354529Y-108855002D01*
X250545005Y-108807383D01*
X250640243Y-108759764D01*
X250735481Y-108664526D01*
X250783100Y-108521669D01*
X250783100Y-108283574D01*
X249783100Y-109759764D02*
X249783100Y-109283574D01*
X250259291Y-109235955D01*
X250211672Y-109283574D01*
X250164053Y-109378812D01*
X250164053Y-109616907D01*
X250211672Y-109712145D01*
X250259291Y-109759764D01*
X250354529Y-109807383D01*
X250592624Y-109807383D01*
X250687862Y-109759764D01*
X250735481Y-109712145D01*
X250783100Y-109616907D01*
X250783100Y-109378812D01*
X250735481Y-109283574D01*
X250687862Y-109235955D01*
X249783100Y-110140717D02*
X249783100Y-110807383D01*
X250783100Y-110378812D01*
X239189500Y-210177334D02*
X238189500Y-210177334D01*
X238189500Y-210415429D01*
X238237120Y-210558286D01*
X238332358Y-210653524D01*
X238427596Y-210701143D01*
X238618072Y-210748762D01*
X238760929Y-210748762D01*
X238951405Y-210701143D01*
X239046643Y-210653524D01*
X239141881Y-210558286D01*
X239189500Y-210415429D01*
X239189500Y-210177334D01*
X238189500Y-211653524D02*
X238189500Y-211177334D01*
X238665691Y-211129715D01*
X238618072Y-211177334D01*
X238570453Y-211272572D01*
X238570453Y-211510667D01*
X238618072Y-211605905D01*
X238665691Y-211653524D01*
X238760929Y-211701143D01*
X238999024Y-211701143D01*
X239094262Y-211653524D01*
X239141881Y-211605905D01*
X239189500Y-211510667D01*
X239189500Y-211272572D01*
X239141881Y-211177334D01*
X239094262Y-211129715D01*
X238189500Y-212558286D02*
X238189500Y-212367810D01*
X238237120Y-212272572D01*
X238284739Y-212224953D01*
X238427596Y-212129715D01*
X238618072Y-212082096D01*
X238999024Y-212082096D01*
X239094262Y-212129715D01*
X239141881Y-212177334D01*
X239189500Y-212272572D01*
X239189500Y-212463048D01*
X239141881Y-212558286D01*
X239094262Y-212605905D01*
X238999024Y-212653524D01*
X238760929Y-212653524D01*
X238665691Y-212605905D01*
X238618072Y-212558286D01*
X238570453Y-212463048D01*
X238570453Y-212272572D01*
X238618072Y-212177334D01*
X238665691Y-212129715D01*
X238760929Y-212082096D01*
X229029500Y-191127334D02*
X228029500Y-191127334D01*
X228029500Y-191365429D01*
X228077120Y-191508286D01*
X228172358Y-191603524D01*
X228267596Y-191651143D01*
X228458072Y-191698762D01*
X228600929Y-191698762D01*
X228791405Y-191651143D01*
X228886643Y-191603524D01*
X228981881Y-191508286D01*
X229029500Y-191365429D01*
X229029500Y-191127334D01*
X228029500Y-192603524D02*
X228029500Y-192127334D01*
X228505691Y-192079715D01*
X228458072Y-192127334D01*
X228410453Y-192222572D01*
X228410453Y-192460667D01*
X228458072Y-192555905D01*
X228505691Y-192603524D01*
X228600929Y-192651143D01*
X228839024Y-192651143D01*
X228934262Y-192603524D01*
X228981881Y-192555905D01*
X229029500Y-192460667D01*
X229029500Y-192222572D01*
X228981881Y-192127334D01*
X228934262Y-192079715D01*
X228029500Y-193555905D02*
X228029500Y-193079715D01*
X228505691Y-193032096D01*
X228458072Y-193079715D01*
X228410453Y-193174953D01*
X228410453Y-193413048D01*
X228458072Y-193508286D01*
X228505691Y-193555905D01*
X228600929Y-193603524D01*
X228839024Y-193603524D01*
X228934262Y-193555905D01*
X228981881Y-193508286D01*
X229029500Y-193413048D01*
X229029500Y-193174953D01*
X228981881Y-193079715D01*
X228934262Y-193032096D01*
X223949500Y-172077334D02*
X222949500Y-172077334D01*
X222949500Y-172315429D01*
X222997120Y-172458286D01*
X223092358Y-172553524D01*
X223187596Y-172601143D01*
X223378072Y-172648762D01*
X223520929Y-172648762D01*
X223711405Y-172601143D01*
X223806643Y-172553524D01*
X223901881Y-172458286D01*
X223949500Y-172315429D01*
X223949500Y-172077334D01*
X222949500Y-173553524D02*
X222949500Y-173077334D01*
X223425691Y-173029715D01*
X223378072Y-173077334D01*
X223330453Y-173172572D01*
X223330453Y-173410667D01*
X223378072Y-173505905D01*
X223425691Y-173553524D01*
X223520929Y-173601143D01*
X223759024Y-173601143D01*
X223854262Y-173553524D01*
X223901881Y-173505905D01*
X223949500Y-173410667D01*
X223949500Y-173172572D01*
X223901881Y-173077334D01*
X223854262Y-173029715D01*
X223282834Y-174458286D02*
X223949500Y-174458286D01*
X222901881Y-174220191D02*
X223616167Y-173982096D01*
X223616167Y-174601143D01*
X234109500Y-153027334D02*
X233109500Y-153027334D01*
X233109500Y-153265429D01*
X233157120Y-153408286D01*
X233252358Y-153503524D01*
X233347596Y-153551143D01*
X233538072Y-153598762D01*
X233680929Y-153598762D01*
X233871405Y-153551143D01*
X233966643Y-153503524D01*
X234061881Y-153408286D01*
X234109500Y-153265429D01*
X234109500Y-153027334D01*
X233109500Y-154503524D02*
X233109500Y-154027334D01*
X233585691Y-153979715D01*
X233538072Y-154027334D01*
X233490453Y-154122572D01*
X233490453Y-154360667D01*
X233538072Y-154455905D01*
X233585691Y-154503524D01*
X233680929Y-154551143D01*
X233919024Y-154551143D01*
X234014262Y-154503524D01*
X234061881Y-154455905D01*
X234109500Y-154360667D01*
X234109500Y-154122572D01*
X234061881Y-154027334D01*
X234014262Y-153979715D01*
X233109500Y-154884477D02*
X233109500Y-155503524D01*
X233490453Y-155170191D01*
X233490453Y-155313048D01*
X233538072Y-155408286D01*
X233585691Y-155455905D01*
X233680929Y-155503524D01*
X233919024Y-155503524D01*
X234014262Y-155455905D01*
X234061881Y-155408286D01*
X234109500Y-155313048D01*
X234109500Y-155027334D01*
X234061881Y-154932096D01*
X234014262Y-154884477D01*
X234109500Y-133977334D02*
X233109500Y-133977334D01*
X233109500Y-134215429D01*
X233157120Y-134358286D01*
X233252358Y-134453524D01*
X233347596Y-134501143D01*
X233538072Y-134548762D01*
X233680929Y-134548762D01*
X233871405Y-134501143D01*
X233966643Y-134453524D01*
X234061881Y-134358286D01*
X234109500Y-134215429D01*
X234109500Y-133977334D01*
X233109500Y-135453524D02*
X233109500Y-134977334D01*
X233585691Y-134929715D01*
X233538072Y-134977334D01*
X233490453Y-135072572D01*
X233490453Y-135310667D01*
X233538072Y-135405905D01*
X233585691Y-135453524D01*
X233680929Y-135501143D01*
X233919024Y-135501143D01*
X234014262Y-135453524D01*
X234061881Y-135405905D01*
X234109500Y-135310667D01*
X234109500Y-135072572D01*
X234061881Y-134977334D01*
X234014262Y-134929715D01*
X233204739Y-135882096D02*
X233157120Y-135929715D01*
X233109500Y-136024953D01*
X233109500Y-136263048D01*
X233157120Y-136358286D01*
X233204739Y-136405905D01*
X233299977Y-136453524D01*
X233395215Y-136453524D01*
X233538072Y-136405905D01*
X234109500Y-135834477D01*
X234109500Y-136453524D01*
X234134900Y-105680534D02*
X233134900Y-105680534D01*
X233134900Y-105918629D01*
X233182520Y-106061486D01*
X233277758Y-106156724D01*
X233372996Y-106204343D01*
X233563472Y-106251962D01*
X233706329Y-106251962D01*
X233896805Y-106204343D01*
X233992043Y-106156724D01*
X234087281Y-106061486D01*
X234134900Y-105918629D01*
X234134900Y-105680534D01*
X233134900Y-107156724D02*
X233134900Y-106680534D01*
X233611091Y-106632915D01*
X233563472Y-106680534D01*
X233515853Y-106775772D01*
X233515853Y-107013867D01*
X233563472Y-107109105D01*
X233611091Y-107156724D01*
X233706329Y-107204343D01*
X233944424Y-107204343D01*
X234039662Y-107156724D01*
X234087281Y-107109105D01*
X234134900Y-107013867D01*
X234134900Y-106775772D01*
X234087281Y-106680534D01*
X234039662Y-106632915D01*
X234134900Y-108156724D02*
X234134900Y-107585296D01*
X234134900Y-107871010D02*
X233134900Y-107871010D01*
X233277758Y-107775772D01*
X233372996Y-107680534D01*
X233420615Y-107585296D01*
X220139500Y-210177334D02*
X219139500Y-210177334D01*
X219139500Y-210415429D01*
X219187120Y-210558286D01*
X219282358Y-210653524D01*
X219377596Y-210701143D01*
X219568072Y-210748762D01*
X219710929Y-210748762D01*
X219901405Y-210701143D01*
X219996643Y-210653524D01*
X220091881Y-210558286D01*
X220139500Y-210415429D01*
X220139500Y-210177334D01*
X219139500Y-211653524D02*
X219139500Y-211177334D01*
X219615691Y-211129715D01*
X219568072Y-211177334D01*
X219520453Y-211272572D01*
X219520453Y-211510667D01*
X219568072Y-211605905D01*
X219615691Y-211653524D01*
X219710929Y-211701143D01*
X219949024Y-211701143D01*
X220044262Y-211653524D01*
X220091881Y-211605905D01*
X220139500Y-211510667D01*
X220139500Y-211272572D01*
X220091881Y-211177334D01*
X220044262Y-211129715D01*
X219139500Y-212320191D02*
X219139500Y-212415429D01*
X219187120Y-212510667D01*
X219234739Y-212558286D01*
X219329977Y-212605905D01*
X219520453Y-212653524D01*
X219758548Y-212653524D01*
X219949024Y-212605905D01*
X220044262Y-212558286D01*
X220091881Y-212510667D01*
X220139500Y-212415429D01*
X220139500Y-212320191D01*
X220091881Y-212224953D01*
X220044262Y-212177334D01*
X219949024Y-212129715D01*
X219758548Y-212082096D01*
X219520453Y-212082096D01*
X219329977Y-212129715D01*
X219234739Y-212177334D01*
X219187120Y-212224953D01*
X219139500Y-212320191D01*
X209979500Y-191127334D02*
X208979500Y-191127334D01*
X208979500Y-191365429D01*
X209027120Y-191508286D01*
X209122358Y-191603524D01*
X209217596Y-191651143D01*
X209408072Y-191698762D01*
X209550929Y-191698762D01*
X209741405Y-191651143D01*
X209836643Y-191603524D01*
X209931881Y-191508286D01*
X209979500Y-191365429D01*
X209979500Y-191127334D01*
X209312834Y-192555905D02*
X209979500Y-192555905D01*
X208931881Y-192317810D02*
X209646167Y-192079715D01*
X209646167Y-192698762D01*
X209979500Y-193127334D02*
X209979500Y-193317810D01*
X209931881Y-193413048D01*
X209884262Y-193460667D01*
X209741405Y-193555905D01*
X209550929Y-193603524D01*
X209169977Y-193603524D01*
X209074739Y-193555905D01*
X209027120Y-193508286D01*
X208979500Y-193413048D01*
X208979500Y-193222572D01*
X209027120Y-193127334D01*
X209074739Y-193079715D01*
X209169977Y-193032096D01*
X209408072Y-193032096D01*
X209503310Y-193079715D01*
X209550929Y-193127334D01*
X209598548Y-193222572D01*
X209598548Y-193413048D01*
X209550929Y-193508286D01*
X209503310Y-193555905D01*
X209408072Y-193603524D01*
X204899500Y-172077334D02*
X203899500Y-172077334D01*
X203899500Y-172315429D01*
X203947120Y-172458286D01*
X204042358Y-172553524D01*
X204137596Y-172601143D01*
X204328072Y-172648762D01*
X204470929Y-172648762D01*
X204661405Y-172601143D01*
X204756643Y-172553524D01*
X204851881Y-172458286D01*
X204899500Y-172315429D01*
X204899500Y-172077334D01*
X204232834Y-173505905D02*
X204899500Y-173505905D01*
X203851881Y-173267810D02*
X204566167Y-173029715D01*
X204566167Y-173648762D01*
X204328072Y-174172572D02*
X204280453Y-174077334D01*
X204232834Y-174029715D01*
X204137596Y-173982096D01*
X204089977Y-173982096D01*
X203994739Y-174029715D01*
X203947120Y-174077334D01*
X203899500Y-174172572D01*
X203899500Y-174363048D01*
X203947120Y-174458286D01*
X203994739Y-174505905D01*
X204089977Y-174553524D01*
X204137596Y-174553524D01*
X204232834Y-174505905D01*
X204280453Y-174458286D01*
X204328072Y-174363048D01*
X204328072Y-174172572D01*
X204375691Y-174077334D01*
X204423310Y-174029715D01*
X204518548Y-173982096D01*
X204709024Y-173982096D01*
X204804262Y-174029715D01*
X204851881Y-174077334D01*
X204899500Y-174172572D01*
X204899500Y-174363048D01*
X204851881Y-174458286D01*
X204804262Y-174505905D01*
X204709024Y-174553524D01*
X204518548Y-174553524D01*
X204423310Y-174505905D01*
X204375691Y-174458286D01*
X204328072Y-174363048D01*
X215059500Y-153027334D02*
X214059500Y-153027334D01*
X214059500Y-153265429D01*
X214107120Y-153408286D01*
X214202358Y-153503524D01*
X214297596Y-153551143D01*
X214488072Y-153598762D01*
X214630929Y-153598762D01*
X214821405Y-153551143D01*
X214916643Y-153503524D01*
X215011881Y-153408286D01*
X215059500Y-153265429D01*
X215059500Y-153027334D01*
X214392834Y-154455905D02*
X215059500Y-154455905D01*
X214011881Y-154217810D02*
X214726167Y-153979715D01*
X214726167Y-154598762D01*
X214059500Y-154884477D02*
X214059500Y-155551143D01*
X215059500Y-155122572D01*
X215059500Y-133977334D02*
X214059500Y-133977334D01*
X214059500Y-134215429D01*
X214107120Y-134358286D01*
X214202358Y-134453524D01*
X214297596Y-134501143D01*
X214488072Y-134548762D01*
X214630929Y-134548762D01*
X214821405Y-134501143D01*
X214916643Y-134453524D01*
X215011881Y-134358286D01*
X215059500Y-134215429D01*
X215059500Y-133977334D01*
X214392834Y-135405905D02*
X215059500Y-135405905D01*
X214011881Y-135167810D02*
X214726167Y-134929715D01*
X214726167Y-135548762D01*
X214059500Y-136358286D02*
X214059500Y-136167810D01*
X214107120Y-136072572D01*
X214154739Y-136024953D01*
X214297596Y-135929715D01*
X214488072Y-135882096D01*
X214869024Y-135882096D01*
X214964262Y-135929715D01*
X215011881Y-135977334D01*
X215059500Y-136072572D01*
X215059500Y-136263048D01*
X215011881Y-136358286D01*
X214964262Y-136405905D01*
X214869024Y-136453524D01*
X214630929Y-136453524D01*
X214535691Y-136405905D01*
X214488072Y-136358286D01*
X214440453Y-136263048D01*
X214440453Y-136072572D01*
X214488072Y-135977334D01*
X214535691Y-135929715D01*
X214630929Y-135882096D01*
X215084900Y-105680534D02*
X214084900Y-105680534D01*
X214084900Y-105918629D01*
X214132520Y-106061486D01*
X214227758Y-106156724D01*
X214322996Y-106204343D01*
X214513472Y-106251962D01*
X214656329Y-106251962D01*
X214846805Y-106204343D01*
X214942043Y-106156724D01*
X215037281Y-106061486D01*
X215084900Y-105918629D01*
X215084900Y-105680534D01*
X214418234Y-107109105D02*
X215084900Y-107109105D01*
X214037281Y-106871010D02*
X214751567Y-106632915D01*
X214751567Y-107251962D01*
X214084900Y-108109105D02*
X214084900Y-107632915D01*
X214561091Y-107585296D01*
X214513472Y-107632915D01*
X214465853Y-107728153D01*
X214465853Y-107966248D01*
X214513472Y-108061486D01*
X214561091Y-108109105D01*
X214656329Y-108156724D01*
X214894424Y-108156724D01*
X214989662Y-108109105D01*
X215037281Y-108061486D01*
X215084900Y-107966248D01*
X215084900Y-107728153D01*
X215037281Y-107632915D01*
X214989662Y-107585296D01*
X202359500Y-229227334D02*
X201359500Y-229227334D01*
X201359500Y-229465429D01*
X201407120Y-229608286D01*
X201502358Y-229703524D01*
X201597596Y-229751143D01*
X201788072Y-229798762D01*
X201930929Y-229798762D01*
X202121405Y-229751143D01*
X202216643Y-229703524D01*
X202311881Y-229608286D01*
X202359500Y-229465429D01*
X202359500Y-229227334D01*
X201692834Y-230655905D02*
X202359500Y-230655905D01*
X201311881Y-230417810D02*
X202026167Y-230179715D01*
X202026167Y-230798762D01*
X201692834Y-231608286D02*
X202359500Y-231608286D01*
X201311881Y-231370191D02*
X202026167Y-231132096D01*
X202026167Y-231751143D01*
X201089500Y-210177334D02*
X200089500Y-210177334D01*
X200089500Y-210415429D01*
X200137120Y-210558286D01*
X200232358Y-210653524D01*
X200327596Y-210701143D01*
X200518072Y-210748762D01*
X200660929Y-210748762D01*
X200851405Y-210701143D01*
X200946643Y-210653524D01*
X201041881Y-210558286D01*
X201089500Y-210415429D01*
X201089500Y-210177334D01*
X200422834Y-211605905D02*
X201089500Y-211605905D01*
X200041881Y-211367810D02*
X200756167Y-211129715D01*
X200756167Y-211748762D01*
X200089500Y-212034477D02*
X200089500Y-212653524D01*
X200470453Y-212320191D01*
X200470453Y-212463048D01*
X200518072Y-212558286D01*
X200565691Y-212605905D01*
X200660929Y-212653524D01*
X200899024Y-212653524D01*
X200994262Y-212605905D01*
X201041881Y-212558286D01*
X201089500Y-212463048D01*
X201089500Y-212177334D01*
X201041881Y-212082096D01*
X200994262Y-212034477D01*
X190929500Y-191127334D02*
X189929500Y-191127334D01*
X189929500Y-191365429D01*
X189977120Y-191508286D01*
X190072358Y-191603524D01*
X190167596Y-191651143D01*
X190358072Y-191698762D01*
X190500929Y-191698762D01*
X190691405Y-191651143D01*
X190786643Y-191603524D01*
X190881881Y-191508286D01*
X190929500Y-191365429D01*
X190929500Y-191127334D01*
X190262834Y-192555905D02*
X190929500Y-192555905D01*
X189881881Y-192317810D02*
X190596167Y-192079715D01*
X190596167Y-192698762D01*
X190024739Y-193032096D02*
X189977120Y-193079715D01*
X189929500Y-193174953D01*
X189929500Y-193413048D01*
X189977120Y-193508286D01*
X190024739Y-193555905D01*
X190119977Y-193603524D01*
X190215215Y-193603524D01*
X190358072Y-193555905D01*
X190929500Y-192984477D01*
X190929500Y-193603524D01*
X185849500Y-172077334D02*
X184849500Y-172077334D01*
X184849500Y-172315429D01*
X184897120Y-172458286D01*
X184992358Y-172553524D01*
X185087596Y-172601143D01*
X185278072Y-172648762D01*
X185420929Y-172648762D01*
X185611405Y-172601143D01*
X185706643Y-172553524D01*
X185801881Y-172458286D01*
X185849500Y-172315429D01*
X185849500Y-172077334D01*
X185182834Y-173505905D02*
X185849500Y-173505905D01*
X184801881Y-173267810D02*
X185516167Y-173029715D01*
X185516167Y-173648762D01*
X185849500Y-174553524D02*
X185849500Y-173982096D01*
X185849500Y-174267810D02*
X184849500Y-174267810D01*
X184992358Y-174172572D01*
X185087596Y-174077334D01*
X185135215Y-173982096D01*
X196009500Y-153027334D02*
X195009500Y-153027334D01*
X195009500Y-153265429D01*
X195057120Y-153408286D01*
X195152358Y-153503524D01*
X195247596Y-153551143D01*
X195438072Y-153598762D01*
X195580929Y-153598762D01*
X195771405Y-153551143D01*
X195866643Y-153503524D01*
X195961881Y-153408286D01*
X196009500Y-153265429D01*
X196009500Y-153027334D01*
X195342834Y-154455905D02*
X196009500Y-154455905D01*
X194961881Y-154217810D02*
X195676167Y-153979715D01*
X195676167Y-154598762D01*
X195009500Y-155170191D02*
X195009500Y-155265429D01*
X195057120Y-155360667D01*
X195104739Y-155408286D01*
X195199977Y-155455905D01*
X195390453Y-155503524D01*
X195628548Y-155503524D01*
X195819024Y-155455905D01*
X195914262Y-155408286D01*
X195961881Y-155360667D01*
X196009500Y-155265429D01*
X196009500Y-155170191D01*
X195961881Y-155074953D01*
X195914262Y-155027334D01*
X195819024Y-154979715D01*
X195628548Y-154932096D01*
X195390453Y-154932096D01*
X195199977Y-154979715D01*
X195104739Y-155027334D01*
X195057120Y-155074953D01*
X195009500Y-155170191D01*
X196009500Y-133977334D02*
X195009500Y-133977334D01*
X195009500Y-134215429D01*
X195057120Y-134358286D01*
X195152358Y-134453524D01*
X195247596Y-134501143D01*
X195438072Y-134548762D01*
X195580929Y-134548762D01*
X195771405Y-134501143D01*
X195866643Y-134453524D01*
X195961881Y-134358286D01*
X196009500Y-134215429D01*
X196009500Y-133977334D01*
X195009500Y-134882096D02*
X195009500Y-135501143D01*
X195390453Y-135167810D01*
X195390453Y-135310667D01*
X195438072Y-135405905D01*
X195485691Y-135453524D01*
X195580929Y-135501143D01*
X195819024Y-135501143D01*
X195914262Y-135453524D01*
X195961881Y-135405905D01*
X196009500Y-135310667D01*
X196009500Y-135024953D01*
X195961881Y-134929715D01*
X195914262Y-134882096D01*
X196009500Y-135977334D02*
X196009500Y-136167810D01*
X195961881Y-136263048D01*
X195914262Y-136310667D01*
X195771405Y-136405905D01*
X195580929Y-136453524D01*
X195199977Y-136453524D01*
X195104739Y-136405905D01*
X195057120Y-136358286D01*
X195009500Y-136263048D01*
X195009500Y-136072572D01*
X195057120Y-135977334D01*
X195104739Y-135929715D01*
X195199977Y-135882096D01*
X195438072Y-135882096D01*
X195533310Y-135929715D01*
X195580929Y-135977334D01*
X195628548Y-136072572D01*
X195628548Y-136263048D01*
X195580929Y-136358286D01*
X195533310Y-136405905D01*
X195438072Y-136453524D01*
X196034900Y-105680534D02*
X195034900Y-105680534D01*
X195034900Y-105918629D01*
X195082520Y-106061486D01*
X195177758Y-106156724D01*
X195272996Y-106204343D01*
X195463472Y-106251962D01*
X195606329Y-106251962D01*
X195796805Y-106204343D01*
X195892043Y-106156724D01*
X195987281Y-106061486D01*
X196034900Y-105918629D01*
X196034900Y-105680534D01*
X195034900Y-106585296D02*
X195034900Y-107204343D01*
X195415853Y-106871010D01*
X195415853Y-107013867D01*
X195463472Y-107109105D01*
X195511091Y-107156724D01*
X195606329Y-107204343D01*
X195844424Y-107204343D01*
X195939662Y-107156724D01*
X195987281Y-107109105D01*
X196034900Y-107013867D01*
X196034900Y-106728153D01*
X195987281Y-106632915D01*
X195939662Y-106585296D01*
X195463472Y-107775772D02*
X195415853Y-107680534D01*
X195368234Y-107632915D01*
X195272996Y-107585296D01*
X195225377Y-107585296D01*
X195130139Y-107632915D01*
X195082520Y-107680534D01*
X195034900Y-107775772D01*
X195034900Y-107966248D01*
X195082520Y-108061486D01*
X195130139Y-108109105D01*
X195225377Y-108156724D01*
X195272996Y-108156724D01*
X195368234Y-108109105D01*
X195415853Y-108061486D01*
X195463472Y-107966248D01*
X195463472Y-107775772D01*
X195511091Y-107680534D01*
X195558710Y-107632915D01*
X195653948Y-107585296D01*
X195844424Y-107585296D01*
X195939662Y-107632915D01*
X195987281Y-107680534D01*
X196034900Y-107775772D01*
X196034900Y-107966248D01*
X195987281Y-108061486D01*
X195939662Y-108109105D01*
X195844424Y-108156724D01*
X195653948Y-108156724D01*
X195558710Y-108109105D01*
X195511091Y-108061486D01*
X195463472Y-107966248D01*
X182039500Y-210177334D02*
X181039500Y-210177334D01*
X181039500Y-210415429D01*
X181087120Y-210558286D01*
X181182358Y-210653524D01*
X181277596Y-210701143D01*
X181468072Y-210748762D01*
X181610929Y-210748762D01*
X181801405Y-210701143D01*
X181896643Y-210653524D01*
X181991881Y-210558286D01*
X182039500Y-210415429D01*
X182039500Y-210177334D01*
X181039500Y-211082096D02*
X181039500Y-211701143D01*
X181420453Y-211367810D01*
X181420453Y-211510667D01*
X181468072Y-211605905D01*
X181515691Y-211653524D01*
X181610929Y-211701143D01*
X181849024Y-211701143D01*
X181944262Y-211653524D01*
X181991881Y-211605905D01*
X182039500Y-211510667D01*
X182039500Y-211224953D01*
X181991881Y-211129715D01*
X181944262Y-211082096D01*
X181039500Y-212034477D02*
X181039500Y-212701143D01*
X182039500Y-212272572D01*
X171879500Y-191127334D02*
X170879500Y-191127334D01*
X170879500Y-191365429D01*
X170927120Y-191508286D01*
X171022358Y-191603524D01*
X171117596Y-191651143D01*
X171308072Y-191698762D01*
X171450929Y-191698762D01*
X171641405Y-191651143D01*
X171736643Y-191603524D01*
X171831881Y-191508286D01*
X171879500Y-191365429D01*
X171879500Y-191127334D01*
X170879500Y-192032096D02*
X170879500Y-192651143D01*
X171260453Y-192317810D01*
X171260453Y-192460667D01*
X171308072Y-192555905D01*
X171355691Y-192603524D01*
X171450929Y-192651143D01*
X171689024Y-192651143D01*
X171784262Y-192603524D01*
X171831881Y-192555905D01*
X171879500Y-192460667D01*
X171879500Y-192174953D01*
X171831881Y-192079715D01*
X171784262Y-192032096D01*
X170879500Y-193508286D02*
X170879500Y-193317810D01*
X170927120Y-193222572D01*
X170974739Y-193174953D01*
X171117596Y-193079715D01*
X171308072Y-193032096D01*
X171689024Y-193032096D01*
X171784262Y-193079715D01*
X171831881Y-193127334D01*
X171879500Y-193222572D01*
X171879500Y-193413048D01*
X171831881Y-193508286D01*
X171784262Y-193555905D01*
X171689024Y-193603524D01*
X171450929Y-193603524D01*
X171355691Y-193555905D01*
X171308072Y-193508286D01*
X171260453Y-193413048D01*
X171260453Y-193222572D01*
X171308072Y-193127334D01*
X171355691Y-193079715D01*
X171450929Y-193032096D01*
X166799500Y-172077334D02*
X165799500Y-172077334D01*
X165799500Y-172315429D01*
X165847120Y-172458286D01*
X165942358Y-172553524D01*
X166037596Y-172601143D01*
X166228072Y-172648762D01*
X166370929Y-172648762D01*
X166561405Y-172601143D01*
X166656643Y-172553524D01*
X166751881Y-172458286D01*
X166799500Y-172315429D01*
X166799500Y-172077334D01*
X165799500Y-172982096D02*
X165799500Y-173601143D01*
X166180453Y-173267810D01*
X166180453Y-173410667D01*
X166228072Y-173505905D01*
X166275691Y-173553524D01*
X166370929Y-173601143D01*
X166609024Y-173601143D01*
X166704262Y-173553524D01*
X166751881Y-173505905D01*
X166799500Y-173410667D01*
X166799500Y-173124953D01*
X166751881Y-173029715D01*
X166704262Y-172982096D01*
X165799500Y-174505905D02*
X165799500Y-174029715D01*
X166275691Y-173982096D01*
X166228072Y-174029715D01*
X166180453Y-174124953D01*
X166180453Y-174363048D01*
X166228072Y-174458286D01*
X166275691Y-174505905D01*
X166370929Y-174553524D01*
X166609024Y-174553524D01*
X166704262Y-174505905D01*
X166751881Y-174458286D01*
X166799500Y-174363048D01*
X166799500Y-174124953D01*
X166751881Y-174029715D01*
X166704262Y-173982096D01*
X176959500Y-153027334D02*
X175959500Y-153027334D01*
X175959500Y-153265429D01*
X176007120Y-153408286D01*
X176102358Y-153503524D01*
X176197596Y-153551143D01*
X176388072Y-153598762D01*
X176530929Y-153598762D01*
X176721405Y-153551143D01*
X176816643Y-153503524D01*
X176911881Y-153408286D01*
X176959500Y-153265429D01*
X176959500Y-153027334D01*
X175959500Y-153932096D02*
X175959500Y-154551143D01*
X176340453Y-154217810D01*
X176340453Y-154360667D01*
X176388072Y-154455905D01*
X176435691Y-154503524D01*
X176530929Y-154551143D01*
X176769024Y-154551143D01*
X176864262Y-154503524D01*
X176911881Y-154455905D01*
X176959500Y-154360667D01*
X176959500Y-154074953D01*
X176911881Y-153979715D01*
X176864262Y-153932096D01*
X176292834Y-155408286D02*
X176959500Y-155408286D01*
X175911881Y-155170191D02*
X176626167Y-154932096D01*
X176626167Y-155551143D01*
X176959500Y-133977334D02*
X175959500Y-133977334D01*
X175959500Y-134215429D01*
X176007120Y-134358286D01*
X176102358Y-134453524D01*
X176197596Y-134501143D01*
X176388072Y-134548762D01*
X176530929Y-134548762D01*
X176721405Y-134501143D01*
X176816643Y-134453524D01*
X176911881Y-134358286D01*
X176959500Y-134215429D01*
X176959500Y-133977334D01*
X175959500Y-134882096D02*
X175959500Y-135501143D01*
X176340453Y-135167810D01*
X176340453Y-135310667D01*
X176388072Y-135405905D01*
X176435691Y-135453524D01*
X176530929Y-135501143D01*
X176769024Y-135501143D01*
X176864262Y-135453524D01*
X176911881Y-135405905D01*
X176959500Y-135310667D01*
X176959500Y-135024953D01*
X176911881Y-134929715D01*
X176864262Y-134882096D01*
X175959500Y-135834477D02*
X175959500Y-136453524D01*
X176340453Y-136120191D01*
X176340453Y-136263048D01*
X176388072Y-136358286D01*
X176435691Y-136405905D01*
X176530929Y-136453524D01*
X176769024Y-136453524D01*
X176864262Y-136405905D01*
X176911881Y-136358286D01*
X176959500Y-136263048D01*
X176959500Y-135977334D01*
X176911881Y-135882096D01*
X176864262Y-135834477D01*
X176984900Y-105680534D02*
X175984900Y-105680534D01*
X175984900Y-105918629D01*
X176032520Y-106061486D01*
X176127758Y-106156724D01*
X176222996Y-106204343D01*
X176413472Y-106251962D01*
X176556329Y-106251962D01*
X176746805Y-106204343D01*
X176842043Y-106156724D01*
X176937281Y-106061486D01*
X176984900Y-105918629D01*
X176984900Y-105680534D01*
X175984900Y-106585296D02*
X175984900Y-107204343D01*
X176365853Y-106871010D01*
X176365853Y-107013867D01*
X176413472Y-107109105D01*
X176461091Y-107156724D01*
X176556329Y-107204343D01*
X176794424Y-107204343D01*
X176889662Y-107156724D01*
X176937281Y-107109105D01*
X176984900Y-107013867D01*
X176984900Y-106728153D01*
X176937281Y-106632915D01*
X176889662Y-106585296D01*
X176080139Y-107585296D02*
X176032520Y-107632915D01*
X175984900Y-107728153D01*
X175984900Y-107966248D01*
X176032520Y-108061486D01*
X176080139Y-108109105D01*
X176175377Y-108156724D01*
X176270615Y-108156724D01*
X176413472Y-108109105D01*
X176984900Y-107537677D01*
X176984900Y-108156724D01*
X162989500Y-210177334D02*
X161989500Y-210177334D01*
X161989500Y-210415429D01*
X162037120Y-210558286D01*
X162132358Y-210653524D01*
X162227596Y-210701143D01*
X162418072Y-210748762D01*
X162560929Y-210748762D01*
X162751405Y-210701143D01*
X162846643Y-210653524D01*
X162941881Y-210558286D01*
X162989500Y-210415429D01*
X162989500Y-210177334D01*
X161989500Y-211082096D02*
X161989500Y-211701143D01*
X162370453Y-211367810D01*
X162370453Y-211510667D01*
X162418072Y-211605905D01*
X162465691Y-211653524D01*
X162560929Y-211701143D01*
X162799024Y-211701143D01*
X162894262Y-211653524D01*
X162941881Y-211605905D01*
X162989500Y-211510667D01*
X162989500Y-211224953D01*
X162941881Y-211129715D01*
X162894262Y-211082096D01*
X161989500Y-212320191D02*
X161989500Y-212415429D01*
X162037120Y-212510667D01*
X162084739Y-212558286D01*
X162179977Y-212605905D01*
X162370453Y-212653524D01*
X162608548Y-212653524D01*
X162799024Y-212605905D01*
X162894262Y-212558286D01*
X162941881Y-212510667D01*
X162989500Y-212415429D01*
X162989500Y-212320191D01*
X162941881Y-212224953D01*
X162894262Y-212177334D01*
X162799024Y-212129715D01*
X162608548Y-212082096D01*
X162370453Y-212082096D01*
X162179977Y-212129715D01*
X162084739Y-212177334D01*
X162037120Y-212224953D01*
X161989500Y-212320191D01*
X152829500Y-191127334D02*
X151829500Y-191127334D01*
X151829500Y-191365429D01*
X151877120Y-191508286D01*
X151972358Y-191603524D01*
X152067596Y-191651143D01*
X152258072Y-191698762D01*
X152400929Y-191698762D01*
X152591405Y-191651143D01*
X152686643Y-191603524D01*
X152781881Y-191508286D01*
X152829500Y-191365429D01*
X152829500Y-191127334D01*
X151924739Y-192079715D02*
X151877120Y-192127334D01*
X151829500Y-192222572D01*
X151829500Y-192460667D01*
X151877120Y-192555905D01*
X151924739Y-192603524D01*
X152019977Y-192651143D01*
X152115215Y-192651143D01*
X152258072Y-192603524D01*
X152829500Y-192032096D01*
X152829500Y-192651143D01*
X152829500Y-193127334D02*
X152829500Y-193317810D01*
X152781881Y-193413048D01*
X152734262Y-193460667D01*
X152591405Y-193555905D01*
X152400929Y-193603524D01*
X152019977Y-193603524D01*
X151924739Y-193555905D01*
X151877120Y-193508286D01*
X151829500Y-193413048D01*
X151829500Y-193222572D01*
X151877120Y-193127334D01*
X151924739Y-193079715D01*
X152019977Y-193032096D01*
X152258072Y-193032096D01*
X152353310Y-193079715D01*
X152400929Y-193127334D01*
X152448548Y-193222572D01*
X152448548Y-193413048D01*
X152400929Y-193508286D01*
X152353310Y-193555905D01*
X152258072Y-193603524D01*
X147749500Y-172077334D02*
X146749500Y-172077334D01*
X146749500Y-172315429D01*
X146797120Y-172458286D01*
X146892358Y-172553524D01*
X146987596Y-172601143D01*
X147178072Y-172648762D01*
X147320929Y-172648762D01*
X147511405Y-172601143D01*
X147606643Y-172553524D01*
X147701881Y-172458286D01*
X147749500Y-172315429D01*
X147749500Y-172077334D01*
X146844739Y-173029715D02*
X146797120Y-173077334D01*
X146749500Y-173172572D01*
X146749500Y-173410667D01*
X146797120Y-173505905D01*
X146844739Y-173553524D01*
X146939977Y-173601143D01*
X147035215Y-173601143D01*
X147178072Y-173553524D01*
X147749500Y-172982096D01*
X147749500Y-173601143D01*
X147178072Y-174172572D02*
X147130453Y-174077334D01*
X147082834Y-174029715D01*
X146987596Y-173982096D01*
X146939977Y-173982096D01*
X146844739Y-174029715D01*
X146797120Y-174077334D01*
X146749500Y-174172572D01*
X146749500Y-174363048D01*
X146797120Y-174458286D01*
X146844739Y-174505905D01*
X146939977Y-174553524D01*
X146987596Y-174553524D01*
X147082834Y-174505905D01*
X147130453Y-174458286D01*
X147178072Y-174363048D01*
X147178072Y-174172572D01*
X147225691Y-174077334D01*
X147273310Y-174029715D01*
X147368548Y-173982096D01*
X147559024Y-173982096D01*
X147654262Y-174029715D01*
X147701881Y-174077334D01*
X147749500Y-174172572D01*
X147749500Y-174363048D01*
X147701881Y-174458286D01*
X147654262Y-174505905D01*
X147559024Y-174553524D01*
X147368548Y-174553524D01*
X147273310Y-174505905D01*
X147225691Y-174458286D01*
X147178072Y-174363048D01*
X157909500Y-153027334D02*
X156909500Y-153027334D01*
X156909500Y-153265429D01*
X156957120Y-153408286D01*
X157052358Y-153503524D01*
X157147596Y-153551143D01*
X157338072Y-153598762D01*
X157480929Y-153598762D01*
X157671405Y-153551143D01*
X157766643Y-153503524D01*
X157861881Y-153408286D01*
X157909500Y-153265429D01*
X157909500Y-153027334D01*
X157004739Y-153979715D02*
X156957120Y-154027334D01*
X156909500Y-154122572D01*
X156909500Y-154360667D01*
X156957120Y-154455905D01*
X157004739Y-154503524D01*
X157099977Y-154551143D01*
X157195215Y-154551143D01*
X157338072Y-154503524D01*
X157909500Y-153932096D01*
X157909500Y-154551143D01*
X156909500Y-154884477D02*
X156909500Y-155551143D01*
X157909500Y-155122572D01*
X157909500Y-133977334D02*
X156909500Y-133977334D01*
X156909500Y-134215429D01*
X156957120Y-134358286D01*
X157052358Y-134453524D01*
X157147596Y-134501143D01*
X157338072Y-134548762D01*
X157480929Y-134548762D01*
X157671405Y-134501143D01*
X157766643Y-134453524D01*
X157861881Y-134358286D01*
X157909500Y-134215429D01*
X157909500Y-133977334D01*
X157004739Y-134929715D02*
X156957120Y-134977334D01*
X156909500Y-135072572D01*
X156909500Y-135310667D01*
X156957120Y-135405905D01*
X157004739Y-135453524D01*
X157099977Y-135501143D01*
X157195215Y-135501143D01*
X157338072Y-135453524D01*
X157909500Y-134882096D01*
X157909500Y-135501143D01*
X156909500Y-136358286D02*
X156909500Y-136167810D01*
X156957120Y-136072572D01*
X157004739Y-136024953D01*
X157147596Y-135929715D01*
X157338072Y-135882096D01*
X157719024Y-135882096D01*
X157814262Y-135929715D01*
X157861881Y-135977334D01*
X157909500Y-136072572D01*
X157909500Y-136263048D01*
X157861881Y-136358286D01*
X157814262Y-136405905D01*
X157719024Y-136453524D01*
X157480929Y-136453524D01*
X157385691Y-136405905D01*
X157338072Y-136358286D01*
X157290453Y-136263048D01*
X157290453Y-136072572D01*
X157338072Y-135977334D01*
X157385691Y-135929715D01*
X157480929Y-135882096D01*
X157934900Y-105680534D02*
X156934900Y-105680534D01*
X156934900Y-105918629D01*
X156982520Y-106061486D01*
X157077758Y-106156724D01*
X157172996Y-106204343D01*
X157363472Y-106251962D01*
X157506329Y-106251962D01*
X157696805Y-106204343D01*
X157792043Y-106156724D01*
X157887281Y-106061486D01*
X157934900Y-105918629D01*
X157934900Y-105680534D01*
X157030139Y-106632915D02*
X156982520Y-106680534D01*
X156934900Y-106775772D01*
X156934900Y-107013867D01*
X156982520Y-107109105D01*
X157030139Y-107156724D01*
X157125377Y-107204343D01*
X157220615Y-107204343D01*
X157363472Y-107156724D01*
X157934900Y-106585296D01*
X157934900Y-107204343D01*
X156934900Y-108109105D02*
X156934900Y-107632915D01*
X157411091Y-107585296D01*
X157363472Y-107632915D01*
X157315853Y-107728153D01*
X157315853Y-107966248D01*
X157363472Y-108061486D01*
X157411091Y-108109105D01*
X157506329Y-108156724D01*
X157744424Y-108156724D01*
X157839662Y-108109105D01*
X157887281Y-108061486D01*
X157934900Y-107966248D01*
X157934900Y-107728153D01*
X157887281Y-107632915D01*
X157839662Y-107585296D01*
X131239500Y-229227334D02*
X130239500Y-229227334D01*
X130239500Y-229465429D01*
X130287120Y-229608286D01*
X130382358Y-229703524D01*
X130477596Y-229751143D01*
X130668072Y-229798762D01*
X130810929Y-229798762D01*
X131001405Y-229751143D01*
X131096643Y-229703524D01*
X131191881Y-229608286D01*
X131239500Y-229465429D01*
X131239500Y-229227334D01*
X130334739Y-230179715D02*
X130287120Y-230227334D01*
X130239500Y-230322572D01*
X130239500Y-230560667D01*
X130287120Y-230655905D01*
X130334739Y-230703524D01*
X130429977Y-230751143D01*
X130525215Y-230751143D01*
X130668072Y-230703524D01*
X131239500Y-230132096D01*
X131239500Y-230751143D01*
X130572834Y-231608286D02*
X131239500Y-231608286D01*
X130191881Y-231370191D02*
X130906167Y-231132096D01*
X130906167Y-231751143D01*
X143939500Y-210177334D02*
X142939500Y-210177334D01*
X142939500Y-210415429D01*
X142987120Y-210558286D01*
X143082358Y-210653524D01*
X143177596Y-210701143D01*
X143368072Y-210748762D01*
X143510929Y-210748762D01*
X143701405Y-210701143D01*
X143796643Y-210653524D01*
X143891881Y-210558286D01*
X143939500Y-210415429D01*
X143939500Y-210177334D01*
X143034739Y-211129715D02*
X142987120Y-211177334D01*
X142939500Y-211272572D01*
X142939500Y-211510667D01*
X142987120Y-211605905D01*
X143034739Y-211653524D01*
X143129977Y-211701143D01*
X143225215Y-211701143D01*
X143368072Y-211653524D01*
X143939500Y-211082096D01*
X143939500Y-211701143D01*
X142939500Y-212034477D02*
X142939500Y-212653524D01*
X143320453Y-212320191D01*
X143320453Y-212463048D01*
X143368072Y-212558286D01*
X143415691Y-212605905D01*
X143510929Y-212653524D01*
X143749024Y-212653524D01*
X143844262Y-212605905D01*
X143891881Y-212558286D01*
X143939500Y-212463048D01*
X143939500Y-212177334D01*
X143891881Y-212082096D01*
X143844262Y-212034477D01*
X133779500Y-191127334D02*
X132779500Y-191127334D01*
X132779500Y-191365429D01*
X132827120Y-191508286D01*
X132922358Y-191603524D01*
X133017596Y-191651143D01*
X133208072Y-191698762D01*
X133350929Y-191698762D01*
X133541405Y-191651143D01*
X133636643Y-191603524D01*
X133731881Y-191508286D01*
X133779500Y-191365429D01*
X133779500Y-191127334D01*
X132874739Y-192079715D02*
X132827120Y-192127334D01*
X132779500Y-192222572D01*
X132779500Y-192460667D01*
X132827120Y-192555905D01*
X132874739Y-192603524D01*
X132969977Y-192651143D01*
X133065215Y-192651143D01*
X133208072Y-192603524D01*
X133779500Y-192032096D01*
X133779500Y-192651143D01*
X132874739Y-193032096D02*
X132827120Y-193079715D01*
X132779500Y-193174953D01*
X132779500Y-193413048D01*
X132827120Y-193508286D01*
X132874739Y-193555905D01*
X132969977Y-193603524D01*
X133065215Y-193603524D01*
X133208072Y-193555905D01*
X133779500Y-192984477D01*
X133779500Y-193603524D01*
X128699500Y-172077334D02*
X127699500Y-172077334D01*
X127699500Y-172315429D01*
X127747120Y-172458286D01*
X127842358Y-172553524D01*
X127937596Y-172601143D01*
X128128072Y-172648762D01*
X128270929Y-172648762D01*
X128461405Y-172601143D01*
X128556643Y-172553524D01*
X128651881Y-172458286D01*
X128699500Y-172315429D01*
X128699500Y-172077334D01*
X127794739Y-173029715D02*
X127747120Y-173077334D01*
X127699500Y-173172572D01*
X127699500Y-173410667D01*
X127747120Y-173505905D01*
X127794739Y-173553524D01*
X127889977Y-173601143D01*
X127985215Y-173601143D01*
X128128072Y-173553524D01*
X128699500Y-172982096D01*
X128699500Y-173601143D01*
X128699500Y-174553524D02*
X128699500Y-173982096D01*
X128699500Y-174267810D02*
X127699500Y-174267810D01*
X127842358Y-174172572D01*
X127937596Y-174077334D01*
X127985215Y-173982096D01*
X138859500Y-153027334D02*
X137859500Y-153027334D01*
X137859500Y-153265429D01*
X137907120Y-153408286D01*
X138002358Y-153503524D01*
X138097596Y-153551143D01*
X138288072Y-153598762D01*
X138430929Y-153598762D01*
X138621405Y-153551143D01*
X138716643Y-153503524D01*
X138811881Y-153408286D01*
X138859500Y-153265429D01*
X138859500Y-153027334D01*
X137954739Y-153979715D02*
X137907120Y-154027334D01*
X137859500Y-154122572D01*
X137859500Y-154360667D01*
X137907120Y-154455905D01*
X137954739Y-154503524D01*
X138049977Y-154551143D01*
X138145215Y-154551143D01*
X138288072Y-154503524D01*
X138859500Y-153932096D01*
X138859500Y-154551143D01*
X137859500Y-155170191D02*
X137859500Y-155265429D01*
X137907120Y-155360667D01*
X137954739Y-155408286D01*
X138049977Y-155455905D01*
X138240453Y-155503524D01*
X138478548Y-155503524D01*
X138669024Y-155455905D01*
X138764262Y-155408286D01*
X138811881Y-155360667D01*
X138859500Y-155265429D01*
X138859500Y-155170191D01*
X138811881Y-155074953D01*
X138764262Y-155027334D01*
X138669024Y-154979715D01*
X138478548Y-154932096D01*
X138240453Y-154932096D01*
X138049977Y-154979715D01*
X137954739Y-155027334D01*
X137907120Y-155074953D01*
X137859500Y-155170191D01*
X138859500Y-133977334D02*
X137859500Y-133977334D01*
X137859500Y-134215429D01*
X137907120Y-134358286D01*
X138002358Y-134453524D01*
X138097596Y-134501143D01*
X138288072Y-134548762D01*
X138430929Y-134548762D01*
X138621405Y-134501143D01*
X138716643Y-134453524D01*
X138811881Y-134358286D01*
X138859500Y-134215429D01*
X138859500Y-133977334D01*
X138859500Y-135501143D02*
X138859500Y-134929715D01*
X138859500Y-135215429D02*
X137859500Y-135215429D01*
X138002358Y-135120191D01*
X138097596Y-135024953D01*
X138145215Y-134929715D01*
X138859500Y-135977334D02*
X138859500Y-136167810D01*
X138811881Y-136263048D01*
X138764262Y-136310667D01*
X138621405Y-136405905D01*
X138430929Y-136453524D01*
X138049977Y-136453524D01*
X137954739Y-136405905D01*
X137907120Y-136358286D01*
X137859500Y-136263048D01*
X137859500Y-136072572D01*
X137907120Y-135977334D01*
X137954739Y-135929715D01*
X138049977Y-135882096D01*
X138288072Y-135882096D01*
X138383310Y-135929715D01*
X138430929Y-135977334D01*
X138478548Y-136072572D01*
X138478548Y-136263048D01*
X138430929Y-136358286D01*
X138383310Y-136405905D01*
X138288072Y-136453524D01*
X138884900Y-105680534D02*
X137884900Y-105680534D01*
X137884900Y-105918629D01*
X137932520Y-106061486D01*
X138027758Y-106156724D01*
X138122996Y-106204343D01*
X138313472Y-106251962D01*
X138456329Y-106251962D01*
X138646805Y-106204343D01*
X138742043Y-106156724D01*
X138837281Y-106061486D01*
X138884900Y-105918629D01*
X138884900Y-105680534D01*
X138884900Y-107204343D02*
X138884900Y-106632915D01*
X138884900Y-106918629D02*
X137884900Y-106918629D01*
X138027758Y-106823391D01*
X138122996Y-106728153D01*
X138170615Y-106632915D01*
X138313472Y-107775772D02*
X138265853Y-107680534D01*
X138218234Y-107632915D01*
X138122996Y-107585296D01*
X138075377Y-107585296D01*
X137980139Y-107632915D01*
X137932520Y-107680534D01*
X137884900Y-107775772D01*
X137884900Y-107966248D01*
X137932520Y-108061486D01*
X137980139Y-108109105D01*
X138075377Y-108156724D01*
X138122996Y-108156724D01*
X138218234Y-108109105D01*
X138265853Y-108061486D01*
X138313472Y-107966248D01*
X138313472Y-107775772D01*
X138361091Y-107680534D01*
X138408710Y-107632915D01*
X138503948Y-107585296D01*
X138694424Y-107585296D01*
X138789662Y-107632915D01*
X138837281Y-107680534D01*
X138884900Y-107775772D01*
X138884900Y-107966248D01*
X138837281Y-108061486D01*
X138789662Y-108109105D01*
X138694424Y-108156724D01*
X138503948Y-108156724D01*
X138408710Y-108109105D01*
X138361091Y-108061486D01*
X138313472Y-107966248D01*
X124889500Y-210177334D02*
X123889500Y-210177334D01*
X123889500Y-210415429D01*
X123937120Y-210558286D01*
X124032358Y-210653524D01*
X124127596Y-210701143D01*
X124318072Y-210748762D01*
X124460929Y-210748762D01*
X124651405Y-210701143D01*
X124746643Y-210653524D01*
X124841881Y-210558286D01*
X124889500Y-210415429D01*
X124889500Y-210177334D01*
X124889500Y-211701143D02*
X124889500Y-211129715D01*
X124889500Y-211415429D02*
X123889500Y-211415429D01*
X124032358Y-211320191D01*
X124127596Y-211224953D01*
X124175215Y-211129715D01*
X123889500Y-212034477D02*
X123889500Y-212701143D01*
X124889500Y-212272572D01*
X114729500Y-191127334D02*
X113729500Y-191127334D01*
X113729500Y-191365429D01*
X113777120Y-191508286D01*
X113872358Y-191603524D01*
X113967596Y-191651143D01*
X114158072Y-191698762D01*
X114300929Y-191698762D01*
X114491405Y-191651143D01*
X114586643Y-191603524D01*
X114681881Y-191508286D01*
X114729500Y-191365429D01*
X114729500Y-191127334D01*
X114729500Y-192651143D02*
X114729500Y-192079715D01*
X114729500Y-192365429D02*
X113729500Y-192365429D01*
X113872358Y-192270191D01*
X113967596Y-192174953D01*
X114015215Y-192079715D01*
X113729500Y-193508286D02*
X113729500Y-193317810D01*
X113777120Y-193222572D01*
X113824739Y-193174953D01*
X113967596Y-193079715D01*
X114158072Y-193032096D01*
X114539024Y-193032096D01*
X114634262Y-193079715D01*
X114681881Y-193127334D01*
X114729500Y-193222572D01*
X114729500Y-193413048D01*
X114681881Y-193508286D01*
X114634262Y-193555905D01*
X114539024Y-193603524D01*
X114300929Y-193603524D01*
X114205691Y-193555905D01*
X114158072Y-193508286D01*
X114110453Y-193413048D01*
X114110453Y-193222572D01*
X114158072Y-193127334D01*
X114205691Y-193079715D01*
X114300929Y-193032096D01*
X109649500Y-172077334D02*
X108649500Y-172077334D01*
X108649500Y-172315429D01*
X108697120Y-172458286D01*
X108792358Y-172553524D01*
X108887596Y-172601143D01*
X109078072Y-172648762D01*
X109220929Y-172648762D01*
X109411405Y-172601143D01*
X109506643Y-172553524D01*
X109601881Y-172458286D01*
X109649500Y-172315429D01*
X109649500Y-172077334D01*
X109649500Y-173601143D02*
X109649500Y-173029715D01*
X109649500Y-173315429D02*
X108649500Y-173315429D01*
X108792358Y-173220191D01*
X108887596Y-173124953D01*
X108935215Y-173029715D01*
X108649500Y-174505905D02*
X108649500Y-174029715D01*
X109125691Y-173982096D01*
X109078072Y-174029715D01*
X109030453Y-174124953D01*
X109030453Y-174363048D01*
X109078072Y-174458286D01*
X109125691Y-174505905D01*
X109220929Y-174553524D01*
X109459024Y-174553524D01*
X109554262Y-174505905D01*
X109601881Y-174458286D01*
X109649500Y-174363048D01*
X109649500Y-174124953D01*
X109601881Y-174029715D01*
X109554262Y-173982096D01*
X119809500Y-153027334D02*
X118809500Y-153027334D01*
X118809500Y-153265429D01*
X118857120Y-153408286D01*
X118952358Y-153503524D01*
X119047596Y-153551143D01*
X119238072Y-153598762D01*
X119380929Y-153598762D01*
X119571405Y-153551143D01*
X119666643Y-153503524D01*
X119761881Y-153408286D01*
X119809500Y-153265429D01*
X119809500Y-153027334D01*
X119809500Y-154551143D02*
X119809500Y-153979715D01*
X119809500Y-154265429D02*
X118809500Y-154265429D01*
X118952358Y-154170191D01*
X119047596Y-154074953D01*
X119095215Y-153979715D01*
X119142834Y-155408286D02*
X119809500Y-155408286D01*
X118761881Y-155170191D02*
X119476167Y-154932096D01*
X119476167Y-155551143D01*
X119809500Y-133977334D02*
X118809500Y-133977334D01*
X118809500Y-134215429D01*
X118857120Y-134358286D01*
X118952358Y-134453524D01*
X119047596Y-134501143D01*
X119238072Y-134548762D01*
X119380929Y-134548762D01*
X119571405Y-134501143D01*
X119666643Y-134453524D01*
X119761881Y-134358286D01*
X119809500Y-134215429D01*
X119809500Y-133977334D01*
X119809500Y-135501143D02*
X119809500Y-134929715D01*
X119809500Y-135215429D02*
X118809500Y-135215429D01*
X118952358Y-135120191D01*
X119047596Y-135024953D01*
X119095215Y-134929715D01*
X118809500Y-135834477D02*
X118809500Y-136453524D01*
X119190453Y-136120191D01*
X119190453Y-136263048D01*
X119238072Y-136358286D01*
X119285691Y-136405905D01*
X119380929Y-136453524D01*
X119619024Y-136453524D01*
X119714262Y-136405905D01*
X119761881Y-136358286D01*
X119809500Y-136263048D01*
X119809500Y-135977334D01*
X119761881Y-135882096D01*
X119714262Y-135834477D01*
X119834900Y-105680534D02*
X118834900Y-105680534D01*
X118834900Y-105918629D01*
X118882520Y-106061486D01*
X118977758Y-106156724D01*
X119072996Y-106204343D01*
X119263472Y-106251962D01*
X119406329Y-106251962D01*
X119596805Y-106204343D01*
X119692043Y-106156724D01*
X119787281Y-106061486D01*
X119834900Y-105918629D01*
X119834900Y-105680534D01*
X119834900Y-107204343D02*
X119834900Y-106632915D01*
X119834900Y-106918629D02*
X118834900Y-106918629D01*
X118977758Y-106823391D01*
X119072996Y-106728153D01*
X119120615Y-106632915D01*
X118930139Y-107585296D02*
X118882520Y-107632915D01*
X118834900Y-107728153D01*
X118834900Y-107966248D01*
X118882520Y-108061486D01*
X118930139Y-108109105D01*
X119025377Y-108156724D01*
X119120615Y-108156724D01*
X119263472Y-108109105D01*
X119834900Y-107537677D01*
X119834900Y-108156724D01*
X108379500Y-229227334D02*
X107379500Y-229227334D01*
X107379500Y-229465429D01*
X107427120Y-229608286D01*
X107522358Y-229703524D01*
X107617596Y-229751143D01*
X107808072Y-229798762D01*
X107950929Y-229798762D01*
X108141405Y-229751143D01*
X108236643Y-229703524D01*
X108331881Y-229608286D01*
X108379500Y-229465429D01*
X108379500Y-229227334D01*
X108379500Y-230751143D02*
X108379500Y-230179715D01*
X108379500Y-230465429D02*
X107379500Y-230465429D01*
X107522358Y-230370191D01*
X107617596Y-230274953D01*
X107665215Y-230179715D01*
X108379500Y-231703524D02*
X108379500Y-231132096D01*
X108379500Y-231417810D02*
X107379500Y-231417810D01*
X107522358Y-231322572D01*
X107617596Y-231227334D01*
X107665215Y-231132096D01*
X93139500Y-210177334D02*
X92139500Y-210177334D01*
X92139500Y-210415429D01*
X92187120Y-210558286D01*
X92282358Y-210653524D01*
X92377596Y-210701143D01*
X92568072Y-210748762D01*
X92710929Y-210748762D01*
X92901405Y-210701143D01*
X92996643Y-210653524D01*
X93091881Y-210558286D01*
X93139500Y-210415429D01*
X93139500Y-210177334D01*
X93139500Y-211701143D02*
X93139500Y-211129715D01*
X93139500Y-211415429D02*
X92139500Y-211415429D01*
X92282358Y-211320191D01*
X92377596Y-211224953D01*
X92425215Y-211129715D01*
X92139500Y-212320191D02*
X92139500Y-212415429D01*
X92187120Y-212510667D01*
X92234739Y-212558286D01*
X92329977Y-212605905D01*
X92520453Y-212653524D01*
X92758548Y-212653524D01*
X92949024Y-212605905D01*
X93044262Y-212558286D01*
X93091881Y-212510667D01*
X93139500Y-212415429D01*
X93139500Y-212320191D01*
X93091881Y-212224953D01*
X93044262Y-212177334D01*
X92949024Y-212129715D01*
X92758548Y-212082096D01*
X92520453Y-212082096D01*
X92329977Y-212129715D01*
X92234739Y-212177334D01*
X92187120Y-212224953D01*
X92139500Y-212320191D01*
X100759500Y-153503524D02*
X99759500Y-153503524D01*
X99759500Y-153741620D01*
X99807120Y-153884477D01*
X99902358Y-153979715D01*
X99997596Y-154027334D01*
X100188072Y-154074953D01*
X100330929Y-154074953D01*
X100521405Y-154027334D01*
X100616643Y-153979715D01*
X100711881Y-153884477D01*
X100759500Y-153741620D01*
X100759500Y-153503524D01*
X100759500Y-154551143D02*
X100759500Y-154741620D01*
X100711881Y-154836858D01*
X100664262Y-154884477D01*
X100521405Y-154979715D01*
X100330929Y-155027334D01*
X99949977Y-155027334D01*
X99854739Y-154979715D01*
X99807120Y-154932096D01*
X99759500Y-154836858D01*
X99759500Y-154646381D01*
X99807120Y-154551143D01*
X99854739Y-154503524D01*
X99949977Y-154455905D01*
X100188072Y-154455905D01*
X100283310Y-154503524D01*
X100330929Y-154551143D01*
X100378548Y-154646381D01*
X100378548Y-154836858D01*
X100330929Y-154932096D01*
X100283310Y-154979715D01*
X100188072Y-155027334D01*
X100759500Y-134453524D02*
X99759500Y-134453524D01*
X99759500Y-134691620D01*
X99807120Y-134834477D01*
X99902358Y-134929715D01*
X99997596Y-134977334D01*
X100188072Y-135024953D01*
X100330929Y-135024953D01*
X100521405Y-134977334D01*
X100616643Y-134929715D01*
X100711881Y-134834477D01*
X100759500Y-134691620D01*
X100759500Y-134453524D01*
X100188072Y-135596381D02*
X100140453Y-135501143D01*
X100092834Y-135453524D01*
X99997596Y-135405905D01*
X99949977Y-135405905D01*
X99854739Y-135453524D01*
X99807120Y-135501143D01*
X99759500Y-135596381D01*
X99759500Y-135786858D01*
X99807120Y-135882096D01*
X99854739Y-135929715D01*
X99949977Y-135977334D01*
X99997596Y-135977334D01*
X100092834Y-135929715D01*
X100140453Y-135882096D01*
X100188072Y-135786858D01*
X100188072Y-135596381D01*
X100235691Y-135501143D01*
X100283310Y-135453524D01*
X100378548Y-135405905D01*
X100569024Y-135405905D01*
X100664262Y-135453524D01*
X100711881Y-135501143D01*
X100759500Y-135596381D01*
X100759500Y-135786858D01*
X100711881Y-135882096D01*
X100664262Y-135929715D01*
X100569024Y-135977334D01*
X100378548Y-135977334D01*
X100283310Y-135929715D01*
X100235691Y-135882096D01*
X100188072Y-135786858D01*
X100734100Y-106182124D02*
X99734100Y-106182124D01*
X99734100Y-106420220D01*
X99781720Y-106563077D01*
X99876958Y-106658315D01*
X99972196Y-106705934D01*
X100162672Y-106753553D01*
X100305529Y-106753553D01*
X100496005Y-106705934D01*
X100591243Y-106658315D01*
X100686481Y-106563077D01*
X100734100Y-106420220D01*
X100734100Y-106182124D01*
X99734100Y-107086886D02*
X99734100Y-107753553D01*
X100734100Y-107324981D01*
X84249500Y-229703524D02*
X83249500Y-229703524D01*
X83249500Y-229941620D01*
X83297120Y-230084477D01*
X83392358Y-230179715D01*
X83487596Y-230227334D01*
X83678072Y-230274953D01*
X83820929Y-230274953D01*
X84011405Y-230227334D01*
X84106643Y-230179715D01*
X84201881Y-230084477D01*
X84249500Y-229941620D01*
X84249500Y-229703524D01*
X83249500Y-231132096D02*
X83249500Y-230941620D01*
X83297120Y-230846381D01*
X83344739Y-230798762D01*
X83487596Y-230703524D01*
X83678072Y-230655905D01*
X84059024Y-230655905D01*
X84154262Y-230703524D01*
X84201881Y-230751143D01*
X84249500Y-230846381D01*
X84249500Y-231036858D01*
X84201881Y-231132096D01*
X84154262Y-231179715D01*
X84059024Y-231227334D01*
X83820929Y-231227334D01*
X83725691Y-231179715D01*
X83678072Y-231132096D01*
X83630453Y-231036858D01*
X83630453Y-230846381D01*
X83678072Y-230751143D01*
X83725691Y-230703524D01*
X83820929Y-230655905D01*
X88059500Y-191603524D02*
X87059500Y-191603524D01*
X87059500Y-191841620D01*
X87107120Y-191984477D01*
X87202358Y-192079715D01*
X87297596Y-192127334D01*
X87488072Y-192174953D01*
X87630929Y-192174953D01*
X87821405Y-192127334D01*
X87916643Y-192079715D01*
X88011881Y-191984477D01*
X88059500Y-191841620D01*
X88059500Y-191603524D01*
X87059500Y-193079715D02*
X87059500Y-192603524D01*
X87535691Y-192555905D01*
X87488072Y-192603524D01*
X87440453Y-192698762D01*
X87440453Y-192936858D01*
X87488072Y-193032096D01*
X87535691Y-193079715D01*
X87630929Y-193127334D01*
X87869024Y-193127334D01*
X87964262Y-193079715D01*
X88011881Y-193032096D01*
X88059500Y-192936858D01*
X88059500Y-192698762D01*
X88011881Y-192603524D01*
X87964262Y-192555905D01*
X85519500Y-172553524D02*
X84519500Y-172553524D01*
X84519500Y-172791620D01*
X84567120Y-172934477D01*
X84662358Y-173029715D01*
X84757596Y-173077334D01*
X84948072Y-173124953D01*
X85090929Y-173124953D01*
X85281405Y-173077334D01*
X85376643Y-173029715D01*
X85471881Y-172934477D01*
X85519500Y-172791620D01*
X85519500Y-172553524D01*
X84852834Y-173982096D02*
X85519500Y-173982096D01*
X84471881Y-173744000D02*
X85186167Y-173505905D01*
X85186167Y-174124953D01*
X81709500Y-153503524D02*
X80709500Y-153503524D01*
X80709500Y-153741620D01*
X80757120Y-153884477D01*
X80852358Y-153979715D01*
X80947596Y-154027334D01*
X81138072Y-154074953D01*
X81280929Y-154074953D01*
X81471405Y-154027334D01*
X81566643Y-153979715D01*
X81661881Y-153884477D01*
X81709500Y-153741620D01*
X81709500Y-153503524D01*
X80709500Y-154408286D02*
X80709500Y-155027334D01*
X81090453Y-154694000D01*
X81090453Y-154836858D01*
X81138072Y-154932096D01*
X81185691Y-154979715D01*
X81280929Y-155027334D01*
X81519024Y-155027334D01*
X81614262Y-154979715D01*
X81661881Y-154932096D01*
X81709500Y-154836858D01*
X81709500Y-154551143D01*
X81661881Y-154455905D01*
X81614262Y-154408286D01*
X81709500Y-134453524D02*
X80709500Y-134453524D01*
X80709500Y-134691620D01*
X80757120Y-134834477D01*
X80852358Y-134929715D01*
X80947596Y-134977334D01*
X81138072Y-135024953D01*
X81280929Y-135024953D01*
X81471405Y-134977334D01*
X81566643Y-134929715D01*
X81661881Y-134834477D01*
X81709500Y-134691620D01*
X81709500Y-134453524D01*
X80804739Y-135405905D02*
X80757120Y-135453524D01*
X80709500Y-135548762D01*
X80709500Y-135786858D01*
X80757120Y-135882096D01*
X80804739Y-135929715D01*
X80899977Y-135977334D01*
X80995215Y-135977334D01*
X81138072Y-135929715D01*
X81709500Y-135358286D01*
X81709500Y-135977334D01*
X81734900Y-106156724D02*
X80734900Y-106156724D01*
X80734900Y-106394820D01*
X80782520Y-106537677D01*
X80877758Y-106632915D01*
X80972996Y-106680534D01*
X81163472Y-106728153D01*
X81306329Y-106728153D01*
X81496805Y-106680534D01*
X81592043Y-106632915D01*
X81687281Y-106537677D01*
X81734900Y-106394820D01*
X81734900Y-106156724D01*
X81734900Y-107680534D02*
X81734900Y-107109105D01*
X81734900Y-107394820D02*
X80734900Y-107394820D01*
X80877758Y-107299581D01*
X80972996Y-107204343D01*
X81020615Y-107109105D01*
X268091666Y-95782142D02*
X268139285Y-95829761D01*
X268282142Y-95877380D01*
X268377380Y-95877380D01*
X268520238Y-95829761D01*
X268615476Y-95734523D01*
X268663095Y-95639285D01*
X268710714Y-95448809D01*
X268710714Y-95305952D01*
X268663095Y-95115476D01*
X268615476Y-95020238D01*
X268520238Y-94925000D01*
X268377380Y-94877380D01*
X268282142Y-94877380D01*
X268139285Y-94925000D01*
X268091666Y-94972619D01*
X267758333Y-94877380D02*
X267091666Y-94877380D01*
X267520238Y-95877380D01*
X285378186Y-113533462D02*
X285425805Y-113581081D01*
X285568662Y-113628700D01*
X285663900Y-113628700D01*
X285806758Y-113581081D01*
X285901996Y-113485843D01*
X285949615Y-113390605D01*
X285997234Y-113200129D01*
X285997234Y-113057272D01*
X285949615Y-112866796D01*
X285901996Y-112771558D01*
X285806758Y-112676320D01*
X285663900Y-112628700D01*
X285568662Y-112628700D01*
X285425805Y-112676320D01*
X285378186Y-112723939D01*
X284521043Y-112628700D02*
X284711520Y-112628700D01*
X284806758Y-112676320D01*
X284854377Y-112723939D01*
X284949615Y-112866796D01*
X284997234Y-113057272D01*
X284997234Y-113438224D01*
X284949615Y-113533462D01*
X284901996Y-113581081D01*
X284806758Y-113628700D01*
X284616281Y-113628700D01*
X284521043Y-113581081D01*
X284473424Y-113533462D01*
X284425805Y-113438224D01*
X284425805Y-113200129D01*
X284473424Y-113104891D01*
X284521043Y-113057272D01*
X284616281Y-113009653D01*
X284806758Y-113009653D01*
X284901996Y-113057272D01*
X284949615Y-113104891D01*
X284997234Y-113200129D01*
X285403586Y-115806762D02*
X285451205Y-115854381D01*
X285594062Y-115902000D01*
X285689300Y-115902000D01*
X285832158Y-115854381D01*
X285927396Y-115759143D01*
X285975015Y-115663905D01*
X286022634Y-115473429D01*
X286022634Y-115330572D01*
X285975015Y-115140096D01*
X285927396Y-115044858D01*
X285832158Y-114949620D01*
X285689300Y-114902000D01*
X285594062Y-114902000D01*
X285451205Y-114949620D01*
X285403586Y-114997239D01*
X284498824Y-114902000D02*
X284975015Y-114902000D01*
X285022634Y-115378191D01*
X284975015Y-115330572D01*
X284879777Y-115282953D01*
X284641681Y-115282953D01*
X284546443Y-115330572D01*
X284498824Y-115378191D01*
X284451205Y-115473429D01*
X284451205Y-115711524D01*
X284498824Y-115806762D01*
X284546443Y-115854381D01*
X284641681Y-115902000D01*
X284879777Y-115902000D01*
X284975015Y-115854381D01*
X285022634Y-115806762D01*
X253083062Y-102916453D02*
X253130681Y-102868834D01*
X253178300Y-102725977D01*
X253178300Y-102630739D01*
X253130681Y-102487881D01*
X253035443Y-102392643D01*
X252940205Y-102345024D01*
X252749729Y-102297405D01*
X252606872Y-102297405D01*
X252416396Y-102345024D01*
X252321158Y-102392643D01*
X252225920Y-102487881D01*
X252178300Y-102630739D01*
X252178300Y-102725977D01*
X252225920Y-102868834D01*
X252273539Y-102916453D01*
X252511634Y-103773596D02*
X253178300Y-103773596D01*
X252130681Y-103535500D02*
X252844967Y-103297405D01*
X252844967Y-103916453D01*
X269891666Y-118882142D02*
X269939285Y-118929761D01*
X270082142Y-118977380D01*
X270177380Y-118977380D01*
X270320238Y-118929761D01*
X270415476Y-118834523D01*
X270463095Y-118739285D01*
X270510714Y-118548809D01*
X270510714Y-118405952D01*
X270463095Y-118215476D01*
X270415476Y-118120238D01*
X270320238Y-118025000D01*
X270177380Y-117977380D01*
X270082142Y-117977380D01*
X269939285Y-118025000D01*
X269891666Y-118072619D01*
X269558333Y-117977380D02*
X268939285Y-117977380D01*
X269272619Y-118358333D01*
X269129761Y-118358333D01*
X269034523Y-118405952D01*
X268986904Y-118453571D01*
X268939285Y-118548809D01*
X268939285Y-118786904D01*
X268986904Y-118882142D01*
X269034523Y-118929761D01*
X269129761Y-118977380D01*
X269415476Y-118977380D01*
X269510714Y-118929761D01*
X269558333Y-118882142D01*
X279283162Y-108146553D02*
X279330781Y-108098934D01*
X279378400Y-107956077D01*
X279378400Y-107860839D01*
X279330781Y-107717981D01*
X279235543Y-107622743D01*
X279140305Y-107575124D01*
X278949829Y-107527505D01*
X278806972Y-107527505D01*
X278616496Y-107575124D01*
X278521258Y-107622743D01*
X278426020Y-107717981D01*
X278378400Y-107860839D01*
X278378400Y-107956077D01*
X278426020Y-108098934D01*
X278473639Y-108146553D01*
X278473639Y-108527505D02*
X278426020Y-108575124D01*
X278378400Y-108670362D01*
X278378400Y-108908458D01*
X278426020Y-109003696D01*
X278473639Y-109051315D01*
X278568877Y-109098934D01*
X278664115Y-109098934D01*
X278806972Y-109051315D01*
X279378400Y-108479886D01*
X279378400Y-109098934D01*
X256370362Y-111382753D02*
X256417981Y-111335134D01*
X256465600Y-111192277D01*
X256465600Y-111097039D01*
X256417981Y-110954181D01*
X256322743Y-110858943D01*
X256227505Y-110811324D01*
X256037029Y-110763705D01*
X255894172Y-110763705D01*
X255703696Y-110811324D01*
X255608458Y-110858943D01*
X255513220Y-110954181D01*
X255465600Y-111097039D01*
X255465600Y-111192277D01*
X255513220Y-111335134D01*
X255560839Y-111382753D01*
X256465600Y-112335134D02*
X256465600Y-111763705D01*
X256465600Y-112049420D02*
X255465600Y-112049420D01*
X255608458Y-111954181D01*
X255703696Y-111858943D01*
X255751315Y-111763705D01*
%LPC*%
D13*
X280101720Y-87023820D03*
X285901720Y-87023820D03*
X280101720Y-83323820D03*
X285901720Y-83323820D03*
G36*
G01*
X270137500Y-86774999D02*
X270137500Y-88175001D01*
G75*
G02*
X269887501Y-88425000I-249999J0D01*
G01*
X269337499Y-88425000D01*
G75*
G02*
X269087500Y-88175001I0J249999D01*
G01*
X269087500Y-86774999D01*
G75*
G02*
X269337499Y-86525000I249999J0D01*
G01*
X269887501Y-86525000D01*
G75*
G02*
X270137500Y-86774999I0J-249999D01*
G01*
G37*
G36*
G01*
X273287500Y-86774999D02*
X273287500Y-88175001D01*
G75*
G02*
X273037501Y-88425000I-249999J0D01*
G01*
X272487499Y-88425000D01*
G75*
G02*
X272237500Y-88175001I0J249999D01*
G01*
X272237500Y-86774999D01*
G75*
G02*
X272487499Y-86525000I249999J0D01*
G01*
X273037501Y-86525000D01*
G75*
G02*
X273287500Y-86774999I0J-249999D01*
G01*
G37*
D14*
X260025000Y-104475000D03*
X260025000Y-105275000D03*
X260025000Y-106075000D03*
X260025000Y-106875000D03*
X260025000Y-107675000D03*
X260025000Y-108475000D03*
X260025000Y-109275000D03*
X260025000Y-110075000D03*
X260025000Y-110875000D03*
X260025000Y-111675000D03*
X260025000Y-112475000D03*
D15*
X261725000Y-114175000D03*
X262525000Y-114175000D03*
X263325000Y-114175000D03*
X264125000Y-114175000D03*
X264925000Y-114175000D03*
X265725000Y-114175000D03*
X266525000Y-114175000D03*
X267325000Y-114175000D03*
X268125000Y-114175000D03*
X268925000Y-114175000D03*
X269725000Y-114175000D03*
D14*
X271425000Y-112475000D03*
X271425000Y-111675000D03*
X271425000Y-110875000D03*
X271425000Y-110075000D03*
X271425000Y-109275000D03*
X271425000Y-108475000D03*
X271425000Y-107675000D03*
X271425000Y-106875000D03*
X271425000Y-106075000D03*
X271425000Y-105275000D03*
X271425000Y-104475000D03*
D15*
X269725000Y-102775000D03*
X268925000Y-102775000D03*
X268125000Y-102775000D03*
X267325000Y-102775000D03*
X266525000Y-102775000D03*
X265725000Y-102775000D03*
X264925000Y-102775000D03*
X264125000Y-102775000D03*
X263325000Y-102775000D03*
X262525000Y-102775000D03*
X261725000Y-102775000D03*
D16*
X294020000Y-157761000D03*
X141778000Y-157761000D03*
X65325000Y-239475000D03*
X370325000Y-239475000D03*
X370325000Y-86618000D03*
X65325000Y-86518000D03*
G36*
G01*
X261753670Y-98633580D02*
X260841170Y-98633580D01*
G75*
G02*
X260597420Y-98389830I0J243750D01*
G01*
X260597420Y-97902330D01*
G75*
G02*
X260841170Y-97658580I243750J0D01*
G01*
X261753670Y-97658580D01*
G75*
G02*
X261997420Y-97902330I0J-243750D01*
G01*
X261997420Y-98389830D01*
G75*
G02*
X261753670Y-98633580I-243750J0D01*
G01*
G37*
G36*
G01*
X261753670Y-96758580D02*
X260841170Y-96758580D01*
G75*
G02*
X260597420Y-96514830I0J243750D01*
G01*
X260597420Y-96027330D01*
G75*
G02*
X260841170Y-95783580I243750J0D01*
G01*
X261753670Y-95783580D01*
G75*
G02*
X261997420Y-96027330I0J-243750D01*
G01*
X261997420Y-96514830D01*
G75*
G02*
X261753670Y-96758580I-243750J0D01*
G01*
G37*
G36*
G01*
X264273350Y-98633580D02*
X263360850Y-98633580D01*
G75*
G02*
X263117100Y-98389830I0J243750D01*
G01*
X263117100Y-97902330D01*
G75*
G02*
X263360850Y-97658580I243750J0D01*
G01*
X264273350Y-97658580D01*
G75*
G02*
X264517100Y-97902330I0J-243750D01*
G01*
X264517100Y-98389830D01*
G75*
G02*
X264273350Y-98633580I-243750J0D01*
G01*
G37*
G36*
G01*
X264273350Y-96758580D02*
X263360850Y-96758580D01*
G75*
G02*
X263117100Y-96514830I0J243750D01*
G01*
X263117100Y-96027330D01*
G75*
G02*
X263360850Y-95783580I243750J0D01*
G01*
X264273350Y-95783580D01*
G75*
G02*
X264517100Y-96027330I0J-243750D01*
G01*
X264517100Y-96514830D01*
G75*
G02*
X264273350Y-96758580I-243750J0D01*
G01*
G37*
D17*
X341969320Y-167449620D03*
X331809320Y-167449620D03*
D18*
X333079320Y-164909620D03*
D19*
X336889320Y-167449620D03*
D18*
X339429320Y-162369620D03*
D17*
X365896120Y-100798820D03*
X355736120Y-100798820D03*
D18*
X357006120Y-98258820D03*
D19*
X360816120Y-100798820D03*
D18*
X363356120Y-95718820D03*
D20*
X282199100Y-113759520D03*
X282199100Y-111559520D03*
X280499100Y-111559520D03*
X280499100Y-113759520D03*
D21*
X267005000Y-80275000D03*
X258365000Y-80275000D03*
D22*
X267005000Y-84455000D03*
X258365000Y-84455000D03*
D23*
X259795000Y-83925000D03*
X265575000Y-83925000D03*
D24*
X262435000Y-85370000D03*
X262935000Y-85370000D03*
X263435000Y-85370000D03*
X261935000Y-85370000D03*
X263935000Y-85370000D03*
X261435000Y-85370000D03*
X264435000Y-85370000D03*
X260935000Y-85370000D03*
D25*
X260235000Y-85370000D03*
X265135000Y-85370000D03*
X259460000Y-85370000D03*
X265910000Y-85370000D03*
D13*
X261531860Y-93205340D03*
X263531860Y-93205340D03*
X261531860Y-91305340D03*
D26*
X263531860Y-91505340D03*
D17*
X80082620Y-148386920D03*
X69922620Y-148386920D03*
D18*
X71192620Y-145846920D03*
D19*
X75002620Y-148386920D03*
D18*
X77542620Y-143306920D03*
D17*
X84845120Y-167449620D03*
X74685120Y-167449620D03*
D18*
X75955120Y-164909620D03*
D19*
X79765120Y-167449620D03*
D18*
X82305120Y-162369620D03*
D19*
X246465547Y-232864227D03*
X146465747Y-232864227D03*
D27*
X246465547Y-217624227D03*
X146465747Y-217624227D03*
D17*
X201545647Y-224609227D03*
X191385647Y-224609227D03*
D18*
X192655647Y-222069227D03*
D19*
X196465647Y-224609227D03*
D18*
X199005647Y-219529227D03*
D17*
X320646020Y-205549620D03*
X310486020Y-205549620D03*
D18*
X311756020Y-203009620D03*
D19*
X315566020Y-205549620D03*
D18*
X318106020Y-200469620D03*
D17*
X308771520Y-224599620D03*
X298611520Y-224599620D03*
D18*
X299881520Y-222059620D03*
D19*
X303691520Y-224599620D03*
D18*
X306231520Y-219519620D03*
D17*
X318169520Y-167449620D03*
X308009520Y-167449620D03*
D18*
X309279520Y-164909620D03*
D19*
X313089520Y-167449620D03*
D18*
X315629520Y-162369620D03*
D17*
X270600380Y-224599620D03*
X260440380Y-224599620D03*
D18*
X261710380Y-222059620D03*
D19*
X265520380Y-224599620D03*
D18*
X268060380Y-219519620D03*
G36*
G01*
X279103770Y-91493520D02*
X280016270Y-91493520D01*
G75*
G02*
X280260020Y-91737270I0J-243750D01*
G01*
X280260020Y-92224770D01*
G75*
G02*
X280016270Y-92468520I-243750J0D01*
G01*
X279103770Y-92468520D01*
G75*
G02*
X278860020Y-92224770I0J243750D01*
G01*
X278860020Y-91737270D01*
G75*
G02*
X279103770Y-91493520I243750J0D01*
G01*
G37*
G36*
G01*
X279103770Y-89618520D02*
X280016270Y-89618520D01*
G75*
G02*
X280260020Y-89862270I0J-243750D01*
G01*
X280260020Y-90349770D01*
G75*
G02*
X280016270Y-90593520I-243750J0D01*
G01*
X279103770Y-90593520D01*
G75*
G02*
X278860020Y-90349770I0J243750D01*
G01*
X278860020Y-89862270D01*
G75*
G02*
X279103770Y-89618520I243750J0D01*
G01*
G37*
G36*
G01*
X260837500Y-117231250D02*
X260837500Y-116318750D01*
G75*
G02*
X261081250Y-116075000I243750J0D01*
G01*
X261568750Y-116075000D01*
G75*
G02*
X261812500Y-116318750I0J-243750D01*
G01*
X261812500Y-117231250D01*
G75*
G02*
X261568750Y-117475000I-243750J0D01*
G01*
X261081250Y-117475000D01*
G75*
G02*
X260837500Y-117231250I0J243750D01*
G01*
G37*
G36*
G01*
X258962500Y-117231250D02*
X258962500Y-116318750D01*
G75*
G02*
X259206250Y-116075000I243750J0D01*
G01*
X259693750Y-116075000D01*
G75*
G02*
X259937500Y-116318750I0J-243750D01*
G01*
X259937500Y-117231250D01*
G75*
G02*
X259693750Y-117475000I-243750J0D01*
G01*
X259206250Y-117475000D01*
G75*
G02*
X258962500Y-117231250I0J243750D01*
G01*
G37*
G36*
G01*
X255160120Y-91550170D02*
X255160120Y-92462670D01*
G75*
G02*
X254916370Y-92706420I-243750J0D01*
G01*
X254428870Y-92706420D01*
G75*
G02*
X254185120Y-92462670I0J243750D01*
G01*
X254185120Y-91550170D01*
G75*
G02*
X254428870Y-91306420I243750J0D01*
G01*
X254916370Y-91306420D01*
G75*
G02*
X255160120Y-91550170I0J-243750D01*
G01*
G37*
G36*
G01*
X257035120Y-91550170D02*
X257035120Y-92462670D01*
G75*
G02*
X256791370Y-92706420I-243750J0D01*
G01*
X256303870Y-92706420D01*
G75*
G02*
X256060120Y-92462670I0J243750D01*
G01*
X256060120Y-91550170D01*
G75*
G02*
X256303870Y-91306420I243750J0D01*
G01*
X256791370Y-91306420D01*
G75*
G02*
X257035120Y-91550170I0J-243750D01*
G01*
G37*
G36*
G01*
X270063620Y-92462670D02*
X270063620Y-91550170D01*
G75*
G02*
X270307370Y-91306420I243750J0D01*
G01*
X270794870Y-91306420D01*
G75*
G02*
X271038620Y-91550170I0J-243750D01*
G01*
X271038620Y-92462670D01*
G75*
G02*
X270794870Y-92706420I-243750J0D01*
G01*
X270307370Y-92706420D01*
G75*
G02*
X270063620Y-92462670I0J243750D01*
G01*
G37*
G36*
G01*
X268188620Y-92462670D02*
X268188620Y-91550170D01*
G75*
G02*
X268432370Y-91306420I243750J0D01*
G01*
X268919870Y-91306420D01*
G75*
G02*
X269163620Y-91550170I0J-243750D01*
G01*
X269163620Y-92462670D01*
G75*
G02*
X268919870Y-92706420I-243750J0D01*
G01*
X268432370Y-92706420D01*
G75*
G02*
X268188620Y-92462670I0J243750D01*
G01*
G37*
D17*
X303894720Y-186499620D03*
X293734720Y-186499620D03*
D18*
X295004720Y-183959620D03*
D19*
X298814720Y-186499620D03*
D18*
X301354720Y-181419620D03*
D17*
X294420520Y-205549620D03*
X284260520Y-205549620D03*
D18*
X285530520Y-203009620D03*
D19*
X289340520Y-205549620D03*
D18*
X291880520Y-200469620D03*
D17*
X327821520Y-129349620D03*
X317661520Y-129349620D03*
D18*
X318931520Y-126809620D03*
D19*
X322741520Y-129349620D03*
D18*
X325281520Y-124269620D03*
D17*
X308720720Y-148399620D03*
X298560720Y-148399620D03*
D18*
X299830720Y-145859620D03*
D19*
X303640720Y-148399620D03*
D18*
X306180720Y-143319620D03*
D17*
X365921520Y-167449620D03*
X355761520Y-167449620D03*
D18*
X357031520Y-164909620D03*
D19*
X360841520Y-167449620D03*
D18*
X363381520Y-162369620D03*
D17*
X365921520Y-186499620D03*
X355761520Y-186499620D03*
D18*
X357031520Y-183959620D03*
D19*
X360841520Y-186499620D03*
D18*
X363381520Y-181419620D03*
D17*
X346820720Y-129349620D03*
X336660720Y-129349620D03*
D18*
X337930720Y-126809620D03*
D19*
X341740720Y-129349620D03*
D18*
X344280720Y-124269620D03*
D17*
X122970520Y-205549620D03*
X112810520Y-205549620D03*
D18*
X114080520Y-203009620D03*
D19*
X117890520Y-205549620D03*
D18*
X120430520Y-200469620D03*
D17*
X203920320Y-167449620D03*
X193760320Y-167449620D03*
D18*
X195030320Y-164909620D03*
D19*
X198840320Y-167449620D03*
D18*
X201380320Y-162369620D03*
D17*
X142020520Y-205549620D03*
X131860520Y-205549620D03*
D18*
X133130520Y-203009620D03*
D19*
X136940520Y-205549620D03*
D18*
X139480520Y-200469620D03*
D17*
X127720320Y-167449620D03*
X117560320Y-167449620D03*
D18*
X118830320Y-164909620D03*
D19*
X122640320Y-167449620D03*
D18*
X125180320Y-162369620D03*
D17*
X180120520Y-205549620D03*
X169960520Y-205549620D03*
D18*
X171230520Y-203009620D03*
D19*
X175040520Y-205549620D03*
D18*
X177580520Y-200469620D03*
D17*
X222970320Y-167449620D03*
X212810320Y-167449620D03*
D18*
X214080320Y-164909620D03*
D19*
X217890320Y-167449620D03*
D18*
X220430320Y-162369620D03*
D17*
X184870320Y-167449620D03*
X174710320Y-167449620D03*
D18*
X175980320Y-164909620D03*
D19*
X179790320Y-167449620D03*
D18*
X182330320Y-162369620D03*
D17*
X346846120Y-100798820D03*
X336686120Y-100798820D03*
D18*
X337956120Y-98258820D03*
D19*
X341766120Y-100798820D03*
D18*
X344306120Y-95718820D03*
D17*
X327796120Y-100798820D03*
X317636120Y-100798820D03*
D18*
X318906120Y-98258820D03*
D19*
X322716120Y-100798820D03*
D18*
X325256120Y-95718820D03*
D17*
X308746120Y-100798820D03*
X298586120Y-100798820D03*
D18*
X299856120Y-98258820D03*
D19*
X303666120Y-100798820D03*
D18*
X306206120Y-95718820D03*
D17*
X289755320Y-100798820D03*
X279595320Y-100798820D03*
D18*
X280865320Y-98258820D03*
D19*
X284675320Y-100798820D03*
D18*
X287215320Y-95718820D03*
D17*
X251596120Y-100798820D03*
X241436120Y-100798820D03*
D18*
X242706120Y-98258820D03*
D19*
X246516120Y-100798820D03*
D18*
X249056120Y-95718820D03*
D17*
X232546120Y-100798820D03*
X222386120Y-100798820D03*
D18*
X223656120Y-98258820D03*
D19*
X227466120Y-100798820D03*
D18*
X230006120Y-95718820D03*
D17*
X213496120Y-100798820D03*
X203336120Y-100798820D03*
D18*
X204606120Y-98258820D03*
D19*
X208416120Y-100798820D03*
D18*
X210956120Y-95718820D03*
D17*
X194446120Y-100798820D03*
X184286120Y-100798820D03*
D18*
X185556120Y-98258820D03*
D19*
X189366120Y-100798820D03*
D18*
X191906120Y-95718820D03*
D17*
X175396120Y-100798820D03*
X165236120Y-100798820D03*
D18*
X166506120Y-98258820D03*
D19*
X170316120Y-100798820D03*
D18*
X172856120Y-95718820D03*
D17*
X156346120Y-100798820D03*
X146186120Y-100798820D03*
D18*
X147456120Y-98258820D03*
D19*
X151266120Y-100798820D03*
D18*
X153806120Y-95718820D03*
D17*
X137296120Y-100798820D03*
X127136120Y-100798820D03*
D18*
X128406120Y-98258820D03*
D19*
X132216120Y-100798820D03*
D18*
X134756120Y-95718820D03*
D17*
X118246120Y-100798820D03*
X108086120Y-100798820D03*
D18*
X109356120Y-98258820D03*
D19*
X113166120Y-100798820D03*
D18*
X115706120Y-95718820D03*
D17*
X99196120Y-100798820D03*
X89036120Y-100798820D03*
D18*
X90306120Y-98258820D03*
D19*
X94116120Y-100798820D03*
D18*
X96656120Y-95718820D03*
D17*
X80146120Y-100798820D03*
X69986120Y-100798820D03*
D18*
X71256120Y-98258820D03*
D19*
X75066120Y-100798820D03*
D18*
X77606120Y-95718820D03*
D17*
X132393920Y-186499620D03*
X122233920Y-186499620D03*
D18*
X123503920Y-183959620D03*
D19*
X127313920Y-186499620D03*
D18*
X129853920Y-181419620D03*
D17*
X165820320Y-167449620D03*
X155660320Y-167449620D03*
D18*
X156930320Y-164909620D03*
D19*
X160740320Y-167449620D03*
D18*
X163280320Y-162369620D03*
D17*
X108670320Y-167449620D03*
X98510320Y-167449620D03*
D18*
X99780320Y-164909620D03*
D19*
X103590320Y-167449620D03*
D18*
X106130320Y-162369620D03*
D17*
X280069520Y-167449620D03*
X269909520Y-167449620D03*
D18*
X271179520Y-164909620D03*
D19*
X274989520Y-167449620D03*
D18*
X277529520Y-162369620D03*
D17*
X261070320Y-167449620D03*
X250910320Y-167449620D03*
D18*
X252180320Y-164909620D03*
D19*
X255990320Y-167449620D03*
D18*
X258530320Y-162369620D03*
D17*
X218220520Y-205549620D03*
X208060520Y-205549620D03*
D18*
X209330520Y-203009620D03*
D19*
X213140520Y-205549620D03*
D18*
X215680520Y-200469620D03*
D17*
X237270520Y-205549620D03*
X227110520Y-205549620D03*
D18*
X228380520Y-203009620D03*
D19*
X232190520Y-205549620D03*
D18*
X234730520Y-200469620D03*
D17*
X265794720Y-186499620D03*
X255634720Y-186499620D03*
D18*
X256904720Y-183959620D03*
D19*
X260714720Y-186499620D03*
D18*
X263254720Y-181419620D03*
D17*
X246744720Y-186499620D03*
X236584720Y-186499620D03*
D18*
X237854720Y-183959620D03*
D19*
X241664720Y-186499620D03*
D18*
X244204720Y-181419620D03*
D17*
X227694720Y-186499620D03*
X217534720Y-186499620D03*
D18*
X218804720Y-183959620D03*
D19*
X222614720Y-186499620D03*
D18*
X225154720Y-181419620D03*
D17*
X242020320Y-167449620D03*
X231860320Y-167449620D03*
D18*
X233130320Y-164909620D03*
D19*
X236940320Y-167449620D03*
D18*
X239480320Y-162369620D03*
D17*
X208644720Y-186499620D03*
X198484720Y-186499620D03*
D18*
X199754720Y-183959620D03*
D19*
X203564720Y-186499620D03*
D18*
X206104720Y-181419620D03*
D17*
X189594720Y-186499620D03*
X179434720Y-186499620D03*
D18*
X180704720Y-183959620D03*
D19*
X184514720Y-186499620D03*
D18*
X187054720Y-181419620D03*
D17*
X289670720Y-129349620D03*
X279510720Y-129349620D03*
D18*
X280780720Y-126809620D03*
D19*
X284590720Y-129349620D03*
D18*
X287130720Y-124269620D03*
D17*
X170544720Y-186499620D03*
X160384720Y-186499620D03*
D18*
X161654720Y-183959620D03*
D19*
X165464720Y-186499620D03*
D18*
X168004720Y-181419620D03*
D17*
X146770320Y-167449620D03*
X136610320Y-167449620D03*
D18*
X137880320Y-164909620D03*
D19*
X141690320Y-167449620D03*
D18*
X144230320Y-162369620D03*
D17*
X151494720Y-186499620D03*
X141334720Y-186499620D03*
D18*
X142604720Y-183959620D03*
D19*
X146414720Y-186499620D03*
D18*
X148954720Y-181419620D03*
D17*
X161070520Y-205549620D03*
X150910520Y-205549620D03*
D18*
X152180520Y-203009620D03*
D19*
X155990520Y-205549620D03*
D18*
X158530520Y-200469620D03*
D17*
X199170520Y-205549620D03*
X189010520Y-205549620D03*
D18*
X190280520Y-203009620D03*
D19*
X194090520Y-205549620D03*
D18*
X196630520Y-200469620D03*
D17*
X113394720Y-186499620D03*
X103234720Y-186499620D03*
D18*
X104504720Y-183959620D03*
D19*
X108314720Y-186499620D03*
D18*
X110854720Y-181419620D03*
D17*
X251570720Y-148399620D03*
X241410720Y-148399620D03*
D18*
X242680720Y-145859620D03*
D19*
X246490720Y-148399620D03*
D18*
X249030720Y-143319620D03*
D17*
X232520720Y-148399620D03*
X222360720Y-148399620D03*
D18*
X223630720Y-145859620D03*
D19*
X227440720Y-148399620D03*
D18*
X229980720Y-143319620D03*
D17*
X213470720Y-148399620D03*
X203310720Y-148399620D03*
D18*
X204580720Y-145859620D03*
D19*
X208390720Y-148399620D03*
D18*
X210930720Y-143319620D03*
D17*
X194420720Y-148399620D03*
X184260720Y-148399620D03*
D18*
X185530720Y-145859620D03*
D19*
X189340720Y-148399620D03*
D18*
X191880720Y-143319620D03*
D17*
X175370720Y-148399620D03*
X165210720Y-148399620D03*
D18*
X166480720Y-145859620D03*
D19*
X170290720Y-148399620D03*
D18*
X172830720Y-143319620D03*
D17*
X156320720Y-148399620D03*
X146160720Y-148399620D03*
D18*
X147430720Y-145859620D03*
D19*
X151240720Y-148399620D03*
D18*
X153780720Y-143319620D03*
D17*
X137270720Y-148399620D03*
X127110720Y-148399620D03*
D18*
X128380720Y-145859620D03*
D19*
X132190720Y-148399620D03*
D18*
X134730720Y-143319620D03*
D17*
X118220720Y-148399620D03*
X108060720Y-148399620D03*
D18*
X109330720Y-145859620D03*
D19*
X113140720Y-148399620D03*
D18*
X115680720Y-143319620D03*
D17*
X99119920Y-148399620D03*
X88959920Y-148399620D03*
D18*
X90229920Y-145859620D03*
D19*
X94039920Y-148399620D03*
D18*
X96579920Y-143319620D03*
D17*
X270620720Y-148399620D03*
X260460720Y-148399620D03*
D18*
X261730720Y-145859620D03*
D19*
X265540720Y-148399620D03*
D18*
X268080720Y-143319620D03*
D17*
X256320520Y-205549620D03*
X246160520Y-205549620D03*
D18*
X247430520Y-203009620D03*
D19*
X251240520Y-205549620D03*
D18*
X253780520Y-200469620D03*
D19*
X98808770Y-213804620D03*
X74996270Y-213804620D03*
D27*
X98808770Y-198564620D03*
X74996270Y-198564620D03*
D17*
X91982520Y-205549620D03*
X81822520Y-205549620D03*
D18*
X83092520Y-203009620D03*
D19*
X86902520Y-205549620D03*
D18*
X89442520Y-200469620D03*
D17*
X106289524Y-224599620D03*
X96129524Y-224599620D03*
D18*
X97399524Y-222059620D03*
D19*
X101209524Y-224599620D03*
D18*
X103749524Y-219519620D03*
D17*
X82457520Y-224599620D03*
X72297520Y-224599620D03*
D18*
X73567520Y-222059620D03*
D19*
X77377520Y-224599620D03*
D18*
X79917520Y-219519620D03*
D17*
X299119520Y-167449620D03*
X288959520Y-167449620D03*
D18*
X290229520Y-164909620D03*
D19*
X294039520Y-167449620D03*
D18*
X296579520Y-162369620D03*
D17*
X130097128Y-224609227D03*
X119937128Y-224609227D03*
D18*
X121207128Y-222069227D03*
D19*
X125017128Y-224609227D03*
D18*
X127557128Y-219529227D03*
D17*
X289670720Y-148399620D03*
X279510720Y-148399620D03*
D18*
X280780720Y-145859620D03*
D19*
X284590720Y-148399620D03*
D18*
X287130720Y-143319620D03*
D17*
X365921520Y-148399620D03*
X355761520Y-148399620D03*
D18*
X357031520Y-145859620D03*
D19*
X360841520Y-148399620D03*
D18*
X363381520Y-143319620D03*
X272830520Y-200469620D03*
D19*
X270290520Y-205549620D03*
D18*
X266480520Y-203009620D03*
D17*
X265210520Y-205549620D03*
X275370520Y-205549620D03*
X289721520Y-224599620D03*
X279561520Y-224599620D03*
D18*
X280831520Y-222059620D03*
D19*
X284641520Y-224599620D03*
D18*
X287181520Y-219519620D03*
D17*
X308720720Y-129349620D03*
X298560720Y-129349620D03*
D18*
X299830720Y-126809620D03*
D19*
X303640720Y-129349620D03*
D18*
X306180720Y-124269620D03*
G36*
G01*
X256080420Y-96070120D02*
X254830420Y-96070120D01*
G75*
G02*
X254580420Y-95820120I0J250000D01*
G01*
X254580420Y-95070120D01*
G75*
G02*
X254830420Y-94820120I250000J0D01*
G01*
X256080420Y-94820120D01*
G75*
G02*
X256330420Y-95070120I0J-250000D01*
G01*
X256330420Y-95820120D01*
G75*
G02*
X256080420Y-96070120I-250000J0D01*
G01*
G37*
G36*
G01*
X256080420Y-98870120D02*
X254830420Y-98870120D01*
G75*
G02*
X254580420Y-98620120I0J250000D01*
G01*
X254580420Y-97870120D01*
G75*
G02*
X254830420Y-97620120I250000J0D01*
G01*
X256080420Y-97620120D01*
G75*
G02*
X256330420Y-97870120I0J-250000D01*
G01*
X256330420Y-98620120D01*
G75*
G02*
X256080420Y-98870120I-250000J0D01*
G01*
G37*
D17*
X270620720Y-129349620D03*
X260460720Y-129349620D03*
D18*
X261730720Y-126809620D03*
D19*
X265540720Y-129349620D03*
D18*
X268080720Y-124269620D03*
D17*
X251570720Y-129349620D03*
X241410720Y-129349620D03*
D18*
X242680720Y-126809620D03*
D19*
X246490720Y-129349620D03*
D18*
X249030720Y-124269620D03*
D17*
X232520720Y-129349620D03*
X222360720Y-129349620D03*
D18*
X223630720Y-126809620D03*
D19*
X227440720Y-129349620D03*
D18*
X229980720Y-124269620D03*
D17*
X213470720Y-129349620D03*
X203310720Y-129349620D03*
D18*
X204580720Y-126809620D03*
D19*
X208390720Y-129349620D03*
D18*
X210930720Y-124269620D03*
D17*
X194420720Y-129349620D03*
X184260720Y-129349620D03*
D18*
X185530720Y-126809620D03*
D19*
X189340720Y-129349620D03*
D18*
X191880720Y-124269620D03*
D17*
X175370720Y-129349620D03*
X165210720Y-129349620D03*
D18*
X166480720Y-126809620D03*
D19*
X170290720Y-129349620D03*
D18*
X172830720Y-124269620D03*
D17*
X156320720Y-129349620D03*
X146160720Y-129349620D03*
D18*
X147430720Y-126809620D03*
D19*
X151240720Y-129349620D03*
D18*
X153780720Y-124269620D03*
D17*
X137270720Y-129349620D03*
X127110720Y-129349620D03*
D18*
X128380720Y-126809620D03*
D19*
X132190720Y-129349620D03*
D18*
X134730720Y-124269620D03*
D17*
X118169920Y-129349620D03*
X108009920Y-129349620D03*
D18*
X109279920Y-126809620D03*
D19*
X113089920Y-129349620D03*
D18*
X115629920Y-124269620D03*
D17*
X99119920Y-129349620D03*
X88959920Y-129349620D03*
D18*
X90229920Y-126809620D03*
D19*
X94039920Y-129349620D03*
D18*
X96579920Y-124269620D03*
D17*
X80069920Y-129349620D03*
X69909920Y-129349620D03*
D18*
X71179920Y-126809620D03*
D19*
X74989920Y-129349620D03*
D18*
X77529920Y-124269620D03*
D19*
X341708970Y-194754620D03*
X317896470Y-194754620D03*
D27*
X341708970Y-179514620D03*
X317896470Y-179514620D03*
D17*
X334882720Y-186499620D03*
X324722720Y-186499620D03*
D18*
X325992720Y-183959620D03*
D19*
X329802720Y-186499620D03*
D18*
X332342720Y-181419620D03*
D17*
X365921520Y-205549620D03*
X355761520Y-205549620D03*
D18*
X357031520Y-203009620D03*
D19*
X360841520Y-205549620D03*
D18*
X363381520Y-200469620D03*
D17*
X365921520Y-129349620D03*
X355761520Y-129349620D03*
D18*
X357031520Y-126809620D03*
D19*
X360841520Y-129349620D03*
D18*
X363381520Y-124269620D03*
D28*
X365007120Y-228791620D03*
X365007120Y-232091620D03*
X365007120Y-209741620D03*
X365007120Y-213041620D03*
X365007120Y-190691620D03*
X365007120Y-193991620D03*
X365007120Y-171641620D03*
X365007120Y-174941620D03*
X365007120Y-152591620D03*
X365007120Y-155891620D03*
X365007120Y-133541620D03*
X365007120Y-136841620D03*
X365032520Y-105244820D03*
X365032520Y-108544820D03*
X345957120Y-228791620D03*
X345957120Y-232091620D03*
X345957120Y-209741620D03*
X345957120Y-213041620D03*
X340877120Y-171641620D03*
X340877120Y-174941620D03*
X335797120Y-152591620D03*
X335797120Y-155891620D03*
X345957120Y-133541620D03*
X345957120Y-136841620D03*
X345982520Y-105244820D03*
X345982520Y-108544820D03*
X326907120Y-228791620D03*
X326907120Y-232091620D03*
X319287120Y-209741620D03*
X319287120Y-213041620D03*
X333257120Y-190691620D03*
X333257120Y-193991620D03*
X316747120Y-171641620D03*
X316747120Y-174941620D03*
X326907120Y-133541620D03*
X326907120Y-136841620D03*
X326932520Y-105244820D03*
X326932520Y-108544820D03*
X307857120Y-228791620D03*
X307857120Y-232091620D03*
X302777120Y-190691620D03*
X302777120Y-193991620D03*
X297697120Y-171641620D03*
X297697120Y-174941620D03*
X307857120Y-152591620D03*
X307857120Y-155891620D03*
X307857120Y-133541620D03*
X307857120Y-136841620D03*
X307882520Y-105244820D03*
X307882520Y-108544820D03*
X288807120Y-228791620D03*
X288807120Y-232091620D03*
X293887120Y-209741620D03*
X293887120Y-213041620D03*
X283727120Y-190691620D03*
X283727120Y-193991620D03*
X278647120Y-171641620D03*
X278647120Y-174941620D03*
X288807120Y-152591620D03*
X288807120Y-155891620D03*
X288807120Y-133541620D03*
X288807120Y-136841620D03*
X291085020Y-105063020D03*
X291085020Y-108363020D03*
X269757120Y-228791620D03*
X269757120Y-232091620D03*
X274837120Y-209741620D03*
X274837120Y-213041620D03*
X264677120Y-190691620D03*
X264677120Y-193991620D03*
X259597120Y-171641620D03*
X259597120Y-174941620D03*
X269757120Y-152591620D03*
X269757120Y-155891620D03*
X269757120Y-133541620D03*
X269757120Y-136841620D03*
X255787120Y-209741620D03*
X255787120Y-213041620D03*
X245627120Y-190691620D03*
X245627120Y-193991620D03*
X240547120Y-171641620D03*
X240547120Y-174941620D03*
X250707120Y-152591620D03*
X250707120Y-155891620D03*
X250707120Y-133541620D03*
X250707120Y-136841620D03*
X248330720Y-107847860D03*
X248330720Y-111147860D03*
X236737120Y-209741620D03*
X236737120Y-213041620D03*
X226577120Y-190691620D03*
X226577120Y-193991620D03*
X221497120Y-171641620D03*
X221497120Y-174941620D03*
X231657120Y-152591620D03*
X231657120Y-155891620D03*
X231657120Y-133541620D03*
X231657120Y-136841620D03*
X231682520Y-105244820D03*
X231682520Y-108544820D03*
X217687120Y-209741620D03*
X217687120Y-213041620D03*
X207527120Y-190691620D03*
X207527120Y-193991620D03*
X202447120Y-171641620D03*
X202447120Y-174941620D03*
X212607120Y-152591620D03*
X212607120Y-155891620D03*
X212607120Y-133541620D03*
X212607120Y-136841620D03*
X212632520Y-105244820D03*
X212632520Y-108544820D03*
X199907120Y-228791620D03*
X199907120Y-232091620D03*
X198637120Y-209741620D03*
X198637120Y-213041620D03*
X188477120Y-190691620D03*
X188477120Y-193991620D03*
X183397120Y-171641620D03*
X183397120Y-174941620D03*
X193557120Y-152591620D03*
X193557120Y-155891620D03*
X193557120Y-133541620D03*
X193557120Y-136841620D03*
X193582520Y-105244820D03*
X193582520Y-108544820D03*
X179587120Y-209741620D03*
X179587120Y-213041620D03*
X169427120Y-190691620D03*
X169427120Y-193991620D03*
X164347120Y-171641620D03*
X164347120Y-174941620D03*
X174507120Y-152591620D03*
X174507120Y-155891620D03*
X174507120Y-133541620D03*
X174507120Y-136841620D03*
X174532520Y-105244820D03*
X174532520Y-108544820D03*
X160537120Y-209741620D03*
X160537120Y-213041620D03*
X150377120Y-190691620D03*
X150377120Y-193991620D03*
X145297120Y-171641620D03*
X145297120Y-174941620D03*
X155457120Y-152591620D03*
X155457120Y-155891620D03*
X155457120Y-133541620D03*
X155457120Y-136841620D03*
X155482520Y-105244820D03*
X155482520Y-108544820D03*
X128787120Y-228791620D03*
X128787120Y-232091620D03*
X141487120Y-209741620D03*
X141487120Y-213041620D03*
X131327120Y-190691620D03*
X131327120Y-193991620D03*
X126247120Y-171641620D03*
X126247120Y-174941620D03*
X136407120Y-152591620D03*
X136407120Y-155891620D03*
X136407120Y-133541620D03*
X136407120Y-136841620D03*
X136432520Y-105244820D03*
X136432520Y-108544820D03*
X122437120Y-209741620D03*
X122437120Y-213041620D03*
X112277120Y-190691620D03*
X112277120Y-193991620D03*
X107197120Y-171641620D03*
X107197120Y-174941620D03*
X117357120Y-152591620D03*
X117357120Y-155891620D03*
X117357120Y-133541620D03*
X117357120Y-136841620D03*
X117382520Y-105244820D03*
X117382520Y-108544820D03*
X105927120Y-228791620D03*
X105927120Y-232091620D03*
X90687120Y-209741620D03*
X90687120Y-213041620D03*
X98307120Y-152591620D03*
X98307120Y-155891620D03*
X98307120Y-133541620D03*
X98307120Y-136841620D03*
X98281720Y-105270220D03*
X98281720Y-108570220D03*
X81797120Y-228791620D03*
X81797120Y-232091620D03*
X85607120Y-190691620D03*
X85607120Y-193991620D03*
X83067120Y-171641620D03*
X83067120Y-174941620D03*
X79257120Y-152591620D03*
X79257120Y-155891620D03*
X79257120Y-133541620D03*
X79257120Y-136841620D03*
X79282520Y-105244820D03*
X79282520Y-108544820D03*
D17*
X87220020Y-186499620D03*
X77060020Y-186499620D03*
D18*
X78330020Y-183959620D03*
D19*
X82140020Y-186499620D03*
D18*
X84680020Y-181419620D03*
D17*
X284844720Y-186499620D03*
X274684720Y-186499620D03*
D18*
X275954720Y-183959620D03*
D19*
X279764720Y-186499620D03*
D18*
X282304720Y-181419620D03*
G36*
G01*
X267475000Y-96618750D02*
X267475000Y-97531250D01*
G75*
G02*
X267231250Y-97775000I-243750J0D01*
G01*
X266743750Y-97775000D01*
G75*
G02*
X266500000Y-97531250I0J243750D01*
G01*
X266500000Y-96618750D01*
G75*
G02*
X266743750Y-96375000I243750J0D01*
G01*
X267231250Y-96375000D01*
G75*
G02*
X267475000Y-96618750I0J-243750D01*
G01*
G37*
G36*
G01*
X269350000Y-96618750D02*
X269350000Y-97531250D01*
G75*
G02*
X269106250Y-97775000I-243750J0D01*
G01*
X268618750Y-97775000D01*
G75*
G02*
X268375000Y-97531250I0J243750D01*
G01*
X268375000Y-96618750D01*
G75*
G02*
X268618750Y-96375000I243750J0D01*
G01*
X269106250Y-96375000D01*
G75*
G02*
X269350000Y-96618750I0J-243750D01*
G01*
G37*
G36*
G01*
X285661520Y-111982570D02*
X285661520Y-111070070D01*
G75*
G02*
X285905270Y-110826320I243750J0D01*
G01*
X286392770Y-110826320D01*
G75*
G02*
X286636520Y-111070070I0J-243750D01*
G01*
X286636520Y-111982570D01*
G75*
G02*
X286392770Y-112226320I-243750J0D01*
G01*
X285905270Y-112226320D01*
G75*
G02*
X285661520Y-111982570I0J243750D01*
G01*
G37*
G36*
G01*
X283786520Y-111982570D02*
X283786520Y-111070070D01*
G75*
G02*
X284030270Y-110826320I243750J0D01*
G01*
X284517770Y-110826320D01*
G75*
G02*
X284761520Y-111070070I0J-243750D01*
G01*
X284761520Y-111982570D01*
G75*
G02*
X284517770Y-112226320I-243750J0D01*
G01*
X284030270Y-112226320D01*
G75*
G02*
X283786520Y-111982570I0J243750D01*
G01*
G37*
G36*
G01*
X285686920Y-114255870D02*
X285686920Y-113343370D01*
G75*
G02*
X285930670Y-113099620I243750J0D01*
G01*
X286418170Y-113099620D01*
G75*
G02*
X286661920Y-113343370I0J-243750D01*
G01*
X286661920Y-114255870D01*
G75*
G02*
X286418170Y-114499620I-243750J0D01*
G01*
X285930670Y-114499620D01*
G75*
G02*
X285686920Y-114255870I0J243750D01*
G01*
G37*
G36*
G01*
X283811920Y-114255870D02*
X283811920Y-113343370D01*
G75*
G02*
X284055670Y-113099620I243750J0D01*
G01*
X284543170Y-113099620D01*
G75*
G02*
X284786920Y-113343370I0J-243750D01*
G01*
X284786920Y-114255870D01*
G75*
G02*
X284543170Y-114499620I-243750J0D01*
G01*
X284055670Y-114499620D01*
G75*
G02*
X283811920Y-114255870I0J243750D01*
G01*
G37*
G36*
G01*
X253919670Y-103533120D02*
X254832170Y-103533120D01*
G75*
G02*
X255075920Y-103776870I0J-243750D01*
G01*
X255075920Y-104264370D01*
G75*
G02*
X254832170Y-104508120I-243750J0D01*
G01*
X253919670Y-104508120D01*
G75*
G02*
X253675920Y-104264370I0J243750D01*
G01*
X253675920Y-103776870D01*
G75*
G02*
X253919670Y-103533120I243750J0D01*
G01*
G37*
G36*
G01*
X253919670Y-101658120D02*
X254832170Y-101658120D01*
G75*
G02*
X255075920Y-101901870I0J-243750D01*
G01*
X255075920Y-102389370D01*
G75*
G02*
X254832170Y-102633120I-243750J0D01*
G01*
X253919670Y-102633120D01*
G75*
G02*
X253675920Y-102389370I0J243750D01*
G01*
X253675920Y-101901870D01*
G75*
G02*
X253919670Y-101658120I243750J0D01*
G01*
G37*
G36*
G01*
X270175000Y-117331250D02*
X270175000Y-116418750D01*
G75*
G02*
X270418750Y-116175000I243750J0D01*
G01*
X270906250Y-116175000D01*
G75*
G02*
X271150000Y-116418750I0J-243750D01*
G01*
X271150000Y-117331250D01*
G75*
G02*
X270906250Y-117575000I-243750J0D01*
G01*
X270418750Y-117575000D01*
G75*
G02*
X270175000Y-117331250I0J243750D01*
G01*
G37*
G36*
G01*
X268300000Y-117331250D02*
X268300000Y-116418750D01*
G75*
G02*
X268543750Y-116175000I243750J0D01*
G01*
X269031250Y-116175000D01*
G75*
G02*
X269275000Y-116418750I0J-243750D01*
G01*
X269275000Y-117331250D01*
G75*
G02*
X269031250Y-117575000I-243750J0D01*
G01*
X268543750Y-117575000D01*
G75*
G02*
X268300000Y-117331250I0J243750D01*
G01*
G37*
G36*
G01*
X280119770Y-108763220D02*
X281032270Y-108763220D01*
G75*
G02*
X281276020Y-109006970I0J-243750D01*
G01*
X281276020Y-109494470D01*
G75*
G02*
X281032270Y-109738220I-243750J0D01*
G01*
X280119770Y-109738220D01*
G75*
G02*
X279876020Y-109494470I0J243750D01*
G01*
X279876020Y-109006970D01*
G75*
G02*
X280119770Y-108763220I243750J0D01*
G01*
G37*
G36*
G01*
X280119770Y-106888220D02*
X281032270Y-106888220D01*
G75*
G02*
X281276020Y-107131970I0J-243750D01*
G01*
X281276020Y-107619470D01*
G75*
G02*
X281032270Y-107863220I-243750J0D01*
G01*
X280119770Y-107863220D01*
G75*
G02*
X279876020Y-107619470I0J243750D01*
G01*
X279876020Y-107131970D01*
G75*
G02*
X280119770Y-106888220I243750J0D01*
G01*
G37*
G36*
G01*
X254819470Y-111099420D02*
X253906970Y-111099420D01*
G75*
G02*
X253663220Y-110855670I0J243750D01*
G01*
X253663220Y-110368170D01*
G75*
G02*
X253906970Y-110124420I243750J0D01*
G01*
X254819470Y-110124420D01*
G75*
G02*
X255063220Y-110368170I0J-243750D01*
G01*
X255063220Y-110855670D01*
G75*
G02*
X254819470Y-111099420I-243750J0D01*
G01*
G37*
G36*
G01*
X254819470Y-112974420D02*
X253906970Y-112974420D01*
G75*
G02*
X253663220Y-112730670I0J243750D01*
G01*
X253663220Y-112243170D01*
G75*
G02*
X253906970Y-111999420I243750J0D01*
G01*
X254819470Y-111999420D01*
G75*
G02*
X255063220Y-112243170I0J-243750D01*
G01*
X255063220Y-112730670D01*
G75*
G02*
X254819470Y-112974420I-243750J0D01*
G01*
G37*
D19*
X344147370Y-156654620D03*
X320334870Y-156654620D03*
D27*
X344147370Y-141414620D03*
X320334870Y-141414620D03*
D17*
X337321120Y-148399620D03*
X327161120Y-148399620D03*
D18*
X328431120Y-145859620D03*
D19*
X332241120Y-148399620D03*
D18*
X334781120Y-143319620D03*
D17*
X346871520Y-205549620D03*
X336711520Y-205549620D03*
D18*
X337981520Y-203009620D03*
D19*
X341791520Y-205549620D03*
D18*
X344331520Y-200469620D03*
D17*
X365921520Y-224599620D03*
X355761520Y-224599620D03*
D18*
X357031520Y-222059620D03*
D19*
X360841520Y-224599620D03*
D18*
X363381520Y-219519620D03*
D17*
X327821520Y-224599620D03*
X317661520Y-224599620D03*
D18*
X318931520Y-222059620D03*
D19*
X322741520Y-224599620D03*
D18*
X325281520Y-219519620D03*
D17*
X346871520Y-224599620D03*
X336711520Y-224599620D03*
D18*
X337981520Y-222059620D03*
D19*
X341791520Y-224599620D03*
D18*
X344331520Y-219519620D03*
M02*
