M48
; DRILL file {KiCad (5.1.9-0-10_14)} date Wednesday, May 12, 2021 at 02:41:20 PM
; FORMAT={-:-/ absolute / metric / decimal}
; #@! TF.CreationDate,2021-05-12T14:41:20+09:00
; #@! TF.GenerationSoftware,Kicad,Pcbnew,(5.1.9-0-10_14)
; #@! TF.FileFunction,Plated,1,2,PTH
FMAT,2
METRIC
T1C0.400
T2C0.600
T3C1.470
%
G90
G05
T1
X77.225Y-110.275
X77.225Y-113.975
X241.434Y-112.078
X241.46Y-110.079
X241.46Y-111.079
X241.663Y-121.61
X245.576Y-111.064
X245.594Y-112.064
X245.632Y-110.066
X245.784Y-121.61
X248.356Y-112.936
X253.462Y-96.838
X253.462Y-100.579
X253.875Y-84.045
X254.225Y-105.375
X254.873Y-109.032
X255.615Y-107.432
X255.651Y-105.832
X256.167Y-99.957
X256.261Y-106.632
X256.288Y-108.232
X256.311Y-105.032
X256.325Y-113.595
X257.225Y-111.675
X258.025Y-113.475
X259.729Y-89.918
X261.247Y-120.875
X262.685Y-81.805
X265.085Y-119.555
X265.225Y-94.775
X265.717Y-89.911
X266.945Y-117.758
X267.745Y-118.817
X269.675Y-83.835
X269.972Y-99.03
X272.125Y-115.975
X272.943Y-111.029
X273.125Y-109.275
X273.125Y-116.975
X273.711Y-110.389
X276.439Y-98.789
X276.83Y-102.662
X278.025Y-95.475
X278.1Y-98.255
X278.125Y-96.675
X279.175Y-110.925
X279.825Y-96.475
X279.925Y-94.075
X279.925Y-95.275
X281.014Y-94.014
X287.447Y-111.514
X287.459Y-113.787
X289.58Y-120.759
X290.203Y-118.334
X290.52Y-120.032
X291.562Y-119.299
X293.073Y-120.759
X294.47Y-117.318
X294.648Y-118.842
X294.711Y-119.946
X298.725Y-107.175
X298.725Y-109.275
T3
X71.18Y-126.81
X71.193Y-145.847
X71.256Y-98.259
X73.568Y-222.06
X75.955Y-164.91
X77.53Y-124.27
X77.543Y-143.307
X77.606Y-95.719
X78.33Y-183.96
X79.918Y-219.52
X82.305Y-162.37
X83.093Y-203.01
X84.68Y-181.42
X89.443Y-200.47
X90.23Y-126.81
X90.23Y-145.86
X90.306Y-98.259
X96.58Y-124.27
X96.58Y-143.32
X96.656Y-95.719
X97.4Y-222.06
X99.78Y-164.91
X103.75Y-219.52
X104.505Y-183.96
X106.13Y-162.37
X109.28Y-126.81
X109.331Y-145.86
X109.356Y-98.259
X110.855Y-181.42
X114.081Y-203.01
X115.63Y-124.27
X115.681Y-143.32
X115.706Y-95.719
X118.83Y-164.91
X120.431Y-200.47
X121.207Y-222.069
X123.504Y-183.96
X125.18Y-162.37
X127.557Y-219.529
X128.381Y-126.81
X128.381Y-145.86
X128.406Y-98.259
X129.854Y-181.42
X133.131Y-203.01
X134.731Y-124.27
X134.731Y-143.32
X134.756Y-95.719
X137.88Y-164.91
X139.481Y-200.47
X142.605Y-183.96
X144.23Y-162.37
X147.431Y-126.81
X147.431Y-145.86
X147.456Y-98.259
X148.955Y-181.42
X152.181Y-203.01
X153.781Y-124.27
X153.781Y-143.32
X153.806Y-95.719
X156.93Y-164.91
X158.531Y-200.47
X161.655Y-183.96
X163.28Y-162.37
X166.481Y-126.81
X166.481Y-145.86
X166.506Y-98.259
X168.005Y-181.42
X171.231Y-203.01
X172.831Y-124.27
X172.831Y-143.32
X172.856Y-95.719
X175.98Y-164.91
X177.581Y-200.47
X180.705Y-183.96
X182.33Y-162.37
X185.531Y-126.81
X185.531Y-145.86
X185.556Y-98.259
X187.055Y-181.42
X190.281Y-203.01
X191.881Y-124.27
X191.881Y-143.32
X191.906Y-95.719
X192.656Y-222.069
X195.03Y-164.91
X196.631Y-200.47
X199.006Y-219.529
X199.755Y-183.96
X201.38Y-162.37
X204.581Y-126.81
X204.581Y-145.86
X204.606Y-98.259
X206.105Y-181.42
X209.331Y-203.01
X210.931Y-124.27
X210.931Y-143.32
X210.956Y-95.719
X214.08Y-164.91
X215.681Y-200.47
X218.805Y-183.96
X220.43Y-162.37
X223.631Y-126.81
X223.631Y-145.86
X223.656Y-98.259
X225.155Y-181.42
X228.381Y-203.01
X229.981Y-124.27
X229.981Y-143.32
X230.006Y-95.719
X233.13Y-164.91
X234.731Y-200.47
X237.855Y-183.96
X239.48Y-162.37
X242.681Y-126.81
X242.681Y-145.86
X242.706Y-98.259
X244.205Y-181.42
X247.431Y-203.01
X249.031Y-124.27
X249.031Y-143.32
X249.056Y-95.719
X252.18Y-164.91
X253.781Y-200.47
X256.905Y-183.96
X258.53Y-162.37
X261.71Y-222.06
X261.731Y-126.81
X261.731Y-145.86
X263.255Y-181.42
X266.481Y-203.01
X268.06Y-219.52
X268.081Y-124.27
X268.081Y-143.32
X271.18Y-164.91
X272.831Y-200.47
X275.955Y-183.96
X277.53Y-162.37
X280.781Y-126.81
X280.781Y-145.86
X280.832Y-222.06
X280.865Y-98.259
X282.305Y-181.42
X285.531Y-203.01
X287.131Y-124.27
X287.131Y-143.32
X287.182Y-219.52
X287.215Y-95.719
X290.23Y-164.91
X291.881Y-200.47
X295.005Y-183.96
X296.58Y-162.37
X299.831Y-126.81
X299.831Y-145.86
X299.856Y-98.259
X299.882Y-222.06
X301.355Y-181.42
X306.181Y-124.27
X306.181Y-143.32
X306.206Y-95.719
X306.232Y-219.52
X309.28Y-164.91
X311.756Y-203.01
X315.63Y-162.37
X318.106Y-200.47
X318.906Y-98.259
X318.932Y-126.81
X318.932Y-222.06
X325.256Y-95.719
X325.282Y-124.27
X325.282Y-219.52
X325.993Y-183.96
X328.431Y-145.86
X332.343Y-181.42
X333.079Y-164.91
X334.781Y-143.32
X337.931Y-126.81
X337.956Y-98.259
X337.982Y-203.01
X337.982Y-222.06
X339.429Y-162.37
X344.281Y-124.27
X344.306Y-95.719
X344.332Y-200.47
X344.332Y-219.52
X357.006Y-98.259
X357.032Y-126.81
X357.032Y-145.86
X357.032Y-164.91
X357.032Y-183.96
X357.032Y-203.01
X357.032Y-222.06
X363.356Y-95.719
X363.382Y-124.27
X363.382Y-143.32
X363.382Y-162.37
X363.382Y-181.42
X363.382Y-200.47
X363.382Y-219.52
T2
X258.365Y-79.975G85X258.365Y-80.575
G05
X258.365Y-83.905G85X258.365Y-85.005
G05
X267.005Y-79.975G85X267.005Y-80.575
G05
X267.005Y-83.905G85X267.005Y-85.005
G05
T0
M30
