G04 #@! TF.GenerationSoftware,KiCad,Pcbnew,(5.1.9-0-10_14)*
G04 #@! TF.CreationDate,2021-05-12T14:40:02+09:00*
G04 #@! TF.ProjectId,JupiterAdvanced,4a757069-7465-4724-9164-76616e636564,1*
G04 #@! TF.SameCoordinates,Original*
G04 #@! TF.FileFunction,Copper,L2,Bot*
G04 #@! TF.FilePolarity,Positive*
%FSLAX46Y46*%
G04 Gerber Fmt 4.6, Leading zero omitted, Abs format (unit mm)*
G04 Created by KiCad (PCBNEW (5.1.9-0-10_14)) date 2021-05-12 14:40:02*
%MOMM*%
%LPD*%
G01*
G04 APERTURE LIST*
G04 #@! TA.AperFunction,SMDPad,CuDef*
%ADD10R,0.700000X0.600000*%
G04 #@! TD*
G04 #@! TA.AperFunction,SMDPad,CuDef*
%ADD11R,1.500000X0.550000*%
G04 #@! TD*
G04 #@! TA.AperFunction,SMDPad,CuDef*
%ADD12R,0.550000X1.500000*%
G04 #@! TD*
G04 #@! TA.AperFunction,ComponentPad*
%ADD13C,2.250000*%
G04 #@! TD*
G04 #@! TA.AperFunction,SMDPad,CuDef*
%ADD14R,1.200000X1.400000*%
G04 #@! TD*
G04 #@! TA.AperFunction,ComponentPad*
%ADD15O,1.000000X1.600000*%
G04 #@! TD*
G04 #@! TA.AperFunction,ComponentPad*
%ADD16O,1.000000X2.100000*%
G04 #@! TD*
G04 #@! TA.AperFunction,SMDPad,CuDef*
%ADD17R,0.300000X1.450000*%
G04 #@! TD*
G04 #@! TA.AperFunction,SMDPad,CuDef*
%ADD18R,0.600000X1.450000*%
G04 #@! TD*
G04 #@! TA.AperFunction,SMDPad,CuDef*
%ADD19R,0.700000X1.000000*%
G04 #@! TD*
G04 #@! TA.AperFunction,SMDPad,CuDef*
%ADD20R,1.200000X0.900000*%
G04 #@! TD*
G04 #@! TA.AperFunction,ViaPad*
%ADD21C,0.800000*%
G04 #@! TD*
G04 #@! TA.AperFunction,Conductor*
%ADD22C,0.254000*%
G04 #@! TD*
G04 #@! TA.AperFunction,Conductor*
%ADD23C,0.381000*%
G04 #@! TD*
G04 #@! TA.AperFunction,Conductor*
%ADD24C,0.200000*%
G04 #@! TD*
G04 #@! TA.AperFunction,Conductor*
%ADD25C,0.500000*%
G04 #@! TD*
G04 #@! TA.AperFunction,Conductor*
%ADD26C,0.150000*%
G04 #@! TD*
G04 APERTURE END LIST*
D10*
X280101720Y-87023820D03*
X285901720Y-87023820D03*
X280101720Y-83323820D03*
X285901720Y-83323820D03*
G04 #@! TA.AperFunction,SMDPad,CuDef*
G36*
G01*
X270137500Y-86774999D02*
X270137500Y-88175001D01*
G75*
G02*
X269887501Y-88425000I-249999J0D01*
G01*
X269337499Y-88425000D01*
G75*
G02*
X269087500Y-88175001I0J249999D01*
G01*
X269087500Y-86774999D01*
G75*
G02*
X269337499Y-86525000I249999J0D01*
G01*
X269887501Y-86525000D01*
G75*
G02*
X270137500Y-86774999I0J-249999D01*
G01*
G37*
G04 #@! TD.AperFunction*
G04 #@! TA.AperFunction,SMDPad,CuDef*
G36*
G01*
X273287500Y-86774999D02*
X273287500Y-88175001D01*
G75*
G02*
X273037501Y-88425000I-249999J0D01*
G01*
X272487499Y-88425000D01*
G75*
G02*
X272237500Y-88175001I0J249999D01*
G01*
X272237500Y-86774999D01*
G75*
G02*
X272487499Y-86525000I249999J0D01*
G01*
X273037501Y-86525000D01*
G75*
G02*
X273287500Y-86774999I0J-249999D01*
G01*
G37*
G04 #@! TD.AperFunction*
D11*
X260025000Y-104475000D03*
X260025000Y-105275000D03*
X260025000Y-106075000D03*
X260025000Y-106875000D03*
X260025000Y-107675000D03*
X260025000Y-108475000D03*
X260025000Y-109275000D03*
X260025000Y-110075000D03*
X260025000Y-110875000D03*
X260025000Y-111675000D03*
X260025000Y-112475000D03*
D12*
X261725000Y-114175000D03*
X262525000Y-114175000D03*
X263325000Y-114175000D03*
X264125000Y-114175000D03*
X264925000Y-114175000D03*
X265725000Y-114175000D03*
X266525000Y-114175000D03*
X267325000Y-114175000D03*
X268125000Y-114175000D03*
X268925000Y-114175000D03*
X269725000Y-114175000D03*
D11*
X271425000Y-112475000D03*
X271425000Y-111675000D03*
X271425000Y-110875000D03*
X271425000Y-110075000D03*
X271425000Y-109275000D03*
X271425000Y-108475000D03*
X271425000Y-107675000D03*
X271425000Y-106875000D03*
X271425000Y-106075000D03*
X271425000Y-105275000D03*
X271425000Y-104475000D03*
D12*
X269725000Y-102775000D03*
X268925000Y-102775000D03*
X268125000Y-102775000D03*
X267325000Y-102775000D03*
X266525000Y-102775000D03*
X265725000Y-102775000D03*
X264925000Y-102775000D03*
X264125000Y-102775000D03*
X263325000Y-102775000D03*
X262525000Y-102775000D03*
X261725000Y-102775000D03*
G04 #@! TA.AperFunction,SMDPad,CuDef*
G36*
G01*
X261753670Y-98633580D02*
X260841170Y-98633580D01*
G75*
G02*
X260597420Y-98389830I0J243750D01*
G01*
X260597420Y-97902330D01*
G75*
G02*
X260841170Y-97658580I243750J0D01*
G01*
X261753670Y-97658580D01*
G75*
G02*
X261997420Y-97902330I0J-243750D01*
G01*
X261997420Y-98389830D01*
G75*
G02*
X261753670Y-98633580I-243750J0D01*
G01*
G37*
G04 #@! TD.AperFunction*
G04 #@! TA.AperFunction,SMDPad,CuDef*
G36*
G01*
X261753670Y-96758580D02*
X260841170Y-96758580D01*
G75*
G02*
X260597420Y-96514830I0J243750D01*
G01*
X260597420Y-96027330D01*
G75*
G02*
X260841170Y-95783580I243750J0D01*
G01*
X261753670Y-95783580D01*
G75*
G02*
X261997420Y-96027330I0J-243750D01*
G01*
X261997420Y-96514830D01*
G75*
G02*
X261753670Y-96758580I-243750J0D01*
G01*
G37*
G04 #@! TD.AperFunction*
G04 #@! TA.AperFunction,SMDPad,CuDef*
G36*
G01*
X264273350Y-98633580D02*
X263360850Y-98633580D01*
G75*
G02*
X263117100Y-98389830I0J243750D01*
G01*
X263117100Y-97902330D01*
G75*
G02*
X263360850Y-97658580I243750J0D01*
G01*
X264273350Y-97658580D01*
G75*
G02*
X264517100Y-97902330I0J-243750D01*
G01*
X264517100Y-98389830D01*
G75*
G02*
X264273350Y-98633580I-243750J0D01*
G01*
G37*
G04 #@! TD.AperFunction*
G04 #@! TA.AperFunction,SMDPad,CuDef*
G36*
G01*
X264273350Y-96758580D02*
X263360850Y-96758580D01*
G75*
G02*
X263117100Y-96514830I0J243750D01*
G01*
X263117100Y-96027330D01*
G75*
G02*
X263360850Y-95783580I243750J0D01*
G01*
X264273350Y-95783580D01*
G75*
G02*
X264517100Y-96027330I0J-243750D01*
G01*
X264517100Y-96514830D01*
G75*
G02*
X264273350Y-96758580I-243750J0D01*
G01*
G37*
G04 #@! TD.AperFunction*
D13*
X333079320Y-164909620D03*
X339429320Y-162369620D03*
X357006120Y-98258820D03*
X363356120Y-95718820D03*
D14*
X282199100Y-113759520D03*
X282199100Y-111559520D03*
X280499100Y-111559520D03*
X280499100Y-113759520D03*
D15*
X267005000Y-80275000D03*
X258365000Y-80275000D03*
D16*
X267005000Y-84455000D03*
X258365000Y-84455000D03*
D17*
X262435000Y-85370000D03*
X262935000Y-85370000D03*
X263435000Y-85370000D03*
X261935000Y-85370000D03*
X263935000Y-85370000D03*
X261435000Y-85370000D03*
X264435000Y-85370000D03*
X260935000Y-85370000D03*
D18*
X260235000Y-85370000D03*
X265135000Y-85370000D03*
X259460000Y-85370000D03*
X265910000Y-85370000D03*
D10*
X261531860Y-93205340D03*
X263531860Y-93205340D03*
X261531860Y-91305340D03*
D19*
X263531860Y-91505340D03*
D13*
X71192620Y-145846920D03*
X77542620Y-143306920D03*
X75955120Y-164909620D03*
X82305120Y-162369620D03*
X192655647Y-222069227D03*
X199005647Y-219529227D03*
X311756020Y-203009620D03*
X318106020Y-200469620D03*
X299881520Y-222059620D03*
X306231520Y-219519620D03*
X309279520Y-164909620D03*
X315629520Y-162369620D03*
X261710380Y-222059620D03*
X268060380Y-219519620D03*
G04 #@! TA.AperFunction,SMDPad,CuDef*
G36*
G01*
X279103770Y-91493520D02*
X280016270Y-91493520D01*
G75*
G02*
X280260020Y-91737270I0J-243750D01*
G01*
X280260020Y-92224770D01*
G75*
G02*
X280016270Y-92468520I-243750J0D01*
G01*
X279103770Y-92468520D01*
G75*
G02*
X278860020Y-92224770I0J243750D01*
G01*
X278860020Y-91737270D01*
G75*
G02*
X279103770Y-91493520I243750J0D01*
G01*
G37*
G04 #@! TD.AperFunction*
G04 #@! TA.AperFunction,SMDPad,CuDef*
G36*
G01*
X279103770Y-89618520D02*
X280016270Y-89618520D01*
G75*
G02*
X280260020Y-89862270I0J-243750D01*
G01*
X280260020Y-90349770D01*
G75*
G02*
X280016270Y-90593520I-243750J0D01*
G01*
X279103770Y-90593520D01*
G75*
G02*
X278860020Y-90349770I0J243750D01*
G01*
X278860020Y-89862270D01*
G75*
G02*
X279103770Y-89618520I243750J0D01*
G01*
G37*
G04 #@! TD.AperFunction*
G04 #@! TA.AperFunction,SMDPad,CuDef*
G36*
G01*
X260837500Y-117231250D02*
X260837500Y-116318750D01*
G75*
G02*
X261081250Y-116075000I243750J0D01*
G01*
X261568750Y-116075000D01*
G75*
G02*
X261812500Y-116318750I0J-243750D01*
G01*
X261812500Y-117231250D01*
G75*
G02*
X261568750Y-117475000I-243750J0D01*
G01*
X261081250Y-117475000D01*
G75*
G02*
X260837500Y-117231250I0J243750D01*
G01*
G37*
G04 #@! TD.AperFunction*
G04 #@! TA.AperFunction,SMDPad,CuDef*
G36*
G01*
X258962500Y-117231250D02*
X258962500Y-116318750D01*
G75*
G02*
X259206250Y-116075000I243750J0D01*
G01*
X259693750Y-116075000D01*
G75*
G02*
X259937500Y-116318750I0J-243750D01*
G01*
X259937500Y-117231250D01*
G75*
G02*
X259693750Y-117475000I-243750J0D01*
G01*
X259206250Y-117475000D01*
G75*
G02*
X258962500Y-117231250I0J243750D01*
G01*
G37*
G04 #@! TD.AperFunction*
G04 #@! TA.AperFunction,SMDPad,CuDef*
G36*
G01*
X255160120Y-91550170D02*
X255160120Y-92462670D01*
G75*
G02*
X254916370Y-92706420I-243750J0D01*
G01*
X254428870Y-92706420D01*
G75*
G02*
X254185120Y-92462670I0J243750D01*
G01*
X254185120Y-91550170D01*
G75*
G02*
X254428870Y-91306420I243750J0D01*
G01*
X254916370Y-91306420D01*
G75*
G02*
X255160120Y-91550170I0J-243750D01*
G01*
G37*
G04 #@! TD.AperFunction*
G04 #@! TA.AperFunction,SMDPad,CuDef*
G36*
G01*
X257035120Y-91550170D02*
X257035120Y-92462670D01*
G75*
G02*
X256791370Y-92706420I-243750J0D01*
G01*
X256303870Y-92706420D01*
G75*
G02*
X256060120Y-92462670I0J243750D01*
G01*
X256060120Y-91550170D01*
G75*
G02*
X256303870Y-91306420I243750J0D01*
G01*
X256791370Y-91306420D01*
G75*
G02*
X257035120Y-91550170I0J-243750D01*
G01*
G37*
G04 #@! TD.AperFunction*
G04 #@! TA.AperFunction,SMDPad,CuDef*
G36*
G01*
X270063620Y-92462670D02*
X270063620Y-91550170D01*
G75*
G02*
X270307370Y-91306420I243750J0D01*
G01*
X270794870Y-91306420D01*
G75*
G02*
X271038620Y-91550170I0J-243750D01*
G01*
X271038620Y-92462670D01*
G75*
G02*
X270794870Y-92706420I-243750J0D01*
G01*
X270307370Y-92706420D01*
G75*
G02*
X270063620Y-92462670I0J243750D01*
G01*
G37*
G04 #@! TD.AperFunction*
G04 #@! TA.AperFunction,SMDPad,CuDef*
G36*
G01*
X268188620Y-92462670D02*
X268188620Y-91550170D01*
G75*
G02*
X268432370Y-91306420I243750J0D01*
G01*
X268919870Y-91306420D01*
G75*
G02*
X269163620Y-91550170I0J-243750D01*
G01*
X269163620Y-92462670D01*
G75*
G02*
X268919870Y-92706420I-243750J0D01*
G01*
X268432370Y-92706420D01*
G75*
G02*
X268188620Y-92462670I0J243750D01*
G01*
G37*
G04 #@! TD.AperFunction*
X295004720Y-183959620D03*
X301354720Y-181419620D03*
X285530520Y-203009620D03*
X291880520Y-200469620D03*
X318931520Y-126809620D03*
X325281520Y-124269620D03*
X299830720Y-145859620D03*
X306180720Y-143319620D03*
X357031520Y-164909620D03*
X363381520Y-162369620D03*
X357031520Y-183959620D03*
X363381520Y-181419620D03*
X337930720Y-126809620D03*
X344280720Y-124269620D03*
X114080520Y-203009620D03*
X120430520Y-200469620D03*
X195030320Y-164909620D03*
X201380320Y-162369620D03*
X133130520Y-203009620D03*
X139480520Y-200469620D03*
X118830320Y-164909620D03*
X125180320Y-162369620D03*
X171230520Y-203009620D03*
X177580520Y-200469620D03*
X214080320Y-164909620D03*
X220430320Y-162369620D03*
X175980320Y-164909620D03*
X182330320Y-162369620D03*
X337956120Y-98258820D03*
X344306120Y-95718820D03*
X318906120Y-98258820D03*
X325256120Y-95718820D03*
X299856120Y-98258820D03*
X306206120Y-95718820D03*
X280865320Y-98258820D03*
X287215320Y-95718820D03*
X242706120Y-98258820D03*
X249056120Y-95718820D03*
X223656120Y-98258820D03*
X230006120Y-95718820D03*
X204606120Y-98258820D03*
X210956120Y-95718820D03*
X185556120Y-98258820D03*
X191906120Y-95718820D03*
X166506120Y-98258820D03*
X172856120Y-95718820D03*
X147456120Y-98258820D03*
X153806120Y-95718820D03*
X128406120Y-98258820D03*
X134756120Y-95718820D03*
X109356120Y-98258820D03*
X115706120Y-95718820D03*
X90306120Y-98258820D03*
X96656120Y-95718820D03*
X71256120Y-98258820D03*
X77606120Y-95718820D03*
X123503920Y-183959620D03*
X129853920Y-181419620D03*
X156930320Y-164909620D03*
X163280320Y-162369620D03*
X99780320Y-164909620D03*
X106130320Y-162369620D03*
X271179520Y-164909620D03*
X277529520Y-162369620D03*
X252180320Y-164909620D03*
X258530320Y-162369620D03*
X209330520Y-203009620D03*
X215680520Y-200469620D03*
X228380520Y-203009620D03*
X234730520Y-200469620D03*
X256904720Y-183959620D03*
X263254720Y-181419620D03*
X237854720Y-183959620D03*
X244204720Y-181419620D03*
X218804720Y-183959620D03*
X225154720Y-181419620D03*
X233130320Y-164909620D03*
X239480320Y-162369620D03*
X199754720Y-183959620D03*
X206104720Y-181419620D03*
X180704720Y-183959620D03*
X187054720Y-181419620D03*
X280780720Y-126809620D03*
X287130720Y-124269620D03*
X161654720Y-183959620D03*
X168004720Y-181419620D03*
X137880320Y-164909620D03*
X144230320Y-162369620D03*
X142604720Y-183959620D03*
X148954720Y-181419620D03*
X152180520Y-203009620D03*
X158530520Y-200469620D03*
X190280520Y-203009620D03*
X196630520Y-200469620D03*
X104504720Y-183959620D03*
X110854720Y-181419620D03*
X242680720Y-145859620D03*
X249030720Y-143319620D03*
X223630720Y-145859620D03*
X229980720Y-143319620D03*
X204580720Y-145859620D03*
X210930720Y-143319620D03*
X185530720Y-145859620D03*
X191880720Y-143319620D03*
X166480720Y-145859620D03*
X172830720Y-143319620D03*
X147430720Y-145859620D03*
X153780720Y-143319620D03*
X128380720Y-145859620D03*
X134730720Y-143319620D03*
X109330720Y-145859620D03*
X115680720Y-143319620D03*
X90229920Y-145859620D03*
X96579920Y-143319620D03*
X261730720Y-145859620D03*
X268080720Y-143319620D03*
X247430520Y-203009620D03*
X253780520Y-200469620D03*
X83092520Y-203009620D03*
X89442520Y-200469620D03*
X97399524Y-222059620D03*
X103749524Y-219519620D03*
X73567520Y-222059620D03*
X79917520Y-219519620D03*
X290229520Y-164909620D03*
X296579520Y-162369620D03*
X121207128Y-222069227D03*
X127557128Y-219529227D03*
X280780720Y-145859620D03*
X287130720Y-143319620D03*
X357031520Y-145859620D03*
X363381520Y-143319620D03*
X272830520Y-200469620D03*
X266480520Y-203009620D03*
X280831520Y-222059620D03*
X287181520Y-219519620D03*
X299830720Y-126809620D03*
X306180720Y-124269620D03*
G04 #@! TA.AperFunction,SMDPad,CuDef*
G36*
G01*
X256080420Y-96070120D02*
X254830420Y-96070120D01*
G75*
G02*
X254580420Y-95820120I0J250000D01*
G01*
X254580420Y-95070120D01*
G75*
G02*
X254830420Y-94820120I250000J0D01*
G01*
X256080420Y-94820120D01*
G75*
G02*
X256330420Y-95070120I0J-250000D01*
G01*
X256330420Y-95820120D01*
G75*
G02*
X256080420Y-96070120I-250000J0D01*
G01*
G37*
G04 #@! TD.AperFunction*
G04 #@! TA.AperFunction,SMDPad,CuDef*
G36*
G01*
X256080420Y-98870120D02*
X254830420Y-98870120D01*
G75*
G02*
X254580420Y-98620120I0J250000D01*
G01*
X254580420Y-97870120D01*
G75*
G02*
X254830420Y-97620120I250000J0D01*
G01*
X256080420Y-97620120D01*
G75*
G02*
X256330420Y-97870120I0J-250000D01*
G01*
X256330420Y-98620120D01*
G75*
G02*
X256080420Y-98870120I-250000J0D01*
G01*
G37*
G04 #@! TD.AperFunction*
X261730720Y-126809620D03*
X268080720Y-124269620D03*
X242680720Y-126809620D03*
X249030720Y-124269620D03*
X223630720Y-126809620D03*
X229980720Y-124269620D03*
X204580720Y-126809620D03*
X210930720Y-124269620D03*
X185530720Y-126809620D03*
X191880720Y-124269620D03*
X166480720Y-126809620D03*
X172830720Y-124269620D03*
X147430720Y-126809620D03*
X153780720Y-124269620D03*
X128380720Y-126809620D03*
X134730720Y-124269620D03*
X109279920Y-126809620D03*
X115629920Y-124269620D03*
X90229920Y-126809620D03*
X96579920Y-124269620D03*
X71179920Y-126809620D03*
X77529920Y-124269620D03*
X325992720Y-183959620D03*
X332342720Y-181419620D03*
X357031520Y-203009620D03*
X363381520Y-200469620D03*
X357031520Y-126809620D03*
X363381520Y-124269620D03*
D20*
X365007120Y-228791620D03*
X365007120Y-232091620D03*
X365007120Y-209741620D03*
X365007120Y-213041620D03*
X365007120Y-190691620D03*
X365007120Y-193991620D03*
X365007120Y-171641620D03*
X365007120Y-174941620D03*
X365007120Y-152591620D03*
X365007120Y-155891620D03*
X365007120Y-133541620D03*
X365007120Y-136841620D03*
X365032520Y-105244820D03*
X365032520Y-108544820D03*
X345957120Y-228791620D03*
X345957120Y-232091620D03*
X345957120Y-209741620D03*
X345957120Y-213041620D03*
X340877120Y-171641620D03*
X340877120Y-174941620D03*
X335797120Y-152591620D03*
X335797120Y-155891620D03*
X345957120Y-133541620D03*
X345957120Y-136841620D03*
X345982520Y-105244820D03*
X345982520Y-108544820D03*
X326907120Y-228791620D03*
X326907120Y-232091620D03*
X319287120Y-209741620D03*
X319287120Y-213041620D03*
X333257120Y-190691620D03*
X333257120Y-193991620D03*
X316747120Y-171641620D03*
X316747120Y-174941620D03*
X326907120Y-133541620D03*
X326907120Y-136841620D03*
X326932520Y-105244820D03*
X326932520Y-108544820D03*
X307857120Y-228791620D03*
X307857120Y-232091620D03*
X302777120Y-190691620D03*
X302777120Y-193991620D03*
X297697120Y-171641620D03*
X297697120Y-174941620D03*
X307857120Y-152591620D03*
X307857120Y-155891620D03*
X307857120Y-133541620D03*
X307857120Y-136841620D03*
X307882520Y-105244820D03*
X307882520Y-108544820D03*
X288807120Y-228791620D03*
X288807120Y-232091620D03*
X293887120Y-209741620D03*
X293887120Y-213041620D03*
X283727120Y-190691620D03*
X283727120Y-193991620D03*
X278647120Y-171641620D03*
X278647120Y-174941620D03*
X288807120Y-152591620D03*
X288807120Y-155891620D03*
X288807120Y-133541620D03*
X288807120Y-136841620D03*
X291085020Y-105063020D03*
X291085020Y-108363020D03*
X269757120Y-228791620D03*
X269757120Y-232091620D03*
X274837120Y-209741620D03*
X274837120Y-213041620D03*
X264677120Y-190691620D03*
X264677120Y-193991620D03*
X259597120Y-171641620D03*
X259597120Y-174941620D03*
X269757120Y-152591620D03*
X269757120Y-155891620D03*
X269757120Y-133541620D03*
X269757120Y-136841620D03*
X255787120Y-209741620D03*
X255787120Y-213041620D03*
X245627120Y-190691620D03*
X245627120Y-193991620D03*
X240547120Y-171641620D03*
X240547120Y-174941620D03*
X250707120Y-152591620D03*
X250707120Y-155891620D03*
X250707120Y-133541620D03*
X250707120Y-136841620D03*
X248330720Y-107847860D03*
X248330720Y-111147860D03*
X236737120Y-209741620D03*
X236737120Y-213041620D03*
X226577120Y-190691620D03*
X226577120Y-193991620D03*
X221497120Y-171641620D03*
X221497120Y-174941620D03*
X231657120Y-152591620D03*
X231657120Y-155891620D03*
X231657120Y-133541620D03*
X231657120Y-136841620D03*
X231682520Y-105244820D03*
X231682520Y-108544820D03*
X217687120Y-209741620D03*
X217687120Y-213041620D03*
X207527120Y-190691620D03*
X207527120Y-193991620D03*
X202447120Y-171641620D03*
X202447120Y-174941620D03*
X212607120Y-152591620D03*
X212607120Y-155891620D03*
X212607120Y-133541620D03*
X212607120Y-136841620D03*
X212632520Y-105244820D03*
X212632520Y-108544820D03*
X199907120Y-228791620D03*
X199907120Y-232091620D03*
X198637120Y-209741620D03*
X198637120Y-213041620D03*
X188477120Y-190691620D03*
X188477120Y-193991620D03*
X183397120Y-171641620D03*
X183397120Y-174941620D03*
X193557120Y-152591620D03*
X193557120Y-155891620D03*
X193557120Y-133541620D03*
X193557120Y-136841620D03*
X193582520Y-105244820D03*
X193582520Y-108544820D03*
X179587120Y-209741620D03*
X179587120Y-213041620D03*
X169427120Y-190691620D03*
X169427120Y-193991620D03*
X164347120Y-171641620D03*
X164347120Y-174941620D03*
X174507120Y-152591620D03*
X174507120Y-155891620D03*
X174507120Y-133541620D03*
X174507120Y-136841620D03*
X174532520Y-105244820D03*
X174532520Y-108544820D03*
X160537120Y-209741620D03*
X160537120Y-213041620D03*
X150377120Y-190691620D03*
X150377120Y-193991620D03*
X145297120Y-171641620D03*
X145297120Y-174941620D03*
X155457120Y-152591620D03*
X155457120Y-155891620D03*
X155457120Y-133541620D03*
X155457120Y-136841620D03*
X155482520Y-105244820D03*
X155482520Y-108544820D03*
X128787120Y-228791620D03*
X128787120Y-232091620D03*
X141487120Y-209741620D03*
X141487120Y-213041620D03*
X131327120Y-190691620D03*
X131327120Y-193991620D03*
X126247120Y-171641620D03*
X126247120Y-174941620D03*
X136407120Y-152591620D03*
X136407120Y-155891620D03*
X136407120Y-133541620D03*
X136407120Y-136841620D03*
X136432520Y-105244820D03*
X136432520Y-108544820D03*
X122437120Y-209741620D03*
X122437120Y-213041620D03*
X112277120Y-190691620D03*
X112277120Y-193991620D03*
X107197120Y-171641620D03*
X107197120Y-174941620D03*
X117357120Y-152591620D03*
X117357120Y-155891620D03*
X117357120Y-133541620D03*
X117357120Y-136841620D03*
X117382520Y-105244820D03*
X117382520Y-108544820D03*
X105927120Y-228791620D03*
X105927120Y-232091620D03*
X90687120Y-209741620D03*
X90687120Y-213041620D03*
X98307120Y-152591620D03*
X98307120Y-155891620D03*
X98307120Y-133541620D03*
X98307120Y-136841620D03*
X98281720Y-105270220D03*
X98281720Y-108570220D03*
X81797120Y-228791620D03*
X81797120Y-232091620D03*
X85607120Y-190691620D03*
X85607120Y-193991620D03*
X83067120Y-171641620D03*
X83067120Y-174941620D03*
X79257120Y-152591620D03*
X79257120Y-155891620D03*
X79257120Y-133541620D03*
X79257120Y-136841620D03*
X79282520Y-105244820D03*
X79282520Y-108544820D03*
D13*
X78330020Y-183959620D03*
X84680020Y-181419620D03*
X275954720Y-183959620D03*
X282304720Y-181419620D03*
G04 #@! TA.AperFunction,SMDPad,CuDef*
G36*
G01*
X267475000Y-96618750D02*
X267475000Y-97531250D01*
G75*
G02*
X267231250Y-97775000I-243750J0D01*
G01*
X266743750Y-97775000D01*
G75*
G02*
X266500000Y-97531250I0J243750D01*
G01*
X266500000Y-96618750D01*
G75*
G02*
X266743750Y-96375000I243750J0D01*
G01*
X267231250Y-96375000D01*
G75*
G02*
X267475000Y-96618750I0J-243750D01*
G01*
G37*
G04 #@! TD.AperFunction*
G04 #@! TA.AperFunction,SMDPad,CuDef*
G36*
G01*
X269350000Y-96618750D02*
X269350000Y-97531250D01*
G75*
G02*
X269106250Y-97775000I-243750J0D01*
G01*
X268618750Y-97775000D01*
G75*
G02*
X268375000Y-97531250I0J243750D01*
G01*
X268375000Y-96618750D01*
G75*
G02*
X268618750Y-96375000I243750J0D01*
G01*
X269106250Y-96375000D01*
G75*
G02*
X269350000Y-96618750I0J-243750D01*
G01*
G37*
G04 #@! TD.AperFunction*
G04 #@! TA.AperFunction,SMDPad,CuDef*
G36*
G01*
X285661520Y-111982570D02*
X285661520Y-111070070D01*
G75*
G02*
X285905270Y-110826320I243750J0D01*
G01*
X286392770Y-110826320D01*
G75*
G02*
X286636520Y-111070070I0J-243750D01*
G01*
X286636520Y-111982570D01*
G75*
G02*
X286392770Y-112226320I-243750J0D01*
G01*
X285905270Y-112226320D01*
G75*
G02*
X285661520Y-111982570I0J243750D01*
G01*
G37*
G04 #@! TD.AperFunction*
G04 #@! TA.AperFunction,SMDPad,CuDef*
G36*
G01*
X283786520Y-111982570D02*
X283786520Y-111070070D01*
G75*
G02*
X284030270Y-110826320I243750J0D01*
G01*
X284517770Y-110826320D01*
G75*
G02*
X284761520Y-111070070I0J-243750D01*
G01*
X284761520Y-111982570D01*
G75*
G02*
X284517770Y-112226320I-243750J0D01*
G01*
X284030270Y-112226320D01*
G75*
G02*
X283786520Y-111982570I0J243750D01*
G01*
G37*
G04 #@! TD.AperFunction*
G04 #@! TA.AperFunction,SMDPad,CuDef*
G36*
G01*
X285686920Y-114255870D02*
X285686920Y-113343370D01*
G75*
G02*
X285930670Y-113099620I243750J0D01*
G01*
X286418170Y-113099620D01*
G75*
G02*
X286661920Y-113343370I0J-243750D01*
G01*
X286661920Y-114255870D01*
G75*
G02*
X286418170Y-114499620I-243750J0D01*
G01*
X285930670Y-114499620D01*
G75*
G02*
X285686920Y-114255870I0J243750D01*
G01*
G37*
G04 #@! TD.AperFunction*
G04 #@! TA.AperFunction,SMDPad,CuDef*
G36*
G01*
X283811920Y-114255870D02*
X283811920Y-113343370D01*
G75*
G02*
X284055670Y-113099620I243750J0D01*
G01*
X284543170Y-113099620D01*
G75*
G02*
X284786920Y-113343370I0J-243750D01*
G01*
X284786920Y-114255870D01*
G75*
G02*
X284543170Y-114499620I-243750J0D01*
G01*
X284055670Y-114499620D01*
G75*
G02*
X283811920Y-114255870I0J243750D01*
G01*
G37*
G04 #@! TD.AperFunction*
G04 #@! TA.AperFunction,SMDPad,CuDef*
G36*
G01*
X253919670Y-103533120D02*
X254832170Y-103533120D01*
G75*
G02*
X255075920Y-103776870I0J-243750D01*
G01*
X255075920Y-104264370D01*
G75*
G02*
X254832170Y-104508120I-243750J0D01*
G01*
X253919670Y-104508120D01*
G75*
G02*
X253675920Y-104264370I0J243750D01*
G01*
X253675920Y-103776870D01*
G75*
G02*
X253919670Y-103533120I243750J0D01*
G01*
G37*
G04 #@! TD.AperFunction*
G04 #@! TA.AperFunction,SMDPad,CuDef*
G36*
G01*
X253919670Y-101658120D02*
X254832170Y-101658120D01*
G75*
G02*
X255075920Y-101901870I0J-243750D01*
G01*
X255075920Y-102389370D01*
G75*
G02*
X254832170Y-102633120I-243750J0D01*
G01*
X253919670Y-102633120D01*
G75*
G02*
X253675920Y-102389370I0J243750D01*
G01*
X253675920Y-101901870D01*
G75*
G02*
X253919670Y-101658120I243750J0D01*
G01*
G37*
G04 #@! TD.AperFunction*
G04 #@! TA.AperFunction,SMDPad,CuDef*
G36*
G01*
X270175000Y-117331250D02*
X270175000Y-116418750D01*
G75*
G02*
X270418750Y-116175000I243750J0D01*
G01*
X270906250Y-116175000D01*
G75*
G02*
X271150000Y-116418750I0J-243750D01*
G01*
X271150000Y-117331250D01*
G75*
G02*
X270906250Y-117575000I-243750J0D01*
G01*
X270418750Y-117575000D01*
G75*
G02*
X270175000Y-117331250I0J243750D01*
G01*
G37*
G04 #@! TD.AperFunction*
G04 #@! TA.AperFunction,SMDPad,CuDef*
G36*
G01*
X268300000Y-117331250D02*
X268300000Y-116418750D01*
G75*
G02*
X268543750Y-116175000I243750J0D01*
G01*
X269031250Y-116175000D01*
G75*
G02*
X269275000Y-116418750I0J-243750D01*
G01*
X269275000Y-117331250D01*
G75*
G02*
X269031250Y-117575000I-243750J0D01*
G01*
X268543750Y-117575000D01*
G75*
G02*
X268300000Y-117331250I0J243750D01*
G01*
G37*
G04 #@! TD.AperFunction*
G04 #@! TA.AperFunction,SMDPad,CuDef*
G36*
G01*
X280119770Y-108763220D02*
X281032270Y-108763220D01*
G75*
G02*
X281276020Y-109006970I0J-243750D01*
G01*
X281276020Y-109494470D01*
G75*
G02*
X281032270Y-109738220I-243750J0D01*
G01*
X280119770Y-109738220D01*
G75*
G02*
X279876020Y-109494470I0J243750D01*
G01*
X279876020Y-109006970D01*
G75*
G02*
X280119770Y-108763220I243750J0D01*
G01*
G37*
G04 #@! TD.AperFunction*
G04 #@! TA.AperFunction,SMDPad,CuDef*
G36*
G01*
X280119770Y-106888220D02*
X281032270Y-106888220D01*
G75*
G02*
X281276020Y-107131970I0J-243750D01*
G01*
X281276020Y-107619470D01*
G75*
G02*
X281032270Y-107863220I-243750J0D01*
G01*
X280119770Y-107863220D01*
G75*
G02*
X279876020Y-107619470I0J243750D01*
G01*
X279876020Y-107131970D01*
G75*
G02*
X280119770Y-106888220I243750J0D01*
G01*
G37*
G04 #@! TD.AperFunction*
G04 #@! TA.AperFunction,SMDPad,CuDef*
G36*
G01*
X254819470Y-111099420D02*
X253906970Y-111099420D01*
G75*
G02*
X253663220Y-110855670I0J243750D01*
G01*
X253663220Y-110368170D01*
G75*
G02*
X253906970Y-110124420I243750J0D01*
G01*
X254819470Y-110124420D01*
G75*
G02*
X255063220Y-110368170I0J-243750D01*
G01*
X255063220Y-110855670D01*
G75*
G02*
X254819470Y-111099420I-243750J0D01*
G01*
G37*
G04 #@! TD.AperFunction*
G04 #@! TA.AperFunction,SMDPad,CuDef*
G36*
G01*
X254819470Y-112974420D02*
X253906970Y-112974420D01*
G75*
G02*
X253663220Y-112730670I0J243750D01*
G01*
X253663220Y-112243170D01*
G75*
G02*
X253906970Y-111999420I243750J0D01*
G01*
X254819470Y-111999420D01*
G75*
G02*
X255063220Y-112243170I0J-243750D01*
G01*
X255063220Y-112730670D01*
G75*
G02*
X254819470Y-112974420I-243750J0D01*
G01*
G37*
G04 #@! TD.AperFunction*
X328431120Y-145859620D03*
X334781120Y-143319620D03*
X337981520Y-203009620D03*
X344331520Y-200469620D03*
X357031520Y-222059620D03*
X363381520Y-219519620D03*
X318931520Y-222059620D03*
X325281520Y-219519620D03*
X337981520Y-222059620D03*
X344331520Y-219519620D03*
D21*
X291561520Y-119298720D03*
X294647620Y-118841520D03*
X273710926Y-110389074D03*
X290520120Y-120032220D03*
X294711120Y-119946420D03*
X272942704Y-111029275D03*
X273125000Y-109275000D03*
X290202620Y-118333520D03*
X294469820Y-117317520D03*
X287446720Y-111513620D03*
X287459420Y-113786920D03*
X253461520Y-100578920D03*
X257225000Y-111675000D03*
X258025000Y-113475000D03*
X254225000Y-105375000D03*
X253461520Y-96838480D03*
X265225000Y-94775000D03*
X279175000Y-110925000D03*
X256166620Y-99956620D03*
X276829520Y-102661720D03*
X269971520Y-99029520D03*
X256325000Y-113595000D03*
X265085000Y-119555000D03*
X278099520Y-98254820D03*
X256311120Y-105031820D03*
X261246620Y-120875000D03*
X248356120Y-112936020D03*
X77225000Y-110275000D03*
X77225000Y-113975000D03*
X298725000Y-109275000D03*
X298725000Y-107175000D03*
X279825000Y-96475000D03*
X276439067Y-98789067D03*
X255615420Y-107431820D03*
X278125000Y-96675000D03*
X281014465Y-94013670D03*
X279925000Y-95275000D03*
X279925000Y-94075000D03*
X278025000Y-95475000D03*
X255650820Y-105831820D03*
X256260520Y-106631820D03*
X256288420Y-108231820D03*
X254873420Y-109031820D03*
X245631720Y-110065820D03*
X241460020Y-110078520D03*
X245576250Y-111064282D03*
X241460020Y-111078523D03*
X245593922Y-112064128D03*
X241434473Y-112078199D03*
X266945320Y-117758420D03*
X245784120Y-121610120D03*
X241663220Y-121610120D03*
X267745320Y-118817120D03*
X272125000Y-115975000D03*
X265717020Y-89910920D03*
X259729460Y-89917760D03*
X289580320Y-120759220D03*
X293072820Y-120759220D03*
X273125000Y-116975000D03*
X262685000Y-81805000D03*
X269675000Y-83835000D03*
X253875000Y-84045000D03*
D22*
X344331520Y-227166020D02*
X345957120Y-228791620D01*
X344331520Y-219519620D02*
X344331520Y-227166020D01*
X294190420Y-119298720D02*
X294647620Y-118841520D01*
X291561520Y-119298720D02*
X294190420Y-119298720D01*
X271425000Y-110075000D02*
X273396852Y-110075000D01*
X273396852Y-110075000D02*
X273710926Y-110389074D01*
X325281520Y-227166020D02*
X326907120Y-228791620D01*
X325281520Y-219519620D02*
X325281520Y-227166020D01*
X294625320Y-120032220D02*
X294711120Y-119946420D01*
X290520120Y-120032220D02*
X294625320Y-120032220D01*
X271425000Y-110875000D02*
X272788429Y-110875000D01*
X272788429Y-110875000D02*
X272942704Y-111029275D01*
X363381520Y-227166020D02*
X365007120Y-228791620D01*
X363381520Y-219519620D02*
X363381520Y-227166020D01*
X293453820Y-118333520D02*
X294469820Y-117317520D01*
X290202620Y-118333520D02*
X293453820Y-118333520D01*
X271425000Y-109275000D02*
X273125000Y-109275000D01*
X344331520Y-208116020D02*
X345957120Y-209741620D01*
X344331520Y-200469620D02*
X344331520Y-208116020D01*
X334781120Y-151575620D02*
X335797120Y-152591620D01*
X334781120Y-143319620D02*
X334781120Y-151575620D01*
D23*
X282199100Y-113456618D02*
X282199100Y-113759520D01*
X280499100Y-111756618D02*
X282199100Y-113456618D01*
X280499100Y-111559520D02*
X280499100Y-111756618D01*
X285058510Y-112616830D02*
X286149020Y-111526320D01*
X283241790Y-112616830D02*
X285058510Y-112616830D01*
X282199100Y-113659520D02*
X283241790Y-112616830D01*
X282199100Y-113759520D02*
X282199100Y-113659520D01*
X285058510Y-112683710D02*
X286174420Y-113799620D01*
X285058510Y-112616830D02*
X285058510Y-112683710D01*
X283873420Y-109250720D02*
X280601420Y-109250720D01*
X286149020Y-111526320D02*
X283873420Y-109250720D01*
X259375240Y-88454900D02*
X258376420Y-89453720D01*
X258376420Y-89453720D02*
X255430020Y-89453720D01*
X254672620Y-90211120D02*
X254672620Y-92006420D01*
X255430020Y-89453720D02*
X254672620Y-90211120D01*
X279901720Y-87023820D02*
X277786220Y-87023820D01*
X254672620Y-92006420D02*
X253461520Y-93217520D01*
X253461520Y-93217520D02*
X253461520Y-96838480D01*
X255426300Y-111675000D02*
X257225000Y-111675000D01*
X254363220Y-110611920D02*
X255426300Y-111675000D01*
X259890501Y-105140501D02*
X260025000Y-105275000D01*
X254375920Y-104020620D02*
X254464720Y-103931820D01*
X264955020Y-102744980D02*
X264925000Y-102775000D01*
X277259128Y-106875000D02*
X272525000Y-106875000D01*
X272525000Y-106875000D02*
X271425000Y-106875000D01*
X279634848Y-109250720D02*
X277259128Y-106875000D01*
X280576020Y-109250720D02*
X279634848Y-109250720D01*
X257225000Y-111675000D02*
X260025000Y-111675000D01*
X254225000Y-104171540D02*
X254375920Y-104020620D01*
X254225000Y-105375000D02*
X254225000Y-104171540D01*
X263531860Y-91505340D02*
X264355340Y-91505340D01*
X264355340Y-91505340D02*
X266425000Y-93575000D01*
X266425000Y-93575000D02*
X269925000Y-93575000D01*
X270551120Y-92948880D02*
X270551120Y-92006420D01*
X269925000Y-93575000D02*
X270551120Y-92948880D01*
X270551120Y-92006420D02*
X272803620Y-92006420D01*
X272803620Y-92006420D02*
X274380020Y-90430020D01*
X274380020Y-90430020D02*
X273959320Y-90850720D01*
X277786220Y-87023820D02*
X274380020Y-90430020D01*
X270662500Y-115112500D02*
X270662500Y-116875000D01*
X269725000Y-114175000D02*
X270662500Y-115112500D01*
X253461520Y-96838480D02*
X253461520Y-100578920D01*
X265225000Y-94775000D02*
X266025000Y-94775000D01*
X266987500Y-95737500D02*
X266987500Y-97075000D01*
X266025000Y-94775000D02*
X266987500Y-95737500D01*
X263556000Y-105275000D02*
X260025000Y-105275000D01*
X264925000Y-103906000D02*
X263556000Y-105275000D01*
X264925000Y-103906000D02*
X267894000Y-106875000D01*
X267894000Y-106875000D02*
X271425000Y-106875000D01*
X264925000Y-102775000D02*
X264925000Y-103906000D01*
X261156000Y-111675000D02*
X264225000Y-108606000D01*
X260025000Y-111675000D02*
X261156000Y-111675000D01*
X266163000Y-108606000D02*
X267894000Y-106875000D01*
X264225000Y-108606000D02*
X266163000Y-108606000D01*
X269725000Y-112168000D02*
X266163000Y-108606000D01*
X269725000Y-114175000D02*
X269725000Y-112168000D01*
X280499100Y-111559520D02*
X279809520Y-111559520D01*
X279809520Y-111559520D02*
X279175000Y-110925000D01*
X279175000Y-110925000D02*
X279125000Y-110875000D01*
X266987500Y-99581500D02*
X264925000Y-101644000D01*
X264925000Y-101644000D02*
X264925000Y-102775000D01*
X266987500Y-97075000D02*
X266987500Y-99581500D01*
X259450000Y-114900000D02*
X259450000Y-116775000D01*
X258025000Y-113475000D02*
X259450000Y-114900000D01*
X269730220Y-89479120D02*
X270551120Y-90300020D01*
X270551120Y-90300020D02*
X270551120Y-92006420D01*
X266859120Y-89479120D02*
X269730220Y-89479120D01*
X265910000Y-88530000D02*
X266859120Y-89479120D01*
X265910000Y-85370000D02*
X265910000Y-88530000D01*
X259460000Y-86190000D02*
X259460000Y-85370000D01*
X259460000Y-88370140D02*
X259460000Y-86190000D01*
X259375240Y-88454900D02*
X259460000Y-88370140D01*
X254363220Y-112486920D02*
X254618320Y-112231820D01*
X255455420Y-101066120D02*
X254375920Y-102145620D01*
X252860020Y-112486920D02*
X254363220Y-112486920D01*
X252382020Y-112008920D02*
X252860020Y-112486920D01*
X252382020Y-103398320D02*
X252382020Y-112008920D01*
X253634720Y-102145620D02*
X252382020Y-103398320D01*
X254375920Y-102145620D02*
X253634720Y-102145620D01*
X255557020Y-100566220D02*
X256166620Y-99956620D01*
X255455420Y-100566220D02*
X255557020Y-100566220D01*
X255455420Y-98245120D02*
X255455420Y-100566220D01*
X255455420Y-100566220D02*
X255455420Y-101066120D01*
X260013080Y-112486920D02*
X260025000Y-112475000D01*
X254363220Y-112486920D02*
X260013080Y-112486920D01*
X259910172Y-104475000D02*
X260025000Y-104475000D01*
X258066992Y-102631820D02*
X259910172Y-104475000D01*
X256733620Y-102631820D02*
X258066992Y-102631820D01*
X256247420Y-102145620D02*
X256733620Y-102631820D01*
X254375920Y-102145620D02*
X256247420Y-102145620D01*
X273325000Y-106075000D02*
X271425000Y-106075000D01*
X274125000Y-106075000D02*
X273325000Y-106075000D01*
X278581520Y-107375720D02*
X277280800Y-106075000D01*
X277280800Y-106075000D02*
X273325000Y-106075000D01*
X280576020Y-107375720D02*
X278581520Y-107375720D01*
X262525000Y-101644000D02*
X262525000Y-102775000D01*
X260837620Y-99956620D02*
X262525000Y-101644000D01*
X256166620Y-99956620D02*
X260837620Y-99956620D01*
X268925000Y-116737500D02*
X268925000Y-114175000D01*
X268787500Y-116875000D02*
X268925000Y-116737500D01*
X276829520Y-103629220D02*
X280576020Y-107375720D01*
X276829520Y-102661720D02*
X276829520Y-103629220D01*
X266525000Y-101975000D02*
X266525000Y-102775000D01*
X269470480Y-99029520D02*
X266525000Y-101975000D01*
X269971520Y-99029520D02*
X269470480Y-99029520D01*
X270726040Y-98275000D02*
X269971520Y-99029520D01*
X273925000Y-98275000D02*
X270726040Y-98275000D01*
X278225000Y-91441040D02*
X278225000Y-93975000D01*
X278225000Y-93975000D02*
X273925000Y-98275000D01*
X279560020Y-90106020D02*
X278225000Y-91441040D01*
X254363220Y-112486920D02*
X255216920Y-112486920D01*
X255216920Y-112486920D02*
X256325000Y-113595000D01*
X265085000Y-119555000D02*
X265705000Y-120175000D01*
X265705000Y-120175000D02*
X268265000Y-120175000D01*
X268265000Y-120175000D02*
X269145000Y-119295000D01*
X269145000Y-119295000D02*
X269145000Y-118335000D01*
X268787500Y-117977500D02*
X268787500Y-116875000D01*
X269145000Y-118335000D02*
X268787500Y-117977500D01*
D22*
X280499100Y-113759520D02*
X280499100Y-114560900D01*
X280499100Y-114560900D02*
X281185620Y-115247420D01*
X282851620Y-115247420D02*
X284299420Y-113799620D01*
X281185620Y-115247420D02*
X282851620Y-115247420D01*
X279102820Y-112363240D02*
X280499100Y-113759520D01*
X275214580Y-108475000D02*
X279102820Y-112363240D01*
X271425000Y-108475000D02*
X275214580Y-108475000D01*
X284240820Y-111559520D02*
X284274020Y-111526320D01*
X282199100Y-111559520D02*
X284240820Y-111559520D01*
X282199100Y-111206300D02*
X282199100Y-111559520D01*
X281525319Y-110532519D02*
X282199100Y-111206300D01*
X273688500Y-107675000D02*
X277327260Y-107675000D01*
X280184779Y-110532519D02*
X281525319Y-110532519D01*
X277327260Y-107675000D02*
X280184779Y-110532519D01*
X273688500Y-107675000D02*
X271425000Y-107675000D01*
X282304720Y-189269220D02*
X283727120Y-190691620D01*
X282304720Y-181419620D02*
X282304720Y-189269220D01*
X278099520Y-98254820D02*
X278099520Y-98254820D01*
X273625000Y-104475000D02*
X271425000Y-104475000D01*
X278099520Y-98254820D02*
X278099520Y-98661220D01*
X278099520Y-98661220D02*
X274128920Y-102631820D01*
X274128920Y-103971080D02*
X273625000Y-104475000D01*
X274128920Y-102631820D02*
X274128920Y-103971080D01*
X84680020Y-189764520D02*
X85607120Y-190691620D01*
X84680020Y-181419620D02*
X84680020Y-189764520D01*
X256311120Y-105031820D02*
X256311120Y-105031820D01*
X259125000Y-106875000D02*
X260025000Y-106875000D01*
X257281820Y-105031820D02*
X259125000Y-106875000D01*
X256311120Y-105031820D02*
X257281820Y-105031820D01*
X77606120Y-103568420D02*
X79282520Y-105244820D01*
X77606120Y-95718820D02*
X77606120Y-103568420D01*
X365032520Y-108544820D02*
X345982520Y-108544820D01*
X345982520Y-108544820D02*
X326932520Y-108544820D01*
X326932520Y-108544820D02*
X307882520Y-108544820D01*
X98256320Y-108544820D02*
X98281720Y-108570220D01*
X79282520Y-108544820D02*
X98256320Y-108544820D01*
X117357120Y-108570220D02*
X117382520Y-108544820D01*
X98281720Y-108570220D02*
X117357120Y-108570220D01*
X117382520Y-108544820D02*
X136432520Y-108544820D01*
X136432520Y-108544820D02*
X155482520Y-108544820D01*
X155482520Y-108544820D02*
X174532520Y-108544820D01*
X174532520Y-108544820D02*
X193582520Y-108544820D01*
X193582520Y-108544820D02*
X212632520Y-108544820D01*
X212632520Y-108544820D02*
X231682520Y-108544820D01*
X245727680Y-108544820D02*
X248330720Y-111147860D01*
X231682520Y-108544820D02*
X245727680Y-108544820D01*
X307879520Y-108541820D02*
X307882520Y-108544820D01*
X291263820Y-108541820D02*
X307879520Y-108541820D01*
X291085020Y-108363020D02*
X291263820Y-108541820D01*
X248356120Y-111173260D02*
X248330720Y-111147860D01*
X248356120Y-112936020D02*
X248356120Y-111173260D01*
X261486440Y-121114820D02*
X261246620Y-120875000D01*
X272841720Y-121114820D02*
X261486440Y-121114820D01*
X276067520Y-117889020D02*
X272841720Y-121114820D01*
X288843720Y-117889020D02*
X276067520Y-117889020D01*
X291085020Y-115647720D02*
X288843720Y-117889020D01*
X291085020Y-108363020D02*
X291085020Y-115647720D01*
X79282520Y-108544820D02*
X77955180Y-108544820D01*
X77955180Y-108544820D02*
X77225000Y-109275000D01*
X77225000Y-109275000D02*
X77225000Y-110275000D01*
X77225000Y-113975000D02*
X234025000Y-113975000D01*
X237018234Y-113975000D02*
X239742293Y-116699060D01*
X234025000Y-113975000D02*
X237018234Y-113975000D01*
X239742293Y-116699060D02*
X253764795Y-116699060D01*
X253764795Y-116699060D02*
X259340735Y-122275000D01*
X259340735Y-122275000D02*
X273825000Y-122275000D01*
X273825000Y-122275000D02*
X295725000Y-122275000D01*
X295725000Y-122275000D02*
X295825000Y-122275000D01*
X298725000Y-119375000D02*
X298725000Y-109275000D01*
X295825000Y-122275000D02*
X298725000Y-119375000D01*
X292879010Y-92529010D02*
X284270990Y-92529010D01*
X284270990Y-92529010D02*
X281125000Y-95675000D01*
X293625000Y-93275000D02*
X292879010Y-92529010D01*
X293625000Y-98775000D02*
X293625000Y-93275000D01*
X298725000Y-103875000D02*
X293625000Y-98775000D01*
X298725000Y-107175000D02*
X298725000Y-103875000D01*
X280625000Y-95675000D02*
X279825000Y-96475000D01*
X281125000Y-95675000D02*
X280625000Y-95675000D01*
X276439067Y-98789067D02*
X274499124Y-100729010D01*
X274499124Y-100729010D02*
X270770990Y-100729010D01*
X269725000Y-101775000D02*
X269725000Y-102775000D01*
X270770990Y-100729010D02*
X269725000Y-101775000D01*
X77529920Y-131814420D02*
X79257120Y-133541620D01*
X77529920Y-124269620D02*
X77529920Y-131814420D01*
X365007120Y-136841620D02*
X79257120Y-136841620D01*
X266491310Y-116326200D02*
X266491310Y-114208690D01*
X257790819Y-120083020D02*
X262734490Y-120083020D01*
X262734490Y-120083020D02*
X266491310Y-116326200D01*
X253952851Y-116245050D02*
X257790819Y-120083020D01*
X236884830Y-113199530D02*
X239930350Y-116245050D01*
X68300470Y-113199530D02*
X236884830Y-113199530D01*
X266491310Y-114208690D02*
X266525000Y-114175000D01*
X239930350Y-116245050D02*
X253952851Y-116245050D01*
X67525000Y-113975000D02*
X68300470Y-113199530D01*
X67525000Y-136275000D02*
X67525000Y-113975000D01*
X68091620Y-136841620D02*
X67525000Y-136275000D01*
X79257120Y-136841620D02*
X68091620Y-136841620D01*
X77542620Y-150877120D02*
X79257120Y-152591620D01*
X77542620Y-143306920D02*
X77542620Y-150877120D01*
X79257120Y-155891620D02*
X231657120Y-155891620D01*
X231657120Y-155891620D02*
X307857120Y-155891620D01*
X334239219Y-154333719D02*
X335797120Y-155891620D01*
X309415021Y-154333719D02*
X334239219Y-154333719D01*
X307857120Y-155891620D02*
X309415021Y-154333719D01*
X363449219Y-154333719D02*
X365007120Y-155891620D01*
X337355021Y-154333719D02*
X363449219Y-154333719D01*
X335797120Y-155891620D02*
X337355021Y-154333719D01*
X265725000Y-116450444D02*
X265725000Y-114175000D01*
X68054480Y-112745520D02*
X237079216Y-112745520D01*
X259681937Y-119618063D02*
X262557381Y-119618063D01*
X262557381Y-119618063D02*
X265725000Y-116450444D01*
X240124736Y-115791040D02*
X254141040Y-115791040D01*
X257979010Y-119629010D02*
X259670990Y-119629010D01*
X66925000Y-113875000D02*
X68054480Y-112745520D01*
X254141040Y-115791040D02*
X257979010Y-119629010D01*
X259670990Y-119629010D02*
X259681937Y-119618063D01*
X237079216Y-112745520D02*
X240124736Y-115791040D01*
X66925000Y-154875000D02*
X66925000Y-113875000D01*
X67941620Y-155891620D02*
X66925000Y-154875000D01*
X79257120Y-155891620D02*
X67941620Y-155891620D01*
X82305120Y-170879620D02*
X83067120Y-171641620D01*
X82305120Y-162369620D02*
X82305120Y-170879620D01*
X365007120Y-174941620D02*
X259025000Y-174941620D01*
X259597120Y-174941620D02*
X145297120Y-174941620D01*
X145297120Y-174941620D02*
X83067120Y-174941620D01*
X255615420Y-107431820D02*
X255615420Y-107431820D01*
X257335754Y-107431820D02*
X259178934Y-109275000D01*
X259178934Y-109275000D02*
X260025000Y-109275000D01*
X255615420Y-107431820D02*
X257335754Y-107431820D01*
X83067120Y-174941620D02*
X68091620Y-174941620D01*
X68091620Y-174941620D02*
X66325000Y-173175000D01*
X262369323Y-119164053D02*
X264925000Y-116608376D01*
X66325000Y-173175000D02*
X66325000Y-113675000D01*
X66325000Y-113675000D02*
X67762480Y-112237520D01*
X67762480Y-112237520D02*
X237213283Y-112237520D01*
X237213283Y-112237520D02*
X240312793Y-115337030D01*
X258156121Y-119164053D02*
X262369323Y-119164053D01*
X240312793Y-115337030D02*
X254329098Y-115337030D01*
X254329098Y-115337030D02*
X258156121Y-119164053D01*
X264925000Y-116608376D02*
X264925000Y-114175000D01*
X85607120Y-193991620D02*
X226577120Y-193991620D01*
X226577120Y-193991620D02*
X302777120Y-193991620D01*
X331699219Y-192433719D02*
X333257120Y-193991620D01*
X304335021Y-192433719D02*
X331699219Y-192433719D01*
X302777120Y-193991620D02*
X304335021Y-192433719D01*
X334815021Y-192433719D02*
X363449219Y-192433719D01*
X363449219Y-192433719D02*
X365007120Y-193991620D01*
X333257120Y-193991620D02*
X334815021Y-192433719D01*
X264125000Y-116766308D02*
X264125000Y-114175000D01*
X262181278Y-118710030D02*
X264125000Y-116766308D01*
X254517156Y-114883020D02*
X258344166Y-118710030D01*
X240500851Y-114883020D02*
X254517156Y-114883020D01*
X65625000Y-192475000D02*
X65625000Y-113575000D01*
X65625000Y-113575000D02*
X67457780Y-111742220D01*
X67141620Y-193991620D02*
X65625000Y-192475000D01*
X67457780Y-111742220D02*
X237360051Y-111742220D01*
X258344166Y-118710030D02*
X262181278Y-118710030D01*
X237360051Y-111742220D02*
X240500851Y-114883020D01*
X85607120Y-193991620D02*
X67141620Y-193991620D01*
X79917520Y-226912020D02*
X81797120Y-228791620D01*
X79917520Y-219519620D02*
X79917520Y-226912020D01*
X81797120Y-232091620D02*
X105927120Y-232091620D01*
X105927120Y-232091620D02*
X128787120Y-232091620D01*
X198358826Y-230543326D02*
X199907120Y-232091620D01*
X130335414Y-230543326D02*
X198358826Y-230543326D01*
X128787120Y-232091620D02*
X130335414Y-230543326D01*
X268208826Y-230543326D02*
X269757120Y-232091620D01*
X201455414Y-230543326D02*
X268208826Y-230543326D01*
X199907120Y-232091620D02*
X201455414Y-230543326D01*
X269757120Y-232091620D02*
X288807120Y-232091620D01*
X288807120Y-232091620D02*
X307857120Y-232091620D01*
X307857120Y-232091620D02*
X365007120Y-232091620D01*
X268925000Y-101771000D02*
X268925000Y-102775000D01*
X270421000Y-100275000D02*
X268925000Y-101771000D01*
X273925000Y-100275000D02*
X270421000Y-100275000D01*
X281014465Y-94185535D02*
X279925000Y-95275000D01*
X281014465Y-94013670D02*
X281014465Y-94185535D01*
X277525000Y-96675000D02*
X273925000Y-100275000D01*
X278125000Y-96675000D02*
X277525000Y-96675000D01*
X366925000Y-92075000D02*
X284025000Y-92075000D01*
X284025000Y-92075000D02*
X282086330Y-94013670D01*
X366125000Y-234875000D02*
X369025000Y-231975000D01*
X369025000Y-94175000D02*
X366925000Y-92075000D01*
X363285224Y-235875000D02*
X364285224Y-234875000D01*
X369025000Y-231975000D02*
X369025000Y-94175000D01*
X145025000Y-236075000D02*
X147925000Y-236075000D01*
X244825000Y-235875000D02*
X363285224Y-235875000D01*
X80225000Y-235075000D02*
X144025000Y-235075000D01*
X147925000Y-236075000D02*
X149025000Y-234975000D01*
X79525000Y-233275000D02*
X79525000Y-234375000D01*
X79525000Y-234375000D02*
X80225000Y-235075000D01*
X364285224Y-234875000D02*
X366125000Y-234875000D01*
X144025000Y-235075000D02*
X145025000Y-236075000D01*
X80708380Y-232091620D02*
X79525000Y-233275000D01*
X282086330Y-94013670D02*
X281014465Y-94013670D01*
X243925000Y-234975000D02*
X244825000Y-235875000D01*
X149025000Y-234975000D02*
X243925000Y-234975000D01*
X81797120Y-232091620D02*
X80708380Y-232091620D01*
X96656120Y-103644620D02*
X98281720Y-105270220D01*
X96656120Y-95718820D02*
X96656120Y-103644620D01*
X96579920Y-131814420D02*
X98307120Y-133541620D01*
X96579920Y-124269620D02*
X96579920Y-131814420D01*
X96579920Y-150864420D02*
X98307120Y-152591620D01*
X96579920Y-143319620D02*
X96579920Y-150864420D01*
X89442520Y-208497020D02*
X90687120Y-209741620D01*
X89442520Y-200469620D02*
X89442520Y-208497020D01*
X365007120Y-213041620D02*
X255787120Y-213041620D01*
X236737120Y-213041620D02*
X160537120Y-213041620D01*
X160537120Y-213041620D02*
X122437120Y-213041620D01*
X120879219Y-211483719D02*
X92245021Y-211483719D01*
X92245021Y-211483719D02*
X90687120Y-213041620D01*
X122437120Y-213041620D02*
X120879219Y-211483719D01*
X268125000Y-101771000D02*
X268125000Y-102775000D01*
X270121000Y-99775000D02*
X268125000Y-101771000D01*
X273725000Y-99775000D02*
X270121000Y-99775000D01*
X278025000Y-95475000D02*
X273725000Y-99775000D01*
X255787120Y-213041620D02*
X236737120Y-213041620D01*
X283379010Y-91620990D02*
X282325000Y-92675000D01*
X369525000Y-93975000D02*
X367170990Y-91620990D01*
X369525000Y-232175000D02*
X369525000Y-93975000D01*
X364570990Y-235329010D02*
X366370990Y-235329010D01*
X244636943Y-236329010D02*
X363570990Y-236329010D01*
X243736944Y-235429010D02*
X244636943Y-236329010D01*
X149246033Y-235429010D02*
X243736944Y-235429010D01*
X148146033Y-236529010D02*
X149246033Y-235429010D01*
X144836943Y-236529010D02*
X148146033Y-236529010D01*
X281325000Y-92675000D02*
X279925000Y-94075000D01*
X80036943Y-235529010D02*
X143836944Y-235529010D01*
X79982933Y-235475000D02*
X80036943Y-235529010D01*
X90687120Y-213041620D02*
X88612820Y-210967320D01*
X67825000Y-211875000D02*
X67825000Y-234575000D01*
X68725000Y-235475000D02*
X79982933Y-235475000D01*
X282325000Y-92675000D02*
X281325000Y-92675000D01*
X363570990Y-236329010D02*
X364570990Y-235329010D01*
X68732680Y-210967320D02*
X67825000Y-211875000D01*
X143836944Y-235529010D02*
X144836943Y-236529010D01*
X367170990Y-91620990D02*
X283379010Y-91620990D01*
X366370990Y-235329010D02*
X369525000Y-232175000D01*
X88612820Y-210967320D02*
X68732680Y-210967320D01*
X67825000Y-234575000D02*
X68725000Y-235475000D01*
X103749524Y-226614024D02*
X105927120Y-228791620D01*
X103749524Y-219519620D02*
X103749524Y-226614024D01*
X115706120Y-103568420D02*
X117382520Y-105244820D01*
X115706120Y-95718820D02*
X115706120Y-103568420D01*
X115629920Y-131814420D02*
X117357120Y-133541620D01*
X115629920Y-124269620D02*
X115629920Y-131814420D01*
X115680720Y-150915220D02*
X117357120Y-152591620D01*
X115680720Y-143319620D02*
X115680720Y-150915220D01*
X106130320Y-170574820D02*
X107197120Y-171641620D01*
X106130320Y-162369620D02*
X106130320Y-170574820D01*
X110854720Y-189269220D02*
X112277120Y-190691620D01*
X110854720Y-181419620D02*
X110854720Y-189269220D01*
X120430520Y-204788582D02*
X122437120Y-206795182D01*
X122437120Y-206795182D02*
X122437120Y-209741620D01*
X120430520Y-200469620D02*
X120430520Y-204788582D01*
X134756120Y-103568420D02*
X136432520Y-105244820D01*
X134756120Y-95718820D02*
X134756120Y-103568420D01*
X134730720Y-131865220D02*
X136407120Y-133541620D01*
X134730720Y-124269620D02*
X134730720Y-131865220D01*
X134730720Y-150915220D02*
X136407120Y-152591620D01*
X134730720Y-143319620D02*
X134730720Y-150915220D01*
X125180320Y-170574820D02*
X126247120Y-171641620D01*
X125180320Y-162369620D02*
X125180320Y-170574820D01*
X129853920Y-189218420D02*
X131327120Y-190691620D01*
X129853920Y-181419620D02*
X129853920Y-189218420D01*
X139480520Y-207735020D02*
X141487120Y-209741620D01*
X139480520Y-200469620D02*
X139480520Y-207735020D01*
X127557128Y-227561628D02*
X128787120Y-228791620D01*
X127557128Y-219529227D02*
X127557128Y-227561628D01*
X153806120Y-103568420D02*
X155482520Y-105244820D01*
X153806120Y-95718820D02*
X153806120Y-103568420D01*
X153780720Y-131865220D02*
X155457120Y-133541620D01*
X153780720Y-124269620D02*
X153780720Y-131865220D01*
X153780720Y-150915220D02*
X155457120Y-152591620D01*
X153780720Y-143319620D02*
X153780720Y-150915220D01*
X144230320Y-170574820D02*
X145297120Y-171641620D01*
X144230320Y-162369620D02*
X144230320Y-170574820D01*
X148954720Y-189269220D02*
X150377120Y-190691620D01*
X148954720Y-181419620D02*
X148954720Y-189269220D01*
X158530520Y-207735020D02*
X160537120Y-209741620D01*
X158530520Y-200469620D02*
X158530520Y-207735020D01*
X172856120Y-103568420D02*
X174532520Y-105244820D01*
X172856120Y-95718820D02*
X172856120Y-103568420D01*
X172830720Y-131865220D02*
X174507120Y-133541620D01*
X172830720Y-124269620D02*
X172830720Y-131865220D01*
X172830720Y-150915220D02*
X174507120Y-152591620D01*
X172830720Y-143319620D02*
X172830720Y-150915220D01*
X163280320Y-170574820D02*
X164347120Y-171641620D01*
X163280320Y-162369620D02*
X163280320Y-170574820D01*
X168004720Y-189269220D02*
X169427120Y-190691620D01*
X168004720Y-181419620D02*
X168004720Y-189269220D01*
X179587120Y-206795182D02*
X179587120Y-209741620D01*
X177580520Y-204788582D02*
X179587120Y-206795182D01*
X177580520Y-200469620D02*
X177580520Y-204788582D01*
X191906120Y-103568420D02*
X193582520Y-105244820D01*
X191906120Y-95718820D02*
X191906120Y-103568420D01*
X191880720Y-131865220D02*
X193557120Y-133541620D01*
X191880720Y-124269620D02*
X191880720Y-131865220D01*
X191880720Y-150915220D02*
X193557120Y-152591620D01*
X191880720Y-143319620D02*
X191880720Y-150915220D01*
X182330320Y-170574820D02*
X183397120Y-171641620D01*
X182330320Y-162369620D02*
X182330320Y-170574820D01*
X187054720Y-189269220D02*
X188477120Y-190691620D01*
X187054720Y-181419620D02*
X187054720Y-189269220D01*
X196630520Y-207735020D02*
X198637120Y-209741620D01*
X196630520Y-200469620D02*
X196630520Y-207735020D01*
X199005647Y-227890147D02*
X199907120Y-228791620D01*
X199005647Y-219529227D02*
X199005647Y-227890147D01*
X210956120Y-103568420D02*
X212632520Y-105244820D01*
X210956120Y-95718820D02*
X210956120Y-103568420D01*
X210930720Y-131865220D02*
X212607120Y-133541620D01*
X210930720Y-124269620D02*
X210930720Y-131865220D01*
X210930720Y-150915220D02*
X212607120Y-152591620D01*
X210930720Y-143319620D02*
X210930720Y-150915220D01*
X201380320Y-170574820D02*
X202447120Y-171641620D01*
X201380320Y-162369620D02*
X201380320Y-170574820D01*
X206104720Y-189269220D02*
X207527120Y-190691620D01*
X206104720Y-181419620D02*
X206104720Y-189269220D01*
X215680520Y-207735020D02*
X217687120Y-209741620D01*
X215680520Y-200469620D02*
X215680520Y-207735020D01*
X230006120Y-103568420D02*
X231682520Y-105244820D01*
X230006120Y-95718820D02*
X230006120Y-103568420D01*
X229980720Y-131865220D02*
X231657120Y-133541620D01*
X229980720Y-124269620D02*
X229980720Y-131865220D01*
X229980720Y-150915220D02*
X231657120Y-152591620D01*
X229980720Y-143319620D02*
X229980720Y-150915220D01*
X220430320Y-170574820D02*
X221497120Y-171641620D01*
X220430320Y-162369620D02*
X220430320Y-170574820D01*
X225154720Y-189269220D02*
X226577120Y-190691620D01*
X225154720Y-181419620D02*
X225154720Y-189269220D01*
X234730520Y-207735020D02*
X236737120Y-209741620D01*
X234730520Y-200469620D02*
X234730520Y-207735020D01*
X249056120Y-107122460D02*
X248330720Y-107847860D01*
X249056120Y-95718820D02*
X249056120Y-107122460D01*
X249030720Y-131865220D02*
X250707120Y-133541620D01*
X249030720Y-124269620D02*
X249030720Y-131865220D01*
X249030720Y-150915220D02*
X250707120Y-152591620D01*
X249030720Y-143319620D02*
X249030720Y-150915220D01*
X239480320Y-170574820D02*
X240547120Y-171641620D01*
X239480320Y-162369620D02*
X239480320Y-170574820D01*
X244204720Y-189269220D02*
X245627120Y-190691620D01*
X244204720Y-181419620D02*
X244204720Y-189269220D01*
X253780520Y-207735020D02*
X255787120Y-209741620D01*
X253780520Y-200469620D02*
X253780520Y-207735020D01*
X268080720Y-131865220D02*
X269757120Y-133541620D01*
X268080720Y-124269620D02*
X268080720Y-131865220D01*
X268080720Y-150915220D02*
X269757120Y-152591620D01*
X268080720Y-143319620D02*
X268080720Y-150915220D01*
X258530320Y-170574820D02*
X259597120Y-171641620D01*
X258530320Y-162369620D02*
X258530320Y-170574820D01*
X263254720Y-189269220D02*
X264677120Y-190691620D01*
X263254720Y-181419620D02*
X263254720Y-189269220D01*
X272830520Y-207735020D02*
X274837120Y-209741620D01*
X272830520Y-200469620D02*
X272830520Y-207735020D01*
X268060380Y-227094880D02*
X269757120Y-228791620D01*
X268060380Y-219519620D02*
X268060380Y-227094880D01*
X287751520Y-101729520D02*
X291085020Y-105063020D01*
X287751520Y-96255020D02*
X287751520Y-101729520D01*
X287215320Y-95718820D02*
X287751520Y-96255020D01*
X287130720Y-131865220D02*
X288807120Y-133541620D01*
X287130720Y-124269620D02*
X287130720Y-131865220D01*
X288807120Y-149314982D02*
X288807120Y-152591620D01*
X287130720Y-147638582D02*
X288807120Y-149314982D01*
X287130720Y-143319620D02*
X287130720Y-147638582D01*
X277529520Y-170524020D02*
X278647120Y-171641620D01*
X277529520Y-162369620D02*
X277529520Y-170524020D01*
X291880520Y-207735020D02*
X293887120Y-209741620D01*
X291880520Y-200469620D02*
X291880520Y-207735020D01*
X287181520Y-227166020D02*
X288807120Y-228791620D01*
X287181520Y-219519620D02*
X287181520Y-227166020D01*
X306206120Y-103568420D02*
X307882520Y-105244820D01*
X306206120Y-95718820D02*
X306206120Y-103568420D01*
X306180720Y-131865220D02*
X307857120Y-133541620D01*
X306180720Y-124269620D02*
X306180720Y-131865220D01*
X306180720Y-150915220D02*
X307857120Y-152591620D01*
X306180720Y-143319620D02*
X306180720Y-150915220D01*
X296579520Y-170524020D02*
X297697120Y-171641620D01*
X296579520Y-162369620D02*
X296579520Y-170524020D01*
X301354720Y-189269220D02*
X302777120Y-190691620D01*
X301354720Y-181419620D02*
X301354720Y-189269220D01*
X306231520Y-227166020D02*
X307857120Y-228791620D01*
X306231520Y-219519620D02*
X306231520Y-227166020D01*
X325256120Y-103568420D02*
X326932520Y-105244820D01*
X325256120Y-95718820D02*
X325256120Y-103568420D01*
X325281520Y-131916020D02*
X326907120Y-133541620D01*
X325281520Y-124269620D02*
X325281520Y-131916020D01*
X315629520Y-170524020D02*
X316747120Y-171641620D01*
X315629520Y-162369620D02*
X315629520Y-170524020D01*
X332342720Y-189777220D02*
X333257120Y-190691620D01*
X332342720Y-181419620D02*
X332342720Y-189777220D01*
X318106020Y-208560520D02*
X319287120Y-209741620D01*
X318106020Y-200469620D02*
X318106020Y-208560520D01*
X344306120Y-103568420D02*
X345982520Y-105244820D01*
X344306120Y-95718820D02*
X344306120Y-103568420D01*
X344280720Y-131865220D02*
X345957120Y-133541620D01*
X344280720Y-124269620D02*
X344280720Y-131865220D01*
X339429320Y-170193820D02*
X340877120Y-171641620D01*
X339429320Y-162369620D02*
X339429320Y-170193820D01*
X363356120Y-103568420D02*
X365032520Y-105244820D01*
X363356120Y-95718820D02*
X363356120Y-103568420D01*
X363381520Y-131916020D02*
X365007120Y-133541620D01*
X363381520Y-124269620D02*
X363381520Y-131916020D01*
X363381520Y-150966020D02*
X365007120Y-152591620D01*
X363381520Y-143319620D02*
X363381520Y-150966020D01*
X363381520Y-170016020D02*
X365007120Y-171641620D01*
X363381520Y-162369620D02*
X363381520Y-170016020D01*
X363381520Y-189066020D02*
X365007120Y-190691620D01*
X363381520Y-181419620D02*
X363381520Y-189066020D01*
X363381520Y-208116020D02*
X365007120Y-209741620D01*
X363381520Y-200469620D02*
X363381520Y-208116020D01*
X255650820Y-105831820D02*
X255650820Y-105831820D01*
X259211398Y-107675000D02*
X260025000Y-107675000D01*
X257368218Y-105831820D02*
X259211398Y-107675000D01*
X255650820Y-105831820D02*
X257368218Y-105831820D01*
X256260520Y-106631820D02*
X256260520Y-106631820D01*
X259021000Y-108475000D02*
X260025000Y-108475000D01*
X258725000Y-108179000D02*
X259021000Y-108475000D01*
X258725000Y-107830668D02*
X258725000Y-108179000D01*
X257526152Y-106631820D02*
X258725000Y-107830668D01*
X256260520Y-106631820D02*
X257526152Y-106631820D01*
X256288420Y-108231820D02*
X256288420Y-108231820D01*
X259211398Y-110075000D02*
X260025000Y-110075000D01*
X257368218Y-108231820D02*
X259211398Y-110075000D01*
X256288420Y-108231820D02*
X257368218Y-108231820D01*
X241472720Y-110065820D02*
X241460020Y-110078520D01*
X243631720Y-110065820D02*
X241472720Y-110065820D01*
X243631720Y-110065820D02*
X245631720Y-110065820D01*
X257368218Y-109031820D02*
X259211398Y-110875000D01*
X259211398Y-110875000D02*
X260025000Y-110875000D01*
X254873420Y-109031820D02*
X257368218Y-109031820D01*
X241474261Y-111064282D02*
X241460020Y-111078523D01*
X243576250Y-111064282D02*
X241474261Y-111064282D01*
X243576250Y-111064282D02*
X245576250Y-111064282D01*
X247825000Y-113974999D02*
X254893271Y-113974999D01*
X245576250Y-111064282D02*
X246814282Y-111064282D01*
X246814282Y-111064282D02*
X247403719Y-111653719D01*
X247403719Y-111653719D02*
X247403719Y-113553718D01*
X247403719Y-113553718D02*
X247825000Y-113974999D01*
X254893271Y-113974999D02*
X258720280Y-117802008D01*
X261805164Y-117802008D02*
X262525000Y-117082172D01*
X258720280Y-117802008D02*
X261805164Y-117802008D01*
X262525000Y-117082172D02*
X262525000Y-114175000D01*
X241448544Y-112064128D02*
X241434473Y-112078199D01*
X243593922Y-112064128D02*
X241448544Y-112064128D01*
X243593922Y-112064128D02*
X245593922Y-112064128D01*
X263325000Y-116924240D02*
X263325000Y-114175000D01*
X258532223Y-118256019D02*
X261993221Y-118256019D01*
X245593922Y-112629813D02*
X247393118Y-114429009D01*
X254705213Y-114429009D02*
X258532223Y-118256019D01*
X261993221Y-118256019D02*
X263325000Y-116924240D01*
X247393118Y-114429009D02*
X254705213Y-114429009D01*
X245593922Y-112064128D02*
X245593922Y-112629813D01*
X266945320Y-117758420D02*
X266945320Y-117758420D01*
X243784120Y-121610120D02*
X241663220Y-121610120D01*
X245784120Y-121610120D02*
X243784120Y-121610120D01*
X267325000Y-115675000D02*
X267325000Y-114175000D01*
X266945320Y-116054680D02*
X267325000Y-115675000D01*
X266945320Y-117758420D02*
X266945320Y-116054680D01*
X267745320Y-118317120D02*
X267745320Y-118317120D01*
X268125000Y-115952140D02*
X268125000Y-114175000D01*
X267745320Y-116331820D02*
X268125000Y-115952140D01*
X267745320Y-118817120D02*
X267745320Y-116331820D01*
X271425000Y-112475000D02*
X272325000Y-112475000D01*
X272325000Y-112475000D02*
X272725000Y-112875000D01*
X272725000Y-115375000D02*
X272125000Y-115975000D01*
X272725000Y-112875000D02*
X272725000Y-115375000D01*
D23*
X259279100Y-90368120D02*
X256192020Y-90368120D01*
X255669610Y-90890530D02*
X255669610Y-93604910D01*
X256192020Y-90368120D02*
X255669610Y-90890530D01*
X259232290Y-93604910D02*
X261531860Y-91305340D01*
X255669610Y-93604910D02*
X259232290Y-93604910D01*
X259729460Y-89917760D02*
X259279100Y-90368120D01*
X255391920Y-93882600D02*
X255669610Y-93604910D01*
X255391920Y-95848520D02*
X255391920Y-93882600D01*
X265050240Y-85454760D02*
X265135000Y-85370000D01*
X265050240Y-89244140D02*
X265050240Y-85454760D01*
X265717020Y-89910920D02*
X265050240Y-89244140D01*
X260235000Y-86755000D02*
X260235000Y-85370000D01*
X260235000Y-89412220D02*
X260235000Y-86755000D01*
X259729460Y-89917760D02*
X260235000Y-89412220D01*
D22*
X289580320Y-120759220D02*
X293072820Y-120759220D01*
X271425000Y-111675000D02*
X271506277Y-111756277D01*
X273524999Y-116575001D02*
X273125000Y-116975000D01*
X273524999Y-112770999D02*
X273524999Y-116575001D01*
X272429000Y-111675000D02*
X273524999Y-112770999D01*
X271425000Y-111675000D02*
X272429000Y-111675000D01*
X266453620Y-92006420D02*
X268676120Y-92006420D01*
X264435000Y-89987800D02*
X266453620Y-92006420D01*
X264435000Y-85370000D02*
X264435000Y-89987800D01*
X261531860Y-93205340D02*
X261531860Y-93208600D01*
X262300240Y-89795980D02*
X262300240Y-92436960D01*
X262300240Y-92436960D02*
X261531860Y-93205340D01*
D24*
X261531860Y-93730341D02*
X262306860Y-94505341D01*
X262306860Y-94505341D02*
X262306860Y-95693440D01*
X262306860Y-95693440D02*
X261272020Y-96728280D01*
X261531860Y-93205340D02*
X261531860Y-93730341D01*
D22*
X261935000Y-89430740D02*
X262300240Y-89795980D01*
X261935000Y-85370000D02*
X261935000Y-89430740D01*
X262935000Y-86333602D02*
X262935000Y-85370000D01*
X262935000Y-89161220D02*
X262935000Y-86333602D01*
X262300240Y-89795980D02*
X262935000Y-89161220D01*
X261005000Y-90203340D02*
X261005000Y-87745000D01*
X261005000Y-87745000D02*
X261435000Y-87315000D01*
X259201920Y-92006420D02*
X261005000Y-90203340D01*
X261435000Y-87315000D02*
X261435000Y-85370000D01*
X256547620Y-92006420D02*
X259201920Y-92006420D01*
D24*
X263531860Y-93730341D02*
X262756860Y-94505341D01*
X263531860Y-93205340D02*
X263531860Y-93730341D01*
X262756860Y-95693440D02*
X263791700Y-96728280D01*
X262756860Y-94505341D02*
X262756860Y-95693440D01*
D22*
X263435000Y-84391000D02*
X262979000Y-83935000D01*
X263435000Y-85370000D02*
X263435000Y-84391000D01*
X262435000Y-84479000D02*
X262435000Y-85370000D01*
X262979000Y-83935000D02*
X262435000Y-84479000D01*
X263435000Y-87961220D02*
X263435000Y-85370000D01*
X263445000Y-88785000D02*
X263435000Y-88775000D01*
X263435000Y-88775000D02*
X263435000Y-87961220D01*
X263445000Y-89293286D02*
X263445000Y-88785000D01*
X262778240Y-89960046D02*
X263445000Y-89293286D01*
X263531860Y-93205340D02*
X263531860Y-93138500D01*
X263531860Y-93138500D02*
X262778240Y-92384880D01*
X262778240Y-92384880D02*
X262778240Y-89960046D01*
X287476320Y-83323820D02*
X288297620Y-84145120D01*
X288297620Y-84145120D02*
X288297620Y-87472520D01*
X288297620Y-87472520D02*
X286519620Y-89250520D01*
X286519620Y-89250520D02*
X284335220Y-89250520D01*
X281604720Y-91981020D02*
X279560020Y-91981020D01*
X284335220Y-89250520D02*
X281604720Y-91981020D01*
X279560020Y-91981020D02*
X279074493Y-92466547D01*
X279074493Y-98541879D02*
X274582931Y-103033441D01*
X274582931Y-103033441D02*
X274582930Y-104159138D01*
X279074493Y-92466547D02*
X279074493Y-98541879D01*
X274582930Y-104159138D02*
X273467068Y-105275000D01*
X273467068Y-105275000D02*
X271425000Y-105275000D01*
X286101720Y-83323820D02*
X287476320Y-83323820D01*
D24*
X263500000Y-102600000D02*
X263325000Y-102775000D01*
X263500000Y-102286500D02*
X263500000Y-102600000D01*
X263325000Y-101649999D02*
X263325000Y-102775000D01*
X263500000Y-101474999D02*
X263325000Y-101649999D01*
X263500000Y-100348660D02*
X263500000Y-101474999D01*
X261297420Y-98146080D02*
X263500000Y-100348660D01*
X263950000Y-102600000D02*
X264125000Y-102775000D01*
X264125000Y-101649999D02*
X264125000Y-102775000D01*
X263950000Y-100162263D02*
X263950000Y-101474999D01*
X263817100Y-100029363D02*
X263950000Y-100162263D01*
X263950000Y-101474999D02*
X264125000Y-101649999D01*
X263817100Y-98146080D02*
X263817100Y-100029363D01*
D25*
X270125000Y-87475000D02*
X268825000Y-87475000D01*
D22*
X266921220Y-87475000D02*
X266920240Y-87475980D01*
X268825000Y-87475000D02*
X266921220Y-87475000D01*
X265725000Y-102043132D02*
X265725000Y-102775000D01*
X268862500Y-98905632D02*
X265725000Y-102043132D01*
X268862500Y-97075000D02*
X268862500Y-98905632D01*
X261725000Y-116375000D02*
X261325000Y-116775000D01*
X261725000Y-114175000D02*
X261725000Y-116375000D01*
X287764220Y-116847620D02*
X275635720Y-116847620D01*
X275635720Y-109973770D01*
X278590468Y-112928519D01*
X278590473Y-112928523D01*
X279261028Y-113599078D01*
X279261028Y-114459520D01*
X279273288Y-114584002D01*
X279309598Y-114703700D01*
X279368563Y-114814014D01*
X279447915Y-114910705D01*
X279544606Y-114990057D01*
X279654920Y-115049022D01*
X279774618Y-115085332D01*
X279899100Y-115097592D01*
X279953797Y-115097592D01*
X279957679Y-115102322D01*
X279986749Y-115126179D01*
X280620340Y-115759771D01*
X280644198Y-115788842D01*
X280673268Y-115812699D01*
X280760227Y-115884065D01*
X280830984Y-115921885D01*
X280892605Y-115954822D01*
X281036242Y-115998394D01*
X281148194Y-116009420D01*
X281148197Y-116009420D01*
X281185620Y-116013106D01*
X281223043Y-116009420D01*
X282814197Y-116009420D01*
X282851620Y-116013106D01*
X282889043Y-116009420D01*
X282889046Y-116009420D01*
X283000998Y-115998394D01*
X283144635Y-115954822D01*
X283277012Y-115884065D01*
X283393042Y-115788842D01*
X283416904Y-115759766D01*
X284040475Y-115136195D01*
X284055670Y-115137692D01*
X284543170Y-115137692D01*
X284715205Y-115120748D01*
X284880629Y-115070567D01*
X285033084Y-114989078D01*
X285166712Y-114879412D01*
X285171928Y-114873056D01*
X285235735Y-114950805D01*
X285332426Y-115030157D01*
X285442740Y-115089122D01*
X285562438Y-115125432D01*
X285686920Y-115137692D01*
X285888670Y-115134620D01*
X286047420Y-114975870D01*
X286047420Y-113926620D01*
X286301420Y-113926620D01*
X286301420Y-114975870D01*
X286460170Y-115134620D01*
X286661920Y-115137692D01*
X286786402Y-115125432D01*
X286906100Y-115089122D01*
X287016414Y-115030157D01*
X287113105Y-114950805D01*
X287192457Y-114854114D01*
X287251422Y-114743800D01*
X287287732Y-114624102D01*
X287299992Y-114499620D01*
X287296920Y-114085370D01*
X287138170Y-113926620D01*
X286301420Y-113926620D01*
X286047420Y-113926620D01*
X286027420Y-113926620D01*
X286027420Y-113672620D01*
X286047420Y-113672620D01*
X286047420Y-112623370D01*
X286022020Y-112597970D01*
X286022020Y-111653320D01*
X286276020Y-111653320D01*
X286276020Y-112702570D01*
X286301420Y-112727970D01*
X286301420Y-113672620D01*
X287138170Y-113672620D01*
X287296920Y-113513870D01*
X287299992Y-113099620D01*
X287287732Y-112975138D01*
X287251422Y-112855440D01*
X287192457Y-112745126D01*
X287113105Y-112648435D01*
X287112183Y-112647678D01*
X287167057Y-112580814D01*
X287226022Y-112470500D01*
X287262332Y-112350802D01*
X287274592Y-112226320D01*
X287271520Y-111812070D01*
X287112770Y-111653320D01*
X286276020Y-111653320D01*
X286022020Y-111653320D01*
X286002020Y-111653320D01*
X286002020Y-111399320D01*
X286022020Y-111399320D01*
X286022020Y-110350070D01*
X286276020Y-110350070D01*
X286276020Y-111399320D01*
X287112770Y-111399320D01*
X287271520Y-111240570D01*
X287274592Y-110826320D01*
X287262332Y-110701838D01*
X287226022Y-110582140D01*
X287167057Y-110471826D01*
X287087705Y-110375135D01*
X286991014Y-110295783D01*
X286880700Y-110236818D01*
X286761002Y-110200508D01*
X286636520Y-110188248D01*
X286434770Y-110191320D01*
X286276020Y-110350070D01*
X286022020Y-110350070D01*
X285863270Y-110191320D01*
X285661520Y-110188248D01*
X285537038Y-110200508D01*
X285417340Y-110236818D01*
X285307026Y-110295783D01*
X285210335Y-110375135D01*
X285146528Y-110452884D01*
X285141312Y-110446528D01*
X285007684Y-110336862D01*
X284855229Y-110255373D01*
X284689805Y-110205192D01*
X284517770Y-110188248D01*
X284030270Y-110188248D01*
X283858235Y-110205192D01*
X283692811Y-110255373D01*
X283540356Y-110336862D01*
X283406728Y-110446528D01*
X283341108Y-110526486D01*
X283329637Y-110505026D01*
X283250285Y-110408335D01*
X283153594Y-110328983D01*
X283043280Y-110270018D01*
X282923582Y-110233708D01*
X282799100Y-110221448D01*
X282291878Y-110221448D01*
X282090602Y-110020172D01*
X282066741Y-109991097D01*
X281950711Y-109895874D01*
X281899993Y-109868765D01*
X281901832Y-109862702D01*
X281914092Y-109738220D01*
X281911020Y-109536470D01*
X281752270Y-109377720D01*
X280703020Y-109377720D01*
X280703020Y-109397720D01*
X280449020Y-109397720D01*
X280449020Y-109377720D01*
X280429020Y-109377720D01*
X280429020Y-109123720D01*
X280449020Y-109123720D01*
X280449020Y-109103720D01*
X280703020Y-109103720D01*
X280703020Y-109123720D01*
X281752270Y-109123720D01*
X281911020Y-108964970D01*
X281914092Y-108763220D01*
X281901832Y-108638738D01*
X281865522Y-108519040D01*
X281806557Y-108408726D01*
X281727205Y-108312035D01*
X281649456Y-108248228D01*
X281655812Y-108243012D01*
X281765478Y-108109384D01*
X281846967Y-107956929D01*
X281897148Y-107791505D01*
X281914092Y-107619470D01*
X281914092Y-107131970D01*
X281897148Y-106959935D01*
X281846967Y-106794511D01*
X281765478Y-106642056D01*
X281655812Y-106508428D01*
X281522184Y-106398762D01*
X281369729Y-106317273D01*
X281204305Y-106267092D01*
X281032270Y-106250148D01*
X280617881Y-106250148D01*
X279302753Y-104935020D01*
X287764220Y-104935020D01*
X287764220Y-116847620D01*
G04 #@! TA.AperFunction,Conductor*
D26*
G36*
X287764220Y-116847620D02*
G01*
X275635720Y-116847620D01*
X275635720Y-109973770D01*
X278590468Y-112928519D01*
X278590473Y-112928523D01*
X279261028Y-113599078D01*
X279261028Y-114459520D01*
X279273288Y-114584002D01*
X279309598Y-114703700D01*
X279368563Y-114814014D01*
X279447915Y-114910705D01*
X279544606Y-114990057D01*
X279654920Y-115049022D01*
X279774618Y-115085332D01*
X279899100Y-115097592D01*
X279953797Y-115097592D01*
X279957679Y-115102322D01*
X279986749Y-115126179D01*
X280620340Y-115759771D01*
X280644198Y-115788842D01*
X280673268Y-115812699D01*
X280760227Y-115884065D01*
X280830984Y-115921885D01*
X280892605Y-115954822D01*
X281036242Y-115998394D01*
X281148194Y-116009420D01*
X281148197Y-116009420D01*
X281185620Y-116013106D01*
X281223043Y-116009420D01*
X282814197Y-116009420D01*
X282851620Y-116013106D01*
X282889043Y-116009420D01*
X282889046Y-116009420D01*
X283000998Y-115998394D01*
X283144635Y-115954822D01*
X283277012Y-115884065D01*
X283393042Y-115788842D01*
X283416904Y-115759766D01*
X284040475Y-115136195D01*
X284055670Y-115137692D01*
X284543170Y-115137692D01*
X284715205Y-115120748D01*
X284880629Y-115070567D01*
X285033084Y-114989078D01*
X285166712Y-114879412D01*
X285171928Y-114873056D01*
X285235735Y-114950805D01*
X285332426Y-115030157D01*
X285442740Y-115089122D01*
X285562438Y-115125432D01*
X285686920Y-115137692D01*
X285888670Y-115134620D01*
X286047420Y-114975870D01*
X286047420Y-113926620D01*
X286301420Y-113926620D01*
X286301420Y-114975870D01*
X286460170Y-115134620D01*
X286661920Y-115137692D01*
X286786402Y-115125432D01*
X286906100Y-115089122D01*
X287016414Y-115030157D01*
X287113105Y-114950805D01*
X287192457Y-114854114D01*
X287251422Y-114743800D01*
X287287732Y-114624102D01*
X287299992Y-114499620D01*
X287296920Y-114085370D01*
X287138170Y-113926620D01*
X286301420Y-113926620D01*
X286047420Y-113926620D01*
X286027420Y-113926620D01*
X286027420Y-113672620D01*
X286047420Y-113672620D01*
X286047420Y-112623370D01*
X286022020Y-112597970D01*
X286022020Y-111653320D01*
X286276020Y-111653320D01*
X286276020Y-112702570D01*
X286301420Y-112727970D01*
X286301420Y-113672620D01*
X287138170Y-113672620D01*
X287296920Y-113513870D01*
X287299992Y-113099620D01*
X287287732Y-112975138D01*
X287251422Y-112855440D01*
X287192457Y-112745126D01*
X287113105Y-112648435D01*
X287112183Y-112647678D01*
X287167057Y-112580814D01*
X287226022Y-112470500D01*
X287262332Y-112350802D01*
X287274592Y-112226320D01*
X287271520Y-111812070D01*
X287112770Y-111653320D01*
X286276020Y-111653320D01*
X286022020Y-111653320D01*
X286002020Y-111653320D01*
X286002020Y-111399320D01*
X286022020Y-111399320D01*
X286022020Y-110350070D01*
X286276020Y-110350070D01*
X286276020Y-111399320D01*
X287112770Y-111399320D01*
X287271520Y-111240570D01*
X287274592Y-110826320D01*
X287262332Y-110701838D01*
X287226022Y-110582140D01*
X287167057Y-110471826D01*
X287087705Y-110375135D01*
X286991014Y-110295783D01*
X286880700Y-110236818D01*
X286761002Y-110200508D01*
X286636520Y-110188248D01*
X286434770Y-110191320D01*
X286276020Y-110350070D01*
X286022020Y-110350070D01*
X285863270Y-110191320D01*
X285661520Y-110188248D01*
X285537038Y-110200508D01*
X285417340Y-110236818D01*
X285307026Y-110295783D01*
X285210335Y-110375135D01*
X285146528Y-110452884D01*
X285141312Y-110446528D01*
X285007684Y-110336862D01*
X284855229Y-110255373D01*
X284689805Y-110205192D01*
X284517770Y-110188248D01*
X284030270Y-110188248D01*
X283858235Y-110205192D01*
X283692811Y-110255373D01*
X283540356Y-110336862D01*
X283406728Y-110446528D01*
X283341108Y-110526486D01*
X283329637Y-110505026D01*
X283250285Y-110408335D01*
X283153594Y-110328983D01*
X283043280Y-110270018D01*
X282923582Y-110233708D01*
X282799100Y-110221448D01*
X282291878Y-110221448D01*
X282090602Y-110020172D01*
X282066741Y-109991097D01*
X281950711Y-109895874D01*
X281899993Y-109868765D01*
X281901832Y-109862702D01*
X281914092Y-109738220D01*
X281911020Y-109536470D01*
X281752270Y-109377720D01*
X280703020Y-109377720D01*
X280703020Y-109397720D01*
X280449020Y-109397720D01*
X280449020Y-109377720D01*
X280429020Y-109377720D01*
X280429020Y-109123720D01*
X280449020Y-109123720D01*
X280449020Y-109103720D01*
X280703020Y-109103720D01*
X280703020Y-109123720D01*
X281752270Y-109123720D01*
X281911020Y-108964970D01*
X281914092Y-108763220D01*
X281901832Y-108638738D01*
X281865522Y-108519040D01*
X281806557Y-108408726D01*
X281727205Y-108312035D01*
X281649456Y-108248228D01*
X281655812Y-108243012D01*
X281765478Y-108109384D01*
X281846967Y-107956929D01*
X281897148Y-107791505D01*
X281914092Y-107619470D01*
X281914092Y-107131970D01*
X281897148Y-106959935D01*
X281846967Y-106794511D01*
X281765478Y-106642056D01*
X281655812Y-106508428D01*
X281522184Y-106398762D01*
X281369729Y-106317273D01*
X281204305Y-106267092D01*
X281032270Y-106250148D01*
X280617881Y-106250148D01*
X279302753Y-104935020D01*
X287764220Y-104935020D01*
X287764220Y-116847620D01*
G37*
G04 #@! TD.AperFunction*
D22*
X282326100Y-113632520D02*
X282346100Y-113632520D01*
X282346100Y-113886520D01*
X282326100Y-113886520D01*
X282326100Y-113906520D01*
X282072100Y-113906520D01*
X282072100Y-113886520D01*
X282052100Y-113886520D01*
X282052100Y-113632520D01*
X282072100Y-113632520D01*
X282072100Y-113612520D01*
X282326100Y-113612520D01*
X282326100Y-113632520D01*
G04 #@! TA.AperFunction,Conductor*
D26*
G36*
X282326100Y-113632520D02*
G01*
X282346100Y-113632520D01*
X282346100Y-113886520D01*
X282326100Y-113886520D01*
X282326100Y-113906520D01*
X282072100Y-113906520D01*
X282072100Y-113886520D01*
X282052100Y-113886520D01*
X282052100Y-113632520D01*
X282072100Y-113632520D01*
X282072100Y-113612520D01*
X282326100Y-113612520D01*
X282326100Y-113632520D01*
G37*
G04 #@! TD.AperFunction*
D22*
X283406728Y-112606112D02*
X283488709Y-112673393D01*
X283432128Y-112719828D01*
X283374853Y-112789618D01*
X283329637Y-112705026D01*
X283292291Y-112659520D01*
X283329637Y-112614014D01*
X283362601Y-112552343D01*
X283406728Y-112606112D01*
G04 #@! TA.AperFunction,Conductor*
D26*
G36*
X283406728Y-112606112D02*
G01*
X283488709Y-112673393D01*
X283432128Y-112719828D01*
X283374853Y-112789618D01*
X283329637Y-112705026D01*
X283292291Y-112659520D01*
X283329637Y-112614014D01*
X283362601Y-112552343D01*
X283406728Y-112606112D01*
G37*
G04 #@! TD.AperFunction*
D22*
X285210335Y-112677505D02*
X285211257Y-112678262D01*
X285171928Y-112726184D01*
X285166712Y-112719828D01*
X285084731Y-112652547D01*
X285141312Y-112606112D01*
X285146528Y-112599756D01*
X285210335Y-112677505D01*
G04 #@! TA.AperFunction,Conductor*
D26*
G36*
X285210335Y-112677505D02*
G01*
X285211257Y-112678262D01*
X285171928Y-112726184D01*
X285166712Y-112719828D01*
X285084731Y-112652547D01*
X285141312Y-112606112D01*
X285146528Y-112599756D01*
X285210335Y-112677505D01*
G37*
G04 #@! TD.AperFunction*
D22*
X280626100Y-111432520D02*
X280646100Y-111432520D01*
X280646100Y-111686520D01*
X280626100Y-111686520D01*
X280626100Y-111706520D01*
X280372100Y-111706520D01*
X280372100Y-111686520D01*
X280352100Y-111686520D01*
X280352100Y-111432520D01*
X280372100Y-111432520D01*
X280372100Y-111412520D01*
X280626100Y-111412520D01*
X280626100Y-111432520D01*
G04 #@! TA.AperFunction,Conductor*
D26*
G36*
X280626100Y-111432520D02*
G01*
X280646100Y-111432520D01*
X280646100Y-111686520D01*
X280626100Y-111686520D01*
X280626100Y-111706520D01*
X280372100Y-111706520D01*
X280372100Y-111686520D01*
X280352100Y-111686520D01*
X280352100Y-111432520D01*
X280372100Y-111432520D01*
X280372100Y-111412520D01*
X280626100Y-111412520D01*
X280626100Y-111432520D01*
G37*
G04 #@! TD.AperFunction*
D22*
X279281755Y-110707126D02*
X279273288Y-110735038D01*
X279261028Y-110859520D01*
X279264100Y-111273770D01*
X279422848Y-111432518D01*
X279264100Y-111432518D01*
X279264100Y-111446889D01*
X276254210Y-108437000D01*
X277011630Y-108437000D01*
X279281755Y-110707126D01*
G04 #@! TA.AperFunction,Conductor*
D26*
G36*
X279281755Y-110707126D02*
G01*
X279273288Y-110735038D01*
X279261028Y-110859520D01*
X279264100Y-111273770D01*
X279422848Y-111432518D01*
X279264100Y-111432518D01*
X279264100Y-111446889D01*
X276254210Y-108437000D01*
X277011630Y-108437000D01*
X279281755Y-110707126D01*
G37*
G04 #@! TD.AperFunction*
D22*
X257323136Y-89011539D02*
X257347920Y-89009178D01*
X257371704Y-89002046D01*
X259234242Y-89003870D01*
X259069686Y-89113823D01*
X258925523Y-89257986D01*
X258812255Y-89427504D01*
X258764572Y-89542620D01*
X256232570Y-89542620D01*
X256192019Y-89538626D01*
X256151469Y-89542620D01*
X256151467Y-89542620D01*
X256030194Y-89554564D01*
X255874586Y-89601767D01*
X255790707Y-89646602D01*
X255731177Y-89678421D01*
X255711238Y-89694785D01*
X255605479Y-89781579D01*
X255579622Y-89813086D01*
X255114576Y-90278132D01*
X255083069Y-90303989D01*
X255021077Y-90379528D01*
X254979911Y-90429688D01*
X254944277Y-90496354D01*
X254903257Y-90573097D01*
X254856054Y-90728705D01*
X254851134Y-90778656D01*
X254799620Y-90830170D01*
X254799620Y-91879420D01*
X254819620Y-91879420D01*
X254819620Y-92133420D01*
X254799620Y-92133420D01*
X254799620Y-93182670D01*
X254844111Y-93227161D01*
X254844111Y-93262977D01*
X254836881Y-93270207D01*
X254805380Y-93296059D01*
X254779529Y-93327559D01*
X254702221Y-93421758D01*
X254625567Y-93565167D01*
X254578365Y-93720774D01*
X254562426Y-93882600D01*
X254566421Y-93923160D01*
X254566421Y-94226639D01*
X254490570Y-94249648D01*
X254337034Y-94331715D01*
X254202458Y-94442158D01*
X254092015Y-94576734D01*
X254009948Y-94730270D01*
X253959412Y-94896866D01*
X253942348Y-95070120D01*
X253942348Y-95820120D01*
X253959412Y-95993374D01*
X254009948Y-96159970D01*
X254092015Y-96313506D01*
X254202458Y-96448082D01*
X254337034Y-96558525D01*
X254490570Y-96640592D01*
X254657166Y-96691128D01*
X254830420Y-96708192D01*
X256080420Y-96708192D01*
X256253674Y-96691128D01*
X256420270Y-96640592D01*
X256573806Y-96558525D01*
X256708382Y-96448082D01*
X256818825Y-96313506D01*
X256900892Y-96159970D01*
X256951428Y-95993374D01*
X256968492Y-95820120D01*
X256968492Y-95070120D01*
X256951428Y-94896866D01*
X256900892Y-94730270D01*
X256818825Y-94576734D01*
X256708382Y-94442158D01*
X256694067Y-94430410D01*
X259191740Y-94430410D01*
X259232290Y-94434404D01*
X259272840Y-94430410D01*
X259272843Y-94430410D01*
X259394116Y-94418466D01*
X259549724Y-94371263D01*
X259693132Y-94294609D01*
X259818831Y-94191451D01*
X259844688Y-94159944D01*
X260543788Y-93460844D01*
X260543788Y-93505340D01*
X260556048Y-93629822D01*
X260592358Y-93749520D01*
X260651323Y-93859834D01*
X260730675Y-93956525D01*
X260827366Y-94035877D01*
X260875524Y-94061618D01*
X260917773Y-94140661D01*
X261009623Y-94252579D01*
X261037668Y-94275595D01*
X261571860Y-94809788D01*
X261571861Y-95145508D01*
X260841170Y-95145508D01*
X260669135Y-95162452D01*
X260503711Y-95212633D01*
X260351256Y-95294122D01*
X260217628Y-95403788D01*
X260107962Y-95537416D01*
X260026473Y-95689871D01*
X259976292Y-95855295D01*
X259959348Y-96027330D01*
X259959348Y-96514830D01*
X259976292Y-96686865D01*
X260026473Y-96852289D01*
X260107962Y-97004744D01*
X260217628Y-97138372D01*
X260303176Y-97208580D01*
X260217628Y-97278788D01*
X260107962Y-97412416D01*
X260026473Y-97564871D01*
X259976292Y-97730295D01*
X259959348Y-97902330D01*
X259959348Y-98389830D01*
X259976292Y-98561865D01*
X260026473Y-98727289D01*
X260107962Y-98879744D01*
X260217628Y-99013372D01*
X260351256Y-99123038D01*
X260366376Y-99131120D01*
X256804370Y-99131120D01*
X256818825Y-99113506D01*
X256900892Y-98959970D01*
X256951428Y-98793374D01*
X256968492Y-98620120D01*
X256968492Y-97870120D01*
X256951428Y-97696866D01*
X256900892Y-97530270D01*
X256818825Y-97376734D01*
X256708382Y-97242158D01*
X256573806Y-97131715D01*
X256420270Y-97049648D01*
X256253674Y-96999112D01*
X256080420Y-96982048D01*
X254830420Y-96982048D01*
X254657166Y-96999112D01*
X254490570Y-97049648D01*
X254337034Y-97131715D01*
X254202458Y-97242158D01*
X254092015Y-97376734D01*
X254009948Y-97530270D01*
X253959412Y-97696866D01*
X253942348Y-97870120D01*
X253942348Y-98620120D01*
X253959412Y-98793374D01*
X254009948Y-98959970D01*
X254092015Y-99113506D01*
X254202458Y-99248082D01*
X254337034Y-99358525D01*
X254363030Y-99372420D01*
X252098305Y-99372420D01*
X252036571Y-99346849D01*
X251744842Y-99288820D01*
X251454892Y-99288820D01*
X251453988Y-92706420D01*
X253547048Y-92706420D01*
X253559308Y-92830902D01*
X253595618Y-92950600D01*
X253654583Y-93060914D01*
X253733935Y-93157605D01*
X253830626Y-93236957D01*
X253940940Y-93295922D01*
X254060638Y-93332232D01*
X254185120Y-93344492D01*
X254386870Y-93341420D01*
X254545620Y-93182670D01*
X254545620Y-92133420D01*
X253708870Y-92133420D01*
X253550120Y-92292170D01*
X253547048Y-92706420D01*
X251453988Y-92706420D01*
X251453796Y-91306420D01*
X253547048Y-91306420D01*
X253550120Y-91720670D01*
X253708870Y-91879420D01*
X254545620Y-91879420D01*
X254545620Y-90830170D01*
X254386870Y-90671420D01*
X254185120Y-90668348D01*
X254060638Y-90680608D01*
X253940940Y-90716918D01*
X253830626Y-90775883D01*
X253733935Y-90855235D01*
X253654583Y-90951926D01*
X253595618Y-91062240D01*
X253559308Y-91181938D01*
X253547048Y-91306420D01*
X251453796Y-91306420D01*
X251453477Y-88992864D01*
X257323136Y-89011539D01*
G04 #@! TA.AperFunction,Conductor*
D26*
G36*
X257323136Y-89011539D02*
G01*
X257347920Y-89009178D01*
X257371704Y-89002046D01*
X259234242Y-89003870D01*
X259069686Y-89113823D01*
X258925523Y-89257986D01*
X258812255Y-89427504D01*
X258764572Y-89542620D01*
X256232570Y-89542620D01*
X256192019Y-89538626D01*
X256151469Y-89542620D01*
X256151467Y-89542620D01*
X256030194Y-89554564D01*
X255874586Y-89601767D01*
X255790707Y-89646602D01*
X255731177Y-89678421D01*
X255711238Y-89694785D01*
X255605479Y-89781579D01*
X255579622Y-89813086D01*
X255114576Y-90278132D01*
X255083069Y-90303989D01*
X255021077Y-90379528D01*
X254979911Y-90429688D01*
X254944277Y-90496354D01*
X254903257Y-90573097D01*
X254856054Y-90728705D01*
X254851134Y-90778656D01*
X254799620Y-90830170D01*
X254799620Y-91879420D01*
X254819620Y-91879420D01*
X254819620Y-92133420D01*
X254799620Y-92133420D01*
X254799620Y-93182670D01*
X254844111Y-93227161D01*
X254844111Y-93262977D01*
X254836881Y-93270207D01*
X254805380Y-93296059D01*
X254779529Y-93327559D01*
X254702221Y-93421758D01*
X254625567Y-93565167D01*
X254578365Y-93720774D01*
X254562426Y-93882600D01*
X254566421Y-93923160D01*
X254566421Y-94226639D01*
X254490570Y-94249648D01*
X254337034Y-94331715D01*
X254202458Y-94442158D01*
X254092015Y-94576734D01*
X254009948Y-94730270D01*
X253959412Y-94896866D01*
X253942348Y-95070120D01*
X253942348Y-95820120D01*
X253959412Y-95993374D01*
X254009948Y-96159970D01*
X254092015Y-96313506D01*
X254202458Y-96448082D01*
X254337034Y-96558525D01*
X254490570Y-96640592D01*
X254657166Y-96691128D01*
X254830420Y-96708192D01*
X256080420Y-96708192D01*
X256253674Y-96691128D01*
X256420270Y-96640592D01*
X256573806Y-96558525D01*
X256708382Y-96448082D01*
X256818825Y-96313506D01*
X256900892Y-96159970D01*
X256951428Y-95993374D01*
X256968492Y-95820120D01*
X256968492Y-95070120D01*
X256951428Y-94896866D01*
X256900892Y-94730270D01*
X256818825Y-94576734D01*
X256708382Y-94442158D01*
X256694067Y-94430410D01*
X259191740Y-94430410D01*
X259232290Y-94434404D01*
X259272840Y-94430410D01*
X259272843Y-94430410D01*
X259394116Y-94418466D01*
X259549724Y-94371263D01*
X259693132Y-94294609D01*
X259818831Y-94191451D01*
X259844688Y-94159944D01*
X260543788Y-93460844D01*
X260543788Y-93505340D01*
X260556048Y-93629822D01*
X260592358Y-93749520D01*
X260651323Y-93859834D01*
X260730675Y-93956525D01*
X260827366Y-94035877D01*
X260875524Y-94061618D01*
X260917773Y-94140661D01*
X261009623Y-94252579D01*
X261037668Y-94275595D01*
X261571860Y-94809788D01*
X261571861Y-95145508D01*
X260841170Y-95145508D01*
X260669135Y-95162452D01*
X260503711Y-95212633D01*
X260351256Y-95294122D01*
X260217628Y-95403788D01*
X260107962Y-95537416D01*
X260026473Y-95689871D01*
X259976292Y-95855295D01*
X259959348Y-96027330D01*
X259959348Y-96514830D01*
X259976292Y-96686865D01*
X260026473Y-96852289D01*
X260107962Y-97004744D01*
X260217628Y-97138372D01*
X260303176Y-97208580D01*
X260217628Y-97278788D01*
X260107962Y-97412416D01*
X260026473Y-97564871D01*
X259976292Y-97730295D01*
X259959348Y-97902330D01*
X259959348Y-98389830D01*
X259976292Y-98561865D01*
X260026473Y-98727289D01*
X260107962Y-98879744D01*
X260217628Y-99013372D01*
X260351256Y-99123038D01*
X260366376Y-99131120D01*
X256804370Y-99131120D01*
X256818825Y-99113506D01*
X256900892Y-98959970D01*
X256951428Y-98793374D01*
X256968492Y-98620120D01*
X256968492Y-97870120D01*
X256951428Y-97696866D01*
X256900892Y-97530270D01*
X256818825Y-97376734D01*
X256708382Y-97242158D01*
X256573806Y-97131715D01*
X256420270Y-97049648D01*
X256253674Y-96999112D01*
X256080420Y-96982048D01*
X254830420Y-96982048D01*
X254657166Y-96999112D01*
X254490570Y-97049648D01*
X254337034Y-97131715D01*
X254202458Y-97242158D01*
X254092015Y-97376734D01*
X254009948Y-97530270D01*
X253959412Y-97696866D01*
X253942348Y-97870120D01*
X253942348Y-98620120D01*
X253959412Y-98793374D01*
X254009948Y-98959970D01*
X254092015Y-99113506D01*
X254202458Y-99248082D01*
X254337034Y-99358525D01*
X254363030Y-99372420D01*
X252098305Y-99372420D01*
X252036571Y-99346849D01*
X251744842Y-99288820D01*
X251454892Y-99288820D01*
X251453988Y-92706420D01*
X253547048Y-92706420D01*
X253559308Y-92830902D01*
X253595618Y-92950600D01*
X253654583Y-93060914D01*
X253733935Y-93157605D01*
X253830626Y-93236957D01*
X253940940Y-93295922D01*
X254060638Y-93332232D01*
X254185120Y-93344492D01*
X254386870Y-93341420D01*
X254545620Y-93182670D01*
X254545620Y-92133420D01*
X253708870Y-92133420D01*
X253550120Y-92292170D01*
X253547048Y-92706420D01*
X251453988Y-92706420D01*
X251453796Y-91306420D01*
X253547048Y-91306420D01*
X253550120Y-91720670D01*
X253708870Y-91879420D01*
X254545620Y-91879420D01*
X254545620Y-90830170D01*
X254386870Y-90671420D01*
X254185120Y-90668348D01*
X254060638Y-90680608D01*
X253940940Y-90716918D01*
X253830626Y-90775883D01*
X253733935Y-90855235D01*
X253654583Y-90951926D01*
X253595618Y-91062240D01*
X253559308Y-91181938D01*
X253547048Y-91306420D01*
X251453796Y-91306420D01*
X251453477Y-88992864D01*
X257323136Y-89011539D01*
G37*
G04 #@! TD.AperFunction*
D22*
X290799537Y-90858990D02*
X283804381Y-90858990D01*
X284650851Y-90012520D01*
X286482197Y-90012520D01*
X286519620Y-90016206D01*
X286557043Y-90012520D01*
X286557046Y-90012520D01*
X286668998Y-90001494D01*
X286812635Y-89957922D01*
X286945012Y-89887165D01*
X287061042Y-89791942D01*
X287084904Y-89762866D01*
X288809966Y-88037804D01*
X288839042Y-88013942D01*
X288899477Y-87940301D01*
X288934265Y-87897913D01*
X288999960Y-87775005D01*
X289005022Y-87765535D01*
X289048594Y-87621898D01*
X289059620Y-87509946D01*
X289059620Y-87509943D01*
X289063306Y-87472520D01*
X289059620Y-87435097D01*
X289059620Y-84182543D01*
X289063306Y-84145120D01*
X289058869Y-84100070D01*
X289048594Y-83995742D01*
X289005022Y-83852105D01*
X288941392Y-83733061D01*
X288934265Y-83719727D01*
X288870463Y-83641985D01*
X288839042Y-83603698D01*
X288809967Y-83579837D01*
X288041604Y-82811474D01*
X288017742Y-82782398D01*
X287901712Y-82687175D01*
X287769335Y-82616418D01*
X287625698Y-82572846D01*
X287513746Y-82561820D01*
X287513743Y-82561820D01*
X287476320Y-82558134D01*
X287438897Y-82561820D01*
X286689727Y-82561820D01*
X286606214Y-82493283D01*
X286495900Y-82434318D01*
X286376202Y-82398008D01*
X286251720Y-82385748D01*
X286187470Y-82388820D01*
X286028720Y-82547570D01*
X286028720Y-82565324D01*
X285952342Y-82572846D01*
X285808705Y-82616418D01*
X285774720Y-82634583D01*
X285774720Y-82547570D01*
X285615970Y-82388820D01*
X285551720Y-82385748D01*
X285427238Y-82398008D01*
X285307540Y-82434318D01*
X285197226Y-82493283D01*
X285100535Y-82572635D01*
X285021183Y-82669326D01*
X284962218Y-82779640D01*
X284925908Y-82899338D01*
X284913648Y-83023820D01*
X284916720Y-83038070D01*
X285075470Y-83196820D01*
X285348542Y-83196820D01*
X285336034Y-83323820D01*
X285348542Y-83450820D01*
X285075470Y-83450820D01*
X284916720Y-83609570D01*
X284913648Y-83623820D01*
X284925908Y-83748302D01*
X284962218Y-83868000D01*
X285021183Y-83978314D01*
X285100535Y-84075005D01*
X285197226Y-84154357D01*
X285307540Y-84213322D01*
X285427238Y-84249632D01*
X285551720Y-84261892D01*
X285615970Y-84258820D01*
X285774720Y-84100070D01*
X285774720Y-84013057D01*
X285808705Y-84031222D01*
X285952342Y-84074794D01*
X286028720Y-84082316D01*
X286028720Y-84100070D01*
X286187470Y-84258820D01*
X286251720Y-84261892D01*
X286376202Y-84249632D01*
X286495900Y-84213322D01*
X286606214Y-84154357D01*
X286689727Y-84085820D01*
X287160690Y-84085820D01*
X287535620Y-84460750D01*
X287535621Y-87156889D01*
X286203990Y-88488520D01*
X284372642Y-88488520D01*
X284335219Y-88484834D01*
X284297796Y-88488520D01*
X284297794Y-88488520D01*
X284185842Y-88499546D01*
X284042205Y-88543118D01*
X283909828Y-88613875D01*
X283793798Y-88709098D01*
X283769941Y-88738168D01*
X281572325Y-90935785D01*
X280672765Y-90933159D01*
X280749478Y-90839684D01*
X280830967Y-90687229D01*
X280881148Y-90521805D01*
X280898092Y-90349770D01*
X280898092Y-89862270D01*
X280881148Y-89690235D01*
X280830967Y-89524811D01*
X280749478Y-89372356D01*
X280639812Y-89238728D01*
X280506184Y-89129062D01*
X280353729Y-89047573D01*
X280188305Y-88997392D01*
X280016270Y-88980448D01*
X279103770Y-88980448D01*
X278931735Y-88997392D01*
X278766311Y-89047573D01*
X278613856Y-89129062D01*
X278480228Y-89238728D01*
X278370562Y-89372356D01*
X278289073Y-89524811D01*
X278238892Y-89690235D01*
X278221948Y-89862270D01*
X278221948Y-90276660D01*
X277669966Y-90828642D01*
X277638459Y-90854499D01*
X277581312Y-90924134D01*
X276571633Y-90921186D01*
X276546849Y-90923553D01*
X276523004Y-90930711D01*
X276501013Y-90942383D01*
X276481722Y-90958121D01*
X276465872Y-90977320D01*
X276454072Y-90999242D01*
X276446775Y-91023045D01*
X276444262Y-91048249D01*
X276446045Y-94586523D01*
X273583068Y-97449500D01*
X270766582Y-97449500D01*
X270726039Y-97445507D01*
X270685496Y-97449500D01*
X270685487Y-97449500D01*
X270564214Y-97461444D01*
X270408606Y-97508647D01*
X270265198Y-97585301D01*
X270139499Y-97688459D01*
X270113648Y-97719959D01*
X269870478Y-97963129D01*
X269920947Y-97868709D01*
X269971128Y-97703285D01*
X269988072Y-97531250D01*
X269988072Y-96618750D01*
X269971128Y-96446715D01*
X269920947Y-96281291D01*
X269839458Y-96128836D01*
X269729792Y-95995208D01*
X269596164Y-95885542D01*
X269443709Y-95804053D01*
X269278285Y-95753872D01*
X269106250Y-95736928D01*
X268618750Y-95736928D01*
X268446715Y-95753872D01*
X268281291Y-95804053D01*
X268128836Y-95885542D01*
X267995208Y-95995208D01*
X267989992Y-96001564D01*
X267926185Y-95923815D01*
X267829494Y-95844463D01*
X267719180Y-95785498D01*
X267599482Y-95749188D01*
X267475000Y-95736928D01*
X267273250Y-95740000D01*
X267114500Y-95898750D01*
X267114500Y-96948000D01*
X267134500Y-96948000D01*
X267134500Y-97202000D01*
X267114500Y-97202000D01*
X267114500Y-98251250D01*
X267273250Y-98410000D01*
X267475000Y-98413072D01*
X267599482Y-98400812D01*
X267719180Y-98364502D01*
X267829494Y-98305537D01*
X267926185Y-98226185D01*
X267989992Y-98148436D01*
X267995208Y-98154792D01*
X268100501Y-98241204D01*
X268100501Y-98590000D01*
X267318081Y-99372420D01*
X264552100Y-99372420D01*
X264552100Y-99222336D01*
X264610809Y-99204527D01*
X264763264Y-99123038D01*
X264896892Y-99013372D01*
X265006558Y-98879744D01*
X265088047Y-98727289D01*
X265138228Y-98561865D01*
X265155172Y-98389830D01*
X265155172Y-97902330D01*
X265142632Y-97775000D01*
X265861928Y-97775000D01*
X265874188Y-97899482D01*
X265910498Y-98019180D01*
X265969463Y-98129494D01*
X266048815Y-98226185D01*
X266145506Y-98305537D01*
X266255820Y-98364502D01*
X266375518Y-98400812D01*
X266500000Y-98413072D01*
X266701750Y-98410000D01*
X266860500Y-98251250D01*
X266860500Y-97202000D01*
X266023750Y-97202000D01*
X265865000Y-97360750D01*
X265861928Y-97775000D01*
X265142632Y-97775000D01*
X265138228Y-97730295D01*
X265088047Y-97564871D01*
X265006558Y-97412416D01*
X264896892Y-97278788D01*
X264811344Y-97208580D01*
X264896892Y-97138372D01*
X265006558Y-97004744D01*
X265088047Y-96852289D01*
X265138228Y-96686865D01*
X265155172Y-96514830D01*
X265155172Y-96375000D01*
X265861928Y-96375000D01*
X265865000Y-96789250D01*
X266023750Y-96948000D01*
X266860500Y-96948000D01*
X266860500Y-95898750D01*
X266701750Y-95740000D01*
X266500000Y-95736928D01*
X266375518Y-95749188D01*
X266255820Y-95785498D01*
X266145506Y-95844463D01*
X266048815Y-95923815D01*
X265969463Y-96020506D01*
X265910498Y-96130820D01*
X265874188Y-96250518D01*
X265861928Y-96375000D01*
X265155172Y-96375000D01*
X265155172Y-96027330D01*
X265138228Y-95855295D01*
X265088047Y-95689871D01*
X265006558Y-95537416D01*
X264896892Y-95403788D01*
X264763264Y-95294122D01*
X264610809Y-95212633D01*
X264445385Y-95162452D01*
X264273350Y-95145508D01*
X263491860Y-95145508D01*
X263491860Y-94809787D01*
X264026053Y-94275595D01*
X264054098Y-94252579D01*
X264145947Y-94140661D01*
X264170438Y-94094842D01*
X264188197Y-94061618D01*
X264236354Y-94035877D01*
X264333045Y-93956525D01*
X264412397Y-93859834D01*
X264471362Y-93749520D01*
X264507672Y-93629822D01*
X264519932Y-93505340D01*
X264519932Y-92905340D01*
X264507672Y-92780858D01*
X264471362Y-92661160D01*
X264412397Y-92550846D01*
X264334018Y-92455340D01*
X264412397Y-92359834D01*
X264471362Y-92249520D01*
X264507672Y-92129822D01*
X264519932Y-92005340D01*
X264516860Y-91791090D01*
X264358110Y-91632340D01*
X263658860Y-91632340D01*
X263658860Y-91652340D01*
X263540240Y-91652340D01*
X263540240Y-91358340D01*
X263658860Y-91358340D01*
X263658860Y-91378340D01*
X264358110Y-91378340D01*
X264516860Y-91219590D01*
X264517882Y-91148312D01*
X265888341Y-92518772D01*
X265912198Y-92547842D01*
X265941268Y-92571699D01*
X266028227Y-92643065D01*
X266098984Y-92680885D01*
X266160605Y-92713822D01*
X266304242Y-92757394D01*
X266416194Y-92768420D01*
X266416197Y-92768420D01*
X266453620Y-92772106D01*
X266491043Y-92768420D01*
X267608054Y-92768420D01*
X267617673Y-92800129D01*
X267699162Y-92952584D01*
X267808828Y-93086212D01*
X267942456Y-93195878D01*
X268094911Y-93277367D01*
X268260335Y-93327548D01*
X268432370Y-93344492D01*
X268919870Y-93344492D01*
X269091905Y-93327548D01*
X269257329Y-93277367D01*
X269409784Y-93195878D01*
X269543412Y-93086212D01*
X269548628Y-93079856D01*
X269612435Y-93157605D01*
X269709126Y-93236957D01*
X269819440Y-93295922D01*
X269939138Y-93332232D01*
X270063620Y-93344492D01*
X270265370Y-93341420D01*
X270424120Y-93182670D01*
X270424120Y-92133420D01*
X270678120Y-92133420D01*
X270678120Y-93182670D01*
X270836870Y-93341420D01*
X271038620Y-93344492D01*
X271163102Y-93332232D01*
X271282800Y-93295922D01*
X271393114Y-93236957D01*
X271489805Y-93157605D01*
X271569157Y-93060914D01*
X271628122Y-92950600D01*
X271664432Y-92830902D01*
X271676692Y-92706420D01*
X271673620Y-92292170D01*
X271514870Y-92133420D01*
X270678120Y-92133420D01*
X270424120Y-92133420D01*
X270404120Y-92133420D01*
X270404120Y-91879420D01*
X270424120Y-91879420D01*
X270424120Y-90830170D01*
X270678120Y-90830170D01*
X270678120Y-91879420D01*
X271514870Y-91879420D01*
X271673620Y-91720670D01*
X271676692Y-91306420D01*
X271664432Y-91181938D01*
X271628122Y-91062240D01*
X271569157Y-90951926D01*
X271489805Y-90855235D01*
X271393114Y-90775883D01*
X271282800Y-90716918D01*
X271163102Y-90680608D01*
X271038620Y-90668348D01*
X270836870Y-90671420D01*
X270678120Y-90830170D01*
X270424120Y-90830170D01*
X270265370Y-90671420D01*
X270063620Y-90668348D01*
X269939138Y-90680608D01*
X269819440Y-90716918D01*
X269709126Y-90775883D01*
X269612435Y-90855235D01*
X269548628Y-90932984D01*
X269543412Y-90926628D01*
X269409784Y-90816962D01*
X269257329Y-90735473D01*
X269091905Y-90685292D01*
X268919870Y-90668348D01*
X268432370Y-90668348D01*
X268260335Y-90685292D01*
X268094911Y-90735473D01*
X267942456Y-90816962D01*
X267808828Y-90926628D01*
X267699162Y-91060256D01*
X267617673Y-91212711D01*
X267608054Y-91244420D01*
X266769251Y-91244420D01*
X266294605Y-90769774D01*
X266376794Y-90714857D01*
X266520957Y-90570694D01*
X266634225Y-90401176D01*
X266712246Y-90212818D01*
X266752020Y-90012859D01*
X266752020Y-89808981D01*
X266712246Y-89609022D01*
X266634225Y-89420664D01*
X266520957Y-89251146D01*
X266376794Y-89106983D01*
X266232733Y-89010725D01*
X267521184Y-89011987D01*
X268392544Y-89202973D01*
X268419857Y-89205918D01*
X272081416Y-89202398D01*
X272106190Y-89199934D01*
X272130008Y-89192684D01*
X272151953Y-89180927D01*
X272171183Y-89165114D01*
X272186958Y-89145854D01*
X272198673Y-89123886D01*
X272205877Y-89100055D01*
X272208283Y-89077102D01*
X272208510Y-89060217D01*
X272237500Y-89063072D01*
X272476750Y-89060000D01*
X272635500Y-88901250D01*
X272635500Y-87602000D01*
X272889500Y-87602000D01*
X272889500Y-88901250D01*
X273048250Y-89060000D01*
X273287500Y-89063072D01*
X273411982Y-89050812D01*
X273531680Y-89014502D01*
X273641994Y-88955537D01*
X273738685Y-88876185D01*
X273818037Y-88779494D01*
X273877002Y-88669180D01*
X273913312Y-88549482D01*
X273925572Y-88425000D01*
X273922500Y-87760750D01*
X273763750Y-87602000D01*
X272889500Y-87602000D01*
X272635500Y-87602000D01*
X272615500Y-87602000D01*
X272615500Y-87348000D01*
X272635500Y-87348000D01*
X272635500Y-86048750D01*
X272889500Y-86048750D01*
X272889500Y-87348000D01*
X273763750Y-87348000D01*
X273922500Y-87189250D01*
X273924652Y-86723820D01*
X279113648Y-86723820D01*
X279113648Y-87323820D01*
X279125908Y-87448302D01*
X279162218Y-87568000D01*
X279221183Y-87678314D01*
X279300535Y-87775005D01*
X279397226Y-87854357D01*
X279507540Y-87913322D01*
X279627238Y-87949632D01*
X279751720Y-87961892D01*
X280451720Y-87961892D01*
X280576202Y-87949632D01*
X280695900Y-87913322D01*
X280806214Y-87854357D01*
X280902905Y-87775005D01*
X280982257Y-87678314D01*
X281041222Y-87568000D01*
X281077532Y-87448302D01*
X281089792Y-87323820D01*
X281089792Y-86723820D01*
X284913648Y-86723820D01*
X284913648Y-87323820D01*
X284925908Y-87448302D01*
X284962218Y-87568000D01*
X285021183Y-87678314D01*
X285100535Y-87775005D01*
X285197226Y-87854357D01*
X285307540Y-87913322D01*
X285427238Y-87949632D01*
X285551720Y-87961892D01*
X286251720Y-87961892D01*
X286376202Y-87949632D01*
X286495900Y-87913322D01*
X286606214Y-87854357D01*
X286702905Y-87775005D01*
X286782257Y-87678314D01*
X286841222Y-87568000D01*
X286877532Y-87448302D01*
X286889792Y-87323820D01*
X286889792Y-86723820D01*
X286877532Y-86599338D01*
X286841222Y-86479640D01*
X286782257Y-86369326D01*
X286702905Y-86272635D01*
X286606214Y-86193283D01*
X286495900Y-86134318D01*
X286376202Y-86098008D01*
X286251720Y-86085748D01*
X285551720Y-86085748D01*
X285427238Y-86098008D01*
X285307540Y-86134318D01*
X285197226Y-86193283D01*
X285100535Y-86272635D01*
X285021183Y-86369326D01*
X284962218Y-86479640D01*
X284925908Y-86599338D01*
X284913648Y-86723820D01*
X281089792Y-86723820D01*
X281077532Y-86599338D01*
X281041222Y-86479640D01*
X280982257Y-86369326D01*
X280902905Y-86272635D01*
X280806214Y-86193283D01*
X280695900Y-86134318D01*
X280576202Y-86098008D01*
X280451720Y-86085748D01*
X279751720Y-86085748D01*
X279627238Y-86098008D01*
X279507540Y-86134318D01*
X279397226Y-86193283D01*
X279300535Y-86272635D01*
X279221183Y-86369326D01*
X279162218Y-86479640D01*
X279125908Y-86599338D01*
X279113648Y-86723820D01*
X273924652Y-86723820D01*
X273925572Y-86525000D01*
X273913312Y-86400518D01*
X273877002Y-86280820D01*
X273818037Y-86170506D01*
X273738685Y-86073815D01*
X273641994Y-85994463D01*
X273531680Y-85935498D01*
X273411982Y-85899188D01*
X273287500Y-85886928D01*
X273048250Y-85890000D01*
X272889500Y-86048750D01*
X272635500Y-86048750D01*
X272476750Y-85890000D01*
X272251086Y-85887102D01*
X272289505Y-83023820D01*
X279113648Y-83023820D01*
X279113648Y-83623820D01*
X279125908Y-83748302D01*
X279162218Y-83868000D01*
X279221183Y-83978314D01*
X279300535Y-84075005D01*
X279397226Y-84154357D01*
X279507540Y-84213322D01*
X279627238Y-84249632D01*
X279751720Y-84261892D01*
X280451720Y-84261892D01*
X280576202Y-84249632D01*
X280695900Y-84213322D01*
X280806214Y-84154357D01*
X280902905Y-84075005D01*
X280982257Y-83978314D01*
X281041222Y-83868000D01*
X281077532Y-83748302D01*
X281089792Y-83623820D01*
X281089792Y-83023820D01*
X281077532Y-82899338D01*
X281041222Y-82779640D01*
X280982257Y-82669326D01*
X280902905Y-82572635D01*
X280806214Y-82493283D01*
X280695900Y-82434318D01*
X280576202Y-82398008D01*
X280451720Y-82385748D01*
X279751720Y-82385748D01*
X279627238Y-82398008D01*
X279507540Y-82434318D01*
X279397226Y-82493283D01*
X279300535Y-82572635D01*
X279221183Y-82669326D01*
X279162218Y-82779640D01*
X279125908Y-82899338D01*
X279113648Y-83023820D01*
X272289505Y-83023820D01*
X272299352Y-82290001D01*
X290856598Y-82290000D01*
X290799537Y-90858990D01*
G04 #@! TA.AperFunction,Conductor*
D26*
G36*
X290799537Y-90858990D02*
G01*
X283804381Y-90858990D01*
X284650851Y-90012520D01*
X286482197Y-90012520D01*
X286519620Y-90016206D01*
X286557043Y-90012520D01*
X286557046Y-90012520D01*
X286668998Y-90001494D01*
X286812635Y-89957922D01*
X286945012Y-89887165D01*
X287061042Y-89791942D01*
X287084904Y-89762866D01*
X288809966Y-88037804D01*
X288839042Y-88013942D01*
X288899477Y-87940301D01*
X288934265Y-87897913D01*
X288999960Y-87775005D01*
X289005022Y-87765535D01*
X289048594Y-87621898D01*
X289059620Y-87509946D01*
X289059620Y-87509943D01*
X289063306Y-87472520D01*
X289059620Y-87435097D01*
X289059620Y-84182543D01*
X289063306Y-84145120D01*
X289058869Y-84100070D01*
X289048594Y-83995742D01*
X289005022Y-83852105D01*
X288941392Y-83733061D01*
X288934265Y-83719727D01*
X288870463Y-83641985D01*
X288839042Y-83603698D01*
X288809967Y-83579837D01*
X288041604Y-82811474D01*
X288017742Y-82782398D01*
X287901712Y-82687175D01*
X287769335Y-82616418D01*
X287625698Y-82572846D01*
X287513746Y-82561820D01*
X287513743Y-82561820D01*
X287476320Y-82558134D01*
X287438897Y-82561820D01*
X286689727Y-82561820D01*
X286606214Y-82493283D01*
X286495900Y-82434318D01*
X286376202Y-82398008D01*
X286251720Y-82385748D01*
X286187470Y-82388820D01*
X286028720Y-82547570D01*
X286028720Y-82565324D01*
X285952342Y-82572846D01*
X285808705Y-82616418D01*
X285774720Y-82634583D01*
X285774720Y-82547570D01*
X285615970Y-82388820D01*
X285551720Y-82385748D01*
X285427238Y-82398008D01*
X285307540Y-82434318D01*
X285197226Y-82493283D01*
X285100535Y-82572635D01*
X285021183Y-82669326D01*
X284962218Y-82779640D01*
X284925908Y-82899338D01*
X284913648Y-83023820D01*
X284916720Y-83038070D01*
X285075470Y-83196820D01*
X285348542Y-83196820D01*
X285336034Y-83323820D01*
X285348542Y-83450820D01*
X285075470Y-83450820D01*
X284916720Y-83609570D01*
X284913648Y-83623820D01*
X284925908Y-83748302D01*
X284962218Y-83868000D01*
X285021183Y-83978314D01*
X285100535Y-84075005D01*
X285197226Y-84154357D01*
X285307540Y-84213322D01*
X285427238Y-84249632D01*
X285551720Y-84261892D01*
X285615970Y-84258820D01*
X285774720Y-84100070D01*
X285774720Y-84013057D01*
X285808705Y-84031222D01*
X285952342Y-84074794D01*
X286028720Y-84082316D01*
X286028720Y-84100070D01*
X286187470Y-84258820D01*
X286251720Y-84261892D01*
X286376202Y-84249632D01*
X286495900Y-84213322D01*
X286606214Y-84154357D01*
X286689727Y-84085820D01*
X287160690Y-84085820D01*
X287535620Y-84460750D01*
X287535621Y-87156889D01*
X286203990Y-88488520D01*
X284372642Y-88488520D01*
X284335219Y-88484834D01*
X284297796Y-88488520D01*
X284297794Y-88488520D01*
X284185842Y-88499546D01*
X284042205Y-88543118D01*
X283909828Y-88613875D01*
X283793798Y-88709098D01*
X283769941Y-88738168D01*
X281572325Y-90935785D01*
X280672765Y-90933159D01*
X280749478Y-90839684D01*
X280830967Y-90687229D01*
X280881148Y-90521805D01*
X280898092Y-90349770D01*
X280898092Y-89862270D01*
X280881148Y-89690235D01*
X280830967Y-89524811D01*
X280749478Y-89372356D01*
X280639812Y-89238728D01*
X280506184Y-89129062D01*
X280353729Y-89047573D01*
X280188305Y-88997392D01*
X280016270Y-88980448D01*
X279103770Y-88980448D01*
X278931735Y-88997392D01*
X278766311Y-89047573D01*
X278613856Y-89129062D01*
X278480228Y-89238728D01*
X278370562Y-89372356D01*
X278289073Y-89524811D01*
X278238892Y-89690235D01*
X278221948Y-89862270D01*
X278221948Y-90276660D01*
X277669966Y-90828642D01*
X277638459Y-90854499D01*
X277581312Y-90924134D01*
X276571633Y-90921186D01*
X276546849Y-90923553D01*
X276523004Y-90930711D01*
X276501013Y-90942383D01*
X276481722Y-90958121D01*
X276465872Y-90977320D01*
X276454072Y-90999242D01*
X276446775Y-91023045D01*
X276444262Y-91048249D01*
X276446045Y-94586523D01*
X273583068Y-97449500D01*
X270766582Y-97449500D01*
X270726039Y-97445507D01*
X270685496Y-97449500D01*
X270685487Y-97449500D01*
X270564214Y-97461444D01*
X270408606Y-97508647D01*
X270265198Y-97585301D01*
X270139499Y-97688459D01*
X270113648Y-97719959D01*
X269870478Y-97963129D01*
X269920947Y-97868709D01*
X269971128Y-97703285D01*
X269988072Y-97531250D01*
X269988072Y-96618750D01*
X269971128Y-96446715D01*
X269920947Y-96281291D01*
X269839458Y-96128836D01*
X269729792Y-95995208D01*
X269596164Y-95885542D01*
X269443709Y-95804053D01*
X269278285Y-95753872D01*
X269106250Y-95736928D01*
X268618750Y-95736928D01*
X268446715Y-95753872D01*
X268281291Y-95804053D01*
X268128836Y-95885542D01*
X267995208Y-95995208D01*
X267989992Y-96001564D01*
X267926185Y-95923815D01*
X267829494Y-95844463D01*
X267719180Y-95785498D01*
X267599482Y-95749188D01*
X267475000Y-95736928D01*
X267273250Y-95740000D01*
X267114500Y-95898750D01*
X267114500Y-96948000D01*
X267134500Y-96948000D01*
X267134500Y-97202000D01*
X267114500Y-97202000D01*
X267114500Y-98251250D01*
X267273250Y-98410000D01*
X267475000Y-98413072D01*
X267599482Y-98400812D01*
X267719180Y-98364502D01*
X267829494Y-98305537D01*
X267926185Y-98226185D01*
X267989992Y-98148436D01*
X267995208Y-98154792D01*
X268100501Y-98241204D01*
X268100501Y-98590000D01*
X267318081Y-99372420D01*
X264552100Y-99372420D01*
X264552100Y-99222336D01*
X264610809Y-99204527D01*
X264763264Y-99123038D01*
X264896892Y-99013372D01*
X265006558Y-98879744D01*
X265088047Y-98727289D01*
X265138228Y-98561865D01*
X265155172Y-98389830D01*
X265155172Y-97902330D01*
X265142632Y-97775000D01*
X265861928Y-97775000D01*
X265874188Y-97899482D01*
X265910498Y-98019180D01*
X265969463Y-98129494D01*
X266048815Y-98226185D01*
X266145506Y-98305537D01*
X266255820Y-98364502D01*
X266375518Y-98400812D01*
X266500000Y-98413072D01*
X266701750Y-98410000D01*
X266860500Y-98251250D01*
X266860500Y-97202000D01*
X266023750Y-97202000D01*
X265865000Y-97360750D01*
X265861928Y-97775000D01*
X265142632Y-97775000D01*
X265138228Y-97730295D01*
X265088047Y-97564871D01*
X265006558Y-97412416D01*
X264896892Y-97278788D01*
X264811344Y-97208580D01*
X264896892Y-97138372D01*
X265006558Y-97004744D01*
X265088047Y-96852289D01*
X265138228Y-96686865D01*
X265155172Y-96514830D01*
X265155172Y-96375000D01*
X265861928Y-96375000D01*
X265865000Y-96789250D01*
X266023750Y-96948000D01*
X266860500Y-96948000D01*
X266860500Y-95898750D01*
X266701750Y-95740000D01*
X266500000Y-95736928D01*
X266375518Y-95749188D01*
X266255820Y-95785498D01*
X266145506Y-95844463D01*
X266048815Y-95923815D01*
X265969463Y-96020506D01*
X265910498Y-96130820D01*
X265874188Y-96250518D01*
X265861928Y-96375000D01*
X265155172Y-96375000D01*
X265155172Y-96027330D01*
X265138228Y-95855295D01*
X265088047Y-95689871D01*
X265006558Y-95537416D01*
X264896892Y-95403788D01*
X264763264Y-95294122D01*
X264610809Y-95212633D01*
X264445385Y-95162452D01*
X264273350Y-95145508D01*
X263491860Y-95145508D01*
X263491860Y-94809787D01*
X264026053Y-94275595D01*
X264054098Y-94252579D01*
X264145947Y-94140661D01*
X264170438Y-94094842D01*
X264188197Y-94061618D01*
X264236354Y-94035877D01*
X264333045Y-93956525D01*
X264412397Y-93859834D01*
X264471362Y-93749520D01*
X264507672Y-93629822D01*
X264519932Y-93505340D01*
X264519932Y-92905340D01*
X264507672Y-92780858D01*
X264471362Y-92661160D01*
X264412397Y-92550846D01*
X264334018Y-92455340D01*
X264412397Y-92359834D01*
X264471362Y-92249520D01*
X264507672Y-92129822D01*
X264519932Y-92005340D01*
X264516860Y-91791090D01*
X264358110Y-91632340D01*
X263658860Y-91632340D01*
X263658860Y-91652340D01*
X263540240Y-91652340D01*
X263540240Y-91358340D01*
X263658860Y-91358340D01*
X263658860Y-91378340D01*
X264358110Y-91378340D01*
X264516860Y-91219590D01*
X264517882Y-91148312D01*
X265888341Y-92518772D01*
X265912198Y-92547842D01*
X265941268Y-92571699D01*
X266028227Y-92643065D01*
X266098984Y-92680885D01*
X266160605Y-92713822D01*
X266304242Y-92757394D01*
X266416194Y-92768420D01*
X266416197Y-92768420D01*
X266453620Y-92772106D01*
X266491043Y-92768420D01*
X267608054Y-92768420D01*
X267617673Y-92800129D01*
X267699162Y-92952584D01*
X267808828Y-93086212D01*
X267942456Y-93195878D01*
X268094911Y-93277367D01*
X268260335Y-93327548D01*
X268432370Y-93344492D01*
X268919870Y-93344492D01*
X269091905Y-93327548D01*
X269257329Y-93277367D01*
X269409784Y-93195878D01*
X269543412Y-93086212D01*
X269548628Y-93079856D01*
X269612435Y-93157605D01*
X269709126Y-93236957D01*
X269819440Y-93295922D01*
X269939138Y-93332232D01*
X270063620Y-93344492D01*
X270265370Y-93341420D01*
X270424120Y-93182670D01*
X270424120Y-92133420D01*
X270678120Y-92133420D01*
X270678120Y-93182670D01*
X270836870Y-93341420D01*
X271038620Y-93344492D01*
X271163102Y-93332232D01*
X271282800Y-93295922D01*
X271393114Y-93236957D01*
X271489805Y-93157605D01*
X271569157Y-93060914D01*
X271628122Y-92950600D01*
X271664432Y-92830902D01*
X271676692Y-92706420D01*
X271673620Y-92292170D01*
X271514870Y-92133420D01*
X270678120Y-92133420D01*
X270424120Y-92133420D01*
X270404120Y-92133420D01*
X270404120Y-91879420D01*
X270424120Y-91879420D01*
X270424120Y-90830170D01*
X270678120Y-90830170D01*
X270678120Y-91879420D01*
X271514870Y-91879420D01*
X271673620Y-91720670D01*
X271676692Y-91306420D01*
X271664432Y-91181938D01*
X271628122Y-91062240D01*
X271569157Y-90951926D01*
X271489805Y-90855235D01*
X271393114Y-90775883D01*
X271282800Y-90716918D01*
X271163102Y-90680608D01*
X271038620Y-90668348D01*
X270836870Y-90671420D01*
X270678120Y-90830170D01*
X270424120Y-90830170D01*
X270265370Y-90671420D01*
X270063620Y-90668348D01*
X269939138Y-90680608D01*
X269819440Y-90716918D01*
X269709126Y-90775883D01*
X269612435Y-90855235D01*
X269548628Y-90932984D01*
X269543412Y-90926628D01*
X269409784Y-90816962D01*
X269257329Y-90735473D01*
X269091905Y-90685292D01*
X268919870Y-90668348D01*
X268432370Y-90668348D01*
X268260335Y-90685292D01*
X268094911Y-90735473D01*
X267942456Y-90816962D01*
X267808828Y-90926628D01*
X267699162Y-91060256D01*
X267617673Y-91212711D01*
X267608054Y-91244420D01*
X266769251Y-91244420D01*
X266294605Y-90769774D01*
X266376794Y-90714857D01*
X266520957Y-90570694D01*
X266634225Y-90401176D01*
X266712246Y-90212818D01*
X266752020Y-90012859D01*
X266752020Y-89808981D01*
X266712246Y-89609022D01*
X266634225Y-89420664D01*
X266520957Y-89251146D01*
X266376794Y-89106983D01*
X266232733Y-89010725D01*
X267521184Y-89011987D01*
X268392544Y-89202973D01*
X268419857Y-89205918D01*
X272081416Y-89202398D01*
X272106190Y-89199934D01*
X272130008Y-89192684D01*
X272151953Y-89180927D01*
X272171183Y-89165114D01*
X272186958Y-89145854D01*
X272198673Y-89123886D01*
X272205877Y-89100055D01*
X272208283Y-89077102D01*
X272208510Y-89060217D01*
X272237500Y-89063072D01*
X272476750Y-89060000D01*
X272635500Y-88901250D01*
X272635500Y-87602000D01*
X272889500Y-87602000D01*
X272889500Y-88901250D01*
X273048250Y-89060000D01*
X273287500Y-89063072D01*
X273411982Y-89050812D01*
X273531680Y-89014502D01*
X273641994Y-88955537D01*
X273738685Y-88876185D01*
X273818037Y-88779494D01*
X273877002Y-88669180D01*
X273913312Y-88549482D01*
X273925572Y-88425000D01*
X273922500Y-87760750D01*
X273763750Y-87602000D01*
X272889500Y-87602000D01*
X272635500Y-87602000D01*
X272615500Y-87602000D01*
X272615500Y-87348000D01*
X272635500Y-87348000D01*
X272635500Y-86048750D01*
X272889500Y-86048750D01*
X272889500Y-87348000D01*
X273763750Y-87348000D01*
X273922500Y-87189250D01*
X273924652Y-86723820D01*
X279113648Y-86723820D01*
X279113648Y-87323820D01*
X279125908Y-87448302D01*
X279162218Y-87568000D01*
X279221183Y-87678314D01*
X279300535Y-87775005D01*
X279397226Y-87854357D01*
X279507540Y-87913322D01*
X279627238Y-87949632D01*
X279751720Y-87961892D01*
X280451720Y-87961892D01*
X280576202Y-87949632D01*
X280695900Y-87913322D01*
X280806214Y-87854357D01*
X280902905Y-87775005D01*
X280982257Y-87678314D01*
X281041222Y-87568000D01*
X281077532Y-87448302D01*
X281089792Y-87323820D01*
X281089792Y-86723820D01*
X284913648Y-86723820D01*
X284913648Y-87323820D01*
X284925908Y-87448302D01*
X284962218Y-87568000D01*
X285021183Y-87678314D01*
X285100535Y-87775005D01*
X285197226Y-87854357D01*
X285307540Y-87913322D01*
X285427238Y-87949632D01*
X285551720Y-87961892D01*
X286251720Y-87961892D01*
X286376202Y-87949632D01*
X286495900Y-87913322D01*
X286606214Y-87854357D01*
X286702905Y-87775005D01*
X286782257Y-87678314D01*
X286841222Y-87568000D01*
X286877532Y-87448302D01*
X286889792Y-87323820D01*
X286889792Y-86723820D01*
X286877532Y-86599338D01*
X286841222Y-86479640D01*
X286782257Y-86369326D01*
X286702905Y-86272635D01*
X286606214Y-86193283D01*
X286495900Y-86134318D01*
X286376202Y-86098008D01*
X286251720Y-86085748D01*
X285551720Y-86085748D01*
X285427238Y-86098008D01*
X285307540Y-86134318D01*
X285197226Y-86193283D01*
X285100535Y-86272635D01*
X285021183Y-86369326D01*
X284962218Y-86479640D01*
X284925908Y-86599338D01*
X284913648Y-86723820D01*
X281089792Y-86723820D01*
X281077532Y-86599338D01*
X281041222Y-86479640D01*
X280982257Y-86369326D01*
X280902905Y-86272635D01*
X280806214Y-86193283D01*
X280695900Y-86134318D01*
X280576202Y-86098008D01*
X280451720Y-86085748D01*
X279751720Y-86085748D01*
X279627238Y-86098008D01*
X279507540Y-86134318D01*
X279397226Y-86193283D01*
X279300535Y-86272635D01*
X279221183Y-86369326D01*
X279162218Y-86479640D01*
X279125908Y-86599338D01*
X279113648Y-86723820D01*
X273924652Y-86723820D01*
X273925572Y-86525000D01*
X273913312Y-86400518D01*
X273877002Y-86280820D01*
X273818037Y-86170506D01*
X273738685Y-86073815D01*
X273641994Y-85994463D01*
X273531680Y-85935498D01*
X273411982Y-85899188D01*
X273287500Y-85886928D01*
X273048250Y-85890000D01*
X272889500Y-86048750D01*
X272635500Y-86048750D01*
X272476750Y-85890000D01*
X272251086Y-85887102D01*
X272289505Y-83023820D01*
X279113648Y-83023820D01*
X279113648Y-83623820D01*
X279125908Y-83748302D01*
X279162218Y-83868000D01*
X279221183Y-83978314D01*
X279300535Y-84075005D01*
X279397226Y-84154357D01*
X279507540Y-84213322D01*
X279627238Y-84249632D01*
X279751720Y-84261892D01*
X280451720Y-84261892D01*
X280576202Y-84249632D01*
X280695900Y-84213322D01*
X280806214Y-84154357D01*
X280902905Y-84075005D01*
X280982257Y-83978314D01*
X281041222Y-83868000D01*
X281077532Y-83748302D01*
X281089792Y-83623820D01*
X281089792Y-83023820D01*
X281077532Y-82899338D01*
X281041222Y-82779640D01*
X280982257Y-82669326D01*
X280902905Y-82572635D01*
X280806214Y-82493283D01*
X280695900Y-82434318D01*
X280576202Y-82398008D01*
X280451720Y-82385748D01*
X279751720Y-82385748D01*
X279627238Y-82398008D01*
X279507540Y-82434318D01*
X279397226Y-82493283D01*
X279300535Y-82572635D01*
X279221183Y-82669326D01*
X279162218Y-82779640D01*
X279125908Y-82899338D01*
X279113648Y-83023820D01*
X272289505Y-83023820D01*
X272299352Y-82290001D01*
X290856598Y-82290000D01*
X290799537Y-90858990D01*
G37*
G04 #@! TD.AperFunction*
D22*
X260811928Y-113425000D02*
X260811928Y-114925000D01*
X260824188Y-115049482D01*
X260826444Y-115056920D01*
X259316220Y-115056920D01*
X259316220Y-113388072D01*
X260775000Y-113388072D01*
X260815962Y-113384038D01*
X260811928Y-113425000D01*
G04 #@! TA.AperFunction,Conductor*
D26*
G36*
X260811928Y-113425000D02*
G01*
X260811928Y-114925000D01*
X260824188Y-115049482D01*
X260826444Y-115056920D01*
X259316220Y-115056920D01*
X259316220Y-113388072D01*
X260775000Y-113388072D01*
X260815962Y-113384038D01*
X260811928Y-113425000D01*
G37*
G04 #@! TD.AperFunction*
D22*
X264998815Y-103976185D02*
X265095506Y-104055537D01*
X265118667Y-104067917D01*
X265210750Y-104160000D01*
X265324337Y-104150454D01*
X265325518Y-104150812D01*
X265450000Y-104163072D01*
X266000000Y-104163072D01*
X266124482Y-104150812D01*
X266125000Y-104150655D01*
X266125518Y-104150812D01*
X266250000Y-104163072D01*
X266800000Y-104163072D01*
X266924482Y-104150812D01*
X266925000Y-104150655D01*
X266925518Y-104150812D01*
X267050000Y-104163072D01*
X267600000Y-104163072D01*
X267724482Y-104150812D01*
X267725000Y-104150655D01*
X267725518Y-104150812D01*
X267850000Y-104163072D01*
X268400000Y-104163072D01*
X268524482Y-104150812D01*
X268525000Y-104150655D01*
X268525518Y-104150812D01*
X268650000Y-104163072D01*
X269200000Y-104163072D01*
X269324482Y-104150812D01*
X269325000Y-104150655D01*
X269325518Y-104150812D01*
X269450000Y-104163072D01*
X270000000Y-104163072D01*
X270040962Y-104159038D01*
X270036928Y-104200000D01*
X270036928Y-104750000D01*
X270049188Y-104874482D01*
X270049345Y-104875000D01*
X270049188Y-104875518D01*
X270036928Y-105000000D01*
X270036928Y-105550000D01*
X270049188Y-105674482D01*
X270049345Y-105675000D01*
X270049188Y-105675518D01*
X270036928Y-105800000D01*
X270036928Y-106350000D01*
X270049188Y-106474482D01*
X270049546Y-106475663D01*
X270040000Y-106589250D01*
X270132083Y-106681333D01*
X270144463Y-106704494D01*
X270223815Y-106801185D01*
X270313759Y-106875000D01*
X270223815Y-106948815D01*
X270144463Y-107045506D01*
X270132083Y-107068667D01*
X270040000Y-107160750D01*
X270049546Y-107274337D01*
X270049188Y-107275518D01*
X270036928Y-107400000D01*
X270036928Y-107950000D01*
X270049188Y-108074482D01*
X270049345Y-108075000D01*
X270049188Y-108075518D01*
X270036928Y-108200000D01*
X270036928Y-108750000D01*
X270049188Y-108874482D01*
X270049345Y-108875000D01*
X270049188Y-108875518D01*
X270036928Y-109000000D01*
X270036928Y-109550000D01*
X270049188Y-109674482D01*
X270049345Y-109675000D01*
X270049188Y-109675518D01*
X270036928Y-109800000D01*
X270036928Y-110350000D01*
X270049188Y-110474482D01*
X270049345Y-110475000D01*
X270049188Y-110475518D01*
X270036928Y-110600000D01*
X270036928Y-111150000D01*
X270049188Y-111274482D01*
X270049345Y-111275000D01*
X270049188Y-111275518D01*
X270036928Y-111400000D01*
X270036928Y-111950000D01*
X270049188Y-112074482D01*
X270049345Y-112075000D01*
X270049188Y-112075518D01*
X270036928Y-112200000D01*
X270036928Y-112750000D01*
X270041119Y-112792552D01*
X270010750Y-112790000D01*
X269852000Y-112948750D01*
X269852000Y-114048000D01*
X270476250Y-114048000D01*
X270635000Y-113889250D01*
X270638064Y-113428213D01*
X270633936Y-113384028D01*
X270675000Y-113388072D01*
X271963000Y-113388072D01*
X271963001Y-114951947D01*
X271823102Y-114979774D01*
X271636856Y-115056920D01*
X270623275Y-115056920D01*
X270626430Y-115046329D01*
X270638064Y-114921787D01*
X270635000Y-114460750D01*
X270476250Y-114302000D01*
X269852000Y-114302000D01*
X269852000Y-114322000D01*
X269838072Y-114322000D01*
X269838072Y-113425000D01*
X269825812Y-113300518D01*
X269789502Y-113180820D01*
X269730537Y-113070506D01*
X269651185Y-112973815D01*
X269554494Y-112894463D01*
X269531333Y-112882083D01*
X269439250Y-112790000D01*
X269325663Y-112799546D01*
X269324482Y-112799188D01*
X269200000Y-112786928D01*
X268650000Y-112786928D01*
X268525518Y-112799188D01*
X268525000Y-112799345D01*
X268524482Y-112799188D01*
X268400000Y-112786928D01*
X267850000Y-112786928D01*
X267725518Y-112799188D01*
X267725000Y-112799345D01*
X267724482Y-112799188D01*
X267600000Y-112786928D01*
X267050000Y-112786928D01*
X266925518Y-112799188D01*
X266925000Y-112799345D01*
X266924482Y-112799188D01*
X266800000Y-112786928D01*
X266250000Y-112786928D01*
X266125518Y-112799188D01*
X266125000Y-112799345D01*
X266124482Y-112799188D01*
X266000000Y-112786928D01*
X265450000Y-112786928D01*
X265325518Y-112799188D01*
X265325000Y-112799345D01*
X265324482Y-112799188D01*
X265200000Y-112786928D01*
X264650000Y-112786928D01*
X264525518Y-112799188D01*
X264525000Y-112799345D01*
X264524482Y-112799188D01*
X264400000Y-112786928D01*
X263850000Y-112786928D01*
X263725518Y-112799188D01*
X263725000Y-112799345D01*
X263724482Y-112799188D01*
X263600000Y-112786928D01*
X263050000Y-112786928D01*
X262925518Y-112799188D01*
X262925000Y-112799345D01*
X262924482Y-112799188D01*
X262800000Y-112786928D01*
X262250000Y-112786928D01*
X262125518Y-112799188D01*
X262125000Y-112799345D01*
X262124482Y-112799188D01*
X262000000Y-112786928D01*
X261450000Y-112786928D01*
X261409038Y-112790962D01*
X261413072Y-112750000D01*
X261413072Y-112200000D01*
X261400812Y-112075518D01*
X261400454Y-112074337D01*
X261410000Y-111960750D01*
X261317917Y-111868667D01*
X261305537Y-111845506D01*
X261226185Y-111748815D01*
X261136241Y-111675000D01*
X261226185Y-111601185D01*
X261305537Y-111504494D01*
X261317917Y-111481333D01*
X261410000Y-111389250D01*
X261400454Y-111275663D01*
X261400812Y-111274482D01*
X261413072Y-111150000D01*
X261413072Y-110600000D01*
X261400812Y-110475518D01*
X261400655Y-110475000D01*
X261400812Y-110474482D01*
X261413072Y-110350000D01*
X261413072Y-109800000D01*
X261400812Y-109675518D01*
X261400655Y-109675000D01*
X261400812Y-109674482D01*
X261413072Y-109550000D01*
X261413072Y-109000000D01*
X261400812Y-108875518D01*
X261400655Y-108875000D01*
X261400812Y-108874482D01*
X261413072Y-108750000D01*
X261413072Y-108200000D01*
X261400812Y-108075518D01*
X261400655Y-108075000D01*
X261400812Y-108074482D01*
X261413072Y-107950000D01*
X261413072Y-107400000D01*
X261400812Y-107275518D01*
X261400655Y-107275000D01*
X261400812Y-107274482D01*
X261413072Y-107150000D01*
X261413072Y-106600000D01*
X261400812Y-106475518D01*
X261400655Y-106475000D01*
X261400812Y-106474482D01*
X261413072Y-106350000D01*
X261413072Y-105800000D01*
X261400812Y-105675518D01*
X261400454Y-105674337D01*
X261410000Y-105560750D01*
X261317917Y-105468667D01*
X261305537Y-105445506D01*
X261226185Y-105348815D01*
X261136241Y-105275000D01*
X261226185Y-105201185D01*
X261305537Y-105104494D01*
X261317917Y-105081333D01*
X261410000Y-104989250D01*
X261400454Y-104875663D01*
X261400812Y-104874482D01*
X261413072Y-104750000D01*
X261413072Y-104200000D01*
X261409038Y-104159038D01*
X261450000Y-104163072D01*
X262000000Y-104163072D01*
X262124482Y-104150812D01*
X262125000Y-104150655D01*
X262125518Y-104150812D01*
X262250000Y-104163072D01*
X262800000Y-104163072D01*
X262924482Y-104150812D01*
X262925000Y-104150655D01*
X262925518Y-104150812D01*
X263050000Y-104163072D01*
X263600000Y-104163072D01*
X263724482Y-104150812D01*
X263725000Y-104150655D01*
X263725518Y-104150812D01*
X263850000Y-104163072D01*
X264400000Y-104163072D01*
X264524482Y-104150812D01*
X264525663Y-104150454D01*
X264639250Y-104160000D01*
X264731333Y-104067917D01*
X264754494Y-104055537D01*
X264851185Y-103976185D01*
X264925000Y-103886241D01*
X264998815Y-103976185D01*
G04 #@! TA.AperFunction,Conductor*
D26*
G36*
X264998815Y-103976185D02*
G01*
X265095506Y-104055537D01*
X265118667Y-104067917D01*
X265210750Y-104160000D01*
X265324337Y-104150454D01*
X265325518Y-104150812D01*
X265450000Y-104163072D01*
X266000000Y-104163072D01*
X266124482Y-104150812D01*
X266125000Y-104150655D01*
X266125518Y-104150812D01*
X266250000Y-104163072D01*
X266800000Y-104163072D01*
X266924482Y-104150812D01*
X266925000Y-104150655D01*
X266925518Y-104150812D01*
X267050000Y-104163072D01*
X267600000Y-104163072D01*
X267724482Y-104150812D01*
X267725000Y-104150655D01*
X267725518Y-104150812D01*
X267850000Y-104163072D01*
X268400000Y-104163072D01*
X268524482Y-104150812D01*
X268525000Y-104150655D01*
X268525518Y-104150812D01*
X268650000Y-104163072D01*
X269200000Y-104163072D01*
X269324482Y-104150812D01*
X269325000Y-104150655D01*
X269325518Y-104150812D01*
X269450000Y-104163072D01*
X270000000Y-104163072D01*
X270040962Y-104159038D01*
X270036928Y-104200000D01*
X270036928Y-104750000D01*
X270049188Y-104874482D01*
X270049345Y-104875000D01*
X270049188Y-104875518D01*
X270036928Y-105000000D01*
X270036928Y-105550000D01*
X270049188Y-105674482D01*
X270049345Y-105675000D01*
X270049188Y-105675518D01*
X270036928Y-105800000D01*
X270036928Y-106350000D01*
X270049188Y-106474482D01*
X270049546Y-106475663D01*
X270040000Y-106589250D01*
X270132083Y-106681333D01*
X270144463Y-106704494D01*
X270223815Y-106801185D01*
X270313759Y-106875000D01*
X270223815Y-106948815D01*
X270144463Y-107045506D01*
X270132083Y-107068667D01*
X270040000Y-107160750D01*
X270049546Y-107274337D01*
X270049188Y-107275518D01*
X270036928Y-107400000D01*
X270036928Y-107950000D01*
X270049188Y-108074482D01*
X270049345Y-108075000D01*
X270049188Y-108075518D01*
X270036928Y-108200000D01*
X270036928Y-108750000D01*
X270049188Y-108874482D01*
X270049345Y-108875000D01*
X270049188Y-108875518D01*
X270036928Y-109000000D01*
X270036928Y-109550000D01*
X270049188Y-109674482D01*
X270049345Y-109675000D01*
X270049188Y-109675518D01*
X270036928Y-109800000D01*
X270036928Y-110350000D01*
X270049188Y-110474482D01*
X270049345Y-110475000D01*
X270049188Y-110475518D01*
X270036928Y-110600000D01*
X270036928Y-111150000D01*
X270049188Y-111274482D01*
X270049345Y-111275000D01*
X270049188Y-111275518D01*
X270036928Y-111400000D01*
X270036928Y-111950000D01*
X270049188Y-112074482D01*
X270049345Y-112075000D01*
X270049188Y-112075518D01*
X270036928Y-112200000D01*
X270036928Y-112750000D01*
X270041119Y-112792552D01*
X270010750Y-112790000D01*
X269852000Y-112948750D01*
X269852000Y-114048000D01*
X270476250Y-114048000D01*
X270635000Y-113889250D01*
X270638064Y-113428213D01*
X270633936Y-113384028D01*
X270675000Y-113388072D01*
X271963000Y-113388072D01*
X271963001Y-114951947D01*
X271823102Y-114979774D01*
X271636856Y-115056920D01*
X270623275Y-115056920D01*
X270626430Y-115046329D01*
X270638064Y-114921787D01*
X270635000Y-114460750D01*
X270476250Y-114302000D01*
X269852000Y-114302000D01*
X269852000Y-114322000D01*
X269838072Y-114322000D01*
X269838072Y-113425000D01*
X269825812Y-113300518D01*
X269789502Y-113180820D01*
X269730537Y-113070506D01*
X269651185Y-112973815D01*
X269554494Y-112894463D01*
X269531333Y-112882083D01*
X269439250Y-112790000D01*
X269325663Y-112799546D01*
X269324482Y-112799188D01*
X269200000Y-112786928D01*
X268650000Y-112786928D01*
X268525518Y-112799188D01*
X268525000Y-112799345D01*
X268524482Y-112799188D01*
X268400000Y-112786928D01*
X267850000Y-112786928D01*
X267725518Y-112799188D01*
X267725000Y-112799345D01*
X267724482Y-112799188D01*
X267600000Y-112786928D01*
X267050000Y-112786928D01*
X266925518Y-112799188D01*
X266925000Y-112799345D01*
X266924482Y-112799188D01*
X266800000Y-112786928D01*
X266250000Y-112786928D01*
X266125518Y-112799188D01*
X266125000Y-112799345D01*
X266124482Y-112799188D01*
X266000000Y-112786928D01*
X265450000Y-112786928D01*
X265325518Y-112799188D01*
X265325000Y-112799345D01*
X265324482Y-112799188D01*
X265200000Y-112786928D01*
X264650000Y-112786928D01*
X264525518Y-112799188D01*
X264525000Y-112799345D01*
X264524482Y-112799188D01*
X264400000Y-112786928D01*
X263850000Y-112786928D01*
X263725518Y-112799188D01*
X263725000Y-112799345D01*
X263724482Y-112799188D01*
X263600000Y-112786928D01*
X263050000Y-112786928D01*
X262925518Y-112799188D01*
X262925000Y-112799345D01*
X262924482Y-112799188D01*
X262800000Y-112786928D01*
X262250000Y-112786928D01*
X262125518Y-112799188D01*
X262125000Y-112799345D01*
X262124482Y-112799188D01*
X262000000Y-112786928D01*
X261450000Y-112786928D01*
X261409038Y-112790962D01*
X261413072Y-112750000D01*
X261413072Y-112200000D01*
X261400812Y-112075518D01*
X261400454Y-112074337D01*
X261410000Y-111960750D01*
X261317917Y-111868667D01*
X261305537Y-111845506D01*
X261226185Y-111748815D01*
X261136241Y-111675000D01*
X261226185Y-111601185D01*
X261305537Y-111504494D01*
X261317917Y-111481333D01*
X261410000Y-111389250D01*
X261400454Y-111275663D01*
X261400812Y-111274482D01*
X261413072Y-111150000D01*
X261413072Y-110600000D01*
X261400812Y-110475518D01*
X261400655Y-110475000D01*
X261400812Y-110474482D01*
X261413072Y-110350000D01*
X261413072Y-109800000D01*
X261400812Y-109675518D01*
X261400655Y-109675000D01*
X261400812Y-109674482D01*
X261413072Y-109550000D01*
X261413072Y-109000000D01*
X261400812Y-108875518D01*
X261400655Y-108875000D01*
X261400812Y-108874482D01*
X261413072Y-108750000D01*
X261413072Y-108200000D01*
X261400812Y-108075518D01*
X261400655Y-108075000D01*
X261400812Y-108074482D01*
X261413072Y-107950000D01*
X261413072Y-107400000D01*
X261400812Y-107275518D01*
X261400655Y-107275000D01*
X261400812Y-107274482D01*
X261413072Y-107150000D01*
X261413072Y-106600000D01*
X261400812Y-106475518D01*
X261400655Y-106475000D01*
X261400812Y-106474482D01*
X261413072Y-106350000D01*
X261413072Y-105800000D01*
X261400812Y-105675518D01*
X261400454Y-105674337D01*
X261410000Y-105560750D01*
X261317917Y-105468667D01*
X261305537Y-105445506D01*
X261226185Y-105348815D01*
X261136241Y-105275000D01*
X261226185Y-105201185D01*
X261305537Y-105104494D01*
X261317917Y-105081333D01*
X261410000Y-104989250D01*
X261400454Y-104875663D01*
X261400812Y-104874482D01*
X261413072Y-104750000D01*
X261413072Y-104200000D01*
X261409038Y-104159038D01*
X261450000Y-104163072D01*
X262000000Y-104163072D01*
X262124482Y-104150812D01*
X262125000Y-104150655D01*
X262125518Y-104150812D01*
X262250000Y-104163072D01*
X262800000Y-104163072D01*
X262924482Y-104150812D01*
X262925000Y-104150655D01*
X262925518Y-104150812D01*
X263050000Y-104163072D01*
X263600000Y-104163072D01*
X263724482Y-104150812D01*
X263725000Y-104150655D01*
X263725518Y-104150812D01*
X263850000Y-104163072D01*
X264400000Y-104163072D01*
X264524482Y-104150812D01*
X264525663Y-104150454D01*
X264639250Y-104160000D01*
X264731333Y-104067917D01*
X264754494Y-104055537D01*
X264851185Y-103976185D01*
X264925000Y-103886241D01*
X264998815Y-103976185D01*
G37*
G04 #@! TD.AperFunction*
D22*
X266004997Y-79423322D02*
X265916585Y-79629013D01*
X265870000Y-79848000D01*
X265870000Y-80148000D01*
X266878000Y-80148000D01*
X266878000Y-80128000D01*
X267132000Y-80128000D01*
X267132000Y-80148000D01*
X267152000Y-80148000D01*
X267152000Y-80402000D01*
X267132000Y-80402000D01*
X267132000Y-81542954D01*
X267306874Y-81669119D01*
X267529976Y-81589276D01*
X267717764Y-81467369D01*
X267878161Y-81311169D01*
X268005003Y-81126678D01*
X268006385Y-81123464D01*
X268096936Y-81290936D01*
X268139275Y-81353706D01*
X268180697Y-81417006D01*
X268188065Y-81426040D01*
X268374670Y-81651606D01*
X268428394Y-81704957D01*
X268481320Y-81759003D01*
X268490297Y-81766429D01*
X268490304Y-81766436D01*
X268490312Y-81766441D01*
X268717167Y-81951460D01*
X268780206Y-81993343D01*
X268842649Y-82036099D01*
X268852899Y-82041641D01*
X268852903Y-82041644D01*
X268852907Y-82041646D01*
X269111386Y-82179081D01*
X269181425Y-82207949D01*
X269250915Y-82237733D01*
X269262046Y-82241179D01*
X269262053Y-82241182D01*
X269262060Y-82241183D01*
X269542306Y-82325795D01*
X269616550Y-82340496D01*
X269690572Y-82356230D01*
X269702165Y-82357448D01*
X269702167Y-82357448D01*
X269992105Y-82385876D01*
X270033982Y-82390001D01*
X270531560Y-82390001D01*
X270449136Y-85971555D01*
X270381680Y-85935498D01*
X270261982Y-85899188D01*
X270137500Y-85886928D01*
X269898250Y-85890000D01*
X269739500Y-86048750D01*
X269739500Y-87348000D01*
X269759500Y-87348000D01*
X269759500Y-87602000D01*
X269739500Y-87602000D01*
X269739500Y-87622000D01*
X269485500Y-87622000D01*
X269485500Y-87602000D01*
X268611250Y-87602000D01*
X268452500Y-87760750D01*
X268450924Y-88101444D01*
X267356904Y-88094587D01*
X266835500Y-87623348D01*
X266835500Y-86525000D01*
X268449428Y-86525000D01*
X268452500Y-87189250D01*
X268611250Y-87348000D01*
X269485500Y-87348000D01*
X269485500Y-86048750D01*
X269326750Y-85890000D01*
X269087500Y-85886928D01*
X268963018Y-85899188D01*
X268843320Y-85935498D01*
X268733006Y-85994463D01*
X268636315Y-86073815D01*
X268556963Y-86170506D01*
X268497998Y-86280820D01*
X268461688Y-86400518D01*
X268449428Y-86525000D01*
X266835500Y-86525000D01*
X266835500Y-86483968D01*
X266892337Y-86377633D01*
X266934365Y-86239085D01*
X266948556Y-86095000D01*
X266948556Y-84645000D01*
X266942352Y-84582000D01*
X267132000Y-84582000D01*
X267132000Y-85972954D01*
X267306874Y-86099119D01*
X267529976Y-86019276D01*
X267717764Y-85897369D01*
X267878161Y-85741169D01*
X268005003Y-85556678D01*
X268093415Y-85350987D01*
X268140000Y-85132000D01*
X268140000Y-84582000D01*
X267132000Y-84582000D01*
X266942352Y-84582000D01*
X266934365Y-84500915D01*
X266892337Y-84362367D01*
X266873967Y-84328000D01*
X266878000Y-84328000D01*
X266878000Y-82937046D01*
X267132000Y-82937046D01*
X267132000Y-84328000D01*
X268140000Y-84328000D01*
X268140000Y-83778000D01*
X268093415Y-83559013D01*
X268005003Y-83353322D01*
X267878161Y-83168831D01*
X267717764Y-83012631D01*
X267529976Y-82890724D01*
X267306874Y-82810881D01*
X267132000Y-82937046D01*
X266878000Y-82937046D01*
X266703126Y-82810881D01*
X266480024Y-82890724D01*
X266292236Y-83012631D01*
X266221129Y-83081878D01*
X266077098Y-82985640D01*
X265884191Y-82905735D01*
X265679401Y-82865000D01*
X265470599Y-82865000D01*
X265265809Y-82905735D01*
X265072902Y-82985640D01*
X264899289Y-83101644D01*
X264751644Y-83249289D01*
X264635640Y-83422902D01*
X264555735Y-83615809D01*
X264515000Y-83820599D01*
X264515000Y-83906444D01*
X264285000Y-83906444D01*
X264185000Y-83916293D01*
X264157211Y-83913556D01*
X264155194Y-83909782D01*
X264047475Y-83778525D01*
X264014580Y-83751529D01*
X263618462Y-83355411D01*
X263591474Y-83322526D01*
X263502235Y-83249289D01*
X263460218Y-83214807D01*
X263310469Y-83134764D01*
X263147981Y-83085474D01*
X262979000Y-83068830D01*
X262978999Y-83068830D01*
X262810018Y-83085474D01*
X262647530Y-83134764D01*
X262497781Y-83214807D01*
X262399413Y-83295536D01*
X262366526Y-83322526D01*
X262339538Y-83355411D01*
X261855420Y-83839529D01*
X261822525Y-83866525D01*
X261789765Y-83906444D01*
X261785000Y-83906444D01*
X261685000Y-83916293D01*
X261585000Y-83906444D01*
X261285000Y-83906444D01*
X261185000Y-83916293D01*
X261085000Y-83906444D01*
X260855000Y-83906444D01*
X260855000Y-83820599D01*
X260814265Y-83615809D01*
X260734360Y-83422902D01*
X260618356Y-83249289D01*
X260470711Y-83101644D01*
X260297098Y-82985640D01*
X260104191Y-82905735D01*
X259899401Y-82865000D01*
X259690599Y-82865000D01*
X259485809Y-82905735D01*
X259292902Y-82985640D01*
X259148871Y-83081878D01*
X259077764Y-83012631D01*
X258889976Y-82890724D01*
X258666874Y-82810881D01*
X258492000Y-82937046D01*
X258492000Y-84328000D01*
X258496033Y-84328000D01*
X258477663Y-84362367D01*
X258435635Y-84500915D01*
X258421444Y-84645000D01*
X258421444Y-86095000D01*
X258435635Y-86239085D01*
X258477663Y-86377633D01*
X258534501Y-86483969D01*
X258534501Y-86954239D01*
X257209719Y-87683083D01*
X251497388Y-87697674D01*
X251506887Y-84582000D01*
X257230000Y-84582000D01*
X257230000Y-85132000D01*
X257276585Y-85350987D01*
X257364997Y-85556678D01*
X257491839Y-85741169D01*
X257652236Y-85897369D01*
X257840024Y-86019276D01*
X258063126Y-86099119D01*
X258238000Y-85972954D01*
X258238000Y-84582000D01*
X257230000Y-84582000D01*
X251506887Y-84582000D01*
X251509338Y-83778000D01*
X257230000Y-83778000D01*
X257230000Y-84328000D01*
X258238000Y-84328000D01*
X258238000Y-82937046D01*
X258063126Y-82810881D01*
X257840024Y-82890724D01*
X257652236Y-83012631D01*
X257491839Y-83168831D01*
X257364997Y-83353322D01*
X257276585Y-83559013D01*
X257230000Y-83778000D01*
X251509338Y-83778000D01*
X251513570Y-82390001D01*
X255916018Y-82390001D01*
X255951934Y-82386464D01*
X255961149Y-82386528D01*
X255972752Y-82385390D01*
X256263897Y-82354790D01*
X256338058Y-82339567D01*
X256412373Y-82325391D01*
X256423525Y-82322023D01*
X256423532Y-82322022D01*
X256423538Y-82322019D01*
X256703189Y-82235453D01*
X256772969Y-82206121D01*
X256843127Y-82177775D01*
X256853421Y-82172302D01*
X257110937Y-82033063D01*
X257173696Y-81990731D01*
X257237003Y-81949305D01*
X257246036Y-81941938D01*
X257246040Y-81941935D01*
X257246044Y-81941931D01*
X257471605Y-81755331D01*
X257524956Y-81701606D01*
X257579003Y-81648680D01*
X257586429Y-81639703D01*
X257586435Y-81639697D01*
X257586439Y-81639690D01*
X257701107Y-81499095D01*
X257840024Y-81589276D01*
X258063126Y-81669119D01*
X258238000Y-81542954D01*
X258238000Y-80402000D01*
X258492000Y-80402000D01*
X258492000Y-81542954D01*
X258666874Y-81669119D01*
X258889976Y-81589276D01*
X259077764Y-81467369D01*
X259238161Y-81311169D01*
X259365003Y-81126678D01*
X259453415Y-80920987D01*
X259500000Y-80702000D01*
X259500000Y-80402000D01*
X265870000Y-80402000D01*
X265870000Y-80702000D01*
X265916585Y-80920987D01*
X266004997Y-81126678D01*
X266131839Y-81311169D01*
X266292236Y-81467369D01*
X266480024Y-81589276D01*
X266703126Y-81669119D01*
X266878000Y-81542954D01*
X266878000Y-80402000D01*
X265870000Y-80402000D01*
X259500000Y-80402000D01*
X258492000Y-80402000D01*
X258238000Y-80402000D01*
X258218000Y-80402000D01*
X258218000Y-80148000D01*
X258238000Y-80148000D01*
X258238000Y-80128000D01*
X258492000Y-80128000D01*
X258492000Y-80148000D01*
X259500000Y-80148000D01*
X259500000Y-79848000D01*
X259453415Y-79629013D01*
X259365003Y-79423322D01*
X259342093Y-79390000D01*
X266027907Y-79390000D01*
X266004997Y-79423322D01*
G04 #@! TA.AperFunction,Conductor*
D26*
G36*
X266004997Y-79423322D02*
G01*
X265916585Y-79629013D01*
X265870000Y-79848000D01*
X265870000Y-80148000D01*
X266878000Y-80148000D01*
X266878000Y-80128000D01*
X267132000Y-80128000D01*
X267132000Y-80148000D01*
X267152000Y-80148000D01*
X267152000Y-80402000D01*
X267132000Y-80402000D01*
X267132000Y-81542954D01*
X267306874Y-81669119D01*
X267529976Y-81589276D01*
X267717764Y-81467369D01*
X267878161Y-81311169D01*
X268005003Y-81126678D01*
X268006385Y-81123464D01*
X268096936Y-81290936D01*
X268139275Y-81353706D01*
X268180697Y-81417006D01*
X268188065Y-81426040D01*
X268374670Y-81651606D01*
X268428394Y-81704957D01*
X268481320Y-81759003D01*
X268490297Y-81766429D01*
X268490304Y-81766436D01*
X268490312Y-81766441D01*
X268717167Y-81951460D01*
X268780206Y-81993343D01*
X268842649Y-82036099D01*
X268852899Y-82041641D01*
X268852903Y-82041644D01*
X268852907Y-82041646D01*
X269111386Y-82179081D01*
X269181425Y-82207949D01*
X269250915Y-82237733D01*
X269262046Y-82241179D01*
X269262053Y-82241182D01*
X269262060Y-82241183D01*
X269542306Y-82325795D01*
X269616550Y-82340496D01*
X269690572Y-82356230D01*
X269702165Y-82357448D01*
X269702167Y-82357448D01*
X269992105Y-82385876D01*
X270033982Y-82390001D01*
X270531560Y-82390001D01*
X270449136Y-85971555D01*
X270381680Y-85935498D01*
X270261982Y-85899188D01*
X270137500Y-85886928D01*
X269898250Y-85890000D01*
X269739500Y-86048750D01*
X269739500Y-87348000D01*
X269759500Y-87348000D01*
X269759500Y-87602000D01*
X269739500Y-87602000D01*
X269739500Y-87622000D01*
X269485500Y-87622000D01*
X269485500Y-87602000D01*
X268611250Y-87602000D01*
X268452500Y-87760750D01*
X268450924Y-88101444D01*
X267356904Y-88094587D01*
X266835500Y-87623348D01*
X266835500Y-86525000D01*
X268449428Y-86525000D01*
X268452500Y-87189250D01*
X268611250Y-87348000D01*
X269485500Y-87348000D01*
X269485500Y-86048750D01*
X269326750Y-85890000D01*
X269087500Y-85886928D01*
X268963018Y-85899188D01*
X268843320Y-85935498D01*
X268733006Y-85994463D01*
X268636315Y-86073815D01*
X268556963Y-86170506D01*
X268497998Y-86280820D01*
X268461688Y-86400518D01*
X268449428Y-86525000D01*
X266835500Y-86525000D01*
X266835500Y-86483968D01*
X266892337Y-86377633D01*
X266934365Y-86239085D01*
X266948556Y-86095000D01*
X266948556Y-84645000D01*
X266942352Y-84582000D01*
X267132000Y-84582000D01*
X267132000Y-85972954D01*
X267306874Y-86099119D01*
X267529976Y-86019276D01*
X267717764Y-85897369D01*
X267878161Y-85741169D01*
X268005003Y-85556678D01*
X268093415Y-85350987D01*
X268140000Y-85132000D01*
X268140000Y-84582000D01*
X267132000Y-84582000D01*
X266942352Y-84582000D01*
X266934365Y-84500915D01*
X266892337Y-84362367D01*
X266873967Y-84328000D01*
X266878000Y-84328000D01*
X266878000Y-82937046D01*
X267132000Y-82937046D01*
X267132000Y-84328000D01*
X268140000Y-84328000D01*
X268140000Y-83778000D01*
X268093415Y-83559013D01*
X268005003Y-83353322D01*
X267878161Y-83168831D01*
X267717764Y-83012631D01*
X267529976Y-82890724D01*
X267306874Y-82810881D01*
X267132000Y-82937046D01*
X266878000Y-82937046D01*
X266703126Y-82810881D01*
X266480024Y-82890724D01*
X266292236Y-83012631D01*
X266221129Y-83081878D01*
X266077098Y-82985640D01*
X265884191Y-82905735D01*
X265679401Y-82865000D01*
X265470599Y-82865000D01*
X265265809Y-82905735D01*
X265072902Y-82985640D01*
X264899289Y-83101644D01*
X264751644Y-83249289D01*
X264635640Y-83422902D01*
X264555735Y-83615809D01*
X264515000Y-83820599D01*
X264515000Y-83906444D01*
X264285000Y-83906444D01*
X264185000Y-83916293D01*
X264157211Y-83913556D01*
X264155194Y-83909782D01*
X264047475Y-83778525D01*
X264014580Y-83751529D01*
X263618462Y-83355411D01*
X263591474Y-83322526D01*
X263502235Y-83249289D01*
X263460218Y-83214807D01*
X263310469Y-83134764D01*
X263147981Y-83085474D01*
X262979000Y-83068830D01*
X262978999Y-83068830D01*
X262810018Y-83085474D01*
X262647530Y-83134764D01*
X262497781Y-83214807D01*
X262399413Y-83295536D01*
X262366526Y-83322526D01*
X262339538Y-83355411D01*
X261855420Y-83839529D01*
X261822525Y-83866525D01*
X261789765Y-83906444D01*
X261785000Y-83906444D01*
X261685000Y-83916293D01*
X261585000Y-83906444D01*
X261285000Y-83906444D01*
X261185000Y-83916293D01*
X261085000Y-83906444D01*
X260855000Y-83906444D01*
X260855000Y-83820599D01*
X260814265Y-83615809D01*
X260734360Y-83422902D01*
X260618356Y-83249289D01*
X260470711Y-83101644D01*
X260297098Y-82985640D01*
X260104191Y-82905735D01*
X259899401Y-82865000D01*
X259690599Y-82865000D01*
X259485809Y-82905735D01*
X259292902Y-82985640D01*
X259148871Y-83081878D01*
X259077764Y-83012631D01*
X258889976Y-82890724D01*
X258666874Y-82810881D01*
X258492000Y-82937046D01*
X258492000Y-84328000D01*
X258496033Y-84328000D01*
X258477663Y-84362367D01*
X258435635Y-84500915D01*
X258421444Y-84645000D01*
X258421444Y-86095000D01*
X258435635Y-86239085D01*
X258477663Y-86377633D01*
X258534501Y-86483969D01*
X258534501Y-86954239D01*
X257209719Y-87683083D01*
X251497388Y-87697674D01*
X251506887Y-84582000D01*
X257230000Y-84582000D01*
X257230000Y-85132000D01*
X257276585Y-85350987D01*
X257364997Y-85556678D01*
X257491839Y-85741169D01*
X257652236Y-85897369D01*
X257840024Y-86019276D01*
X258063126Y-86099119D01*
X258238000Y-85972954D01*
X258238000Y-84582000D01*
X257230000Y-84582000D01*
X251506887Y-84582000D01*
X251509338Y-83778000D01*
X257230000Y-83778000D01*
X257230000Y-84328000D01*
X258238000Y-84328000D01*
X258238000Y-82937046D01*
X258063126Y-82810881D01*
X257840024Y-82890724D01*
X257652236Y-83012631D01*
X257491839Y-83168831D01*
X257364997Y-83353322D01*
X257276585Y-83559013D01*
X257230000Y-83778000D01*
X251509338Y-83778000D01*
X251513570Y-82390001D01*
X255916018Y-82390001D01*
X255951934Y-82386464D01*
X255961149Y-82386528D01*
X255972752Y-82385390D01*
X256263897Y-82354790D01*
X256338058Y-82339567D01*
X256412373Y-82325391D01*
X256423525Y-82322023D01*
X256423532Y-82322022D01*
X256423538Y-82322019D01*
X256703189Y-82235453D01*
X256772969Y-82206121D01*
X256843127Y-82177775D01*
X256853421Y-82172302D01*
X257110937Y-82033063D01*
X257173696Y-81990731D01*
X257237003Y-81949305D01*
X257246036Y-81941938D01*
X257246040Y-81941935D01*
X257246044Y-81941931D01*
X257471605Y-81755331D01*
X257524956Y-81701606D01*
X257579003Y-81648680D01*
X257586429Y-81639703D01*
X257586435Y-81639697D01*
X257586439Y-81639690D01*
X257701107Y-81499095D01*
X257840024Y-81589276D01*
X258063126Y-81669119D01*
X258238000Y-81542954D01*
X258238000Y-80402000D01*
X258492000Y-80402000D01*
X258492000Y-81542954D01*
X258666874Y-81669119D01*
X258889976Y-81589276D01*
X259077764Y-81467369D01*
X259238161Y-81311169D01*
X259365003Y-81126678D01*
X259453415Y-80920987D01*
X259500000Y-80702000D01*
X259500000Y-80402000D01*
X265870000Y-80402000D01*
X265870000Y-80702000D01*
X265916585Y-80920987D01*
X266004997Y-81126678D01*
X266131839Y-81311169D01*
X266292236Y-81467369D01*
X266480024Y-81589276D01*
X266703126Y-81669119D01*
X266878000Y-81542954D01*
X266878000Y-80402000D01*
X265870000Y-80402000D01*
X259500000Y-80402000D01*
X258492000Y-80402000D01*
X258238000Y-80402000D01*
X258218000Y-80402000D01*
X258218000Y-80148000D01*
X258238000Y-80148000D01*
X258238000Y-80128000D01*
X258492000Y-80128000D01*
X258492000Y-80148000D01*
X259500000Y-80148000D01*
X259500000Y-79848000D01*
X259453415Y-79629013D01*
X259365003Y-79423322D01*
X259342093Y-79390000D01*
X266027907Y-79390000D01*
X266004997Y-79423322D01*
G37*
G04 #@! TD.AperFunction*
M02*
