M48
; DRILL file {KiCad (5.1.9-0-10_14)} date Wednesday, May 12, 2021 at 02:41:20 PM
; FORMAT={-:-/ absolute / metric / decimal}
; #@! TF.CreationDate,2021-05-12T14:41:20+09:00
; #@! TF.GenerationSoftware,Kicad,Pcbnew,(5.1.9-0-10_14)
; #@! TF.FileFunction,NonPlated,1,2,NPTH
FMAT,2
METRIC
T1C0.650
T2C1.750
T3C2.500
T4C3.048
T5C3.988
%
G90
G05
T1
X259.795Y-83.925
X265.575Y-83.925
T2
X69.91Y-129.35
X69.923Y-148.387
X69.986Y-100.799
X72.298Y-224.6
X74.685Y-167.45
X77.06Y-186.5
X80.07Y-129.35
X80.083Y-148.387
X80.146Y-100.799
X81.823Y-205.55
X82.458Y-224.6
X84.845Y-167.45
X87.22Y-186.5
X88.96Y-129.35
X88.96Y-148.4
X89.036Y-100.799
X91.983Y-205.55
X96.13Y-224.6
X98.51Y-167.45
X99.12Y-129.35
X99.12Y-148.4
X99.196Y-100.799
X103.235Y-186.5
X106.29Y-224.6
X108.01Y-129.35
X108.061Y-148.4
X108.086Y-100.799
X108.67Y-167.45
X112.811Y-205.55
X113.395Y-186.5
X117.56Y-167.45
X118.17Y-129.35
X118.221Y-148.4
X118.246Y-100.799
X119.937Y-224.609
X122.234Y-186.5
X122.971Y-205.55
X127.111Y-129.35
X127.111Y-148.4
X127.136Y-100.799
X127.72Y-167.45
X130.097Y-224.609
X131.861Y-205.55
X132.394Y-186.5
X136.61Y-167.45
X137.271Y-129.35
X137.271Y-148.4
X137.296Y-100.799
X141.335Y-186.5
X142.021Y-205.55
X146.161Y-129.35
X146.161Y-148.4
X146.186Y-100.799
X146.77Y-167.45
X150.911Y-205.55
X151.495Y-186.5
X155.66Y-167.45
X156.321Y-129.35
X156.321Y-148.4
X156.346Y-100.799
X160.385Y-186.5
X161.071Y-205.55
X165.211Y-129.35
X165.211Y-148.4
X165.236Y-100.799
X165.82Y-167.45
X169.961Y-205.55
X170.545Y-186.5
X174.71Y-167.45
X175.371Y-129.35
X175.371Y-148.4
X175.396Y-100.799
X179.435Y-186.5
X180.121Y-205.55
X184.261Y-129.35
X184.261Y-148.4
X184.286Y-100.799
X184.87Y-167.45
X189.011Y-205.55
X189.595Y-186.5
X191.386Y-224.609
X193.76Y-167.45
X194.421Y-129.35
X194.421Y-148.4
X194.446Y-100.799
X198.485Y-186.5
X199.171Y-205.55
X201.546Y-224.609
X203.311Y-129.35
X203.311Y-148.4
X203.336Y-100.799
X203.92Y-167.45
X208.061Y-205.55
X208.645Y-186.5
X212.81Y-167.45
X213.471Y-129.35
X213.471Y-148.4
X213.496Y-100.799
X217.535Y-186.5
X218.221Y-205.55
X222.361Y-129.35
X222.361Y-148.4
X222.386Y-100.799
X222.97Y-167.45
X227.111Y-205.55
X227.695Y-186.5
X231.86Y-167.45
X232.521Y-129.35
X232.521Y-148.4
X232.546Y-100.799
X236.585Y-186.5
X237.271Y-205.55
X241.411Y-129.35
X241.411Y-148.4
X241.436Y-100.799
X242.02Y-167.45
X246.161Y-205.55
X246.745Y-186.5
X250.91Y-167.45
X251.571Y-129.35
X251.571Y-148.4
X251.596Y-100.799
X255.635Y-186.5
X256.321Y-205.55
X260.44Y-224.6
X260.461Y-129.35
X260.461Y-148.4
X261.07Y-167.45
X265.211Y-205.55
X265.795Y-186.5
X269.91Y-167.45
X270.6Y-224.6
X270.621Y-129.35
X270.621Y-148.4
X274.685Y-186.5
X275.371Y-205.55
X279.511Y-129.35
X279.511Y-148.4
X279.562Y-224.6
X279.595Y-100.799
X280.07Y-167.45
X284.261Y-205.55
X284.845Y-186.5
X288.96Y-167.45
X289.671Y-129.35
X289.671Y-148.4
X289.722Y-224.6
X289.755Y-100.799
X293.735Y-186.5
X294.421Y-205.55
X298.561Y-129.35
X298.561Y-148.4
X298.586Y-100.799
X298.612Y-224.6
X299.12Y-167.45
X303.895Y-186.5
X308.01Y-167.45
X308.721Y-129.35
X308.721Y-148.4
X308.746Y-100.799
X308.772Y-224.6
X310.486Y-205.55
X317.636Y-100.799
X317.662Y-129.35
X317.662Y-224.6
X318.17Y-167.45
X320.646Y-205.55
X324.723Y-186.5
X327.161Y-148.4
X327.796Y-100.799
X327.822Y-129.35
X327.822Y-224.6
X331.809Y-167.45
X334.883Y-186.5
X336.661Y-129.35
X336.686Y-100.799
X336.712Y-205.55
X336.712Y-224.6
X337.321Y-148.4
X341.969Y-167.45
X346.821Y-129.35
X346.846Y-100.799
X346.872Y-205.55
X346.872Y-224.6
X355.736Y-100.799
X355.762Y-129.35
X355.762Y-148.4
X355.762Y-167.45
X355.762Y-186.5
X355.762Y-205.55
X355.762Y-224.6
X365.896Y-100.799
X365.922Y-129.35
X365.922Y-148.4
X365.922Y-167.45
X365.922Y-186.5
X365.922Y-205.55
X365.922Y-224.6
T3
X65.325Y-86.518
X65.325Y-239.475
X141.778Y-157.761
X294.02Y-157.761
X370.325Y-86.618
X370.325Y-239.475
T4
X74.996Y-198.565
X98.809Y-198.565
X146.466Y-217.624
X246.466Y-217.624
X317.896Y-179.515
X320.335Y-141.415
X341.709Y-179.515
X344.147Y-141.415
T5
X74.99Y-129.35
X74.996Y-213.805
X75.003Y-148.387
X75.066Y-100.799
X77.378Y-224.6
X79.765Y-167.45
X82.14Y-186.5
X86.903Y-205.55
X94.04Y-129.35
X94.04Y-148.4
X94.116Y-100.799
X98.809Y-213.805
X101.21Y-224.6
X103.59Y-167.45
X108.315Y-186.5
X113.09Y-129.35
X113.141Y-148.4
X113.166Y-100.799
X117.891Y-205.55
X122.64Y-167.45
X125.017Y-224.609
X127.314Y-186.5
X132.191Y-129.35
X132.191Y-148.4
X132.216Y-100.799
X136.941Y-205.55
X141.69Y-167.45
X146.415Y-186.5
X146.466Y-232.864
X151.241Y-129.35
X151.241Y-148.4
X151.266Y-100.799
X155.991Y-205.55
X160.74Y-167.45
X165.465Y-186.5
X170.291Y-129.35
X170.291Y-148.4
X170.316Y-100.799
X175.041Y-205.55
X179.79Y-167.45
X184.515Y-186.5
X189.341Y-129.35
X189.341Y-148.4
X189.366Y-100.799
X194.091Y-205.55
X196.466Y-224.609
X198.84Y-167.45
X203.565Y-186.5
X208.391Y-129.35
X208.391Y-148.4
X208.416Y-100.799
X213.141Y-205.55
X217.89Y-167.45
X222.615Y-186.5
X227.441Y-129.35
X227.441Y-148.4
X227.466Y-100.799
X232.191Y-205.55
X236.94Y-167.45
X241.665Y-186.5
X246.466Y-232.864
X246.491Y-129.35
X246.491Y-148.4
X246.516Y-100.799
X251.241Y-205.55
X255.99Y-167.45
X260.715Y-186.5
X265.52Y-224.6
X265.541Y-129.35
X265.541Y-148.4
X270.291Y-205.55
X274.99Y-167.45
X279.765Y-186.5
X284.591Y-129.35
X284.591Y-148.4
X284.642Y-224.6
X284.675Y-100.799
X289.341Y-205.55
X294.04Y-167.45
X298.815Y-186.5
X303.641Y-129.35
X303.641Y-148.4
X303.666Y-100.799
X303.692Y-224.6
X313.09Y-167.45
X315.566Y-205.55
X317.896Y-194.755
X320.335Y-156.655
X322.716Y-100.799
X322.742Y-129.35
X322.742Y-224.6
X329.803Y-186.5
X332.241Y-148.4
X336.889Y-167.45
X341.709Y-194.755
X341.741Y-129.35
X341.766Y-100.799
X341.792Y-205.55
X341.792Y-224.6
X344.147Y-156.655
X360.816Y-100.799
X360.842Y-129.35
X360.842Y-148.4
X360.842Y-167.45
X360.842Y-186.5
X360.842Y-205.55
X360.842Y-224.6
T0
M30
